<svg xmlns="http://www.w3.org/2000/svg" width="30.627" height="20.225" viewBox="0 0 30.627 20.225"><defs><style>.a{fill:#aeb0b5;}</style></defs><path class="a" d="M29.327,18.7H6.268A3.773,3.773,0,0,0,2.5,22.468V35.157a3.773,3.773,0,0,0,3.768,3.768H29.359a3.773,3.773,0,0,0,3.768-3.768V22.436A3.794,3.794,0,0,0,29.327,18.7ZM31.9,35.125a2.55,2.55,0,0,1-2.544,2.544H6.268a2.55,2.55,0,0,1-2.544-2.544V22.436a2.55,2.55,0,0,1,2.544-2.544H29.359A2.55,2.55,0,0,1,31.9,22.436Z" transform="translate(-2.5 -18.7)"/><path class="a" d="M62.714,33.4h-8.5a.611.611,0,0,0-.612.612.592.592,0,0,0,.612.612h8.5a.611.611,0,0,0,.612-.612A.592.592,0,0,0,62.714,33.4Z" transform="translate(-37.143 -28.666)"/><path class="a" d="M62.714,48.1h-8.5a.611.611,0,0,0-.612.612.592.592,0,0,0,.612.612h8.5a.611.611,0,0,0,.612-.612A.592.592,0,0,0,62.714,48.1Z" transform="translate(-37.143 -38.632)"/><path class="a" d="M62.714,62.9h-8.5a.612.612,0,1,0,0,1.224h8.5a.611.611,0,0,0,.612-.612A.592.592,0,0,0,62.714,62.9Z" transform="translate(-37.143 -48.665)"/><path class="a" d="M22.138,36.814a3.022,3.022,0,1,0-4.992-2.287,2.976,2.976,0,0,0,1.063,2.287A5.032,5.032,0,0,0,15.6,41.323c0,.483.225,1.353,1.61,1.932a8.13,8.13,0,0,0,2.963.515c2.287,0,4.573-.741,4.573-2.415A5.084,5.084,0,0,0,22.138,36.814ZM18.37,34.527a1.8,1.8,0,1,1,1.8,1.8A1.8,1.8,0,0,1,18.37,34.527Zm1.8,8.019c-1.836,0-3.349-.547-3.349-1.224a3.609,3.609,0,0,1,3.349-3.8,3.609,3.609,0,0,1,3.349,3.8C23.555,42,22.009,42.546,20.173,42.546Z" transform="translate(-11.381 -27.378)"/></svg>