<svg xmlns="http://www.w3.org/2000/svg" width="18.588" height="20.923" viewBox="0 0 18.588 20.923"><defs><style>.a{fill:#aeb0b5;}</style></defs><path class="a" d="M19.214,4.956a.722.722,0,0,0-.617.7V6.4a5.424,5.424,0,0,0-3.238,1.626A7.274,7.274,0,0,0,13.5,11.811l-.929,5.112a2.031,2.031,0,0,1-1.147,1.648,3.9,3.9,0,0,0-.922.733,2.249,2.249,0,0,0-.5,1.459,1.87,1.87,0,0,0,1.859,1.859h3.957a3.486,3.486,0,0,0,6.956,0H26.73a1.87,1.87,0,0,0,1.859-1.859,2.249,2.249,0,0,0-.5-1.459,3.9,3.9,0,0,0-.922-.733,2.03,2.03,0,0,1-1.147-1.648l-.929-5.112A7.278,7.278,0,0,0,23.23,8.028,5.425,5.425,0,0,0,19.991,6.4V5.66A.728.728,0,0,0,19.214,4.956Zm.08,2.8a3.935,3.935,0,0,1,2.933,1.242,5.954,5.954,0,0,1,1.5,3.064l.929,5.112a3.746,3.746,0,0,0,1.75,2.563,3.325,3.325,0,0,1,.624.472.7.7,0,0,1,.167.559.449.449,0,0,1-.465.465H11.859a.449.449,0,0,1-.465-.465.7.7,0,0,1,.167-.559,3.326,3.326,0,0,1,.624-.472,3.747,3.747,0,0,0,1.75-2.563l.929-5.112a5.952,5.952,0,0,1,1.5-3.064A3.935,3.935,0,0,1,19.294,7.751ZM17.247,22.622h4.1a2.057,2.057,0,0,1-4.1,0Z" transform="translate(-10 -4.952)"/></svg>