<svg xmlns="http://www.w3.org/2000/svg" xmlns:xlink="http://www.w3.org/1999/xlink" width="428" height="428" viewBox="0 0 428 428">
  <defs>
    <linearGradient id="linear-gradient" x1="0.382" y1="-0.143" x2="0.55" y2="0.881" gradientUnits="objectBoundingBox">
      <stop offset="0" stop-color="#fff"/>
      <stop offset="0.085" stop-color="#f5f5f5"/>
      <stop offset="0.229" stop-color="#dadada"/>
      <stop offset="0.413" stop-color="#afafaf"/>
      <stop offset="0.631" stop-color="#747474"/>
      <stop offset="0.876" stop-color="#292929"/>
      <stop offset="1"/>
    </linearGradient>
    <linearGradient id="linear-gradient-2" x1="0" y1="0.5" x2="1" y2="0.5" xlink:href="#linear-gradient"/>
    <linearGradient id="linear-gradient-5" x1="-32.097" y1="19.31" x2="-31.989" y2="19.31" gradientUnits="objectBoundingBox">
      <stop offset="0" stop-color="#fff"/>
      <stop offset="1"/>
    </linearGradient>
    <linearGradient id="linear-gradient-6" x1="-11.493" y1="2.676" x2="-11.487" y2="2.669" gradientUnits="objectBoundingBox">
      <stop offset="0" stop-color="#6b63da"/>
      <stop offset="1" stop-color="#1e185d"/>
    </linearGradient>
    <linearGradient id="linear-gradient-7" x1="-5.333" y1="9.303" x2="-5.346" y2="9.305" xlink:href="#linear-gradient-6"/>
    <linearGradient id="linear-gradient-8" x1="-20.35" y1="21.156" x2="-20.319" y2="21.181" gradientUnits="objectBoundingBox">
      <stop offset="0" stop-color="#680e0e"/>
      <stop offset="1" stop-color="#c90c0f"/>
    </linearGradient>
    <linearGradient id="linear-gradient-9" x1="-40.309" y1="55.551" x2="-40.331" y2="55.495" gradientUnits="objectBoundingBox">
      <stop offset="0" stop-color="#ba0c0c"/>
      <stop offset="1" stop-color="#c90c0f"/>
    </linearGradient>
    <clipPath id="clip-illustration_login">
      <rect width="428" height="428"/>
    </clipPath>
  </defs>
  <g id="illustration_login" clip-path="url(#clip-illustration_login)">
    <g id="Groupe_2821" data-name="Groupe 2821" transform="translate(-55 -107.792)">
      <g id="Groupe_2716" data-name="Groupe 2716" transform="translate(75.592 423.285)">
        <path id="Tracé_7613" data-name="Tracé 7613" d="M553.7,603.616c-42.168-12.424-82.164-10.01-118.14-3.361-34.608,6.4-65.474,16.761-90.917,21.593-44.721,8.5-82.306,18.474-131.963-14.664-14.871-9.938-7.279-26.6,22.957-40.488,31.81-14.7,88.677-26.386,170.841-24.146C658.373,549.374,633.422,627.165,553.7,603.616Z" transform="translate(-205.308 -542.274)" fill="rgba(189,197,234,0.4)"/>
        <path id="Tracé_7614" data-name="Tracé 7614" d="M435.564,590.412c-34.608,6.4-65.474,16.762-90.917,21.593-44.721,8.5-82.306,18.474-131.963-14.664-14.871-9.938-7.279-26.6,22.957-40.488,20.856-6.021,46.473-9.554,74.152-9.554C373.484,547.3,426.221,566.02,435.564,590.412Z" transform="translate(-205.308 -532.431)" opacity="0.5" fill="url(#linear-gradient)" style="mix-blend-mode: overlay;isolation: isolate"/>
      </g>
      <g id="Groupe_2717" data-name="Groupe 2717" transform="translate(55 132.792)">
        <path id="Tracé_7615" data-name="Tracé 7615" d="M472.888,687.934a44.011,44.011,0,0,0-13.578-5.95,59.255,59.255,0,0,0-14.522-1.888c-15.853-.316-33.91,4.234-52.982,9.764-5.494,1.574-11.024,3.219-16.658,4.9-27.084,8.051-55.536,15.959-82.2,13.72-16.028-1.332-31.425-6.3-45.529-17.182-15.817-12.11-29.954-31.6-41.5-61.521-.281-.734-.559-1.471-.769-2.2-12.669-34.715-6.474-67.436,9.027-93.331,29.99-50.148,94.8-74.854,125.981-39.334,37.058,42.168,77.442,38.319,98.58,19.211a45.521,45.521,0,0,0,12.947-19.492c10.708-32.614,63.2-67.643,106.663-41.257q2.308,1.416,4.2,2.834c29.744,22.327-9.2,51.476.734,97.284,10.323,47.769,46.228,17.954,56.027,61.731C631.586,670.3,528.74,724.957,472.888,687.934Z" transform="translate(-198.348 -444.094)" fill="rgba(189,197,234,0.4)"/>
        <path id="Tracé_7616" data-name="Tracé 7616" d="M322.6,679.918a44.015,44.015,0,0,0-13.578-5.95,59.247,59.247,0,0,0-14.522-1.888,149.8,149.8,0,0,1-19.247-66.7c-.107-2.414-.175-4.864-.175-7.314A150.457,150.457,0,0,1,412.253,448.186c29.744,22.327-9.2,51.476.734,97.284,10.323,47.769,46.228,17.954,56.027,61.731C481.3,662.281,378.449,716.941,322.6,679.918Z" transform="translate(-48.057 -436.078)" opacity="0.5" fill="url(#linear-gradient-2)" style="mix-blend-mode: overlay;isolation: isolate"/>
        <path id="Tracé_7617" data-name="Tracé 7617" d="M428.257,491.562A142.2,142.2,0,0,1,203.7,511.684c29.99-50.148,94.8-74.854,125.981-39.334C366.736,514.519,407.12,510.669,428.257,491.562Z" transform="translate(-187.87 -421.539)" opacity="0.5" fill="url(#linear-gradient-2)" style="mix-blend-mode: overlay;isolation: isolate"/>
        <path id="Tracé_7618" data-name="Tracé 7618" d="M370.647,591.225c-27.084,8.051-55.536,15.959-82.2,13.72-16.028-1.331-31.425-6.3-45.529-17.182-15.817-12.11-29.954-31.6-41.5-61.521-.281-.734-.559-1.471-.769-2.2a100.692,100.692,0,0,1,68.9-27.087,82.972,82.972,0,0,1,8.4.388,101.053,101.053,0,0,1,70.548,37.408c2.1,2.624,4.1,5.355,5.95,8.19A100.259,100.259,0,0,1,370.647,591.225Z" transform="translate(-193.847 -340.561)" opacity="0.5" fill="url(#linear-gradient-2)" style="mix-blend-mode: overlay;isolation: isolate"/>
      </g>
    </g>
    <g id="Groupe_2883" data-name="Groupe 2883" transform="translate(-208.148 -107.025)">
      <g id="Groupe_2882" data-name="Groupe 2882" transform="translate(323.056 147.877)">
        <g id="Groupe_2880" data-name="Groupe 2880" transform="translate(151.991 90.482)">
          <path id="Tracé_7774" data-name="Tracé 7774" d="M587.936,314.021c-1.951-4.4-4.884-8.5-7.79-12.537-.219-.3-.448-.629-.656-.948a19.864,19.864,0,0,1,1.962,1.511C584.907,305.137,586.614,309.486,587.936,314.021Z" transform="translate(-579.49 -300.536)" opacity="0.5" fill="url(#linear-gradient-5)" style="isolation: isolate"/>
          <path id="Tracé_7775" data-name="Tracé 7775" d="M621.737,406.921c.17.43.43,1.2.774,2.318Q622.123,408.078,621.737,406.921Z" transform="translate(-596.697 -343.866)" opacity="0.1" style="isolation: isolate"/>
        </g>
        <path id="Tracé_7778" data-name="Tracé 7778" d="M337.187,286.678l-6.546,7.066,159.211,252.44,6.35-6.879-2.215-7.761Z" transform="translate(-326.145 -204.41)" fill="#18255b"/>
        <path id="Tracé_7779" data-name="Tracé 7779" d="M475.646,552.2H381.357c-10.5,0-20.516-9.286-22.367-20.738L323.352,311.1c-1.851-11.452,5.161-20.738,15.665-20.738h94.29c10.5,0,20.516,9.286,22.367,20.738l35.633,220.369C493.164,542.918,486.151,552.2,475.646,552.2Z" transform="translate(-323.056 -205.908)" fill="#414142"/>
        <path id="Tracé_7780" data-name="Tracé 7780" d="M485.682,541.31H391.4c-10.5,0-20.52-9.282-22.371-20.738L333.393,300.2c-1.851-11.456,5.161-20.738,15.662-20.738h94.289c10.5,0,20.52,9.282,22.371,20.738l35.633,220.369C503.2,532.028,496.187,541.31,485.682,541.31Z" transform="translate(-327.146 -201.472)" fill="#06060a"/>
        <path id="Tracé_7781" data-name="Tracé 7781" d="M446.349,291.761h-11.5a1.365,1.365,0,0,0-1.292,1.711l.514,3.173c.919,5.69-2.566,10.3-7.783,10.3H383.813c-5.216,0-10.195-4.609-11.112-10.3l-.515-3.173a2.008,2.008,0,0,0-1.847-1.711h-11.5c-8.512,0-14.2,7.523-12.692,16.806l34.548,213.66c1.5,9.282,9.619,16.809,18.132,16.809h87.509c8.512,0,14.2-7.527,12.7-16.809L464.48,308.567C462.981,299.284,454.861,291.761,446.349,291.761Z" transform="translate(-332.361 -206.48)" fill="#fff"/>
        <path id="Tracé_7782" data-name="Tracé 7782" d="M446.349,291.761h-11.5a1.365,1.365,0,0,0-1.292,1.711l.514,3.173c.919,5.69-2.566,10.3-7.783,10.3H383.813c-5.216,0-10.195-4.609-11.112-10.3l-.515-3.173a2.008,2.008,0,0,0-1.847-1.711h-11.5c-8.512,0-14.2,7.523-12.692,16.806l34.548,213.66c1.5,9.282,9.619,16.809,18.132,16.809h87.509c8.512,0,14.2-7.527,12.7-16.809L464.48,308.567C462.981,299.284,454.861,291.761,446.349,291.761Z" transform="translate(-332.361 -206.48)" fill="#fff"/>
        <path id="Tracé_7783" data-name="Tracé 7783" d="M509.854,667.078H439.472c-3.251,0-6.346-2.873-6.92-6.413l-1.389-8.59c-.574-3.543,1.6-6.413,4.843-6.413h70.386c3.247,0,6.346,2.87,6.916,6.413l1.388,8.591C515.272,664.2,513.1,667.078,509.854,667.078Z" transform="translate(-367.05 -350.62)" fill="#757475"/>
        <path id="Tracé_7784" data-name="Tracé 7784" d="M595.625,433.651c.418.211,8.719,6.935,9.978,11.766s.063,10.571-3.151,13.444c-6.931,6.2-55.464,4.517-55.464,4.517l3.784-13.97L570.1,445Z" transform="translate(-414.261 -264.27)" fill="#b5805d"/>
        <path id="Tracé_7785" data-name="Tracé 7785" d="M579.26,454.924c1.811.552,1.811.315,3.384-1.418s4.491-.867,4.491-.867c7.487,5.2,9.612,1.418,7.012,1.263s-7.72-3.784-7.8-4.965,9.218-9.061,9.218-9.061-1.14-.7-2.651-1.611l-19.7,8.753-17.12,3.912v2.025s5.12-.707,10.793-1.5S577.446,454.373,579.26,454.924Z" transform="translate(-417.972 -266.149)" fill="#b5805d"/>
        <path id="Tracé_7786" data-name="Tracé 7786" d="M565.619,379.6a138.216,138.216,0,0,0,13.34,11.344c6.091,4.306,20.275,14.918,23.426,21.008,0,0-16.284,11.03-17.12,12.608s-3.047,4.832-3.047,4.832l-23.531-14.181Z" transform="translate(-419.026 -242.255)" fill="#050505"/>
        <path id="Tracé_7787" data-name="Tracé 7787" d="M570.662,414.055c-2.521-2.9.392-21.9,2.185-27.291a65.541,65.541,0,0,1-5.913-5.287l-1.492-.33-6.753,34.693,23.531,14.181s2.207-3.26,3.047-4.832C585.265,425.188,574.242,418.176,570.662,414.055Z" transform="translate(-419.027 -242.886)" fill="#050505"/>
        <path id="Tracé_7788" data-name="Tracé 7788" d="M514.313,475.486c.459-3.432,2.029-5.258,2.229-6.972l.007-.052a2.275,2.275,0,0,0-1.792-2.5c-3.821-.8-11.558-2.392-12.269-2.363-.948.041-1.733.034-2.166.463s-1.566,1.018-2.01,6.028-.17,6.609.1,7.05,1.744,1.245,1.482,2.786a29.575,29.575,0,0,1-.911,4.7c-.344.633-1.766,1.188-1.455,5.512s1.492,13.588,4.235,15.077,4.528.674,5.6-.241.152-6.028.563-7.035,12.3-14.925,11.4-17.28C519.319,480.659,513.854,478.915,514.313,475.486Z" transform="translate(-394.097 -276.47)" fill="url(#linear-gradient-6)"/>
        <path id="Tracé_7789" data-name="Tracé 7789" d="M501.757,505.213a6.219,6.219,0,0,0,2.543.8c-1.5-1.274-3.454-11.493-3.728-14.033a7.491,7.491,0,0,1,1.4-5.339c.615-.644,1.1-6.442,1.229-7.6s-1.089-2.058-1.492-2.825-.189-1.477-.037-5.609a19.5,19.5,0,0,1,1.778-6.883,7.717,7.717,0,0,0-.963-.123c-.948.041-1.733.034-2.166.463s-1.566,1.018-2.01,6.028-.17,6.609.1,7.05,1.744,1.245,1.482,2.786a29.572,29.572,0,0,1-.911,4.7c-.344.633-1.766,1.188-1.455,5.512S499.013,503.724,501.757,505.213Z" transform="translate(-394.097 -276.469)" fill="#18255b"/>
        <path id="Tracé_7790" data-name="Tracé 7790" d="M464.536,399.733s17.357,30.094,18.857,31.042,2.17,4.724,2.17,4.724l20.256,14.181s-2.366,20.486-12.607,20.642-16.384-3.94-20.009-13.4-19.856-50.106-19.856-50.106l-.867-8.034,9.06-.315Z" transform="translate(-375.77 -249.942)" fill="#b5805d"/>
        <path id="Tracé_7791" data-name="Tracé 7791" d="M499.122,444.337c-.433-.274-2.185-2.974-4.458-6.672L491.1,431.77s8.654,24.644,8.968,30.842-1.155,9.035,0,8.616,2.1-5.672,3.573-5.991a71.71,71.71,0,0,1,7.982-.522c.677,0-.6-5.295-1.773-9.661l-8.556-5.993S500.617,445.281,499.122,444.337Z" transform="translate(-391.498 -263.504)" fill="#b5805d"/>
        <path id="Tracé_7792" data-name="Tracé 7792" d="M499.879,362.019s-5.924,16.3-5.883,21.345c.056,6.331,5.728,21.927,5.176,24.841s-.948,5.043-.315,8.038,3.78,18.433,3.78,18.433l25.344,3.793a1.611,1.611,0,0,0,1.818-1.281c1.5-7.623,8.164-41.6,8-42.928-.185-1.5,2.574-15.836,4.86-19.775Z" transform="translate(-392.678 -235.095)" fill="#050505"/>
        <path id="Tracé_7793" data-name="Tracé 7793" d="M439.266,391.537c3.451-.277,5.571.874,7.287.711l.048,0a2.273,2.273,0,0,0,2.063-2.281c-.022-3.9-.092-11.8-.274-12.493-.237-.915-.4-1.684-.907-2.015s-1.325-1.318-6.317-.7-6.494,1.226-6.872,1.577-.848,1.97-2.406,2.037a29.641,29.641,0,0,1-4.787.1c-.692-.2-1.533-1.473-5.69-.263s-12.97,4.321-13.847,7.32.3,4.564,1.414,5.42,5.924-1.118,6.994-.929,17.18,8.879,19.294,7.505C435.264,397.521,435.82,391.811,439.266,391.537Z" transform="translate(-357.35 -240.203)" fill="url(#linear-gradient-7)"/>
        <path id="Tracé_7794" data-name="Tracé 7794" d="M407.568,385.525a6.133,6.133,0,0,0-.248,2.651c.926-1.729,10.5-5.794,12.929-6.6a7.484,7.484,0,0,1,5.517.245c.759.459,6.527-.277,7.69-.4s1.778-1.5,2.444-2.055,1.407-.492,5.476-1.214a19.468,19.468,0,0,1,7.105.289,7,7,0,0,0-.085-.97c-.237-.915-.4-1.684-.907-2.015s-1.325-1.318-6.316-.7-6.494,1.226-6.872,1.577-.848,1.97-2.406,2.037a29.641,29.641,0,0,1-4.787.1c-.692-.2-1.533-1.473-5.69-.263S408.445,382.526,407.568,385.525Z" transform="translate(-357.356 -240.203)" fill="#18255b"/>
        <path id="Tracé_7795" data-name="Tracé 7795" d="M527.772,434.666c-4.31,1.181-16.439-3.6-18.753-8.009-2.4-4.591-1.962-27.317-1.063-33.241,1.111-7.3,5.038-26.111,5.038-26.111l-1.363-1.008-7.479-2.181-5.55,2.418c-1.737,5.11-4.632,14.151-4.6,17.683.056,6.331,5.728,21.927,5.176,24.841s-.948,5.043-.315,8.038,3.78,18.433,3.78,18.433l25.344,3.793a1.611,1.611,0,0,0,1.818-1.281c.229-1.162.577-2.936,1-5.109A10.477,10.477,0,0,1,527.772,434.666Z" transform="translate(-392.68 -235.95)" fill="#050505"/>
        <path id="Tracé_7796" data-name="Tracé 7796" d="M434.659,278.579l-1.851,1.692s5.517,11.189,9.849,11.23l1.814-5.991-4.77-6.932Z" transform="translate(-367.757 -201.111)" fill="url(#linear-gradient-8)"/>
        <path id="Tracé_7797" data-name="Tracé 7797" d="M388.312,325.987l-.6,1.429a15.53,15.53,0,0,0,.863,1.881,19.185,19.185,0,0,1,1,2.151,15.028,15.028,0,0,1,1.207,1.944c.314.84.892,2.258,1.051,2.836s.315,2.1,1.259,2.207,1.47-.682,2.1,0a7.189,7.189,0,0,0,3.358,2.1c1.106.1,2.418-.052,2.629-.366a8.394,8.394,0,0,0,.511-1.466l-2.14-7.986-4.1-2.836Z" transform="translate(-349.39 -220.42)" fill="#b5805d"/>
        <path id="Tracé_7798" data-name="Tracé 7798" d="M417.028,279.554s-16.151,17.7-16.939,18.306-1.5.47-1.914,1.129-3.6,2.322-4.268,2.873-6.616,4.1-6.616,5.4.589,1.851,1.063,2.007.433,1.618,1.222,1.97,2.558.2,2.873.633.752,1.966,1.618,1.811,1.651,1.025,2.48.907,2.758-.082,2.955.511-.356,1.773.078,2.64,1.536,3.269,1.773,2.521a24.458,24.458,0,0,1,1.733-3.821c.392-.514.474-5.832.789-7.327s2.914-5.868,4.569-7.76,10.69-10.55,15.821-11.1l1.67-4.339Z" transform="translate(-349.218 -201.508)" fill="#b5805d"/>
        <rect id="Rectangle_4" data-name="Rectangle 4" width="13.806" height="34.538" rx="1.695" transform="matrix(0.966, -0.258, 0.258, 0.966, 215.352, 15.962)" fill="#050505"/>
        <path id="Tracé_7799" data-name="Tracé 7799" d="M646.056,223.9s18.068-7.038,18.805-8.09a14.308,14.308,0,0,0,1.785-3.675c.1-.629.974-8.916,2.114-9.819s5.317-1.733,5.317-1.733l.633,2.085s1.929-3.151,2.873-2.558,1.222,2.677.474,4.254a23.172,23.172,0,0,0-1.929,5.946,13.58,13.58,0,0,1-1.459,4.372c-.392.633-1.181,3.192-2.129,3.862a16.277,16.277,0,0,1-3.858,1.811c-.552.081-20.05,15.206-20.05,15.206Z" transform="translate(-454.611 -169.121)" fill="#b5805d"/>
        <path id="Tracé_7800" data-name="Tracé 7800" d="M557.714,206.914l.418-.681a10.649,10.649,0,0,1,5.749,1c2.681,1.418,1.129,4.728,1,4.728s-5.41-1.655-5.41-1.655Z" transform="translate(-418.63 -171.621)" fill="url(#linear-gradient-9)"/>
        <path id="Tracé_7801" data-name="Tracé 7801" d="M583.895,223.573s3.269,3.073,3.351,3.78a7.361,7.361,0,0,1,0,1.418,4.109,4.109,0,0,1,2.4,3.192c.47,2.521,2.047,4.254,3.543,4.451s5.672,1.655,6.342,1.418,5.713-2.64,6.42-2.8.789-1.618,1.3-1.773,6.7-.907,7.8-1.418,2.677,1.811,3.032,2.836a24.841,24.841,0,0,1,.792,9.765s-2.444,2.485-2.717,2.918a12.9,12.9,0,0,1-1.577,1.336c-.4.392-2.243,1.3-2.677,1.067a7.039,7.039,0,0,0-1.063-.433s-9.3,5.2-10.282,5.358-10.56.274-10.56.274-1.455,8.393-2.951,11.367-3.547,7.146-3.547,7.146,5.435,4.806,6.3,5.909,8.353,7.8,9.612,11.267-.315,23.319-.315,23.319-17.176-.155-22.689-3.307-8.509-80.988-8.509-80.988l1.733-7.719Z" transform="translate(-422.781 -178.05)" fill="#00397c"/>
        <path id="Tracé_7802" data-name="Tracé 7802" d="M586.376,173.943a34.927,34.927,0,0,0,3.61-3.54c.8-1.11,4.85-8.772,3.136-13.877-.752-2.248-3.691-6.139-5.113-6.728s-4.5-2.155-5.291-1.892-5.043.092-5.906.7a22.285,22.285,0,0,0-3.592,4.043c-.044.34-7.7.959-10.189,1.341s-9.242,8.034-9.338,8.638.211,14.655,5.631,17.461,12.044,1.078,12.792.989S586.376,173.943,586.376,173.943Z" transform="translate(-416.987 -147.877)"/>
        <path id="Tracé_7803" data-name="Tracé 7803" d="M557.27,200.126a14.527,14.527,0,0,0,3.347-8.645s-2.236,1.055-3.391-3.418-1.17-6.783.626-6.939,3.48-.066,4.588,3.533a1.156,1.156,0,0,0,1.48.692l.008,0c1.111-.359,1.281-1.245,1.067-2.643s-1.018-6.657.289-7.364,7.361-1.9,13.463-.189,7.676,6.161,7.676,6.161l-3.236,12.952s-4.317,8.138-5.065,9.123c-1.263,1.67-6.6,1.744-6.6,1.744l-1.07,2.134-.526,4.254L572,214.981s2.718,5.769,1.518,6.164-20.683-7.191-21.278-8.357-.519-13-.519-13Z" transform="translate(-416.187 -158.627)" fill="#b5805d"/>
        <path id="Tracé_7804" data-name="Tracé 7804" d="M572.9,232.591s7.012,8.138,5.646,18.961c-.444,3.518-3.669,16.069-4.306,28.465-.337,6.613,3.78,20.168,3.78,27.573a.657.657,0,0,1-.293.711c-.415.237-3.37,1-3.37,1L559.749,281.6l7.564-33.4Z" transform="translate(-419.459 -182.38)" fill="#fff"/>
        <path id="Tracé_7805" data-name="Tracé 7805" d="M495.78,210.364s-13.555,1.433-17.439,4.1c-4.358,2.992-5.724,5.25-5.724,5.25s-8.061,5.291-9.453,6.41a71.918,71.918,0,0,1-6.383,4.1c-2.284,1.418-12.133,8.194-15.991,13.158a10.438,10.438,0,0,0-3,.844c-.711.511-2.914,3.428-3.88,3.94s-2.44,1.008-2.581,1.381.433,1.277.867,1.277.711-2.047,3.233.318,4.295,3.584,5.868,6.42.552,4.058.748,4.492.748-.041,1.418-.633,13.34-9.208,15.547-10.432,18.091-9.839,18.091-9.839,2.706,14.284,2.706,17.647-3.255,13.866-3.78,15.125-12.081,27-12.4,27.732,22.272,6.935,32.987,7.776,13.655,1.47,17.544,2.726,6.931,1.788,7.353,1.262,2-13.551,0-22.374-5.358-21.542-4.1-29.05,2.614-12.447,3.573-23.366c.877-10,.944-16.517,1.285-17.781s.789-3.438-1.259-4.543-10.112-6.3-10.847-7.038-2.786-3.1-3.521-2.991-3.31,3.621-3.31,3.621Z" transform="translate(-367.147 -171.658)" fill="#00397c"/>
        <path id="Tracé_7806" data-name="Tracé 7806" d="M633.271,241.424c-.356-1.025-1.929-3.347-3.032-2.836s-7.287,1.259-7.8,1.418-.589,1.614-1.3,1.773-5.749,2.558-6.42,2.8-4.842-1.222-6.342-1.418a4.22,4.22,0,0,1-2.9-2.514v0s1.966,11.448-.292,21.064c0,0,9.575-.119,10.56-.274s10.282-5.358,10.282-5.358a7.041,7.041,0,0,1,1.063.433c.433.233,2.284-.67,2.677-1.067s1.3-.9,1.577-1.336,2.718-2.918,2.718-2.918A24.841,24.841,0,0,0,633.271,241.424Z" transform="translate(-437.964 -184.793)" fill="#00397c"/>
        <path id="Tracé_7807" data-name="Tracé 7807" d="M598.646,314.831c-.811-1.033-5.635-5.317-6.239-5.854-.733,1.073-3.912,5.986-2.371,8.3,1.733,2.6,3.78,6.379,8.431,5.672a17.046,17.046,0,0,1,8.2.488C604.028,319.959,599.326,315.694,598.646,314.831Z" transform="translate(-431.625 -213.492)" fill="#f66e1e"/>
      </g>
    </g>
  </g>
</svg>
