<?xml version="1.0" encoding="utf-8"?>
<!-- Generator: Adobe Illustrator 26.0.1, SVG Export Plug-In . SVG Version: 6.00 Build 0)  -->
<svg version="1.1" id="Calque_1" xmlns="http://www.w3.org/2000/svg" xmlns:xlink="http://www.w3.org/1999/xlink" x="0px" y="0px"
	 viewBox="0 0 400 400" style="enable-background:new 0 0 400 400;" xml:space="preserve">
<style type="text/css">
	.st0{fill:#010202;}
</style>
<path class="st0" d="M200.23,1.35C90.452,1.35,1.459,90.342,1.459,200.12s88.992,198.77,198.77,198.77S399,309.898,399,200.12
	C398.979,90.351,309.999,1.371,200.23,1.35z M166.557,123.177c0-18.597,15.076-33.672,33.672-33.672v0.019
	c18.597,0,33.672,15.076,33.672,33.672c0,18.597-15.076,33.672-33.672,33.672c-18.597,0-33.672-15.076-33.672-33.672
	C166.557,123.19,166.557,123.183,166.557,123.177z M235.515,302.692h-70.551c-5.301,0-9.599-4.298-9.599-9.599v-19.197
	c0-5.301,4.297-9.599,9.599-9.599h9.599v-51.353h-9.599c-5.301,0-9.599-4.297-9.599-9.599v-19.197c0-5.301,4.297-9.599,9.599-9.599
	h51.296c5.301,0,9.599,4.297,9.599,9.599v80.149h9.599c5.301,0,9.599,4.297,9.599,9.599l0.058,19.197
	C245.113,298.395,240.816,302.692,235.515,302.692z"/>
</svg>
