<svg xmlns="http://www.w3.org/2000/svg" xmlns:xlink="http://www.w3.org/1999/xlink" width="428" height="428" viewBox="0 0 428 428">
  <defs>
    <linearGradient id="linear-gradient" x1="0.382" y1="-0.143" x2="0.55" y2="0.881" gradientUnits="objectBoundingBox">
      <stop offset="0" stop-color="#fff"/>
      <stop offset="0.085" stop-color="#f5f5f5"/>
      <stop offset="0.229" stop-color="#dadada"/>
      <stop offset="0.413" stop-color="#afafaf"/>
      <stop offset="0.631" stop-color="#747474"/>
      <stop offset="0.876" stop-color="#292929"/>
      <stop offset="1"/>
    </linearGradient>
    <linearGradient id="linear-gradient-2" x1="0" y1="0.5" x2="1" y2="0.5" xlink:href="#linear-gradient"/>
    <clipPath id="clip-no_result">
      <rect width="428" height="428"/>
    </clipPath>
  </defs>
  <g id="no_result" clip-path="url(#clip-no_result)">
    <g id="Groupe_2821" data-name="Groupe 2821" transform="translate(-55 -107.792)">
      <g id="Groupe_2716" data-name="Groupe 2716" transform="translate(75.592 423.285)">
        <path id="Tracé_7613" data-name="Tracé 7613" d="M553.7,603.616c-42.168-12.424-82.164-10.01-118.14-3.361-34.608,6.4-65.474,16.761-90.917,21.593-44.721,8.5-82.306,18.474-131.963-14.664-14.871-9.938-7.279-26.6,22.957-40.488,31.81-14.7,88.677-26.386,170.841-24.146C658.373,549.374,633.422,627.165,553.7,603.616Z" transform="translate(-205.308 -542.274)" fill="rgba(189,197,234,0.4)"/>
        <path id="Tracé_7614" data-name="Tracé 7614" d="M435.564,590.412c-34.608,6.4-65.474,16.762-90.917,21.593-44.721,8.5-82.306,18.474-131.963-14.664-14.871-9.938-7.279-26.6,22.957-40.488,20.856-6.021,46.473-9.554,74.152-9.554C373.484,547.3,426.221,566.02,435.564,590.412Z" transform="translate(-205.308 -532.431)" opacity="0.5" fill="url(#linear-gradient)" style="mix-blend-mode: overlay;isolation: isolate"/>
      </g>
      <g id="Groupe_2717" data-name="Groupe 2717" transform="translate(55 132.792)">
        <path id="Tracé_7615" data-name="Tracé 7615" d="M472.888,687.934a44.011,44.011,0,0,0-13.578-5.95,59.255,59.255,0,0,0-14.522-1.888c-15.853-.316-33.91,4.234-52.982,9.764-5.494,1.574-11.024,3.219-16.658,4.9-27.084,8.051-55.536,15.959-82.2,13.72-16.028-1.332-31.425-6.3-45.529-17.182-15.817-12.11-29.954-31.6-41.5-61.521-.281-.734-.559-1.471-.769-2.2-12.669-34.715-6.474-67.436,9.027-93.331,29.99-50.148,94.8-74.854,125.981-39.334,37.058,42.168,77.442,38.319,98.58,19.211a45.521,45.521,0,0,0,12.947-19.492c10.708-32.614,63.2-67.643,106.663-41.257q2.308,1.416,4.2,2.834c29.744,22.327-9.2,51.476.734,97.284,10.323,47.769,46.228,17.954,56.027,61.731C631.586,670.3,528.74,724.957,472.888,687.934Z" transform="translate(-198.348 -444.094)" fill="rgba(189,197,234,0.4)"/>
        <path id="Tracé_7616" data-name="Tracé 7616" d="M322.6,679.918a44.015,44.015,0,0,0-13.578-5.95,59.247,59.247,0,0,0-14.522-1.888,149.8,149.8,0,0,1-19.247-66.7c-.107-2.414-.175-4.864-.175-7.314A150.457,150.457,0,0,1,412.253,448.186c29.744,22.327-9.2,51.476.734,97.284,10.323,47.769,46.228,17.954,56.027,61.731C481.3,662.281,378.449,716.941,322.6,679.918Z" transform="translate(-48.057 -436.078)" opacity="0.5" fill="url(#linear-gradient-2)" style="mix-blend-mode: overlay;isolation: isolate"/>
        <path id="Tracé_7617" data-name="Tracé 7617" d="M428.257,491.562A142.2,142.2,0,0,1,203.7,511.684c29.99-50.148,94.8-74.854,125.981-39.334C366.736,514.519,407.12,510.669,428.257,491.562Z" transform="translate(-187.87 -421.539)" opacity="0.5" fill="url(#linear-gradient-2)" style="mix-blend-mode: overlay;isolation: isolate"/>
        <path id="Tracé_7618" data-name="Tracé 7618" d="M370.647,591.225c-27.084,8.051-55.536,15.959-82.2,13.72-16.028-1.331-31.425-6.3-45.529-17.182-15.817-12.11-29.954-31.6-41.5-61.521-.281-.734-.559-1.471-.769-2.2a100.692,100.692,0,0,1,68.9-27.087,82.972,82.972,0,0,1,8.4.388,101.053,101.053,0,0,1,70.548,37.408c2.1,2.624,4.1,5.355,5.95,8.19A100.259,100.259,0,0,1,370.647,591.225Z" transform="translate(-193.847 -340.561)" opacity="0.5" fill="url(#linear-gradient-2)" style="mix-blend-mode: overlay;isolation: isolate"/>
      </g>
    </g>
    <g id="Groupe_2847" data-name="Groupe 2847" transform="translate(-5.157 -67.939)">
      <g id="Groupe_2834" data-name="Groupe 2834" transform="translate(142.846 149.391)">
        <g id="Groupe_2833" data-name="Groupe 2833">
          <path id="Tracé_7619" data-name="Tracé 7619" d="M438.536,297.312a.252.252,0,0,1-.069-.165,9.1,9.1,0,0,0,.832-.6c-3.729-8.189-10.453-16.612-16.612-25.2v-.033a64.676,64.676,0,0,0-12.649-3.229,33.565,33.565,0,0,1-2.1-5.626c1.131-.433,2.929-1.7,3.063-5.692.167-5.79,6.225-16.811-1.5-20.072s-13.815-4.3-16.111-.633c-2.264,3.662-7.09,5.56-10.552,4-3.428-1.564-.134,7.424,3.762,9.188a8.457,8.457,0,0,0,1.764.6,42.807,42.807,0,0,0,5.825,12.882c-.367-.133-.433-.133-.2.434.566,1.332,2.2,3.328,3.362,2.929a3.931,3.931,0,0,0,1-.466,14.969,14.969,0,0,0,1.6-.2,11.759,11.759,0,0,1-.3,1.566c-5.891-.3-10.586-.033-11.95.533-4.427.965-8.388,2.264-10.518,6.258-1.8,4.327-2.7,14.28-1.831,22.568.4.1.8.167,1.2.267.366,3.2.832,6.225,1.332,8.685l-5.559.5a5.986,5.986,0,0,0-2.131-.466H336.539c-2.363,0-3.761,1.731-3.1,3.9l6.492,21a6.025,6.025,0,0,0,5.526,3.895h.932a2.213,2.213,0,0,0-1.83,2.164,3.385,3.385,0,0,0,.1.566c-4.56,6.392-9.186,22.54-13.282,39.812a119.315,119.315,0,0,0,12.782,2.43l12.55-29.759a77.322,77.322,0,0,0,11.418-1.631c-1.8,5.758-1.066,18.208.732,32.421,4.628-.165,9.42-.565,14.414-1.2l.5-22.569c13.647-3.827,28.661-10.917,32.322-23.567a8.977,8.977,0,0,0,1.5-.366c.466-1.7.865-3.362,1.266-5.06,12.648-5.259,23.2-10.618,23.5-16.41C442.263,307.065,440.831,302.406,438.536,297.312Zm-59.485,22.7-1.164-3.829c.433-.033.9-.069,1.332-.134-.069,1.332-.135,2.633-.169,3.963Zm42.342-5.06c.6-3.829,1.1-7.69,1.4-11.517.033.033.033.033.033.069q.6-.148,1.2-.3c1.7,2.729,3.395,5.292,4.927,7.29Z" transform="translate(-220.491 -173.957)" opacity="0.1" style="isolation: isolate"/>
          <g id="Groupe_2831" data-name="Groupe 2831" transform="translate(72.96 51.637)">
            <g id="Groupe_2826" data-name="Groupe 2826" transform="translate(12.371 33.487)">
              <path id="Tracé_7620" data-name="Tracé 7620" d="M354.171,272.484c1.882,10.4,2.214,4.4,2.068,13.4-.108,5.583-2.65,3.24-4.23,6.8-12.538,5.424-34.106,6.5-55.532,5.838l-1.157-4.874,22.884-2.469c-.514-2.491,11.616-2.076,11.267-5.3" transform="translate(-295.32 -270.363)" fill="#b5805d"/>
              <path id="Tracé_7621" data-name="Tracé 7621" d="M387.252,299.4c-3.516.8-10.81.865-17.871-.79-.855-8.291.024-18.254,1.827-22.594,2.338-4.379,6.9-5.514,11.841-6.526C384.931,279.888,387.395,290.4,387.252,299.4Z" transform="translate(-316.792 -269.491)" fill="#fff"/>
            </g>
            <g id="Groupe_2827" data-name="Groupe 2827" transform="translate(0 88.174)">
              <path id="Tracé_7622" data-name="Tracé 7622" d="M299.317,454.99c-.538,3.561-5.55,6.218-5.55,6.218s12.377,4.493,12.79,1.418-1.616-4.417.175-6.818S299.317,454.99,299.317,454.99Z" transform="translate(-282.497 -378.051)" fill="#fbd783"/>
              <path id="Tracé_7623" data-name="Tracé 7623" d="M300.641,423.143c5.458-26.009,12.912-57.944,19.932-63.624,9.557-6.266,22.257-10.891,38.117-12.87l10.844,17.9c-13.155,3.972-25.558,8.695-38.72,9.512L309.377,424.87C305.029,425.3,303.156,424.91,300.641,423.143Z" transform="translate(-284.499 -346.649)" fill="#fff"/>
              <path id="Tracé_7624" data-name="Tracé 7624" d="M301.916,463.028c-4.061,1.58-11.15-1.245-11.15-1.245-5.487,1.481-13.533,2.058-12.86,5.45,0,0,17.081,4.771,22.577,2.795C304.207,468.689,301.916,463.028,301.916,463.028Z" transform="translate(-277.866 -380.179)" fill="#400491"/>
            </g>
            <g id="Groupe_2828" data-name="Groupe 2828" transform="translate(52.082 86.228)">
              <path id="Tracé_7625" data-name="Tracé 7625" d="M367.323,473.5c.818,3.506-2.856,7.829-2.856,7.829s13.16-.4,12.407-3.413-3.135-3.506-2.359-6.4S367.323,473.5,367.323,473.5Z" transform="translate(-355.169 -380.802)" fill="#fbd783"/>
              <path id="Tracé_7626" data-name="Tracé 7626" d="M364.6,436.443c-4.55-26.184-9.439-58.611-5.019-66.484,6.562-9.357,16.648-18.354,30.652-26.055l16.7,12.62c-3.558,12.8-18.688,19.929-32.41,23.76l-1.167,54.537C369.48,436.826,367.594,437.152,364.6,436.443Z" transform="translate(-353.241 -343.904)" fill="#fff"/>
              <path id="Tracé_7627" data-name="Tracé 7627" d="M372.406,478.67c-3.189,2.969-10.822,2.964-10.822,2.964-4.549,3.406-11.813,6.918-9.931,9.821,0,0,19-2.187,22.608-5.784C377.062,482.877,372.406,478.67,372.406,478.67Z" transform="translate(-351.348 -383.151)" fill="#400491"/>
            </g>
            <path id="Tracé_7628" data-name="Tracé 7628" d="M374.615,325.945c10.345,8.346,34.257,10.388,38.626,8.58,5.832-20.632,6.818-40.981,5.1-61.109-13.114-4.993-31.991-5-35-3.8C378.54,282.392,374.865,303.91,374.615,325.945Z" transform="translate(-306.042 -235.85)" fill="#fff"/>
            <g id="Groupe_2829" data-name="Groupe 2829" transform="translate(22.888 71.574)">
              <path id="Tracé_7629" data-name="Tracé 7629" d="M355.976,352.033H322.333a6.046,6.046,0,0,1-5.514-3.9l-6.494-21.012c-.666-2.152.727-3.9,3.107-3.9h33.643a6.046,6.046,0,0,1,5.514,3.9l6.5,21.012C359.748,350.289,358.356,352.033,355.976,352.033Z" transform="translate(-310.158 -323.228)" fill="#050505"/>
              <path id="Tracé_7630" data-name="Tracé 7630" d="M326.581,363.753h56.747a.527.527,0,0,1,.527.527V367.7a.527.527,0,0,1-.527.527H326.581a.527.527,0,0,1-.527-.527V364.28A.526.526,0,0,1,326.581,363.753Z" transform="translate(-314.788 -335.03)" fill="#020202"/>
            </g>
            <path id="Tracé_7631" data-name="Tracé 7631" d="M390.563,360.135c-2.919-1.379-8.394,2.562-8.394,2.562s-2.738,3-1.368,4.4,12.179.387,12.179-1.617S390.563,360.135,390.563,360.135Z" transform="translate(-307.732 -262.317)" fill="#b5805d"/>
            <path id="Tracé_7632" data-name="Tracé 7632" d="M402.381,268.132c1.654-2.742,1.641-6.57,1.332-10.588l7.03-.97a34.334,34.334,0,0,0,3.595,11.255C411.211,271.754,404.177,272.313,402.381,268.132Z" transform="translate(-314.128 -232.242)" fill="#b5805d"/>
            <path id="Tracé_7633" data-name="Tracé 7633" d="M394.965,254.071c1.982,1.346,7.668-.6,10.841-2.5l5.4-19.059-13.5-8.9-12.36,8.521C387.486,240.789,390,248.972,394.965,254.071Z" transform="translate(-309.166 -222.645)" fill="#b5805d"/>
            <path id="Tracé_7634" data-name="Tracé 7634" d="M383.246,237.757c4.8,2.193,11.717-.039,11.717-.039l.019,5.922,2.086-.2s.568-4.581,2.688-4.006c3.983,1.078-.488,2.609-.736,6.246-.138,2.035,4.668,5.492,4.668,5.492s3.8-.107,3.96-5.909,6.227-16.823-1.495-20.083-13.818-4.273-16.091-.614-7.122,5.546-10.554,3.986S379.376,235.988,383.246,237.757Z" transform="translate(-307.048 -222.245)" fill="#050505"/>
            <path id="Tracé_7635" data-name="Tracé 7635" d="M400.088,252.349s.7,7.217-1.6,7.785-3.283-1.067-2.729.24,2.18,3.331,3.373,2.936c3.907-1.3,3.7-6.17,3.045-11.158Z" transform="translate(-312.154 -230.955)" fill="#022539"/>
            <g id="Groupe_2830" data-name="Groupe 2830" transform="translate(82.838 37.581)">
              <path id="Tracé_7636" data-name="Tracé 7636" d="M443.871,314.915c-.5,9.254-27.1,17.342-46.733,25.931l-2.4-5.326,35.717-21.071c-1.531-2.031-3.262-4.594-4.963-7.357-4.327-7.124-8.422-15.611-8.654-20.3.233-4.963,3.328-8.488,7.356-11.518,6.158,8.588,12.116,17.809,15.845,26C442.34,306.359,443.772,311.02,443.871,314.915Z" transform="translate(-394.741 -275.268)" fill="#b5805d"/>
              <path id="Tracé_7637" data-name="Tracé 7637" d="M449.678,300.489c-2.83,2.23-9.394,5.418-16.484,6.949-4.327-7.124-7.805-16.5-8.037-21.194.232-4.963,3.871-7.945,7.9-10.975C439.214,283.854,445.95,292.3,449.678,300.489Z" transform="translate(-403.599 -275.268)" fill="#fff"/>
            </g>
          </g>
          <path id="Tracé_7638" data-name="Tracé 7638" d="M174.927,149.391" transform="translate(-174.927 -149.391)" fill="#e90566"/>
          <g id="Groupe_2832" data-name="Groupe 2832" transform="translate(50.974 153.665)">
            <path id="Tracé_7639" data-name="Tracé 7639" d="M426.568,373.952v7.09a7.764,7.764,0,0,1-7.757,7.756H254.6a7.741,7.741,0,0,1-7.756-7.727v-7.119A7.764,7.764,0,0,1,254.6,366.2H418.808A7.789,7.789,0,0,1,426.568,373.952Z" transform="translate(-246.845 -366.195)" fill="#2d2e30"/>
            <path id="Tracé_7640" data-name="Tracé 7640" d="M422.526,398.082v69.171a13.923,13.923,0,0,1-13.9,13.947H270.468a13.923,13.923,0,0,1-13.947-13.9v-69.22Z" transform="translate(-249.663 -375.481)" fill="#ed2c8f"/>
          </g>
        </g>
      </g>
      <g id="Groupe_2846" data-name="Groupe 2846" transform="translate(64.77 176.4)">
        <g id="Groupe_2837" data-name="Groupe 2837" transform="translate(77.972 218.896)">
          <g id="Groupe_2835" data-name="Groupe 2835" transform="translate(0.976)">
            <path id="Tracé_7641" data-name="Tracé 7641" d="M177.174,496.553l9.172-.218c-.023,7.527,3.973,10.8,11.678,10.919,4.527.072,4.591,5.638,4.591,5.638l-24.9,1.872s-3.2-2.374-.437-8.212C177.951,505.126,177.174,496.553,177.174,496.553Z" transform="translate(-176.157 -496.335)" fill="#ffc4c2"/>
          </g>
          <g id="Groupe_2836" data-name="Groupe 2836" transform="translate(0 6.033)">
            <path id="Tracé_7642" data-name="Tracé 7642" d="M174.786,512.137v.046c.232,1.93,1.166,3.679,2.89,4.167,1.248.366,3.838-.587,5.085-.693a21.267,21.267,0,0,1,5.032.543,32.614,32.614,0,0,0,9.941.266c2.183-.316,4.584-1.043,6.061-2.792a5.4,5.4,0,0,0,1.124-2.228,1.773,1.773,0,0,0-.235-.461,2.224,2.224,0,0,0-1.593-.7c-1.69-.252-4.095-.846-5.784-1.121-4.073-.636-5.957-2.263-9.57-4.219-.242-.13-.62-.159-.749.131-2.283,5.755-9.035,2.521-9.848,1.851A9.591,9.591,0,0,0,174.786,512.137Z" transform="translate(-174.781 -504.847)" fill="#00dbf5"/>
            <path id="Tracé_7643" data-name="Tracé 7643" d="M177.737,520.359c1.241.344,3.835-.61,5.084-.716a21.193,21.193,0,0,1,5.036.544,33.374,33.374,0,0,0,9.938.289c2.186-.316,4.583-1.067,6.061-2.792.719-.813,1.495-2.387,1.064-3.525a5.4,5.4,0,0,1-1.124,2.228c-1.478,1.748-3.878,2.475-6.061,2.792a32.633,32.633,0,0,1-9.941-.266,21.233,21.233,0,0,0-5.032-.543c-1.247.106-3.837,1.059-5.085.693-1.723-.488-2.657-2.238-2.89-4.167C174.686,517.265,175.63,519.773,177.737,520.359Z" transform="translate(-174.78 -507.559)" fill="#00c1da"/>
            <path id="Tracé_7644" data-name="Tracé 7644" d="M193.722,507.792a4.983,4.983,0,0,1,.7-1.575c.855-1.234,2.96-.157,2.093,1.093a3.032,3.032,0,0,0-.492,1C195.631,509.774,193.323,509.266,193.722,507.792Z" transform="translate(-180.283 -505.087)" fill="#f3f7ff"/>
            <path id="Tracé_7645" data-name="Tracé 7645" d="M199.334,510.261c.132-.376.263-.751.393-1.127.493-1.416,2.8-.917,2.3.52-.131.375-.263.751-.393,1.126C201.143,512.195,198.831,511.7,199.334,510.261Z" transform="translate(-181.91 -505.85)" fill="#f3f7ff"/>
          </g>
        </g>
        <g id="Groupe_2840" data-name="Groupe 2840" transform="translate(0 207.419)">
          <g id="Groupe_2838" data-name="Groupe 2838" transform="translate(0.445)">
            <path id="Tracé_7646" data-name="Tracé 7646" d="M77.049,480.143l7.036,5.888c-4.984,5.641-4.139,10.734,1.571,15.91,3.353,3.042-.269,7.265-.269,7.265L65.438,494.187s-.834-3.893,5.089-6.458C71.976,487.1,77.049,480.143,77.049,480.143Z" transform="translate(-65.398 -480.143)" fill="#ffc4c2"/>
          </g>
          <g id="Groupe_2839" data-name="Groupe 2839" transform="translate(0 6.168)">
            <path id="Tracé_7647" data-name="Tracé 7647" d="M67.058,491.213l-.028.036c-1.1,1.6-1.552,3.535-.578,5.037.694,1.1,3.27,2.09,4.277,2.834a21.352,21.352,0,0,1,3.425,3.731,32.492,32.492,0,0,0,7.3,6.755c1.847,1.2,4.131,2.242,6.394,1.9a5.432,5.432,0,0,0,2.314-.931,1.684,1.684,0,0,0,.129-.505,2.222,2.222,0,0,0-.732-1.579c-1.1-1.3-2.519-3.338-3.609-4.659-2.639-3.165-2.98-5.63-4.405-9.486-.095-.258-.361-.531-.649-.4-5.514,2.82-8.454-4.067-8.621-5.1A9.6,9.6,0,0,0,67.058,491.213Z" transform="translate(-65.104 -488.846)" fill="#00dbf5"/>
            <path id="Tracé_7648" data-name="Tracé 7648" d="M65.308,498.29c.709,1.079,3.286,2.071,4.293,2.817a21.213,21.213,0,0,1,3.425,3.73,33.274,33.274,0,0,0,7.281,6.775c1.848,1.2,4.147,2.223,6.4,1.9,1.077-.138,2.7-.807,3.124-1.945a5.431,5.431,0,0,1-2.315.931c-2.262.339-4.549-.7-6.394-1.9a32.539,32.539,0,0,1-7.3-6.755,21.382,21.382,0,0,0-3.425-3.731c-1.009-.746-3.584-1.737-4.277-2.836-.975-1.5-.522-3.436.577-5.037C65.056,493.949,64.113,496.46,65.308,498.29Z" transform="translate(-64.77 -489.834)" fill="#00c1da"/>
            <path id="Tracé_7649" data-name="Tracé 7649" d="M85.834,499.519a4.907,4.907,0,0,1,1.571-.719c1.454-.364,2.325,1.834.849,2.2a3.051,3.051,0,0,0-1.034.428C85.965,502.268,84.565,500.363,85.834,499.519Z" transform="translate(-70.759 -491.733)" fill="#f3f7ff"/>
            <path id="Tracé_7650" data-name="Tracé 7650" d="M88.459,505.038l1.038-.588c1.31-.736,2.714,1.165,1.388,1.912l-1.038.585C88.542,507.688,87.135,505.786,88.459,505.038Z" transform="translate(-71.514 -493.342)" fill="#f3f7ff"/>
          </g>
        </g>
        <path id="Tracé_7651" data-name="Tracé 7651" d="M166.378,320.389c4.549,14.39,5.563,41.869,7.918,65.725,1.875,18.986,9.04,56.884,2.732,58.412,0,0-5.652,3.86-10.286,2.4-6.9-2.166-13.165-49.16-15.53-55.781s-11.64-49.406-8.2-68.226S164.593,314.74,166.378,320.389Z" transform="translate(-87.335 -223.828)" fill="#050505"/>
        <path id="Tracé_7652" data-name="Tracé 7652" d="M143.451,361.562s9.014,21.458,12.177,40.36C156.9,409.5,166.1,461.131,166.1,461.131s-6.178-3.3-11.185-36.447c-3.019-20-13.579-52.463-13.579-52.463Z" transform="translate(-87.07 -238.19)" fill="#000304"/>
        <path id="Tracé_7653" data-name="Tracé 7653" d="M120.041,391.728c-2.543,6.555-23.786,49.953-33.534,48.309a18.516,18.516,0,0,1-3.769-2q-.573-.364-1.1-.764c-.742-.537-1.43-1.067-2.029-1.563-.388-.311-.736-.6-1.034-.865-.758-.66-1.225-1.1-1.225-1.1-5.815-5.9,18.948-38.371,19.292-42.736,1.284-15.927,5-45.43,8.633-63.023a73.261,73.261,0,0,1,2.267-8.7c1.93-5.618,20.367-15.738,23.293,3.183C133.734,341.378,122.587,385.172,120.041,391.728Z" transform="translate(-68.175 -223.612)" fill="#050505"/>
        <path id="Tracé_7654" data-name="Tracé 7654" d="M100.075,394.541c.1,4.383-10.628,17.7-12.14,22.07.1-3.144,16.1-15.279,16.427-19.846.31-4.314-.695-18.948-.851-23.261-.31-7.88,1.622-15.392,3.86-22.973,2.184-7.357,5.414-14.337,8.652-21.27-.168-2.155-4.706-1.646-6.1-1.676a13.029,13.029,0,0,0-3.309.029c-1.566.435-2.355,1.707-3.114,3.129-.3.535-.58,1.1-.848,1.678A616.236,616.236,0,0,0,100.075,394.541Z" transform="translate(-71.516 -228.265)" fill="#000304"/>
        <path id="Tracé_7655" data-name="Tracé 7655" d="M112.345,346.908q-1.626,14.323-3.235,28.633c-.928,8.183-1.654,16.484-3.791,24.463-2.164,8.1-6.365,15.092-10.646,22.212L80.474,445.8c-.388-.311-.736-.6-1.034-.865q6.911-11.481,13.808-22.953c4.33-7.2,8.623-14.277,10.822-22.465,2.274-8.5,2.937-17.405,3.923-26.124q1.5-13.3,3.01-26.626a.675.675,0,0,1,1.342.139Z" transform="translate(-69.042 -233.706)" fill="#f3f7ff"/>
        <path id="Tracé_7656" data-name="Tracé 7656" d="M114.83,377.268c-1.522,8.691-2.919,17.478-4.852,26.085-1.848,8.2-5.727,15.21-10.165,22.26q-7.478,11.851-14.949,23.673-.573-.365-1.1-.764,7.12-11.316,14.277-22.618c4.807-7.622,8.968-15.037,10.863-23.933,1.746-8.221,3.136-16.563,4.586-24.84,1.522-8.681,2.681-17.408,2.052-26.227-.072-.86,1.264-1.088,1.322-.229C117.525,359.618,116.376,368.471,114.83,377.268Z" transform="translate(-70.301 -234.862)" fill="#f3f7ff"/>
        <path id="Tracé_7657" data-name="Tracé 7657" d="M199.859,300.106c5.869-2.206,23.863-16.7,27.312-19.373,4.159-3.22,1.633-11.077-2.991-8.257-4.462,2.722-30.8,16.67-32.957,18.892C187.332,295.385,192.515,302.864,199.859,300.106Z" transform="translate(-101.209 -212.071)" fill="#ffc4c2"/>
        <path id="Tracé_7658" data-name="Tracé 7658" d="M158.347,265.606c2.532,6.008,20.678,24.961,24.014,28.588,4.022,4.37,13.579.492,11.924-4.687-1.466-4.584-20.793-29.612-23.62-31.914C165.564,253.43,155.175,258.089,158.347,265.606Z" transform="translate(-91.85 -207.456)" fill="#ffc4c2"/>
        <path id="Tracé_7659" data-name="Tracé 7659" d="M165.652,277.727c-5.968-6.58-10.472-15.67-11.882-18.955-3.351-7.818,5.927-13.612,11.139-9.465,1.3,1.034,10.61,7.736,15.687,14.978C177.806,271.058,166.943,277.372,165.652,277.727Z" transform="translate(-90.482 -205.096)" fill="#9bbd2c"/>
        <path id="Tracé_7660" data-name="Tracé 7660" d="M141.9,246.562s5.446-.471,8.318,2.435,10.4,15.633,8.658,30.3,2.97,40.217,2.97,40.217-25.186,5.781-56.62-.821c0,0-.349-53.891,7.1-68.377,2.367-4.6,13.447-4.611,15.122-4.756S141.9,246.562,141.9,246.562Z" transform="translate(-75.979 -205.143)" fill="#9bbd2c"/>
        <path id="Tracé_7662" data-name="Tracé 7662" d="M149.224,235.173s-.872,5.069.725,5.74a15.543,15.543,0,0,0,3.722.9s-8.714,12.614-18.629-1.159c0,0,2.959.035,3.875-1.159s1.482-7.1,1.025-11.005Z" transform="translate(-85.235 -199.435)" fill="#ffc4c2"/>
        <path id="Tracé_7663" data-name="Tracé 7663" d="M138.919,239.492c.915-1.193,1.482-7.1,1.025-11.005l5.289,3.813a14.352,14.352,0,0,0-2.583,3.722c-1.379,2.595-2.159,6.237.536,8.233,2.068,1.532,4.818,1.456,7.356.707-3.4,2.544-9.208,4.424-15.5-4.311C135.043,240.647,138,240.681,138.919,239.492Z" transform="translate(-85.235 -199.435)" fill="#ff9f98"/>
        <path id="Tracé_7664" data-name="Tracé 7664" d="M99.984,254.668c-5.17,3.976-18.9,26.334-21.562,30.482-3.209,5,1.218,11.462,6.291,9.5,4.324-1.671,24.638-26.786,26.149-30.1C113.591,258.56,106.451,249.691,99.984,254.668Z" transform="translate(-68.429 -206.635)" fill="#ffc4c2"/>
        <path id="Tracé_7665" data-name="Tracé 7665" d="M88.113,297.324c5.891,2.137,24.04,16.44,27.52,19.074,4.194,3.176,1.754,11.057-2.9,8.288-4.493-2.673-30.982-16.336-33.161-18.533C75.636,302.176,80.739,294.645,88.113,297.324Z" transform="translate(-68.683 -219.318)" fill="#ffc4c2"/>
        <path id="Tracé_7666" data-name="Tracé 7666" d="M94.8,261.96c5.821-6.709,14.307-12.269,17.4-14.061,7.363-4.261,14.222,4.259,10.727,9.926a72.778,72.778,0,0,1-12.251,15.157C103.622,271.025,95.31,263.2,94.8,261.96Z" transform="translate(-73.517 -204.753)" fill="#9bbd2c"/>
        <g id="Groupe_2841" data-name="Groupe 2841" transform="translate(43.331 95.204)">
          <path id="Tracé_7667" data-name="Tracé 7667" d="M126.49,328.8c-1.207,1.919-.344,4.039.792,5.767,1.059,1.6,2.877,4.027,5.007,3.936a1.173,1.173,0,0,0,1-1.5,1.9,1.9,0,0,0,1.714-.427,1.405,1.405,0,0,0,.56-1.468,1.575,1.575,0,0,0,1.992-.887,1.762,1.762,0,0,0,.113-1.236,1.728,1.728,0,0,0,1.81-1.046c1.2-2.2-2.7-3.9-4.149-4.674-.019-.009-.033,0-.052-.013-2.74-1.666-7.013-1.269-8.787,1.552" transform="translate(-125.906 -323.113)" fill="#ffc4c2"/>
          <path id="Tracé_7668" data-name="Tracé 7668" d="M135.1,321.964a19.042,19.042,0,0,0-5.563,2.624c-.028.024.315,2.222,1.4,2.469,1.273.292,2.784.58,3.786-.235.551-.447.614-1.792,1.288-2.059.88-.344,1.953.235,2.726.633,1.33.689,3.066-.883,1.88-1.746C139.254,322.656,136.837,321.391,135.1,321.964Z" transform="translate(-126.963 -321.821)" fill="#ffc4c2"/>
        </g>
        <path id="Tracé_7669" data-name="Tracé 7669" d="M243.83,268.575c-.022.008-.026.026-.046.033-3.245.965-5.957,4.6-5,7.986.651,2.307,2.922,3.133,5.081,3.461,2.006.3,5.195.593,6.63-1.141a1.24,1.24,0,0,0-.278-1.732,1.267,1.267,0,0,0-.193-.115,2.013,2.013,0,0,0,.877-1.646,1.485,1.485,0,0,0-.758-1.476,1.661,1.661,0,0,0,.718-2.188,1.853,1.853,0,0,0-.89-.965,1.827,1.827,0,0,0,.461-2.16C249.56,266.139,245.464,267.991,243.83,268.575Z" transform="translate(-115.39 -210.757)" fill="#ffc4c2"/>
        <path id="Tracé_7670" data-name="Tracé 7670" d="M239.4,267.577a14.855,14.855,0,0,0-2.568,4.977.846.846,0,0,0-.015.1,1.2,1.2,0,0,0,1.319,1.753c1.327-.378,2.872-.88,3.386-2.143.282-.695-.34-1.973.144-2.561.641-.771,1.93-.778,2.846-.8,1.586-.04,2.392-2.376.851-2.574C243.6,266.11,240.717,266.165,239.4,267.577Z" transform="translate(-114.831 -210.428)" fill="#ffc4c2"/>
        <path id="Tracé_7671" data-name="Tracé 7671" d="M165.011,203.142a72.2,72.2,0,0,1,.394,8.691l-1.322-.512s-.249-5.321-.665-7.56Z" transform="translate(-93.499 -192.054)" fill="#007fb4"/>
        <g id="Groupe_2842" data-name="Groupe 2842" transform="translate(65.071 17.229)">
          <path id="Tracé_7672" data-name="Tracé 7672" d="M156.733,218.225c.287,1.228.921,3.255,2.245,3.742.062.023.138.045.2.069,3.142.97,5.7-2,5.176-5.786a4.756,4.756,0,0,0-4.884-4.443,2.516,2.516,0,0,0-.809.142,2.878,2.878,0,0,0-1.778,1.827A11.194,11.194,0,0,0,156.733,218.225Z" transform="translate(-156.578 -211.806)" fill="#ff8d00"/>
          <path id="Tracé_7673" data-name="Tracé 7673" d="M156.733,218.283c.287,1.228.921,3.255,2.245,3.742.062.023.138.045.2.069-1.813-3.165-2.392-6.836-.517-10.087a2.878,2.878,0,0,0-1.778,1.827A11.194,11.194,0,0,0,156.733,218.283Z" transform="translate(-156.578 -211.864)" fill="#5e8fe7"/>
        </g>
        <path id="Tracé_7674" data-name="Tracé 7674" d="M135.189,209.915l1.626-.389c-.028-.116-2.683-11.491,1.3-17.17a7.184,7.184,0,0,1,5.318-3.073c.026,0,.05-.007.076-.009,3.36-.382,6.051.288,8,1.993,3.3,2.895,3.422,7.889,3.422,7.939l1.67-.024c0-.236-.125-5.768-3.982-9.162-2.31-2.035-5.438-2.844-9.293-2.406a9.021,9.021,0,0,0-6.571,3.786C132.33,197.7,135.071,209.418,135.189,209.915Z" transform="translate(-85.002 -187.498)" fill="#007fb4"/>
        <path id="Tracé_7675" data-name="Tracé 7675" d="M138.568,226.164a2.274,2.274,0,0,0,2.64.593c.921-.5.223-1.965-.207-2.6-.581-.854-1.6-10.955-1.644-10.955-.336-.116-2.975,2.611-3,3.059C136.3,217.394,134.806,221.766,138.568,226.164Z" transform="translate(-85.52 -194.983)" fill="#000d3f"/>
        <path id="Tracé_7676" data-name="Tracé 7676" d="M154.475,205.646l1.848,15.224c.5,4.118-2.733,7.9-7.22,8.441h0c-4.489.545-8.532-2.35-9.03-6.468l-.043-.34s-4.067,1.415-4.618-3.153,2.148-4.248,2.148-4.248l-.888-7.295Z" transform="translate(-85.321 -192.783)" fill="#ffc4c2"/>
        <path id="Tracé_7677" data-name="Tracé 7677" d="M137.559,214.861l-1.128-9.28,6.323-.768c0,.045.4,3.338.4,3.384l1.918,15.8a5.29,5.29,0,0,0,6.042,4.248,5.236,5.236,0,0,0,2.267-.932,8.641,8.641,0,0,1-4.281,1.755c-4.489.545-8.532-2.35-9.03-6.468l-.043-.34s-4.067,1.416-4.618-3.153S137.559,214.861,137.559,214.861Z" transform="translate(-85.321 -192.541)" fill="#ff9f98"/>
        <path id="Tracé_7678" data-name="Tracé 7678" d="M136.638,210.622c-.227,1.072,1.785,2.321,2.669,2.216,1.812-.214,1.746-6.814,2.186-10.211,1.956.581,11.442-.22,13.377-.939,2.878-1.071,3.744-7.31,1.5-9.158-5.521-4.535-20.127-1.654-21.787,3.206,0,.016,0,.028-.006.043C130.4,197.606,132.049,210.427,136.638,210.622Z" transform="translate(-84.4 -188.302)" fill="#050505"/>
        <g id="Groupe_2844" data-name="Groupe 2844" transform="translate(48.196 0)">
          <path id="Tracé_7679" data-name="Tracé 7679" d="M135.19,209.915l1.626-.389c-.028-.116-2.683-11.491,1.3-17.17a7.182,7.182,0,0,1,5.318-3.073c.026,0,.05-.007.076-.009a13.561,13.561,0,0,1,3.791.057l.276-1.646a15.238,15.238,0,0,0-4.26-.069,9.021,9.021,0,0,0-6.571,3.786C132.331,197.7,135.072,209.418,135.19,209.915Z" transform="translate(-133.198 -187.499)" fill="#007fb4"/>
          <g id="Groupe_2843" data-name="Groupe 2843" transform="translate(0 20.587)">
            <path id="Tracé_7680" data-name="Tracé 7680" d="M140.681,222.189c.018,1.262-.115,3.384-1.281,4.171-.058.037-.128.077-.184.113-2.816,1.694-6.01-.58-6.41-4.38a4.76,4.76,0,0,1,3.679-5.484,2.558,2.558,0,0,1,.821-.053,2.87,2.87,0,0,1,2.162,1.346A11.167,11.167,0,0,1,140.681,222.189Z" transform="translate(-132.77 -216.545)" fill="#ff8d00"/>
            <path id="Tracé_7681" data-name="Tracé 7681" d="M142.544,222.194c.018,1.262-.115,3.384-1.281,4.171-.057.037-.128.077-.184.113,1-3.506.689-7.211-1.91-9.916a2.869,2.869,0,0,1,2.163,1.346A11.167,11.167,0,0,1,142.544,222.194Z" transform="translate(-134.634 -216.55)" fill="#007fb4"/>
            <path id="Tracé_7682" data-name="Tracé 7682" d="M136.1,224.928a4.505,4.505,0,0,1-.709-3.167.746.746,0,0,0-1.476-.22,6.106,6.106,0,0,0,1,4.29C135.44,226.631,136.627,225.726,136.1,224.928Z" transform="translate(-133.084 -217.819)" fill="#dae7ff" opacity="0.51" style="isolation: isolate"/>
          </g>
        </g>
        <g id="Groupe_2845" data-name="Groupe 2845" transform="translate(118.292 40.404)">
          <path id="Tracé_7683" data-name="Tracé 7683" d="M253.9,273.732c-.586,2.439-7.651,6.536-10.948,5.134-.924-.391-2.226-6.089-2.226-6.089a20.744,20.744,0,0,0-3.551-8.2c-.919-1.216-1.762-3.013-2.1-6.689-.059-.6.4-3.484-.334-5.175-.118-.252-.225-.511-.337-.749a22.677,22.677,0,0,0-1.485-2.753c-.038-.054-.076-.1-.111-.143a.513.513,0,0,0-.152-.179,4.211,4.211,0,0,1-.983-2.1c-.094-.413,4.538-2.585,4.807-2.252a4.476,4.476,0,0,1,.981,2.094.533.533,0,0,0,.04.232.763.763,0,0,0,.039.177,24.653,24.653,0,0,0,1.516,3.645c.816,1.654,3.34,3.137,3.776,3.562,2.595,2.619,3.48,4.355,3.874,5.761a21.006,21.006,0,0,0,3.336,7.061S254.145,272.767,253.9,273.732Z" transform="translate(-231.668 -244.503)" fill="#ff391d"/>
          <path id="Tracé_7684" data-name="Tracé 7684" d="M237.457,246.635a.545.545,0,0,0,.04.232l-4.693,2.2a.514.514,0,0,0-.152-.179,4.211,4.211,0,0,1-.983-2.1c-.094-.413,4.538-2.585,4.807-2.252A4.46,4.46,0,0,1,237.457,246.635Z" transform="translate(-231.667 -244.504)" fill="#a4181e"/>
        </g>
        <path id="Tracé_7685" data-name="Tracé 7685" d="M255.2,272.189a1.966,1.966,0,0,0-1.325-2.32,2.5,2.5,0,0,0-.084-1.615c-.162-.41-.818-.855-.937-1.182a5.146,5.146,0,0,1-.069-1.114c-.2-1.513-1.493-3.565-3.146-2.3a.742.742,0,0,0-.16.182c-1.421.88-3.423,2.235-3.663,3.737-.2,1.236.714,1.6,1.7,1.754a2.537,2.537,0,0,0,1.241,3.452,2.219,2.219,0,0,0,1,2.521,1.281,1.281,0,0,0,.564,1.654c1.131.746,2.561-.308,3.547-.851,1.051-.578,2.153-1.172,2.146-2.541A1.422,1.422,0,0,0,255.2,272.189Z" transform="translate(-117.487 -209.563)" fill="#ffc4c2"/>
      </g>
      <path id="Tracé_7686" data-name="Tracé 7686" d="M294.476,298.771,290.262,288.6l1.109-7s1.478-10.859,2.165-3.62,3.906,16.887,3.906,16.887" transform="translate(-65.669 -36.725)" fill="#b5805d"/>
      <path id="Tracé_7687" data-name="Tracé 7687" d="M289.822,294.6l-5.664-2.385,2.451,6.032,6.8,6.02" transform="translate(-63.891 -41.594)" fill="#b5805d"/>
      <circle id="Ellipse_1" data-name="Ellipse 1" cx="25.318" cy="25.318" r="25.318" transform="translate(255.55 339.369)" fill="#fff"/>
    </g>
  </g>
</svg>
