<svg xmlns="http://www.w3.org/2000/svg" viewBox="0 0 20 20"><path d="M11.718 4.954a2.464 2.464 0 00-1.732-.706h-.03a2.462 2.462 0 00-1.746.747 2.464 2.464 0 00-.706 1.763 2.49 2.49 0 002.481 2.451h.03a2.482 2.482 0 001.703-4.255z" fill="none"/><path d="M12.413 9.747a3.898 3.898 0 00.682-5.35 3.87 3.87 0 00-2.555-1.531c-1.029-.15-2.055.106-2.89.726S6.272 5.119 6.12 6.147a3.868 3.868 0 00.725 2.89c.196.265.425.503.682.71l-.268.14-1.856 1.567s.035-.062.123-.171a5.883 5.883 0 00-1.406 3.822v1.366a.705.705 0 001.411 0v-1.374a4.458 4.458 0 011.051-3.267 4.453 4.453 0 013.053-1.567 4.492 4.492 0 014.834 4.842v1.366a.705.705 0 001.41 0v-1.365a5.878 5.878 0 00-1.291-3.673L12.88 9.991l-.467-.244zm-2.398-.538h-.03a2.49 2.49 0 01-2.481-2.452 2.463 2.463 0 01.706-1.762 2.462 2.462 0 011.746-.747h.03c.651 0 1.266.25 1.732.706a2.482 2.482 0 01-1.703 4.255z"/><path d="M5.527 11.282c.12-.141.248-.276.382-.406a4.035 4.035 0 00-.382.406zM7.348 9.811a12.78 12.78 0 00-.266.168l.177-.092.089-.076z"/><path d="M7.259 9.887l-.177.092a8.218 8.218 0 00-1.173.898c-.134.13-.262.265-.382.406a1.54 1.54 0 00-.123.171l1.855-1.567zM14.589 11.431l.035.03a3.773 3.773 0 00-.546-.61l-.004.008c.187.179.355.372.515.572z"/><path d="M14.589 11.431c-.16-.2-.328-.394-.514-.572a.03.03 0 01.004-.008c-.571-.526-1.199-.86-1.199-.86l1.709 1.44z"/></svg>