<svg xmlns="http://www.w3.org/2000/svg" viewBox="0 0 20 20"><path d="M14.358 5.026c-.402-.498-.894-.892-1.344-1.334l-.087.112c1.044 1.479 1.386 3.162 1.112 5.055-.347 2.401-1.9 5.051-3.821 5.248a12.13 12.13 0 01-1.009.054l.614-4.346c-3.242-.568-3.584 2.648-3.584 2.648l-.493 4.497h3.003v-.001c.676 0 1.353-.001 2.029-.008.546-.005 1.128-.112 1.629-.358 4.077-2.004 4.565-8.328 1.951-11.567z"/><path d="M11.918 6.593c-.302-1.571-1.439-2.756-2.91-2.779-1.579-.023-1.555-.008-3.134-.004-2.036.004-1.785-.77-1.785-.77-.106.231-.063.702.001 1.1 0 .067.008.144.028.235a7.155 7.155 0 00.108.425l.001-.001c.44 1.541 1.359 2.316 2.876 2.315 1.213-.001.822.032 2.035.001.661-.017 1.256.117 1.77.567.205.192.993 1.419.638 2.532 0 .001.942-1.779.372-3.621z"/></svg>