<svg version="1.1" id="Calque_1" xmlns="http://www.w3.org/2000/svg" x="0" y="0" viewBox="0 0 20 20" xml:space="preserve"><style>.st0{fill-rule:evenodd;clip-rule:evenodd}</style><path class="st0" d="M18.651 5.675a1.712 1.712 0 011.288 1.656v8.835c0 .92-.736 1.718-1.718 1.718H3.619c-.92 0-1.656-.798-1.656-1.718V7.331c0-.798.552-1.472 1.288-1.656h15.4zm-.062 1.165l-7.669 5.583L3.313 6.84c-.184.123-.307.307-.307.491v8.835c0 .368.307.614.614.614h14.602c.368 0 .614-.245.614-.614V7.331a.563.563 0 00-.247-.491zm-7.669 4.234l5.951-4.356H5.031l5.889 4.356z"/><path class="st0" d="M16.381 2.116c.92 0 1.718.798 1.718 1.718V5.92l-1.104-.061V3.834c0-.307-.307-.614-.614-.614H1.779c-.307 0-.614.307-.614.614v8.835c0 .307.307.614.614.614h.245l.061 1.104h-.306c-.92 0-1.718-.798-1.718-1.718V3.834c0-.92.798-1.718 1.718-1.718"/></svg>