<svg version="1.1" id="Calque_1" xmlns="http://www.w3.org/2000/svg" xmlns:xlink="http://www.w3.org/1999/xlink" x="0px" y="0px"
	 viewBox="0 0 20 20" style="enable-background:new 0 0 20 20;" xml:space="preserve">
<path d="M19.295,9.913L17.63,8.417c-0.038-0.038-0.103-0.187-0.105-0.239V5.272c0-0.807-0.633-1.463-1.411-1.463h-1.336
	c-0.564,0-1.071,0.35-1.294,0.881l-2.506-2.252C10.71,2.197,10.363,2.065,10,2.065s-0.71,0.132-0.979,0.372L0.705,9.914
	c-0.581,0.521-0.435,1.094-0.377,1.258c0.058,0.164,0.309,0.698,1.081,0.698h1.066v4.603c0,0.807,0.633,1.463,1.411,1.463h12.228
	c0.778,0,1.411-0.656,1.411-1.463V11.87h1.066c0.772,0,1.023-0.535,1.081-0.698C19.73,11.008,19.876,10.435,19.295,9.913z
	 M16.575,11.455v5.018c0,0.266-0.207,0.482-0.461,0.482H3.886c-0.254,0-0.461-0.216-0.461-0.482v-4.954
	c0-0.347-0.273-0.629-0.608-0.629H1.409c-0.116,0-0.18-0.029-0.191-0.057c-0.011-0.03,0.018-0.096,0.109-0.179l8.317-7.476
	C9.738,3.092,9.865,3.045,10,3.045s0.261,0.047,0.356,0.132l3.434,3.087c0.092,0.083,0.185,0.127,0.269,0.127
	c0.124,0,0.258-0.098,0.258-0.374V5.272c0-0.266,0.207-0.482,0.461-0.482h1.336c0.254,0,0.461,0.216,0.461,0.482V8.18
	c0,0.33,0.189,0.758,0.43,0.974l1.668,1.499c0.091,0.082,0.12,0.149,0.109,0.179c-0.011,0.029-0.074,0.057-0.191,0.057h-1.407
	C16.848,10.889,16.575,11.143,16.575,11.455z"/>
</svg>
