<svg xmlns="http://www.w3.org/2000/svg" width="29.276" height="28.253" viewBox="0 0 29.276 28.253">
  <path id="Tracé_9249" data-name="Tracé 9249" d="M28.834,8.182c-.1,0-.191,0-.286,0H6.32c-.033-.115-.061-.2-.086-.3Q5.527,5.28,4.819,2.675C4.677,2.151,4.484,2,3.948,2Q2.26,2,.572,2H.3V3.369H3.576c.031.107.06.2.084.287.49,1.869.966,3.742,1.473,5.607q2.011,7.4,4.047,14.8a.29.29,0,0,1-.144.389,3.126,3.126,0,0,0-1.361,3.43A3.168,3.168,0,0,0,11.31,30.2a3.12,3.12,0,0,0,2.539-3.446,9.67,9.67,0,0,0-.413-1.442H21.3c-.067.119-.12.208-.169.3a3.146,3.146,0,1,0,2.733-1.692q-6.438-.006-12.875,0h-.375l-.461-1.7c.289.015.543.039.8.039q6.409,0,12.818,0a2.731,2.731,0,0,0,2.843-2.2q.73-2.732,1.468-5.462t1.46-5.464A.7.7,0,0,0,28.834,8.182ZM23.927,25.29a1.8,1.8,0,1,1-1.822,1.817A1.813,1.813,0,0,1,23.927,25.29Zm-13.2,0a1.8,1.8,0,1,1-1.8,1.805A1.8,1.8,0,0,1,10.725,25.29ZM27.912,9.877q-1.318,4.954-2.638,9.907a1.378,1.378,0,0,1-1.529,1.163H10.959a1.384,1.384,0,0,1-1.506-1.158L6.718,9.849c-.022-.081-.039-.164-.066-.278H27.977C27.953,9.683,27.937,9.781,27.912,9.877Z" transform="translate(-0.299 -2)"/>
</svg>
