<svg xmlns="http://www.w3.org/2000/svg" viewBox="0 0 20 20"><path d="M17.541 8.863a2.725 2.725 0 00.471-3.736 2.706 2.706 0 00-1.787-1.071 2.704 2.704 0 00-2.021.507 2.705 2.705 0 00-1.071 1.788 2.709 2.709 0 00.978 2.513 4.079 4.079 0 00-2.045 2.086l-.327-.17a2.726 2.726 0 00-1.31-4.813 2.704 2.704 0 00-2.021.506 2.708 2.708 0 00-1.071 1.788 2.709 2.709 0 00.984 2.518l-.327.17A4.07 4.07 0 005.95 8.863a2.726 2.726 0 00.471-3.737 2.7 2.7 0 00-1.787-1.07c-.72-.107-1.437.074-2.021.507S1.649 5.631 1.542 6.35a2.709 2.709 0 00.978 2.513 4.121 4.121 0 00-2.398 3.731v.955a.494.494 0 00.987 0v-.955a3.118 3.118 0 01.926-2.215 3.115 3.115 0 012.21-.911h.011a3.135 3.135 0 012.946 2.088 4.118 4.118 0 00-1.263 2.97v.955a.493.493 0 00.987 0v-.961a3.118 3.118 0 01.735-2.285 3.114 3.114 0 012.136-1.096 3.142 3.142 0 013.381 3.386v.955a.493.493 0 00.986 0v-.955a4.117 4.117 0 00-1.262-2.97 3.117 3.117 0 011.601-1.732 3.114 3.114 0 012.398-.111 3.155 3.155 0 012.071 2.881v.955a.494.494 0 00.986 0v-.955a4.114 4.114 0 00-2.417-3.73zm.03-2.106c0 .957-.779 1.735-1.735 1.735s-1.735-.779-1.735-1.735c0-.957.779-1.736 1.735-1.736s1.735.779 1.735 1.736zm-5.795 1.89a1.737 1.737 0 01-1.714 1.756h-.021a1.74 1.74 0 01-1.735-1.715 1.723 1.723 0 01.493-1.234 1.726 1.726 0 011.221-.523h.021c.456 0 .885.175 1.212.494.332.324.518.758.523 1.222zm-5.795-1.89c0 .957-.779 1.735-1.735 1.735A1.738 1.738 0 012.51 6.757c0-.957.779-1.736 1.736-1.736s1.735.779 1.735 1.736z"/></svg>