<svg xmlns="http://www.w3.org/2000/svg" xmlns:xlink="http://www.w3.org/1999/xlink" width="428" height="428" viewBox="0 0 428 428">
  <defs>
    <linearGradient id="linear-gradient" x1="0.382" y1="-0.143" x2="0.55" y2="0.881" gradientUnits="objectBoundingBox">
      <stop offset="0" stop-color="#fff"/>
      <stop offset="0.085" stop-color="#f5f5f5"/>
      <stop offset="0.229" stop-color="#dadada"/>
      <stop offset="0.413" stop-color="#afafaf"/>
      <stop offset="0.631" stop-color="#747474"/>
      <stop offset="0.876" stop-color="#292929"/>
      <stop offset="1"/>
    </linearGradient>
    <linearGradient id="linear-gradient-2" x1="0" y1="0.5" x2="1" y2="0.5" xlink:href="#linear-gradient"/>
    <clipPath id="clip-welcome">
      <rect width="428" height="428"/>
    </clipPath>
  </defs>
  <g id="welcome" clip-path="url(#clip-welcome)">
    <g id="Groupe_2821" data-name="Groupe 2821" transform="translate(-55 -107.792)">
      <g id="Groupe_2716" data-name="Groupe 2716" transform="translate(75.592 423.285)">
        <path id="Tracé_7613" data-name="Tracé 7613" d="M553.7,603.616c-42.168-12.424-82.164-10.01-118.14-3.361-34.608,6.4-65.474,16.761-90.917,21.593-44.721,8.5-82.306,18.474-131.963-14.664-14.871-9.938-7.279-26.6,22.957-40.488,31.81-14.7,88.677-26.386,170.841-24.146C658.373,549.374,633.422,627.165,553.7,603.616Z" transform="translate(-205.308 -542.274)" fill="rgba(189,197,234,0.4)"/>
        <path id="Tracé_7614" data-name="Tracé 7614" d="M435.564,590.412c-34.608,6.4-65.474,16.762-90.917,21.593-44.721,8.5-82.306,18.474-131.963-14.664-14.871-9.938-7.279-26.6,22.957-40.488,20.856-6.021,46.473-9.554,74.152-9.554C373.484,547.3,426.221,566.02,435.564,590.412Z" transform="translate(-205.308 -532.431)" opacity="0.5" fill="url(#linear-gradient)" style="mix-blend-mode: overlay;isolation: isolate"/>
      </g>
      <g id="Groupe_2717" data-name="Groupe 2717" transform="translate(55 132.792)">
        <path id="Tracé_7615" data-name="Tracé 7615" d="M472.888,687.934a44.011,44.011,0,0,0-13.578-5.95,59.255,59.255,0,0,0-14.522-1.888c-15.853-.316-33.91,4.234-52.982,9.764-5.494,1.574-11.024,3.219-16.658,4.9-27.084,8.051-55.536,15.959-82.2,13.72-16.028-1.332-31.425-6.3-45.529-17.182-15.817-12.11-29.954-31.6-41.5-61.521-.281-.734-.559-1.471-.769-2.2-12.669-34.715-6.474-67.436,9.027-93.331,29.99-50.148,94.8-74.854,125.981-39.334,37.058,42.168,77.442,38.319,98.58,19.211a45.521,45.521,0,0,0,12.947-19.492c10.708-32.614,63.2-67.643,106.663-41.257q2.308,1.416,4.2,2.834c29.744,22.327-9.2,51.476.734,97.284,10.323,47.769,46.228,17.954,56.027,61.731C631.586,670.3,528.74,724.957,472.888,687.934Z" transform="translate(-198.348 -444.094)" fill="rgba(189,197,234,0.4)"/>
        <path id="Tracé_7616" data-name="Tracé 7616" d="M322.6,679.918a44.015,44.015,0,0,0-13.578-5.95,59.247,59.247,0,0,0-14.522-1.888,149.8,149.8,0,0,1-19.247-66.7c-.107-2.414-.175-4.864-.175-7.314A150.457,150.457,0,0,1,412.253,448.186c29.744,22.327-9.2,51.476.734,97.284,10.323,47.769,46.228,17.954,56.027,61.731C481.3,662.281,378.449,716.941,322.6,679.918Z" transform="translate(-48.057 -436.078)" opacity="0.5" fill="url(#linear-gradient-2)" style="mix-blend-mode: overlay;isolation: isolate"/>
        <path id="Tracé_7617" data-name="Tracé 7617" d="M428.257,491.562A142.2,142.2,0,0,1,203.7,511.684c29.99-50.148,94.8-74.854,125.981-39.334C366.736,514.519,407.12,510.669,428.257,491.562Z" transform="translate(-187.87 -421.539)" opacity="0.5" fill="url(#linear-gradient-2)" style="mix-blend-mode: overlay;isolation: isolate"/>
        <path id="Tracé_7618" data-name="Tracé 7618" d="M370.647,591.225c-27.084,8.051-55.536,15.959-82.2,13.72-16.028-1.331-31.425-6.3-45.529-17.182-15.817-12.11-29.954-31.6-41.5-61.521-.281-.734-.559-1.471-.769-2.2a100.692,100.692,0,0,1,68.9-27.087,82.972,82.972,0,0,1,8.4.388,101.053,101.053,0,0,1,70.548,37.408c2.1,2.624,4.1,5.355,5.95,8.19A100.259,100.259,0,0,1,370.647,591.225Z" transform="translate(-193.847 -340.561)" opacity="0.5" fill="url(#linear-gradient-2)" style="mix-blend-mode: overlay;isolation: isolate"/>
      </g>
    </g>
    <g id="Groupe_2943" data-name="Groupe 2943" transform="translate(-24.02 -17.795)">
      <g id="Groupe_2932" data-name="Groupe 2932" transform="translate(32.727 39.095)">
        <g id="Groupe_2931" data-name="Groupe 2931">
          <g id="Groupe_2918" data-name="Groupe 2918" transform="translate(146.574 12.227)">
            <path id="Tracé_7934" data-name="Tracé 7934" d="M402.3,104.794l-24.853,31.39-5.206,6.536a4.838,4.838,0,0,1-6.779.726l-11.34-9c.324-3.432,1.815-11.623,7.222-12.793a10.4,10.4,0,0,0,7.185-3.913.846.846,0,0,0,.242-.4,10.436,10.436,0,0,0-1.938-14.4,11.482,11.482,0,0,0-1.737-1.133,10.54,10.54,0,0,0-15.373,10.7,6.314,6.314,0,0,1-1.573,4.275c-2.381,3.026-6.861,4.844-9.2,5.651l-11.337-9a4.732,4.732,0,0,1-.813-6.643l.046-.058,10.129-12.79c-.89-2.582-2.664-6.5-5.329-8.594a6.67,6.67,0,0,0-4.315-1.573,10.585,10.585,0,1,1,5.284-18.805,10.427,10.427,0,0,1,3.917,7.222c1.129,5.081,8.229,6.618,12.1,7.062L356.9,68.8a4.75,4.75,0,0,1,6.67-.792l.031.024L375.906,77.8l25.543,20.255A4.826,4.826,0,0,1,402.3,104.794Z" transform="translate(-315.45 -62.679)" fill="#212121"/>
            <path id="Tracé_7935" data-name="Tracé 7935" d="M351.9,104.59a10.53,10.53,0,0,0-2.177,7.911,6.314,6.314,0,0,1-1.573,4.275c-2.381,3.026-6.861,4.844-9.2,5.651l-11.337-9a4.732,4.732,0,0,1-.813-6.643l.046-.058,10.129-12.79c-.89-2.582-2.664-6.5-5.329-8.594a6.671,6.671,0,0,0-4.316-1.573,10.585,10.585,0,1,1,5.282-18.806,10.427,10.427,0,0,1,3.917,7.222c1.129,5.081,8.229,6.618,12.1,7.062L356.9,68.8a4.75,4.75,0,0,1,6.67-.792l.031.024L375.908,77.8a32.882,32.882,0,0,0-9.32,14.568,32.516,32.516,0,0,0-1.494,9.44A10.559,10.559,0,0,0,351.9,104.59Z" transform="translate(-315.452 -62.681)" fill="#212121"/>
            <path id="Tracé_7936" data-name="Tracé 7936" d="M413.357,186.958l-5.206,6.536a4.838,4.838,0,0,1-6.779.726l-11.34-9c.324-3.432,1.815-11.623,7.222-12.794a10.4,10.4,0,0,0,7.185-3.913.846.846,0,0,0,.242-.4c2.825,5.486,7.1,10.409,8.352,16.461A16.4,16.4,0,0,1,413.357,186.958Z" transform="translate(-351.366 -113.453)" fill="#212121"/>
          </g>
          <g id="Groupe_2919" data-name="Groupe 2919" transform="translate(55.984)">
            <path id="Tracé_7937" data-name="Tracé 7937" d="M226.352,78.06l-9.2,12.793c-3.753-.2-12.708-1.412-14.205-7.225a11.535,11.535,0,1,0-9.4,13.077,7.163,7.163,0,0,1,4.763,1.452c3.347,2.463,5.568,7.222,6.536,9.726l-9.159,12.748a5.149,5.149,0,0,1-7.182,1.2l-.04-.029-14.4-10.369c-2.748,1.089-6.9,3.227-9.082,6.253a7.211,7.211,0,0,0-1.452,4.721,11.487,11.487,0,1,1-20.661-4.762,11.18,11.18,0,0,1,7.625-4.64c5.448-1.452,6.779-9.2,7.062-13.438L154,97.025,145.77,91.1A5.2,5.2,0,0,1,144.6,83.87L175.266,41.3a5.258,5.258,0,0,1,7.3-1.252L195.8,49.572l29.418,21.186A5.249,5.249,0,0,1,226.352,78.06Z" transform="translate(-140.713 -39.095)" fill="#212121"/>
            <path id="Tracé_7938" data-name="Tracé 7938" d="M226.352,87.792l-9.2,12.793c-3.753-.2-12.708-1.412-14.205-7.225a11.535,11.535,0,1,0-9.4,13.077,7.163,7.163,0,0,1,4.763,1.452c3.347,2.463,5.568,7.222,6.536,9.726l-9.159,12.747a5.149,5.149,0,0,1-7.182,1.2l-.04-.029-14.4-10.369c-2.748,1.089-6.9,3.227-9.082,6.253a7.211,7.211,0,0,0-1.452,4.721,11.487,11.487,0,1,1-20.661-4.762,11.183,11.183,0,0,1,7.625-4.64c5.448-1.452,6.779-9.2,7.062-13.438L154,106.758a28.686,28.686,0,0,0,6.9-3.794A24.374,24.374,0,0,0,169.821,88.8c.726-3.429.686-6.98,1.412-10.409A23.575,23.575,0,0,1,181.4,63.742,31.5,31.5,0,0,1,195.8,59.3L225.222,80.49A5.249,5.249,0,0,1,226.352,87.792Z" transform="translate(-140.713 -48.827)" fill="#212121"/>
          </g>
          <path id="Tracé_7939" data-name="Tracé 7939" d="M352.309,426.008l-.324.723a68.33,68.33,0,0,0-16.746-2.177c-18.28-.363-39.1,4.882-61.092,11.258.041-.363.082-.686.123-1.01v-.082c.16-.928.32-1.9.443-2.825a53.272,53.272,0,0,1,1.856-7.748,15.044,15.044,0,0,1-.041-3.831c-.123-.082-.242-.123-.363-.2a11.483,11.483,0,0,0,.607-1.211,25.192,25.192,0,0,1,1.9-5.851c1.655-9.16-.566-21.831-1.452-34.259-5.124,4.844-9.28,8.031-11.176,8.031l-29.78-1.048-2.139-.082-19.812-.768-1.452.123c-.078.078-.119.16-.2.2-2.985,1.7-8.311-.685-8.311-.685-18.645,6.779-37.245,12.186-47.978,9.965l-.242-.119c1.089,16.26,1.532,30.7-.525,40.953a.85.85,0,0,1-.2.123,179.154,179.154,0,0,1,4.762,21.79c-18.481-1.535-36.235-7.263-52.5-19.811.041-1.375.16-2.825.283-4.319a7.541,7.541,0,0,1-1.371-1.051c2.5-32.966-5.165-67.062,4.681-74.646,3.186-1.7,8.352-2.623,14.244-2.748a18.571,18.571,0,0,0,1.17-3.872L114.4,341.711l2.624-7.021,3.592-9.481,12.909-6.257,12.067,3.836,2.46,10.412.648,2.62s-2.3-1.089-5.124-2.217c.726,7.424-.566,16.826-5.851,18.239-.363.119-.726.2-1.051.283a22.8,22.8,0,0,0,.484,3.186,53.984,53.984,0,0,1,16.383,4.438l9.563,21.91,39.827-3.671s2.784-4.237,3.831-3.671c.484.242.443.645.324,1.089l3.589-2.221,1.334,1.452a.51.51,0,0,1,.242.041,3.92,3.92,0,0,1,1.047,1.293l2.3,2.5,13.8-2.139,3.753-.567,28.528-4.4,18.037-18.358a8.267,8.267,0,0,1,2.5-1.7c2.661-1.7,6.615-2.907,11.217-3.629.686-.082,1.409-.164,2.136-.242.082-.363.164-.768.242-1.211h-.12l-2.258,1.452-2.705-1.252-.645-3.633a41.372,41.372,0,0,1-3.753-9.965l-2.381.887-3.551-9.643,10.006-7.546,12.671.525s.928.846,2.221,2.016l.485-.123.078.648c2.748,2.46,6.537,5.888,6.577,6.052.123.2-2.944,12.306-2.944,12.306l-1.452,1.573.041.447c-.324.2-.686.4-1.051.6l-1.289,1.372-.443-.363a26.815,26.815,0,0,0,.887,5.486,63.764,63.764,0,0,1,6.856.571c6.656.846,12.507,2.583,15.615,5.124a4,4,0,0,1,1.815,1.975c7.062,17.8,13.032,38.416,10.975,42.007l-3.794,6.295,13.923,6.7C355.413,411.6,355.737,418.864,352.309,426.008Z" transform="translate(-68.046 -172.697)" opacity="0.1" style="isolation: isolate"/>
          <g id="Groupe_2930" data-name="Groupe 2930" transform="translate(0 131.12)">
            <g id="Groupe_2920" data-name="Groupe 2920" transform="translate(127.243 33.424)">
              <path id="Tracé_7940" data-name="Tracé 7940" d="M329.889,393.356,298,392.234l-19.835-.771,1.314-6.486,17.536-2.705L325.56,377.9,343.6,359.546c4.882-5.243,22.513-3.6,17.621,3.715C349.127,378.11,334.034,393.377,329.889,393.356Z" transform="translate(-278.162 -356.48)" fill="#b5805d"/>
              <path id="Tracé_7941" data-name="Tracé 7941" d="M347.4,393.356l-31.892-1.122a97.942,97.942,0,0,1-.985-9.962L343.07,377.9l18.042-18.353c4.882-5.243,22.513-3.6,17.621,3.715C366.637,378.11,351.544,393.377,347.4,393.356Z" transform="translate(-295.672 -356.48)" fill="#fd0000"/>
            </g>
            <g id="Groupe_2922" data-name="Groupe 2922" transform="translate(205.446 101.784)">
              <g id="Groupe_2921" data-name="Groupe 2921" transform="translate(22.341 130.502)">
                <path id="Tracé_7942" data-name="Tracé 7942" d="M483.367,742.634l1.472,5.832-5.523,7.171,16.494-7.249-2.955-3.176-1.55-5.152Z" transform="translate(-475.575 -740.06)" fill="#b5805d"/>
                <path id="Tracé_7943" data-name="Tracé 7943" d="M490.409,751.479a15.034,15.034,0,0,1-11.1,4.9l-7,8.468c-2.63,5.435,20.535-4.483,21.723-8.43C494.173,754.362,492.76,751.629,490.409,751.479Z" transform="translate(-472.101 -745.559)" fill="#1b2c7b"/>
              </g>
              <path id="Tracé_7944" data-name="Tracé 7944" d="M458.918,488.338c5.319,20.6,1.763,36.358-.314,61.017l10.1,69.7L458.689,622.3l-23.481-75.818c-1.918-12.18-10.631-40.52-3.34-48.418Z" transform="translate(-429.007 -488.338)"/>
            </g>
            <g id="Groupe_2924" data-name="Groupe 2924" transform="translate(177.599 97.795)">
              <g id="Groupe_2923" data-name="Groupe 2923" transform="translate(0 128.379)">
                <path id="Tracé_7945" data-name="Tracé 7945" d="M391.679,728.763l-.044,6.014-7.152,5.547,17.785-2.862-2.058-3.817-.2-5.376Z" transform="translate(-379.718 -728.269)" fill="#b5805d"/>
                <path id="Tracé_7946" data-name="Tracé 7946" d="M396.587,740.576a15.031,15.031,0,0,1-11.976,1.951l-8.9,6.429c-3.92,4.6,21,.833,23.141-2.689C399.5,744.312,398.825,741.316,396.587,740.576Z" transform="translate(-375.293 -734.196)" fill="#1b2c7b"/>
              </g>
              <path id="Tracé_7947" data-name="Tracé 7947" d="M427.694,480.642c-.078,21.33-7.451,35.682-15.686,58.97l-7.759,70.026-1.569.079-8.311.549h-.628l-3.685-79.28c.706-6.9.628-19.289,1.958-29.875v-.079l.471-2.824c1.1-6.9,3.059-12.7,6.588-14.9Z" transform="translate(-382.402 -480.642)"/>
            </g>
            <path id="Tracé_7948" data-name="Tracé 7948" d="M397.488,423.907c12.469,6.311,30.4,6.734,48.943,6.486L451.8,358.53c-5.373-9.586-45.589-10.873-51.184-.573C393.2,378.416,406.208,410.421,397.488,423.907Z" transform="translate(-208.382 -320.306)" fill="#fd0000"/>
            <g id="Groupe_2925" data-name="Groupe 2925" transform="translate(193.342)">
              <path id="Tracé_7949" data-name="Tracé 7949" d="M433.234,343.829c1.405-1.5,1.457-6.653,1.692-11.306l8.7-1.129c.037,4.35.334,8.359,1.464,11.286C441.361,347.442,434.581,347.705,433.234,343.829Z" transform="translate(-418.939 -310.975)" fill="#b5805d"/>
              <path id="Tracé_7950" data-name="Tracé 7950" d="M422.82,323.913c3.79,1.361,9.863-3.262,15.291-6.189l-2.3-21.029-19.873,3.821C414,308,419.4,321.654,422.82,323.913Z" transform="translate(-410.414 -294.266)" fill="#b5805d"/>
              <path id="Tracé_7951" data-name="Tracé 7951" d="M431,317.443l-4.067-3.33.443-6.185-2.426-1.491-.915,4.776-1.481.133-.86-6.642-12.483,4.487-3.548-9.652,10.01-7.529,12.654.522s9.29,8.358,9.4,8.584-2.944,12.333-2.944,12.333Z" transform="translate(-405.66 -292.009)"/>
            </g>
            <path id="Tracé_7952" data-name="Tracé 7952" d="M456.535,518.027l11.25,9.74-1.4,1.127-10.9-9.82Z" transform="translate(-236.312 -400.851)" fill="#fff"/>
            <path id="Tracé_7953" data-name="Tracé 7953" d="M398.141,509.5l-4.312,4.94.471-2.825,2.825-3.135Z" transform="translate(-206.62 -396.251)" fill="#fff"/>
            <path id="Tracé_7954" data-name="Tracé 7954" d="M266.939,406.55,262,401.277l-9.871,6.142.755,2.144,5.15-1.168,3.255,5,4.337-.363Z" transform="translate(-138.382 -344.628)" fill="#b5805d"/>
            <g id="Groupe_2926" data-name="Groupe 2926" transform="translate(0 109.244)">
              <path id="Tracé_7955" data-name="Tracé 7955" d="M49.931,745.985a10.532,10.532,0,0,0-1.293,4.732c-.052,2.692-11.944.451-11.944.451a56.361,56.361,0,0,1,2.7-6.221,20,20,0,0,1,3.186-4.841Z" transform="translate(-34.638 -617.039)" fill="#b5805d"/>
              <path id="Tracé_7956" data-name="Tracé 7956" d="M60.1,502.726c-4.531,32.362,3.961,46.5,1.388,58.854S44.449,627.9,44.449,627.9c1.174,2.357,6.667,4.36,9.894,3.733,12.524-28.893,27.481-62.32,29.361-72.671a188.01,188.01,0,0,0,1.244-53.5Z" transform="translate(-38.372 -502.726)"/>
              <path id="Tracé_7957" data-name="Tracé 7957" d="M35.118,756.026c-2.037,2.289-2.787,4.657-2.194,7.11,8.5,1.89,16.737,3.93,24.765,5.21.638-3.059-6.632-8.813-10.9-11A13.591,13.591,0,0,1,35.118,756.026Z" transform="translate(-32.727 -624.706)" fill="#1b2c7b"/>
            </g>
            <g id="Groupe_2927" data-name="Groupe 2927" transform="translate(41.208 111.746)">
              <path id="Tracé_7958" data-name="Tracé 7958" d="M137.684,754.1a10.533,10.533,0,0,0-.345,4.9c.477,2.648-11.623,2.78-11.623,2.78a55.959,55.959,0,0,1,1.433-6.629,20.1,20.1,0,0,1,2.173-5.37Z" transform="translate(-118.716 -624.197)" fill="#b5805d"/>
              <path id="Tracé_7959" data-name="Tracé 7959" d="M112.213,509.748c1.9,32.622,12.995,44.825,12.893,57.443s-3.7,68.365-3.7,68.365c1.614,2.081,7.39,2.968,10.433,1.723,6.618-30.786,14.731-66.5,14.547-77.018a188.157,188.157,0,0,0-9.266-52.71Z" transform="translate(-112.213 -507.552)"/>
              <path id="Tracé_7960" data-name="Tracé 7960" d="M123.992,766.564c-1.549,2.644-1.818,5.115-.757,7.4,8.707.184,17.181.57,25.3.253.027-3.125-8.229-7.339-12.845-8.645A13.608,13.608,0,0,1,123.992,766.564Z" transform="translate(-117.213 -631.806)" fill="#1b2c7b"/>
            </g>
            <path id="Tracé_7961" data-name="Tracé 7961" d="M69.918,442.986c6.226,6.373,39.643,8.655,49.029,3.279,3.419-17.167-.1-46.141-2.088-75.619-11.859-5.821-33.949-6.748-42.3-2.3C64.739,375.927,72.385,410.012,69.918,442.986Z" transform="translate(-50.381 -327.423)" fill="#fd0000"/>
            <path id="Tracé_7962" data-name="Tracé 7962" d="M105.283,358.226c2.006-3.391,2.4-7.216,2.579-11.552h9.212a39.494,39.494,0,0,0,1.252,12.848C117.37,361.33,106.192,360.617,105.283,358.226Z" transform="translate(-67.667 -318.334)" fill="#b5805d"/>
            <path id="Tracé_7963" data-name="Tracé 7963" d="M103.441,330.936c5.353,2.4,9.157,6.74,14.022,4.643,6.868-1.825,7.021-17.3,4.671-24.2L103.47,309.2Z" transform="translate(-66.78 -300.289)" fill="#b5805d"/>
            <path id="Tracé_7964" data-name="Tracé 7964" d="M85.469,319.471l14.356,10.651,7.1-8.731-4.811-4.937,2.2-2.982,2.61,3.261,1.711-1.97-1.327-5.523c4.79.563,12.459,4.343,12.459,4.343l-3.118-13.056-12.033-3.811L91.7,302.944Z" transform="translate(-58.126 -294.277)"/>
            <g id="Groupe_2928" data-name="Groupe 2928" transform="translate(52.539 43.222)">
              <path id="Tracé_7965" data-name="Tracé 7965" d="M148.006,375.379l9.563,21.9,39.845-3.661,1.388,6.554c-18.631,6.779-37.235,12.21-47.978,9.969-4.913-1.423-14.629-18.795-16.754-26.085Z" transform="translate(-134.069 -375.379)" fill="#b5805d"/>
              <path id="Tracé_7966" data-name="Tracé 7966" d="M257.645,413.643s5.342,2.415,8.331.71c3.183-1.822,1.7-9.286-.419-10.569s-4.237,3.214-5.063,2.371.641-2.177-.4-2.748-3.836,3.685-3.836,3.685Z" transform="translate(-192.911 -388.851)" fill="#b5805d"/>
            </g>
            <g id="Groupe_2929" data-name="Groupe 2929" transform="translate(222.499 33.425)">
              <path id="Tracé_7967" data-name="Tracé 7967" d="M493.815,405.627l-16.547,27.29-10.351,16.935L461.9,445.54l6.2-16.625,10.115-27.054-7.215-24.7c-2.2-6.823,7.843-21.408,11.842-13.564C489.892,381.394,495.852,402.018,493.815,405.627Z" transform="translate(-461.899 -358.821)" fill="#b5805d"/>
              <path id="Tracé_7968" data-name="Tracé 7968" d="M498.7,402.326l-17.127,28.252a102.962,102.962,0,0,1-9.5-4.142l10.472-28.006-7.468-25.57c-2.275-7.062,8.116-22.162,12.255-14.042C494.641,377.244,500.809,398.594,498.7,402.326Z" transform="translate(-466.798 -356.482)" fill="#fd0000"/>
            </g>
            <path id="Tracé_7969" data-name="Tracé 7969" d="M431.576,329.186l-2.032,6.918h-5.152l.612,3.637,2.7,1.262,3.381-2.143,1.965-9.806Z" transform="translate(-221.338 -309.848)" fill="#091038"/>
          </g>
        </g>
      </g>
      <g id="Groupe_2942" data-name="Groupe 2942" transform="translate(313.222 59.905)">
        <rect id="Rectangle_5" data-name="Rectangle 5" width="130.091" height="230.589" rx="5.42" fill="#535354"/>
        <g id="Groupe_2933" data-name="Groupe 2933" transform="translate(5.556 4.656)">
          <path id="Tracé_7970" data-name="Tracé 7970" d="M692.443,88.215H675.91v4.142a4.164,4.164,0,0,1-4.166,4.163H616.2a4.162,4.162,0,0,1-4.162-4.161V88.215H595.5a11.019,11.019,0,0,0-11.019,11.019h0V272.074A11.019,11.019,0,0,0,595.5,283.1h96.945a11.018,11.018,0,0,0,11.016-11.019V99.234A11.018,11.018,0,0,0,692.443,88.215Z" transform="translate(-584.482 -88.215)" fill="#fff"/>
        </g>
        <g id="Groupe_2934" data-name="Groupe 2934" transform="translate(54.474 204.79)">
          <circle id="Ellipse_9" data-name="Ellipse 9" cx="10.572" cy="10.572" r="10.572" fill="#f3f3f3"/>
        </g>
        <g id="Groupe_2935" data-name="Groupe 2935" transform="translate(87.206 6.362)">
          <path id="Tracé_7971" data-name="Tracé 7971" d="M744.633,92.836a1.327,1.327,0,1,1,0-.006Z" transform="translate(-741.975 -91.506)"/>
        </g>
        <g id="Groupe_2936" data-name="Groupe 2936" transform="translate(52.406 144.654)">
          <rect id="Rectangle_6" data-name="Rectangle 6" width="28.472" height="1.709"/>
        </g>
        <g id="Groupe_2937" data-name="Groupe 2937" transform="translate(34.563 152.706)">
          <rect id="Rectangle_7" data-name="Rectangle 7" width="64.156" height="1.709"/>
        </g>
        <g id="Groupe_2938" data-name="Groupe 2938" transform="translate(34.563 160.759)">
          <rect id="Rectangle_8" data-name="Rectangle 8" width="64.156" height="1.709"/>
        </g>
        <g id="Groupe_2939" data-name="Groupe 2939" transform="translate(34.563 168.812)">
          <rect id="Rectangle_9" data-name="Rectangle 9" width="64.156" height="1.709"/>
        </g>
        <g id="Groupe_2940" data-name="Groupe 2940" transform="translate(63.527 236.778)">
          <rect id="Rectangle_10" data-name="Rectangle 10" width="3.037" height="100.514"/>
        </g>
        <g id="Groupe_2941" data-name="Groupe 2941" transform="translate(61.394 230.589)">
          <rect id="Rectangle_11" data-name="Rectangle 11" width="7.302" height="9.873"/>
        </g>
      </g>
    </g>
  </g>
</svg>
