<svg xmlns="http://www.w3.org/2000/svg" width="15.75" height="15.75" viewBox="0 0 15.75 15.75"><defs><style>.a{fill:#ec7f83;stroke:#ec7f83;stroke-width:0.4px;}</style></defs><path class="a" d="M13.675,6a7.675,7.675,0,1,0,7.675,7.675A7.68,7.68,0,0,0,13.675,6Zm0,.7a6.958,6.958,0,0,1,4.4,1.559,7.854,7.854,0,0,0-1.2,1.652l-.78-.387a.351.351,0,1,0-.316.627l.79.392a7.844,7.844,0,0,0-.621,2.785h-.916a.349.349,0,1,0,.033.7h.883a7.821,7.821,0,0,0,.616,2.78l-.785.392a.351.351,0,1,0,.316.627l.774-.387a7.821,7.821,0,0,0,1.2,1.652,6.982,6.982,0,0,1-8.809,0,7.821,7.821,0,0,0,1.2-1.652l.774.387a.351.351,0,1,0,.316-.627L10.78,16.8a7.825,7.825,0,0,0,.616-2.78h.883a.349.349,0,0,0,.01-.7H11.4a7.847,7.847,0,0,0-.621-2.785l.79-.392a.351.351,0,1,0-.316-.627l-.78.387a7.854,7.854,0,0,0-1.2-1.652A6.958,6.958,0,0,1,13.675,6.7ZM8.758,8.725a7.18,7.18,0,0,1,1.09,1.5l-.692.343a.351.351,0,1,0,.316.627l.676-.338a7.152,7.152,0,0,1,.551,2.469H9.8a.349.349,0,1,0,.033.7H10.7a7.137,7.137,0,0,1-.545,2.464l-.681-.338a.351.351,0,1,0-.316.627l.692.349a7.174,7.174,0,0,1-1.09,1.494,6.968,6.968,0,0,1,0-9.893Zm9.834,0a6.969,6.969,0,0,1,0,9.893,7.162,7.162,0,0,1-1.09-1.494l.692-.349a.351.351,0,1,0-.316-.627l-.681.338a7.128,7.128,0,0,1-.545-2.464h.861a.349.349,0,0,0,.01-.7h-.871a7.148,7.148,0,0,1,.551-2.469l.676.338a.351.351,0,1,0,.316-.627l-.692-.343A7.167,7.167,0,0,1,18.592,8.725Z" transform="translate(-5.8 -5.8)"/></svg>