<svg xmlns="http://www.w3.org/2000/svg" width="100" height="88.889" viewBox="0 0 100 88.889"><defs><style>.a{fill:#fff;}</style></defs><path class="a" d="M91.667,11.111h-25V27.778H33.333V11.111h-25A8.335,8.335,0,0,0,0,19.444V80.556a8.335,8.335,0,0,0,8.333,8.333H91.667A8.335,8.335,0,0,0,100,80.556V19.444A8.335,8.335,0,0,0,91.667,11.111ZM50,38.889A11.111,11.111,0,1,1,38.889,50,11.121,11.121,0,0,1,50,38.889ZM66.2,77.778H33.8a2.74,2.74,0,0,1-2.708-3.437,11.116,11.116,0,0,1,10.573-7.674H43.09a17.882,17.882,0,0,0,13.819,0h1.424A11.127,11.127,0,0,1,68.906,74.34,2.74,2.74,0,0,1,66.2,77.778ZM61.111,5.556A5.55,5.55,0,0,0,55.556,0H44.444a5.55,5.55,0,0,0-5.556,5.556V22.222H61.111Z"/></svg>