<svg xmlns="http://www.w3.org/2000/svg" width="49.532" height="44.028" viewBox="0 0 49.532 44.028"><g transform="translate(0)"><path d="M45.4,5.5H33.021v8.255H16.511V5.5H4.128A4.129,4.129,0,0,0,0,9.631V39.9a4.129,4.129,0,0,0,4.128,4.128H45.4A4.129,4.129,0,0,0,49.532,39.9V9.631A4.129,4.129,0,0,0,45.4,5.5ZM24.766,19.262a5.5,5.5,0,1,1-5.5,5.5A5.509,5.509,0,0,1,24.766,19.262Zm8.023,19.262H16.743a1.357,1.357,0,0,1-1.341-1.7,5.506,5.506,0,0,1,5.237-3.8h.705a8.857,8.857,0,0,0,6.845,0h.705a5.511,5.511,0,0,1,5.237,3.8A1.357,1.357,0,0,1,32.789,38.525ZM30.269,2.752A2.749,2.749,0,0,0,27.518,0h-5.5a2.749,2.749,0,0,0-2.752,2.752v8.255H30.269Z" transform="translate(0)"/></g>
</svg>
