<svg xmlns="http://www.w3.org/2000/svg" width="90.357" height="90.357" viewBox="0 0 90.357 90.357"><defs><style>.a{fill:#fff;}</style></defs><path class="a" d="M0,71.527v7.536c0,6.23,15.177,11.295,33.884,11.295s33.884-5.065,33.884-11.295V71.527c-7.289,5.136-20.613,7.536-33.884,7.536S7.289,76.663,0,71.527ZM56.473,22.589c18.707,0,33.884-5.065,33.884-11.295S75.18,0,56.473,0,22.589,5.065,22.589,11.295,37.767,22.589,56.473,22.589ZM0,53.014v9.106c0,6.23,15.177,11.295,33.884,11.295S67.768,68.35,67.768,62.121V53.014c-7.289,6-20.63,9.106-33.884,9.106S7.289,59.015,0,53.014Zm73.415,1.941C83.528,53,90.357,49.361,90.357,45.179V37.643c-4.094,2.894-10.112,4.871-16.942,6.089ZM33.884,28.237C15.177,28.237,0,34.555,0,42.355S15.177,56.473,33.884,56.473s33.884-6.318,33.884-14.118S52.591,28.237,33.884,28.237Zm38.7,9.936c10.589-1.906,17.771-5.647,17.771-9.936V20.7c-6.265,4.43-17.03,6.812-28.36,7.377C67.2,30.6,71.033,33.99,72.586,38.172Z"/></svg>