<svg xmlns="http://www.w3.org/2000/svg" width="44.755" height="44.755" viewBox="0 0 44.755 44.755"><g transform="translate(0 0)"><path d="M0,35.428v3.733c0,3.086,7.518,5.594,16.783,5.594s16.783-2.509,16.783-5.594V35.428c-3.61,2.544-10.21,3.733-16.783,3.733S3.61,37.972,0,35.428Zm27.972-24.24c9.266,0,16.783-2.509,16.783-5.594S37.238,0,27.972,0,11.189,2.509,11.189,5.594,18.706,11.189,27.972,11.189ZM0,26.259v4.511c0,3.086,7.518,5.594,16.783,5.594s16.783-2.509,16.783-5.594V26.259c-3.61,2.972-10.219,4.511-16.783,4.511S3.61,29.231,0,26.259Zm36.364.962c5.009-.97,8.392-2.771,8.392-4.843V18.645a21.466,21.466,0,0,1-8.392,3.016ZM16.783,13.986C7.518,13.986,0,17.115,0,20.979s7.518,6.993,16.783,6.993,16.783-3.129,16.783-6.993S26.049,13.986,16.783,13.986Zm19.17,4.921c5.245-.944,8.8-2.8,8.8-4.921V10.254c-3.1,2.194-8.435,3.374-14.047,3.654C33.287,15.157,35.184,16.836,35.953,18.907Z" transform="translate(0 0)"/></g></svg>