<svg xmlns="http://www.w3.org/2000/svg" width="96" height="96" viewBox="0 0 96 96"><defs><style>.a{fill:#fff;stroke-linecap:round;stroke-linejoin:round;stroke-width:3px;}.a,.b{stroke:#fff;}.b,.d{fill:none;}.b{stroke-width:8px;}.c{stroke:none;}</style></defs><g transform="translate(14 25.5)"><path class="a" d="M27.68,22.09a5.59,5.59,0,1,1-5.59-5.59A5.59,5.59,0,0,1,27.68,22.09Z" transform="translate(12.301)"/><path class="a" d="M38.18,22.09a5.59,5.59,0,1,1-5.59-5.59A5.59,5.59,0,0,1,38.18,22.09Z" transform="translate(24.601)"/><path class="a" d="M17.18,22.09a5.59,5.59,0,1,1-5.59-5.59A5.59,5.59,0,0,1,17.18,22.09Z"/></g><g class="b"><circle class="c" cx="48" cy="48" r="48"/><circle class="d" cx="48" cy="48" r="44"/></g></svg>