<svg xmlns="http://www.w3.org/2000/svg" width="77.39" height="88.445" viewBox="0 0 77.39 88.445"><defs><style>.a{fill:#fff;}</style></defs><path class="a" d="M19.347,38.695A19.347,19.347,0,1,0,0,19.347,19.338,19.338,0,0,0,19.347,38.695Zm0-27.639a8.292,8.292,0,1,1-8.292,8.292A8.294,8.294,0,0,1,19.347,11.056ZM58.042,49.75A19.347,19.347,0,1,0,77.39,69.1,19.338,19.338,0,0,0,58.042,49.75Zm0,27.639A8.292,8.292,0,1,1,66.334,69.1,8.294,8.294,0,0,1,58.042,77.39ZM67.768.035,73.227.017a4.146,4.146,0,0,1,3.4,6.53L13.37,86.649a4.137,4.137,0,0,1-3.386,1.762l-5.77.017a4.146,4.146,0,0,1-3.4-6.53L64.382,1.8A4.137,4.137,0,0,1,67.768.035Z"/></svg>