<svg xmlns="http://www.w3.org/2000/svg" width="101.938" height="89.195" viewBox="0 0 101.938 89.195"><defs><style>.a{fill:#fff;}</style></defs><path class="a" d="M91.823,21.363h-75.9a3.186,3.186,0,1,1,0-6.371H92.381a3.185,3.185,0,0,0,3.186-3.186A9.557,9.557,0,0,0,86.01,2.25H12.742A12.741,12.741,0,0,0,0,14.992V78.7A12.741,12.741,0,0,0,12.742,91.445H91.823c5.579,0,10.114-4.287,10.114-9.557V30.92C101.938,25.65,97.4,21.363,91.823,21.363Zm-9,41.412A6.371,6.371,0,1,1,89.2,56.4,6.372,6.372,0,0,1,82.824,62.775Z" transform="translate(0 -2.25)"/></svg>