<svg xmlns="http://www.w3.org/2000/svg" width="43.534" height="42.339" viewBox="0 0 43.534 42.339">
  <g id="Composant_40_1" data-name="Composant 40 – 1" transform="translate(0.927)">
    <path id="Union_1" data-name="Union 1" d="M-3180.268-4835.45-3205-4857.668l10.41-4.246-3.209-3.433,3.577-7.2,3.256-1.45,13.141,11.658,3.136-1.621,2.589-1.824,9.2,8.867s-.012,4.707-.352,7.509l.257.228a13.637,13.637,0,0,1-1.551,6.317c-1.073,1.914-3.093,3.384-4.658,4.6-3.458,2.546-8.052,2.852-10.059,2.852C-3179.892-4835.419-3180.268-4835.45-3180.268-4835.45Z" transform="translate(3205 4877.258)" fill="#fd6060" stroke="rgba(0,0,0,0)" stroke-width="1" opacity="0.54"/>
    <g id="Groupe_4453" data-name="Groupe 4453" transform="translate(-200.256 -196.624)">
      <path id="Tracé_9221" data-name="Tracé 9221" d="M1088.458,877.711h-4.182V876.6h-5v1.109h-4.182s-1.919.24-1.919,2.007v3.775h17.2v-3.775C1090.377,877.95,1088.458,877.711,1088.458,877.711Z" transform="translate(-872.918 -666.849)" fill="#86065a"/>
      <path id="Tracé_9222" data-name="Tracé 9222" d="M1085.2,845.036a5.528,5.528,0,0,0-4.978,2.609,6.657,6.657,0,0,0-.98,3.558v3.32a3.608,3.608,0,0,0,3.588,3.627h4.774a3.573,3.573,0,0,0,3.554-3.592V851.2a6.659,6.659,0,0,0-.98-3.558A5.53,5.53,0,0,0,1085.2,845.036Z" transform="translate(-876.459 -648.412)" fill="#86065a"/>
      <path id="Tracé_9265" data-name="Tracé 9265" d="M1082.156,845.036a2.69,2.69,0,0,0-2.438,1.919,6.85,6.85,0,0,0-.48,2.617v2.442c0,1.473.787,2.668,1.758,2.668h2.338c.961,0,1.741-1.183,1.741-2.642v-2.468a6.852,6.852,0,0,0-.48-2.617A2.691,2.691,0,0,0,1082.156,845.036Z" transform="translate(-871.38 -646.363)" fill="#fff" opacity="0.158"/>
      <g id="_7YK3HV.tif" data-name="7YK3HV.tif" transform="translate(211.337 207.451)">
        <g id="Groupe_4443" data-name="Groupe 4443" transform="translate(0 0)">
          <g id="Groupe_4442" data-name="Groupe 4442" transform="translate(0 0)">
            <path id="Tracé_9238" data-name="Tracé 9238" d="M176.456,254.294a5.078,5.078,0,0,1-.135-7.191,16.132,16.132,0,0,0,3.949-6.739,7.92,7.92,0,0,1,8.508-5.6,8.056,8.056,0,0,1,3.637,1.375l-2.119,2.115A5.033,5.033,0,0,0,183,241.423a18.208,18.208,0,0,1-4.368,7.5,2.248,2.248,0,0,0-.134,3.317,9.657,9.657,0,0,0-1.656,1.522C176.682,253.907,176.478,254.038,176.456,254.294Z" transform="translate(-174.896 -234.587)" fill="#ffba00"/>
            <path id="Tracé_9239" data-name="Tracé 9239" d="M190.948,390.064c.021-.256.225-.387.389-.532a9.657,9.657,0,0,1,1.656-1.522,2.223,2.223,0,0,0,3.235-.263,22.759,22.759,0,0,1,3.062-2.5c.21-.143.392-.218.594-.009a24.049,24.049,0,0,0,1.87,1.894c-.011.112-.093.158-.18.208a18.16,18.16,0,0,0-3.582,2.791A5.076,5.076,0,0,1,190.948,390.064Z" transform="translate(-189.387 -370.357)" fill="#ffce29"/>
            <path id="Tracé_9240" data-name="Tracé 9240" d="M344.429,270.891a8.016,8.016,0,0,1-1.2,10.418c-.12.106-.228.24-.419.175l-1.845-1.843c-.114-.33.2-.412.353-.562a5.071,5.071,0,0,0,.974-6.057Z" transform="translate(-324.801 -267.245)" fill="#ffce29"/>
            <path id="Tracé_9241" data-name="Tracé 9241" d="M321,242.071l-2.133,2.132c-.621.609-1.237,1.223-1.865,1.825a1.424,1.424,0,0,1-2,.121c-.035-.205.1-.327.224-.454q3.238-3.235,6.474-6.473c.139-.139.273-.28.5-.25a1.442,1.442,0,0,1,.221,1.547,12.547,12.547,0,0,1-1.128,1.263Z" transform="translate(-301.372 -238.425)" fill="#462a49"/>
            <path id="Tracé_9242" data-name="Tracé 9242" d="M317.251,233.94c-.222-.03-.356.111-.5.25q-3.235,3.238-6.474,6.473c-.128.128-.259.249-.224.454a1.429,1.429,0,0,1-.045-2.2c.6-.622,1.212-1.238,1.819-1.857l2.119-2.115c.367-.358.732-.719,1.1-1.074A1.433,1.433,0,0,1,317.251,233.94Z" transform="translate(-296.432 -233.394)" fill="#5f4262"/>
            <path id="Tracé_9244" data-name="Tracé 9244" d="M300.961,369.105c0,.141-.005.28-.2.291-.238-.152-.329-.009-.389.194-.732.165-1.4.546-2.138.68A14.125,14.125,0,0,1,296,368.132a1.1,1.1,0,0,1,.265-.193c.639-.217,1.276-.445,1.927-.62.3-.079.565-.4.918-.157Z" transform="translate(-284.227 -354.077)" fill="#d9e0ec"/>
            <path id="Tracé_9245" data-name="Tracé 9245" d="M284.145,377.948a14.127,14.127,0,0,0,2.235,2.139,3.08,3.08,0,0,0-1.642.579,23.983,23.983,0,0,1-1.87-1.894c.007-.224.194-.27.344-.358a4.042,4.042,0,0,0,.836-.467h.1Z" transform="translate(-272.371 -363.894)" fill="#ecf0f5"/>
            <path id="Tracé_9246" data-name="Tracé 9246" d="M329.834,363.528l-1.85-1.944,1.284-.688,1.844,1.843A3.5,3.5,0,0,1,329.834,363.528Z" transform="translate(-313.101 -348.5)" fill="#eff1f6"/>
            <path id="Tracé_9247" data-name="Tracé 9247" d="M340.98,390.56c.06-.2.151-.346.389-.194A.534.534,0,0,1,340.98,390.56Z" transform="translate(-324.833 -375.047)" fill="#eff1f6"/>
            <path id="Tracé_9248" data-name="Tracé 9248" d="M295.014,377.57c.033-.056.065-.053.1,0Z" transform="translate(-283.336 -363.517)" fill="#d9e0ec"/>
          </g>
        </g>
      </g>
    </g>
  </g>
</svg>
