<svg xmlns="http://www.w3.org/2000/svg" width="62.558" height="60.362" viewBox="0 0 62.558 60.362"><defs><style>.a{fill:#6e7faa;}</style></defs><path class="a" d="M-181.783,272.059h-6.995l.259-3.454a2.121,2.121,0,0,0-.691-1.813,2.6,2.6,0,0,0-1.9-.691h-29.965a2.6,2.6,0,0,0-1.9.691,2.466,2.466,0,0,0-.691,1.986l.259,3.368H-230.4a6.951,6.951,0,0,0-5.268,2.332,6.976,6.976,0,0,0-1.641,5.44l1.641,11.053a11.4,11.4,0,0,0,11.14,9.672h3.886a14.433,14.433,0,0,0,11.831,9.844v10.794h-8.895a2.544,2.544,0,0,0-2.591,2.591,2.544,2.544,0,0,0,2.591,2.591h22.97a2.544,2.544,0,0,0,2.591-2.591,2.544,2.544,0,0,0-2.591-2.591h-8.636V310.4a14.549,14.549,0,0,0,11.831-9.844h3.886a11.468,11.468,0,0,0,11.14-9.672l1.641-11.053a6.666,6.666,0,0,0-1.641-5.44A6.7,6.7,0,0,0-181.783,272.059Zm-48.445,18.048-1.641-11.053a1.309,1.309,0,0,1,.432-1.3,1.522,1.522,0,0,1,1.3-.518h7.427l1.554,18.135h-3.109A6.188,6.188,0,0,1-230.228,290.107Zm34.2,6.995a9.434,9.434,0,0,1-9.5,8.635h-.864a9.494,9.494,0,0,1-9.5-8.635l-2.245-25.907h24.266Zm15.976-18.048-1.641,11.053a6.188,6.188,0,0,1-5.958,5.268h-3.109l1.554-18.135h7.427a1.522,1.522,0,0,1,1.3.518A1.308,1.308,0,0,1-180.056,279.053Z" transform="translate(237.368 -266.1)"/></svg>