<svg xmlns="http://www.w3.org/2000/svg" width="29.545" height="29.545" viewBox="0 0 29.545 29.545"><defs><style>.a{fill:#fafafa;}</style></defs><path class="a" d="M18.147,3.375A14.772,14.772,0,1,0,32.92,18.147,14.788,14.788,0,0,0,18.147,3.375ZM8.986,16.883l2.784,1.271,1.214,4.751-1.108,2.081-4.062-.05a12.4,12.4,0,0,1-1.953-5.348Zm15.433,8.1-1.108-2.081,1.214-4.758L27.3,16.883l3.125,2.706a12.314,12.314,0,0,1-1.953,5.348ZM26.72,14.6,23.623,16l-4.339-3.665V8.979l3.4-2.315a12.664,12.664,0,0,1,5.369,4.105ZM13.552,6.67,16.94,8.979v3.352l-4.332,3.658L9.554,14.6,8.226,10.79A12.3,12.3,0,0,1,13.552,6.67Zm1.925,23.551c-.05-.014-.092-.021-.142-.036l-1.456-3.913,1.044-2.088h6.449l1.065,2.152-1.406,3.828c-.071.014-.142.036-.213.05a17.905,17.905,0,0,1-2.869.291A12.043,12.043,0,0,1,15.477,30.221Z" transform="translate(-3.375 -3.375)"/></svg>