<svg id="Composant_39_1" data-name="Composant 39 – 1" xmlns="http://www.w3.org/2000/svg" width="38.443" height="39.94" viewBox="0 0 38.443 39.94">
  <path id="Tracé_9264" data-name="Tracé 9264" d="M1118.415,905.7c5.172-3.965,5.053-6.161,5.735-9.086.776-3.307.392-11.3.392-11.3l-14.032-14.71-7.522,1.52-15.7-1.52,3.106,3.433-3.106,20.445,21.639,13.615A13.022,13.022,0,0,0,1118.415,905.7Z" transform="translate(-1086.194 -868.285)" fill="#000036" opacity="0.2"/>
  <g id="Groupe_4448" data-name="Groupe 4448" transform="translate(-173.095 -299.95)">
    <g id="iEdlvp.tif" transform="translate(173.095 299.95)">
      <g id="Groupe_4447" data-name="Groupe 4447" transform="translate(0 0)">
        <g id="Groupe_4446" data-name="Groupe 4446">
          <path id="Tracé_9249" data-name="Tracé 9249" d="M197.212,323.2q-4.045.006-8.089.012-7.49,0-14.979,0c-.191,0-.382.012-.573.018-.23-.083-.165-.281-.166-.445,0-1.307-.013-2.614,0-3.921a1.8,1.8,0,0,1,1.947-1.91c1.133-.006,2.266,0,3.4,0a6.791,6.791,0,0,1,0,1.352c-.224,0-.448.01-.672.006-.316,0-.585.138-.593.44s.284.4.566.4c.258,0,.517-.009.775-.014.583.68,1.057.685,1.65.017.31,0,.62.008.929-.008a.411.411,0,0,0-.005-.822c-.274-.02-.551-.007-.826-.009q0-.678,0-1.356h10.653q0,.678,0,1.356c-.258,0-.517,0-.775,0-.28.009-.474.145-.461.438a.407.407,0,0,0,.456.392c.293.006.585,0,.878,0,.6.671,1.036.666,1.65-.017.274,0,.549.02.822.01.231-.008.463-.058.463-.361s-.185-.462-.49-.468c-.24,0-.48-.006-.72-.008a6.79,6.79,0,0,1,0-1.352l2.889.016a2.233,2.233,0,0,1,1.254,2.317,5.5,5.5,0,0,0,0,1.1c.069.548-.15.66-.668.659q-9.746-.026-19.491-.012c-.975,0-1.951,0-2.926,0-.264,0-.575-.091-.566.377s.343.328.591.353c.121.012.244,0,.366,0h21.216C197.184,321.766,197.184,321.766,197.212,323.2Z" transform="translate(-173.366 -315.177)" fill="#ff4d1b"/>
          <path id="Tracé_9250" data-name="Tracé 9250" d="M173.1,527.954c.222,0,.275.2.36.336a1.683,1.683,0,0,0,1.5.793q10.411.01,20.821,0l1.05.008a1.5,1.5,0,0,1-.467,1.266c-.225.233-.557.279-.777.506q-10.368,0-20.735,0a1.854,1.854,0,0,1-1.745-1.97C173.088,528.581,173.1,528.267,173.1,527.954Z" transform="translate(-173.095 -504.099)" fill="#a7d5fb"/>
          <path id="Tracé_9251" data-name="Tracé 9251" d="M198.628,323.346c-.028-1.438-.028-1.438-1.477-1.438H175.935c-.122,0-.245.01-.366,0-.248-.024-.582.129-.591-.352s.3-.376.566-.377c.975,0,1.951,0,2.926,0q9.746,0,19.491.012c.518,0,.737-.111.668-.659a5.5,5.5,0,0,1,0-1.1,2.233,2.233,0,0,0-1.254-2.317,3.418,3.418,0,0,1,1.679.3,1.53,1.53,0,0,1,.735,1.241c-.182.146-.114.351-.115.533-.007,1.385-.007,2.771-.009,4.156l.012.037h-1.057Z" transform="translate(-174.781 -315.319)" fill="#ff4d1b"/>
          <path id="Tracé_9252" data-name="Tracé 9252" d="M391.046,377.037H392.1c0,4.919,0,9.837-.016,14.756,0,.376.349.655.2,1.039a4.473,4.473,0,0,1-1.344,1.128l-1.05-.008c.019-.048.025-.122.06-.139.988-.488,1.1-1.379,1.1-2.336Q391.044,384.257,391.046,377.037Z" transform="translate(-367.211 -368.972)" fill="#cce4fb"/>
          <path id="Tracé_9253" data-name="Tracé 9253" d="M224.61,303.081a6.793,6.793,0,0,0,0-1.352c.009-.312.006-.624.029-.935a.875.875,0,0,1,.829-.843.889.889,0,0,1,.937.793c.038.326.025.658.035.987q0,.678,0,1.356l-.1.839c-.594.668-1.067.663-1.65-.017Z" transform="translate(-219.217 -299.95)" fill="#50616b"/>
          <path id="Tracé_9254" data-name="Tracé 9254" d="M345.74,301.738a6.8,6.8,0,0,0,0,1.352l-.075.828c-.614.683-1.055.688-1.65.017l-.1-.839q0-.678,0-1.356c.007-.295.005-.59.024-.883a.9.9,0,0,1,.895-.9.878.878,0,0,1,.885.9C345.732,301.148,345.733,301.443,345.74,301.738Z" transform="translate(-326.039 -299.958)" fill="#50616b"/>
          <path id="Tracé_9255" data-name="Tracé 9255" d="M389.28,529.143a4.472,4.472,0,0,0,1.344-1.128c0,.346.015.692,0,1.036a1.835,1.835,0,0,1-1.966,1.873c-.207,0-.414-.006-.622-.01.22-.227.552-.273.777-.506A1.494,1.494,0,0,0,389.28,529.143Z" transform="translate(-365.547 -504.153)" fill="#88cbfb"/>
          <path id="Tracé_9256" data-name="Tracé 9256" d="M410.875,336.565c0-1.385,0-2.771.009-4.156,0-.182-.067-.387.115-.533.125,1.135.025,2.273.055,3.41.009.328.006.657,0,.985C411.05,336.4,411.1,336.569,410.875,336.565Z" transform="translate(-385.994 -328.536)" fill="#fe3954"/>
          <path id="Tracé_9257" data-name="Tracé 9257" d="M343.458,419.2q.005-5.116.011-10.232c.211.1.145.3.146.458q.005,4.662,0,9.324C343.615,418.916,343.678,419.113,343.458,419.2Z" transform="translate(-325.633 -397.565)" fill="#f4fefe"/>
          <path id="Tracé_9258" data-name="Tracé 9258" d="M323.521,433.122c.107-.1.257-.368.283.026.032.485.008.974.009,1.461q.009,3.027.02,6.054c-.257-.127-.154-.366-.154-.556-.007-2.139,0-4.278-.008-6.417C323.671,433.494,323.752,433.263,323.521,433.122Z" transform="translate(-307.782 -419.025)" fill="#f4fefe"/>
          <path id="Tracé_9259" data-name="Tracé 9259" d="M213.812,329.878l.075.828c-.258,0-.516.013-.775.014-.282,0-.574-.091-.566-.4s.278-.445.593-.44C213.364,329.888,213.588,329.88,213.812,329.878Z" transform="translate(-208.419 -326.747)" fill="#e43149"/>
          <path id="Tracé_9260" data-name="Tracé 9260" d="M241.134,330.745l.1-.839c.275,0,.552-.011.826.008a.411.411,0,0,1,.005.822C241.754,330.753,241.444,330.743,241.134,330.745Z" transform="translate(-234.015 -326.769)" fill="#e82e46"/>
          <path id="Tracé_9261" data-name="Tracé 9261" d="M333.349,329.925l.1.839c-.293,0-.586,0-.878,0a.407.407,0,0,1-.456-.392c-.013-.293.181-.43.461-.438C332.833,329.921,333.091,329.926,333.349,329.925Z" transform="translate(-315.475 -326.788)" fill="#e82e46"/>
          <path id="Tracé_9262" data-name="Tracé 9262" d="M360.644,330.7l.075-.827c.24,0,.48,0,.72.008.305.006.49.153.49.468s-.231.353-.463.361C361.193,330.725,360.918,330.709,360.644,330.7Z" transform="translate(-341.021 -326.746)" fill="#e33148"/>
        </g>
      </g>
    </g>
    <path id="Tracé_9263" data-name="Tracé 9263" d="M196.967,376.672q-4.045.006-8.089.012-7.49,0-14.979,0c-.191,0-.382.012-.573.018q0,7.468,0,14.936c0,.139,0,.279,0,.418,0,.045.021.173-.088.057-.037-.04,0-.14-.111-.135v.521c.222,0,.275.2.36.336a1.683,1.683,0,0,0,1.5.793q10.411.01,20.821,0c.019-.048.025-.122.06-.139.988-.488,1.1-1.379,1.1-2.336q-.008-7.22-.006-14.441Z" transform="translate(-0.026 -68.695)" fill="#e8f3fd"/>
  </g>
</svg>
