<svg xmlns="http://www.w3.org/2000/svg" width="29.413" height="29.411" viewBox="0 0 29.413 29.411"><defs><style>.a{fill:#fff;fill-rule:evenodd;}</style></defs><path class="a" d="M15.158,2.2A12.918,12.918,0,1,0,28.074,15.12,12.934,12.934,0,0,0,15.158,2.2m0,27.623A14.705,14.705,0,1,1,29.861,15.12,14.726,14.726,0,0,1,15.156,29.825" transform="translate(-0.449 -0.414)"/><path class="a" d="M22.432,37.7a.894.894,0,0,1-.889-.816c-.236-2.667,1.362-8.308,4.4-11.079,2.481-2.26,6.8-3.589,11.252-3.509a.894.894,0,0,1-.018,1.788h-.02C33.133,24,29.3,25.159,27.148,27.123c-2.508,2.287-4.026,7.323-3.825,9.6a.894.894,0,0,1-.812.97c-.027,0-.054,0-.08,0" transform="translate(-8.964 -9.254)"/><path class="a" d="M1.936,16.974c-.141,0-.283,0-.425,0a.894.894,0,0,1-.875-.912.876.876,0,0,1,.913-.875c4.01.079,7.75-1.121,9.774-3.146,1.694-1.694,3.647-6.017,3.854-9.757a.894.894,0,1,1,1.785.1c-.237,4.283-2.456,9-4.375,10.922C10.3,15.583,6.252,16.974,1.936,16.974" transform="translate(-0.524 -0.827)"/></svg>