<svg xmlns="http://www.w3.org/2000/svg" width="112.447" height="63.32" viewBox="0 0 112.447 63.32"><defs><style>.a{fill:#6e7faa;}</style></defs><g transform="translate(3.359 -11.892)"><path class="a" d="M23.408,59.438A12.041,12.041,0,1,0,11.366,47.4,12.054,12.054,0,0,0,23.408,59.438Zm0-19.016A6.974,6.974,0,1,1,16.433,47.4,6.982,6.982,0,0,1,23.408,40.422Z" transform="translate(-2.679 -10.679)"/><path class="a" d="M11.476,79.719A12.153,12.153,0,0,1,23.467,67.435H34.8q.509,0,1.008.044a3.316,3.316,0,0,0,.7-6.592c-.563-.055-1.133-.084-1.71-.084H23.467A18.716,18.716,0,0,0,5,79.719v1.364h6.476V79.719Z" transform="translate(-8.359 -5.871)"/><path class="a" d="M30.87,84.212h5.86V75.846C36.73,68,42.232,61.624,49,61.624H60.307c6.762,0,12.266,6.38,12.266,14.223v8.366h5.86V75.846a22,22,0,0,0-8.217-17.579,16.3,16.3,0,0,0-9.907-3.44H49c-5.6,0-10.8,2.955-14.273,8.107a22.979,22.979,0,0,0-3.851,12.911v8.366Z" transform="translate(-1 -9)"/><path class="a" d="M85.235,60.8H74.277c-.307,0-.611.01-.914.027a3.272,3.272,0,0,0-3.011,3.324,3.426,3.426,0,0,0,.981,2.415,2.981,2.981,0,0,0,2.306.888c.211-.014.424-.02.638-.02H85.235c6.392,0,11.592,5.51,11.592,12.283v1.364h6.261V79.718C103.088,69.287,95.079,60.8,85.235,60.8Z" transform="translate(6 -5.87)"/><path class="a" d="M78.272,59.438A12.041,12.041,0,1,0,66.23,47.4,12.055,12.055,0,0,0,78.272,59.438Zm0-19.016A6.974,6.974,0,1,1,71.3,47.4,6.982,6.982,0,0,1,78.272,40.422Z" transform="translate(8 -10.679)"/><path class="a" d="M50.7,54.619A14.916,14.916,0,1,0,35.909,39.7,14.872,14.872,0,0,0,50.7,54.619Zm0-24.842A9.926,9.926,0,1,1,40.857,39.7,9.9,9.9,0,0,1,50.7,29.778Z" transform="translate(3.001 -12.897)"/></g></svg>