<svg xmlns="http://www.w3.org/2000/svg" xmlns:xlink="http://www.w3.org/1999/xlink" width="428" height="428" viewBox="0 0 428 428">
  <defs>
    <linearGradient id="linear-gradient" x1="0.382" y1="-0.143" x2="0.55" y2="0.881" gradientUnits="objectBoundingBox">
      <stop offset="0" stop-color="#fff"/>
      <stop offset="0.085" stop-color="#f5f5f5"/>
      <stop offset="0.229" stop-color="#dadada"/>
      <stop offset="0.413" stop-color="#afafaf"/>
      <stop offset="0.631" stop-color="#747474"/>
      <stop offset="0.876" stop-color="#292929"/>
      <stop offset="1"/>
    </linearGradient>
    <linearGradient id="linear-gradient-2" x1="0" y1="0.5" x2="1" y2="0.5" xlink:href="#linear-gradient"/>
    <linearGradient id="linear-gradient-5" x1="-79.303" y1="122.014" x2="-78.841" y2="122.014" gradientUnits="objectBoundingBox">
      <stop offset="0" stop-color="#fff"/>
      <stop offset="0.256" stop-color="#c1c1c1"/>
      <stop offset="0.845" stop-color="#292929"/>
      <stop offset="1"/>
    </linearGradient>
    <clipPath id="clip-no_club">
      <rect width="428" height="428"/>
    </clipPath>
  </defs>
  <g id="no_club" clip-path="url(#clip-no_club)">
    <g id="Groupe_2821" data-name="Groupe 2821" transform="translate(-55 -107.792)">
      <g id="Groupe_2716" data-name="Groupe 2716" transform="translate(75.592 423.285)">
        <path id="Tracé_7613" data-name="Tracé 7613" d="M553.7,603.616c-42.168-12.424-82.164-10.01-118.14-3.361-34.608,6.4-65.474,16.761-90.917,21.593-44.721,8.5-82.306,18.474-131.963-14.664-14.871-9.938-7.279-26.6,22.957-40.488,31.81-14.7,88.677-26.386,170.841-24.146C658.373,549.374,633.422,627.165,553.7,603.616Z" transform="translate(-205.308 -542.274)" fill="rgba(189,197,234,0.4)"/>
        <path id="Tracé_7614" data-name="Tracé 7614" d="M435.564,590.412c-34.608,6.4-65.474,16.762-90.917,21.593-44.721,8.5-82.306,18.474-131.963-14.664-14.871-9.938-7.279-26.6,22.957-40.488,20.856-6.021,46.473-9.554,74.152-9.554C373.484,547.3,426.221,566.02,435.564,590.412Z" transform="translate(-205.308 -532.431)" opacity="0.5" fill="url(#linear-gradient)" style="mix-blend-mode: overlay;isolation: isolate"/>
      </g>
      <g id="Groupe_2717" data-name="Groupe 2717" transform="translate(55 132.792)">
        <path id="Tracé_7615" data-name="Tracé 7615" d="M472.888,687.934a44.011,44.011,0,0,0-13.578-5.95,59.255,59.255,0,0,0-14.522-1.888c-15.853-.316-33.91,4.234-52.982,9.764-5.494,1.574-11.024,3.219-16.658,4.9-27.084,8.051-55.536,15.959-82.2,13.72-16.028-1.332-31.425-6.3-45.529-17.182-15.817-12.11-29.954-31.6-41.5-61.521-.281-.734-.559-1.471-.769-2.2-12.669-34.715-6.474-67.436,9.027-93.331,29.99-50.148,94.8-74.854,125.981-39.334,37.058,42.168,77.442,38.319,98.58,19.211a45.521,45.521,0,0,0,12.947-19.492c10.708-32.614,63.2-67.643,106.663-41.257q2.308,1.416,4.2,2.834c29.744,22.327-9.2,51.476.734,97.284,10.323,47.769,46.228,17.954,56.027,61.731C631.586,670.3,528.74,724.957,472.888,687.934Z" transform="translate(-198.348 -444.094)" fill="rgba(189,197,234,0.4)"/>
        <path id="Tracé_7616" data-name="Tracé 7616" d="M322.6,679.918a44.015,44.015,0,0,0-13.578-5.95,59.247,59.247,0,0,0-14.522-1.888,149.8,149.8,0,0,1-19.247-66.7c-.107-2.414-.175-4.864-.175-7.314A150.457,150.457,0,0,1,412.253,448.186c29.744,22.327-9.2,51.476.734,97.284,10.323,47.769,46.228,17.954,56.027,61.731C481.3,662.281,378.449,716.941,322.6,679.918Z" transform="translate(-48.057 -436.078)" opacity="0.5" fill="url(#linear-gradient-2)" style="mix-blend-mode: overlay;isolation: isolate"/>
        <path id="Tracé_7617" data-name="Tracé 7617" d="M428.257,491.562A142.2,142.2,0,0,1,203.7,511.684c29.99-50.148,94.8-74.854,125.981-39.334C366.736,514.519,407.12,510.669,428.257,491.562Z" transform="translate(-187.87 -421.539)" opacity="0.5" fill="url(#linear-gradient-2)" style="mix-blend-mode: overlay;isolation: isolate"/>
        <path id="Tracé_7618" data-name="Tracé 7618" d="M370.647,591.225c-27.084,8.051-55.536,15.959-82.2,13.72-16.028-1.331-31.425-6.3-45.529-17.182-15.817-12.11-29.954-31.6-41.5-61.521-.281-.734-.559-1.471-.769-2.2a100.692,100.692,0,0,1,68.9-27.087,82.972,82.972,0,0,1,8.4.388,101.053,101.053,0,0,1,70.548,37.408c2.1,2.624,4.1,5.355,5.95,8.19A100.259,100.259,0,0,1,370.647,591.225Z" transform="translate(-193.847 -340.561)" opacity="0.5" fill="url(#linear-gradient-2)" style="mix-blend-mode: overlay;isolation: isolate"/>
      </g>
    </g>
    <g id="Groupe_2879" data-name="Groupe 2879" transform="translate(-33.416 -19.619)">
      <g id="Groupe_2873" data-name="Groupe 2873" transform="translate(44.944 95.232)">
        <g id="Groupe_2870" data-name="Groupe 2870" transform="translate(0 44.367)">
          <path id="Tracé_7744" data-name="Tracé 7744" d="M80.165,174.756a2.506,2.506,0,0,0,1.986-2.921l-.6-3.262a2.454,2.454,0,0,0-2.839-2l-.046.008-2.774.488a11.048,11.048,0,0,0-1.348-2.1l1.539-2.249.074-.074a2.516,2.516,0,0,0-.595-3.484l-2.737-1.874a2.546,2.546,0,0,0-3.484.636l-1.612,2.288a12.58,12.58,0,0,0-2.435-.488l-.488-2.811a2.517,2.517,0,0,0-2.923-1.986l-3.222.6a2.447,2.447,0,0,0-2.039,2.8c0,.03.01.06.016.09l.486,2.774a12.459,12.459,0,0,0-2.1,1.348L52.7,160.928a2.479,2.479,0,0,0-3.448.635v0l-1.874,2.7a2.482,2.482,0,0,0,.6,3.458l.039.027,2.285,1.612a17.675,17.675,0,0,0-.521,2.436L47,172.286a2.542,2.542,0,0,0-2.024,2.923l.6,3.26a2.474,2.474,0,0,0,2.88,1.987h0l2.774-.486a19.986,19.986,0,0,0,1.351,2.1l-1.575,2.285c0,.037,0,.037-.037.074a2.459,2.459,0,0,0,.637,3.412l2.735,1.911a2.478,2.478,0,0,0,3.446-.634l0,0,1.612-2.323a13.529,13.529,0,0,0,2.436.561l.486,2.737a2.516,2.516,0,0,0,2.923,2.024l3.263-.563a2.507,2.507,0,0,0,1.986-2.923l-.488-2.772a11.094,11.094,0,0,0,2.1-1.351l2.325,1.612a2.529,2.529,0,0,0,3.484-.638l1.874-2.735a2.528,2.528,0,0,0-.636-3.486l-2.337-1.577a13.534,13.534,0,0,0,.563-2.436Zm-14.73,9.034a10.345,10.345,0,0,1-10.457-4.349,10.226,10.226,0,0,1-1.687-4.047,10.454,10.454,0,1,1,12.172,8.391l-.028.005Z" transform="translate(-44.944 -154.89)" fill="#181819"/>
          <path id="Tracé_7745" data-name="Tracé 7745" d="M76.69,174.507a10.454,10.454,0,1,0-8.432,12.107A10.475,10.475,0,0,0,76.69,174.507Zm-9.107,8.359a6.593,6.593,0,0,1-7.459-4.313,9.893,9.893,0,0,1-.262-1.011,6.65,6.65,0,0,1,5.324-7.752l.036-.007a8.076,8.076,0,0,1,1.311-.112,6.74,6.74,0,0,1,6.408,5.51,6.628,6.628,0,0,1-5.359,7.685Z" transform="translate(-47.765 -157.712)" fill="#f2cf32"/>
        </g>
        <g id="Groupe_2871" data-name="Groupe 2871" transform="translate(50.31 63.002)">
          <path id="Tracé_7746" data-name="Tracé 7746" d="M154.874,203.832a3.008,3.008,0,0,0,2.4-3.484l-.712-3.936a2.952,2.952,0,0,0-3.413-2.406l-.034.006-2.886.526-.446.074a14.573,14.573,0,0,0-1.649-2.51l1.949-2.811a3,3,0,0,0-.75-4.165l-3.26-2.248a3.04,3.04,0,0,0-4.2.75l-1.911,2.736a17.768,17.768,0,0,0-2.961-.6l-.595-3.335a2.979,2.979,0,0,0-3.434-2.44l-.016,0-3.9.712a3.007,3.007,0,0,0-2.435,3.485l.6,3.337a18.279,18.279,0,0,0-2.549,1.61l-2.774-1.909a3,3,0,0,0-4.16.748l-2.248,3.262a2.95,2.95,0,0,0-.526,2.061,2.82,2.82,0,0,0,1.274,2.1l.338.223,2.435,1.725-.223.788a12.715,12.715,0,0,0-.411,2.136l-3.337.595a2.99,2.99,0,0,0-2.4,3.482v0l.712,3.9a2.975,2.975,0,0,0,3.422,2.447l.02,0,3.335-.595a19.175,19.175,0,0,0,1.612,2.51l-1.911,2.774a2.985,2.985,0,0,0,.744,4.156l.006,0,3.26,2.288a3,3,0,0,0,4.16-.75l1.949-2.774a15.056,15.056,0,0,0,2.923.638l.6,3.335a3.008,3.008,0,0,0,3.51,2.4l.012,0,3.861-.675a3.025,3.025,0,0,0,2.439-3.515v-.008l-.6-3.3a16.182,16.182,0,0,0,2.512-1.65l2.774,1.949a3.049,3.049,0,0,0,4.2-.75l2.285-3.3a3,3,0,0,0-.75-4.159l-2.809-1.911a16.37,16.37,0,0,0,.636-2.923ZM137.183,214.7a12.545,12.545,0,0,1-14.576-10.116v0a11.912,11.912,0,0,1-.112-3.634,12.534,12.534,0,0,1,24.474-2.175,8.9,8.9,0,0,1,.337,1.351A12.545,12.545,0,0,1,137.191,214.7Z" transform="translate(-112.592 -179.947)" fill="#181819"/>
          <path id="Tracé_7747" data-name="Tracé 7747" d="M150.683,203.519a8.9,8.9,0,0,0-.337-1.351,12.534,12.534,0,0,0-24.474,2.175,11.911,11.911,0,0,0,.112,3.634,12.549,12.549,0,0,0,24.7-4.462ZM139.739,213.6a7.983,7.983,0,0,1-9.258-6.41,7.254,7.254,0,0,1-.074-.9,7.958,7.958,0,0,1,15.779-1.949,2.278,2.278,0,0,1,.037.71,7.891,7.891,0,0,1-6.484,8.547Z" transform="translate(-115.973 -183.342)" fill="#f2cf32"/>
        </g>
        <g id="Groupe_2872" data-name="Groupe 2872" transform="translate(27.903)">
          <path id="Tracé_7748" data-name="Tracé 7748" d="M135.248,125.008a3.767,3.767,0,0,0,3.036-4.349l-.9-4.873a3.719,3.719,0,0,0-4.316-3l-.03.006-4.16.75a10.846,10.846,0,0,0-.825-1.423,19.814,19.814,0,0,0-1.2-1.725l2.436-3.486a3.819,3.819,0,0,0-.937-5.247l-4.085-2.774a3.76,3.76,0,0,0-5.206.937l-2.437,3.449a18.851,18.851,0,0,0-3.634-.788l-.788-4.16a3.735,3.735,0,0,0-4.31-3.036l-4.873.9a3.74,3.74,0,0,0-3.042,4.327l0,.022.75,4.16a22.467,22.467,0,0,0-3.148,1.986l-3.484-2.36a3.724,3.724,0,0,0-5.174.937L86.115,109.3a3.7,3.7,0,0,0,.874,5.162l.063.044,3.449,2.437a19.6,19.6,0,0,0-.79,3.636l-4.16.75a3.793,3.793,0,0,0-3.036,4.347l.9,4.908a3.746,3.746,0,0,0,4.347,3l4.16-.748a25.073,25.073,0,0,0,1.986,3.148l-2.36,3.447a3.7,3.7,0,0,0,.86,5.157l.077.054,4.048,2.847a3.764,3.764,0,0,0,5.206-.937l2.4-3.484a20.136,20.136,0,0,0,3.672.825l.75,4.122a3.7,3.7,0,0,0,4.248,3.054l.1-.018,2.7-.486,2.173-.376a3.756,3.756,0,0,0,3-4.384l-.75-4.122a19.03,19.03,0,0,0,3.148-2.024l3.486,2.4a3.773,3.773,0,0,0,5.206-.937l2.848-4.085a3.82,3.82,0,0,0-.937-5.247l-3.486-2.363a19.825,19.825,0,0,0,.788-3.674Zm-22.074,13.6a17.3,17.3,0,0,1-3.11.264,15.68,15.68,0,1,1,13.005-24.924,14.908,14.908,0,0,1,2.774,6.446,15.712,15.712,0,0,1-12.668,18.213Z" transform="translate(-82.464 -95.232)" fill="#181819"/>
          <path id="Tracé_7749" data-name="Tracé 7749" d="M130.061,124.627a14.908,14.908,0,0,0-2.774-6.446,15.686,15.686,0,1,0-13,24.924,17.3,17.3,0,0,0,3.11-.264A15.711,15.711,0,0,0,130.061,124.627Zm-13.68,12.593a8.713,8.713,0,0,1-2.4.112,9.966,9.966,0,1,1,8.471-16.078,9.526,9.526,0,0,1,1.986,4.421,9.972,9.972,0,0,1-8.058,11.544Z" transform="translate(-86.683 -99.462)" fill="#f2cf32"/>
        </g>
        <path id="Tracé_7750" data-name="Tracé 7750" d="M108.393,199.981a2.814,2.814,0,0,1-1.274-2.1c.486.785,1.049,1.573,1.61,2.323Z" transform="translate(-60.879 -121.541)" opacity="0.7" fill="url(#linear-gradient-5)" style="isolation: isolate"/>
      </g>
      <g id="Groupe_2876" data-name="Groupe 2876" transform="translate(369.572 179.317)">
        <g id="Groupe_2874" data-name="Groupe 2874" transform="translate(45.522 98.539)">
          <path id="Tracé_7751" data-name="Tracé 7751" d="M581.541,492.676a9.306,9.306,0,0,1,1.147,4.193c.046,2.385,10.587.4,10.587.4a49.8,49.8,0,0,0-2.4-5.515,17.746,17.746,0,0,0-2.826-4.29Z" transform="translate(-552.625 -378.387)" fill="#b5805d"/>
          <path id="Tracé_7752" data-name="Tracé 7752" d="M590.012,497.3c1.806,2.028,2.471,4.128,1.945,6.3-7.534,1.673-14.833,3.48-21.95,4.615-.565-2.709,5.875-7.809,9.662-9.742A12.059,12.059,0,0,0,590.012,497.3Z" transform="translate(-549.66 -380.908)" fill="#1b2c7b"/>
          <path id="Tracé_7753" data-name="Tracé 7753" d="M565.877,340.8c4.016,28.684-3.51,41.219-1.23,52.165s15.1,58.777,15.1,58.777c-1.041,2.088-5.907,3.867-8.766,3.308-11.1-25.608-24.363-55.234-26.027-64.412a166.742,166.742,0,0,1-1.1-47.42Z" transform="translate(-542.66 -340.795)"/>
        </g>
        <g id="Groupe_2875" data-name="Groupe 2875" transform="translate(21.182 100.756)">
          <path id="Tracé_7754" data-name="Tracé 7754" d="M528.053,497.273a9.3,9.3,0,0,1,.3,4.339c-.424,2.346,10.3,2.466,10.3,2.466a49.809,49.809,0,0,0-1.264-5.875,17.817,17.817,0,0,0-1.928-4.76Z" transform="translate(-514.576 -382.136)" fill="#b5805d"/>
          <path id="Tracé_7755" data-name="Tracé 7755" d="M535.081,504.08c1.374,2.342,1.612,4.532.673,6.559-7.719.164-15.23.507-22.43.223-.023-2.767,7.295-6.506,11.385-7.66A12.066,12.066,0,0,0,535.081,504.08Z" transform="translate(-510.801 -384.637)" fill="#1b2c7b"/>
          <path id="Tracé_7756" data-name="Tracé 7756" d="M540.22,345.723c-1.685,28.914-11.519,39.731-11.428,50.912s3.281,60.6,3.281,60.6c-1.429,1.845-6.549,2.633-9.244,1.527-5.868-27.29-13.061-58.939-12.895-68.264a166.769,166.769,0,0,1,8.21-46.717Z" transform="translate(-509.931 -343.776)"/>
        </g>
        <path id="Tracé_7757" data-name="Tracé 7757" d="M550.955,254.617c-1.777-3.007-2.13-6.4-2.283-10.239h-8.164a34.961,34.961,0,0,1-1.112,11.388C540.242,257.367,550.151,256.735,550.955,254.617Z" transform="translate(-496.301 -217.544)" fill="#b5805d"/>
        <path id="Tracé_7758" data-name="Tracé 7758" d="M549.02,238.193c-5.19,2.332-8.883,6.545-13.6,4.5-6.659-1.77-6.809-16.78-4.529-23.473l18.105-2.114Z" transform="translate(-493.781 -210.555)" fill="#b5805d"/>
        <path id="Tracé_7759" data-name="Tracé 7759" d="M547.8,235.706l-6.6,5.4-6.888-7.726,4.667-4.789-2.136-2.892-2.529,3.162-1.662-1.914,1.288-5.358c-4.646.549-15.847-1.888-15.847-1.888s5.569-8.76,6.786-11.4c4.648,1.908,11.676,1.145,11.676,1.145l12.534,6.04Z" transform="translate(-490.84 -208.296)"/>
        <path id="Tracé_7760" data-name="Tracé 7760" d="M522.037,236.138s1.806-4.874,4.743-5.693c3.131-.872,6.916,4.712,6.4,6.848s-4.664.669-4.65,1.714,1.774.952,1.484,1.966-4.71.123-4.71.123Z" transform="translate(-491.852 -213.949)" fill="#b5805d"/>
        <path id="Tracé_7761" data-name="Tracé 7761" d="M548.01,253.042c-7.288-3.884-26.382-3.133-37,1.822l-19.764,3.4,26.523-19.031-5.193-4.557c-6.72,10.027-38.965,10.024-29.355,33.656l26,4.083c-1.548,19.743-2.9,37.874-.551,49.688,8.318,4.764,37.936,2.743,43.455-2.9C549.94,289.972,556.716,259.761,548.01,253.042Z" transform="translate(-481.45 -215.057)" fill="#fff"/>
      </g>
      <path id="Tracé_7762" data-name="Tracé 7762" d="M546.777,261.154c-7.288-3.547-26.382-2.861-37,1.667l-19.764,3.1,26.527-17.382-5.192-4.165c-6.722,9.159-38.97,9.155-29.355,30.745l25.993,3.73c-1.548,18.037-2.9,34.6-.551,45.393,8.32,4.353,37.937,2.506,43.457-2.653C548.707,294.894,555.48,267.294,546.777,261.154Z" transform="translate(-111.562 -38.226)" fill="#c7c7c9" opacity="0.29" style="isolation: isolate"/>
      <path id="Tracé_7763" data-name="Tracé 7763" d="M548.01,253.042c-7.288-3.884-26.382-3.133-37,1.822l-19.764,3.4,26.523-19.031-5.193-4.557c-6.72,10.027-38.965,10.024-29.355,33.656l26,4.083c-1.548,19.743-2.9,37.874-.551,49.688,8.318,4.764,37.936,2.743,43.455-2.9C549.94,289.972,556.716,259.761,548.01,253.042Z" transform="translate(-111.877 -35.74)" fill="#60b540"/>
      <path id="Tracé_7764" data-name="Tracé 7764" d="M218.539,178l-5.578,6.024,135.7,215.164,5.413-5.863-1.888-6.619Z" transform="translate(-43.063 -21.214)" fill="#18255b"/>
      <path id="Tracé_7765" data-name="Tracé 7765" d="M337.867,403.68H257.5c-8.951,0-17.489-7.912-19.068-17.676L208.062,198.171c-1.579-9.762,4.4-17.675,13.349-17.675h80.365c8.953,0,17.489,7.914,19.068,17.675L351.215,386C352.794,395.768,346.816,403.68,337.867,403.68Z" transform="translate(-41.743 -21.853)" fill="#414142"/>
      <path id="Tracé_7766" data-name="Tracé 7766" d="M344.682,396.283H264.318c-8.953,0-17.489-7.914-19.068-17.675L214.879,190.775c-1.579-9.761,4.4-17.673,13.349-17.673h80.365c8.953,0,17.489,7.912,19.068,17.673l30.371,187.833C359.611,388.37,353.633,396.283,344.682,396.283Z" transform="translate(-43.49 -19.958)" fill="#06060a"/>
      <path id="Tracé_7767" data-name="Tracé 7767" d="M308.944,181.45h-9.809A1.164,1.164,0,0,0,298,182.638a1.19,1.19,0,0,0,.038.27l.437,2.706c.785,4.85-2.186,8.781-6.632,8.781h-36.2c-4.449,0-8.689-3.931-9.472-8.781l-.439-2.706a1.711,1.711,0,0,0-1.573-1.458h-9.8c-7.256,0-12.1,6.414-10.822,14.327l29.45,182.112c1.278,7.91,8.2,14.324,15.453,14.324h74.593c7.256,0,12.1-6.414,10.822-14.324L324.4,195.777C323.115,187.864,316.2,181.45,308.944,181.45Z" transform="translate(-45.72 -22.098)" fill="#fff"/>
      <path id="Tracé_7768" data-name="Tracé 7768" d="M308.944,181.45h-9.809A1.164,1.164,0,0,0,298,182.638a1.19,1.19,0,0,0,.038.27l.437,2.706c.785,4.85-2.186,8.781-6.632,8.781h-36.2c-4.449,0-8.689-3.931-9.472-8.781l-.439-2.706a1.711,1.711,0,0,0-1.573-1.458h-9.8c-7.256,0-12.1,6.414-10.822,14.327l29.45,182.112c1.278,7.91,8.2,14.324,15.453,14.324h74.593c7.256,0,12.1-6.414,10.822-14.324L324.4,195.777C323.115,187.864,316.2,181.45,308.944,181.45Z" transform="translate(-45.72 -22.098)" fill="#fff"/>
      <path id="Tracé_7769" data-name="Tracé 7769" d="M348.33,440.108H288.34c-2.77,0-5.409-2.447-5.9-5.467l-1.184-7.322c-.489-3.019,1.361-5.467,4.128-5.467h59.988c2.77,0,5.408,2.448,5.9,5.467l1.185,7.322C352.947,437.661,351.1,440.108,348.33,440.108Z" transform="translate(-60.548 -83.713)" fill="#757475"/>
      <g id="Groupe_2878" data-name="Groupe 2878" transform="translate(219.94 201.502)">
        <g id="Groupe_2877" data-name="Groupe 2877" transform="translate(0 0)">
          <path id="Tracé_7770" data-name="Tracé 7770" d="M280.25,258.183a20.056,20.056,0,1,0,20.055-20.057h0a20.123,20.123,0,0,0-20.055,20.057" transform="translate(-280.25 -238.126)" fill="#ff6c6c"/>
          <path id="Tracé_7771" data-name="Tracé 7771" d="M327.273,258.183a20.125,20.125,0,0,1-20.057,20.057V238.126A20.126,20.126,0,0,1,327.273,258.183Z" transform="translate(-287.161 -238.126)" fill="#f93d3d"/>
          <path id="Tracé_7772" data-name="Tracé 7772" d="M293.807,268.31l6.651-6.653-6.651-6.649,3.32-3.322,6.649,6.651,6.653-6.651,3.321,3.322-6.651,6.649,6.651,6.651-3.321,3.321-6.653-6.649-6.649,6.651Z" transform="translate(-283.725 -241.601)" fill="#e6e6ff"/>
          <path id="Tracé_7773" data-name="Tracé 7773" d="M313.867,271.63l3.321-3.32-6.651-6.653,6.651-6.649-3.321-3.32-6.651,6.647v6.643Z" transform="translate(-287.161 -241.602)" fill="#c3c3e5"/>
        </g>
      </g>
    </g>
    <g id="Groupe_2884" data-name="Groupe 2884" transform="translate(-43.146 41.739)">
      <path id="Tracé_7808" data-name="Tracé 7808" d="M342.947,71.657,317.188,97.418a6.7,6.7,0,1,0,9.319,9.632c.044-.043.087-.085.13-.129l.026-.026,25.759-25.759Z" transform="translate(0 -22.251)" fill="#1b2c7b"/>
      <path id="Tracé_7809" data-name="Tracé 7809" d="M385.019.459,376.1,35.989l8.926,35.272a35.4,35.4,0,1,0,.309-70.8h-.311Z" transform="translate(-19.048 0)" fill="#1862bf"/>
      <path id="Tracé_7810" data-name="Tracé 7810" d="M347.924,10.815a35.4,35.4,0,0,0,25.044,60.446V.459A35.31,35.31,0,0,0,347.924,10.815Z" transform="translate(-6.999 0)" fill="#1b2c7b"/>
      <circle id="Ellipse_3" data-name="Ellipse 3" cx="26.012" cy="26.012" r="26.012" transform="translate(339.957 9.749)" fill="#fff"/>
    </g>
  </g>
</svg>
