<svg xmlns="http://www.w3.org/2000/svg" xmlns:xlink="http://www.w3.org/1999/xlink" width="428" height="428" viewBox="0 0 428 428">
  <defs>
    <linearGradient id="linear-gradient" x1="0.382" y1="-0.143" x2="0.55" y2="0.881" gradientUnits="objectBoundingBox">
      <stop offset="0" stop-color="#fff"/>
      <stop offset="0.085" stop-color="#f5f5f5"/>
      <stop offset="0.229" stop-color="#dadada"/>
      <stop offset="0.413" stop-color="#afafaf"/>
      <stop offset="0.631" stop-color="#747474"/>
      <stop offset="0.876" stop-color="#292929"/>
      <stop offset="1"/>
    </linearGradient>
    <linearGradient id="linear-gradient-2" x1="0" y1="0.5" x2="1" y2="0.5" xlink:href="#linear-gradient"/>
    <linearGradient id="linear-gradient-5" x1="-35.538" y1="21.775" x2="-35.435" y2="21.775" gradientUnits="objectBoundingBox">
      <stop offset="0" stop-color="#fff"/>
      <stop offset="1"/>
    </linearGradient>
    <clipPath id="clip-success">
      <rect width="428" height="428"/>
    </clipPath>
  </defs>
  <g id="success" clip-path="url(#clip-success)">
    <g id="Groupe_2821" data-name="Groupe 2821" transform="translate(-55 -107.792)">
      <g id="Groupe_2716" data-name="Groupe 2716" transform="translate(75.592 423.285)">
        <path id="Tracé_7613" data-name="Tracé 7613" d="M553.7,603.616c-42.168-12.424-82.164-10.01-118.14-3.361-34.608,6.4-65.474,16.761-90.917,21.593-44.721,8.5-82.306,18.474-131.963-14.664-14.871-9.938-7.279-26.6,22.957-40.488,31.81-14.7,88.677-26.386,170.841-24.146C658.373,549.374,633.422,627.165,553.7,603.616Z" transform="translate(-205.308 -542.274)" fill="rgba(189,197,234,0.4)"/>
        <path id="Tracé_7614" data-name="Tracé 7614" d="M435.564,590.412c-34.608,6.4-65.474,16.762-90.917,21.593-44.721,8.5-82.306,18.474-131.963-14.664-14.871-9.938-7.279-26.6,22.957-40.488,20.856-6.021,46.473-9.554,74.152-9.554C373.484,547.3,426.221,566.02,435.564,590.412Z" transform="translate(-205.308 -532.431)" opacity="0.5" fill="url(#linear-gradient)" style="mix-blend-mode: overlay;isolation: isolate"/>
      </g>
      <g id="Groupe_2717" data-name="Groupe 2717" transform="translate(55 132.792)">
        <path id="Tracé_7615" data-name="Tracé 7615" d="M472.888,687.934a44.011,44.011,0,0,0-13.578-5.95,59.255,59.255,0,0,0-14.522-1.888c-15.853-.316-33.91,4.234-52.982,9.764-5.494,1.574-11.024,3.219-16.658,4.9-27.084,8.051-55.536,15.959-82.2,13.72-16.028-1.332-31.425-6.3-45.529-17.182-15.817-12.11-29.954-31.6-41.5-61.521-.281-.734-.559-1.471-.769-2.2-12.669-34.715-6.474-67.436,9.027-93.331,29.99-50.148,94.8-74.854,125.981-39.334,37.058,42.168,77.442,38.319,98.58,19.211a45.521,45.521,0,0,0,12.947-19.492c10.708-32.614,63.2-67.643,106.663-41.257q2.308,1.416,4.2,2.834c29.744,22.327-9.2,51.476.734,97.284,10.323,47.769,46.228,17.954,56.027,61.731C631.586,670.3,528.74,724.957,472.888,687.934Z" transform="translate(-198.348 -444.094)" fill="rgba(189,197,234,0.4)"/>
        <path id="Tracé_7616" data-name="Tracé 7616" d="M322.6,679.918a44.015,44.015,0,0,0-13.578-5.95,59.247,59.247,0,0,0-14.522-1.888,149.8,149.8,0,0,1-19.247-66.7c-.107-2.414-.175-4.864-.175-7.314A150.457,150.457,0,0,1,412.253,448.186c29.744,22.327-9.2,51.476.734,97.284,10.323,47.769,46.228,17.954,56.027,61.731C481.3,662.281,378.449,716.941,322.6,679.918Z" transform="translate(-48.057 -436.078)" opacity="0.5" fill="url(#linear-gradient-2)" style="mix-blend-mode: overlay;isolation: isolate"/>
        <path id="Tracé_7617" data-name="Tracé 7617" d="M428.257,491.562A142.2,142.2,0,0,1,203.7,511.684c29.99-50.148,94.8-74.854,125.981-39.334C366.736,514.519,407.12,510.669,428.257,491.562Z" transform="translate(-187.87 -421.539)" opacity="0.5" fill="url(#linear-gradient-2)" style="mix-blend-mode: overlay;isolation: isolate"/>
        <path id="Tracé_7618" data-name="Tracé 7618" d="M370.647,591.225c-27.084,8.051-55.536,15.959-82.2,13.72-16.028-1.331-31.425-6.3-45.529-17.182-15.817-12.11-29.954-31.6-41.5-61.521-.281-.734-.559-1.471-.769-2.2a100.692,100.692,0,0,1,68.9-27.087,82.972,82.972,0,0,1,8.4.388,101.053,101.053,0,0,1,70.548,37.408c2.1,2.624,4.1,5.355,5.95,8.19A100.259,100.259,0,0,1,370.647,591.225Z" transform="translate(-193.847 -340.561)" opacity="0.5" fill="url(#linear-gradient-2)" style="mix-blend-mode: overlay;isolation: isolate"/>
      </g>
    </g>
    <g id="Groupe_2917" data-name="Groupe 2917" transform="translate(-129.291 -2.559)">
      <g id="Groupe_2902" data-name="Groupe 2902" transform="translate(218.689 40.628)" opacity="0.1">
        <path id="Tracé_7895" data-name="Tracé 7895" d="M614.8,150.475c8.09-1.443,15.583-2.925,19.51-8.978,5-7.739,7.773-13.918,9.16-18.9,1.7-6.3,1.227-10.581.12-13.422a10.509,10.509,0,0,0-2.223-3.54,9.334,9.334,0,0,0-5.786-2.8,9.591,9.591,0,0,0-2.184,0c.637-1.277,1.27-2.634,1.863-3.994a8.807,8.807,0,0,0,4.72-4.693c3.927-9.923-13.483-23.92-32.873-32.94-1.227-.533-2.455-1.07-3.646-1.6C582.643,50.752,558.3,47,554.134,57.547a9.161,9.161,0,0,0,.156,6.711c-.513,1.44-.948,2.879-1.386,4.24a9.809,9.809,0,0,0-7.573-3.787c-3.927,0-13.4,2.8-18.634,27.5-.2.99-.4,2.059-.6,3.129-1.307,7.04,2.9,13.505,7.537,20.3.117.162.237.329.356.533a2.9,2.9,0,0,1,.279.412,75.807,75.807,0,0,1,7.693,12.806c.317.781.633,1.523.87,2.263v.041a.98.98,0,0,0-.117.412,23.7,23.7,0,0,0-1.39,7.989,26.019,26.019,0,0,0,4.443,14.163,28.126,28.126,0,0,1-.2,9.757c-1.943,10.83-8.563,23.633-16.773,27.751-5.43-1.481-9.4-1.976-10.943-1.319-.357.167-.633.335-.714.578-1.07,2.678,11.34,10.456,27.635,17.417.913.37,1.827.74,2.7,1.111,15.07,6.174,27.6,9.141,28.749,6.751,5.356,1.893,13.163,2.139,16.969,2.059h.279c-1.823,21.161-2.7,40.679-.2,54.143l-.279.042a131.2,131.2,0,0,0-6.3,33.514c17.17-3.129,36.242-18.116,52.261-39.444a250.4,250.4,0,0,0,.673-42.534c-.4-6.587-1.07-13.505-2.024-20.708h-.076c-2.024-2.184-7.416-3.707-12.57-5.067a20.022,20.022,0,0,1,.036-5.105l3.292.041a51.035,51.035,0,0,0,9.953-12.228,32.85,32.85,0,0,0-1.033-10.664,34.933,34.933,0,0,0-11.7-7.576,11.928,11.928,0,0,0-8.326,3.42c-1.743,1.4-2.617,3.745-2.893,6.794a8.071,8.071,0,0,0,.433,1.562,46.69,46.69,0,0,0-2.376,7.244c-.12-7.7.357-17.167.437-26.72l-.994-.083a8.614,8.614,0,0,0,3.013-4.407ZM547.746,97.813c-.713,9.6-.789,18.116-2.773,26.6a102.61,102.61,0,0,0-6.663-10.7c-4.519-6.507-8.407-12.107-7.453-17.417.2-.907.357-1.814.553-2.638,3.61-17.537,9.717-23.878,14-23.962,2.455,0,4.6,2.263,5.63,5.683A139.845,139.845,0,0,0,547.746,97.813Zm19.71,110.466a20.217,20.217,0,0,1-.833-3.953,44.065,44.065,0,0,0,2.26,4.818c-.476-.286-.913-.577-1.425-.865Zm49.165-15.52a14.862,14.862,0,0,1-1.03,2.634,5.44,5.44,0,0,1-2.024-1.443c-.2-.7-.317-1.481-.473-2.263a12.525,12.525,0,0,0,3.528,1.074Zm-10.585-38.252c-4.123,18.569-6.7,35.985-4.48,45.085a.322.322,0,0,0,.08.208c-7.773,1.111-18.876,4.61-21.609,3.25-3.173-3.416-6.623-9.961-10.35-17.62a49.862,49.862,0,0,1,3.093-6.587c2.455-4.407,5.393-8.03,8.406-9.965a30.781,30.781,0,0,0,3.766-1.194,22.236,22.236,0,0,0,12.806-12.557.056.056,0,0,0,.079,0l0,0c.476-.249.948-.412,1.427-.62a49,49,0,0,1,4.877-1.73,9.185,9.185,0,0,0,2.46,1.769Zm8.447-9.47a22.5,22.5,0,0,0-4.956,1.319,72.148,72.148,0,0,0-8.326,2.059c7.453-12.765,18.676-21.494,28.866-39.323a7.715,7.715,0,0,1,6.187-.986.144.144,0,0,0,.12.042,4.431,4.431,0,0,1,1.543,1.028c2.9,3,3.017,11.321-4.993,25.239-.793,1.4-1.667,2.8-2.617,4.281-2.737,4.2-8.687,5.479-15.7,6.711Z" transform="translate(-357.108 -51.143)"/>
        <path id="Tracé_7896" data-name="Tracé 7896" d="M344.423,245.657a3.08,3.08,0,0,1-4.068-1.558c-.02-.043-.038-.087-.055-.131l-5.393-12.806c.04.741.04,1.4.04,2.1a31.949,31.949,0,0,1-.873,8.648c-1.386,4.16-20.776,10.951-31.366,14.038.04.454.04.948.08,1.4.12,2.222.24,4.448.356,6.628-13.2,4.735-27.282,12.395-42.385,23.346h-.04c-.558.412-1.07.781-1.627,1.194-1.15.824-2.3,1.647-3.45,2.347-.437-24.827-3.21-46.775,3.214-54.061l-.24-.74.317-.249,12.888-11.239a3.341,3.341,0,0,0-.677-.907c-7.256-6.957-6.183-16.222-1.266-20.419.99-.7,2.26-1.814,3.606-2.883l-6.9-21.2c-5.032,1.6-8.881-8.158-5.749-6.22,3.65,2.222.24-6.67,1.707-6.96,2.7-1.153,5.946.208,7.653,1.856l2.38,8.109a4.7,4.7,0,0,1-.476.495l.517-.249c4.756,7.493,9.236,15.028,12.806,22.069a15.374,15.374,0,0,0,9.993-1.111,11.2,11.2,0,0,1-1.19,10.377,2.779,2.779,0,0,1-1.31,1.481c-.2,1.772-.553,3.665-.948,5.558a30.435,30.435,0,0,1,1.188,7.248c-.08,2.139-4.007,6.092-9.12,10.335.076.412.2.865.317,1.278a58.655,58.655,0,0,1,14.748,3.618l22.679-2.838-1.15-37.138-1.823-4.407c-3.49-1.562-5.273-7.452-3.927-7.452a1.626,1.626,0,0,1,1.033.614l-18.319-43.8c-.476,10.042-23.632,25.072-33.982,22.522-10.31-2.554-16.89,17.745-15.9,11.28.714-4.569-8.246-18.486-13.557-26.267-2.223-3.254-3.807-5.434-3.807-5.434s9.2-15.606,19.862-13.343c10.706,2.267,17.646-3.25,24.9-12.72a22.049,22.049,0,0,0,3.053-5.067c1.983-4.693-.12-6.42,4.717-10.664a2.509,2.509,0,0,1,1.116-.9,2.7,2.7,0,0,1,1.266-.291,3.093,3.093,0,0,1,2.856,1.976l2.06,4.9L294.7,118.8l26.012,62.086c2.933-.287,5.233.335,6.423,2.678v8.48c.873,3.087,1.707,6.178,2.46,9.224.237.781.437,1.606.633,2.388l15.819,37.715A3.279,3.279,0,0,1,344.423,245.657Z" transform="translate(-230.347 -73.244)"/>
      </g>
      <g id="Groupe_2909" data-name="Groupe 2909" transform="translate(363.966 27.358)">
        <g id="Groupe_2903" data-name="Groupe 2903" transform="translate(32.402 104.55)">
          <path id="Tracé_7897" data-name="Tracé 7897" d="M611.971,269.511l-8.357,12.621-3.967,5.959h-2.366c-5.066.087-17.053-.351-21.187-4.471-4.9-5.523-8.526-17.882-13-31.557-.251-.786-.506-1.576-.757-2.366,0-.087,0-.087-.084-.174-.844-2.543-1.776-5.173-2.7-7.8l6.249-2.891c7.005,13.937,13,28.224,18.315,33.921C587.743,274.593,606.4,267.666,611.971,269.511Z" transform="translate(-553.563 -225.398)" fill="#fff"/>
          <path id="Tracé_7898" data-name="Tracé 7898" d="M555.384,230.828c-1.31-1.927-2.333-.34-5.408-4.089-2.038-3.236-.844-7.1-.426-11.374a.978.978,0,0,1,1.878.329l1.1,6.528c3.443,2.127,6.558,4.24,7.951,6.288Z" transform="translate(-548.821 -214.755)" fill="#fbd783"/>
        </g>
        <path id="Tracé_7899" data-name="Tracé 7899" d="M606.422,292.617s-2.449.614-6.332,5.959c-5.066.087-17.053-.352-21.187-4.471-4.9-5.523-8.527-17.882-13-31.557,2.449,7.278,9.793,27,18.913,29.1A60.174,60.174,0,0,0,606.422,292.617Z" transform="translate(-523.97 -131.334)" opacity="0.1" style="isolation: isolate"/>
        <g id="Groupe_2905" data-name="Groupe 2905">
          <path id="Tracé_7900" data-name="Tracé 7900" d="M615.006,87.245a9.589,9.589,0,0,0-7.944-2.792c.622-1.283,1.263-2.619,1.867-4,.16-.351.328-.725.488-1.073.614-1.345,1.227-2.755,1.8-4.206a2.189,2.189,0,0,0,.16-.351l.211-.563-.026-.011-2.518-.189-37.421-2.781-6.2-.465-2.136-1.9-2.562-2.275L532.208,41.276l-1.925-1.693c-.011.026-.056.068-.04.1-.142.386-.313.763-.422,1.13l-.056.155c-.681,1.674-1.263,3.3-1.809,4.912-.513,1.447-.957,2.864-1.395,4.255A9.691,9.691,0,0,0,519,46.317c-3.941.034-13.432,2.823-18.634,27.514-.229,1-.422,2.048-.626,3.118-1.283,7.074,2.933,13.532,7.566,20.3.211.351.43.676.633.967a75.594,75.594,0,0,1,7.668,12.81c.317.748.633,1.5.893,2.252l-.018.049a1.932,1.932,0,0,0-.12.4c-3.032,8.7-.684,16.268,3.061,22.149,2.147,11.057-6.045,32.033-16.973,37.52-6.605-1.81-11.07-2.191-11.645-.741-1.048,2.649,11.322,10.418,27.635,17.387,16.336,6.974,30.416,10.475,31.466,7.822.575-1.451-2.885-4.444-8.789-7.978-4.149-12.1,4.567-33.488,13.72-39.394,6.527-1.562,13.083-5.385,16.57-13.725a.052.052,0,0,0,.068-.03v0c4.949-2.434,10.666-3.491,16.249-4.489,8.355-1.506,16.187-2.891,20.234-9.145C623.066,99.833,617.935,90.287,615.006,87.245Zm-103.05,8.072c-4.512-6.488-8.388-12.1-7.424-17.407.167-.907.328-1.791.528-2.626,3.614-17.564,9.713-23.9,14-23.95,2.485-.03,4.618,2.248,5.64,5.676a139.281,139.281,0,0,0-3.3,22.42c-.7,9.613-.8,18.108-2.769,26.622A101.318,101.318,0,0,0,511.956,95.317Zm92.012,24.994c-2.922,4.463-9.451,5.638-17.06,6.968a91.517,91.517,0,0,0-12.046,2.762c7.453-12.769,18.65-21.483,28.866-39.341,3.024-1.7,6.085-1.738,7.867.106C614.751,94.085,614.645,103.793,603.968,120.311Z" transform="translate(-490.744 -32.763)"/>
          <path id="Tracé_7901" data-name="Tracé 7901" d="M560.851,36.688c3.042-7.689,23.721-6.151,46.188,3.433s38.216,23.586,35.173,31.275-23.72,6.151-46.188-3.433S557.809,44.376,560.851,36.688Z" transform="translate(-521.571 -29.319)" fill="#fbf3f2"/>
          <g id="Groupe_2904" data-name="Groupe 2904" transform="translate(36.483)">
            <path id="Tracé_7902" data-name="Tracé 7902" d="M609.664,37.443c-1.216-.552-2.435-1.1-3.636-1.613-20.8-8.871-45.15-12.609-49.325-2.064a9.111,9.111,0,0,0,.16,6.711c3.446,9.338,18.894,20.209,35.172,27.338.4.159.757.335,1.154.495,16.645,7.131,35.616,10.947,44.649,6.734a8.787,8.787,0,0,0,4.7-4.659C646.485,60.457,629.079,46.46,609.664,37.443Zm-9.131,28.428c-1.8-.669-3.626-1.406-5.5-2.191-.953-.412-1.881-.816-2.777-1.24-.906-.391-1.776-.805-2.622-1.206-19.939-9.583-29.95-20.772-28.516-25.364a.553.553,0,0,1,.043-.189c1.907-4.784,18.851-5.362,42.279,4.478.255.075.495.2.764.31,23.818,10.173,35.776,23.153,33.851,27.986a.594.594,0,0,1-.1.2C635.815,72.93,621.142,73.6,600.534,65.872Z" transform="translate(-556.137 -27.358)" fill="#35363a"/>
          </g>
          <path id="Tracé_7903" data-name="Tracé 7903" d="M528.731,156.724a74.509,74.509,0,0,0-7.657-12.8c-.215-.3-.44-.639-.644-.967a20.217,20.217,0,0,1,1.931,1.541C525.753,147.655,527.431,152.1,528.731,156.724Z" transform="translate(-503.868 -78.466)" opacity="0.5" fill="url(#linear-gradient-5)" style="isolation: isolate"/>
          <ellipse id="Ellipse_6" data-name="Ellipse 6" cx="21.84" cy="22.678" rx="21.84" ry="22.678" transform="translate(38.587 52.64)" fill="#fbf3f2"/>
        </g>
        <ellipse id="Ellipse_7" data-name="Ellipse 7" cx="13.822" cy="1.852" rx="13.822" ry="1.852" transform="translate(106.639 355.289)" opacity="0.1" style="isolation: isolate"/>
        <g id="Groupe_2906" data-name="Groupe 2906" transform="translate(61.628 218.6)">
          <path id="Tracé_7904" data-name="Tracé 7904" d="M624.024,632.679c.564,2.611-.558,5.317-2.347,8.06,4.367,2.093,8.767,1.541,13.2-1.924-1.889-1.841-2.6-4.467-2.784-7.444Z" transform="translate(-610.256 -512.987)" fill="#fbd783"/>
          <path id="Tracé_7905" data-name="Tracé 7905" d="M620.1,539.754a13.414,13.414,0,0,0,11.58,0c.994-18.531.531-42.24,1.827-59.1,2.911-16.313,14.258-40.26,14.258-61.47L621.536,422c-7.46,22.2-7.26,44.949-5.936,61.637Z" transform="translate(-607.254 -419.179)" fill="#050505"/>
          <path id="Tracé_7906" data-name="Tracé 7906" d="M612.629,646.638c-5.568,3.3-14.007,6.961-10.663,9.168,9.356-.321,18.126-1.481,25.6-4.478,1.135-2.611.029-6.538-1.736-6.613C621.972,646.866,617.511,647.333,612.629,646.638Z" transform="translate(-601.206 -518.887)" fill="#1b2c7b"/>
        </g>
        <g id="Groupe_2907" data-name="Groupe 2907" transform="translate(91.822 214.317)">
          <path id="Tracé_7907" data-name="Tracé 7907" d="M698.189,631.143c1.037,2.37.484,5.173-.691,8.146,4.557,1.092,8.632-.344,12.188-4.55-2.147-1.36-3.326-3.711-4.073-6.507Z" transform="translate(-673.97 -507.316)" fill="#fbd783"/>
          <path id="Tracé_7908" data-name="Tracé 7908" d="M678.123,535.4a13.5,13.5,0,0,0,11.336-2.46c-2.678-18.35-7.8-41.461-9.855-58.246-.364-16.582,6.025-42.432,1.849-63.193l-25.121,8.325c-2.93,23.321,1.026,46.332,5.608,62.389Z" transform="translate(-655.326 -411.502)" fill="#050505"/>
          <path id="Tracé_7909" data-name="Tracé 7909" d="M690.091,644.433c-4.658,4.289-11.984,9.507-8.384,10.917,8.839-2.232,16.955-5.147,23.488-9.54.579-2.717-1.223-6.22-2.915-5.929C699.021,642.722,694.869,644.091,690.091,644.433Z" transform="translate(-666.563 -512.459)" fill="#1b2c7b"/>
        </g>
        <path id="Tracé_7910" data-name="Tracé 7910" d="M670.4,369.427a34.822,34.822,0,0,1-8.61,2.369c-7.347,1.138-15.621.261-24.313-1.579-3.632-.7-7.427-1.666-11.227-2.717-3.459-17-1.183-44.354,1.605-72.4,2.194-.351,4.556-.7,7.005-.876h.167c12.748-1.315,27.268-.964,35.371,3.069.928,7.188,1.6,14.11,2.024,20.685C673.779,339.888,672.6,358.121,670.4,369.427Z" transform="translate(-549.877 -145.033)" fill="#fff"/>
        <path id="Tracé_7911" data-name="Tracé 7911" d="M661.165,283.671c3.326-.964,3.53-3.779,5.375-8.929l7.821.2c-1.15,4.984-1.183,8.4-.08,12.058C672.814,294.513,657.016,291.085,661.165,283.671Z" transform="translate(-565.78 -136.724)" fill="#b5805d"/>
        <path id="Tracé_7912" data-name="Tracé 7912" d="M659.711,257.352c.146,3.771,9.021,3.964,14.418,3.749l10.1-17.22-17.3-8.99C662.142,242.958,659.82,250.424,659.711,257.352Z" transform="translate(-565.443 -119.107)" fill="#b5805d"/>
        <path id="Tracé_7913" data-name="Tracé 7913" d="M664.993,237.676c.775,5.415,5.819,6.528,9.069,6.114s-.893,5.351-2.857,5.937l1.176,1.315,3.3-2.3c1.283.446,1.812,1.387.553,3.5l-3.5,1.833a4.718,4.718,0,0,0,.065,3.79l6.175.064a51.254,51.254,0,0,0,9.968-12.224A32.979,32.979,0,0,0,687.9,235.03a35.439,35.439,0,0,0-11.7-7.58,11.828,11.828,0,0,0-8.319,3.435C666.129,232.276,665.256,234.634,664.993,237.676Z" transform="translate(-567.778 -115.817)" fill="#022539"/>
        <g id="Groupe_2908" data-name="Groupe 2908" transform="translate(83.643 103.376)">
          <path id="Tracé_7914" data-name="Tracé 7914" d="M677.508,261.53c-4.04-4.408-21.718-6.054-24.011-9.451-2.14-7.629-.928-23.149-.8-38.877l-6.736-.552c-4.112,18.566-6.7,35.985-4.487,45.085,2.282,7.206,21.565,17.741,21.565,17.741Z" transform="translate(-640.666 -212.651)" fill="#fff"/>
        </g>
        <path id="Tracé_7915" data-name="Tracé 7915" d="M654.231,205.624a8.751,8.751,0,0,0,2.984-4.372,7.854,7.854,0,0,0-.309-5.566s-5.346.714-6.172,2.3a17.457,17.457,0,0,0-1.263,4.172l-3.177.986a8.23,8.23,0,0,0,2.789,2.064Z" transform="translate(-559.511 -101.774)" fill="#fbd783"/>
        <path id="Tracé_7916" data-name="Tracé 7916" d="M678.343,369.555a34.82,34.82,0,0,1-8.61,2.369c3.626-35.237-4.982-54.086-4.982-54.086S649.47,304.514,642.8,294.35a1.842,1.842,0,0,1-.338-.525,1.441,1.441,0,0,1,.506.525c3.21,3.156,16.714,16.215,30.558,20.686a28.06,28.06,0,0,1,6.838,3.068C681.721,340.016,680.538,358.248,678.343,369.555Z" transform="translate(-557.819 -145.161)" opacity="0.1" style="isolation: isolate"/>
        <path id="Tracé_7917" data-name="Tracé 7917" d="M564.542,258.315c.167.439.422,1.227.757,2.366C565.049,259.892,564.794,259.1,564.542,258.315Z" transform="translate(-523.369 -129.462)" opacity="0.1" style="isolation: isolate"/>
      </g>
      <g id="Groupe_2916" data-name="Groupe 2916" transform="translate(203.976 55.264)">
        <g id="Groupe_2911" data-name="Groupe 2911" transform="translate(28.272 64.412)">
          <g id="Groupe_2910" data-name="Groupe 2910" transform="translate(0 10.634)">
            <path id="Tracé_7918" data-name="Tracé 7918" d="M289.212,257.533c-.223,5.234-23.92,21.773-30.485,25.613l-2.165-5.723-1.91-5.664,20.643-17.923L262.64,214.857l6.034-2.966c7.141,11.25,13.662,22.62,17.388,32.3l.011.049A43.026,43.026,0,0,1,289.212,257.533Z" transform="translate(-254.651 -211.891)" fill="#e0181a"/>
          </g>
          <path id="Tracé_7919" data-name="Tracé 7919" d="M269.47,203.213l-2.362-8.111c-1.714-1.644-4.942-2.993-7.661-1.841-1.445.272,1.953,9.179-1.707,6.941-3.124-1.912.7,7.819,5.768,6.231S269.47,203.213,269.47,203.213Z" transform="translate(-255.518 -192.83)" fill="#b5805d"/>
        </g>
        <ellipse id="Ellipse_8" data-name="Ellipse 8" cx="15.649" cy="2.518" rx="15.649" ry="2.518" transform="translate(3.645 345.458)" opacity="0.1" style="isolation: isolate"/>
        <g id="Groupe_2912" data-name="Groupe 2912" transform="translate(43.083 201.469)">
          <path id="Tracé_7920" data-name="Tracé 7920" d="M307.264,674.576a8.006,8.006,0,0,0,.346,4.486c.893,2.607-12.137,3.507-12.137,3.507a9.929,9.929,0,0,1,1.365-6.828,11.245,11.245,0,0,0,2.107-5.543Z" transform="translate(-287.453 -540.927)" fill="#b5805d"/>
          <path id="Tracé_7921" data-name="Tracé 7921" d="M281.2,440.963c2.143,33.533,13.232,45.992,13.232,58.965s-4.345,69.51-4.345,69.51c1.618,2.124,10.36,3.54,13.363,2.232,6.311-31.719,12.267-68.232,12-79.046a200.193,200.193,0,0,0-9.6-54.132Z" transform="translate(-281.199 -438.492)" fill="#fff"/>
          <path id="Tracé_7922" data-name="Tracé 7922" d="M292.726,686.834c-1.776,3.2-2.064,6.19-.812,8.94,10.12.14,19.973.522,29.415.056,0-3.771-9.636-8.778-15.012-10.308A15.315,15.315,0,0,1,292.726,686.834Z" transform="translate(-285.597 -547.702)" fill="#1b2c7b"/>
        </g>
        <g id="Groupe_2913" data-name="Groupe 2913" transform="translate(5.928 197.368)">
          <path id="Tracé_7923" data-name="Tracé 7923" d="M233.374,664.054a7.992,7.992,0,0,0-.542,4.463c.364,2.744-12.57.865-12.57.865a9.827,9.827,0,0,1,2.678-6.4,11.053,11.053,0,0,0,3.152-4.98Z" transform="translate(-217.104 -531.436)" fill="#b5805d"/>
          <path id="Tracé_7924" data-name="Tracé 7924" d="M242.081,431.142c-4.487,33.284,3.919,47.828,1.372,60.529s-17.9,67.127-17.9,67.127c1.161,2.426,9.447,5.664,12.642,5.018,12.406-29.717,25.408-64.2,27.268-74.843a200.654,200.654,0,0,0,1.234-55.028Z" transform="translate(-219.443 -431.142)" fill="#fff"/>
          <path id="Tracé_7925" data-name="Tracé 7925" d="M217.382,673.65c-2.369,2.762-3.239,5.623-2.551,8.582,9.88,2.279,19.455,4.742,28.788,6.288.743-3.692-7.708-10.634-12.671-13.275A15.3,15.3,0,0,1,217.382,673.65Z" transform="translate(-214.602 -538.353)" fill="#1b2c7b"/>
        </g>
        <path id="Tracé_7926" data-name="Tracé 7926" d="M294.57,395.8c-3.017,1.765-8.268,2.777-14.2,3.18-12.544.808-28.153-1.36-32.334-5.755,2.478-33.926-5.106-68.964,4.618-76.789,8.024-4.44,28.782-3.682,40.791,1.871a7.842,7.842,0,0,1,1.121.5c.291,4.395.582,8.737.775,12.976.149,2.12.244,4.138.342,6.208C296.9,361.015,297.2,381.919,294.57,395.8Z" transform="translate(-223.234 -181.792)" fill="#e0181a"/>
        <path id="Tracé_7927" data-name="Tracé 7927" d="M281.114,306.241c1.725-3.031,2.067-6.451,2.216-10.321h7.93a36.6,36.6,0,0,0,1.077,11.484C291.515,309.015,281.893,308.376,281.114,306.241Z" transform="translate(-238.078 -173.993)" fill="#b5805d"/>
        <path id="Tracé_7928" data-name="Tracé 7928" d="M282.477,284.482c4.753,2.218,9.54,4.516,12.453,2.468,3.3-3.874,6.36-16.064,6.583-22.911L282.5,262.625Z" transform="translate(-238.681 -159.274)" fill="#b5805d"/>
        <path id="Tracé_7929" data-name="Tracé 7929" d="M273,275.806c2.165,2.022-.633,4.584,6.4,5.441,4.192.5,7.129-3.953,6.689-7.788-2.041-1.562-4.531-3.118-4.531-4.829-.32-1.477.735-2.4,2.074-2.917a9.61,9.61,0,0,1,2.455,3.19l1.618-1.927-1.252-5.4c4.509.552,8.648.763,9.626-1.9a11.1,11.1,0,0,0,1.19-10.342,15.7,15.7,0,0,1-13.352,0c-4.218-1.33-9.21,3.923-12.169,6.091C266.827,259.6,265.758,268.848,273,275.806Z" transform="translate(-232.198 -153.299)" fill="#022539"/>
        <path id="Tracé_7930" data-name="Tracé 7930" d="M271.223,118.451v.038c-.473,10.048-23.629,25.076-33.977,22.522-10.31-2.551-16.893,17.749-15.9,11.284.713-4.575-8.25-18.486-13.563-26.27-2.22-3.25-3.807-5.434-3.807-5.434s9.2-15.6,19.866-13.34c10.706,2.263,17.646-3.254,24.9-12.723,6.9-8.975,1.506-10.21,7.769-15.727.316-.287.714-.578,1.11-.907,0,0,4.76,10.377,8.607,21C269.043,106.51,271.383,114.292,271.223,118.451Z" transform="translate(-203.976 -77.605)" fill="#35363a"/>
        <path id="Tracé_7931" data-name="Tracé 7931" d="M359.071,221.895a3.081,3.081,0,0,1-4.069-1.56c-.019-.043-.037-.086-.054-.129L312.242,118.261v-.038l-6.936-16.555L297.02,81.946a3.247,3.247,0,0,1,.513-3.374,2.551,2.551,0,0,1,1.11-.907,2.755,2.755,0,0,1,1.27-.287,3.086,3.086,0,0,1,2.853,1.976L309.35,95.04,360.7,217.612A3.278,3.278,0,0,1,359.071,221.895Z" transform="translate(-244.995 -77.377)" fill="#35363a"/>
        <g id="Groupe_2915" data-name="Groupe 2915" transform="translate(65.847 79.666)">
          <g id="Groupe_2914" data-name="Groupe 2914" transform="translate(0 11.242)">
            <path id="Tracé_7932" data-name="Tracé 7932" d="M359.894,290.176c-1.67,4.942-28.96,13.664-36.315,15.369l-.476-6.129-1.1-13.63,0-.1,25.595-3.225-1.259-41.118,6.6-1.024c3.7,12.912,6.78,25.753,7.653,36.141l0,.049A43.156,43.156,0,0,1,359.894,290.176Z" transform="translate(-322 -240.321)" fill="#e0181a"/>
          </g>
          <path id="Tracé_7933" data-name="Tracé 7933" d="M367.411,231.413v-8.476c-1.183-2.354-3.5-2.989-6.419-2.7,0,0-1.415,8.2-4.775,4.958s-.7,7.244,4.593,7.244S367.411,231.413,367.411,231.413Z" transform="translate(-336.469 -220.171)" fill="#b5805d"/>
        </g>
      </g>
    </g>
  </g>
</svg>
