<svg xmlns="http://www.w3.org/2000/svg" xmlns:xlink="http://www.w3.org/1999/xlink" width="428" height="428" viewBox="0 0 428 428">
  <defs>
    <linearGradient id="linear-gradient" x1="0.382" y1="-0.143" x2="0.55" y2="0.881" gradientUnits="objectBoundingBox">
      <stop offset="0" stop-color="#fff"/>
      <stop offset="0.085" stop-color="#f5f5f5"/>
      <stop offset="0.229" stop-color="#dadada"/>
      <stop offset="0.413" stop-color="#afafaf"/>
      <stop offset="0.631" stop-color="#747474"/>
      <stop offset="0.876" stop-color="#292929"/>
      <stop offset="1"/>
    </linearGradient>
    <linearGradient id="linear-gradient-2" x1="0" y1="0.5" x2="1" y2="0.5" xlink:href="#linear-gradient"/>
    <linearGradient id="linear-gradient-5" x1="2.769" y1="66.697" x2="3.027" y2="66.697" gradientUnits="objectBoundingBox">
      <stop offset="0" stop-color="#fff"/>
      <stop offset="0.256" stop-color="#c1c1c1"/>
      <stop offset="0.845" stop-color="#292929"/>
      <stop offset="1"/>
    </linearGradient>
    <clipPath id="clip-no_friend">
      <rect width="428" height="428"/>
    </clipPath>
  </defs>
  <g id="no_friend" clip-path="url(#clip-no_friend)">
    <g id="Groupe_2821" data-name="Groupe 2821" transform="translate(-55 -107.792)">
      <g id="Groupe_2716" data-name="Groupe 2716" transform="translate(75.592 423.285)">
        <path id="Tracé_7613" data-name="Tracé 7613" d="M553.7,603.616c-42.168-12.424-82.164-10.01-118.14-3.361-34.608,6.4-65.474,16.761-90.917,21.593-44.721,8.5-82.306,18.474-131.963-14.664-14.871-9.938-7.279-26.6,22.957-40.488,31.81-14.7,88.677-26.386,170.841-24.146C658.373,549.374,633.422,627.165,553.7,603.616Z" transform="translate(-205.308 -542.274)" fill="rgba(189,197,234,0.4)"/>
        <path id="Tracé_7614" data-name="Tracé 7614" d="M435.564,590.412c-34.608,6.4-65.474,16.762-90.917,21.593-44.721,8.5-82.306,18.474-131.963-14.664-14.871-9.938-7.279-26.6,22.957-40.488,20.856-6.021,46.473-9.554,74.152-9.554C373.484,547.3,426.221,566.02,435.564,590.412Z" transform="translate(-205.308 -532.431)" opacity="0.5" fill="url(#linear-gradient)" style="mix-blend-mode: overlay;isolation: isolate"/>
      </g>
      <g id="Groupe_2717" data-name="Groupe 2717" transform="translate(55 132.792)">
        <path id="Tracé_7615" data-name="Tracé 7615" d="M472.888,687.934a44.011,44.011,0,0,0-13.578-5.95,59.255,59.255,0,0,0-14.522-1.888c-15.853-.316-33.91,4.234-52.982,9.764-5.494,1.574-11.024,3.219-16.658,4.9-27.084,8.051-55.536,15.959-82.2,13.72-16.028-1.332-31.425-6.3-45.529-17.182-15.817-12.11-29.954-31.6-41.5-61.521-.281-.734-.559-1.471-.769-2.2-12.669-34.715-6.474-67.436,9.027-93.331,29.99-50.148,94.8-74.854,125.981-39.334,37.058,42.168,77.442,38.319,98.58,19.211a45.521,45.521,0,0,0,12.947-19.492c10.708-32.614,63.2-67.643,106.663-41.257q2.308,1.416,4.2,2.834c29.744,22.327-9.2,51.476.734,97.284,10.323,47.769,46.228,17.954,56.027,61.731C631.586,670.3,528.74,724.957,472.888,687.934Z" transform="translate(-198.348 -444.094)" fill="rgba(189,197,234,0.4)"/>
        <path id="Tracé_7616" data-name="Tracé 7616" d="M322.6,679.918a44.015,44.015,0,0,0-13.578-5.95,59.247,59.247,0,0,0-14.522-1.888,149.8,149.8,0,0,1-19.247-66.7c-.107-2.414-.175-4.864-.175-7.314A150.457,150.457,0,0,1,412.253,448.186c29.744,22.327-9.2,51.476.734,97.284,10.323,47.769,46.228,17.954,56.027,61.731C481.3,662.281,378.449,716.941,322.6,679.918Z" transform="translate(-48.057 -436.078)" opacity="0.5" fill="url(#linear-gradient-2)" style="mix-blend-mode: overlay;isolation: isolate"/>
        <path id="Tracé_7617" data-name="Tracé 7617" d="M428.257,491.562A142.2,142.2,0,0,1,203.7,511.684c29.99-50.148,94.8-74.854,125.981-39.334C366.736,514.519,407.12,510.669,428.257,491.562Z" transform="translate(-187.87 -421.539)" opacity="0.5" fill="url(#linear-gradient-2)" style="mix-blend-mode: overlay;isolation: isolate"/>
        <path id="Tracé_7618" data-name="Tracé 7618" d="M370.647,591.225c-27.084,8.051-55.536,15.959-82.2,13.72-16.028-1.331-31.425-6.3-45.529-17.182-15.817-12.11-29.954-31.6-41.5-61.521-.281-.734-.559-1.471-.769-2.2a100.692,100.692,0,0,1,68.9-27.087,82.972,82.972,0,0,1,8.4.388,101.053,101.053,0,0,1,70.548,37.408c2.1,2.624,4.1,5.355,5.95,8.19A100.259,100.259,0,0,1,370.647,591.225Z" transform="translate(-193.847 -340.561)" opacity="0.5" fill="url(#linear-gradient-2)" style="mix-blend-mode: overlay;isolation: isolate"/>
      </g>
    </g>
    <g id="Groupe_3097" data-name="Groupe 3097" transform="translate(25.38 204.527)">
      <g id="Partnership_Strategic" data-name="Partnership Strategic" transform="translate(142.308)">
        <g id="Groupe_3086" data-name="Groupe 3086" transform="translate(0)">
          <g id="Groupe_3085" data-name="Groupe 3085">
            <g id="Groupe_3079" data-name="Groupe 3079" transform="translate(23.77 85.483)">
              <g id="Groupe_3078" data-name="Groupe 3078" transform="translate(19.068 111.369)">
                <path id="Tracé_8261" data-name="Tracé 8261" d="M295.407,492.573l1.257,4.977-4.714,6.12,14.073-6.186-2.519-2.71-1.323-4.4Z" transform="translate(-288.761 -490.377)" fill="#b5805d"/>
                <path id="Tracé_8262" data-name="Tracé 8262" d="M303.579,496.7a12.841,12.841,0,0,1-9.474,4.187l-5.969,7.225c-2.248,4.637,17.52-3.827,18.534-7.195C306.789,499.159,305.585,496.828,303.579,496.7Z" transform="translate(-287.958 -491.649)" fill="#1b2c7b"/>
              </g>
              <path id="Tracé_8263" data-name="Tracé 8263" d="M289.612,350.958c4.538,17.584,1.5,31.028-.269,52.071l8.621,59.478-8.548,2.771-20.034-64.7c-1.638-10.394-9.074-34.58-2.852-41.319Z" transform="translate(-264.088 -350.958)" fill="#050505"/>
            </g>
            <g id="Groupe_3081" data-name="Groupe 3081" transform="translate(0 82.079)">
              <g id="Groupe_3080" data-name="Groupe 3080" transform="translate(0 109.556)">
                <path id="Tracé_8264" data-name="Tracé 8264" d="M245.564,484.266l-.038,5.133-6.1,4.735,15.178-2.443-1.756-3.257-.173-4.588Z" transform="translate(-235.355 -483.847)" fill="#b5805d"/>
                <path id="Tracé_8265" data-name="Tracé 8265" d="M252.508,490.661a12.828,12.828,0,0,1-10.222,1.665l-7.6,5.489c-3.342,3.92,17.92.708,19.75-2.3C255,493.85,254.417,491.292,252.508,490.661Z" transform="translate(-234.331 -485.218)" fill="#1b2c7b"/>
              </g>
              <path id="Tracé_8266" data-name="Tracé 8266" d="M274.629,346.7c-.066,18.2-6.357,30.449-13.383,50.323l-6.625,59.76-1.34.066-7.1.468h-.534L242.5,389.66c.6-5.89.535-16.463,1.673-25.5V364.1q.2-1.2.4-2.408c.936-5.89,2.61-10.841,5.621-12.715Z" transform="translate(-235.975 -346.697)" fill="#050505"/>
            </g>
            <g id="Groupe_3082" data-name="Groupe 3082" transform="translate(7.13)">
              <path id="Tracé_8268" data-name="Tracé 8268" d="M266.426,274.646c1.2-1.286,1.244-5.678,1.443-9.65l7.423-.962c.03,3.712.285,7.132,1.248,9.631C273.359,277.729,267.575,277.952,266.426,274.646Z" transform="translate(-247.918 -247.987)" fill="#b5805d"/>
              <path id="Tracé_8269" data-name="Tracé 8269" d="M262.775,270.006c3.381-.618,6.742-6.542,9.494-11.027L259.263,244.79l-11.587,10.893C249.453,262.038,259.287,269.806,262.775,270.006Z" transform="translate(-244.146 -244.115)" fill="#b5805d"/>
              <path id="Tracé_8270" data-name="Tracé 8270" d="M269.626,261.19l-4.429-.717-2.322-4.755-2.428-.064,1.372,3.92-1.035.732-3.48-4.534-7.292,8.658-6.755-5.6,4.163-9.846,9.566-5.035s10.436,2.189,10.613,2.309,3.782,12.554,3.782,12.554Z" transform="translate(-243.257 -243.945)" fill="#091038"/>
            </g>
            <path id="Tracé_8271" data-name="Tracé 8271" d="M279.645,367.4l9.6,8.312-1.2.962-9.3-8.379Z" transform="translate(-243.267 -268.783)" fill="#fff"/>
            <path id="Tracé_8272" data-name="Tracé 8272" d="M248.283,362.982,244.6,367.2q.2-1.2.4-2.408l2.41-2.677Z" transform="translate(-236.397 -267.719)" fill="#fff"/>
            <path id="Tracé_8275" data-name="Tracé 8275" d="M264.609,264.241l1.463,5.977-3.8,2.206,2.01,2.422,2.537-.227,1.578-3.03-2.75-8.079Z" transform="translate(-239.952 -247.881)" fill="#091038"/>
            <path id="Union_4" data-name="Union 4" d="M272.891,351.3l3.194-8.57c-11.73-.182-22.641-1.249-30.912-5.167l1,9.031c-.252-1.38-1.174-.172-2.017,1.036-.772,1.107-1.475,2.214-1.531,1.329l-7.094-31.922,10.627-33.122a28.712,28.712,0,0,1,.9-3.014c.044-.081.089-.161.139-.24l.239-.75a6.378,6.378,0,0,1,1.809-1.3c7.279-5.025,27.2-4.933,36.756-.812,1.661-.907,3.3-.685,4.407,1.489,5.525,13.934,10.286,29.826,10.047,35.482a5.056,5.056,0,0,1-.337,2.468l-13.755,22.687-.209,2.8q-.755.011-1.507.018l-7.482,12.246Zm-27.877-15.19c.028-.054.057-.111.084-.166a.46.46,0,0,1-.1.01Z" transform="translate(-234.573 -250.145)" fill="#e02964"/>
          </g>
        </g>
      </g>
      <g id="Groupe_3096" data-name="Groupe 3096" transform="translate(0 20.888)">
        <g id="Groupe_3089" data-name="Groupe 3089" transform="translate(0 53.078)">
          <g id="Groupe_3088" data-name="Groupe 3088">
            <g id="Groupe_3087" data-name="Groupe 3087">
              <path id="Tracé_8276" data-name="Tracé 8276" d="M98.327,360.309a3,3,0,0,0,2.377-3.5l-.718-3.9a2.932,2.932,0,0,0-3.39-2.388l-.062.011-3.317.583a13.309,13.309,0,0,0-1.614-2.511l1.839-2.691.089-.089a3.012,3.012,0,0,0-.717-4.168l-3.275-2.242a3.049,3.049,0,0,0-4.168.762l-1.928,2.734a15.35,15.35,0,0,0-2.914-.583l-.583-3.363a3.011,3.011,0,0,0-3.5-2.376l-3.857.717a2.932,2.932,0,0,0-2.44,3.352c.006.034.011.067.018.1l.583,3.317a15.024,15.024,0,0,0-2.511,1.615l-2.779-1.928a2.962,2.962,0,0,0-4.12.755l-.006.008-2.243,3.228a2.968,2.968,0,0,0,.717,4.136l.046.032,2.734,1.928a21.231,21.231,0,0,0-.628,2.915l-3.317.583a3.041,3.041,0,0,0-2.421,3.5l.717,3.9a2.966,2.966,0,0,0,3.452,2.377l3.319-.583a24.053,24.053,0,0,0,1.614,2.511l-1.886,2.734c0,.046,0,.046-.045.09a2.94,2.94,0,0,0,.763,4.08l3.275,2.286a2.961,2.961,0,0,0,4.119-.755l.006-.008,1.928-2.779a16.137,16.137,0,0,0,2.915.673l.583,3.275a3.006,3.006,0,0,0,3.494,2.422h0l3.9-.673a3,3,0,0,0,2.377-3.5l-.582-3.318a13.349,13.349,0,0,0,2.511-1.614l2.779,1.928a3.022,3.022,0,0,0,4.168-.761l2.242-3.275a3.023,3.023,0,0,0-.763-4.168l-2.779-1.882a16.274,16.274,0,0,0,.673-2.915ZM80.7,371.115a12.37,12.37,0,0,1-12.509-5.2,12.232,12.232,0,0,1-2.019-4.843A12.507,12.507,0,1,1,80.74,371.108l-.036.006Z" transform="translate(-56.18 -336.54)" fill="#050505"/>
              <path id="Tracé_8277" data-name="Tracé 8277" d="M93.263,359.1a12.509,12.509,0,1,0-10.091,14.483A12.531,12.531,0,0,0,93.263,359.1Zm-10.9,10a7.883,7.883,0,0,1-8.923-5.156,11.925,11.925,0,0,1-.314-1.211,7.953,7.953,0,0,1,6.367-9.271l.045-.008a9.655,9.655,0,0,1,1.569-.135,8.063,8.063,0,0,1,7.668,6.591,7.932,7.932,0,0,1-6.411,9.19Z" transform="translate(-58.649 -339.008)" fill="#f05c85"/>
            </g>
          </g>
        </g>
        <g id="Groupe_3092" data-name="Groupe 3092" transform="translate(60.185 75.381)">
          <g id="Groupe_3091" data-name="Groupe 3091">
            <g id="Groupe_3090" data-name="Groupe 3090">
              <path id="Tracé_8278" data-name="Tracé 8278" d="M182.122,393.029a3.6,3.6,0,0,0,2.869-4.168l-.852-4.708a3.533,3.533,0,0,0-4.084-2.877l-.042.007-3.452.628-.538.089a17.328,17.328,0,0,0-1.974-3l2.333-3.363a3.589,3.589,0,0,0-.9-4.978l-3.9-2.69a3.635,3.635,0,0,0-5.023.9l-2.286,3.275a21.487,21.487,0,0,0-3.543-.717l-.717-3.991a3.563,3.563,0,0,0-4.111-2.917l-.016,0-4.664.852a3.6,3.6,0,0,0-2.916,4.168l.717,3.992a21.873,21.873,0,0,0-3.048,1.927l-3.319-2.286a3.587,3.587,0,0,0-4.977.9l-2.691,3.9a3.548,3.548,0,0,0-.628,2.467,3.364,3.364,0,0,0,1.525,2.511l.4.269,2.914,2.063c-.09.315-.178.628-.268.943a15.03,15.03,0,0,0-.493,2.555l-3.992.717a3.578,3.578,0,0,0-2.87,4.167h0l.852,4.664a3.563,3.563,0,0,0,4.107,2.918l.018,0,3.991-.717a22.852,22.852,0,0,0,1.928,3l-2.286,3.317a3.572,3.572,0,0,0,.891,4.973l.006,0,3.9,2.734a3.59,3.59,0,0,0,4.979-.9l2.333-3.319a18,18,0,0,0,3.5.763l.717,3.991a3.6,3.6,0,0,0,4.2,2.873l.014,0,4.618-.806a3.618,3.618,0,0,0,2.916-4.2l0-.01-.717-3.945a19.217,19.217,0,0,0,3-1.973l3.319,2.333a3.648,3.648,0,0,0,5.021-.9l2.734-3.945a3.587,3.587,0,0,0-.9-4.977l-3.362-2.286a19.537,19.537,0,0,0,.761-3.5Zm-21.164,13a15.012,15.012,0,0,1-17.442-12.1v0a14.158,14.158,0,0,1-.134-4.349,15,15,0,0,1,29.28-2.6,10.813,10.813,0,0,1,.4,1.615,15.01,15.01,0,0,1-12.1,17.441Z" transform="translate(-131.524 -364.461)" fill="#050505"/>
              <path id="Tracé_8279" data-name="Tracé 8279" d="M176.021,391.555a10.8,10.8,0,0,0-.4-1.615,15,15,0,0,0-29.28,2.6,14.183,14.183,0,0,0,.134,4.349,15.014,15.014,0,0,0,29.549-5.334Zm-13.092,12.062a9.551,9.551,0,0,1-11.073-7.665,8.981,8.981,0,0,1-.089-1.076,9.521,9.521,0,0,1,18.877-2.332,2.728,2.728,0,0,1,.045.852,9.442,9.442,0,0,1-7.758,10.223Z" transform="translate(-134.483 -367.428)" fill="#f05c85"/>
            </g>
          </g>
        </g>
        <g id="Groupe_3095" data-name="Groupe 3095" transform="translate(33.391)">
          <g id="Groupe_3094" data-name="Groupe 3094">
            <g id="Groupe_3093" data-name="Groupe 3093">
              <path id="Tracé_8280" data-name="Tracé 8280" d="M161.133,305.714a4.5,4.5,0,0,0,3.632-5.2l-1.076-5.829a4.451,4.451,0,0,0-5.169-3.593l-.034.006-4.978.9a12.855,12.855,0,0,0-.986-1.7,23.82,23.82,0,0,0-1.435-2.063L154,284.058a4.566,4.566,0,0,0-1.121-6.277l-4.887-3.317a4.5,4.5,0,0,0-6.233,1.121l-2.915,4.126a22.624,22.624,0,0,0-4.349-.943l-.943-4.977a4.47,4.47,0,0,0-5.156-3.632l-5.829,1.076a4.472,4.472,0,0,0-3.637,5.174l0,.028.9,4.977a26.771,26.771,0,0,0-3.766,2.376l-4.168-2.826a4.454,4.454,0,0,0-6.188,1.122l-3.363,4.842a4.428,4.428,0,0,0,1.04,6.176l.081.056,4.126,2.916a23.326,23.326,0,0,0-.943,4.349l-4.977.9a4.54,4.54,0,0,0-3.632,5.2L99.12,312.4a4.483,4.483,0,0,0,5.2,3.586l4.977-.9a29.45,29.45,0,0,0,2.376,3.766l-2.825,4.126a4.423,4.423,0,0,0,1.028,6.169l.093.065,4.843,3.408a4.51,4.51,0,0,0,6.232-1.121l2.869-4.168a24.056,24.056,0,0,0,4.393.986l.9,4.933a4.425,4.425,0,0,0,5.083,3.652l.118-.021,3.229-.583,2.6-.447a4.5,4.5,0,0,0,3.587-5.246l-.9-4.932a22.642,22.642,0,0,0,3.766-2.421l4.168,2.869A4.516,4.516,0,0,0,157.094,325l3.408-4.888a4.566,4.566,0,0,0-1.121-6.277l-4.168-2.825a23.946,23.946,0,0,0,.943-4.4Zm-26.411,16.276A20.828,20.828,0,0,1,131,322.3a18.757,18.757,0,1,1,15.558-29.816,17.8,17.8,0,0,1,3.317,7.712,18.8,18.8,0,0,1-15.154,21.791Z" transform="translate(-97.982 -270.094)" fill="#050505"/>
              <path id="Tracé_8281" data-name="Tracé 8281" d="M153.568,303.9a17.825,17.825,0,0,0-3.317-7.712A18.765,18.765,0,1,0,134.692,326a20.827,20.827,0,0,0,3.722-.313A18.8,18.8,0,0,0,153.568,303.9ZM137.2,318.962a10.342,10.342,0,0,1-2.868.135,11.919,11.919,0,1,1,10.133-19.236,11.431,11.431,0,0,1,2.377,5.291,11.931,11.931,0,0,1-9.642,13.81Z" transform="translate(-101.672 -273.792)" fill="#f05c85"/>
            </g>
          </g>
        </g>
        <path id="Tracé_8283" data-name="Tracé 8283" d="M126.972,386.938a3.366,3.366,0,0,1-1.525-2.511c.583.943,1.256,1.886,1.928,2.779Z" transform="translate(-70.116 -293.097)" opacity="0.7" fill="url(#linear-gradient-5)" style="isolation: isolate"/>
      </g>
    </g>
    <g id="Groupe_3154" data-name="Groupe 3154" transform="translate(-48.445 1.504)">
      <path id="Tracé_8402" data-name="Tracé 8402" d="M301.4,83.142a14.944,14.944,0,0,1-4.654,10.889,8.639,8.639,0,0,0-2.693,6.3l.064,13.735c-37.64.158-25.831.109-50.857.212l-.038-8.3a19.24,19.24,0,0,0-5.294-13.191l-.921-.971a25.5,25.5,0,0,1-7.015-17.249V63.291a7.593,7.593,0,0,1,3.765-6.554c-.456-1.668-9.468-34.839-9.894-36.409-2.359-8.7,6.893-15.9,14.57-11.47a10.039,10.039,0,0,1,4.682,6.1l8.159,30.032c3.97-14.615,3.78-13.914,8.159-30.032A9.963,9.963,0,0,1,271.61,7.869l.13.035a10.141,10.141,0,0,1,6.946,12.423c-3.745,13.788-2.936,10.809-4.041,14.873a10.013,10.013,0,0,1,12.109,5.433c.235.473-.012.382.565.164,6.357-2.689,13.971,1.682,13.971,9.053,0,14.479,0,10.967.109,33.292h0Z" transform="translate(0 -0.006)" fill="#ffd5b6"/>
      <path id="Tracé_8403" data-name="Tracé 8403" d="M320.2,83.137a14.945,14.945,0,0,1-4.654,10.889,8.639,8.639,0,0,0-2.693,6.3l.064,13.735-30.99.13V9.506c7.624-5.7,18.061,1.626,15.56,10.815-3.745,13.788-2.936,10.809-4.041,14.873A10.027,10.027,0,0,1,305.7,40.979a9.993,9.993,0,0,1,14.388,8.865C320.093,63.029,320.142,70.613,320.2,83.137Z" transform="translate(-18.803)" fill="#ffc896"/>
      <path id="Tracé_8404" data-name="Tracé 8404" d="M294.6,75.32V81.6a9.834,9.834,0,0,1-6.069-1.879,10.139,10.139,0,0,1-13.155,2.1,18.725,18.725,0,0,1-5.732,5.674,19.981,19.981,0,0,1-3.378,23.171l-4.482-4.4a13.66,13.66,0,0,0,2.015-16.378c-2.75.6-3.037.423-19.781.423V84.034h15.863a12.239,12.239,0,0,0,11.311-7.712,9.442,9.442,0,0,1-.347-1.695H233.246a7.6,7.6,0,0,1,3.65-5.24l-.283-1.038h15.2V48.077l2.6,9.566,2.938-10.815h.741V68.35h12.68V57.272h6.278V73.506a3.708,3.708,0,0,0,7.411,0h.159c-.263-1.441-.169-25.4-.153-25.4a9.911,9.911,0,0,1,5.573,5.53c.259-.127.45-.2.7-.3V71.763a3.576,3.576,0,0,0,3.853,3.557Z" transform="translate(-3.139 -12.655)" fill="#ffc896"/>
      <path id="Tracé_8405" data-name="Tracé 8405" d="M320.135,82.2c-10.782,0-11.914.271-14.419-.962a10.468,10.468,0,0,1-1.528-.917,10.139,10.139,0,0,1-13.155,2.1A18.717,18.717,0,0,1,285.3,88.1a19.971,19.971,0,0,1-3.355,23.145c-.026.039-.017,1.329-.017-28.443a12.461,12.461,0,0,0,4.5-4.949c.7-1.38.308-.557.077-2.621H281.93V68.954h4.506V57.876h6.281V74.11c0,3.325,4.183,4.737,6.416,2.465a3.524,3.524,0,0,0,.994-2.465c.23,0,.157.114.069-.53-.1-.72-.069.863-.069-24.873a9.887,9.887,0,0,1,5.579,5.53c.212-.1.478-.219.7-.3,0,19.679-.009,18.516.019,18.791,0,.059.056.354.056.369a3.482,3.482,0,0,0,2.335,2.608c.915.3.511.222,11.3.222C320.118,78.024,320.127,80.1,320.135,82.2Z" transform="translate(-18.803 -13.259)" fill="#fcb975"/>
    </g>
  </g>
</svg>
