<svg xmlns="http://www.w3.org/2000/svg" width="74.716" height="49.811" viewBox="0 0 74.716 49.811"><defs><style>.a{fill:#fff;}</style></defs><path class="a" d="M16.6,16.953H58.112V41.858H16.6ZM68.49,29.405a6.226,6.226,0,0,0,6.226,6.226V48.084a6.226,6.226,0,0,1-6.226,6.226H6.226A6.226,6.226,0,0,1,0,48.084V35.632a6.226,6.226,0,0,0,6.226-6.226A6.226,6.226,0,0,0,0,23.179V10.726A6.226,6.226,0,0,1,6.226,4.5H68.49a6.226,6.226,0,0,1,6.226,6.226V23.179A6.226,6.226,0,0,0,68.49,29.405Zm-6.226-13.49A3.113,3.113,0,0,0,59.15,12.8H15.566a3.113,3.113,0,0,0-3.113,3.113V42.9a3.113,3.113,0,0,0,3.113,3.113H59.15A3.113,3.113,0,0,0,62.263,42.9Z" transform="translate(0 -4.5)"/></svg>