<svg xmlns="http://www.w3.org/2000/svg" width="77.567" height="68.948" viewBox="0 0 77.567 68.948"><defs><style>.a{fill:#fff;}</style></defs><path class="a" d="M74.335,8.619H60.33V3.232A3.224,3.224,0,0,0,57.1,0H20.469a3.224,3.224,0,0,0-3.232,3.232V8.619H3.232A3.224,3.224,0,0,0,0,11.85v7.541c0,4.808,3.03,9.75,8.336,13.561a31.548,31.548,0,0,0,14.813,5.616c4.228,7.016,9.171,9.911,9.171,9.911v9.7H25.856c-4.754,0-8.619,2.788-8.619,7.541v1.616a1.621,1.621,0,0,0,1.616,1.616H58.714a1.621,1.621,0,0,0,1.616-1.616V65.716c0-4.754-3.865-7.541-8.619-7.541H45.247v-9.7s4.942-2.9,9.171-9.911a31.44,31.44,0,0,0,14.813-5.616c5.292-3.811,8.336-8.753,8.336-13.561V11.85A3.224,3.224,0,0,0,74.335,8.619ZM13.372,25.963c-3.286-2.37-4.754-5.01-4.754-6.572V17.237h8.645a48.367,48.367,0,0,0,1.724,11.608,21.7,21.7,0,0,1-5.616-2.882Zm55.576-6.572c0,2.168-2.384,4.861-4.754,6.572a21.786,21.786,0,0,1-5.629,2.882,48.366,48.366,0,0,0,1.724-11.608h8.659Z"/></svg>