<svg xmlns="http://www.w3.org/2000/svg" width="22.104" height="22.104" viewBox="0 0 22.104 22.104"><defs><style>.a{fill:#092772;}</style></defs><path class="a" d="M9.96,19.011a.925.925,0,0,0,.672.374l.071,0a.918.918,0,0,0,.651-.27l5.3-5.3a.921.921,0,1,0-1.3-1.3l-4.537,4.537-1.9-2.588a.921.921,0,0,0-1.486,1.09Z" transform="translate(-0.573 -0.968)"/><path class="a" d="M19.341,2.763H18.42V.921A.921.921,0,0,0,17.5,0h-.921a.921.921,0,0,0-.921.921V2.763H6.447V.921A.921.921,0,0,0,5.526,0H4.605a.921.921,0,0,0-.921.921V2.763H2.763A2.766,2.766,0,0,0,0,5.526V19.341A2.766,2.766,0,0,0,2.763,22.1H19.341A2.766,2.766,0,0,0,22.1,19.341V5.526A2.766,2.766,0,0,0,19.341,2.763Zm.921,16.578a.923.923,0,0,1-.921.921H2.763a.923.923,0,0,1-.921-.921V9.247h18.42Z"/></svg>