<svg xmlns="http://www.w3.org/2000/svg" xmlns:xlink="http://www.w3.org/1999/xlink" width="428" height="428" viewBox="0 0 428 428">
  <defs>
    <clipPath id="clip-cross_red">
      <rect width="428" height="428"/>
    </clipPath>
  </defs>
  <g id="cross_red" clip-path="url(#clip-cross_red)">
    <g id="cross_red_3_" data-name="cross_red(3)" transform="translate(75 75)">
      <path id="Tracé_7972" data-name="Tracé 7972" d="M1150.4,897.926c0,76.356,62.571,138.927,138.927,138.927s138.926-62.571,138.926-138.927S1365.672,759,1289.322,759,1150.4,821.571,1150.4,897.926" transform="translate(-1150.395 -759)" fill="#ff6c6c"/>
      <path id="Tracé_7973" data-name="Tracé 7973" d="M1316.081,897.926c0,76.356-62.571,138.927-138.926,138.927V759C1253.509,759,1316.081,821.571,1316.081,897.926Z" transform="translate(-1038.228 -759)" fill="#f93d3d"/>
      <path id="Tracé_7974" data-name="Tracé 7974" d="M1163.849,887.6l46.072-46.082-46.072-46.056,23.01-23.01,46.056,46.072,46.072-46.072,23.01,23.01-46.071,46.056L1302,887.592l-23,23-46.077-46.067L1186.859,910.6Z" transform="translate(-1093.999 -702.604)" fill="#e6e6ff"/>
      <path id="Tracé_7975" data-name="Tracé 7975" d="M1223.225,910.6l23-23-46.072-46.082,46.072-46.056-23-23-46.071,46.066v46Z" transform="translate(-1038.228 -702.6)" fill="#c3c3e5"/>
    </g>
  </g>
</svg>
