<?xml version="1.0" encoding="utf-8"?>
<!-- Generator: Adobe Illustrator 25.0.1, SVG Export Plug-In . SVG Version: 6.00 Build 0)  -->
<svg version="1.1" id="Capa_1" xmlns="http://www.w3.org/2000/svg" xmlns:xlink="http://www.w3.org/1999/xlink" x="0px" y="0px"
	 viewBox="0 0 89.291 89.291" enable-background="new 0 0 89.291 89.291" xml:space="preserve">
<path d="M77.299,7.101H69.91V3.485c0-1.789-1.455-3.244-3.244-3.244c-1.788,0-3.243,1.455-3.243,3.244v3.616H26.008V3.485
	c0-1.789-1.455-3.244-3.244-3.244c-1.789,0-3.244,1.455-3.244,3.244v3.616h-7.389c-6.517,0-11.818,5.302-11.818,11.818v58.308
	c0,6.518,5.302,11.819,11.818,11.819h65.167c6.517,0,11.818-5.302,11.818-11.819V18.919C89.117,12.403,83.815,7.101,77.299,7.101z
	 M6.801,18.919c0-2.939,2.391-5.331,5.331-5.331h7.389v2.244c0,1.789,1.455,3.244,3.244,3.244c1.789,0,3.244-1.455,3.244-3.244
	v-2.244h37.415v2.244c0,1.789,1.455,3.244,3.243,3.244c1.789,0,3.244-1.455,3.244-3.244v-2.244h7.389
	c2.939,0,5.331,2.391,5.331,5.331v6.017H6.801V18.919z M82.63,31.424v45.803c0,2.939-2.392,5.331-5.331,5.331H12.131
	c-2.939,0-5.331-2.392-5.331-5.331V31.424H82.63z"/>
</svg>
