<?xml version="1.0" encoding="iso-8859-1"?>
<!-- Generator: Adobe Illustrator 19.0.0, SVG Export Plug-In . SVG Version: 6.00 Build 0)  -->
<svg version="1.1" id="Capa_1" xmlns="http://www.w3.org/2000/svg" xmlns:xlink="http://www.w3.org/1999/xlink" x="0px" y="0px"
	 viewBox="0 0 83.001 83.001" style="enable-background:new 0 0 83.001 83.001;" xml:space="preserve">
<g>
	<path d="M41.5,0C18.617,0,0,18.617,0,41.5C0,64.384,18.616,83.001,41.5,83.001c22.884,0,41.501-18.617,41.501-41.501
		C83.001,18.617,64.383,0,41.5,0z M41.5,77.001C21.925,77.001,6,61.075,6,41.5S21.925,6,41.5,6c19.575,0,35.501,15.925,35.501,35.5
		S61.074,77.001,41.5,77.001z"/>
	<path d="M53.43,51.8L44.5,46.751V22c0-1.657-1.343-3-3-3s-3,1.343-3,3v26.5c0,0.035,0.009,0.068,0.01,0.103
		c0.004,0.114,0.017,0.227,0.034,0.339c0.013,0.087,0.025,0.173,0.045,0.257c0.024,0.101,0.057,0.197,0.092,0.295
		c0.03,0.087,0.06,0.173,0.098,0.255c0.042,0.093,0.094,0.18,0.146,0.268c0.046,0.078,0.09,0.155,0.143,0.229
		c0.06,0.083,0.127,0.16,0.195,0.237c0.062,0.068,0.122,0.137,0.189,0.2c0.07,0.065,0.146,0.125,0.224,0.185
		c0.083,0.063,0.166,0.125,0.254,0.18c0.033,0.021,0.059,0.046,0.093,0.065l10.453,5.911c0.467,0.264,0.974,0.39,1.474,0.39
		c1.047,0,2.063-0.549,2.614-1.524C55.379,54.445,54.872,52.615,53.43,51.8z"/>
</g>
<g>
</g>
<g>
</g>
<g>
</g>
<g>
</g>
<g>
</g>
<g>
</g>
<g>
</g>
<g>
</g>
<g>
</g>
<g>
</g>
<g>
</g>
<g>
</g>
<g>
</g>
<g>
</g>
<g>
</g>
</svg>
