<?xml version="1.0" encoding="UTF-8" standalone="no"?>
<svg
   xmlns:dc="http://purl.org/dc/elements/1.1/"
   xmlns:cc="http://creativecommons.org/ns#"
   xmlns:rdf="http://www.w3.org/1999/02/22-rdf-syntax-ns#"
   xmlns:svg="http://www.w3.org/2000/svg"
   xmlns="http://www.w3.org/2000/svg"
   xmlns:sodipodi="http://sodipodi.sourceforge.net/DTD/sodipodi-0.dtd"
   xmlns:inkscape="http://www.inkscape.org/namespaces/inkscape"
   inkscape:version="1.0 (4035a4f, 2020-05-01)"
   sodipodi:docname="close_white.svg"
   xml:space="preserve"
   style="enable-background:new 0 0 47.971 47.971;"
   viewBox="0 0 47.971 47.971"
   y="0px"
   x="0px"
   id="Capa_1"
   version="1.1"><metadata
   id="metadata872"><rdf:RDF><cc:Work
       rdf:about=""><dc:format>image/svg+xml</dc:format><dc:type
         rdf:resource="http://purl.org/dc/dcmitype/StillImage" /><dc:title></dc:title></cc:Work></rdf:RDF></metadata><defs
   id="defs870" /><sodipodi:namedview
   inkscape:current-layer="Capa_1"
   inkscape:window-maximized="0"
   inkscape:window-y="0"
   inkscape:window-x="0"
   inkscape:cy="23.9855"
   inkscape:cx="23.9855"
   inkscape:zoom="12.987013"
   showgrid="false"
   id="namedview868"
   inkscape:window-height="900"
   inkscape:window-width="1440"
   inkscape:pageshadow="2"
   inkscape:pageopacity="0"
   guidetolerance="10"
   gridtolerance="10"
   objecttolerance="10"
   borderopacity="1"
   bordercolor="#666666"
   pagecolor="#ffffff" />
<g
   id="g835">
	<path
   id="path833"
   d="M28.228,23.986L47.092,5.122c1.172-1.171,1.172-3.071,0-4.242c-1.172-1.172-3.07-1.172-4.242,0L23.986,19.744L5.121,0.88   c-1.172-1.172-3.07-1.172-4.242,0c-1.172,1.171-1.172,3.071,0,4.242l18.865,18.864L0.879,42.85c-1.172,1.171-1.172,3.071,0,4.242   C1.465,47.677,2.233,47.97,3,47.97s1.535-0.293,2.121-0.879l18.865-18.864L42.85,47.091c0.586,0.586,1.354,0.879,2.121,0.879   s1.535-0.293,2.121-0.879c1.172-1.171,1.172-3.071,0-4.242L28.228,23.986z" />
</g>
<g
   id="g837">
</g>
<g
   id="g839">
</g>
<g
   id="g841">
</g>
<g
   id="g843">
</g>
<g
   id="g845">
</g>
<g
   id="g847">
</g>
<g
   id="g849">
</g>
<g
   id="g851">
</g>
<g
   id="g853">
</g>
<g
   id="g855">
</g>
<g
   id="g857">
</g>
<g
   id="g859">
</g>
<g
   id="g861">
</g>
<g
   id="g863">
</g>
<g
   id="g865">
</g>
<path
   id="path874"
   d="M 2.3289361,47.853798 C 1.4694626,47.636681 0.71354899,47.005157 0.32181194,46.176955 0.10343922,45.715276 0.07792683,45.5881 0.07928715,44.968 0.08059326,44.372615 0.11215363,44.2045 0.30334305,43.7745 0.514622,43.299317 1.0130281,42.786157 10.156423,33.62975 L 19.786968,23.9855 10.156423,14.34125 C 1.0130281,5.1848427 0.514622,4.6716828 0.30334305,4.1965 0.11215363,3.7665001 0.08059326,3.5983845 0.07928715,3.003 0.07792683,2.3829001 0.10343922,2.2557242 0.32181194,1.7940452 0.63246864,1.1372614 1.1372614,0.63246864 1.7940452,0.32181194 2.2557242,0.10343922 2.3829001,0.07792683 3.003,0.07928715 3.5983845,0.08059326 3.7665001,0.11215363 4.1965,0.30334305 4.6716827,0.51462195 5.1848373,1.0130228 14.341104,10.156277 l 9.644103,9.630398 9.644397,-9.630174 C 42.782853,1.0167493 43.299489,0.51498258 43.7745,0.30356707 c 0.430202,-0.19147196 0.597835,-0.2229732 1.1935,-0.22427992 0.6201,-0.0013603 0.747276,0.02415207 1.208955,0.24252479 0.656783,0.3106567 1.161576,0.81544946 1.472233,1.47223326 0.218373,0.461679 0.243885,0.5888549 0.242525,1.2089548 -0.0013,0.5953845 -0.03287,0.7635001 -0.224056,1.1935 -0.211279,0.4751828 -0.709685,0.9883427 -9.85308,10.14475 l -9.630545,9.64425 9.630545,9.64425 c 9.143395,9.156407 9.641801,9.669567 9.85308,10.14475 0.191189,0.43 0.222749,0.598115 0.224056,1.1935 0.0014,0.6201 -0.02415,0.747276 -0.242525,1.208955 -0.310657,0.656783 -0.81545,1.161576 -1.472233,1.472233 -0.461679,0.218373 -0.588855,0.243885 -1.208955,0.242525 -0.595665,-0.0013 -0.763298,-0.03281 -1.1935,-0.22428 -0.475011,-0.211416 -0.991647,-0.713183 -10.144896,-9.852934 l -9.644397,-9.630174 -9.644103,9.630398 C 5.2315102,46.911371 4.6700868,47.456841 4.2114086,47.656577 3.6725766,47.891216 2.8275269,47.97975 2.3289361,47.853798 Z"
   style="fill:#ffffff;stroke:#000000;stroke-width:0;stroke-linecap:round;stroke-linejoin:bevel" /></svg>
