<?xml version="1.0" encoding="iso-8859-1"?>
<!-- Generator: Adobe Illustrator 19.0.0, SVG Export Plug-In . SVG Version: 6.00 Build 0)  -->
<svg version="1.1" id="Capa_1" xmlns="http://www.w3.org/2000/svg" xmlns:xlink="http://www.w3.org/1999/xlink" x="0px" y="0px"
	 viewBox="0 0 60.338 60.338" style="enable-background:new 0 0 60.338 60.338;" xml:space="preserve">
<g>
	<path d="M58.869,1.463c-1.43-1.432-3.658-1.862-5.535-1.048L3.001,22.366c-1.923,0.838-3.125,2.808-2.991,4.901
		c0.133,2.092,1.575,3.893,3.587,4.481l19.334,5.65l5.65,19.335c0.588,2.012,2.389,3.454,4.467,3.587
		c0.112,0.008,0.221,0.011,0.333,0.011c1.988,0,3.787-1.178,4.582-3.001L59.914,6.997C60.744,5.098,60.333,2.925,58.869,1.463z
		 M33.568,52.403L27.77,32.561L7.928,26.763l45.47-19.83L33.568,52.403z"/>
</g>
<g>
</g>
<g>
</g>
<g>
</g>
<g>
</g>
<g>
</g>
<g>
</g>
<g>
</g>
<g>
</g>
<g>
</g>
<g>
</g>
<g>
</g>
<g>
</g>
<g>
</g>
<g>
</g>
<g>
</g>
</svg>
