<svg xmlns="http://www.w3.org/2000/svg" width="32.828" height="21.075" viewBox="0 0 32.828 21.075"><defs><style>.a{fill:#f77f37;}.b{fill:#b6d1e2;}.c{fill:#fa9837;}.d{fill:#fdb237;}.e{fill:#fff;}.f{fill:#92a3b0;}</style></defs><g transform="translate(0 -0.286)"><ellipse class="a" cx="11" cy="10.5" rx="11" ry="10.5" transform="translate(10.828 0.361)"/><circle class="b" cx="6.5" cy="6.5" r="6.5" transform="translate(15.828 4.361)"/><path class="c" d="M188.515,90,186,100.435l2.515,10.435a10.435,10.435,0,1,0,0-20.871Z" transform="translate(-178.079 -89.714)"/><path class="d" d="M60,100.435a10.435,10.435,0,0,0,10.435,10.435V90A10.435,10.435,0,0,0,60,100.435Z" transform="translate(-60 -89.714)"/><path class="b" d="M188.515,150,186,156.664l2.515,6.663a6.663,6.663,0,1,0,0-13.327Z" transform="translate(-178.079 -145.942)"/><path class="e" d="M120,156.664a6.664,6.664,0,0,0,6.664,6.663V150A6.664,6.664,0,0,0,120,156.664Z" transform="translate(-116.228 -145.942)"/><path class="f" d="M217.572,217.5h-.943L216,219.92l.629,2.42h.943Z" transform="translate(-206.193 -209.199)"/><rect class="b" width="0.943" height="4.84" transform="translate(9.492 8.301)"/></g></svg>