<?xml version="1.0" encoding="iso-8859-1"?>
<!-- Generator: Adobe Illustrator 19.0.0, SVG Export Plug-In . SVG Version: 6.00 Build 0)  -->
<svg version="1.1" id="Capa_1" xmlns="http://www.w3.org/2000/svg" xmlns:xlink="http://www.w3.org/1999/xlink" x="0px" y="0px"
	 viewBox="0 0 69.571 69.571" style="enable-background:new 0 0 69.571 69.571;" xml:space="preserve">
<g>
	<path d="M60.571,10.786H9c-4.962,0-9,4.038-9,9v30c0,4.963,4.038,9,9,9h51.571c4.963,0,9-4.037,9-9v-30
		C69.571,14.823,65.534,10.786,60.571,10.786z M9,16.786h51.571c1.654,0,3,1.346,3,3v3.852H6v-3.852C6,18.132,7.346,16.786,9,16.786
		z M60.571,52.785H9c-1.654,0-3-1.346-3-3V31.637h57.571v18.148C63.571,51.439,62.225,52.785,60.571,52.785z"/>
</g>
<g>
</g>
<g>
</g>
<g>
</g>
<g>
</g>
<g>
</g>
<g>
</g>
<g>
</g>
<g>
</g>
<g>
</g>
<g>
</g>
<g>
</g>
<g>
</g>
<g>
</g>
<g>
</g>
<g>
</g>
</svg>
