<?xml version="1.0" encoding="utf-8"?>
<!-- Generator: Adobe Illustrator 25.0.1, SVG Export Plug-In . SVG Version: 6.00 Build 0)  -->
<svg version="1.1" id="Capa_1" xmlns="http://www.w3.org/2000/svg" xmlns:xlink="http://www.w3.org/1999/xlink" x="0px" y="0px"
	 viewBox="0 0 67.774 67.774" enable-background="new 0 0 67.774 67.774" xml:space="preserve">
<path d="M67.264,33.936c0-18.497-14.991-33.488-33.488-33.488S0.289,15.44,0.289,33.936S15.28,67.424,33.776,67.424
	c0.196,0,0.392,0,0.589-0.013V41.353H27.17v-8.385h7.195v-6.174c0-7.155,4.369-11.054,10.753-11.054c3.061,0,5.69,0.222,6.449,0.327
	v7.482h-4.395c-3.467,0-4.147,1.648-4.147,4.068v5.337h8.307l-1.086,8.385h-7.221v24.789C57.022,62.113,67.264,49.228,67.264,33.936
	z"/>
</svg>
