<?xml version="1.0" encoding="utf-8"?>
<!-- Generator: Adobe Illustrator 25.0.1, SVG Export Plug-In . SVG Version: 6.00 Build 0)  -->
<svg version="1.1" id="Capa_1" xmlns="http://www.w3.org/2000/svg" xmlns:xlink="http://www.w3.org/1999/xlink" x="0px" y="0px"
	 viewBox="0 0 89.291 89.291" enable-background="new 0 0 89.291 89.291" xml:space="preserve">
<g>
	<path d="M85.391,11.554H32.719c-1.448-4.301-5.516-7.408-10.299-7.408s-8.851,3.107-10.299,7.408H3.899
		c-1.91,0-3.458,1.548-3.458,3.458S1.99,18.47,3.899,18.47h8.222c1.448,4.301,5.516,7.408,10.299,7.408s8.851-3.107,10.299-7.408
		h52.672c1.91,0,3.458-1.548,3.458-3.458S87.301,11.554,85.391,11.554z M22.42,18.962c-2.178,0-3.95-1.772-3.95-3.95
		s1.772-3.95,3.95-3.95s3.95,1.772,3.95,3.95S24.598,18.962,22.42,18.962z"/>
	<path d="M85.391,41.187h-8.222c-1.448-4.301-5.516-7.408-10.299-7.408c-4.783,0-8.851,3.107-10.299,7.408H3.899
		c-1.91,0-3.458,1.548-3.458,3.458c0,1.91,1.548,3.458,3.458,3.458h52.672c1.448,4.301,5.516,7.408,10.299,7.408
		s8.851-3.107,10.299-7.408h8.222c1.91,0,3.458-1.548,3.458-3.458C88.85,42.736,87.301,41.187,85.391,41.187z M66.87,48.596
		c-2.178,0-3.95-1.772-3.95-3.95c0-2.178,1.772-3.95,3.95-3.95s3.95,1.772,3.95,3.95C70.82,46.824,69.048,48.596,66.87,48.596z"/>
	<path d="M85.391,70.821H47.536c-1.448-4.301-5.516-7.408-10.299-7.408s-8.851,3.107-10.299,7.408H3.899
		c-1.91,0-3.458,1.548-3.458,3.458c0,1.91,1.548,3.458,3.458,3.458h23.038c1.448,4.301,5.516,7.408,10.299,7.408
		s8.851-3.107,10.299-7.408h37.855c1.91,0,3.458-1.548,3.458-3.458C88.85,72.369,87.301,70.821,85.391,70.821z M37.237,78.229
		c-2.178,0-3.95-1.772-3.95-3.95s1.772-3.95,3.95-3.95s3.95,1.772,3.95,3.95C41.187,76.457,39.415,78.229,37.237,78.229z"/>
</g>
</svg>
