<?xml version="1.0" encoding="iso-8859-1"?>
<!-- Generator: Adobe Illustrator 19.0.0, SVG Export Plug-In . SVG Version: 6.00 Build 0)  -->
<svg version="1.1" id="Capa_1" xmlns="http://www.w3.org/2000/svg" xmlns:xlink="http://www.w3.org/1999/xlink" x="0px" y="0px"
	 viewBox="0 0 82.51 82.51" style="enable-background:new 0 0 82.51 82.51;" xml:space="preserve">
<g>
	<path d="M81.274,31.235c0.039-0.958-0.226-1.934-0.854-2.92C74.978,11.888,59.483,0,41.255,0c-4.878,0-9.56,0.856-13.907,2.418
		l-0.104-0.074c-0.031,0.044-0.067,0.096-0.1,0.143C11.324,8.264,0,23.461,0,41.254C0,64.003,18.507,82.51,41.255,82.51
		S82.51,64.003,82.51,41.254C82.51,37.799,82.077,34.444,81.274,31.235z M75.076,31.325c-0.603,1.049-2.729,2.978-4.063,4.187
		c-3.55,3.215-7.888,7.144-7.637,11.83c-0.563,0.154-1.28,0.309-1.828,0.427c-2.64,0.568-5.631,1.212-7.268,3.477
		c-0.444,0.616-2.979,0.203-4.619-0.566c-0.321-0.15-0.646-0.249-0.975-0.31c0.524-0.191,1.097-0.407,1.688-0.666
		c2.3-1.008,7.705-4.887,7.433-8.506c-0.117-1.562-1.203-2.841-2.767-3.262c-8.104-2.174-10.991-9.661-11.105-9.965l-0.238-0.655
		c-0.026-0.153-0.053-0.315-0.076-0.457c-0.416-2.536-1.189-7.255-5.275-7.552c-1.281-0.092-2.318,0.031-3.232,0.139
		c-1.203,0.143-2.242,0.267-4.042-0.09c-0.316-0.062-0.494-0.126-0.582-0.164c-0.151-0.422-0.23-1.594-0.294-2.548
		c-0.058-0.862-0.123-1.84-0.251-2.963c-0.316-2.772,0.353-4.744,1.126-6.177c3.226-0.975,6.644-1.505,10.184-1.505
		C57.246,6,70.777,16.706,75.076,31.325z M6.14,44.299c1.971,0.11,3.946,0.406,4.934,0.742c0.011,0.146,0.021,0.291,0.031,0.437
		c0.167,2.351,0.42,5.903,3.777,7.341c2.772,1.188,4.675-0.67,5.591-1.808c0.375,0.176,0.768,0.347,1.169,0.521
		c0.698,0.305,1.892,0.825,2.494,1.224c-0.035,0.441-0.096,0.946-0.155,1.44c-0.286,2.362-0.61,5.04,1.441,6.406
		c0.639,0.513,2.695,2.899,3.349,3.861c0.077,0.351,0.19,0.733,0.329,1.199c0.142,0.477,0.456,1.531,0.515,2.038
		c-0.532,1.442-2.121,4.563-2.892,5.168c0.208-0.164,0.896-0.418,1.69-0.153l-0.401,1.203C16.015,69.038,7.296,57.736,6.14,44.299z
		 M28.832,55.669c0.198,0.132,0.357,0.278,0.485,0.425C29.054,55.851,28.879,55.7,28.832,55.669z M41.255,76.509
		c-3.063,0-6.034-0.395-8.869-1.132c1.83-2.648,3.007-6.025,3.023-6.074c0.499-1.543,0.063-3.263-0.558-5.351
		c-0.094-0.315-0.18-0.587-0.219-0.771c0.001,0.006,0.031,0.151,0.032,0.376c-0.003-1.997-3.235-5.435-4.892-7.032
		c0.027-0.465,0.107-1.123,0.166-1.606c0.111-0.923,0.227-1.877,0.227-2.778c0-3.436-3.539-4.979-6.123-6.106
		c-0.694-0.303-1.481-0.646-1.812-0.867c-1.042-0.695-2.966-1.417-5.091,0.528c-0.02-0.231-0.035-0.452-0.049-0.643
		c-0.04-0.565-0.082-1.128-0.148-1.662c-0.393-3.143-4.031-4.856-10.808-5.106c0.999-11.904,7.933-22.14,17.831-27.735
		c-0.124,1.16-0.14,2.426,0.018,3.813c0.114,1.001,0.173,1.893,0.226,2.684c0.225,3.359,0.48,7.167,5.698,8.198
		c2.729,0.54,4.495,0.331,5.914,0.162c0.485-0.058,0.907-0.107,1.33-0.124c0.25,0.723,0.451,1.954,0.549,2.55
		c0.139,0.849,0.307,1.87,0.796,2.69c0.818,1.923,4.172,8.726,11.83,12.099c-0.727,0.628-1.591,1.248-2.361,1.586
		c-0.566,0.249-1.126,0.45-1.657,0.643c-2.385,0.866-5.651,2.052-6.186,6.33c-0.245,1.943,0.489,3.165,1.148,3.848
		c1.619,1.674,3.975,1.461,5.537,1.315c0.208-0.019,0.493-0.045,0.694-0.056c1.718,0.751,3.722,1.274,5.647,1.274
		c2.311,0,4.51-0.754,5.966-2.769c0.459-0.463,2.563-0.915,3.694-1.159c2.52-0.542,4.898-1.054,6.118-3.019
		c0.605-0.977,0.777-2.154,0.483-3.315c-0.463-1.824,3.203-5.144,5.629-7.341c0.447-0.405,0.908-0.823,1.366-1.251
		c0.061,0.842,0.103,1.689,0.103,2.547C76.51,60.694,60.694,76.509,41.255,76.509z"/>
</g>
<g>
</g>
<g>
</g>
<g>
</g>
<g>
</g>
<g>
</g>
<g>
</g>
<g>
</g>
<g>
</g>
<g>
</g>
<g>
</g>
<g>
</g>
<g>
</g>
<g>
</g>
<g>
</g>
<g>
</g>
</svg>
