<?xml version="1.0" encoding="UTF-8" standalone="no" ?>
<!DOCTYPE svg PUBLIC "-//W3C//DTD SVG 1.1//EN" "http://www.w3.org/Graphics/SVG/1.1/DTD/svg11.dtd">
<svg xmlns="http://www.w3.org/2000/svg" xmlns:xlink="http://www.w3.org/1999/xlink" version="1.1" width="350" height="350" viewBox="0 0 350 350" xml:space="preserve">
<desc>Created with Fabric.js 1.7.22</desc>
<defs>
</defs>
<g id="icon" style="stroke: none; stroke-width: 1; stroke-dasharray: none; stroke-linecap: butt; stroke-linejoin: miter; stroke-miterlimit: 10; fill: none; fill-rule: nonzero; opacity: 1;" transform="translate(-1.9444444444444287 -1.9444444444444287) scale(3.89 3.89)" >
	<path d="M 89.354 41.716 L 46.355 2.109 c -0.767 -0.704 -1.944 -0.705 -2.71 0 l -43 39.606 c -0.606 0.558 -0.808 1.431 -0.508 2.198 c 0.3 0.768 1.04 1.273 1.863 1.273 h 9.898 v 41.232 c 0 1.104 0.896 2 2 2 h 58.081 L 55.994 72.434 c -7.313 4.663 -17.128 3.813 -23.514 -2.574 c -7.383 -7.383 -7.383 -19.353 0 -26.736 s 19.353 -7.383 26.736 0 c 6.387 6.387 7.237 16.201 2.574 23.514 l 16.311 16.311 V 45.187 H 88 c 0.824 0 1.563 -0.505 1.863 -1.273 C 90.163 43.147 89.961 42.274 89.354 41.716 z" style="stroke: none; stroke-width: 1; stroke-dasharray: none; stroke-linecap: butt; stroke-linejoin: miter; stroke-miterlimit: 10; fill: rgb(0,0,0); fill-rule: nonzero; opacity: 1;" transform=" matrix(1 0 0 1 0 0) " stroke-linecap="round" />
	<circle cx="45.93" cy="56.49" r="10" style="stroke: none; stroke-width: 1; stroke-dasharray: none; stroke-linecap: butt; stroke-linejoin: miter; stroke-miterlimit: 10; fill: rgb(0,0,0); fill-rule: nonzero; opacity: 1;" transform="  matrix(1 0 0 1 0 0) "/>
</g>
</svg>