<svg xmlns="http://www.w3.org/2000/svg" width="21.372" height="21.372" viewBox="0 0 21.372 21.372"><defs><style>.a{fill:#092772;}</style></defs><path class="a" d="M11.249.563A10.686,10.686,0,1,0,21.935,11.249,10.688,10.688,0,0,0,11.249.563Zm0,4.74a1.81,1.81,0,1,1-1.81,1.81A1.81,1.81,0,0,1,11.249,5.3Zm2.413,10.945a.517.517,0,0,1-.517.517H9.353a.517.517,0,0,1-.517-.517V15.213a.517.517,0,0,1,.517-.517H9.87V11.938H9.353a.517.517,0,0,1-.517-.517V10.387a.517.517,0,0,1,.517-.517H12.11a.517.517,0,0,1,.517.517V14.7h.517a.517.517,0,0,1,.517.517Z" transform="translate(-0.563 -0.563)"/></svg>