<?xml version="1.0" encoding="utf-8"?>
<!-- Generator: Adobe Illustrator 25.0.1, SVG Export Plug-In . SVG Version: 6.00 Build 0)  -->
<svg version="1.1" id="Capa_1" xmlns="http://www.w3.org/2000/svg" xmlns:xlink="http://www.w3.org/1999/xlink" x="0px" y="0px"
	 viewBox="0 0 512 512" enable-background="new 0 0 512 512" xml:space="preserve">
<path d="M305.01,256.522c0,27.062-21.917,49-48.953,49c-27.037,0-48.953-21.938-48.953-49s21.917-49,48.953-49
	C283.093,207.522,305.01,229.459,305.01,256.522z"/>
<path d="M370.541,169.826c-2.353-6.383-6.107-12.16-10.986-16.902c-4.738-4.883-10.506-8.641-16.886-10.996
	c-5.175-2.012-12.949-4.406-27.267-5.059c-15.489-0.707-20.133-0.859-59.346-0.859c-39.216,0-43.86,0.148-59.346,0.855
	c-14.318,0.656-22.096,3.051-27.267,5.062c-6.381,2.355-12.152,6.113-16.886,10.996c-4.878,4.742-8.632,10.516-10.99,16.902
	c-2.01,5.18-4.402,12.965-5.054,27.297c-0.706,15.5-0.859,20.148-0.859,59.402c0,39.25,0.152,43.898,0.859,59.402
	c0.652,14.332,3.044,22.113,5.054,27.293c2.357,6.387,6.107,12.16,10.986,16.902c4.738,4.883,10.506,8.641,16.886,10.996
	c5.175,2.016,12.952,4.41,27.271,5.062c15.485,0.707,20.125,0.855,59.342,0.855c39.22,0,43.864-0.148,59.346-0.855
	c14.318-0.652,22.096-3.047,27.271-5.062c12.808-4.945,22.931-15.078,27.872-27.898c2.01-5.18,4.402-12.961,5.058-27.293
	c0.706-15.504,0.855-20.152,0.855-59.402c0-39.254-0.148-43.902-0.855-59.402C374.947,182.791,372.555,175.006,370.541,169.826z
	 M256.056,332.006c-41.652,0-75.416-33.793-75.416-75.484s33.765-75.484,75.416-75.484c41.648,0,75.412,33.793,75.412,75.484
	S297.704,332.006,256.056,332.006z M334.45,195.694c-9.733,0-17.624-7.898-17.624-17.641s7.891-17.641,17.624-17.641
	s17.624,7.898,17.624,17.641C352.07,187.795,344.183,195.694,334.45,195.694z"/>
<path d="M256.056,0.522C114.828,0.522,0.301,114.992,0.301,256.15s114.527,255.628,255.756,255.628s255.756-114.47,255.756-255.628
	S397.285,0.522,256.056,0.522z M402.03,316.667c-0.71,15.626-3.196,26.294-6.826,35.632c-7.629,19.717-23.224,35.304-42.951,42.93
	c-9.339,3.628-20.016,6.108-35.646,6.822c-15.661,0.714-20.664,0.885-60.548,0.885c-39.888,0-44.887-0.172-60.552-0.885
	c-15.63-0.714-26.307-3.195-35.646-6.822c-9.803-3.686-18.677-9.463-26.014-16.932c-7.469-7.329-13.249-16.203-16.937-25.997
	c-3.629-9.334-6.115-20.006-6.826-35.628c-0.722-15.657-0.89-20.657-0.89-60.521s0.168-44.864,0.886-60.517
	c0.71-15.626,3.192-26.294,6.822-35.632c3.688-9.794,9.471-18.668,16.945-25.997c7.333-7.47,16.211-13.246,26.01-16.932
	c9.343-3.628,20.016-6.108,35.65-6.822c15.661-0.714,20.664-0.885,60.548-0.885s44.887,0.172,60.548,0.889
	c15.634,0.71,26.307,3.191,35.65,6.814c9.799,3.686,18.677,9.467,26.014,16.936c7.469,7.333,13.253,16.203,16.937,25.997
	c3.633,9.338,6.115,20.006,6.829,35.632c0.714,15.653,0.882,20.654,0.882,60.517S402.748,301.014,402.03,316.667z"/>
</svg>
