<?xml version="1.0" encoding="iso-8859-1"?>
<!-- Generator: Adobe Illustrator 19.0.0, SVG Export Plug-In . SVG Version: 6.00 Build 0)  -->
<svg version="1.1" id="Capa_1" xmlns="http://www.w3.org/2000/svg" xmlns:xlink="http://www.w3.org/1999/xlink" x="0px" y="0px"
	 viewBox="0 0 89.291 89.291" style="enable-background:new 0 0 89.291 89.291;" xml:space="preserve">
<g>
	<path d="M86.45,22.846L62.422,12.372c-1.219-0.53-2.622-0.505-3.826,0.031c-1.2-0.535-2.603-0.563-3.83-0.03L30.739,22.847
		c-0.016,0.007-0.029,0.017-0.045,0.023c-0.016-0.007-0.029-0.017-0.045-0.024L6.621,12.372c-1.445-0.628-3.152-0.488-4.487,0.382
		C0.798,13.632,0,15.111,0,16.709V62.1c0,1.882,1.115,3.585,2.841,4.337l24.025,10.474c0.601,0.262,1.236,0.395,1.891,0.395
		c0.673,0,1.33-0.146,1.937-0.419c0.607,0.273,1.264,0.419,1.937,0.419c0.652,0,1.287-0.132,1.891-0.395L58.55,66.436
		c0.016-0.007,0.029-0.017,0.045-0.023c0.017,0.007,0.03,0.018,0.047,0.024l24.025,10.474c0.601,0.262,1.237,0.395,1.892,0.395
		c0.922,0,1.816-0.267,2.597-0.776c1.337-0.878,2.135-2.357,2.135-3.955V27.183C89.29,25.301,88.175,23.598,86.45,22.846z
		 M27.489,70.636L6.001,61.269V18.646l21.488,9.368V70.636z M55.389,61.269L33.9,70.637V28.014l21.489-9.368V61.269z M83.29,70.637
		l-21.488-9.368V18.647l21.488,9.368V70.637z"/>
</g>
<g>
</g>
<g>
</g>
<g>
</g>
<g>
</g>
<g>
</g>
<g>
</g>
<g>
</g>
<g>
</g>
<g>
</g>
<g>
</g>
<g>
</g>
<g>
</g>
<g>
</g>
<g>
</g>
<g>
</g>
</svg>
