<?xml version="1.0" encoding="iso-8859-1"?>
<!-- Generator: Adobe Illustrator 19.0.0, SVG Export Plug-In . SVG Version: 6.00 Build 0)  -->
<svg version="1.1" id="Capa_1" xmlns="http://www.w3.org/2000/svg" xmlns:xlink="http://www.w3.org/1999/xlink" x="0px" y="0px"
	 viewBox="0 0 66.271 66.271" style="enable-background:new 0 0 66.271 66.271;" xml:space="preserve">
<g>
	<path d="M64.521,49.315c-1.581-1.815-8.864-9.108-9.688-9.932c-0.522-0.578-2.482-2.519-5.255-2.519
		c-1.314,0-2.606,0.445-3.735,1.288c-1.407,1.052-3.475,2.883-4.974,4.247c-1.937-1.112-4.98-2.953-7.042-4.649
		c-3.55-2.919-6.733-6.729-9.729-11.644l-0.316-0.595c1.517-1.663,3.354-3.738,4.403-5.145c2.637-3.532,0.734-7.271-1.247-9.007
		c-0.897-0.896-8.11-8.098-9.913-9.667C15.755,0.585,14.199,0,12.525,0c-1.321,0-2.296,0.367-2.564,0.48L9.069,1.001
		c-3.893,2.5-8.737,5.611-9.003,17.253c-0.01,11.395,8.777,22.362,16.181,29.577c7.699,8.429,19.427,18.44,31.689,18.44l0.086-0.001
		c11.579-0.265,14.689-5.109,17.188-9.003l0.273-0.426l0.245-0.464C66.327,54.957,66.745,51.871,64.521,49.315z M60.219,53.937
		l-0.058,0.09c-2.172,3.383-3.887,6.054-12.211,6.245l-0.015,3v-3c-10.638,0-21.681-10.369-27.316-16.55l-0.125-0.129
		C11.183,34.536,6.059,25.539,6.065,18.326C6.257,9.937,8.929,8.222,12.311,6.05l0.061-0.039c0.225-0.028,0.492,0.013,0.713,0.206
		c1.434,1.249,7.482,7.257,9.692,9.467l0.163,0.151c0.249,0.224,0.523,0.636,0.536,0.778c0,0-0.015,0.055-0.098,0.166
		c-0.907,1.216-2.873,3.466-5.436,6.218l-1.455,1.563l2.353,4.437l0.086,0.153c3.365,5.538,6.993,9.868,11.091,13.237
		c3.676,3.022,9.625,6.206,9.876,6.34l1.892,1.008l1.566-1.462c1.898-1.772,4.632-4.227,6.083-5.311
		c0.094-0.07,0.146-0.092,0.147-0.096c0.168,0.016,0.572,0.286,0.763,0.496l0.183,0.2c2.21,2.21,8.22,8.259,9.469,9.693
		C60.215,53.507,60.234,53.779,60.219,53.937z"/>
</g>
<g>
</g>
<g>
</g>
<g>
</g>
<g>
</g>
<g>
</g>
<g>
</g>
<g>
</g>
<g>
</g>
<g>
</g>
<g>
</g>
<g>
</g>
<g>
</g>
<g>
</g>
<g>
</g>
<g>
</g>
</svg>
