<?xml version="1.0" encoding="utf-8"?>
<!-- Generator: Adobe Illustrator 25.0.1, SVG Export Plug-In . SVG Version: 6.00 Build 0)  -->
<svg version="1.1" id="Capa_1" xmlns="http://www.w3.org/2000/svg" xmlns:xlink="http://www.w3.org/1999/xlink" x="0px" y="0px"
	 viewBox="0 0 69.961 69.961" enable-background="new 0 0 69.961 69.961" xml:space="preserve">
<g>
	<path d="M66.829,51.329L56.593,41.093c1.479-3.56,2.248-7.387,2.248-11.282c0-16.222-13.198-29.42-29.421-29.42
		C13.198,0.391,0,13.589,0,29.811c0,16.223,13.198,29.421,29.42,29.421c4.318,0,8.518-0.932,12.37-2.724l9.931,9.932
		c2.019,2.019,4.701,3.13,7.556,3.13s5.539-1.112,7.557-3.132c2.016-2.015,3.127-4.698,3.127-7.553
		C69.96,56.032,68.849,53.348,66.829,51.329z M62.588,62.198c-0.914,0.915-2.113,1.372-3.312,1.372s-2.397-0.457-3.313-1.372
		L42.798,49.031c-3.794,2.646-8.403,4.201-13.378,4.201C16.485,53.232,6,42.746,6,29.811s10.485-23.42,23.42-23.42
		s23.421,10.485,23.421,23.42c0,4.57-1.314,8.832-3.578,12.438l13.325,13.325C64.418,57.403,64.418,60.369,62.588,62.198z"/>
</g>
</svg>
