<svg version="1.1" id="Capa_1" xmlns="http://www.w3.org/2000/svg" xmlns:xlink="http://www.w3.org/1999/xlink" x="0px" y="0px"
	 viewBox="0 0 89.291 89.291" enable-background="new 0 0 89.291 89.291" xml:space="preserve">
<g>
	<g>
		<path d="M70.429,57.703c-5.094,0-9.621,2.476-12.441,6.286
			L33.705,51.58c0.407-1.384,0.627-2.848,0.627-4.362c0-2.051-0.402-4.009-1.13-5.802l25.451-15.291
			c2.84,3.333,7.065,5.451,11.777,5.451c8.53,0,15.47-6.94,15.47-15.47s-6.94-15.47-15.47-15.47s-15.47,6.94-15.47,15.47
			c0,1.972,0.371,3.858,1.047,5.593L30.492,37.028c-2.838-3.235-6.999-5.281-11.63-5.281c-8.53,0-15.47,6.94-15.47,15.47
			s6.94,15.47,15.47,15.47c5.178,0,9.769-2.557,12.579-6.475l24.213,12.374c-0.451,1.45-0.694,2.99-0.694,4.586
			c0,8.53,6.94,15.47,15.47,15.47s15.47-6.94,15.47-15.47S78.96,57.703,70.429,57.703z M70.429,5.791
			c5.687,0,10.314,4.627,10.314,10.314s-4.627,10.314-10.314,10.314s-10.314-4.627-10.314-10.314S64.743,5.791,70.429,5.791z
			 M18.862,57.531c-5.687,0-10.314-4.627-10.314-10.314s4.627-10.314,10.314-10.314s10.314,4.627,10.314,10.314
			S24.548,57.531,18.862,57.531z M70.429,83.487c-5.687,0-10.314-4.627-10.314-10.314S64.743,62.86,70.429,62.86
			s10.314,4.627,10.314,10.314S76.116,83.487,70.429,83.487z"/>
	</g>
</g>
</svg>
