<?xml version="1.0" encoding="iso-8859-1"?>
<!-- Generator: Adobe Illustrator 19.0.0, SVG Export Plug-In . SVG Version: 6.00 Build 0)  -->
<svg version="1.1" id="Capa_1" xmlns="http://www.w3.org/2000/svg" xmlns:xlink="http://www.w3.org/1999/xlink" x="0px" y="0px"
	 viewBox="0 0 90.191 90.191" style="enable-background:new 0 0 90.191 90.191;" xml:space="preserve">
<g>
	<path d="M84.768,66.641c2.985-5.546,4.557-11.774,4.557-18.095c0-15.03-8.861-28.724-22.575-34.887
		c-0.576-0.259-1.19-0.319-1.768-0.213c-6.814-6.284-15.908-10.13-25.887-10.13c-21.08,0-38.229,17.15-38.229,38.229
		c0,6.32,1.572,12.549,4.556,18.095L0,79.874l19.827-5.314c2.353,1.376,4.839,2.477,7.408,3.316c0.197,0.5,0.522,0.958,0.985,1.304
		c6.645,4.97,14.555,7.597,22.875,7.597c6.795,0,13.428-1.8,19.269-5.216l19.827,5.314L84.768,66.641z M20.782,68.093L8.485,71.389
		l3.371-12.579l-0.628-1.08c-2.854-4.901-4.362-10.498-4.362-16.184c0-17.771,14.458-32.229,32.229-32.229
		s32.229,14.458,32.229,32.229s-14.458,32.23-32.229,32.23c-6.104,0-12.052-1.723-17.202-4.98L20.782,68.093z M81.704,78.389
		l-12.297-3.295l-1.111,0.703c-5.148,3.258-11.097,4.98-17.201,4.98c-2.931,0-5.794-0.409-8.551-1.164
		c19.468-1.75,34.779-18.15,34.779-38.067c0-5.613-1.226-10.941-3.408-15.748c5.91,5.942,9.409,14.081,9.409,22.749
		c0,5.686-1.509,11.282-4.362,16.184l-0.628,1.08L81.704,78.389z"/>
</g>
<g>
</g>
<g>
</g>
<g>
</g>
<g>
</g>
<g>
</g>
<g>
</g>
<g>
</g>
<g>
</g>
<g>
</g>
<g>
</g>
<g>
</g>
<g>
</g>
<g>
</g>
<g>
</g>
<g>
</g>
</svg>
