<?xml version="1.0" encoding="iso-8859-1"?>
<!-- Generator: Adobe Illustrator 19.0.0, SVG Export Plug-In . SVG Version: 6.00 Build 0)  -->
<svg version="1.1" id="Capa_1" xmlns="http://www.w3.org/2000/svg" xmlns:xlink="http://www.w3.org/1999/xlink" x="0px" y="0px"
	 viewBox="0 0 80.668 80.668" style="enable-background:new 0 0 80.668 80.668;" xml:space="preserve">
<g>
	<path d="M40.333,4.835C18.093,4.835,0,20.76,0,40.335c0,7.884,2.997,15.567,8.465,21.768c-0.145,3.093-1.384,5.764-3.693,7.951
		L1.186,73.45l4.668,1.616c1.472,0.51,3.032,0.768,4.638,0.768c4.803,0,9.068-2.315,11.437-3.911
		c5.675,2.563,11.998,3.91,18.405,3.91c22.24,0,40.334-15.925,40.334-35.498C80.667,20.76,62.573,4.835,40.333,4.835z
		 M40.333,69.833c-6.109,0-12.116-1.406-17.372-4.065l-1.723-0.872l-1.507,1.207c-0.654,0.523-3.659,2.805-7.19,3.518
		c1.65-3.183,2.006-6.341,1.928-8.771l-0.037-1.136l-0.78-0.826c-5.006-5.306-7.653-11.722-7.653-18.553
		c0-16.266,15.402-29.5,34.333-29.5c18.932,0,34.334,13.234,34.334,29.5C74.667,56.601,59.265,69.833,40.333,69.833z"/>
</g>
<g>
</g>
<g>
</g>
<g>
</g>
<g>
</g>
<g>
</g>
<g>
</g>
<g>
</g>
<g>
</g>
<g>
</g>
<g>
</g>
<g>
</g>
<g>
</g>
<g>
</g>
<g>
</g>
<g>
</g>
</svg>
