<svg xmlns="http://www.w3.org/2000/svg" width="11.98" height="11.44" viewBox="0 0 11.98 11.44"><defs><style>.a{fill:#bab9b9;}</style></defs><path class="a" d="M109.25,912.56a.446.446,0,0,0-.368-.309l-3.588-.521-1.606-3.25a.458.458,0,0,0-.82,0l-1.606,3.25-3.579.521a.457.457,0,0,0-.368.309.465.465,0,0,0,.114.469l2.6,2.53-.612,3.573a.454.454,0,0,0,.182.446.462.462,0,0,0,.479.036l3.211-1.687,3.211,1.687a.451.451,0,0,0,.478-.036.457.457,0,0,0,.183-.446l-.619-3.573,2.6-2.53A.458.458,0,0,0,109.25,912.56Z" transform="translate(-97.293 -908.226)"/></svg>