<svg xmlns="http://www.w3.org/2000/svg" xmlns:xlink="http://www.w3.org/1999/xlink" width="13.483" height="12.875" viewBox="0 0 13.483 12.875"><defs><linearGradient id="a" y1="0.5" x2="1" y2="0.5" gradientUnits="objectBoundingBox"><stop offset="0" stop-color="#ffc111"/><stop offset="1" stop-color="#fbe900"/></linearGradient></defs><path d="M98.777,213.84a.5.5,0,0,0-.414-.349l-4.039-.586-1.807-3.658a.516.516,0,0,0-.923,0L89.787,212.9l-4.028.586a.514.514,0,0,0-.414.349.52.52,0,0,0,.128.527l2.925,2.848-.689,4.021a.512.512,0,0,0,.205.5.521.521,0,0,0,.539.04l3.613-1.9,3.614,1.9a.508.508,0,0,0,.539-.04.514.514,0,0,0,.205-.5l-.7-4.021,2.921-2.848A.517.517,0,0,0,98.777,213.84Z" transform="translate(-85.32 -208.962)"/></svg>