<svg xmlns="http://www.w3.org/2000/svg" width="8.78" height="8.385" viewBox="0 0 8.78 8.385"><defs><style>.a{fill:#bab9b9;}</style></defs><path class="a" d="M249.924,959.815a.327.327,0,0,0-.27-.227l-2.63-.382-1.176-2.382a.337.337,0,0,0-.6,0l-1.176,2.382-2.623.382a.333.333,0,0,0-.27.227.34.34,0,0,0,.084.344l1.9,1.854-.449,2.618a.335.335,0,0,0,.485.353l2.353-1.236,2.353,1.236a.32.32,0,0,0,.156.039.324.324,0,0,0,.195-.065.334.334,0,0,0,.134-.327l-.454-2.618,1.9-1.854A.338.338,0,0,0,249.924,959.815Z" transform="translate(-241.161 -956.638)"/></svg>