<svg xmlns="http://www.w3.org/2000/svg" width="8.78" height="8.385" viewBox="0 0 8.78 8.385"><defs><style>.a{fill:#042477;}</style></defs><path class="a" d="M239.318,959.815a.327.327,0,0,0-.27-.227l-2.63-.382-1.177-2.382a.336.336,0,0,0-.6,0l-1.177,2.382-2.623.382a.333.333,0,0,0-.269.227.342.342,0,0,0,.083.344l1.9,1.854-.449,2.618a.335.335,0,0,0,.485.353l2.353-1.236,2.353,1.236a.319.319,0,0,0,.155.039.325.325,0,0,0,.2-.065.334.334,0,0,0,.134-.327l-.454-2.618,1.9-1.854A.339.339,0,0,0,239.318,959.815Z" transform="translate(-230.555 -956.638)"/></svg>