<svg version="1.1" id="Calque_1" xmlns="http://www.w3.org/2000/svg" x="0" y="0" viewBox="0 0 100 100" xml:space="preserve"><style>.st1{fill:#002265}</style><g id="Groupe_3185" opacity=".197"><g id="Groupe_3180" transform="translate(0 14.069)"><g id="Groupe_3179"><path id="Tracé_8410" class="st1" d="M25.33 27.758H4.335A3.278 3.278 0 00.83 30.717v44.297a3.266 3.266 0 003.505 2.959h20.993a3.264 3.264 0 003.505-2.959V30.717a3.268 3.268 0 00-3.503-2.959z"/></g></g><g id="Groupe_3182" transform="translate(14.608)"><g id="Groupe_3181"><path id="Tracé_8411" class="st1" d="M45.89 7.957H24.897a3.284 3.284 0 00-3.508 2.99V89.03a3.286 3.286 0 003.505 3.009h20.993a3.284 3.284 0 003.505-3.009V10.966a3.284 3.284 0 00-3.502-3.009z"/></g></g><g id="Groupe_3184" transform="translate(29.216 10.389)"><g id="Groupe_3183"><path id="Tracé_8412" class="st1" d="M66.449 22.579H45.457a3.252 3.252 0 00-3.505 2.959v53.154a3.267 3.267 0 003.505 2.959H66.45a3.264 3.264 0 003.505-2.959V25.538a3.268 3.268 0 00-3.506-2.959z"/></g></g></g></svg>