<?xml version="1.0" encoding="utf-8"?>
<!-- Generator: Adobe Illustrator 25.0.1, SVG Export Plug-In . SVG Version: 6.00 Build 0)  -->
<svg version="1.1" id="Capa_1" xmlns="http://www.w3.org/2000/svg" xmlns:xlink="http://www.w3.org/1999/xlink" x="0px" y="0px"
	 viewBox="0 0 67.774 67.774" enable-background="new 0 0 67.774 67.774" xml:space="preserve">
<g>
	<path d="M36.707,30.467c3.442-3.221,5.609-7.789,5.609-12.865c0-9.727-7.914-17.642-17.642-17.642S7.033,7.875,7.033,17.602
		c0,5.076,2.167,9.643,5.608,12.865C7.332,35.035,0.119,41.302,0.119,55.768v2.585h49.109v-2.585
		C49.228,41.303,42.016,35.035,36.707,30.467z M12.202,17.603c0-6.877,5.595-12.472,12.472-12.472
		c6.876,0,12.472,5.595,12.472,12.472s-5.595,12.473-12.472,12.473C17.797,30.075,12.202,24.48,12.202,17.603z M5.38,53.184
		c0.754-10.302,6.018-14.83,10.704-18.861c0.136-0.118,0.271-0.233,0.407-0.35c2.567,1.1,5.362,1.688,8.203,1.709
		c2.808-0.022,5.596-0.609,8.163-1.709c0.134,0.116,0.27,0.233,0.407,0.35c4.685,4.03,9.95,8.559,10.704,18.861
		C43.967,53.184,5.38,53.184,5.38,53.184z"/>
</g>
<g>
	<g>
		<path d="M55.232,38.692h-4.289l-8.247-11.383h6.846l3.581,5.38c0.041,0.059,0.081,0.117,0.12,0.175
			c0.045-0.066,0.091-0.132,0.138-0.199l3.526-5.356h6.84L55.232,38.692z"/>
	</g>
</g>
<rect x="44.105" y="31.717" fill="none" width="17.854" height="0.146"/>
</svg>
