<svg xmlns="http://www.w3.org/2000/svg" width="38.265" height="21.096" viewBox="0 0 38.265 21.096"><defs><style>.a{fill:#ffd400;}.b{fill:#fdba12;}.c{fill:#555a66;}.d{fill:#414952;}.e{fill:#fff;}.f{fill:#e9edf5;}</style></defs><g transform="translate(0 0)"><g transform="translate(0 0)"><path class="a" d="M82.977,163.1H53.74a4.514,4.514,0,0,0-4.514-4.514V146.515A4.514,4.514,0,0,0,53.74,142H82.977a4.514,4.514,0,0,0,4.514,4.514v12.068A4.514,4.514,0,0,0,82.977,163.1Z" transform="translate(-49.226 -142.001)"/></g><g transform="translate(19.499 0)"><path class="b" d="M274.211,142H259.959v21.1h14.252a4.514,4.514,0,0,1,4.514-4.514V146.515A4.514,4.514,0,0,1,274.211,142Z" transform="translate(-259.959 -142.001)"/></g><g transform="translate(9.868 6.66)"><path class="c" d="M158.707,221.5l-2.83-7.522h2.2l1.849,5.424,1.861-5.424h2.2l-2.842,7.522Z" transform="translate(-155.877 -213.981)"/><path class="c" d="M249.479,221.5v-7.522h1.94V221.5Z" transform="translate(-240.818 -213.981)"/><g transform="translate(9.631)"><path class="d" d="M259.959,221.5v-7.522h.97V221.5Z" transform="translate(-259.959 -213.981)"/><path class="d" d="M285.066,221.5v-7.522h3.766a2.5,2.5,0,1,1,0,5h-1.827V221.5Zm4.409-5.018a.807.807,0,0,0-.9-.812h-1.568v1.613h1.568A.805.805,0,0,0,289.475,216.484Z" transform="translate(-282.743 -213.981)"/></g></g><g transform="translate(1.188 6.711)"><path class="e" d="M66.106,214.528l1.247,2.526,2.788.405-2.017,1.966L68.6,222.2l-2.494-1.311L63.612,222.2l.476-2.777-2.017-1.966,2.788-.405Z" transform="translate(-62.071 -214.528)"/><g transform="translate(27.818)"><path class="f" d="M366.752,214.528,368,217.054l2.788.405-2.017,1.966.476,2.777-2.494-1.311-2.494,1.311.476-2.777-2.017-1.966,2.788-.405Z" transform="translate(-362.717 -214.528)"/></g></g></g></svg>