<svg xmlns="http://www.w3.org/2000/svg" width="32.694" height="20.927" viewBox="0 0 32.694 20.927"><defs><style>.a{fill:#983300;}.b{fill:#630;}.c{fill:#d5681e;}.d{fill:#f93;}</style></defs><path class="a" d="M30.689,21.112H3.469C1.553,21.112,0,22.2,0,23.532V39.619c0,1.337,1.553,2.42,3.469,2.42H27.22c1.916,0,3.469-1.084,3.469-2.42V21.112Z" transform="translate(0 -21.112)"/><rect class="b" width="15.936" height="7.644" transform="translate(16.758 8.703)"/><g transform="translate(0 0)"><path class="c" d="M15.345,21.112H3.469C1.553,21.112,0,22.2,0,23.532V39.619c0,1.337,1.553,2.42,3.469,2.42H15.345V21.112Z" transform="translate(0 -21.112)"/><path class="c" d="M30.689,21.112H3.469a3.469,3.469,0,1,0,0,6.938h27.22Z" transform="translate(0 -21.112)"/></g><path class="d" d="M15.345,21.112H3.469a3.469,3.469,0,1,0,0,6.938H15.345V21.112Z" transform="translate(0 -21.112)"/><g transform="translate(8.834 2.468)"><rect class="b" width="5.096" height="2.001" transform="translate(0 0)"/><rect class="b" width="13.931" height="2.001" transform="translate(7.924 0)"/></g><path class="d" d="M429.552,287.979a1.427,1.427,0,1,0,1.427,1.427A1.429,1.429,0,0,0,429.552,287.979Z" transform="translate(-400.787 -276.633)"/></svg>