<svg xmlns="http://www.w3.org/2000/svg" xmlns:xlink="http://www.w3.org/1999/xlink" width="428" height="428" viewBox="0 0 428 428">
  <defs>
    <linearGradient id="linear-gradient" x1="0.382" y1="-0.143" x2="0.55" y2="0.881" gradientUnits="objectBoundingBox">
      <stop offset="0" stop-color="#fff"/>
      <stop offset="0.085" stop-color="#f5f5f5"/>
      <stop offset="0.229" stop-color="#dadada"/>
      <stop offset="0.413" stop-color="#afafaf"/>
      <stop offset="0.631" stop-color="#747474"/>
      <stop offset="0.876" stop-color="#292929"/>
      <stop offset="1"/>
    </linearGradient>
    <linearGradient id="linear-gradient-2" x1="0" y1="0.5" x2="1" y2="0.5" xlink:href="#linear-gradient"/>
    <linearGradient id="linear-gradient-5" x1="-99.231" y1="56.686" x2="-98.946" y2="56.686" gradientUnits="objectBoundingBox">
      <stop offset="0" stop-color="#fff"/>
      <stop offset="0.256" stop-color="#c1c1c1"/>
      <stop offset="0.845" stop-color="#292929"/>
      <stop offset="1"/>
    </linearGradient>
    <clipPath id="clip-forgot_password">
      <rect width="428" height="428"/>
    </clipPath>
  </defs>
  <g id="forgot_password" clip-path="url(#clip-forgot_password)">
    <g id="Composant_1_1" data-name="Composant 1 – 1" transform="translate(0 25)">
      <g id="Groupe_2716" data-name="Groupe 2716" transform="translate(20.592 290.493)">
        <path id="Tracé_7613" data-name="Tracé 7613" d="M553.7,603.616c-42.168-12.424-82.164-10.01-118.14-3.361-34.608,6.4-65.474,16.761-90.917,21.593-44.721,8.5-82.306,18.474-131.963-14.664-14.871-9.938-7.279-26.6,22.957-40.488,31.81-14.7,88.677-26.386,170.841-24.146C658.373,549.374,633.422,627.165,553.7,603.616Z" transform="translate(-205.308 -542.274)" fill="rgba(189,197,234,0.4)"/>
        <path id="Tracé_7614" data-name="Tracé 7614" d="M435.564,590.412c-34.608,6.4-65.474,16.762-90.917,21.593-44.721,8.5-82.306,18.474-131.963-14.664-14.871-9.938-7.279-26.6,22.957-40.488,20.856-6.021,46.473-9.554,74.152-9.554C373.484,547.3,426.221,566.02,435.564,590.412Z" transform="translate(-205.308 -532.431)" opacity="0.5" fill="url(#linear-gradient)" style="mix-blend-mode: overlay;isolation: isolate"/>
      </g>
      <g id="Groupe_2717" data-name="Groupe 2717">
        <path id="Tracé_7615" data-name="Tracé 7615" d="M472.888,687.934a44.011,44.011,0,0,0-13.578-5.95,59.255,59.255,0,0,0-14.522-1.888c-15.853-.316-33.91,4.234-52.982,9.764-5.494,1.574-11.024,3.219-16.658,4.9-27.084,8.051-55.536,15.959-82.2,13.72-16.028-1.332-31.425-6.3-45.529-17.182-15.817-12.11-29.954-31.6-41.5-61.521-.281-.734-.559-1.471-.769-2.2-12.669-34.715-6.474-67.436,9.027-93.331,29.99-50.148,94.8-74.854,125.981-39.334,37.058,42.168,77.442,38.319,98.58,19.211a45.521,45.521,0,0,0,12.947-19.492c10.708-32.614,63.2-67.643,106.663-41.257q2.308,1.416,4.2,2.834c29.744,22.327-9.2,51.476.734,97.284,10.323,47.769,46.228,17.954,56.027,61.731C631.586,670.3,528.74,724.957,472.888,687.934Z" transform="translate(-198.348 -444.094)" fill="rgba(189,197,234,0.4)"/>
        <path id="Tracé_7616" data-name="Tracé 7616" d="M322.6,679.918a44.015,44.015,0,0,0-13.578-5.95,59.247,59.247,0,0,0-14.522-1.888,149.8,149.8,0,0,1-19.247-66.7c-.107-2.414-.175-4.864-.175-7.314A150.457,150.457,0,0,1,412.253,448.186c29.744,22.327-9.2,51.476.734,97.284,10.323,47.769,46.228,17.954,56.027,61.731C481.3,662.281,378.449,716.941,322.6,679.918Z" transform="translate(-48.057 -436.078)" opacity="0.5" fill="url(#linear-gradient-2)" style="mix-blend-mode: overlay;isolation: isolate"/>
        <path id="Tracé_7617" data-name="Tracé 7617" d="M428.257,491.562A142.2,142.2,0,0,1,203.7,511.684c29.99-50.148,94.8-74.854,125.981-39.334C366.736,514.519,407.12,510.669,428.257,491.562Z" transform="translate(-187.87 -421.539)" opacity="0.5" fill="url(#linear-gradient-2)" style="mix-blend-mode: overlay;isolation: isolate"/>
        <path id="Tracé_7618" data-name="Tracé 7618" d="M370.647,591.225c-27.084,8.051-55.536,15.959-82.2,13.72-16.028-1.331-31.425-6.3-45.529-17.182-15.817-12.11-29.954-31.6-41.5-61.521-.281-.734-.559-1.471-.769-2.2a100.692,100.692,0,0,1,68.9-27.087,82.972,82.972,0,0,1,8.4.388,101.053,101.053,0,0,1,70.548,37.408c2.1,2.624,4.1,5.355,5.95,8.19A100.259,100.259,0,0,1,370.647,591.225Z" transform="translate(-193.847 -340.561)" opacity="0.5" fill="url(#linear-gradient-2)" style="mix-blend-mode: overlay;isolation: isolate"/>
      </g>
    </g>
    <g id="Groupe_2822" data-name="Groupe 2822" transform="translate(-36.393 -2.819)">
      <path id="_ionicons_svg_ios-arrow-back" data-name=" ionicons svg ios-arrow-back" d="M45.476,30.819l-8.663,8.656a1.442,1.442,0,0,0-.042,1.991l8.7,8.716a1.444,1.444,0,1,0,2.045-2.039L39.876,40.5l7.646-7.64" transform="translate(0)" fill="#fff"/>
      <g id="Groupe_2926" data-name="Groupe 2926" transform="translate(48.25 41.951)">
        <g id="Groupe_2902" data-name="Groupe 2902" transform="translate(105.368 190.498)">
          <g id="Groupe_2901" data-name="Groupe 2901">
            <g id="Groupe_2900" data-name="Groupe 2900">
              <path id="Tracé_7922" data-name="Tracé 7922" d="M235.178,401.752v14.3a15.283,15.283,0,0,1-.539,4.033,16.216,16.216,0,0,1-31.433,0,15.264,15.264,0,0,1-.5-4.033v-14.3a3.341,3.341,0,0,1,.961-2.382,3.4,3.4,0,0,1,2.537-1.114h25.438a3.494,3.494,0,0,1,3.536,3.451Z" transform="translate(-185.532 -302.955)"/>
              <path id="Tracé_7923" data-name="Tracé 7923" d="M235.178,401.752v5.8a15.01,15.01,0,0,1-.539,4c-1.768,7.032-8.108,8.492-15.678,8.492-7.609,0-13.949-1.459-15.756-8.492a14.99,14.99,0,0,1-.5-4v-5.8a3.341,3.341,0,0,1,.961-2.382,3.4,3.4,0,0,1,2.537-1.114h25.438a3.494,3.494,0,0,1,3.537,3.449Z" transform="translate(-185.532 -302.955)" fill="#fafd06"/>
              <g id="Groupe_2893" data-name="Groupe 2893" transform="translate(30.234)">
                <path id="Tracé_7924" data-name="Tracé 7924" d="M225.316,282.783l-1.016,9.912a2.213,2.213,0,0,1-4.4,0l-.339-3.178-.677-6.732a2.227,2.227,0,0,1,1.984-2.446c.073-.007.146-.011.219-.012h2.075a2.124,2.124,0,0,1,1.992,1.357A1.978,1.978,0,0,1,225.316,282.783Z" transform="translate(-218.867 -280.326)" fill="#e8e818"/>
              </g>
              <g id="Groupe_2894" data-name="Groupe 2894" transform="translate(54.15 8.275)">
                <path id="Tracé_7925" data-name="Tracé 7925" d="M259.822,295.943l-7.729,6.29a2.213,2.213,0,0,1-3.117-3.116l2.007-2.486,4.285-5.243a2.228,2.228,0,0,1,3.135-.323,2.1,2.1,0,0,1,.161.145l1.468,1.468a2.123,2.123,0,0,1,.449,2.367A1.972,1.972,0,0,1,259.822,295.943Z" transform="translate(-248.462 -290.566)" fill="#e8e818"/>
              </g>
              <g id="Groupe_2895" data-name="Groupe 2895" transform="translate(0.579 8.277)">
                <path id="Tracé_7926" data-name="Tracé 7926" d="M183.011,295.944l7.726,6.29a2.213,2.213,0,0,0,3.117-3.116l-2.007-2.486-4.285-5.241a2.228,2.228,0,0,0-3.135-.323,2.1,2.1,0,0,0-.161.145L182.8,292.68a2.123,2.123,0,0,0-.449,2.367A1.949,1.949,0,0,0,183.011,295.944Z" transform="translate(-182.17 -290.568)" fill="#e8e818"/>
              </g>
              <path id="Tracé_7927" data-name="Tracé 7927" d="M249.083,358.8a33.774,33.774,0,0,1-33.735,33.814h-.079c-.693,0-1.383-.038-2.075-.077a9.448,9.448,0,0,1-1.036-.077,33.084,33.084,0,0,1-13.527-4.226A33.96,33.96,0,0,1,186.3,376.2a33.47,33.47,0,0,1-4.842-17.407c0-18.637,15.14-42.617,33.816-42.617,10.067,0,19.1,6.955,25.246,16.293C245.856,340.429,249.083,350.19,249.083,358.8Z" transform="translate(-181.454 -287.206)" fill="#f7f35c"/>
              <g id="Groupe_2897" data-name="Groupe 2897" transform="translate(37.256 55.269)">
                <g id="Groupe_2896" data-name="Groupe 2896" transform="translate(0 6.634)">
                  <path id="Tracé_7928" data-name="Tracé 7928" d="M235.393,357.692l-.974,1.016h-.043l-3.557,3.6a7.323,7.323,0,0,0-2.2,5.294v32.41c-.38.04-.72.126-1.059.169V367.605a8.525,8.525,0,0,1,2.5-6.057l3.43-3.475,1.144-1.144Z" transform="translate(-227.556 -356.929)" fill="#1b2c7b"/>
                </g>
                <path id="Tracé_7929" data-name="Tracé 7929" d="M235.358,354.646l5.285-5.285a1.6,1.6,0,0,1,2.185-.341l2.047,2.049c.7.694.126,2.154-1.042,2.669l-7.332,3.236C234.89,357.684,234.042,355.961,235.358,354.646Z" transform="translate(-228.929 -348.719)" fill="#e90566"/>
              </g>
              <g id="Groupe_2899" data-name="Groupe 2899" transform="translate(15.494 66.21)">
                <g id="Groupe_2898" data-name="Groupe 2898" transform="translate(8.42 6.667)">
                  <path id="Tracé_7930" data-name="Tracé 7930" d="M218.883,381.14v21.9c-.339-.04-.72-.083-1.059-.126V381.14a7.333,7.333,0,0,0-2.2-5.3l-3.56-3.557-1.016-1.059.72-.72,1.186,1.185,3.432,3.39A8.526,8.526,0,0,1,218.883,381.14Z" transform="translate(-211.046 -370.508)" fill="#1b2c7b"/>
                </g>
                <path id="Tracé_7931" data-name="Tracé 7931" d="M210.446,368.183l-5.285-5.283a1.6,1.6,0,0,0-2.184-.341l-2.049,2.047c-.694.7-.126,2.156,1.042,2.672l7.332,3.236C210.917,371.226,211.765,369.5,210.446,368.183Z" transform="translate(-200.626 -362.258)" fill="#e90566"/>
              </g>
            </g>
          </g>
        </g>
        <g id="Groupe_2912" data-name="Groupe 2912" transform="translate(0 41.85)">
          <g id="Groupe_2905" data-name="Groupe 2905" transform="translate(0 45.486)">
            <g id="Groupe_2904" data-name="Groupe 2904">
              <g id="Groupe_2903" data-name="Groupe 2903">
                <path id="Tracé_7933" data-name="Tracé 7933" d="M87.182,173.038a2.571,2.571,0,0,0,2.039-3l-.616-3.342a2.512,2.512,0,0,0-2.9-2.047l-.055.011-2.845.5a11.544,11.544,0,0,0-1.383-2.151l1.574-2.307.077-.077a2.583,2.583,0,0,0-.612-3.574l-2.8-1.919a2.617,2.617,0,0,0-3.575.654l-1.651,2.344a13.1,13.1,0,0,0-2.5-.5l-.5-2.883a2.579,2.579,0,0,0-3-2.036l-3.3.615a2.509,2.509,0,0,0-2.091,2.866c0,.032.011.062.016.094l.5,2.842a12.852,12.852,0,0,0-2.151,1.384l-2.382-1.653a2.539,2.539,0,0,0-3.532.649l0,.006-1.922,2.767a2.542,2.542,0,0,0,.612,3.543l.043.029,2.344,1.653a18,18,0,0,0-.537,2.5l-2.844.5a2.606,2.606,0,0,0-2.075,3l.612,3.342a2.542,2.542,0,0,0,2.959,2.036l2.844-.5a20.67,20.67,0,0,0,1.384,2.154l-1.613,2.344c0,.038,0,.038-.038.077a2.518,2.518,0,0,0,.654,3.5l2.8,1.96a2.539,2.539,0,0,0,3.532-.646l0-.006,1.651-2.384a13.734,13.734,0,0,0,2.5.577l.5,2.806a2.579,2.579,0,0,0,3,2.075l3.342-.578a2.57,2.57,0,0,0,2.036-3l-.5-2.844a11.241,11.241,0,0,0,2.151-1.383l2.384,1.653a2.59,2.59,0,0,0,3.573-.654l1.922-2.806a2.59,2.59,0,0,0-.652-3.573l-2.384-1.615a13.835,13.835,0,0,0,.577-2.5Zm-15.1,9.26a10.693,10.693,0,1,1,7.962-6.341A10.7,10.7,0,0,1,72.083,182.3Z" transform="translate(-51.066 -152.669)"/>
                <path id="Tracé_7934" data-name="Tracé 7934" d="M82.723,171.881a10.717,10.717,0,1,0-8.647,12.409A10.74,10.74,0,0,0,82.723,171.881Zm-9.337,8.569a6.76,6.76,0,0,1-7.648-4.42,10.153,10.153,0,0,1-.268-1.036,6.816,6.816,0,0,1,5.453-7.949l.043-.008a8.237,8.237,0,0,1,1.344-.115,6.906,6.906,0,0,1,6.57,5.65,6.8,6.8,0,0,1-5.494,7.879Z" transform="translate(-53.061 -154.662)" fill="#fafd06"/>
              </g>
            </g>
          </g>
          <g id="Groupe_2908" data-name="Groupe 2908" transform="translate(51.575 64.599)">
            <g id="Groupe_2907" data-name="Groupe 2907">
              <g id="Groupe_2906" data-name="Groupe 2906">
                <path id="Tracé_7935" data-name="Tracé 7935" d="M158.25,200.8a3.085,3.085,0,0,0,2.458-3.573l-.731-4.035a3.027,3.027,0,0,0-3.5-2.466l-.036.006-2.959.539-.462.077a15,15,0,0,0-1.689-2.575l2-2.883a3.076,3.076,0,0,0-.769-4.265l-3.342-2.307a3.115,3.115,0,0,0-4.3.769l-1.96,2.8a18.407,18.407,0,0,0-3.036-.612l-.612-3.422a3.054,3.054,0,0,0-3.525-2.5l-.011,0-4,.731a3.083,3.083,0,0,0-2.5,3.573l.616,3.422a18.734,18.734,0,0,0-2.614,1.651l-2.844-1.96a3.077,3.077,0,0,0-4.268.769l-2.307,3.342a3.031,3.031,0,0,0-.539,2.113,2.9,2.9,0,0,0,1.306,2.154l.347.23,2.5,1.768-.23.8a13.05,13.05,0,0,0-.423,2.192l-3.422.612a3.064,3.064,0,0,0-2.459,3.569v.006l.728,4a3.056,3.056,0,0,0,3.527,2.5l.01,0,3.419-.615a19.647,19.647,0,0,0,1.653,2.575l-1.96,2.845a3.06,3.06,0,0,0,.763,4.26l.006,0,3.347,2.347a3.075,3.075,0,0,0,4.264-.767l2-2.845a15.447,15.447,0,0,0,3,.651l.616,3.422a3.082,3.082,0,0,0,3.6,2.462l.014,0,3.958-.69a3.1,3.1,0,0,0,2.5-3.607v-.006l-.616-3.381a16.57,16.57,0,0,0,2.575-1.691l2.845,2a3.126,3.126,0,0,0,4.3-.768l2.344-3.381a3.073,3.073,0,0,0-.769-4.264l-2.88-1.96a16.748,16.748,0,0,0,.652-3Zm-18.137,11.143a12.865,12.865,0,0,1-14.948-10.37v0a12.221,12.221,0,0,1-.115-3.728,12.853,12.853,0,0,1,25.093-2.229,9.029,9.029,0,0,1,.345,1.383,12.863,12.863,0,0,1-10.371,14.947Z" transform="translate(-114.887 -176.32)"/>
                <path id="Tracé_7936" data-name="Tracé 7936" d="M152.879,199.4a9.128,9.128,0,0,0-.345-1.383,12.853,12.853,0,0,0-25.094,2.228,12.221,12.221,0,0,0,.115,3.728,12.866,12.866,0,0,0,25.323-4.574h0Zm-11.221,10.339a8.186,8.186,0,0,1-9.492-6.572,7.5,7.5,0,0,1-.077-.922,8.16,8.16,0,0,1,16.178-2,2.334,2.334,0,0,1,.038.731,8.091,8.091,0,0,1-6.647,8.762Z" transform="translate(-117.278 -178.718)" fill="#fafd06"/>
              </g>
            </g>
          </g>
          <g id="Groupe_2911" data-name="Groupe 2911" transform="translate(28.611)">
            <g id="Groupe_2910" data-name="Groupe 2910">
              <g id="Groupe_2909" data-name="Groupe 2909">
                <path id="Tracé_7937" data-name="Tracé 7937" d="M140.593,126.907a3.861,3.861,0,0,0,3.113-4.457l-.922-5a3.813,3.813,0,0,0-4.428-3.079l-.029.006-4.265.769a11.321,11.321,0,0,0-.848-1.459,20.938,20.938,0,0,0-1.229-1.766l2.5-3.575a3.914,3.914,0,0,0-.961-5.379l-4.19-2.845a3.855,3.855,0,0,0-5.341.961l-2.5,3.535a19.451,19.451,0,0,0-3.726-.8l-.807-4.267a3.834,3.834,0,0,0-4.42-3.113l-4.995.922a3.833,3.833,0,0,0-3.116,4.437l0,.022.769,4.265a22.856,22.856,0,0,0-3.228,2.036L98.4,105.7a3.82,3.82,0,0,0-5.3.961l-2.883,4.15a3.8,3.8,0,0,0,.895,5.3l.066.046,3.536,2.5a19.989,19.989,0,0,0-.807,3.728l-4.264.769a3.888,3.888,0,0,0-3.113,4.457l.922,5.034a3.843,3.843,0,0,0,4.457,3.074l4.265-.769a25.6,25.6,0,0,0,2.036,3.228l-2.42,3.536a3.788,3.788,0,0,0,.88,5.284l.081.057,4.15,2.919a3.861,3.861,0,0,0,5.341-.961l2.461-3.573a20.869,20.869,0,0,0,3.767.848l.769,4.226a3.794,3.794,0,0,0,4.357,3.131l.1-.018,2.765-.5,2.228-.383a3.853,3.853,0,0,0,3.076-4.5l-.769-4.229a19.287,19.287,0,0,0,3.228-2.075l3.575,2.461a3.869,3.869,0,0,0,5.34-.961l2.919-4.19a3.919,3.919,0,0,0-.961-5.381l-3.575-2.42a20.4,20.4,0,0,0,.807-3.767Zm-22.632,13.95a17.954,17.954,0,0,1-3.19.268A16.076,16.076,0,1,1,128.1,115.571a15.3,15.3,0,0,1,2.844,6.61,16.112,16.112,0,0,1-12.987,18.675Z" transform="translate(-86.47 -96.382)"/>
                <path id="Tracé_7938" data-name="Tracé 7938" d="M133.931,125.169a15.3,15.3,0,0,0-2.844-6.611,16.082,16.082,0,1,0-13.333,25.553,17.954,17.954,0,0,0,3.19-.268A16.112,16.112,0,0,0,133.931,125.169Zm-14.026,12.91a8.846,8.846,0,0,1-2.461.117,10.216,10.216,0,1,1,8.685-16.486,9.789,9.789,0,0,1,2.036,4.536A10.223,10.223,0,0,1,119.906,138.079Z" transform="translate(-89.452 -99.369)" fill="#fafd06"/>
              </g>
            </g>
          </g>
          <path id="Tracé_7940" data-name="Tracé 7940" d="M111.047,195.386a2.886,2.886,0,0,1-1.306-2.154c.5.807,1.076,1.615,1.651,2.384Z" transform="translate(-62.325 -114.966)" opacity="0.7" fill="url(#linear-gradient-5)" style="isolation: isolate"/>
        </g>
        <g id="Groupe_2925" data-name="Groupe 2925" transform="translate(303.42 128.061)">
          <g id="Groupe_2923" data-name="Groupe 2923" transform="translate(46.656 101.027)">
            <path id="Tracé_7952" data-name="Tracé 7952" d="M520.965,471.811a9.518,9.518,0,0,1,1.177,4.3c.047,2.446,10.854.409,10.854.409a51.3,51.3,0,0,0-2.456-5.649,18.17,18.17,0,0,0-2.895-4.4Z" transform="translate(-491.31 -354.635)" fill="#b5805d"/>
            <path id="Tracé_7953" data-name="Tracé 7953" d="M530.6,475.751c1.851,2.079,2.533,4.23,1.994,6.459-7.725,1.717-15.207,3.57-22.5,4.733-.579-2.777,6.026-8,9.906-9.993A12.362,12.362,0,0,0,530.6,475.751Z" transform="translate(-489.216 -356.416)" fill="#1b2c7b"/>
            <path id="Tracé_7954" data-name="Tracé 7954" d="M508.083,328.079c4.116,29.409-3.6,42.261-1.261,53.484S522.3,441.826,522.3,441.826c-1.065,2.141-6.057,3.96-8.988,3.39-11.382-26.256-24.974-56.632-26.682-66.039a170.842,170.842,0,0,1-1.13-48.618Z" transform="translate(-484.268 -328.079)"/>
          </g>
          <g id="Groupe_2924" data-name="Groupe 2924" transform="translate(21.711 103.3)">
            <path id="Tracé_7955" data-name="Tracé 7955" d="M470.5,476.031a9.545,9.545,0,0,1,.311,4.448c-.435,2.406,10.562,2.529,10.562,2.529a50.95,50.95,0,0,0-1.3-6.026A18.3,18.3,0,0,0,478.1,472.1Z" transform="translate(-456.681 -357.988)" fill="#b5805d"/>
            <path id="Tracé_7956" data-name="Tracé 7956" d="M478.909,482.213c1.409,2.4,1.653,4.648.689,6.728-7.912.168-15.613.518-22.994.23-.023-2.84,7.479-6.67,11.672-7.859A12.361,12.361,0,0,0,478.909,482.213Z" transform="translate(-454.015 -359.756)" fill="#1b2c7b"/>
            <path id="Tracé_7957" data-name="Tracé 7957" d="M484.455,332.888c-1.73,29.645-11.811,40.731-11.717,52.2s3.363,62.128,3.363,62.128c-1.466,1.889-6.715,2.7-9.478,1.564-6.016-27.977-13.391-60.427-13.221-69.986a171.015,171.015,0,0,1,8.419-47.9Z" transform="translate(-453.4 -330.892)"/>
          </g>
          <path id="Tracé_7958" data-name="Tracé 7958" d="M493.054,247.6c-1.821-3.082-2.184-6.559-2.341-10.5H482.34a35.9,35.9,0,0,1-1.139,11.676C482.069,250.422,492.228,249.775,493.054,247.6Z" transform="translate(-437.024 -209.595)" fill="#b5805d"/>
          <path id="Tracé_7959" data-name="Tracé 7959" d="M491.874,232.991c-5.32,2.39-9.107,6.707-13.945,4.614-6.827-1.813-6.981-17.2-4.646-24.064l18.566-2.166Z" transform="translate(-435.244 -204.658)" fill="#b5805d"/>
          <path id="Tracé_7960" data-name="Tracé 7960" d="M491.555,231.163l-6.768,5.534-7.062-7.918,4.785-4.913-2.19-2.966-2.595,3.245-1.7-1.962,1.32-5.494c-4.763.562-16.248-1.936-16.248-1.936s5.709-8.984,6.958-11.691c4.765,1.953,11.968,1.173,11.968,1.173l12.85,6.191Z" transform="translate(-433.165 -203.063)"/>
          <path id="Tracé_7961" data-name="Tracé 7961" d="M464.824,229.8s1.851-5,4.863-5.835c3.211-.895,7.088,4.832,6.563,7.021s-4.782.686-4.767,1.758,1.819.975,1.521,2.015-4.829.126-4.829.126Z" transform="translate(-433.881 -207.056)" fill="#b5805d"/>
          <path id="Tracé_7962" data-name="Tracé 7962" d="M494.772,246.781c-7.475-3.983-27.048-3.212-37.931,1.868l-20.263,3.484,27.2-19.511-5.323-4.669c-6.889,10.281-39.95,10.277-30.1,34.5l26.654,4.187c-1.59,20.24-2.976,38.831-.565,50.942,8.528,4.884,38.894,2.812,44.553-2.978C496.751,284.643,503.7,253.67,494.772,246.781Z" transform="translate(-426.534 -207.839)" fill="#fff"/>
        </g>
        <path id="Tracé_7963" data-name="Tracé 7963" d="M493.607,254.305c-7.475-3.638-27.05-2.933-37.932,1.708L435.412,259.2l27.2-17.825-5.323-4.269c-6.892,9.393-39.951,9.388-30.1,31.522l26.647,3.826c-1.587,18.491-2.976,35.474-.565,46.538,8.53,4.462,38.894,2.569,44.555-2.72C495.586,288.895,502.531,260.6,493.607,254.305Z" transform="translate(-122.89 -81.534)" fill="#c7c7c9" opacity="0.29" style="isolation: isolate"/>
        <path id="Tracé_7964" data-name="Tracé 7964" d="M494.772,246.78c-7.475-3.983-27.048-3.212-37.931,1.868l-20.263,3.484,27.2-19.511-5.323-4.669c-6.889,10.281-39.95,10.277-30.1,34.5l26.654,4.187c-1.59,20.24-2.976,38.831-.565,50.941,8.528,4.884,38.894,2.812,44.553-2.978C496.751,284.643,503.7,253.67,494.772,246.78Z" transform="translate(-123.114 -79.778)"/>
        <path id="Tracé_7966" data-name="Tracé 7966" d="M371.438,155.154c-18.983,33.866-53.741,56.77-67.321,64.258l.266-174.818L368.65,63.54a5.029,5.029,0,0,1,3.437,4.823v84.295a4.878,4.878,0,0,1-.65,2.5" transform="translate(-99.623 -44.594)" fill="#3d3d3f" fill-rule="evenodd"/>
        <path id="Tracé_7967" data-name="Tracé 7967" d="M221.206,155.154c18.985,33.866,53.743,56.77,67.321,64.258l-.355-174.818L224,63.54a5.027,5.027,0,0,0-3.44,4.823v84.295a4.873,4.873,0,0,0,.65,2.5" transform="translate(-83.589 -44.594)" fill="#020202" fill-rule="evenodd"/>
        <path id="Tracé_7970" data-name="Tracé 7970" d="M360.756,153.807V81.084a5.032,5.032,0,0,0-3.44-4.824L304.557,58.093v152.03c21.154-12.876,42.868-32.766,55.466-53.684a4.887,4.887,0,0,0,.732-2.632" transform="translate(-99.708 -47.184)" fill="#020202" fill-rule="evenodd"/>
        <path id="Tracé_7971" data-name="Tracé 7971" d="M299.872,94.986a10.59,10.59,0,0,0-10.551,10.549v10.2h21.1v-10.2a10.589,10.589,0,0,0-10.549-10.549m0-7.032a17.622,17.622,0,0,1,17.583,17.581v13.721a3.517,3.517,0,0,1-3.516,3.517H285.806a3.517,3.517,0,0,1-3.517-3.516h0V105.535a17.622,17.622,0,0,1,17.583-17.581Z" transform="translate(-95.435 -52.914)" fill="#f6f9fc"/>
        <path id="Tracé_7972" data-name="Tracé 7972" d="M302.947,121.317h23.447a4.7,4.7,0,0,1,4.686,4.689v43.967a4.7,4.7,0,0,1-4.686,4.691H302.947Z" transform="translate(-99.399 -59.316)" fill="#c5e0fb" fill-rule="evenodd"/>
        <path id="Tracé_7973" data-name="Tracé 7973" d="M275.046,121.317h23.447v53.347H275.046a4.7,4.7,0,0,1-4.686-4.691V126.006a4.7,4.7,0,0,1,4.686-4.689" transform="translate(-93.146 -59.316)" fill="#f3f9ff" fill-rule="evenodd"/>
        <path id="Tracé_7974" data-name="Tracé 7974" d="M303.824,139.894a6.877,6.877,0,0,1,2.8,13.157l.172.492,2.974,8.522h-11.9l2.974-8.522.173-.492a6.877,6.877,0,0,1,2.8-13.157" transform="translate(-98.247 -62.881)" fill="#3ea5ec" fill-rule="evenodd"/>
        <path id="Tracé_7975" data-name="Tracé 7975" d="M306.019,140.223a6.879,6.879,0,0,1,.882,12.886l.172.492,2.974,8.522H299.612l2.887-8.272.171-.491a6.879,6.879,0,0,1,2.8-13.159c.184,0,.365.01.546.022" transform="translate(-98.563 -62.94)" fill="#1369b1" fill-rule="evenodd"/>
        <text id="_" data-name="?" transform="matrix(0.856, 0.517, -0.517, 0.856, 369.622, 116.803)" font-size="62" font-family="MyriadPro-Regular, Myriad Pro" style="isolation: isolate"><tspan x="0" y="0">?</tspan></text>
        <text id="_2" data-name="?" transform="translate(351.003 112.005) rotate(-6.258)" font-size="40" font-family="MyriadPro-Regular, Myriad Pro" style="isolation: isolate"><tspan x="0" y="0">?</tspan></text>
        <text id="_3" data-name="?" transform="translate(322.391 118.003) rotate(-37.932)" font-size="48" font-family="MyriadPro-Regular, Myriad Pro" style="isolation: isolate"><tspan x="0" y="0">?</tspan></text>
        <text id="_4" data-name="?" transform="matrix(0.517, -0.856, 0.856, 0.517, 310.186, 142.611)" font-size="33" font-family="MyriadPro-Regular, Myriad Pro" style="isolation: isolate"><tspan x="0" y="0">?</tspan></text>
      </g>
    </g>
  </g>
</svg>
