<svg xmlns="http://www.w3.org/2000/svg" xmlns:xlink="http://www.w3.org/1999/xlink" width="428" height="428" viewBox="0 0 428 428">
  <defs>
    <linearGradient id="linear-gradient" x1="0.382" y1="-0.143" x2="0.55" y2="0.881" gradientUnits="objectBoundingBox">
      <stop offset="0" stop-color="#fff"/>
      <stop offset="0.085" stop-color="#f5f5f5"/>
      <stop offset="0.229" stop-color="#dadada"/>
      <stop offset="0.413" stop-color="#afafaf"/>
      <stop offset="0.631" stop-color="#747474"/>
      <stop offset="0.876" stop-color="#292929"/>
      <stop offset="1"/>
    </linearGradient>
    <linearGradient id="linear-gradient-2" x1="0" y1="0.5" x2="1" y2="0.5" xlink:href="#linear-gradient"/>
    <linearGradient id="linear-gradient-5" x1="-81.907" y1="124.198" x2="-81.429" y2="124.198" gradientUnits="objectBoundingBox">
      <stop offset="0" stop-color="#fff"/>
      <stop offset="0.256" stop-color="#c1c1c1"/>
      <stop offset="0.845" stop-color="#292929"/>
      <stop offset="1"/>
    </linearGradient>
    <linearGradient id="linear-gradient-6" x1="-8.876" y1="10.656" x2="-8.911" y2="10.562" gradientUnits="objectBoundingBox">
      <stop offset="0" stop-color="#f6f6f6"/>
      <stop offset="1" stop-color="#8ebce0"/>
    </linearGradient>
    <linearGradient id="linear-gradient-7" x1="-20.035" y1="19.256" x2="-20.105" y2="19.069" xlink:href="#linear-gradient-6"/>
    <linearGradient id="linear-gradient-8" x1="-28.679" y1="19.258" x2="-28.75" y2="19.071" xlink:href="#linear-gradient-6"/>
    <linearGradient id="linear-gradient-9" x1="-17.131" y1="26.012" x2="-17.202" y2="25.825" xlink:href="#linear-gradient-6"/>
    <linearGradient id="linear-gradient-10" x1="-6.204" y1="5.709" x2="-6.222" y2="5.662" xlink:href="#linear-gradient-6"/>
    <linearGradient id="linear-gradient-11" x1="-1.62" y1="2.759" x2="-1.619" y2="2.759" gradientUnits="objectBoundingBox">
      <stop offset="0" stop-color="#670b52"/>
      <stop offset="1" stop-color="#0a1c3c"/>
    </linearGradient>
    <linearGradient id="linear-gradient-12" x1="-1.623" y1="2.816" x2="-1.618" y2="2.816" gradientUnits="objectBoundingBox">
      <stop offset="0" stop-color="#2fac66"/>
      <stop offset="1" stop-color="#006680"/>
    </linearGradient>
    <linearGradient id="linear-gradient-13" x1="-3.402" y1="5.338" x2="-3.402" y2="5.374" xlink:href="#linear-gradient-6"/>
    <linearGradient id="linear-gradient-14" x1="-7.731" y1="18.526" x2="-7.731" y2="18.511" gradientUnits="objectBoundingBox">
      <stop offset="0" stop-color="#f6f6f6"/>
      <stop offset="1" stop-color="#c9d6ff"/>
    </linearGradient>
    <linearGradient id="linear-gradient-15" x1="-13.003" y1="36.356" x2="-12.984" y2="36.294" gradientUnits="objectBoundingBox">
      <stop offset="0" stop-color="#fad6c7"/>
      <stop offset="1" stop-color="#e4857f"/>
    </linearGradient>
    <linearGradient id="linear-gradient-16" x1="-25.293" y1="28.113" x2="-25.286" y2="28.225" xlink:href="#linear-gradient-11"/>
    <linearGradient id="linear-gradient-17" x1="-80.617" y1="53.155" x2="-80.594" y2="53.077" xlink:href="#linear-gradient-6"/>
    <linearGradient id="linear-gradient-18" x1="-23.319" y1="70.448" x2="-23.319" y2="70.476" xlink:href="#linear-gradient-11"/>
    <linearGradient id="linear-gradient-19" x1="-8.975" y1="15.255" x2="-8.98" y2="15.284" xlink:href="#linear-gradient-15"/>
    <linearGradient id="linear-gradient-20" x1="-25.857" y1="11.827" x2="-25.84" y2="11.855" xlink:href="#linear-gradient-6"/>
    <linearGradient id="linear-gradient-21" x1="-11.001" y1="6.319" x2="-11.012" y2="6.329" xlink:href="#linear-gradient-15"/>
    <linearGradient id="linear-gradient-22" x1="-24.7" y1="15.292" x2="-24.677" y2="15.337" xlink:href="#linear-gradient-6"/>
    <linearGradient id="linear-gradient-23" x1="-134.483" y1="20.933" x2="-134.483" y2="20.963" xlink:href="#linear-gradient-11"/>
    <linearGradient id="linear-gradient-24" x1="-11.334" y1="9.403" x2="-11.325" y2="9.381" xlink:href="#linear-gradient-6"/>
    <linearGradient id="linear-gradient-25" x1="-28.35" y1="9.756" x2="-28.299" y2="9.757" xlink:href="#linear-gradient-15"/>
    <linearGradient id="linear-gradient-26" x1="-26.636" y1="91.969" x2="-26.617" y2="92.057" xlink:href="#linear-gradient-15"/>
    <linearGradient id="linear-gradient-27" x1="-31.689" y1="813.548" x2="-31.555" y2="814.627" gradientUnits="objectBoundingBox">
      <stop offset="0" stop-color="#f7c9aa"/>
      <stop offset="1" stop-color="#ff717a"/>
    </linearGradient>
    <linearGradient id="linear-gradient-28" x1="-28.717" y1="38.321" x2="-28.717" y2="38.117" xlink:href="#linear-gradient-11"/>
    <linearGradient id="linear-gradient-29" x1="-33.68" y1="20.697" x2="-33.68" y2="20.653" xlink:href="#linear-gradient-11"/>
    <linearGradient id="linear-gradient-30" x1="-37.188" y1="17.825" x2="-37.169" y2="17.886" xlink:href="#linear-gradient-11"/>
    <linearGradient id="linear-gradient-31" x1="-128.366" y1="18.939" x2="-128.357" y2="18.991" xlink:href="#linear-gradient-6"/>
    <linearGradient id="linear-gradient-32" x1="-22.757" y1="20.388" x2="-22.743" y2="20.533" xlink:href="#linear-gradient-11"/>
    <linearGradient id="linear-gradient-33" x1="-17.125" y1="38.132" x2="-17.116" y2="38.895" xlink:href="#linear-gradient-11"/>
    <linearGradient id="linear-gradient-34" x1="-14.307" y1="28.982" x2="-14.306" y2="28.954" xlink:href="#linear-gradient-14"/>
    <linearGradient id="linear-gradient-35" x1="-25.527" y1="32.733" x2="-25.471" y2="32.642" xlink:href="#linear-gradient-15"/>
    <linearGradient id="linear-gradient-36" x1="-57.443" y1="32.935" x2="-57.445" y2="32.893" gradientUnits="objectBoundingBox">
      <stop offset="0" stop-color="#2ab7fa"/>
      <stop offset="1" stop-color="#2262b9"/>
    </linearGradient>
    <linearGradient id="linear-gradient-37" x1="-25.663" y1="13.118" x2="-25.616" y2="13.12" xlink:href="#linear-gradient-15"/>
    <linearGradient id="linear-gradient-38" x1="-64.972" y1="28.65" x2="-64.814" y2="28.638" xlink:href="#linear-gradient-36"/>
    <linearGradient id="linear-gradient-39" x1="-17.763" y1="8.386" x2="-17.722" y2="8.395" xlink:href="#linear-gradient-15"/>
    <linearGradient id="linear-gradient-40" x1="-23.774" y1="14.09" x2="-23.739" y2="14.082" xlink:href="#linear-gradient-6"/>
    <linearGradient id="linear-gradient-41" x1="-40.404" y1="5.366" x2="-40.371" y2="5.377" xlink:href="#linear-gradient-15"/>
    <linearGradient id="linear-gradient-42" x1="-69.744" y1="23.17" x2="-69.876" y2="23.178" xlink:href="#linear-gradient-6"/>
    <linearGradient id="linear-gradient-43" x1="-24.06" y1="45.708" x2="-24.028" y2="45.761" xlink:href="#linear-gradient-6"/>
    <linearGradient id="linear-gradient-44" x1="-23.205" y1="9.782" x2="-23.149" y2="9.782" xlink:href="#linear-gradient-36"/>
    <linearGradient id="linear-gradient-45" x1="-39.469" y1="16.2" x2="-39.465" y2="16.179" xlink:href="#linear-gradient-36"/>
    <linearGradient id="linear-gradient-46" x1="269.505" y1="463.692" x2="269.748" y2="463.973" xlink:href="#linear-gradient-15"/>
    <linearGradient id="linear-gradient-47" x1="-27.681" y1="97.185" x2="-27.651" y2="97.285" xlink:href="#linear-gradient-15"/>
    <linearGradient id="linear-gradient-48" x1="-471.9" y1="856.528" x2="-472.163" y2="857.233" xlink:href="#linear-gradient-15"/>
    <linearGradient id="linear-gradient-49" x1="-76.098" y1="9.189" x2="-76.059" y2="9.177" xlink:href="#linear-gradient-6"/>
    <linearGradient id="linear-gradient-50" x1="-102.768" y1="24.144" x2="-102.768" y2="24.139" xlink:href="#linear-gradient-36"/>
    <linearGradient id="linear-gradient-51" x1="-172.512" y1="25.776" x2="-172.512" y2="25.771" xlink:href="#linear-gradient-36"/>
    <linearGradient id="linear-gradient-52" x1="-39.239" y1="23.29" x2="-39.229" y2="23.252" xlink:href="#linear-gradient-11"/>
    <linearGradient id="linear-gradient-53" x1="-100.008" y1="33.245" x2="-99.855" y2="33.025" xlink:href="#linear-gradient-14"/>
    <linearGradient id="linear-gradient-54" x1="-99.01" y1="32.829" x2="-98.858" y2="32.609" xlink:href="#linear-gradient-14"/>
    <linearGradient id="linear-gradient-55" x1="-53.879" y1="-18.616" x2="-53.377" y2="-18.913" xlink:href="#linear-gradient-14"/>
    <linearGradient id="linear-gradient-56" x1="-60.074" y1="-18.349" x2="-59.573" y2="-18.646" xlink:href="#linear-gradient-14"/>
    <linearGradient id="linear-gradient-57" x1="-120.9" y1="119.844" x2="-120.745" y2="119.132" xlink:href="#linear-gradient-14"/>
    <linearGradient id="linear-gradient-58" x1="-121.735" y1="122.061" x2="-121.58" y2="121.349" xlink:href="#linear-gradient-14"/>
    <clipPath id="clip-no_match">
      <rect width="428" height="428"/>
    </clipPath>
  </defs>
  <g id="no_match" clip-path="url(#clip-no_match)">
    <g id="Groupe_2821" data-name="Groupe 2821" transform="translate(-55 -107.792)">
      <g id="Groupe_2716" data-name="Groupe 2716" transform="translate(75.592 423.285)">
        <path id="Tracé_7613" data-name="Tracé 7613" d="M553.7,603.616c-42.168-12.424-82.164-10.01-118.14-3.361-34.608,6.4-65.474,16.761-90.917,21.593-44.721,8.5-82.306,18.474-131.963-14.664-14.871-9.938-7.279-26.6,22.957-40.488,31.81-14.7,88.677-26.386,170.841-24.146C658.373,549.374,633.422,627.165,553.7,603.616Z" transform="translate(-205.308 -542.274)" fill="rgba(189,197,234,0.4)"/>
        <path id="Tracé_7614" data-name="Tracé 7614" d="M435.564,590.412c-34.608,6.4-65.474,16.762-90.917,21.593-44.721,8.5-82.306,18.474-131.963-14.664-14.871-9.938-7.279-26.6,22.957-40.488,20.856-6.021,46.473-9.554,74.152-9.554C373.484,547.3,426.221,566.02,435.564,590.412Z" transform="translate(-205.308 -532.431)" opacity="0.5" fill="url(#linear-gradient)" style="mix-blend-mode: overlay;isolation: isolate"/>
      </g>
      <g id="Groupe_2717" data-name="Groupe 2717" transform="translate(55 132.792)">
        <path id="Tracé_7615" data-name="Tracé 7615" d="M472.888,687.934a44.011,44.011,0,0,0-13.578-5.95,59.255,59.255,0,0,0-14.522-1.888c-15.853-.316-33.91,4.234-52.982,9.764-5.494,1.574-11.024,3.219-16.658,4.9-27.084,8.051-55.536,15.959-82.2,13.72-16.028-1.332-31.425-6.3-45.529-17.182-15.817-12.11-29.954-31.6-41.5-61.521-.281-.734-.559-1.471-.769-2.2-12.669-34.715-6.474-67.436,9.027-93.331,29.99-50.148,94.8-74.854,125.981-39.334,37.058,42.168,77.442,38.319,98.58,19.211a45.521,45.521,0,0,0,12.947-19.492c10.708-32.614,63.2-67.643,106.663-41.257q2.308,1.416,4.2,2.834c29.744,22.327-9.2,51.476.734,97.284,10.323,47.769,46.228,17.954,56.027,61.731C631.586,670.3,528.74,724.957,472.888,687.934Z" transform="translate(-198.348 -444.094)" fill="rgba(189,197,234,0.4)"/>
        <path id="Tracé_7616" data-name="Tracé 7616" d="M322.6,679.918a44.015,44.015,0,0,0-13.578-5.95,59.247,59.247,0,0,0-14.522-1.888,149.8,149.8,0,0,1-19.247-66.7c-.107-2.414-.175-4.864-.175-7.314A150.457,150.457,0,0,1,412.253,448.186c29.744,22.327-9.2,51.476.734,97.284,10.323,47.769,46.228,17.954,56.027,61.731C481.3,662.281,378.449,716.941,322.6,679.918Z" transform="translate(-48.057 -436.078)" opacity="0.5" fill="url(#linear-gradient-2)" style="mix-blend-mode: overlay;isolation: isolate"/>
        <path id="Tracé_7617" data-name="Tracé 7617" d="M428.257,491.562A142.2,142.2,0,0,1,203.7,511.684c29.99-50.148,94.8-74.854,125.981-39.334C366.736,514.519,407.12,510.669,428.257,491.562Z" transform="translate(-187.87 -421.539)" opacity="0.5" fill="url(#linear-gradient-2)" style="mix-blend-mode: overlay;isolation: isolate"/>
        <path id="Tracé_7618" data-name="Tracé 7618" d="M370.647,591.225c-27.084,8.051-55.536,15.959-82.2,13.72-16.028-1.331-31.425-6.3-45.529-17.182-15.817-12.11-29.954-31.6-41.5-61.521-.281-.734-.559-1.471-.769-2.2a100.692,100.692,0,0,1,68.9-27.087,82.972,82.972,0,0,1,8.4.388,101.053,101.053,0,0,1,70.548,37.408c2.1,2.624,4.1,5.355,5.95,8.19A100.259,100.259,0,0,1,370.647,591.225Z" transform="translate(-193.847 -340.561)" opacity="0.5" fill="url(#linear-gradient-2)" style="mix-blend-mode: overlay;isolation: isolate"/>
      </g>
    </g>
    <g id="Groupe_2901" data-name="Groupe 2901" transform="translate(-36.915 17.375)">
      <g id="Groupe_2888" data-name="Groupe 2888" transform="translate(43.443 71.946)">
        <g id="Groupe_2885" data-name="Groupe 2885" transform="translate(0 44.782)">
          <path id="Tracé_7811" data-name="Tracé 7811" d="M78.992,170.364A2.532,2.532,0,0,0,81,167.413l-.607-3.29a2.475,2.475,0,0,0-2.859-2.017l-.054.01-2.8.493a11.22,11.22,0,0,0-1.361-2.119l1.553-2.269.078-.078a2.54,2.54,0,0,0-.6-3.517l-2.762-1.892a2.574,2.574,0,0,0-3.519.644l-1.625,2.307a13.078,13.078,0,0,0-2.46-.493l-.491-2.835a2.537,2.537,0,0,0-2.951-2.005l-3.253.6a2.47,2.47,0,0,0-2.058,2.823c0,.03.009.061.016.09l.491,2.8a12.612,12.612,0,0,0-2.119,1.361L51.27,156.4a2.5,2.5,0,0,0-3.477.635l0,.007L45.9,159.771a2.506,2.506,0,0,0,.6,3.492l.04.027,2.306,1.625a17.745,17.745,0,0,0-.529,2.46l-2.8.491a2.567,2.567,0,0,0-2.042,2.951l.6,3.29A2.5,2.5,0,0,0,47,176.114l2.8-.493a20.139,20.139,0,0,0,1.363,2.119l-1.59,2.306c0,.038,0,.038-.038.078a2.477,2.477,0,0,0,.644,3.442l2.76,1.929a2.5,2.5,0,0,0,3.477-.638l0-.005,1.625-2.345a13.682,13.682,0,0,0,2.46.566l.491,2.762a2.536,2.536,0,0,0,2.946,2.043h0l3.293-.566a2.531,2.531,0,0,0,2.005-2.951l-.493-2.8a11.181,11.181,0,0,0,2.119-1.361l2.347,1.625a2.547,2.547,0,0,0,3.517-.642l1.892-2.762a2.55,2.55,0,0,0-.641-3.519l-2.347-1.587a13.7,13.7,0,0,0,.568-2.46ZM64.131,179.48a10.435,10.435,0,0,1-10.555-4.389,10.321,10.321,0,0,1-1.7-4.086,10.551,10.551,0,1,1,12.285,8.47l-.027,0Z" transform="translate(-43.443 -150.309)" fill="#050505"/>
          <path id="Tracé_7812" data-name="Tracé 7812" d="M75.016,169.642a10.549,10.549,0,1,0-8.511,12.218A10.571,10.571,0,0,0,75.016,169.642Zm-9.192,8.435a6.651,6.651,0,0,1-7.529-4.349,10.257,10.257,0,0,1-.264-1.021,6.71,6.71,0,0,1,5.371-7.824l.038-.007a8.24,8.24,0,0,1,1.326-.113,6.8,6.8,0,0,1,6.467,5.56,6.69,6.69,0,0,1-5.409,7.754Z" transform="translate(-45.822 -152.688)" fill="#fdd53e"/>
        </g>
        <g id="Groupe_2886" data-name="Groupe 2886" transform="translate(50.77 63.601)">
          <path id="Tracé_7813" data-name="Tracé 7813" d="M151.505,198.643a3.04,3.04,0,0,0,2.42-3.519l-.719-3.972a2.977,2.977,0,0,0-3.443-2.426l-.036.006-2.913.529-.455.078a14.7,14.7,0,0,0-1.663-2.533l1.967-2.838a3.029,3.029,0,0,0-.757-4.2l-3.29-2.272a3.07,3.07,0,0,0-4.239.757l-1.929,2.762a18.233,18.233,0,0,0-2.988-.606l-.6-3.366a3,3,0,0,0-3.463-2.461l-.019,0-3.934.717a3.037,3.037,0,0,0-2.458,3.519l.607,3.366a18.375,18.375,0,0,0-2.574,1.631l-2.8-1.93a3.029,3.029,0,0,0-4.2.757l-2.269,3.29a2.979,2.979,0,0,0-.53,2.08,2.839,2.839,0,0,0,1.286,2.118l.342.227,2.458,1.74-.227.8a12.719,12.719,0,0,0-.415,2.156l-3.368.607a3.015,3.015,0,0,0-2.422,3.51l0,.007.718,3.934a3.008,3.008,0,0,0,3.468,2.463l.013,0,3.366-.606a19.346,19.346,0,0,0,1.631,2.536l-1.929,2.8a3.015,3.015,0,0,0,.753,4.2l0,0,3.29,2.307a3.029,3.029,0,0,0,4.2-.757l1.967-2.8a15.022,15.022,0,0,0,2.951.644l.607,3.367a3.035,3.035,0,0,0,3.543,2.425l.012,0,3.9-.682a3.052,3.052,0,0,0,2.461-3.546l0-.009-.606-3.33a16.338,16.338,0,0,0,2.536-1.663l2.8,1.967a3.082,3.082,0,0,0,4.236-.757l2.307-3.331a3.029,3.029,0,0,0-.757-4.2L147.5,202.2a16.53,16.53,0,0,0,.642-2.951ZM133.65,209.614A12.667,12.667,0,0,1,118.933,199.4v0a12.007,12.007,0,0,1-.113-3.668,12.652,12.652,0,0,1,24.7-2.194,8.923,8.923,0,0,1,.339,1.361,12.666,12.666,0,0,1-10.212,14.716Z" transform="translate(-108.82 -174.542)" fill="#050505"/>
          <path id="Tracé_7814" data-name="Tracé 7814" d="M146.714,197.757a9.014,9.014,0,0,0-.339-1.361,12.652,12.652,0,0,0-24.7,2.194,12.03,12.03,0,0,0,.113,3.668,12.666,12.666,0,1,0,24.946-4.407c-.005-.033-.011-.064-.017-.1ZM135.668,207.93a8.056,8.056,0,0,1-9.345-6.467,7.4,7.4,0,0,1-.078-.908,8.032,8.032,0,0,1,15.926-1.967,2.306,2.306,0,0,1,.038.719,7.964,7.964,0,0,1-6.541,8.626Z" transform="translate(-111.671 -177.401)" fill="#fdd53e"/>
        </g>
        <g id="Groupe_2887" data-name="Groupe 2887" transform="translate(28.169)">
          <path id="Tracé_7815" data-name="Tracé 7815" d="M132.989,122.7a3.8,3.8,0,0,0,3.064-4.388l-.908-4.918a3.753,3.753,0,0,0-4.355-3.035l-.033.006-4.2.755a11.161,11.161,0,0,0-.832-1.437,20.831,20.831,0,0,0-1.21-1.74l2.458-3.517a3.856,3.856,0,0,0-.946-5.3l-4.123-2.8a3.8,3.8,0,0,0-5.258.944l-2.459,3.481a19.174,19.174,0,0,0-3.669-.794l-.794-4.2a3.775,3.775,0,0,0-4.349-3.064l-4.919.912a3.772,3.772,0,0,0-3.069,4.363l0,.024.757,4.2a22.808,22.808,0,0,0-3.177,2.005l-3.519-2.383a3.757,3.757,0,0,0-5.219.946L83.4,106.848a3.736,3.736,0,0,0,.879,5.211c.022.016.044.031.067.047l3.481,2.46a19.677,19.677,0,0,0-.794,3.668l-4.2.757a3.83,3.83,0,0,0-3.064,4.389l.908,4.955a3.783,3.783,0,0,0,4.387,3.029l4.2-.757a25.13,25.13,0,0,0,2,3.177l-2.383,3.481a3.727,3.727,0,0,0,.864,5.2c.027.02.054.039.082.057l4.085,2.873a3.805,3.805,0,0,0,5.257-.946l2.422-3.519a20.126,20.126,0,0,0,3.706.832l.757,4.161a3.732,3.732,0,0,0,4.285,3.081l.1-.018,2.724-.491,2.194-.377a3.8,3.8,0,0,0,3.029-4.427l-.757-4.161a19.06,19.06,0,0,0,3.177-2.042l3.519,2.42a3.805,3.805,0,0,0,5.257-.946l2.873-4.123a3.856,3.856,0,0,0-.946-5.3L128,127.162a20.209,20.209,0,0,0,.8-3.706Zm-22.28,13.732a17.583,17.583,0,0,1-3.14.264,15.825,15.825,0,1,1,13.124-25.155,15.068,15.068,0,0,1,2.8,6.505,15.863,15.863,0,0,1-12.784,18.388Z" transform="translate(-79.717 -92.644)" fill="#050505"/>
          <path id="Tracé_7816" data-name="Tracé 7816" d="M127.048,121.61a15.068,15.068,0,0,0-2.8-6.505,15.832,15.832,0,1,0-13.124,25.156,17.586,17.586,0,0,0,3.14-.264A15.863,15.863,0,0,0,127.048,121.61Zm-13.808,12.711a8.766,8.766,0,0,1-2.422.113,10.055,10.055,0,1,1,8.55-16.231,9.636,9.636,0,0,1,2.005,4.463A10.066,10.066,0,0,1,113.241,134.321Z" transform="translate(-83.27 -96.208)" fill="#fdd53e"/>
        </g>
        <path id="Tracé_7817" data-name="Tracé 7817" d="M104.828,193.985a2.833,2.833,0,0,1-1.286-2.119c.491.794,1.059,1.59,1.625,2.345Z" transform="translate(-56.87 -114.811)" opacity="0.7" fill="url(#linear-gradient-5)" style="isolation: isolate"/>
      </g>
      <g id="Groupe_2891" data-name="Groupe 2891" transform="translate(371.104 156.816)">
        <g id="Groupe_2889" data-name="Groupe 2889" transform="translate(45.94 99.46)">
          <path id="Tracé_7818" data-name="Tracé 7818" d="M562.107,477.03a9.418,9.418,0,0,1,1.159,4.235c.047,2.407,10.685.4,10.685.4a50.177,50.177,0,0,0-2.418-5.566,18.05,18.05,0,0,0-2.85-4.33Z" transform="translate(-532.92 -361.676)" fill="#b5805d"/>
          <path id="Tracé_7819" data-name="Tracé 7819" d="M571.154,481.278c1.823,2.049,2.494,4.167,1.963,6.361-7.6,1.691-14.972,3.515-22.154,4.66-.571-2.737,5.933-7.881,9.752-9.838A12.172,12.172,0,0,0,571.154,481.278Z" transform="translate(-530.422 -363.8)" fill="#1b2c7b"/>
          <path id="Tracé_7820" data-name="Tracé 7820" d="M547.957,330c4.054,28.951-3.54,41.6-1.243,52.653s15.236,59.325,15.236,59.325c-1.048,2.109-5.962,3.9-8.848,3.339-11.205-25.848-24.585-55.751-26.267-65.013a168.339,168.339,0,0,1-1.114-47.864Z" transform="translate(-524.523 -330.003)" fill="#050505"/>
        </g>
        <g id="Groupe_2890" data-name="Groupe 2890" transform="translate(21.376 101.703)">
          <path id="Tracé_7821" data-name="Tracé 7821" d="M510.409,481.414a9.382,9.382,0,0,1,.306,4.377c-.428,2.369,10.4,2.489,10.4,2.489a50.173,50.173,0,0,0-1.28-5.931,17.96,17.96,0,0,0-1.946-4.8Z" transform="translate(-496.806 -365.208)" fill="#b5805d"/>
          <path id="Tracé_7822" data-name="Tracé 7822" d="M518.132,487.866c1.386,2.365,1.631,4.574.677,6.621-7.789.168-15.37.512-22.637.226-.023-2.8,7.363-6.565,11.493-7.734A12.169,12.169,0,0,0,518.132,487.866Z" transform="translate(-493.625 -367.316)" fill="#1b2c7b"/>
          <path id="Tracé_7823" data-name="Tracé 7823" d="M523.463,334.853c-1.7,29.184-11.626,40.1-11.535,51.388s3.311,61.16,3.311,61.16c-1.443,1.864-6.61,2.658-9.33,1.542-5.922-27.542-13.183-59.487-13.015-68.9a168.218,168.218,0,0,1,8.288-47.151Z" transform="translate(-492.892 -332.891)" fill="#050505"/>
        </g>
        <path id="Tracé_7824" data-name="Tracé 7824" d="M533.038,247.144c-1.793-3.034-2.15-6.457-2.3-10.335h-8.242a35.385,35.385,0,0,1-1.122,11.493C522.225,249.919,532.227,249.282,533.038,247.144Z" transform="translate(-477.879 -209.722)" fill="#b5805d"/>
        <path id="Tracé_7825" data-name="Tracé 7825" d="M531.5,231.729c-5.239,2.355-8.965,6.6-13.728,4.547-6.721-1.786-6.873-16.937-4.574-23.692l18.277-2.131Z" transform="translate(-475.755 -203.834)" fill="#b5805d"/>
        <path id="Tracé_7826" data-name="Tracé 7826" d="M530.76,229.6l-6.662,5.449-6.952-7.8,4.711-4.834-2.156-2.919-2.554,3.192-1.677-1.931,1.3-5.408c-4.689.554-16-1.907-16-1.907s5.62-8.841,6.85-11.509c4.691,1.925,11.782,1.156,11.782,1.156l12.65,6.1Z" transform="translate(-473.277 -201.93)" fill="#050505"/>
        <path id="Tracé_7827" data-name="Tracé 7827" d="M504.594,229.089s1.823-4.918,4.788-5.747c3.16-.881,6.977,4.757,6.461,6.912s-4.708.673-4.694,1.728,1.791.961,1.5,1.984-4.754.126-4.754.126Z" transform="translate(-474.131 -206.693)" fill="#b5805d"/>
        <path id="Tracé_7828" data-name="Tracé 7828" d="M532.546,245.965c-7.359-3.919-26.628-3.161-37.342,1.841l-19.948,3.429,26.773-19.208-5.241-4.6c-6.784,10.121-39.329,10.117-29.629,33.97L493.4,265.52c-1.565,19.927-2.93,38.228-.556,50.152,8.395,4.811,38.29,2.77,43.861-2.93C534.494,283.241,541.333,252.747,532.546,245.965Z" transform="translate(-465.367 -207.627)" fill="#fff"/>
      </g>
      <path id="Tracé_7829" data-name="Tracé 7829" d="M531.353,253.744c-7.359-3.582-26.63-2.89-37.343,1.68l-19.948,3.134,26.774-17.551-5.241-4.2c-6.784,9.247-39.33,9.241-29.628,31.032L492.2,271.6c-1.562,18.2-2.929,34.922-.555,45.819,8.4,4.394,38.291,2.529,43.862-2.678C533.3,287.794,540.138,259.937,531.353,253.744Z" transform="translate(-93.997 -52.905)" fill="#c7c7c9" opacity="0.29" style="isolation: isolate"/>
      <path id="Tracé_7830" data-name="Tracé 7830" d="M532.547,245.965c-7.359-3.919-26.628-3.161-37.342,1.841l-19.948,3.429,26.773-19.208-5.241-4.6c-6.784,10.121-39.329,10.117-29.629,33.97L493.4,265.52c-1.565,19.927-2.93,38.228-.556,50.152,8.395,4.811,38.29,2.77,43.861-2.93C534.5,283.241,541.334,252.747,532.547,245.965Z" transform="translate(-94.263 -50.81)" fill="#323b80"/>
      <path id="Tracé_7831" data-name="Tracé 7831" d="M211.475,172.648l-5.631,6.078L342.812,395.9l5.463-5.918-1.906-6.679Z" transform="translate(-36.282 -38.572)" fill="#18255b"/>
      <path id="Tracé_7832" data-name="Tracé 7832" d="M332.138,400.331H251.023c-9.037,0-17.652-7.986-19.245-17.839L201.123,192.9c-1.594-9.853,4.44-17.841,13.475-17.841h81.115c9.036,0,17.652,7.988,19.246,17.841L345.612,382.49C347.206,392.342,341.172,400.331,332.138,400.331Z" transform="translate(-35.17 -39.111)" fill="#414142"/>
      <path id="Tracé_7833" data-name="Tracé 7833" d="M338.727,393.176H257.612c-9.036,0-17.652-7.988-19.246-17.841L207.712,185.753c-1.594-9.853,4.44-17.841,13.474-17.841H302.3c9.037,0,17.652,7.988,19.246,17.841L352.2,375.336C353.795,385.188,347.761,393.176,338.727,393.176Z" transform="translate(-36.642 -37.514)" fill="#020202"/>
      <path id="Tracé_7834" data-name="Tracé 7834" d="M302.278,175.984h-9.9a1.173,1.173,0,0,0-1.111,1.476l.44,2.728c.793,4.9-2.206,8.865-6.694,8.865H248.477c-4.49,0-8.77-3.968-9.561-8.865l-.443-2.728a1.728,1.728,0,0,0-1.587-1.476h-9.9c-7.323,0-12.212,6.472-10.922,14.458L245.79,374.253c1.29,7.986,8.273,14.458,15.6,14.458h75.286c7.323,0,12.212-6.472,10.922-14.458L317.871,190.442C316.583,182.455,309.6,175.984,302.278,175.984Z" transform="translate(-38.52 -39.317)" fill="#fff"/>
      <path id="Tracé_7835" data-name="Tracé 7835" d="M339.564,426.778h-60.55c-2.8,0-5.459-2.47-5.952-5.518l-1.2-7.388c-.492-3.047,1.374-5.518,4.167-5.518h60.55c2.8,0,5.459,2.47,5.952,5.518l1.2,7.388C344.224,424.307,342.357,426.778,339.564,426.778Z" transform="translate(-51.015 -91.231)" fill="#757475"/>
      <path id="Tracé_7836" data-name="Tracé 7836" d="M227.466,225.616" transform="translate(-41.113 -50.405)" fill="#f0f0fb" fill-rule="evenodd"/>
      <g id="Groupe_2899" data-name="Groupe 2899" transform="translate(151.58 164.012)">
        <path id="Tracé_7837" data-name="Tracé 7837" d="M188.924,342.657l11.786-6.8a1.893,1.893,0,0,1,1.9,0l11.784,6.8a1.9,1.9,0,0,1,0,3.29l-11.784,6.8a1.9,1.9,0,0,1-1.9,0l-11.784-6.8a1.9,1.9,0,0,1,0-3.292Z" transform="translate(-183.87 -238.989)" opacity="0.15" fill="url(#linear-gradient-6)" style="isolation: isolate"/>
        <path id="Tracé_7838" data-name="Tracé 7838" d="M234.684,359.8l5.933-3.425a.961.961,0,0,1,.957,0l5.931,3.425a.957.957,0,0,1,0,1.656l-5.931,3.425a.95.95,0,0,1-.957,0l-5.933-3.425a.957.957,0,0,1,0-1.656Z" transform="translate(-194.199 -243.601)" opacity="0.15" fill="url(#linear-gradient-7)" style="isolation: isolate"/>
        <path id="Tracé_7839" data-name="Tracé 7839" d="M388,359.8l5.933-3.425a.959.959,0,0,1,.956,0l5.931,3.425a.957.957,0,0,1,0,1.656l-5.931,3.425a.952.952,0,0,1-.956,0L388,361.453a.957.957,0,0,1,0-1.656Z" transform="translate(-228.452 -243.601)" opacity="0.15" fill="url(#linear-gradient-8)" style="isolation: isolate"/>
        <path id="Tracé_7840" data-name="Tracé 7840" d="M183.168,283.571l5.933-3.425a.961.961,0,0,1,.957,0l5.931,3.425a.957.957,0,0,1,0,1.656l-5.931,3.425a.949.949,0,0,1-.957,0l-5.933-3.425a.957.957,0,0,1,0-1.656Z" transform="translate(-182.69 -226.572)" opacity="0.15" fill="url(#linear-gradient-9)" style="isolation: isolate"/>
        <path id="Tracé_7841" data-name="Tracé 7841" d="M316.542,330.888l23.788-13.735a3.834,3.834,0,0,1,3.834,0l23.786,13.732a3.835,3.835,0,0,1,0,6.642l-23.786,13.735a3.83,3.83,0,0,1-3.834,0l-23.788-13.735a3.834,3.834,0,0,1,0-6.64Z" transform="translate(-212.166 -234.753)" opacity="0.15" fill="url(#linear-gradient-10)" style="isolation: isolate"/>
        <path id="Tracé_7842" data-name="Tracé 7842" d="M342.4,295.654,270.652,254.23l-66.227,38.238-8.5-.2v5.105l80.954,46.737,74.726-43.142v-5.1Z" transform="translate(-185.647 -220.81)" fill="url(#linear-gradient-11)"/>
        <path id="Tracé_7843" data-name="Tracé 7843" d="M351.607,294.4l-22.236,12.837-4.144,2.392L276.879,337.54l-60.144-34.722-4.144-2.392L195.925,290.8,244.262,262.9l4.145-2.392,22.246-12.845,16.677,9.63,4.142,2.392Z" transform="translate(-185.647 -219.342)" fill="url(#linear-gradient-12)"/>
        <path id="Tracé_7844" data-name="Tracé 7844" d="M296.265,262.449l-22.246,12.839-4.142,2.4-48.35,27.9-4.144-2.392,48.347-27.908,4.145-2.392,22.246-12.839Z" transform="translate(-190.441 -222.112)" fill="url(#linear-gradient-13)"/>
        <g id="Groupe_2892" data-name="Groupe 2892" transform="translate(29.503 27.138)">
          <path id="Tracé_7845" data-name="Tracé 7845" d="M220.68,246.141" transform="translate(-220.68 -246.141)" fill="#fff"/>
        </g>
        <g id="Groupe_2895" data-name="Groupe 2895" transform="translate(47.927 38.083)">
          <ellipse id="Ellipse_4" data-name="Ellipse 4" cx="19.213" cy="5.41" rx="19.213" ry="5.41" transform="translate(8.733 43.802)" fill="url(#linear-gradient-14)"/>
          <path id="Tracé_7846" data-name="Tracé 7846" d="M306.134,269.091l-10.145-1.428-10.157-1.434c-3.655,2.8-3.867-2.951-3.867-2.951l3.784,1.2a15.14,15.14,0,0,1,13.617-.6A18.952,18.952,0,0,1,306.134,269.091Z" transform="translate(-252.796 -260.751)" fill="url(#linear-gradient-15)"/>
          <path id="Tracé_7847" data-name="Tracé 7847" d="M309.347,269.468l-13.013,1.864,6.189-7.1.006.006.05.015a16.905,16.905,0,0,1,2.034,1.087A18.679,18.679,0,0,1,309.347,269.468Z" transform="translate(-256.007 -261.128)" fill="url(#linear-gradient-16)"/>
          <path id="Tracé_7848" data-name="Tracé 7848" d="M308.209,268.3l-.9.291a7.1,7.1,0,0,0-3-4.356l.05.015a16.813,16.813,0,0,1,2.034,1.087C308.478,267.475,308.209,268.3,308.209,268.3Z" transform="translate(-257.789 -261.129)" fill="url(#linear-gradient-17)"/>
          <g id="Groupe_2894" data-name="Groupe 2894" transform="translate(8.095)">
            <path id="Tracé_7849" data-name="Tracé 7849" d="M289.53,285.766l-8.191-5.709s6.029-4.939,11.608-2.137S289.53,285.766,289.53,285.766Z" transform="translate(-260.752 -263.994)" fill="url(#linear-gradient-18)"/>
            <path id="Tracé_7850" data-name="Tracé 7850" d="M287.463,298.008l-2.01,1.3-7.574,4.906-5.655.047-15.658.14-1.736-1.737,17.36-1.872,3.193-.342,7.31-7.406,2.461-2.5Z" transform="translate(-254.829 -267.007)" fill="url(#linear-gradient-19)"/>
            <path id="Tracé_7851" data-name="Tracé 7851" d="M282.989,295.782l4.8,7.8,8.013-6.01-6.542-9.875Z" transform="translate(-261.12 -266.37)" fill="url(#linear-gradient-20)"/>
            <path id="Tracé_7852" data-name="Tracé 7852" d="M306.759,275.526a44.5,44.5,0,0,1-5.149,5.06l-2.135,7.051-.854,2.812-.211,5.125v0l-.186,4.559-4.719,2.026-12.518,5.369-1.453-.925,11.876-7.365,1.724-1.068s-1.015-1.581-2.158-3.7q-.233-.418-.457-.862a32.419,32.419,0,0,1-2.3-5.4,5.508,5.508,0,0,1-.2-3.622c.165-.348.314-.713.471-1.087a15.231,15.231,0,0,1,.73-1.565c7.317-13.292,15.932-12.992,15.932-12.992a3.339,3.339,0,0,1,3.464,2.231C309.093,272.206,308.119,273.88,306.759,275.526Z" transform="translate(-260.348 -262.175)" fill="url(#linear-gradient-21)"/>
            <path id="Tracé_7853" data-name="Tracé 7853" d="M300.4,294.643l-.211,5.126v0l-5.352-1.332-1.407-.353L292.3,297.8l-4.737-1.183c-.474-6.088,2.708-8.931,2.708-8.931l4,1.5,1.348.512,5.641,2.12Z" transform="translate(-262.132 -266.369)" fill="url(#linear-gradient-22)"/>
            <path id="Tracé_7854" data-name="Tracé 7854" d="M296.541,298.877l-1.407-.353.837-8.891,1.348.51Z" transform="translate(-263.834 -266.803)" fill="url(#linear-gradient-23)"/>
            <path id="Tracé_7855" data-name="Tracé 7855" d="M281.334,278.125s5.669.419,17.692,12.212l2.988-9.863a44.6,44.6,0,0,0,5.146-5.059s2.37-4.639-1.611-6.583S285.364,271.99,281.334,278.125Z" transform="translate(-260.751 -262.062)" fill="url(#linear-gradient-24)"/>
            <path id="Tracé_7856" data-name="Tracé 7856" d="M313.281,296.234c1.279-1.143-.323-1.437-.323-1.437a35.488,35.488,0,0,1-3.691-1.438c-2.856-1.3-6.419-3.391-6.982-5.943-1.279-5.832-1.279-9.46-.652-11.685v-.01a5.691,5.691,0,0,1,.749-1.686c1.877-2.787,5.379-1.124,5.583-1.026l.009.006c3.215,1.734-.952,12.994-.952,12.994l4.142,4.815,2.206,2.571s.9.255,1.189,1.694S313.281,296.234,313.281,296.234Z" transform="translate(-265.194 -262.959)" fill="url(#linear-gradient-25)"/>
            <g id="Groupe_2893" data-name="Groupe 2893" transform="translate(43.664)">
              <path id="Tracé_7857" data-name="Tracé 7857" d="M312.865,270.345a1.975,1.975,0,0,0,2.783-.155,1.643,1.643,0,0,0,.224-.367,3.327,3.327,0,0,0,3.085-.835q.12-.119.228-.249a3.429,3.429,0,0,0,.518-.874,1.963,1.963,0,0,1-.965-.665l1.153-.586a3.189,3.189,0,0,0-.2-.9,1.319,1.319,0,0,0,.7-.667s-.95.044-1.152-.294a4.011,4.011,0,0,0-.812-.906c-.022-.02-.044-.039-.067-.057a3.554,3.554,0,0,0-5.008.27,3.26,3.26,0,0,0-.472,3.133,1.6,1.6,0,0,0-.471.4A1.975,1.975,0,0,0,312.865,270.345Z" transform="translate(-311.275 -260.827)" fill="url(#linear-gradient-26)"/>
              <path id="Tracé_7858" data-name="Tracé 7858" d="M312.659,266.6l2.5,1.357-.736-1.361.728-.74L315.1,265s4.024-1.566,4.207-3.362c.285-2.783-.841-.591-1.8-.533-1.254.078-3.735-.319-4.945,1.107-2.737,3.23-1.048,4.569-.377,4.788h0Z" transform="translate(-311.055 -260.234)" fill="#1d1d1b"/>
              <path id="Tracé_7859" data-name="Tracé 7859" d="M313.528,271.154s-1.5-1.216-.346-1.82,2.718,2.057,2.036,2.019-1.34-.329-.874-.822c0,0-.311-.782-.381-.3,0,0-.509.365-.187-.613C313.775,269.612,312.684,269.612,313.528,271.154Z" transform="translate(-311.432 -262.247)" fill="url(#linear-gradient-27)"/>
            </g>
          </g>
          <path id="Tracé_7860" data-name="Tracé 7860" d="M252.5,305.746l-.821-1.417-7.276,3.84,9.834-.687Z" transform="translate(-244.405 -270.086)" fill="url(#linear-gradient-28)"/>
          <path id="Tracé_7861" data-name="Tracé 7861" d="M276.105,315.986l-6.229,8.343,8.949-6.279Z" transform="translate(-250.096 -272.69)" fill="url(#linear-gradient-29)"/>
          <path id="Tracé_7862" data-name="Tracé 7862" d="M307.71,282.944l-2.141-.332-1.017-.155-4.566-.709c.021-1.969.932-6.793,1.871-8.194a3.886,3.886,0,0,1,4.075-1.451,8.078,8.078,0,0,1,1.875.539C309.954,273.8,308.7,279.482,307.71,282.944Z" transform="translate(-256.822 -262.868)" fill="url(#linear-gradient-30)"/>
          <path id="Tracé_7863" data-name="Tracé 7863" d="M308.253,272.355l-1.371,10.282-1.017-.155,1.38-10.353A7.224,7.224,0,0,1,308.253,272.355Z" transform="translate(-258.136 -262.892)" fill="url(#linear-gradient-31)"/>
          <path id="Tracé_7864" data-name="Tracé 7864" d="M293.5,310.888l-12.517,5.367-1.455-.923,11.876-7.365Z" transform="translate(-252.252 -270.898)" fill="url(#linear-gradient-32)"/>
          <path id="Tracé_7865" data-name="Tracé 7865" d="M272.224,307.209l-15.658.14-1.736-1.737,17.36-1.872Z" transform="translate(-246.734 -269.954)" fill="url(#linear-gradient-33)"/>
        </g>
        <g id="Groupe_2897" data-name="Groupe 2897" transform="translate(130.079)">
          <ellipse id="Ellipse_5" data-name="Ellipse 5" cx="13.013" cy="3.664" rx="13.013" ry="3.664" transform="translate(2.583 69.867)" fill="url(#linear-gradient-34)"/>
          <path id="Tracé_7866" data-name="Tracé 7866" d="M383.806,211.385h0s-4.87,2.653-14.628,4.96l2.411,5.287s-.029,2.353,7.5-4.116c3.6-3.092,5.534-4.706,5.534-4.706l1.577,1.917.808-.333C387.933,212.272,385.727,210.624,383.806,211.385Z" transform="translate(-354.433 -211.196)" fill="url(#linear-gradient-35)"/>
          <path id="Tracé_7867" data-name="Tracé 7867" d="M374,215.744l1.708,8.4-6.533-1.5V217.36Z" transform="translate(-354.432 -212.212)" fill="url(#linear-gradient-36)"/>
          <path id="Tracé_7868" data-name="Tracé 7868" d="M357.6,226.566l-.862,10.188-6.544,9.077s-.325,3.433,3.728,1.174l-1.259-1.392s6.565-3.691,7.565-6.78.982-11.082.982-11.082Z" transform="translate(-350.191 -214.63)" fill="url(#linear-gradient-37)"/>
          <path id="Tracé_7869" data-name="Tracé 7869" d="M359.392,229.418l-.5,5.508,3.926,3.805,1.8-7.128Z" transform="translate(-352.135 -215.267)" fill="url(#linear-gradient-38)"/>
          <g id="Groupe_2896" data-name="Groupe 2896" transform="translate(2.116 2.236)">
            <path id="Tracé_7870" data-name="Tracé 7870" d="M377.933,270.142l-.256,8.475-.975-5.352a4.221,4.221,0,0,0-.85-1.864,4.178,4.178,0,0,0-1.635-1.236l-12.27-5.182-5.172-2.183,5.018-13.823,6.281-.344-6.533,11.726,2.143,1.277,12.476,7.445Z" transform="translate(-353.778 -221.795)" fill="url(#linear-gradient-39)"/>
            <path id="Tracé_7871" data-name="Tracé 7871" d="M379.421,273.882l-.255,8.475L378.19,277a4.221,4.221,0,0,0-.85-1.864,4.177,4.177,0,0,0-1.636-1.236l-12.27-5.182,1.739-3.347,12.476,7.445.921.549Z" transform="translate(-355.266 -225.536)" fill="url(#linear-gradient-40)"/>
            <path id="Tracé_7872" data-name="Tracé 7872" d="M377.028,290.887a22.76,22.76,0,0,0,.812-5.721,22.39,22.39,0,0,0-.472-4.943l-2.416-11.571L370.5,247.383l4.473-.908,2.649,21.417,2.051,16.582.256,2.072-3.624,6.942Z" transform="translate(-356.846 -221.313)" fill="url(#linear-gradient-41)"/>
            <path id="Tracé_7873" data-name="Tracé 7873" d="M371.191,252.111s-1.972-10.706,4.911-11.054l.068,6.434Z" transform="translate(-356.941 -220.103)" fill="url(#linear-gradient-42)"/>
            <path id="Tracé_7874" data-name="Tracé 7874" d="M360.032,253.211l6.161,1.333L371.121,246l-9,3.029Z" transform="translate(-354.506 -221.206)" fill="url(#linear-gradient-43)"/>
            <path id="Tracé_7875" data-name="Tracé 7875" d="M373.557,235.863s-1.786,8.783-5.482,10.045c-2.315.791-4.245-2.357-6.065-3.177l.952-6.589-3.425-9.319.155-2.216,2.2-4.538,5.136-2.246C368.649,219.228,373.557,235.863,373.557,235.863Z" transform="translate(-354.395 -214.912)" fill="url(#linear-gradient-44)"/>
            <path id="Tracé_7876" data-name="Tracé 7876" d="M366.578,238.833l2.533,3.454-1.036,5.568c-2.315.791-4.245-2.358-6.065-3.177l.952-6.589-3.425-9.319.155-2.216,2.921,4.834,3.748,4.478Z" transform="translate(-354.395 -216.863)" fill="url(#linear-gradient-45)"/>
            <path id="Tracé_7877" data-name="Tracé 7877" d="M362.071,224.352l.193-3.366-5.235-.348S359.81,223.913,362.071,224.352Z" transform="translate(-353.835 -215.541)" fill="url(#linear-gradient-46)"/>
            <path id="Tracé_7878" data-name="Tracé 7878" d="M361.617,218.206a1.87,1.87,0,0,1-1.564,2.122,1.564,1.564,0,0,1-.409-.017,3.129,3.129,0,0,1-2.577,2.062,2.923,2.923,0,0,1-1.638-.281c.506-.8.143-.847.143-.847l-.721.447a3.329,3.329,0,0,1-.44-.488,1.234,1.234,0,0,1-.892.2s.529-.73.369-1.061a3.958,3.958,0,0,1-.311-1.2,3.367,3.367,0,0,1,2.816-3.821,3.075,3.075,0,0,1,2.723,1.252,1.609,1.609,0,0,1,.564-.164A1.868,1.868,0,0,1,361.617,218.206Z" transform="translate(-353.051 -214.353)" fill="url(#linear-gradient-47)"/>
            <path id="Tracé_7879" data-name="Tracé 7879" d="M360.287,216.245a1.071,1.071,0,0,0-1.315,1.12c-.019,1.361-.01,1.952-.01,1.952l-.346-1.078-.688-.009-.338-.644-.277.071-.222-.617.032.665-1.336.342-.218-.353.055.395-.273.069-.249-.375.111.413-1.1.281-.176-.48-.05.539-.971.247s-.12-3.628,3.075-4.551A3.679,3.679,0,0,1,360.287,216.245Z" transform="translate(-352.916 -214.075)" fill="#1d1d1b"/>
            <path id="Tracé_7880" data-name="Tracé 7880" d="M362.931,218.851s-.608-1.733-1.189-1.495c-1.147.471-.332,2.313-.023,2.626s1.435-.734-.01-.787c0,0-.4-.6-.1-.395s.413-.033.413-.033a.865.865,0,0,1-.182-.655C361.9,217.676,362.335,218,362.931,218.851Z" transform="translate(-354.756 -214.803)" fill="url(#linear-gradient-48)"/>
          </g>
          <path id="Tracé_7881" data-name="Tracé 7881" d="M378.309,297.049a22.758,22.758,0,0,0,.812-5.721,22.388,22.388,0,0,0-.472-4.943l-2.416-11.571,2.674-.761,2.051,16.582.256,2.072-3.624,6.942Z" transform="translate(-356.009 -225.239)" fill="url(#linear-gradient-49)"/>
          <path id="Tracé_7882" data-name="Tracé 7882" d="M381.6,297.476l-3.624,6.942.719-2.6a22.758,22.758,0,0,0,.812-5.721l0-.012h1.21l.621-.682Z" transform="translate(-356.399 -230.009)" fill="url(#linear-gradient-50)"/>
          <path id="Tracé_7883" data-name="Tracé 7883" d="M383.421,276.183l-.256,8.475-.975-5.352a4.22,4.22,0,0,0-.85-1.864l.669-.942.558-.829Z" transform="translate(-357.15 -225.6)" fill="url(#linear-gradient-51)"/>
        </g>
        <g id="Groupe_2898" data-name="Groupe 2898" transform="translate(145.256 58.217)">
          <path id="Tracé_7884" data-name="Tracé 7884" d="M370.25,293.187a4.849,4.849,0,1,0,2.158-6.509l0,0a4.8,4.8,0,0,0-1.75,1.487,4.867,4.867,0,0,0-.91,3.211A4.816,4.816,0,0,0,370.25,293.187Z" transform="translate(-369.733 -286.161)" fill="url(#linear-gradient-52)"/>
          <path id="Tracé_7885" data-name="Tracé 7885" d="M376,289.715l1.579-.793,1.553,1.121-.027,1.914-1.578.793-1.553-1.121Z" transform="translate(-371.128 -286.778)" fill="url(#linear-gradient-53)"/>
          <path id="Tracé_7886" data-name="Tracé 7886" d="M371.938,291.757l1.578-.793,1.553,1.121L375.042,294l-1.579.793-1.553-1.121Z" transform="translate(-370.219 -287.234)" fill="url(#linear-gradient-54)"/>
          <path id="Tracé_7887" data-name="Tracé 7887" d="M369.748,291.955l.12.084,1.577-.793.03-1.913-.816-.589A4.866,4.866,0,0,0,369.748,291.955Z" transform="translate(-369.733 -286.738)" fill="url(#linear-gradient-55)"/>
          <path id="Tracé_7888" data-name="Tracé 7888" d="M379.98,294.535l.816.587a4.86,4.86,0,0,0,.91-3.209l-.12-.086-1.579.793Z" transform="translate(-372.022 -287.427)" fill="url(#linear-gradient-56)"/>
          <path id="Tracé_7889" data-name="Tracé 7889" d="M371.881,296.851A4.862,4.862,0,0,0,375,298.038l.015-1-1.553-1.122-1.579.793Z" transform="translate(-370.213 -288.339)" fill="url(#linear-gradient-57)"/>
          <path id="Tracé_7890" data-name="Tracé 7890" d="M376.037,287.171l1.553,1.12,1.577-.793v-.147a4.868,4.868,0,0,0-3.116-1.187Z" transform="translate(-371.141 -286.162)" fill="url(#linear-gradient-58)"/>
        </g>
      </g>
      <g id="Groupe_2900" data-name="Groupe 2900" transform="translate(245.903)">
        <path id="Tracé_7891" data-name="Tracé 7891" d="M304.151,56.119A56.119,56.119,0,1,0,360.269,0h0a56.312,56.312,0,0,0-56.119,56.119" transform="translate(-304.147)" fill="#ff6c6c"/>
        <path id="Tracé_7892" data-name="Tracé 7892" d="M432.529,56.119a56.312,56.312,0,0,1-56.119,56.119V0A56.312,56.312,0,0,1,432.529,56.119Z" transform="translate(-320.291)" fill="#f93d3d"/>
        <path id="Tracé_7893" data-name="Tracé 7893" d="M340.479,82.847l18.61-18.615-18.61-18.6,9.295-9.295,18.6,18.61,18.611-18.61,9.295,9.295-18.61,18.6,18.61,18.61-9.293,9.293L368.379,73.526l-18.6,18.61Z" transform="translate(-312.264 -8.117)" fill="#e6e6ff"/>
        <path id="Tracé_7894" data-name="Tracé 7894" d="M395.02,92.137l9.291-9.29L385.7,64.233l18.61-18.6-9.291-9.293L376.41,54.944V73.527Z" transform="translate(-320.291 -8.118)" fill="#c3c3e5"/>
      </g>
    </g>
  </g>
</svg>
