<svg xmlns="http://www.w3.org/2000/svg" viewBox="0 0 20 20"><path d="M15.12 6.941a3.588 3.588 0 00-2.01.729 7.298 7.298 0 011.583 1.783c.236.317.431.663.578 1.03a5.281 5.281 0 014.597 3.518c.021-.116.03-.234.025-.352.001-4.146-2.788-6.708-4.773-6.708zM13.662 5.258a2.33 2.33 0 001.482.477 2.505 2.505 0 001.809-.779 2.56 2.56 0 00.226-.251c.302-.425.461-.936.453-1.458A2.546 2.546 0 0015.095.71a2.313 2.313 0 00-1.759.779c.418.644.645 1.393.653 2.161a4.352 4.352 0 01-.327 1.608zM15.874 11.864a5.2 5.2 0 00-.93-.126h.001a1.376 1.376 0 00-.428.05.548.548 0 00-.201.025 3.882 3.882 0 00-2.738 5.879c.288.455.664.848 1.106 1.156a3.903 3.903 0 006.004-2.186c.093-.327.135-.665.126-1.005a1.66 1.66 0 00-.025-.352 3.862 3.862 0 00-2.915-3.441zm1.382 3.04a40.782 40.782 0 01-1.734 1.859l-.653.754a.633.633 0 01-.451.2.603.603 0 01-.428-.175l-1.13-1.08a.54.54 0 01-.051-.779.623.623 0 01.88-.05c.226.226.477.452.703.678.678-.729 1.332-1.482 1.985-2.21a.608.608 0 01.98.175.584.584 0 01-.101.628z"/><path d="M13.461 10.684c.126-.025.302-.075.428-.101a6.055 6.055 0 00-1.809-1.985 6.732 6.732 0 00-1.03-.628 3.715 3.715 0 00-1.205-.251 3.158 3.158 0 00-1.031.201c-.386.128-.75.315-1.08.553-1.633 1.105-3.165 3.467-3.165 6.708-.006.267.045.533.151.779.097.25.252.474.452.653.257.23.556.409.88.528 1.055.477 2.613.653 4.145.628a4.972 4.972 0 01-.452-2.11 5.19 5.19 0 013.716-4.975zM9.844 6.337a2.763 2.763 0 100-5.526h-.016a2.754 2.754 0 00-2.747 2.763 2.763 2.763 0 002.763 2.763z"/><path d="M5.046 9.452a6.541 6.541 0 011.708-1.884 3.494 3.494 0 00-1.884-.653c-1.985 0-4.773 2.562-4.773 6.708-.013.493.2.965.578 1.282.503.502 1.533.829 2.738.954a2.14 2.14 0 01-.075-.703c-.051-1.91.602-4.045 1.708-5.704zM3.036 5.056a2.505 2.505 0 001.809.779c.466.005.923-.135 1.306-.402a4.595 4.595 0 01-.352-1.759 3.996 3.996 0 01.704-2.311A2.429 2.429 0 004.845.735a2.547 2.547 0 00-2.538 2.537 2.46 2.46 0 00.503 1.483c.083.094.159.195.226.301z"/></svg>