<svg xmlns="http://www.w3.org/2000/svg" viewBox="0 0 20 20"><path d="M16.275 1.517H14.74V.76a.646.646 0 10-1.284-.001v.757H6.199V.76a.681.681 0 00-.642-.715.681.681 0 00-.643.715v.757H3.379c-1.187 0-2.169 1.068-2.169 2.389v13.591c0 1.32.983 2.398 2.169 2.398v-.001h12.896c1.187 0 2.169-1.077 2.169-2.398V3.906c.001-1.321-.982-2.389-2.169-2.389zM2.873 3.906c0-.534.026-.579.507-.579v-.001h1.535v.362a.678.678 0 00.641.713.681.681 0 00.643-.715v-.403h7.256v.404a.646.646 0 101.284.001v-.405h1.535c.48 0 .507.088.507.622V5.89H2.873V3.906zm13.25 14.348H3.567c-.48 0-.695-.223-.695-.757V7.531h13.909l.038 9.966c0 .534-.216.757-.696.757z"/><path d="M13.671 13.545H5.983c-.355 0-.643.414-.643.925 0 .511.287.925.643.925h7.687c.355 0 .643-.414.643-.925 0-.512-.287-.925-.642-.925zM13.671 9.97H5.983c-.355 0-.643.402-.643.899s.287.951.643.951h7.687c.355 0 .643-.455.643-.951 0-.497-.287-.899-.642-.899z"/></svg>