<svg id="Icon_material-account-circle" data-name="Icon material-account-circle" xmlns="http://www.w3.org/2000/svg" width="81.769" height="81.769" viewBox="0 0 81.769 81.769">
  <path id="Icon_material-account-circle-2" data-name="Icon material-account-circle" d="M43.884,3A40.884,40.884,0,1,0,84.769,43.884,40.9,40.9,0,0,0,43.884,3Zm0,12.265A12.265,12.265,0,1,1,31.619,27.531,12.249,12.249,0,0,1,43.884,15.265Zm0,58.056A29.439,29.439,0,0,1,19.354,60.156c.123-8.136,16.354-12.592,24.531-12.592,8.136,0,24.408,4.456,24.531,12.592A29.439,29.439,0,0,1,43.884,73.321Z" transform="translate(-3 -3)"/>
</svg>
