<svg id="Icon_awesome-trophy" data-name="Icon awesome-trophy" xmlns="http://www.w3.org/2000/svg" width="87.111" height="77.432" viewBox="0 0 87.111 77.432">
  <path id="Icon_awesome-trophy-2" data-name="Icon awesome-trophy" d="M83.481,9.679H67.753V3.63A3.621,3.621,0,0,0,64.123,0H22.988a3.621,3.621,0,0,0-3.63,3.63V9.679H3.63A3.621,3.621,0,0,0,0,13.309v8.469c0,5.4,3.4,10.949,9.361,15.229A35.43,35.43,0,0,0,26,43.314c4.749,7.879,10.3,11.131,10.3,11.131V65.333H29.037c-5.339,0-9.679,3.131-9.679,8.469v1.815a1.82,1.82,0,0,0,1.815,1.815H65.938a1.82,1.82,0,0,0,1.815-1.815V73.8c0-5.339-4.34-8.469-9.679-8.469H50.815V54.444s5.55-3.252,10.3-11.131A35.308,35.308,0,0,0,77.75,37.007c5.944-4.28,9.361-9.83,9.361-15.229V13.309A3.621,3.621,0,0,0,83.481,9.679ZM15.018,29.158c-3.69-2.662-5.339-5.626-5.339-7.38v-2.42h9.709a54.318,54.318,0,0,0,1.936,13.036A24.372,24.372,0,0,1,15.018,29.158Zm62.414-7.38c0,2.435-2.677,5.46-5.339,7.38a24.467,24.467,0,0,1-6.322,3.236,54.318,54.318,0,0,0,1.936-13.036h9.724Z"/>
</svg>
