<svg xmlns="http://www.w3.org/2000/svg" width="96.383" height="74.95" viewBox="0 0 96.383 74.95">
  <path id="Icon_awesome-home" data-name="Icon awesome-home" d="M46.912,21.7,16.064,47.1V74.526A2.677,2.677,0,0,0,18.741,77.2l18.75-.049a2.677,2.677,0,0,0,2.664-2.677V58.464a2.677,2.677,0,0,1,2.677-2.677H53.54a2.677,2.677,0,0,1,2.677,2.677v16a2.677,2.677,0,0,0,2.677,2.685l18.743.052a2.677,2.677,0,0,0,2.677-2.677V47.086L49.472,21.7A2.04,2.04,0,0,0,46.912,21.7ZM95.64,38.966,81.653,27.437V4.261a2.008,2.008,0,0,0-2.008-2.008h-9.37a2.008,2.008,0,0,0-2.008,2.008V16.41L53.287,4.086a8.031,8.031,0,0,0-10.206,0L.728,38.966A2.008,2.008,0,0,0,.46,41.794l4.267,5.187a2.008,2.008,0,0,0,2.829.273L46.912,14.837a2.04,2.04,0,0,1,2.56,0L88.831,47.254a2.008,2.008,0,0,0,2.828-.268L95.925,41.8a2.008,2.008,0,0,0-.284-2.833Z" transform="translate(0.001 -2.254)"/>
</svg>
