<svg id="Icon_awesome-shopping-cart" data-name="Icon awesome-shopping-cart" xmlns="http://www.w3.org/2000/svg" width="83.435" height="74.165" viewBox="0 0 83.435 74.165">
  <path id="Icon_awesome-shopping-cart-2" data-name="Icon awesome-shopping-cart" d="M76.5,43.647l6.848-30.129a3.477,3.477,0,0,0-3.39-4.247h-56.9L21.734,2.78A3.476,3.476,0,0,0,18.328,0H3.476A3.476,3.476,0,0,0,0,3.476V5.794A3.476,3.476,0,0,0,3.476,9.271H13.6L23.775,59.018a8.113,8.113,0,1,0,9.712,1.241H63.854a8.11,8.11,0,1,0,9.212-1.507l.8-3.516a3.477,3.477,0,0,0-3.39-4.247H31.595l-.948-4.635H73.11A3.476,3.476,0,0,0,76.5,43.647Z"/>
</svg>
