<svg id="Icon_awesome-address-card" data-name="Icon awesome-address-card" xmlns="http://www.w3.org/2000/svg" width="82.694" height="64.318" viewBox="0 0 82.694 64.318">
  <path id="Icon_awesome-address-card-2" data-name="Icon awesome-address-card" d="M75.8,2.25H6.891A6.893,6.893,0,0,0,0,9.141V59.676a6.893,6.893,0,0,0,6.891,6.891H75.8a6.893,6.893,0,0,0,6.891-6.891V9.141A6.893,6.893,0,0,0,75.8,2.25ZM25.268,16.032a9.188,9.188,0,1,1-9.188,9.188A9.2,9.2,0,0,1,25.268,16.032Zm16.079,34a3.011,3.011,0,0,1-3.216,2.756H12.4a3.011,3.011,0,0,1-3.216-2.756V47.272C9.188,42.707,13.51,39,18.836,39h.718a14.788,14.788,0,0,0,11.428,0H31.7c5.326,0,9.648,3.7,9.648,8.269Zm32.159-7.58A1.152,1.152,0,0,1,72.357,43.6H51.684a1.152,1.152,0,0,1-1.149-1.149v-2.3A1.152,1.152,0,0,1,51.684,39H72.357a1.152,1.152,0,0,1,1.149,1.149Zm0-9.188a1.152,1.152,0,0,1-1.149,1.149H51.684a1.152,1.152,0,0,1-1.149-1.149v-2.3a1.152,1.152,0,0,1,1.149-1.149H72.357a1.152,1.152,0,0,1,1.149,1.149Zm0-9.188a1.152,1.152,0,0,1-1.149,1.149H51.684a1.152,1.152,0,0,1-1.149-1.149v-2.3a1.152,1.152,0,0,1,1.149-1.149H72.357a1.152,1.152,0,0,1,1.149,1.149Z" transform="translate(0 -2.25)"/>
</svg>
