<svg id="Icon_awesome-user-friends" data-name="Icon awesome-user-friends" xmlns="http://www.w3.org/2000/svg" width="98.26" height="69.519" viewBox="0 0 98.26 69.519">
  <path id="Icon_awesome-user-friends-2" data-name="Icon awesome-user-friends" d="M29.478,37.009a17.28,17.28,0,0,0,17.2-17.38,17.2,17.2,0,1,0-34.391,0A17.28,17.28,0,0,0,29.478,37.009Zm11.791,4.966H40a23.516,23.516,0,0,1-21.034,0H17.687A17.787,17.787,0,0,0,0,59.851V64.32a7.411,7.411,0,0,0,7.37,7.448H51.587a7.411,7.411,0,0,0,7.37-7.448V59.851A17.787,17.787,0,0,0,41.269,41.975ZM73.7,37.009a14.9,14.9,0,1,0-14.739-14.9A14.822,14.822,0,0,0,73.7,37.009Zm7.37,4.966h-.583a19.169,19.169,0,0,1-13.572,0h-.583a16.916,16.916,0,0,0-8.552,2.39,22.84,22.84,0,0,1,6.1,15.486V65.81c0,.341-.077.667-.092.993H90.891a7.411,7.411,0,0,0,7.37-7.448,17.28,17.28,0,0,0-17.2-17.38Z" transform="translate(0 -2.25)"/>
</svg>
