<svg xmlns="http://www.w3.org/2000/svg" xmlns:xlink="http://www.w3.org/1999/xlink" width="428" height="428" viewBox="0 0 428 428">
  <defs>
    <linearGradient id="linear-gradient" x1="0.382" y1="-0.143" x2="0.55" y2="0.881" gradientUnits="objectBoundingBox">
      <stop offset="0" stop-color="#fff"/>
      <stop offset="0.085" stop-color="#f5f5f5"/>
      <stop offset="0.229" stop-color="#dadada"/>
      <stop offset="0.413" stop-color="#afafaf"/>
      <stop offset="0.631" stop-color="#747474"/>
      <stop offset="0.876" stop-color="#292929"/>
      <stop offset="1"/>
    </linearGradient>
    <linearGradient id="linear-gradient-2" x1="0" y1="0.5" x2="1" y2="0.5" xlink:href="#linear-gradient"/>
    <clipPath id="clip-create_password">
      <rect width="428" height="428"/>
    </clipPath>
  </defs>
  <g id="create_password" clip-path="url(#clip-create_password)">
    <g id="Groupe_2821" data-name="Groupe 2821" transform="translate(-55 -107.792)">
      <g id="Groupe_2716" data-name="Groupe 2716" transform="translate(75.592 423.285)">
        <path id="Tracé_7613" data-name="Tracé 7613" d="M553.7,603.616c-42.168-12.424-82.164-10.01-118.14-3.361-34.608,6.4-65.474,16.761-90.917,21.593-44.721,8.5-82.306,18.474-131.963-14.664-14.871-9.938-7.279-26.6,22.957-40.488,31.81-14.7,88.677-26.386,170.841-24.146C658.373,549.374,633.422,627.165,553.7,603.616Z" transform="translate(-205.308 -542.274)" fill="rgba(189,197,234,0.4)"/>
        <path id="Tracé_7614" data-name="Tracé 7614" d="M435.564,590.412c-34.608,6.4-65.474,16.762-90.917,21.593-44.721,8.5-82.306,18.474-131.963-14.664-14.871-9.938-7.279-26.6,22.957-40.488,20.856-6.021,46.473-9.554,74.152-9.554C373.484,547.3,426.221,566.02,435.564,590.412Z" transform="translate(-205.308 -532.431)" opacity="0.5" fill="url(#linear-gradient)" style="mix-blend-mode: overlay;isolation: isolate"/>
      </g>
      <g id="Groupe_2717" data-name="Groupe 2717" transform="translate(55 132.792)">
        <path id="Tracé_7615" data-name="Tracé 7615" d="M472.888,687.934a44.011,44.011,0,0,0-13.578-5.95,59.255,59.255,0,0,0-14.522-1.888c-15.853-.316-33.91,4.234-52.982,9.764-5.494,1.574-11.024,3.219-16.658,4.9-27.084,8.051-55.536,15.959-82.2,13.72-16.028-1.332-31.425-6.3-45.529-17.182-15.817-12.11-29.954-31.6-41.5-61.521-.281-.734-.559-1.471-.769-2.2-12.669-34.715-6.474-67.436,9.027-93.331,29.99-50.148,94.8-74.854,125.981-39.334,37.058,42.168,77.442,38.319,98.58,19.211a45.521,45.521,0,0,0,12.947-19.492c10.708-32.614,63.2-67.643,106.663-41.257q2.308,1.416,4.2,2.834c29.744,22.327-9.2,51.476.734,97.284,10.323,47.769,46.228,17.954,56.027,61.731C631.586,670.3,528.74,724.957,472.888,687.934Z" transform="translate(-198.348 -444.094)" fill="rgba(189,197,234,0.4)"/>
        <path id="Tracé_7616" data-name="Tracé 7616" d="M322.6,679.918a44.015,44.015,0,0,0-13.578-5.95,59.247,59.247,0,0,0-14.522-1.888,149.8,149.8,0,0,1-19.247-66.7c-.107-2.414-.175-4.864-.175-7.314A150.457,150.457,0,0,1,412.253,448.186c29.744,22.327-9.2,51.476.734,97.284,10.323,47.769,46.228,17.954,56.027,61.731C481.3,662.281,378.449,716.941,322.6,679.918Z" transform="translate(-48.057 -436.078)" opacity="0.5" fill="url(#linear-gradient-2)" style="mix-blend-mode: overlay;isolation: isolate"/>
        <path id="Tracé_7617" data-name="Tracé 7617" d="M428.257,491.562A142.2,142.2,0,0,1,203.7,511.684c29.99-50.148,94.8-74.854,125.981-39.334C366.736,514.519,407.12,510.669,428.257,491.562Z" transform="translate(-187.87 -421.539)" opacity="0.5" fill="url(#linear-gradient-2)" style="mix-blend-mode: overlay;isolation: isolate"/>
        <path id="Tracé_7618" data-name="Tracé 7618" d="M370.647,591.225c-27.084,8.051-55.536,15.959-82.2,13.72-16.028-1.331-31.425-6.3-45.529-17.182-15.817-12.11-29.954-31.6-41.5-61.521-.281-.734-.559-1.471-.769-2.2a100.692,100.692,0,0,1,68.9-27.087,82.972,82.972,0,0,1,8.4.388,101.053,101.053,0,0,1,70.548,37.408c2.1,2.624,4.1,5.355,5.95,8.19A100.259,100.259,0,0,1,370.647,591.225Z" transform="translate(-193.847 -340.561)" opacity="0.5" fill="url(#linear-gradient-2)" style="mix-blend-mode: overlay;isolation: isolate"/>
      </g>
    </g>
    <g id="Groupe_2869" data-name="Groupe 2869" transform="translate(10.823 -80.649)">
      <path id="Tracé_7688" data-name="Tracé 7688" d="M277.925,129.686v137.1c0,9.913-7.533,18.006-16.928,18.006H84.934c-7.613,0-14.053-5.367-16.16-12.769a20.221,20.221,0,0,1-.727-5.237v-137.1a18.868,18.868,0,0,1,2.186-8.83,16.74,16.74,0,0,1,14.7-9.218H261a13.6,13.6,0,0,1,3.524.432,16.475,16.475,0,0,1,10.083,6.923A18.435,18.435,0,0,1,277.925,129.686Z" transform="translate(-35.756)" fill="#fff"/>
      <path id="Tracé_7689" data-name="Tracé 7689" d="M277.925,128.533v7.533H68.048v-7.533a16.954,16.954,0,0,1,16.886-16.89H261a14.475,14.475,0,0,1,3.524.4,16.91,16.91,0,0,1,13.4,16.485Z" transform="translate(-35.756 -0.003)" fill="#101011"/>
      <g id="Groupe_2849" data-name="Groupe 2849" transform="translate(86.302 190.301)">
        <path id="Tracé_7690" data-name="Tracé 7690" d="M286.71,331.377V287.005a6.143,6.143,0,0,0-6.141-6.141h-98.7v-3.457h98.7a9.61,9.61,0,0,1,9.6,9.6v44.372" transform="translate(-181.866 -277.407)" fill="#ff8d67"/>
      </g>
      <rect id="Rectangle_1" data-name="Rectangle 1" width="62.719" height="61.641" rx="1.846" transform="translate(52.164 165.274)" fill="#8f7551"/>
      <rect id="Rectangle_2" data-name="Rectangle 2" width="63.723" height="62.66" rx="1.846" transform="translate(157.74 211.651)" fill="#8f7551"/>
      <g id="Groupe_2851" data-name="Groupe 2851" transform="translate(320.576 365.196)">
        <g id="Groupe_2850" data-name="Groupe 2850" transform="translate(0 0)">
          <rect id="Rectangle_3" data-name="Rectangle 3" width="11.856" height="4.424" rx="0.694" transform="translate(0 10.267) rotate(-59.999)" fill="#e90566"/>
        </g>
      </g>
      <path id="Tracé_7691" data-name="Tracé 7691" d="M211.427,580.053V568.271c0-.035-.035-.067-.035-.1-.035-3.082-1.883-6.061-4.726-8.494a9.621,9.621,0,0,1,.067-2.157,5.88,5.88,0,0,0,2.74.685,59.358,59.358,0,0,0,9.178-9.487l2.123,1.406,2.157-10.752-3.422-4.9-11.574-2.6s-1.1.443-2.569,1.091l-.411-.2-.237.478c-3.152,1.37-7.466,3.289-7.568,3.391-.172.172-.617,10.822-.617,10.822l.924,1.609-.169.376c.274.237.513.513.787.755l.822,1.437.513-.207a26.487,26.487,0,0,1-1.781,3.563,16.721,16.721,0,0,0-6.3-.548c-8.32,1.437-16.229,7.843-23.869,16.093a144.144,144.144,0,0,0,43.661,9.588C211.218,580.085,211.32,580.085,211.427,580.053Z" transform="translate(-87.994 -220.818)" opacity="0.1" style="isolation: isolate"/>
      <path id="Tracé_7692" data-name="Tracé 7692" d="M625,631.211c-3.369-3.136-10.367-6.1-17.616-7.928a19.8,19.8,0,0,1-1.479-3.336c.816-.437,1.635-.876,2.569-1.408l.545-.249L611,613.3a2.355,2.355,0,0,0,.074-1.558l-1.284-4.378a4.623,4.623,0,0,0,1.941,1.2v-.325l.249.112,2.049,7.664a2.389,2.389,0,0,0,1.234,1.519l1.989,1a2.391,2.391,0,0,0,3.161-.966l1.491-2.661a2.384,2.384,0,0,0-.312-2.772L615.5,605.4a2.385,2.385,0,0,0-1.139-.7l-2.919-.807a1.183,1.183,0,0,0-.245-.589,4.722,4.722,0,0,0-2.339-.242h0l-.37-.026-3.066-3.508a2.4,2.4,0,0,0-1.523-.8l-7.46-.873a2.368,2.368,0,0,0-1.256.194l-4.579,2.052a2.39,2.39,0,0,0-1.24,1.287l-1.75,4.343a2.38,2.38,0,0,0,.526,2.581l1.648,1.651a2.379,2.379,0,0,1,.676,1.508,26.8,26.8,0,0,0,2.508,9.818,19.135,19.135,0,0,0-3.034.558,9.669,9.669,0,0,0-2.747.979,12.639,12.639,0,0,0-4.968,3.738l-10.86,13.983a2.393,2.393,0,0,1-2.339.883l-6.8-1.307.029-3.129.029-1.3a2.056,2.056,0,0,0-1.775-1.946l-32.944-6.182a2.173,2.173,0,0,0-2.69,1.921l-.041,3.722-.169,17.1a2.053,2.053,0,0,0,1.772,1.946l.166.032h0l-.5-.093a1.492,1.492,0,0,0-1.351.4,1.052,1.052,0,0,0-.4.641l-.484,2.056a1.307,1.307,0,0,0,1.033,1.533c.034.007.067.012.1.016l3.606.675c-4.748,9.158-9.8,28.257-14.738,43.61l1.877.3-2.4,3.607-2.3.927c-.054-.026-.105-.038-.156-.064l-8.447,3.1c-4.057,2.636,16.826,4.219,19.238,2.049.908-1.3.94-3.572-.727-4.49-.061.016-.124.029-.185.045l-.271-.9.759-3.4,1.227.195,15.723-27.713a2.384,2.384,0,0,1,3.25-.9c.043.024.085.05.125.076a98.7,98.7,0,0,0,19.5,10.032,2.377,2.377,0,0,1,.561,4.152l-43.881,31.959,1,1.061-3.665,2-2.5-.242c-.035-.047-.076-.076-.112-.128l-9.041-1.157c-5,.43,12.078,11.255,15.395,10.484,1.518-.7,2.847-2.651,1.938-4.2-.064-.013-.121-.038-.185-.051l.285-.9,1.74-1.731.777.825,49.655-24.129a2.417,2.417,0,0,1,.389-.147c19.5-5.525,35.258-11.189,33.312-17.476l10.1-25.127m-40.124,2.5-6.587-1.237,6.042.749.743.095c-.056.136-.127.263-.19.4Zm-4.089-9.9a2.768,2.768,0,0,0,.664.118,11.952,11.952,0,0,0,6.45-1.854c-.178,1.571-.4,3.123-.7,4.637l-1.848-.051-12.788-.37a2.39,2.39,0,0,1-2.32-2.413h0a2.389,2.389,0,0,1,3.065-2.269Zm1.237,14.216a18.891,18.891,0,0,1-3,2.712,2.363,2.363,0,0,1-2.607.089c-2.847-1.721-5.781-3.606-8.709-5.484Z" transform="translate(-263.745 -255.479)" opacity="0.1" style="isolation: isolate"/>
      <g id="Groupe_2857" data-name="Groupe 2857" transform="translate(226.32 329.04)">
        <g id="Groupe_2852" data-name="Groupe 2852" transform="translate(0.623 134.781)">
          <path id="Tracé_7693" data-name="Tracé 7693" d="M501.147,853.8l-4.725,2.838-7.484-.8,12.29,8.379.976-3.395,2.986-3.258Z" transform="translate(-483.863 -853.804)" fill="#b5805d"/>
          <path id="Tracé_7694" data-name="Tracé 7694" d="M496.487,863.154a12.515,12.515,0,0,1-8.292-5.631l-9.041-1.268c-5,.472,12.075,12.352,15.392,11.5C496.069,866.989,497.395,864.851,496.487,863.154Z" transform="translate(-478.244 -855.092)" fill="#1b2c7b"/>
        </g>
        <g id="Groupe_2853" data-name="Groupe 2853" transform="translate(49.327 25.698)">
          <path id="Tracé_7695" data-name="Tracé 7695" d="M630.3,628.949c-8.3,13.269,8.518,34.8-14.369,25.36l-22.307,3.186H580.88l6.373-6.373h3.187l15.933-6.373,5.475-14.918C617.476,621.686,633.544,622.534,630.3,628.949Z" transform="translate(-580.88 -623.93)" fill="#fdca33"/>
        </g>
        <path id="Tracé_7696" data-name="Tracé 7696" d="M599.32,759.688c1.945,6.925-13.926,13.161-33.518,19.245l-49.844,26.583-5.631-6.558,51.1-40.85c8.789-5.169,19.375-9.761,27.74-6.68Z" transform="translate(-494.48 -664.705)"/>
        <g id="Groupe_2854" data-name="Groupe 2854" transform="translate(0 113.226)">
          <path id="Tracé_7697" data-name="Tracé 7697" d="M496.122,808.38l-2.715,4.485-6.858,3.037,14.94,1.1-.926-3.409.876-4.29Z" transform="translate(-481.984 -808.38)" fill="#b5805d"/>
          <path id="Tracé_7698" data-name="Tracé 7698" d="M495.965,820.556a12.763,12.763,0,0,1-10.067-.723l-8.447,3.4c-4.057,2.895,16.826,4.631,19.241,2.25C497.6,824.062,497.632,821.563,495.965,820.556Z" transform="translate(-476.931 -814.398)" fill="#1b2c7b"/>
        </g>
        <path id="Tracé_7699" data-name="Tracé 7699" d="M578.046,733.759c-19.971,3.445-36.912-6.16-50.348-15.985l-16.979,32.842-8.62-1.5c6.077-20.742,12.326-47.711,17.976-52.9,7.9-4.977,24.429,9.8,38.393,18.716Z" transform="translate(-490.156 -635.694)"/>
        <path id="Tracé_7700" data-name="Tracé 7700" d="M618.191,677.844c0,8.5,28.135,16.81,37.807,15.672l20.2-55.171c-2.186-8.674-34.146-18.384-40.911-11.52C624.813,641.257,635.31,666.907,618.191,677.844Z" transform="translate(-551.158 -598.533)" fill="#fdca33"/>
        <g id="Groupe_2855" data-name="Groupe 2855" transform="translate(85.095)">
          <path id="Tracé_7701" data-name="Tracé 7701" d="M677.392,623.468c1.02-1.606.13-6.243-.5-10.471l7.795-2.559c.822,3.9,1.826,7.453,3.4,9.888C685.524,625.269,679.339,626.712,677.392,623.468Z" transform="translate(-667.099 -591.143)" fill="#b5805d"/>
          <path id="Tracé_7702" data-name="Tracé 7702" d="M666.869,602.347c1.842,1.424,4.809,1.252,14.521-4.818l.389-16.992-17.017-1.319C661.857,585.32,663.561,597.5,666.869,602.347Z" transform="translate(-659.944 -574.737)" fill="#b5805d"/>
          <path id="Tracé_7703" data-name="Tracé 7703" d="M656.254,580.115l3.612,3.97,9.281-2.32-.593,4.37,1.416.513,1.756-3.813,1.993,2.547-2.942,4.11,3.917,4.583,3.553-1.783,2.3-6.323-1.519-5.674,2.188,1.088,2.325,9.546,4.988,2.757,3.453-6.753-7.714-9.36-6.494-1.968-3.723-4.672-9.03-1.161-6.06,2.983Z" transform="translate(-656.254 -569.776)" fill="#0a0a0a"/>
          <path id="Tracé_7704" data-name="Tracé 7704" d="M701.591,582c1.163,1.431,1.252,4.687,1.252,4.687a4.639,4.639,0,0,0,1.941,1.322s.064-5.287-.532-5.777S701.591,582,701.591,582Z" transform="translate(-680.077 -576.162)" fill="#ff8d67"/>
        </g>
        <g id="Groupe_2856" data-name="Groupe 2856" transform="translate(50.295 36.251)">
          <path id="Tracé_7705" data-name="Tracé 7705" d="M645.045,683.642l-30.21-4.1-16.8-2.292.354-5.475,17.473.555,26.481.812,8.494-20.892c2.578-5.341,14.777-9.685,15.327-1.644C663.3,670.363,652.544,684.509,645.045,683.642Z" transform="translate(-590.86 -646.169)" fill="#fdca33"/>
          <path id="Tracé_7706" data-name="Tracé 7706" d="M592.02,699.152l-2.618-2.373-6.483,3.227,7.32,4.767,1.453-.175Z" transform="translate(-582.919 -672.763)" fill="#b5805d"/>
        </g>
      </g>
      <ellipse id="Ellipse_2" data-name="Ellipse 2" cx="56.859" cy="9.481" rx="56.859" ry="9.481" transform="translate(112.603 458.698)" opacity="0.1" style="isolation: isolate"/>
      <g id="Groupe_2867" data-name="Groupe 2867" transform="translate(0.001 308.995)">
        <g id="Groupe_2858" data-name="Groupe 2858" transform="translate(91.586 31.708)">
          <path id="Tracé_7707" data-name="Tracé 7707" d="M241.4,630.519l-.664,5.924c-11.549.332-40.034-3.362-42.9-4.991-1.631-1.1-2.929-6.456-3.8-12.715-1.1-8.02-1.4-17.47-.532-21.4.8-4.924,12.48-3.926,13.547,4.3v20.93Z" transform="translate(-193.004 -594.356)" fill="#b5805d"/>
          <path id="Tracé_7708" data-name="Tracé 7708" d="M293.619,674.093s3.8,3.5,6.775,2.9c3.171-.641,4-7.3,2.581-8.961s-4.436,1.514-4.895.58,1.139-1.644.427-2.412-4.232,2.021-4.232,2.021Z" transform="translate(-245.874 -632.039)" fill="#b5805d"/>
          <path id="Tracé_7709" data-name="Tracé 7709" d="M207.921,603.239v12.989c-3.327.966-10.286,2.7-13.881,2.929-1.1-8.02-1.4-17.47-.532-21.4C194.308,592.834,206.854,595.02,207.921,603.239Z" transform="translate(-193.005 -594.775)" fill="#fdca33"/>
        </g>
        <g id="Groupe_2862" data-name="Groupe 2862" transform="translate(109.67 69.308)">
          <g id="Groupe_2859" data-name="Groupe 2859" transform="translate(35.288 27.782)">
            <path id="Tracé_7710" data-name="Tracé 7710" d="M336.1,744.872a15.459,15.459,0,0,0-17.943-12.49,9.665,9.665,0,0,0-1.061.241,15.466,15.466,0,0,0-11.367,17.737c.035.137.067.309.1.446a15.31,15.31,0,0,0,11.3,11.711,14.822,14.822,0,0,0,6.507.237,15.393,15.393,0,0,0,12.635-13.834,14.636,14.636,0,0,0-.172-4.041Z" transform="translate(-305.477 -732.137)" fill="none"/>
          </g>
          <g id="Groupe_2861" data-name="Groupe 2861">
            <path id="Tracé_7711" data-name="Tracé 7711" d="M312.811,719.664a5.777,5.777,0,0,0,4.656-6.711l-1.37-7.568a5.8,5.8,0,0,0-2.773-4.006,5.66,5.66,0,0,0-3.528-.685,1.632,1.632,0,0,0-.411.035l-1.061.2-5.376.958a27.306,27.306,0,0,0-3.152-4.863l3.767-5.41a5.845,5.845,0,0,0-1.437-8.082l-6.335-4.347a5.818,5.818,0,0,0-3.286-1.029,5.65,5.65,0,0,0-2.98.822.734.734,0,0,0-.274.172c-.207.137-.411.274-.583.411l-.376.376a4.172,4.172,0,0,0-.583.72l-2.122,3.011-1.609,2.294a33.309,33.309,0,0,0-5.685-1.2l-1.163-6.437a5.725,5.725,0,0,0-5.376-4.726.047.047,0,0,0-.067,0l0,0a5.136,5.136,0,0,0-1.265.07l-7.5,1.335a5.829,5.829,0,0,0-4.726,6.743l1.163,6.44c-.341.169-.685.376-1.026.58a35.338,35.338,0,0,0-3.837,2.536l-5.376-3.7a5.82,5.82,0,0,0-6.643.035,6.211,6.211,0,0,0-1.4,1.437l-4.35,6.264a5.785,5.785,0,0,0,1.407,8.059l.033.023,5.341,3.735c-.274.924-.513,1.883-.72,2.842a26.894,26.894,0,0,0-.478,2.807l-6.437,1.163a5.792,5.792,0,0,0-4.66,6.737v.009l1.335,7.568a6,6,0,0,0,3.9,4.452,6.068,6.068,0,0,0,2.842.2l6.437-1.163a11.781,11.781,0,0,0,.72,1.234,28.106,28.106,0,0,0,2.4,3.63l-3.7,5.343a5.774,5.774,0,0,0,1.388,8.047l.05.035,6.3,4.382a5.625,5.625,0,0,0,2.98,1h.035a5.622,5.622,0,0,0,5-2.431l3.767-5.376a31.453,31.453,0,0,0,5.65,1.268l.2,1.091.959,5.275a5.627,5.627,0,0,0,2.534,3.837,5.774,5.774,0,0,0,4.213.889l7.533-1.37a5.824,5.824,0,0,0,4.656-6.778l-1.163-6.37a28.317,28.317,0,0,0,4.863-3.184l3.7,2.569,1.714,1.2a5.91,5.91,0,0,0,7.017-.344,5.533,5.533,0,0,0,1.061-1.128l4.385-6.335a5.831,5.831,0,0,0-1.471-8.082l-5.41-3.7a31.459,31.459,0,0,0,1.268-5.65Zm-62.357,1.507a24.242,24.242,0,0,1,19.494-28.2l.095-.017a23.353,23.353,0,0,1,8.012-.067,24.171,24.171,0,0,1,20.168,19.656,22.922,22.922,0,0,1,.376,4.315,24.258,24.258,0,0,1-19.962,23.833c-.237.032-.446.067-.685.1A24.207,24.207,0,0,1,250.453,721.172Z" transform="translate(-231.113 -673.591)" fill="#020202"/>
            <g id="Groupe_2860" data-name="Groupe 2860" transform="translate(18.94 18.981)">
              <path id="Tracé_7712" data-name="Tracé 7712" d="M305.727,750.9c.035.137.067.309.1.446A15.309,15.309,0,0,0,317.12,763.05l.008,0a15.389,15.389,0,0,0-.026-29.891l-.008,0A15.465,15.465,0,0,0,305.727,750.9Z" transform="translate(-289.129 -723.872)" fill="none"/>
              <path id="Tracé_7713" data-name="Tracé 7713" d="M341.472,744.877A15.346,15.346,0,0,1,330,762.512l-.008,0,.009,0a14.823,14.823,0,0,0,6.507.237,15.393,15.393,0,0,0,12.635-13.834,14.638,14.638,0,0,0-.172-4.041v-.008a15.459,15.459,0,0,0-17.943-12.49,9.626,9.626,0,0,0-1.053.239A15.41,15.41,0,0,1,341.472,744.877Z" transform="translate(-302.002 -723.336)" fill="#8f7551"/>
              <path id="Tracé_7714" data-name="Tracé 7714" d="M278.925,742.189a23.4,23.4,0,0,1-.376-5.07,24.265,24.265,0,0,1,19.965-23.148,2.818,2.818,0,0,1,.513-.067h0a23.353,23.353,0,0,0-8.012.067,24.245,24.245,0,0,0,7.822,47.85A24.278,24.278,0,0,1,278.925,742.189Z" transform="translate(-271.027 -713.59)" fill="#8f7551"/>
              <path id="Tracé_7715" data-name="Tracé 7715" d="M307.924,762.055a24.258,24.258,0,0,0,19.962-23.833,22.922,22.922,0,0,0-.377-4.315,24.172,24.172,0,0,0-20.166-19.656h0a2.824,2.824,0,0,0-.513.067,24.265,24.265,0,0,0-19.965,23.148,23.4,23.4,0,0,0,.376,5.07,24.278,24.278,0,0,0,19.912,19.632l.088-.011C307.477,762.122,307.685,762.087,307.924,762.055Zm-1.58-8.7a15.418,15.418,0,0,1-17.906-12.4,16.2,16.2,0,0,1-.242-2.874,15.454,15.454,0,0,1,12.67-15.1,14.508,14.508,0,0,1,6.437.237l.009,0a9.626,9.626,0,0,1,1.053-.239,15.459,15.459,0,0,1,17.943,12.49v.008a14.637,14.637,0,0,1,.172,4.041,15.393,15.393,0,0,1-12.635,13.834,14.822,14.822,0,0,1-6.507-.237l-.009,0a8.09,8.09,0,0,1-.986.24Z" transform="translate(-279.341 -713.938)" fill="#8f7551"/>
            </g>
          </g>
        </g>
        <g id="Groupe_2863" data-name="Groupe 2863" transform="translate(55.448 58.451)">
          <path id="Tracé_7717" data-name="Tracé 7717" d="M202.5,851.339a5.765,5.765,0,0,0,1.284,3.094c1.256,1.635-8.12,5.376-8.12,5.376a7.162,7.162,0,0,1-.564-5.162,8.155,8.155,0,0,0,.28-4.426Z" transform="translate(-157.839 -755.546)" fill="#b5805d"/>
          <path id="Tracé_7718" data-name="Tracé 7718" d="M116.848,658.33c8.237,30.028,17.757,32.8,20.733,41.985s16.277,47.294,16.277,47.294c1.673,1.122,5.918.472,7.823-1.169-2.636-23.964-5.115-52.087-7.791-59.684a144.137,144.137,0,0,0-19.477-36.045Z" transform="translate(-116.848 -650.711)"/>
          <path id="Tracé_7719" data-name="Tracé 7719" d="M193.706,862.493c-.569,2.693-.1,4.875,1.453,6.523,7.476-2.314,14.812-4.388,21.644-6.966-.864-2.671-9.1-3.92-13.4-3.725A12.228,12.228,0,0,1,193.706,862.493Z" transform="translate(-157.112 -759.795)" fill="#1b2c7b"/>
        </g>
        <g id="Groupe_2864" data-name="Groupe 2864" transform="translate(0 61.73)">
          <path id="Tracé_7720" data-name="Tracé 7720" d="M18.889,838.016a5.852,5.852,0,0,0-1.635,2.878c-.217.733-1.38.526-2.8.029a41.392,41.392,0,0,1-6.447-3.165,6.657,6.657,0,0,1,.918-1.482,7.055,7.055,0,0,1,2.874-2.142,7.94,7.94,0,0,0,1.954-1.039,5.545,5.545,0,0,0,1.679-1.431l1.033,1.9,2.355,4.353Z" transform="translate(-4.208 -749.076)" fill="#b5805d"/>
          <path id="Tracé_7721" data-name="Tracé 7721" d="M75.482,663.715a235.779,235.779,0,0,1-.443,24.123c-.647,7.807-2.008,14.423-4.516,18.349-4.356,6.778-28.614,23.951-45.988,40.656-.555-.083-5.774-5-5.781-5.427,0,0,26.583-34.063,32.065-42.033s-.937-22.842,7.165-41.762Z" transform="translate(-9.856 -657.622)"/>
          <path id="Tracé_7722" data-name="Tracé 7722" d="M19.067,857.6a1.918,1.918,0,0,1-.309.854C12.538,854.606,6.429,850.044,0,845.525c.373-2.266,1.8-3.929,4.324-5.156a5.235,5.235,0,0,0,.392.481,11.878,11.878,0,0,0,5.2,3.885,11.179,11.179,0,0,0,3.126.733c.166.032.325.009.491.038C16.02,848.492,19.513,854.728,19.067,857.6Z" transform="translate(-0.001 -753.649)" fill="#1b2c7b"/>
        </g>
        <path id="Tracé_7723" data-name="Tracé 7723" d="M98.117,618.451c-3.986,6.134,27.425,14.236,35.525,10.806,11.074-13.636,21.268-21.714,24.229-33.773.36-8.542-11.415-16.765-20.1-15.58C123.639,582.581,110.589,601.223,98.117,618.451Z" transform="translate(-51.375 -554.994)" fill="#fdca33"/>
        <g id="Groupe_2865" data-name="Groupe 2865" transform="translate(79.136 31.826)">
          <path id="Tracé_7724" data-name="Tracé 7724" d="M210.2,640.633v.035l-2.129,5.523c-11.249-2.53-37.906-13.244-40.267-15.542-1.466-1.664-1.234-8.384-.233-15.542,1.029-7.453,2.895-15.341,4.556-18.569,2.03-4.56,13.046-.664,12.049,7.556l-3.3,12.744-1.962,7.518Z" transform="translate(-166.767 -594.603)" fill="#b5805d"/>
          <path id="Tracé_7725" data-name="Tracé 7725" d="M253.861,695.922s2.8,4.34,5.837,4.508c3.227.172,5.7-6.067,4.739-8.031s-4.672.354-4.882-.664,1.519-1.306,1.016-2.227-4.6.892-4.6.892Z" transform="translate(-212.532 -644.336)" fill="#b5805d"/>
        </g>
        <g id="Groupe_2866" data-name="Groupe 2866" transform="translate(91.577)">
          <path id="Tracé_7726" data-name="Tracé 7726" d="M203.4,578.325c-.873-1.737.449-6.4,1.471-10.677l-7.565-3.327c-1.186,3.923-2.521,7.467-4.318,9.815C195.09,579.43,201.151,581.47,203.4,578.325Z" transform="translate(-192.985 -546.865)" fill="#b5805d"/>
          <path id="Tracé_7727" data-name="Tracé 7727" d="M206.834,557.7c-3.792.226-8.056-5.567-12.186-9.659l7.661-18.4,16.957,8.731C218.856,545.53,213.061,551.658,206.834,557.7Z" transform="translate(-193.859 -528.641)" fill="#b5805d"/>
          <path id="Tracé_7728" data-name="Tracé 7728" d="M195.431,549.356l4.56-1.934,1.243-5.707,2.588-.708-.443,4.563,1.3.513,2.543-5.777,10.1,7.37,2.138-11.854-3.417-5.395-11.584-2.89s-10.618,5.093-10.778,5.267-.612,11.931-.612,11.931Z" transform="translate(-193.029 -527.536)" fill="#091038"/>
        </g>
        <path id="Tracé_7729" data-name="Tracé 7729" d="M185.188,603.3l-3.932,13.382c-4.095.765-10.29.628-13.786-2.2,1.033-7.454,2.492-14.869,4.155-18.1C173.656,591.824,186.189,595.081,185.188,603.3Z" transform="translate(-88 -562.624)" fill="#fdca33"/>
      </g>
      <path id="Tracé_7730" data-name="Tracé 7730" d="M701.966,339.462c-17.578-10.083-35.366-26.194-45.283-43.847a3.345,3.345,0,0,1-.449-1.718V235.237a3.457,3.457,0,0,1,2.361-3.314l43.973-15.14a3.331,3.331,0,0,1,2.278,0l43.974,15.14a3.453,3.453,0,0,1,2.361,3.314v58.658a3.376,3.376,0,0,1-.446,1.718c-9.92,17.653-27.709,33.766-45.283,43.847a3.416,3.416,0,0,1-3.486,0" transform="translate(-344.828 -55.145)" fill="#c5e0fb" fill-rule="evenodd"/>
      <path id="Tracé_7731" data-name="Tracé 7731" d="M802.515,296.272c-13.04,23.256-36.908,38.986-46.233,44.132V218.1L800.6,233.356a3.452,3.452,0,0,1,2.365,3.311v57.892a3.366,3.366,0,0,1-.446,1.715" transform="translate(-397.4 -55.94)" fill="#3d3d3f" fill-rule="evenodd"/>
      <path id="Tracé_7732" data-name="Tracé 7732" d="M658.356,296.272c13.037,23.256,36.905,38.986,46.233,44.132V218.1l-44.318,15.261a3.452,3.452,0,0,0-2.365,3.311v57.892a3.343,3.343,0,0,0,.449,1.715" transform="translate(-345.707 -55.94)" fill="#0a0a0a" fill-rule="evenodd"/>
      <path id="Tracé_7733" data-name="Tracé 7733" d="M794.873,302.431V252.489a3.446,3.446,0,0,0-2.361-3.311l-36.23-12.48V341.108c14.525-8.843,29.439-22.5,38.091-36.867a3.354,3.354,0,0,0,.5-1.81" transform="translate(-397.4 -65.714)" fill="#0a0a0a" fill-rule="evenodd"/>
      <path id="Tracé_7734" data-name="Tracé 7734" d="M742.907,274.507a7.273,7.273,0,0,0-7.247,7.247v7.008h14.49v-7.008a7.274,7.274,0,0,0-7.243-7.247m0-4.828a12.1,12.1,0,0,1,12.078,12.074v9.42a2.416,2.416,0,0,1-2.415,2.415H733.245a2.416,2.416,0,0,1-2.415-2.415v-9.42A12.1,12.1,0,0,1,742.9,269.677Z" transform="translate(-384.026 -83.044)" fill="#f6f9fc"/>
      <path id="Tracé_7735" data-name="Tracé 7735" d="M756.282,312.491h16.1a3.227,3.227,0,0,1,3.218,3.22v30.194a3.227,3.227,0,0,1-3.219,3.222h-16.1Z" transform="translate(-397.4 -105.542)" fill="#c5e0fb" fill-rule="evenodd"/>
      <path id="Tracé_7736" data-name="Tracé 7736" d="M718.785,312.491h16.1v36.634h-16.1a3.227,3.227,0,0,1-3.219-3.222V315.711a3.227,3.227,0,0,1,3.219-3.219" transform="translate(-376.006 -105.542)" fill="#f3f9ff" fill-rule="evenodd"/>
      <path id="Tracé_7737" data-name="Tracé 7737" d="M751.417,334.45a4.392,4.392,0,0,1,1.787,8.4l.112.312,1.9,5.443h-7.594l1.9-5.443.112-.312a4.392,4.392,0,0,1,1.787-8.4" transform="translate(-392.536 -117.08)" fill="#3ea5ec" fill-rule="evenodd"/>
      <path id="Tracé_7738" data-name="Tracé 7738" d="M753.61,334.814a4.393,4.393,0,0,1,.564,8.231l.112.312,1.9,5.443h-6.661l1.842-5.283.108-.312a4.393,4.393,0,0,1,1.791-8.4c.118,0,.232,0,.347.013" transform="translate(-393.506 -117.265)" fill="#1369b1" fill-rule="evenodd"/>
      <g id="Groupe_2868" data-name="Groupe 2868" transform="translate(173.483 223.472)">
        <path id="Tracé_7739" data-name="Tracé 7739" d="M366.349,384.521a2.774,2.774,0,0,0,3.8,0l21.737-19.461.408-.4,3.4.94a3.913,3.913,0,0,0,3.8-.94l4.213-4.162a1.394,1.394,0,0,0,0-1.743l-1.358-1.211a1.029,1.029,0,0,0-1.631,0L397.6,360.5a2.43,2.43,0,0,1-2.31.672l-4.076-1.074-1.224-4.162a2.463,2.463,0,0,1,.679-2.282l3.126-3.088a1.207,1.207,0,0,0,0-1.609l-1.358-1.342a1.441,1.441,0,0,0-1.769,0l-4.072,4.159a3.867,3.867,0,0,0-1.091,3.76l.953,3.355-2.31,2.415-17.8,19.461A2.693,2.693,0,0,0,366.349,384.521Z" transform="translate(-365.586 -347.309)" fill="#fff"/>
      </g>
      <path id="Tracé_7740" data-name="Tracé 7740" d="M366.349,394.147a2.774,2.774,0,0,0,3.8,0l21.737-19.461a30.549,30.549,0,0,1-7.607-3.624.134.134,0,0,1-.137-.13v0l-17.8,19.46A2.693,2.693,0,0,0,366.349,394.147Z" transform="translate(-192.102 -136.249)" fill="#fff" opacity="0.5" style="isolation: isolate"/>
      <path id="Tracé_7741" data-name="Tracé 7741" d="M580.4,659.984l-2.633-2.357-9.195,6.15,7.913,4.128,1.9-.657Z" transform="translate(-296.779 -283.693)" fill="#b5805d"/>
      <path id="Tracé_7742" data-name="Tracé 7742" d="M580.01,665.2l-7.257-13.019.669-2.748,7.45,13.75" transform="translate(-300.962 -282.596)" fill="#11100f"/>
      <path id="Tracé_7743" data-name="Tracé 7743" d="M591.265,677.587l-2.618-2.373-6.484,3.227,7.32,4.767,1.453-.175Z" transform="translate(-305.907 -296.14)" fill="#b5805d"/>
    </g>
  </g>
</svg>
