<svg xmlns="http://www.w3.org/2000/svg" width="18.086" height="18.086" viewBox="0 0 18.086 18.086"><defs><style>.a{fill:#fff;}</style></defs><g transform="translate(-10 -10)"><circle class="a" cx="3.278" cy="3.278" r="3.278" transform="translate(15.81 15.765)"/><path class="a" d="M28.086,18.229H26.458a7.412,7.412,0,0,0-6.6-6.6V10h-1.65v1.65a7.425,7.425,0,0,0-6.488,6.579H10v1.65h1.741a7.417,7.417,0,0,0,6.466,6.466v1.741h1.65V26.345a7.425,7.425,0,0,0,6.579-6.488h1.65Zm-8.229,6.466c-.113.023-.2.023-.317.045a3.03,3.03,0,0,1-.452.023,3.339,3.339,0,0,1-.475-.023c-.136-.023-.271-.023-.407-.045h0a5.757,5.757,0,0,1-4.815-4.815h0a2.491,2.491,0,0,1-.045-.407A3.339,3.339,0,0,1,13.323,19a3.03,3.03,0,0,1,.023-.452,1.527,1.527,0,0,1,.045-.317h0a5.731,5.731,0,0,1,4.815-4.906h0a2.491,2.491,0,0,1,.407-.045,3.339,3.339,0,0,1,.475-.023,3.03,3.03,0,0,1,.452.023,1.527,1.527,0,0,1,.317.045,5.663,5.663,0,0,1,4.928,4.906h0c.023.113.023.2.045.317a3.03,3.03,0,0,1,.023.452,3.339,3.339,0,0,1-.023.475c-.023.136-.023.271-.045.407h0A5.78,5.78,0,0,1,19.857,24.695Z"/></g></svg>