<svg xmlns="http://www.w3.org/2000/svg" width="21.339" height="21.339" viewBox="0 0 21.339 21.339"><defs><style>.a{fill:#ec7f83;}</style></defs><path class="a" d="M43.784,329a.5.5,0,0,1,.5.5v3.047a1.985,1.985,0,1,1-.993,0V329.5A.5.5,0,0,1,43.784,329Zm-9.429,0a.5.5,0,0,1,.5.5v3.047a1.985,1.985,0,1,1-.993,0V329.5A.5.5,0,0,1,34.356,329Zm12.9,1.489a2.5,2.5,0,0,1,2.489,2.49v14.872a2.494,2.494,0,0,1-2.489,2.489H30.9a2.5,2.5,0,0,1-2.49-2.489V332.978a2.5,2.5,0,0,1,2.49-2.49h1.481a.5.5,0,1,1,0,.993H30.9a1.485,1.485,0,0,0-1.5,1.5v4.458H48.755v-4.458a1.485,1.485,0,0,0-1.5-1.5H45.777a.5.5,0,1,1,0-.993Zm-5.452,0a.5.5,0,1,1,0,.993H36.348a.5.5,0,0,1,0-.993Zm1.977,2.977a.993.993,0,1,0,.993.993A.985.985,0,0,0,43.784,333.466Zm-9.429,0a.993.993,0,1,0,.993.993A.985.985,0,0,0,34.356,333.466Zm14.4,4.963H29.4v9.422a1.484,1.484,0,0,0,1.5,1.5H47.259a1.484,1.484,0,0,0,1.5-1.5Z" transform="translate(-28.408 -329)"/></svg>