<svg width="26.687" height="30.311" version="1.1" viewBox="0 0 26.686 30.311" xmlns="http://www.w3.org/2000/svg">
<g transform="rotate(90 13.343 13.342)">
  <g transform="translate(4.458)">
   <path transform="translate(-169.01 -330.96)" d="m172.58 337.98a3.564 3.564 0 0 1-3.566-3.507 3.525 3.525 0 0 1 3.566-3.507 3.507 3.507 0 1 1 0 7.013zm0-5.291a1.725 1.725 0 1 0 1.783 1.724 1.739 1.739 0 0 0-1.783-1.724z"/>
  </g>
  <g transform="translate(0,2.496)">
   <path transform="translate(-166 -332.65)" d="m171.35 334.43h-4.457a0.8915 0.8915 0 1 1 0-1.783h4.457a0.8915 0.8915 0 1 1 0 1.783z"/>
  </g>
  <g transform="translate(9.807,2.496)">
   <path transform="translate(-172.63 -332.65)" d="m192.24 334.43h-18.721a0.8915 0.8915 0 1 1 0-1.783h18.721a0.8915 0.8915 0 1 1 0 1.783z"/>
  </g>
  <g transform="translate(20.505,9.806)">
   <path transform="translate(-179.86 -337.59)" d="m183.42 344.6a3.564 3.564 0 0 1-3.566-3.507 3.525 3.525 0 0 1 3.566-3.507 3.563 3.563 0 0 1 3.566 3.507 3.526 3.526 0 0 1-3.566 3.507zm0-5.23a1.725 1.725 0 1 0 1.783 1.724 1.738 1.738 0 0 0-1.783-1.724z"/>
  </g>
  <g transform="translate(0,12.362)">
   <path transform="translate(-166 -339.32)" d="m187.4 341.1h-20.5a0.8915 0.8915 0 1 1 0-1.783h20.5a0.8915 0.8915 0 1 1 0 1.783z"/>
  </g>
  <g transform="translate(25.854,12.362)">
   <path transform="translate(-183.47 -339.32)" d="m187.04 341.1h-2.674a0.8915 0.8915 0 1 1 0-1.783h2.674a0.8915 0.8915 0 1 1 0 1.783z"/>
  </g>
  <g transform="translate(9.152,19.672)">
   <path transform="translate(-172.19 -344.26)" d="m175.75 351.27a3.507 3.507 0 1 1 3.567-3.507 3.565 3.565 0 0 1-3.567 3.507zm0-5.23a1.725 1.725 0 1 0 1.784 1.724 1.777 1.777 0 0 0-1.784-1.724z"/>
  </g>
  <g transform="translate(0,22.227)">
   <path transform="translate(-166 -345.99)" d="m176.04 347.77h-9.153a0.8915 0.8915 0 1 1 0-1.783h9.153a0.8915 0.8915 0 0 1 0 1.783z"/>
  </g>
  <g transform="translate(14.502,22.227)">
   <path transform="translate(-175.8 -345.99)" d="m190.72 347.77h-14.026a0.8915 0.8915 0 0 1 0-1.783h14.026a0.8915 0.8915 0 1 1 0 1.783z"/>
  </g>
 </g>
</svg>
