<svg xmlns="http://www.w3.org/2000/svg" width="319.611" height="235.828" viewBox="0 0 319.611 235.828"><defs><style>.a{fill:#a5eb78;}.b{opacity:0.1;}</style></defs><g transform="translate(0 -67.108)"><path class="a" d="M270.383,67.108,125.656,211.835a9.989,9.989,0,0,1-14.127,0l-62.3-62.3L0,198.762l93.977,93.979a34.81,34.81,0,0,0,24.614,10.2h0a34.811,34.811,0,0,0,24.614-10.2L319.611,116.336Z"/><g class="b" transform="translate(98.469 100.055)"><path d="M362.6,119.888,176.375,306.119a38.106,38.106,0,0,1-18.632,10.232,34.8,34.8,0,0,0,20.122,6.417h0a34.811,34.811,0,0,0,24.614-10.2L378.884,136.167Z" transform="translate(-157.743 -119.888)"/></g></g></svg>