<svg xmlns="http://www.w3.org/2000/svg" xmlns:xlink="http://www.w3.org/1999/xlink" width="935.889" height="941.718" viewBox="0 0 935.889 941.718"><defs><style>.a{fill:#f1eff8;}.ae,.b,.c,.d,.e,.k,.s,.t{opacity:0.5;mix-blend-mode:overlay;isolation:isolate;}.b{fill:url(#a);}.c{fill:url(#b);}.d{fill:url(#c);}.e{fill:url(#d);}.ae,.f{fill:#fff;}.g,.x{fill:#1b2c7b;}.h{fill:#ff8d67;}.i{fill:#fc322d;}.j{fill:#e90566;}.k{fill:url(#e);}.l{opacity:0.1;}.m{fill:#f4bc84;}.n{fill:#3b65db;}.o{fill:#2a195b;}.p{fill:#b92c49;}.q{fill:#0e1e59;}.r{fill:#c60561;}.s{fill:url(#f);}.t{fill:url(#g);}.u{fill:#091038;}.v{fill:#c5e0fb;}.ab,.ac,.ad,.v,.w,.x,.y,.z{fill-rule:evenodd;}.w{fill:#263b87;}.y{fill:#360e94;}.z{fill:#3f549e;}.aa{fill:#f6f9fc;}.ab{fill:#f3f9ff;}.ac{fill:#3ea5ec;}.ad{fill:#1369b1;}.af{fill:#11100f;}</style><linearGradient id="a" x1="0.284" y1="0.185" x2="0.641" y2="0.972" gradientUnits="objectBoundingBox"><stop offset="0" stop-color="#fff"/><stop offset="0.085" stop-color="#f5f5f5"/><stop offset="0.229" stop-color="#dadada"/><stop offset="0.413" stop-color="#afafaf"/><stop offset="0.631" stop-color="#747474"/><stop offset="0.876" stop-color="#292929"/><stop offset="1"/></linearGradient><linearGradient id="b" x1="0.398" y1="-0.079" x2="0.631" y2="0.89" xlink:href="#a"/><linearGradient id="c" x1="0.357" y1="0.031" x2="0.612" y2="1.098" xlink:href="#a"/><linearGradient id="d" x1="0.421" y1="-0.072" x2="0.573" y2="1.085" xlink:href="#a"/><linearGradient id="e" x1="0" y1="0.5" x2="1" y2="0.5" xlink:href="#a"/><linearGradient id="f" x1="-0.002" y1="0.5" x2="0.999" y2="0.5" gradientUnits="objectBoundingBox"><stop offset="0" stop-color="#fff"/><stop offset="0.256" stop-color="#c1c1c1"/><stop offset="0.845" stop-color="#292929"/><stop offset="1"/></linearGradient><linearGradient id="g" x1="0.436" y1="0.062" x2="0.674" y2="0.896" xlink:href="#f"/></defs><g transform="translate(-206.019 -604.147)"><g transform="translate(263.229 604.147)"><path class="a" d="M827.722,1125.192c-51.81-48.277-108.676-74.327-167.846-38.46-15.445,9.308-31.032,22.873-46.693,41.347-16.668,19.629-39.037,35.216-64.724,46.612-40.628,17.971-89.7,25.478-138.191,22.228a303.741,303.741,0,0,1-92.008-20.206c-26.123-10.315-49.936-24.532-69.706-42.644-30.522-28-30.958-51.884-21.718-79.309v-.067c18.9-56.074,78.436-127,4.4-278.181-3.821-7.649-7.938-15.587-12.41-23.746-33.483-60.687,10.61-173.185,135.733-143.818,102.33,24.034,127.728,174.058,372.352,66.248,8.374-3.68,17.03-7.649,25.982-11.981,130.179-63,207.246-31.247,218,53.475,3.68,27.923,0,61.621-11.255,99.577-27.2,91.357,106.292,68.773,123.9,161.715C1111.967,1128.079,942.6,1232.209,827.722,1125.192Z" transform="translate(-208.02 -604.147)"/><path class="b" d="M456.909,1032.785c-51.81-48.277-108.676-74.326-167.846-38.459A279.365,279.365,0,0,1,272.9,900.37c0-154.711,125.344-280.055,280.055-280.055a281.114,281.114,0,0,1,47.122,3.969c3.68,27.923,0,61.621-11.255,99.577-27.2,91.357,106.292,68.773,123.9,161.715C741.155,1035.673,571.791,1139.8,456.909,1032.785Z" transform="translate(162.792 -511.741)"/><path class="c" d="M726.909,675.2c-30.018,122.315-140.353,213.021-271.9,213.021a279.627,279.627,0,0,1-223.772-111.7c-3.821-7.649-7.938-15.587-12.41-23.746-33.483-60.687,10.61-173.185,135.733-143.818C456.887,632.982,482.285,783.006,726.909,675.2Z" transform="translate(-208.02 -604.147)"/><path class="d" d="M536.932,821.089c-40.628,17.971-89.7,25.478-138.191,22.228a303.734,303.734,0,0,1-92.008-20.206c-26.123-10.315-49.936-24.532-69.706-42.644-30.522-28-30.958-51.884-21.718-79.309v-.067a211.568,211.568,0,0,1,116.97-35.074C429.766,666.016,511.89,731.612,536.932,821.089Z" transform="translate(-196.492 -250.545)"/></g><g transform="translate(286.276 1347.417)"><path class="a" d="M983.964,837.714c-128.305-16.668-212.517-22.732-309.932,32.039a225.8,225.8,0,0,1-48.714,19.918c-98.858,28.8-238.271,10.1-361.956-27.782-92.653-28.285-56.578-82.916,70.861-119.5,10.825-3.17,22.369-6.132,34.491-9.019,16.527-3.821,34.276-7.36,53.113-10.537,18.038-3.1,37.016-5.842,57.081-8.153,10.6-1.3,21.577-2.451,32.758-3.465q37.673-3.456,79.236-4.9c14.794-.578,30.018-.867,45.531-1.014,216.849-1.511,335.263,25.693,389.6,56C1098.483,801.491,1057.276,847.243,983.964,837.714Z" transform="translate(-211.452 -705.238)"/><path class="e" d="M686.447,808.674c-128.305-16.668-212.517-22.732-309.932,32.039A225.8,225.8,0,0,1,327.8,860.631c-40.118-15.875-64.294-36.223-64.294-58.451,0-50.729,126.425-91.861,282.3-91.861,69.707,0,133.5,8.153,182.707,21.94C800.965,772.451,759.759,818.2,686.447,808.674Z" transform="translate(86.065 -676.198)"/></g><path class="f" d="M651.914,658.8V947.721c0,20.889-15.875,37.945-35.672,37.945H245.219c-16.043,0-29.615-11.309-34.054-26.909a42.615,42.615,0,0,1-1.531-11.036V658.8a39.765,39.765,0,0,1,4.607-18.607c6.145-11.582,17.668-19.425,30.978-19.425H616.242a28.647,28.647,0,0,1,7.427.911,34.718,34.718,0,0,1,21.248,14.589A38.851,38.851,0,0,1,651.914,658.8Z" transform="translate(64.433 95.018)"/><path class="g" d="M651.914,656.365V672.24H209.634V656.365a35.728,35.728,0,0,1,35.585-35.592H616.242a30.509,30.509,0,0,1,7.427.853,35.635,35.635,0,0,1,28.245,34.739Z" transform="translate(64.433 95.018)"/><g transform="translate(387.881 881.554)"><path class="h" d="M447.527,755.976V662.47a12.947,12.947,0,0,0-12.941-12.941h-208v-7.286h208A20.25,20.25,0,0,1,454.82,662.47v93.506" transform="translate(-226.582 -642.243)"/></g><rect class="i" width="132.169" height="129.899" rx="1.846" transform="translate(315.944 828.814)"/><rect class="i" width="134.286" height="132.045" rx="1.846" transform="translate(538.428 926.546)"/><g transform="translate(853.799 1250.116)"><g transform="translate(0 0)"><rect class="j" width="9.323" height="24.985" rx="0.694" transform="matrix(-0.866, -0.5, 0.5, -0.866, 35.852, 26.299)"/><path class="j" d="M466.159,743.7h-170.2a37.108,37.108,0,0,1,37.163-37.163H429A37.028,37.028,0,0,1,466.159,743.7Z" transform="translate(-295.962 -613.654)"/></g><path class="k" d="M333.125,706.538H429A37.028,37.028,0,0,1,466.159,743.7h-170.2a37.108,37.108,0,0,1,37.163-37.163Z" transform="translate(-295.962 -613.654)"/></g><path class="l" d="M317.1,778.809V753.981c0-.074-.074-.141-.074-.215-.074-6.494-3.969-12.773-9.959-17.9a20.279,20.279,0,0,1,.141-4.546,12.4,12.4,0,0,0,5.775,1.443c7.36-6.494,14.432-13.061,19.341-19.992l4.473,2.962,4.546-22.658-7.212-10.321-24.391-5.48s-2.31.934-5.413,2.3l-.866-.43-.5,1.007c-6.642,2.888-15.734,6.93-15.949,7.145-.363.362-1.3,22.806-1.3,22.806l1.947,3.391-.356.792c.578.5,1.081,1.081,1.659,1.591l1.733,3.029,1.081-.437a55.884,55.884,0,0,1-3.754,7.508,35.233,35.233,0,0,0-13.277-1.155c-17.534,3.029-34.2,16.527-50.3,33.914a303.736,303.736,0,0,0,92.008,20.206C316.659,778.876,316.874,778.876,317.1,778.809Z" transform="translate(149.033 458.744)"/><path class="l" d="M533.586,753.92c-7.1-6.608-21.846-12.854-37.123-16.708a41.671,41.671,0,0,1-3.116-7.031c1.719-.92,3.445-1.847,5.413-2.968l1.148-.524,4.19-10.523a4.967,4.967,0,0,0,.155-3.284l-2.706-9.227c.389.692,3.552,2.7,4.09,2.539v-.685l.524.235,4.318,16.151a5.037,5.037,0,0,0,2.6,3.2l4.191,2.109a5.039,5.039,0,0,0,6.662-2.035l3.143-5.607a5.023,5.023,0,0,0-.658-5.842l-12.84-14.2a5.024,5.024,0,0,0-2.4-1.477l-6.152-1.7a2.494,2.494,0,0,0-.517-1.242c-.96-.719-3.667-.6-4.929-.511h0l-.779-.054-6.461-7.393a5.063,5.063,0,0,0-3.21-1.686l-15.721-1.84a4.989,4.989,0,0,0-2.646.409l-9.65,4.325a5.038,5.038,0,0,0-2.612,2.713l-3.687,9.153a5.015,5.015,0,0,0,1.108,5.439l3.472,3.479a5.009,5.009,0,0,1,1.424,3.177c.564,7.649,2.5,15.284,5.285,20.69a40.349,40.349,0,0,0-6.393,1.175,20.4,20.4,0,0,0-5.789,2.062,26.637,26.637,0,0,0-10.469,7.877l-22.886,29.467a5.042,5.042,0,0,1-4.929,1.86L401.3,772.689l.06-6.594.061-2.747a4.333,4.333,0,0,0-3.741-4.1l-69.424-13.028c-2.888-.544-5.621,1.37-5.668,4.049l-.087,7.844-.356,36.028a4.327,4.327,0,0,0,3.734,4.1l.349.067h0l-1.054-.195a3.143,3.143,0,0,0-2.847.839,2.215,2.215,0,0,0-.833,1.35l-1.021,4.332a2.755,2.755,0,0,0,2.391,3.264l7.6,1.423c-10.006,19.3-20.65,59.546-31.059,91.9l3.955.625-5.05,7.6-4.849,1.954c-.114-.054-.222-.08-.329-.134l-17.8,6.534c-8.549,5.554,35.458,8.891,40.541,4.318,1.914-2.733,1.981-7.527-1.531-9.462-.128.034-.262.061-.389.094l-.571-1.907,1.6-7.159,2.586.41,33.134-58.4a5.024,5.024,0,0,1,7.112-1.733c12.39,7.992,26.116,15.674,41.1,21.14a5.008,5.008,0,0,1,1.182,8.75l-92.472,67.349,2.109,2.236-7.723,4.225-5.265-.511c-.074-.1-.161-.161-.235-.269l-19.052-2.438c-10.537.907,25.452,23.719,32.442,22.094,3.2-1.484,6-5.587,4.083-8.844-.134-.027-.255-.081-.389-.108l.6-1.887,3.667-3.647,1.638,1.739,104.64-50.849a5.042,5.042,0,0,1,.819-.309c41.092-11.644,74.3-23.578,70.2-36.828l21.288-52.951m-84.554,5.278-13.881-2.606,12.732,1.578,1.565.2C432.189,817.589,432.041,817.858,431.907,818.139Zm-8.616-20.871a5.859,5.859,0,0,0,1.4.248c4.526.188,9.066-1.29,13.592-3.908-.376,3.31-.846,6.581-1.484,9.771l-3.895-.108-26.949-.779a5.036,5.036,0,0,1-4.889-5.084h0a5.034,5.034,0,0,1,6.46-4.781Zm2.606,29.958a39.777,39.777,0,0,1-6.326,5.715,4.98,4.98,0,0,1-5.493.188c-6-3.626-12.182-7.6-18.353-11.557Z" transform="translate(433.711 518.398)"/><g transform="translate(682.947 1173.925)"><g transform="translate(1.316 284.024)"><path class="m" d="M298.038,721.7l-9.958,5.981L272.309,726l25.9,17.657,2.057-7.154,6.293-6.865Z" transform="translate(-261.615 -721.698)"/><path class="g" d="M309.16,736.6c-6.662-1.585-12.833-4.56-17.474-11.866l-19.052-2.673c-10.537.994,25.445,26.029,32.436,24.243C308.28,744.681,311.074,740.175,309.16,736.6Z" transform="translate(-270.716 -719.608)"/></g><g transform="translate(103.952 54.151)"><path class="n" d="M390.15,698.044c-17.5,27.963,17.951,73.326-30.28,53.442L312.862,758.2H286l13.431-13.431h6.715l33.577-13.431L351.261,699.9C363.12,682.74,396.98,684.526,390.15,698.044Z" transform="translate(-286 -687.467)"/></g><path class="g" d="M463.03,725.809c4.1,14.593-29.347,27.735-70.633,40.555L287.36,822.384l-11.866-13.82,107.689-86.085c18.521-10.893,40.83-20.57,58.458-14.076Z" transform="translate(-242.094 -525.65)"/><g transform="translate(0 238.602)"><path class="m" d="M292.128,714.934l-5.722,9.452-14.453,6.4,31.483,2.32-1.951-7.183,1.846-9.04Z" transform="translate(-262.333 -714.934)"/><path class="g" d="M310.636,718.164c-6.561,1.947-13.417,2.458-21.214-1.524l-17.8,7.172c-8.549,6.1,35.458,9.758,40.548,4.742C314.081,725.551,314.148,720.286,310.636,718.164Z" transform="translate(-270.521 -705.187)"/></g><path class="g" d="M434.312,779.291c-42.086,7.259-77.785-12.982-106.1-33.685l-35.78,69.21-18.165-3.157c12.806-43.711,25.975-100.543,37.882-111.47,16.648-10.489,51.481,20.657,80.908,39.44Z" transform="translate(-249.096 -572.638)"/><path class="n" d="M291.556,799.96c0,17.917,59.291,35.424,79.672,33.026L413.8,716.722c-4.607-18.279-71.956-38.741-86.213-24.276C305.511,722.86,327.631,776.913,291.556,799.96Z" transform="translate(-150.293 -632.828)"/><g transform="translate(179.326)"><path class="m" d="M301.352,712.918c2.149-3.384.275-13.156-1.054-22.067l16.426-5.392c1.733,8.226,3.848,15.707,7.158,20.838C318.489,716.712,305.454,719.754,301.352,712.918Z" transform="translate(-279.66 -644.799)"/><path class="m" d="M305.841,729.55c3.882,3,10.134,2.639,30.6-10.154l.819-35.807L301.4,680.81C295.278,693.669,298.87,719.329,305.841,729.55Z" transform="translate(-291.247 -671.37)"/><path class="o" d="M297.224,701.19l7.611,8.367,19.559-4.888-1.25,9.21,2.984,1.082,3.7-8.035,4.2,5.367-6.2,8.662,8.254,9.659,7.487-3.757,4.84-13.324-3.2-11.957,4.611,2.293,4.9,20.117,10.511,5.811,7.276-14.232-16.255-19.725-13.685-4.147-7.846-9.845-19.03-2.446-12.771,6.287Z" transform="translate(-297.224 -679.404)"/><path class="h" d="M303.975,681.356c2.451,3.015,2.639,9.878,2.639,9.878.4.759,3.559,2.962,4.09,2.787,0,0,.134-11.141-1.121-12.175S303.975,681.356,303.975,681.356Z" transform="translate(-258.638 -669.062)"/></g><g transform="translate(105.992 76.392)"><path class="n" d="M387.627,769.747l-63.663-8.65-35.411-4.829.746-11.537,36.821,1.169,55.805,1.712,17.9-44.027c5.433-11.255,31.14-20.409,32.3-3.465C426.093,741.763,403.429,771.573,387.627,769.747Z" transform="translate(-273.442 -690.779)"/><path class="m" d="M305.482,703.317l-5.516-5-13.663,6.8,15.425,10.046,3.061-.369Z" transform="translate(-286.304 -647.708)"/></g></g><ellipse class="l" cx="119.82" cy="19.98" rx="119.82" ry="19.98" transform="translate(443.31 1447.157)"/><g transform="translate(206.019 1131.683)"><g transform="translate(193.006 66.819)"><path class="m" d="M330.218,759.271l-1.4,12.484c-24.337.7-84.366-7.084-90.4-10.517-3.438-2.316-6.172-13.605-8-26.794-2.31-16.9-2.941-36.814-1.122-45.094,1.686-10.376,26.3-8.273,28.547,9.052v44.107Z" transform="translate(-228.242 -683.063)"/><path class="m" d="M243.224,710.652s8.012,7.38,14.277,6.118c6.682-1.35,8.428-15.379,5.439-18.884s-9.348,3.19-10.315,1.222,2.4-3.465.9-5.084-8.918,4.258-8.918,4.258Z" transform="translate(-142.611 -622.028)"/><path class="p" d="M259.673,700.22v27.372c-7.011,2.035-21.677,5.681-29.252,6.172-2.31-16.9-2.941-36.814-1.122-45.094C230.984,678.293,257.423,682.9,259.673,700.22Z" transform="translate(-228.242 -682.383)"/></g><g transform="translate(231.108 146.048)"><g transform="translate(9.225)"><path class="q" d="M414.034,791.959a12.168,12.168,0,0,0,9.811-14.143l-2.881-15.949a12.1,12.1,0,0,0-14.15-9.811l-7.5,1.37-6.064,1.081c-.43-.866-.866-1.659-1.37-2.525a21.359,21.359,0,0,0-1.733-2.746v-.067c-1.081-1.732-2.31-3.324-3.532-4.909l7.938-11.4a16.094,16.094,0,0,0,1.155-2.162,12.476,12.476,0,0,0-4.19-14.868l-13.344-9.16c-3.68-2.525-14.653-3.391-22.732-2.169a29.08,29.08,0,0,0-6.279,1.733,1.538,1.538,0,0,0-.578.362c-.436.289-.866.578-1.229.866l-.793.792,6.709,12.7a70.192,70.192,0,0,0-11.974-2.525l-.437-2.31-2.021-11.255c-1.081-6.131-19.408-10.463-27.13-9.959a.1.1,0,0,0-.148,0,6.177,6.177,0,0,0-1.222.148l-1.444,2.814a12.287,12.287,0,0,0-9.959,14.21l2.451,13.572a68.4,68.4,0,0,0-10.248,6.568l-7.716-5.345-3.613-2.451c-5.554-3.822-25.975-5.413-29.8.074l3.687,16.231a12.124,12.124,0,0,0,3.029,17.03l11.255,7.87a75.32,75.32,0,0,0-2.451,11.47c0,.148-.074.288-.074.436l-13.565,2.451A12.309,12.309,0,0,0,242,794.2l-6.715,22.584a4.1,4.1,0,0,0,2.021,2.747c4.473,2.881,15.372,1.511,21.073.578.289-.074.5-.074.719-.148l13.572-2.451a72.885,72.885,0,0,0,6.561,10.248l-7.79,11.255a12.173,12.173,0,0,0,3.029,17.03l2.169,10.537a7.943,7.943,0,0,0,1.585.792h.074c6.857,2.6,22.8-.074,26.338-5.124l4.473-6.353,3.465-4.976a66.362,66.362,0,0,0,11.906,2.673l-8.878,19.844a2.912,2.912,0,0,0,.866,1.659c3.606,4.613,18.615,2.888,24.679,1.874l15.875-2.888a12.27,12.27,0,0,0,9.811-14.283l-2.451-13.424a14.043,14.043,0,0,0,2.236-1.3,52.474,52.474,0,0,0,8.011-5.413l10.389,7.213,1.014.725a12.426,12.426,0,0,0,17.03-3.1l9.234-13.35a12.282,12.282,0,0,0-3.1-17.031l-11.4-7.8a65.786,65.786,0,0,0,2.673-11.907Zm-72.016,44.309a50.938,50.938,0,0,1-59.392-41.132,49.326,49.326,0,0,1-.792-10.684,51.134,51.134,0,0,1,42.072-48.781,5.961,5.961,0,0,1,1.081-.141A51.136,51.136,0,0,1,380.84,768a53.024,53.024,0,0,1,2.451,8.952A51.131,51.131,0,0,1,342.018,836.268Z" transform="translate(-235.289 -694.861)"/><path class="r" d="M343.707,742.891a53.024,53.024,0,0,0-2.451-8.952,51.136,51.136,0,0,0-55.852-32.47,5.956,5.956,0,0,0-1.081.141,51.134,51.134,0,0,0-42.072,48.781,49.329,49.329,0,0,0,.792,10.684,51.147,51.147,0,0,0,100.665-18.186ZM287.566,719.87a32.577,32.577,0,0,1,37.815,26.338,30.846,30.846,0,0,1,.363,8.515,32.437,32.437,0,0,1-26.627,29.152,31.233,31.233,0,0,1-13.713-.5,32.263,32.263,0,0,1-23.813-24.679c-.074-.289-.141-.651-.215-.94a32.591,32.591,0,0,1,23.954-37.378A20.259,20.259,0,0,1,287.566,719.87Z" transform="translate(-195.705 -660.801)"/></g><g transform="translate(0 0.007)"><path class="g" d="M406.084,791.954a12.173,12.173,0,0,0,9.811-14.143l-2.888-15.949a12.219,12.219,0,0,0-5.843-8.441,11.922,11.922,0,0,0-7.434-1.444,3.435,3.435,0,0,0-.866.074l-2.236.43L385.3,754.5a57.55,57.55,0,0,0-6.642-10.248l7.938-11.4a12.317,12.317,0,0,0-3.029-17.031l-13.35-9.16a12.257,12.257,0,0,0-6.924-2.169,11.916,11.916,0,0,0-6.279,1.733,1.539,1.539,0,0,0-.578.362c-.436.289-.866.578-1.229.866l-.793.792a8.793,8.793,0,0,0-1.229,1.518l-4.472,6.346-3.391,4.835a70.131,70.131,0,0,0-11.981-2.525l-2.451-13.565a12.063,12.063,0,0,0-11.329-9.959.1.1,0,0,0-.148,0,10.805,10.805,0,0,0-2.666.148l-15.8,2.814a12.282,12.282,0,0,0-9.959,14.21l2.451,13.572c-.719.356-1.444.792-2.162,1.222a74.54,74.54,0,0,0-8.085,5.345l-11.329-7.8a12.265,12.265,0,0,0-14,.074,13.084,13.084,0,0,0-2.955,3.029l-9.167,13.2a12.19,12.19,0,0,0,3.035,17.03l11.255,7.87c-.578,1.947-1.081,3.969-1.518,5.99a56.745,56.745,0,0,0-1.007,5.916l-13.565,2.451a12.207,12.207,0,0,0-9.818,14.216l2.814,15.949a12.653,12.653,0,0,0,8.226,9.381,12.788,12.788,0,0,0,5.99.43l13.565-2.451a24.8,24.8,0,0,0,1.518,2.6,59.243,59.243,0,0,0,5.05,7.649L263.495,839a12.167,12.167,0,0,0,3.029,17.03l13.276,9.234a11.851,11.851,0,0,0,6.279,2.1h.074a11.846,11.846,0,0,0,10.537-5.124l7.938-11.329a66.365,66.365,0,0,0,11.906,2.673l.43,2.3L318.984,867a11.855,11.855,0,0,0,5.339,8.085,12.173,12.173,0,0,0,8.878,1.874l15.875-2.888a12.274,12.274,0,0,0,9.811-14.283l-2.451-13.424a59.66,59.66,0,0,0,10.248-6.709l7.79,5.413,3.613,2.525a12.454,12.454,0,0,0,14.787-.725,11.681,11.681,0,0,0,2.236-2.377l9.24-13.35a12.288,12.288,0,0,0-3.1-17.031l-11.4-7.8a66.351,66.351,0,0,0,2.673-11.907ZM274.676,795.13a51.085,51.085,0,0,1,41.28-59.465,49.2,49.2,0,0,1,16.883-.141,50.936,50.936,0,0,1,42.5,41.421,48.321,48.321,0,0,1,.793,9.093,51.121,51.121,0,0,1-42.066,50.225c-.5.067-.94.141-1.444.215A51.011,51.011,0,0,1,274.676,795.13Z" transform="translate(-233.915 -694.862)"/><path class="j" d="M341.356,742.9a50.936,50.936,0,0,0-42.5-41.421,49.2,49.2,0,0,0-16.883.141,51.095,51.095,0,0,0,16.668,100.813c.5-.074.94-.148,1.444-.215a51.121,51.121,0,0,0,42.066-50.225A48.324,48.324,0,0,0,341.356,742.9Zm-44.6,40.984a32.491,32.491,0,0,1-37.734-26.123,34.154,34.154,0,0,1-.51-6.057,32.567,32.567,0,0,1,26.7-31.825,30.58,30.58,0,0,1,13.565.5,32.477,32.477,0,0,1,24.25,25.834,32.341,32.341,0,0,1-24.176,37.163A17.3,17.3,0,0,1,296.758,783.886Z" transform="translate(-199.931 -660.819)"/></g><path class="s" d="M259.177,707.079c.067-.5.141-.94.215-1.444a41.427,41.427,0,0,0,.289-6.642A11.619,11.619,0,0,1,259.177,707.079Z" transform="translate(-89.534 -671.246)"/><path class="t" d="M408.32,748.133a65.785,65.785,0,0,1-2.673,11.907l11.4,7.8a12.282,12.282,0,0,1,3.1,17.03l-9.234,13.35a12.426,12.426,0,0,1-17.03,3.1l-1.014-.725a12.454,12.454,0,0,1-14.787.725l-3.613-2.525a14.04,14.04,0,0,1-2.236,1.3l2.451,13.424a12.27,12.27,0,0,1-9.811,14.283L349,830.687c-6.064,1.014-21.073,2.74-24.679-1.874a11.855,11.855,0,0,1-5.339-8.085l-2.021-11.114-4.473,6.353c-3.539,5.05-19.482,7.723-26.338,5.124h-.074a11.851,11.851,0,0,1-6.279-2.1l-13.276-9.234a12.167,12.167,0,0,1-3.029-17.03l7.79-11.255a59.256,59.256,0,0,1-5.05-7.649c-5.7.934-16.6,2.3-21.073-.578a12.652,12.652,0,0,1-8.226-9.381l-2.814-15.949a12.208,12.208,0,0,1,9.818-14.216l13.565-2.451a56.743,56.743,0,0,1,1.007-5.916c5.05,1.585,9.959,3.458,14.868,5.48a7.863,7.863,0,0,0,1.155.5c5.124,2.169,10.1,4.546,15.15,6.857l2.814,1.3c4.546,2.088,9.167,4.11,13.787,5.99.866.356,1.8.718,2.74,1.007a32.263,32.263,0,0,0,23.813,24.679,32.261,32.261,0,0,0,22.517-19.77,43.451,43.451,0,0,0,16.52-7.8l1.3-1.081a36.137,36.137,0,0,0,2.955-2.74c5.124-5.2,9.025-11.551,12.558-18.044.577-.934,1.081-1.874,1.592-2.814,2.236-4.183,4.4-8.368,6.346-12.7.5-1.081.94-2.162,1.37-3.25a21.366,21.366,0,0,1,1.733,2.746,11.922,11.922,0,0,1,7.434,1.444l7.5-1.37a12.1,12.1,0,0,1,14.15,9.811l2.881,15.949a12.168,12.168,0,0,1-9.811,14.143Z" transform="translate(-233.915 -648.584)"/></g><g transform="translate(116.849 123.175)"><path class="m" d="M244.648,723.522a12.147,12.147,0,0,0,2.706,6.52c2.646,3.445-17.111,11.329-17.111,11.329a15.093,15.093,0,0,1-1.189-10.879c1.712-5.863.591-9.328.591-9.328Z" transform="translate(-150.531 -521.655)"/><path class="g" d="M216.9,707.512c17.359,63.279,37.419,69.115,43.691,88.476s34.3,99.664,34.3,99.664c3.526,2.364,12.471.994,16.486-2.464-5.554-50.5-10.778-109.764-16.419-125.774-6.44-18.011-20.321-48.513-41.045-75.958Z" transform="translate(-216.901 -691.456)"/><path class="g" d="M228.8,731.193c-1.2,5.674-.215,10.274,3.062,13.747,15.754-4.876,31.213-9.247,45.611-14.68-1.82-5.628-19.173-8.26-28.245-7.85A25.772,25.772,0,0,1,228.8,731.193Z" transform="translate(-151.684 -514.774)"/></g><g transform="translate(0 130.085)"><path class="m" d="M223.626,731.785a12.334,12.334,0,0,0-3.445,6.064c-.457,1.545-2.908,1.108-5.9.061-5.856-1.988-13.585-6.669-13.585-6.669a14.026,14.026,0,0,1,1.934-3.123,14.86,14.86,0,0,1,6.057-4.513,16.736,16.736,0,0,0,4.117-2.189,11.688,11.688,0,0,0,3.539-3.015l2.176,4,4.963,9.173Z" transform="translate(-192.688 -544.357)"/><path class="g" d="M321.836,705.324c.336,17.232.436,35.175-.934,50.836-1.363,16.453-4.231,30.394-9.516,38.668-9.18,14.284-60.3,50.473-96.911,85.676-1.169-.174-12.168-10.53-12.182-11.436,0,0,56.02-71.781,67.571-88.577s-1.974-48.136,15.1-88.006Z" transform="translate(-183.538 -692.484)"/><path class="g" d="M239.68,756a4.035,4.035,0,0,1-.651,1.8c-13.108-8.1-25.982-17.715-39.527-27.237.786-4.775,3.8-8.28,9.113-10.866a10.921,10.921,0,0,0,.826,1.014,25.031,25.031,0,0,0,10.966,8.186,23.536,23.536,0,0,0,6.588,1.544c.349.067.685.02,1.034.081C233.26,736.815,240.62,749.957,239.68,756Z" transform="translate(-199.501 -536.949)"/></g><path class="p" d="M214.793,762.365c-8.4,12.927,57.793,30,74.864,22.772,23.336-28.735,44.819-45.759,51.058-71.17.759-18-24.055-35.33-42.354-32.832C268.577,686.776,241.077,726.061,214.793,762.365Z" transform="translate(-116.291 -628.64)"/><g transform="translate(166.767 67.066)"><path class="m" d="M315.871,780.1v.074l-4.486,11.638c-23.706-5.332-79.88-27.91-84.856-32.751-3.089-3.506-2.6-17.668-.49-32.752,2.169-15.707,6.1-32.328,9.6-39.131,4.278-9.609,27.493-1.4,25.391,15.923l-6.944,26.855L249.952,745.8Z" transform="translate(-224.334 -683.1)"/><path class="m" d="M237.3,711.264s5.91,9.146,12.3,9.5c6.8.362,12.007-12.786,9.986-16.923s-9.845.746-10.288-1.4,3.2-2.753,2.142-4.694-9.7,1.88-9.7,1.88Z" transform="translate(-150.206 -602.552)"/></g><g transform="translate(192.989)"><path class="m" d="M250.178,708.1c-1.84-3.66.947-13.491,3.1-22.5l-15.943-7.011c-2.5,8.267-5.312,15.735-9.1,20.684C232.671,710.429,245.444,714.727,250.178,708.1Z" transform="translate(-228.239 -641.804)"/><path class="m" d="M254.166,732.562c-7.992.477-16.977-11.732-25.68-20.355l16.144-38.781,35.733,18.4C279.5,706.916,267.288,719.83,254.166,732.562Z" transform="translate(-226.827 -671.324)"/><path class="u" d="M233.227,719.094l9.61-4.076,2.619-12.027,5.453-1.491-.934,9.616,2.747,1.081,5.359-12.175,21.275,15.532,4.506-24.981-7.2-11.369-24.411-6.091s-22.376,10.732-22.712,11.1-1.289,25.143-1.289,25.143Z" transform="translate(-228.17 -673.113)"/></g><path class="p" d="M261.777,702,253.49,730.2c-8.629,1.612-21.684,1.323-29.051-4.641,2.176-15.707,5.251-31.334,8.757-38.137C237.474,677.815,263.886,684.678,261.777,702Z" transform="translate(-56.969 -616.281)"/></g><path class="f" d="M270.4,646.516c-2.25-2.787-5-5-7.528-7.474l-.484.631c5.843,8.28,7.763,17.709,6.225,28.313-1.941,13.451-10.637,28.292-21.4,29.393-1.753.181-3.673.269-5.648.309L245,673.338c-18.159-3.176-20.072,14.834-20.072,14.834l-2.767,25.183h16.822v-.006q5.681.01,11.369-.04a21.349,21.349,0,0,0,9.12-2.008C282.312,700.079,285.039,664.655,270.4,646.516Z" transform="translate(136.036 218.233)"/><path class="f" d="M264.942,658.4c-1.7-8.8-8.059-15.432-16.305-15.56-8.844-.141-8.7-.053-17.554-.027-11.4.02-9.993-4.311-9.993-4.311-.6,1.289-.356,3.928.007,6.158a5.511,5.511,0,0,0,.154,1.31c.168.772.363,1.517.571,2.256l.034.127h.007c2.458,8.629,7.609,12.974,16.1,12.961,6.8,0,4.607.181,11.4.007,3.7-.094,7.038.658,9.919,3.176,1.148,1.081,5.56,7.951,3.573,14.183C262.853,678.678,268.131,668.712,264.942,658.4Z" transform="translate(127.835 214.083)"/><path class="v" d="M393.594,892.3c-37.042-21.248-74.528-55.2-95.427-92.4a7.047,7.047,0,0,1-.947-3.62V672.665a7.284,7.284,0,0,1,4.976-6.984l92.666-31.906a7.025,7.025,0,0,1,4.8,0l92.667,31.906a7.276,7.276,0,0,1,4.976,6.984V796.276a7.109,7.109,0,0,1-.94,3.62c-20.905,37.2-58.391,71.157-95.427,92.4a7.2,7.2,0,0,1-7.347,0" transform="translate(565.033 187.377)"/><path class="w" d="M409.547,798.31c-27.48,49.009-77.778,82.157-97.428,93V633.566l93.385,32.16a7.274,7.274,0,0,1,4.983,6.977V794.7a7.1,7.1,0,0,1-.94,3.613" transform="translate(650.182 188.676)"/><path class="x" d="M298.417,798.31c27.473,49.009,77.772,82.157,97.428,93V633.566l-93.392,32.16a7.274,7.274,0,0,0-4.983,6.977V794.7a7.039,7.039,0,0,0,.947,3.613" transform="translate(566.456 188.676)"/><path class="y" d="M382.773,635.984l78.034,26.875a7.261,7.261,0,0,1,4.976,6.977v106.9a7.053,7.053,0,0,1-1.055,3.808c-18.817,31.307-50.164,59.835-81.082,78.679l-.873.53c-31.637-19.266-62.776-47.3-81.962-79.209a7.053,7.053,0,0,1-1.054-3.808v-106.9a7.27,7.27,0,0,1,4.976-6.977Z" transform="translate(579.527 203.029)"/><path class="z" d="M381.339,636.25l-76.355,26.3a7.271,7.271,0,0,0-4.976,6.978V774.769a7.134,7.134,0,0,0,1.054,3.814c18.232,30.267,49.661,59.056,80.276,77.692Z" transform="translate(580.962 204.598)"/><path class="x" d="M393.443,774.769V669.524a7.262,7.262,0,0,0-4.976-6.978l-76.348-26.3V856.275c30.609-18.636,62.037-47.425,80.27-77.692a7.075,7.075,0,0,0,1.054-3.814" transform="translate(650.182 204.598)"/><path class="aa" d="M333.78,651.578a15.327,15.327,0,0,0-15.271,15.271v14.768h30.535V666.849a15.327,15.327,0,0,0-15.264-15.271m-.007-10.174a25.508,25.508,0,0,1,25.452,25.445V686.7a5.091,5.091,0,0,1-5.09,5.09H313.419a5.091,5.091,0,0,1-5.09-5.09V666.849A25.508,25.508,0,0,1,333.774,641.4Z" transform="translate(628.52 232.424)"/><path class="v" d="M312.119,647.214h33.927A6.8,6.8,0,0,1,352.828,654v63.629a6.8,6.8,0,0,1-6.783,6.79H312.119Z" transform="translate(650.182 269.424)"/><path class="ab" d="M312.839,647.214h33.933v77.2H312.839a6.8,6.8,0,0,1-6.783-6.79V654a6.8,6.8,0,0,1,6.783-6.783" transform="translate(615.529 269.424)"/><path class="ac" d="M320,650.433a9.255,9.255,0,0,1,3.767,17.709l.235.658,4,11.47H312l4-11.47.235-.658A9.255,9.255,0,0,1,320,650.433" transform="translate(642.3 288.164)"/><path class="ad" d="M321,650.51a9.258,9.258,0,0,1,1.189,17.346l.235.658,4,11.47H312.386l3.882-11.134.228-.658a9.257,9.257,0,0,1,3.774-17.709c.248,0,.49.007.732.027" transform="translate(643.877 288.465)"/><g transform="translate(571.603 951.455)"><path class="f" d="M255.551,730.418a5.845,5.845,0,0,0,8.018,0l45.806-41.011.86-.846,7.159,1.981a8.245,8.245,0,0,0,8.011-1.981l8.878-8.77a2.939,2.939,0,0,0,0-3.674l-2.861-2.552a2.169,2.169,0,0,0-3.438,0l-6.581,6.225a5.121,5.121,0,0,1-4.869,1.417l-8.589-2.263-2.579-8.771a5.19,5.19,0,0,1,1.431-4.808l6.588-6.507a2.545,2.545,0,0,0,0-3.391l-2.861-2.827a3.036,3.036,0,0,0-3.727,0l-8.582,8.764a8.149,8.149,0,0,0-2.3,7.924l2.008,7.071-4.869,5.09L255.551,722.5A5.674,5.674,0,0,0,255.551,730.418Z" transform="translate(-253.94 -652)"/></g><path class="ae" d="M255.551,704.32a5.845,5.845,0,0,0,8.018,0l45.806-41.011a64.38,64.38,0,0,1-16.03-7.636.281.281,0,0,1-.289-.282L255.551,696.4A5.674,5.674,0,0,0,255.551,704.32Z" transform="translate(317.663 319.685)"/><path class="m" d="M309.092,700.187l-5.549-4.966-19.376,12.961,16.675,8.7,4-1.384Z" transform="translate(490.422 566.553)"/><path class="af" d="M300.082,727.226,284.79,699.791,286.2,694l15.7,28.976" transform="translate(493.982 559.585)"/><path class="m" d="M305.37,702.694l-5.516-5-13.663,6.8,15.425,10.046,3.061-.369Z" transform="translate(501.992 581.667)"/></g></svg>