<svg xmlns="http://www.w3.org/2000/svg" width="277.853" height="277.853" viewBox="0 0 277.853 277.853"><defs><style>.a{fill:#ff6c6c;}.b{fill:#f93d3d;}.c{fill:#e6e6ff;}.d{fill:#c3c3e5;}</style></defs><path class="a" d="M1150.395,897.926c0,76.356,62.571,138.927,138.927,138.927s138.926-62.571,138.926-138.927S1365.672,759,1289.322,759s-138.927,62.571-138.927,138.926" transform="translate(-1150.395 -759)"/><path class="b" d="M1316.081,897.926c0,76.356-62.571,138.927-138.926,138.927V759C1253.509,759,1316.081,821.571,1316.081,897.926Z" transform="translate(-1038.228 -759)"/><path class="c" d="M1163.849,887.6l46.072-46.082-46.072-46.056,23.01-23.01,46.056,46.072,46.072-46.072,23.01,23.01-46.071,46.056L1302,887.592l-23,23-46.077-46.067L1186.859,910.6Z" transform="translate(-1093.999 -702.604)"/><path class="d" d="M1223.225,910.6l23-23-46.072-46.082,46.072-46.056-23-23-46.071,46.066v46Z" transform="translate(-1038.228 -702.6)"/></svg>