<svg xmlns="http://www.w3.org/2000/svg" xmlns:xlink="http://www.w3.org/1999/xlink" width="599.785" height="570.375" viewBox="0 0 599.785 570.375"><defs><style>.a{fill:#f1eff8;}.b{opacity:0.5;fill:url(#a);}.b,.e,.f{mix-blend-mode:overlay;isolation:isolate;}.c{fill:#1b2c7b;}.d{fill:#e90566;}.e,.f{opacity:0.7;}.e{fill:url(#e);}.f{fill:url(#f);}.g{fill:#fbd783;}.h{fill:#2a195b;}.i{fill:#fff;}.j{fill:#c7c7c9;opacity:0.29;}.k{fill:#f93d3d;}.l{fill:#18255b;}.m{fill:#2f3f9b;}.n{fill:#ff6c6c;}.o{fill:#e6e6ff;}.p{fill:#c3c3e5;}</style><linearGradient id="a" y1="0.5" x2="1" y2="0.5" gradientUnits="objectBoundingBox"><stop offset="0" stop-color="#fff"/><stop offset="0.085" stop-color="#f5f5f5"/><stop offset="0.229" stop-color="#dadada"/><stop offset="0.413" stop-color="#afafaf"/><stop offset="0.631" stop-color="#747474"/><stop offset="0.876" stop-color="#292929"/><stop offset="1"/></linearGradient><linearGradient id="e" y1="0.5" x2="1" y2="0.5" gradientUnits="objectBoundingBox"><stop offset="0" stop-color="#fff"/><stop offset="0.256" stop-color="#c1c1c1"/><stop offset="0.845" stop-color="#292929"/><stop offset="1"/></linearGradient><linearGradient id="f" x1="0" y1="0.5" x2="1" y2="0.5" xlink:href="#e"/></defs><g transform="translate(-744.039 -748.83)"><g transform="translate(756.664 1179.201)"><path class="a" d="M1199.9,998.611c-71.109-6.046-112.534-7.256-172.706,12.4-15.07,4.937-31.247,11.187-49.39,18.948-90.711,38.854-229.251-19.454-229.251-49.792s66.271-84.009,299.352-76.6c55.536,1.763,100.389,4.987,136.221,9.169C1411.062,939.193,1276.657,1005.162,1199.9,998.611Z" transform="translate(-748.558 -902.872)"/><path class="b" d="M1027.824,992.277c-71.109-6.046-112.534-7.256-172.706,12.4-6.907-7.761-10.634-16.129-10.634-24.846,0-38.754,73.828-70.553,167.565-73.428C1238.982,932.86,1104.577,998.829,1027.824,992.277Z" transform="translate(-576.478 -896.539)"/></g><g transform="translate(744.039 748.83)"><path class="a" d="M1326.4,1036.589c-13.76,21.317-35.932,39.159-59.87,46.213a76.8,76.8,0,0,1-25.4,3.126,64.049,64.049,0,0,1-33.211-11.491c-37.142-25.751-57.1-5.191-85.168,20.814-10.885,10.078-23.03,20.912-37.846,30.185a147.791,147.791,0,0,1-66.22,22.376c-.556.05-1.059.1-1.615.151-109.659,9.527-159.452-89-185.859-125.785a147.521,147.521,0,0,0-19.048-21.116c-27.011-25.5-60.728-45.962-65.463-81.14-3.73-27.869,3.073-66.522,27.819-100.437a160.4,160.4,0,0,1,42.433-39.963c66.522-43.392,169.63-43.291,186.714,16.529,10.887,38,48.13,71.864,91.066,66.773,15.422-1.813,31.6-8.667,47.574-22.172,58.057-49.136,159.1-31.8,141.308,9.374a35.521,35.521,0,0,1-2.621,4.886c-28.322,44.6-9.826,43.09,44.551,99.886C1347.714,977.929,1343.632,1009.98,1326.4,1036.589Z" transform="translate(-740.986 -748.831)"/><path class="b" d="M1118.743,970.686c-13.76,21.317-35.932,39.159-59.87,46.213a76.792,76.792,0,0,1-25.4,3.126,64.045,64.045,0,0,1-33.211-11.491c-37.142-25.751-57.1-5.191-85.168,20.814-10.885,10.078-23.03,20.912-37.846,30.185a187.618,187.618,0,0,1,198.708-275.411,35.485,35.485,0,0,1-2.621,4.886c-28.321,44.6-9.826,43.09,44.551,99.886C1140.061,912.026,1135.979,944.077,1118.743,970.686Z" transform="translate(-547.302 -691.309)"/><path class="b" d="M1064.253,868.825a187.641,187.641,0,0,1-320.214-43.339,160.4,160.4,0,0,1,42.433-39.964c66.522-43.392,169.63-43.291,186.714,16.529C984.074,840.051,1021.317,873.915,1064.253,868.825Z" transform="translate(-744.039 -738.067)"/><path class="b" d="M977.5,969.611a136.64,136.64,0,0,1-3.076,28.925c-109.659,9.527-159.452-89-185.859-125.785a147.513,147.513,0,0,0-19.048-21.116A137.415,137.415,0,0,1,977.5,969.611Z" transform="translate(-698.342 -599.402)"/></g><g transform="translate(788.974 844.066)"><g transform="translate(0 59.649)"><path class="c" d="M807.491,830.986a3.369,3.369,0,0,0,2.671-3.928l-.808-4.386A3.3,3.3,0,0,0,805.474,820l-3.73.656a14.892,14.892,0,0,0-1.813-2.822L802,814.81l.1-.1a3.383,3.383,0,0,0-.8-4.685l-3.68-2.52a3.424,3.424,0,0,0-4.685.855l-2.168,3.076a16.978,16.978,0,0,0-3.274-.656l-.656-3.78a3.385,3.385,0,0,0-3.931-2.671l-4.333.807a3.291,3.291,0,0,0-2.721,3.881l.653,3.73a16.792,16.792,0,0,0-2.822,1.813l-3.124-2.168a3.333,3.333,0,0,0-4.638.858l-2.52,3.629a3.337,3.337,0,0,0,.857,4.686l3.073,2.168a23.773,23.773,0,0,0-.7,3.275l-3.73.656a3.417,3.417,0,0,0-2.721,3.931l.807,4.384a3.327,3.327,0,0,0,3.878,2.671l3.73-.654a26.974,26.974,0,0,0,1.816,2.822l-2.118,3.073c0,.05,0,.05-.05.1a3.307,3.307,0,0,0,.857,4.588l3.677,2.57a3.332,3.332,0,0,0,4.638-.858l2.168-3.123a18.154,18.154,0,0,0,3.275.754l.654,3.68a3.382,3.382,0,0,0,3.931,2.721l4.387-.757a3.37,3.37,0,0,0,2.671-3.931l-.656-3.727a14.916,14.916,0,0,0,2.822-1.816l3.126,2.168a3.4,3.4,0,0,0,4.685-.858l2.52-3.677a3.4,3.4,0,0,0-.855-4.688L803,834.917a18.16,18.16,0,0,0,.757-3.275Zm-19.806,12.148a13.91,13.91,0,0,1-14.061-5.848,13.757,13.757,0,0,1-2.269-5.442,14.057,14.057,0,1,1,16.33,11.29Z" transform="translate(-760.122 -804.268)"/><path class="d" d="M791.962,819.778a14.087,14.087,0,0,0-8.315-10.432,14.036,14.036,0,1,0-3.023,26.712A14.051,14.051,0,0,0,791.962,819.778Zm-12.245,11.24a8.866,8.866,0,0,1-10.03-5.8,13.276,13.276,0,0,1-.352-1.36,8.941,8.941,0,0,1,7.208-10.432,10.885,10.885,0,0,1,1.763-.151,9.063,9.063,0,0,1,8.616,7.409A8.913,8.913,0,0,1,779.716,831.017Z" transform="translate(-753.061 -797.191)"/></g><g transform="translate(67.646 84.712)"><path class="c" d="M841.2,845.355a4.044,4.044,0,0,0,3.224-4.685l-.958-5.292a3.97,3.97,0,0,0-4.635-3.227l-3.881.707-.6.1a19.609,19.609,0,0,0-2.218-3.375l2.621-3.78a4.037,4.037,0,0,0-1.009-5.6l-4.384-3.023a4.088,4.088,0,0,0-5.646,1.009l-2.57,3.679a23.85,23.85,0,0,0-3.981-.808l-.8-4.484a4.005,4.005,0,0,0-4.638-3.277l-5.241.958a4.043,4.043,0,0,0-3.274,4.686l.807,4.487a24.551,24.551,0,0,0-3.428,2.165l-3.73-2.567a4.033,4.033,0,0,0-5.593,1.006l-3.023,4.386a3.97,3.97,0,0,0-.707,2.771,3.789,3.789,0,0,0,1.713,2.822l.455.3,3.274,2.319-.3,1.059a17.027,17.027,0,0,0-.553,2.872l-4.487.8a4.02,4.02,0,0,0-3.224,4.688l.958,5.241A4,4,0,0,0,790,854.578l4.484-.8a25.765,25.765,0,0,0,2.168,3.375l-2.57,3.73a4.014,4.014,0,0,0,1.008,5.593l4.384,3.076a4.033,4.033,0,0,0,5.593-1.009l2.621-3.73a20.267,20.267,0,0,0,3.931.858l.808,4.484a4.044,4.044,0,0,0,4.736,3.227l5.191-.908a4.068,4.068,0,0,0,3.277-4.738l-.807-4.434a21.721,21.721,0,0,0,3.378-2.218l3.73,2.621a4.1,4.1,0,0,0,5.644-1.009l3.073-4.434a4.031,4.031,0,0,0-1.009-5.593l-3.777-2.57a22,22,0,0,0,.855-3.931ZM817.412,859.97a16.869,16.869,0,0,1-19.6-13.606,15.992,15.992,0,0,1-.151-4.886,16.854,16.854,0,0,1,32.909-2.925,11.988,11.988,0,0,1,.453,1.816A16.869,16.869,0,0,1,817.412,859.97Z" transform="translate(-784.335 -813.239)"/><path class="d" d="M822.542,831.865a11.974,11.974,0,0,0-.453-1.816,16.854,16.854,0,0,0-32.909,2.925,16,16,0,0,0,.151,4.886,16.874,16.874,0,0,0,33.211-6Zm-14.715,13.556a10.733,10.733,0,0,1-12.449-8.619,9.769,9.769,0,0,1-.1-1.207,10.7,10.7,0,0,1,21.217-2.621,3.063,3.063,0,0,1,.05.955A10.611,10.611,0,0,1,807.827,845.421Z" transform="translate(-775.859 -804.736)"/></g><g transform="translate(37.529)"><path class="c" d="M844.53,822.952a5.065,5.065,0,0,0,4.082-5.848l-1.21-6.552a5,5,0,0,0-5.845-4.031l-5.594,1.008a14.547,14.547,0,0,0-1.109-1.914,26.467,26.467,0,0,0-1.612-2.319l3.275-4.688a5.134,5.134,0,0,0-1.26-7.055l-5.493-3.73a5.056,5.056,0,0,0-7,1.26l-3.277,4.638a25.35,25.35,0,0,0-4.886-1.059l-1.059-5.593a5.022,5.022,0,0,0-5.795-4.082l-6.552,1.207a5.029,5.029,0,0,0-4.085,5.848l1.009,5.593a30.165,30.165,0,0,0-4.233,2.671l-4.685-3.174a5.008,5.008,0,0,0-6.957,1.26l-3.78,5.442a4.978,4.978,0,0,0,1.26,7l4.638,3.277A26.405,26.405,0,0,0,783.3,817l-5.594,1.009a5.1,5.1,0,0,0-4.082,5.845l1.21,6.6a5.037,5.037,0,0,0,5.845,4.031l5.593-1.006a33.686,33.686,0,0,0,2.671,4.233l-3.174,4.635a4.971,4.971,0,0,0,1.26,7.007l5.443,3.828a5.062,5.062,0,0,0,7-1.26l3.227-4.685a27.038,27.038,0,0,0,4.937,1.109l1.009,5.543a4.974,4.974,0,0,0,5.847,4.082l3.627-.654,2.922-.506a5.051,5.051,0,0,0,4.034-5.895l-1.009-5.543a25.621,25.621,0,0,0,4.233-2.721l4.688,3.224a5.073,5.073,0,0,0,7-1.26l3.83-5.493a5.136,5.136,0,0,0-1.26-7.055l-4.688-3.177a26.683,26.683,0,0,0,1.059-4.94Zm-29.682,18.292a23.226,23.226,0,0,1-4.182.355,21.084,21.084,0,1,1,17.487-33.513,20.057,20.057,0,0,1,3.73,8.667A21.127,21.127,0,0,1,814.849,841.243Z" transform="translate(-773.555 -782.918)"/><path class="d" d="M821.313,806.146a20.056,20.056,0,0,0-3.73-8.667A21.092,21.092,0,1,0,800.1,830.992a23.226,23.226,0,0,0,4.182-.355A21.126,21.126,0,0,0,821.313,806.146Zm-18.395,16.933a11.682,11.682,0,0,1-3.227.151,13.4,13.4,0,1,1,11.391-21.619,12.82,12.82,0,0,1,2.671,5.945A13.409,13.409,0,0,1,802.918,823.079Z" transform="translate(-762.985 -772.312)"/></g><path class="e" d="M798.927,825.275a18.169,18.169,0,0,1-.757,3.274l3.126,2.118a3.4,3.4,0,0,1,.855,4.688l-2.52,3.677a3.4,3.4,0,0,1-4.685.858l-3.126-2.168A14.925,14.925,0,0,1,789,839.537l.656,3.727a3.37,3.37,0,0,1-2.671,3.931l-4.386.757a3.382,3.382,0,0,1-3.931-2.721l-.654-3.679a18.163,18.163,0,0,1-3.274-.754l-2.168,3.123a3.332,3.332,0,0,1-4.638.858l-3.677-2.57a3.307,3.307,0,0,1-.857-4.588c.05-.05.05-.05.05-.1a36.018,36.018,0,0,0,5.342-6.6c1.109-1.612,2.118-3.325,3.123-4.99a8.943,8.943,0,0,0,17.236-4.534,9.063,9.063,0,0,0-8.616-7.409,25.976,25.976,0,0,1,5.342-3.931c3.629-2.065,7.56-2.922,11.287-1.612l-2.065,3.026a14.9,14.9,0,0,1,1.813,2.822l3.73-.656a3.3,3.3,0,0,1,3.881,2.671l.808,4.386a3.369,3.369,0,0,1-2.671,3.928Z" transform="translate(-755.288 -738.251)"/><path class="f" d="M784.093,822.48a3.781,3.781,0,0,1-1.713-2.822c.654,1.056,1.411,2.115,2.165,3.123Z" transform="translate(-720.196 -717.012)"/><path class="e" d="M836.712,834.062a21.994,21.994,0,0,1-.855,3.931l3.777,2.57a4.031,4.031,0,0,1,1.009,5.593l-3.073,4.434a4.1,4.1,0,0,1-5.644,1.009l-3.73-2.621a21.721,21.721,0,0,1-3.378,2.218l.807,4.434a4.068,4.068,0,0,1-3.277,4.738l-5.191.908a4.044,4.044,0,0,1-4.736-3.227l-.808-4.484a20.253,20.253,0,0,1-3.931-.858l-2.621,3.73a4.033,4.033,0,0,1-5.593,1.009l-4.384-3.076a4.014,4.014,0,0,1-1.008-5.593l2.57-3.73a25.757,25.757,0,0,1-2.168-3.375l-4.484.8a4,4,0,0,1-4.635-3.275l-.958-5.241a4.02,4.02,0,0,1,3.224-4.688l4.487-.8a17.023,17.023,0,0,1,.553-2.872,25.977,25.977,0,0,0,4.99,3.78,27.334,27.334,0,0,0,6.1,2.621,9.78,9.78,0,0,0,.1,1.207,10.733,10.733,0,0,0,12.449,8.619,10.611,10.611,0,0,0,8.717-11.491,24.7,24.7,0,0,0,3.479-2.115,16.751,16.751,0,0,0,2.068-1.766,19.161,19.161,0,0,0,4.383-5.694l3.881-.707a3.97,3.97,0,0,1,4.635,3.227l.958,5.292a4.045,4.045,0,0,1-3.224,4.685Z" transform="translate(-716.689 -716.426)"/><path class="e" d="M815.431,809.384a26.68,26.68,0,0,1-1.059,4.94l4.688,3.177a5.136,5.136,0,0,1,1.26,7.055l-3.83,5.493a5.073,5.073,0,0,1-7,1.26l-4.688-3.224a25.606,25.606,0,0,1-4.233,2.721l1.009,5.543a5.051,5.051,0,0,1-4.034,5.895l-2.922.506a31.281,31.281,0,0,1-7.457-15.724,28.542,28.542,0,0,1-.405-7.761,11.682,11.682,0,0,0,3.227-.151,13.409,13.409,0,0,0,10.834-15.522,12.82,12.82,0,0,0-2.671-5.945,28.649,28.649,0,0,1,4.789-3.277c.553-.3,1.159-.6,1.713-.855a36.889,36.889,0,0,1,6.7-2.47,14.537,14.537,0,0,1,1.109,1.914l5.593-1.008a5,5,0,0,1,5.845,4.031l1.21,6.552a5.064,5.064,0,0,1-4.082,5.848Z" transform="translate(-712.521 -768.345)"/></g><g transform="translate(1225.493 957.126)"><g transform="translate(61.191 132.499)"><path class="g" d="M952.188,930.314a12.51,12.51,0,0,1,1.542,5.638c.062,3.207,14.235.539,14.235.539a66.986,66.986,0,0,0-3.221-7.415,23.874,23.874,0,0,0-3.8-5.769Z" transform="translate(-913.292 -776.637)"/><path class="c" d="M974.994,926.828c2.428,2.727,3.322,5.551,2.615,8.474-10.131,2.249-19.945,4.68-29.515,6.205-.76-3.643,7.9-10.5,12.992-13.1A16.215,16.215,0,0,0,974.994,926.828Z" transform="translate(-920.72 -770.321)"/><path class="c" d="M969.5,870.81c5.4,38.569-4.719,55.425-1.654,70.143s20.3,79.033,20.3,79.033c-1.4,2.808-7.943,5.2-11.787,4.448C961.427,990,943.6,950.164,941.362,937.824a224.2,224.2,0,0,1-1.483-63.762Z" transform="translate(-938.266 -870.81)"/></g><g transform="translate(28.477 135.48)"><path class="g" d="M933.043,930.6a12.518,12.518,0,0,1,.408,5.834c-.57,3.154,13.852,3.316,13.852,3.316a66.938,66.938,0,0,0-1.7-7.9,23.945,23.945,0,0,0-2.593-6.4Z" transform="translate(-914.921 -775.783)"/><path class="c" d="M957.026,930.121c1.847,3.149,2.168,6.094.905,8.82-10.379.221-20.479.682-30.16.3-.031-3.721,9.809-8.748,15.308-10.3A16.223,16.223,0,0,0,957.026,930.121Z" transform="translate(-924.378 -769.515)"/><path class="c" d="M967.284,874.495c-2.266,38.879-15.489,53.424-15.366,68.458s4.412,81.478,4.412,81.478c-1.922,2.481-8.806,3.54-12.43,2.053-7.89-36.695-17.562-79.251-17.339-91.79A224.248,224.248,0,0,1,937.6,871.877Z" transform="translate(-926.557 -871.877)"/></g><path class="g" d="M952.647,850.068c-2.389-4.043-2.864-8.6-3.07-13.768H938.6a47.021,47.021,0,0,1-1.495,15.313C938.242,853.765,951.566,852.915,952.647,850.068Z" transform="translate(-879.163 -800.218)"/><path class="g" d="M959.747,854.887c-6.979,3.135-11.944,8.8-18.289,6.057-8.954-2.38-9.155-22.563-6.09-31.562l24.345-2.842Z" transform="translate(-885.475 -817.725)"/><path class="h" d="M969.425,860.242l-8.876,7.258-9.262-10.388,6.275-6.44-2.872-3.889-3.4,4.252-2.235-2.573,1.732-7.205c-6.247.738-21.309-2.539-21.309-2.539s7.488-11.779,9.125-15.333c6.25,2.565,15.7,1.539,15.7,1.539l16.853,8.122Z" transform="translate(-892.845 -823.385)"/><path class="g" d="M930.89,839.059s2.428-6.554,6.378-7.655c4.21-1.173,9.3,6.336,8.608,9.208s-6.272.9-6.253,2.305,2.386,1.28,1.995,2.643-6.333.165-6.333.165Z" transform="translate(-890.307 -809.223)"/><path class="i" d="M1005.86,857.522c-9.8-5.222-35.474-4.213-49.748,2.45l-26.575,4.571L965.2,838.954l-6.982-6.127c-9.036,13.483-52.393,13.478-39.472,45.255l34.954,5.49c-2.082,26.547-3.9,50.927-.741,66.812,11.184,6.406,51.01,3.688,58.431-3.906C1008.455,907.18,1017.566,866.557,1005.86,857.522Z" transform="translate(-916.365 -806.447)"/></g><path class="j" d="M1005.417,858.858c-9.8-4.769-35.474-3.847-49.748,2.241l-26.575,4.174L964.763,841.9l-6.982-5.6c-9.038,12.315-52.4,12.31-39.472,41.341l34.951,5.015c-2.081,24.253-3.9,46.526-.741,61.037,11.187,5.853,51.011,3.369,58.434-3.568C1008.012,904.225,1017.12,867.114,1005.417,858.858Z" transform="translate(308.337 156.908)"/><path class="k" d="M1005.86,857.522c-9.8-5.222-35.474-4.213-49.748,2.45l-26.575,4.571L965.2,838.954l-6.982-6.127c-9.036,13.483-52.393,13.478-39.472,45.255l34.954,5.49c-2.082,26.547-3.9,50.927-.741,66.812,11.184,6.406,51.01,3.688,58.431-3.906C1008.455,907.18,1017.566,866.557,1005.86,857.522Z" transform="translate(309.128 150.679)"/><path class="l" d="M827.765,812.541l-7.5,8.1,182.469,289.317,7.278-7.884-2.539-8.9Z" transform="translate(136.735 114.289)"/><path class="l" d="M993.3,1113.534H885.237c-12.036,0-23.516-10.639-25.639-23.767L818.76,837.2c-2.123-13.126,5.915-23.767,17.95-23.767H944.771c12.039,0,23.516,10.642,25.639,23.767l40.838,252.563C1013.372,1102.895,1005.334,1113.534,993.3,1113.534Z" transform="translate(133.428 115.893)"/><path class="c" d="M995.738,1110.885H887.677c-12.039,0-23.516-10.642-25.639-23.767L821.2,834.552c-2.123-13.125,5.915-23.764,17.95-23.764H947.211c12.039,0,23.516,10.639,25.639,23.764l40.838,252.566C1015.812,1100.244,1007.774,1110.885,995.738,1110.885Z" transform="translate(137.805 111.144)"/><path class="i" d="M939.1,813.776H925.911a1.565,1.565,0,0,0-1.481,1.961l.587,3.638c1.056,6.521-2.939,11.807-8.918,11.807H867.424c-5.982,0-11.684-5.286-12.737-11.807l-.59-3.638a2.3,2.3,0,0,0-2.115-1.961H838.8c-9.756,0-16.269,8.625-14.551,19.264l39.6,244.874c1.718,10.636,11.022,19.261,20.778,19.261h100.3c9.756,0,16.269-8.625,14.551-19.261l-39.6-244.874C958.155,822.4,948.851,813.776,939.1,813.776Z" transform="translate(143.39 116.504)"/><path class="i" d="M939.1,813.776H925.911a1.565,1.565,0,0,0-1.481,1.961l.587,3.638c1.056,6.521-2.939,11.807-8.918,11.807H867.424c-5.982,0-11.684-5.286-12.737-11.807l-.59-3.638a2.3,2.3,0,0,0-2.115-1.961H838.8c-9.756,0-16.269,8.625-14.551,19.264l39.6,244.874c1.718,10.636,11.022,19.261,20.778,19.261h100.3c9.756,0,16.269-8.625,14.551-19.261l-39.6-244.874C958.155,822.4,948.851,813.776,939.1,813.776Z" transform="translate(143.39 116.504)"/><path class="m" d="M934.973,924.37H854.308c-3.724,0-7.273-3.291-7.929-7.351l-1.592-9.846c-.657-4.06,1.83-7.351,5.551-7.351H931c3.724,0,7.272,3.291,7.929,7.351l1.593,9.846C941.181,921.079,938.694,924.37,934.973,924.37Z" transform="translate(180.538 270.86)"/><g transform="translate(1024.289 749.304)"><g transform="translate(0 237.652)"><path class="n" d="M844.348,861.031a26.968,26.968,0,1,0,26.966-26.969,27.059,27.059,0,0,0-26.966,26.969" transform="translate(-844.348 -834.062)"/><path class="k" d="M880.969,861.031A27.061,27.061,0,0,1,854,888V834.062A27.062,27.062,0,0,1,880.969,861.031Z" transform="translate(-827.034 -834.062)"/><path class="o" d="M849.2,861.269l8.943-8.946-8.943-8.94,4.464-4.467,8.94,8.943,8.946-8.943,4.465,4.467-8.943,8.94,8.943,8.943-4.465,4.465-8.946-8.94-8.94,8.943Z" transform="translate(-835.643 -825.356)"/><path class="p" d="M862.943,865.732l4.465-4.464-8.943-8.946,8.943-8.94-4.465-4.464L854,847.856v8.932Z" transform="translate(-827.034 -825.355)"/></g></g></g></svg>