<?xml version="1.0" encoding="utf-8"?>
<!-- Generator: Adobe Illustrator 25.1.0, SVG Export Plug-In . SVG Version: 6.00 Build 0)  -->
<svg version="1.1" id="Calque_1" xmlns="http://www.w3.org/2000/svg" xmlns:xlink="http://www.w3.org/1999/xlink" x="0px" y="0px"
	 viewBox="0 0 580.198 551.749" style="enable-background:new 0 0 580.198 551.749;" xml:space="preserve">
<style type="text/css">
	.st0{fill:#FFFFFF;}
	.st1{fill:#F1EFF8;}
	.st2{opacity:0.5;fill:url(#Tracé_7909_1_);enable-background:new    ;}
	.st3{opacity:0.5;fill:url(#Tracé_7911_1_);enable-background:new    ;}
	.st4{opacity:0.5;fill:url(#Tracé_7912_1_);enable-background:new    ;}
	.st5{opacity:0.5;fill:url(#Tracé_7913_1_);enable-background:new    ;}
	.st6{fill:#131F77;}
	.st7{fill:#E90566;}
	.st8{fill:#FF8D67;}
	.st9{fill:#F5EABD;}
	.st10{fill:#1B2C7B;}
	.st11{opacity:0.5;fill:url(#Tracé_7932_1_);enable-background:new    ;}
	.st12{opacity:0.7;fill:url(#Tracé_7939_1_);enable-background:new    ;}
	.st13{opacity:0.7;fill:url(#Tracé_7940_1_);enable-background:new    ;}
	.st14{opacity:0.7;fill:url(#Tracé_7941_1_);enable-background:new    ;}
	.st15{opacity:0.7;fill:url(#Tracé_7942_1_);enable-background:new    ;}
	.st16{fill:#FBD783;}
	.st17{fill:#2A195B;}
	.st18{opacity:0.29;fill:#C7C7C9;enable-background:new    ;}
	.st19{fill-rule:evenodd;clip-rule:evenodd;fill:#C5E0FB;}
	.st20{fill-rule:evenodd;clip-rule:evenodd;fill:#263B87;}
	.st21{fill-rule:evenodd;clip-rule:evenodd;fill:#1B2C7B;}
	.st22{fill-rule:evenodd;clip-rule:evenodd;fill:#360E94;}
	.st23{fill-rule:evenodd;clip-rule:evenodd;fill:#3F549E;}
	.st24{fill:#F6F9FC;}
	.st25{fill-rule:evenodd;clip-rule:evenodd;fill:#F3F9FF;}
	.st26{fill-rule:evenodd;clip-rule:evenodd;fill:#3EA5EC;}
	.st27{fill-rule:evenodd;clip-rule:evenodd;fill:#1369B1;}
	.st28{font-family:'MyriadPro-Regular';}
	.st29{font-size:78.6512px;}
	.st30{font-size:50.6842px;}
	.st31{font-size:61.1732px;}
	.st32{font-size:41.3647px;}
</style>
<g id="Groupe_3230" transform="translate(4.777 -82.413)">
	<path id="_ionicons_svg_ios-arrow-back" class="st0" d="M35.926,125.209l9.461-9.454c0.697-0.699,0.695-1.83-0.004-2.527
		c-0.699-0.697-1.83-0.695-2.527,0.004l-10.72,10.712c-0.673,0.675-0.696,1.761-0.052,2.464l10.764,10.786
		c0.697,0.699,1.828,0.701,2.527,0.004c0.699-0.697,0.701-1.828,0.004-2.527L35.926,125.209z"/>
	<g id="Groupe_2926" transform="translate(-355.196 -667.588)">
		<g id="Groupe_2885" transform="translate(449.648 1446.995)">
			<path id="Tracé_7908" class="st1" d="M317.944-194.061c-62.483-5.71-98.882-6.848-151.754,11.696
				c-13.242,4.661-27.456,10.558-43.398,17.881c-79.707,36.661-201.439-18.355-201.439-46.981s58.23-79.268,263.035-72.279
				c48.799,1.666,88.211,4.708,119.695,8.655C503.485-250.126,385.386-187.881,317.944-194.061z"/>
			
				<linearGradient id="Tracé_7909_1_" gradientUnits="userSpaceOnUse" x1="90.2948" y1="-320.3675" x2="90.8774" y2="-320.3675" gradientTransform="matrix(475.0923 0 0 -159.153 -42760.5508 -51216.1836)">
				<stop  offset="0" style="stop-color:#FFFFFF"/>
				<stop  offset="0.085" style="stop-color:#F5F5F5"/>
				<stop  offset="0.229" style="stop-color:#DADADA"/>
				<stop  offset="0.413" style="stop-color:#AFAFAF"/>
				<stop  offset="0.631" style="stop-color:#747474"/>
				<stop  offset="0.876" style="stop-color:#292929"/>
				<stop  offset="1" style="stop-color:#000000"/>
			</linearGradient>
			<path id="Tracé_7909" class="st2" d="M310.809-194.063c-67.095-5.71-106.18-6.848-162.954,11.696
				c-6.516-7.323-10.035-15.216-10.035-23.44c0-36.568,69.662-66.573,158.107-69.282
				C510.045-250.126,383.228-187.881,310.809-194.063z"/>
		</g>
		<g id="Groupe_2886" transform="translate(429.196 750)">
			<path id="Tracé_7910" class="st1" d="M446.722,278.039c-12.141,20.114-31.705,36.948-52.826,43.604
				c-7.235,2.314-14.826,3.312-22.413,2.947c-10.621-0.655-20.814-4.425-29.305-10.84c-32.772-24.3-50.381-4.898-75.149,19.634
				c-9.604,9.511-20.321,19.734-33.393,28.483c-17.389,11.844-37.486,19.107-58.43,21.113c-0.491,0.047-0.932,0.095-1.425,0.142
				C77.023,392.109,33.088,299.149,9.788,264.436c-4.954-7.163-10.582-13.835-16.807-19.925
				c-23.836-24.061-53.583-43.364-57.761-76.554c-3.291-26.296,2.711-62.766,24.543-94.769
				c10.071-14.753,22.762-27.533,37.444-37.707C55.902-5.458,146.879-5.363,161.954,51.079
				c9.607,35.852,42.468,67.807,80.352,63.003c13.608-1.711,27.881-8.18,41.977-20.923c51.226-46.362,140.383-30.004,124.684,8.844
				c-0.654,1.594-1.426,3.136-2.312,4.614c-24.99,42.083-8.67,40.657,39.31,94.244C465.532,222.69,461.93,252.932,446.722,278.039z"
				/>
			
				<linearGradient id="Tracé_7911_1_" gradientUnits="userSpaceOnUse" x1="110.6845" y1="375.5081" x2="111.2671" y2="375.5081" gradientTransform="matrix(452.5043 0 0 -451.2621 -49902.6328 169675.0781)">
				<stop  offset="0" style="stop-color:#FFFFFF"/>
				<stop  offset="0.085" style="stop-color:#F5F5F5"/>
				<stop  offset="0.229" style="stop-color:#DADADA"/>
				<stop  offset="0.413" style="stop-color:#AFAFAF"/>
				<stop  offset="0.631" style="stop-color:#747474"/>
				<stop  offset="0.876" style="stop-color:#292929"/>
				<stop  offset="1" style="stop-color:#000000"/>
			</linearGradient>
			<path id="Tracé_7911" class="st3" d="M432.665,270.13c-12.983,20.114-33.903,36.948-56.49,43.604
				c-7.768,2.317-15.87,3.313-23.968,2.947c-11.252-0.62-22.106-4.374-31.336-10.84c-35.045-24.3-53.874-4.898-80.359,19.634
				c-10.27,9.512-21.731,19.734-35.709,28.483c-14.601-26.282-22.245-55.859-22.207-85.924c0-97.761,79.218-176.982,176.982-176.982
				c10.976-0.004,21.928,1.015,32.714,3.042c-0.702,1.6-1.529,3.142-2.473,4.613c-26.722,42.083-9.272,40.657,42.036,94.244
				C452.776,214.781,448.924,245.023,432.665,270.13z"/>
			
				<linearGradient id="Tracé_7912_1_" gradientUnits="userSpaceOnUse" x1="111.1023" y1="375.2428" x2="111.6849" y2="375.2428" gradientTransform="matrix(518.604 0 0 -300.2728 -57688.1914 112785.0312)">
				<stop  offset="0" style="stop-color:#FFFFFF"/>
				<stop  offset="0.085" style="stop-color:#F5F5F5"/>
				<stop  offset="0.229" style="stop-color:#DADADA"/>
				<stop  offset="0.413" style="stop-color:#AFAFAF"/>
				<stop  offset="0.631" style="stop-color:#747474"/>
				<stop  offset="0.876" style="stop-color:#292929"/>
				<stop  offset="1" style="stop-color:#000000"/>
			</linearGradient>
			<path id="Tracé_7912" class="st4" d="M232.029,129.901c-33.54,42.595-84.778,67.433-138.992,67.379
				c-73.371,0-136.329-44.651-163.147-108.274c10.932-14.909,24.503-27.689,40.04-37.709
				c62.766-40.939,160.052-40.844,176.172,15.598C156.375,102.749,191.514,134.704,232.029,129.901z"/>
			
				<linearGradient id="Tracé_7913_1_" gradientUnits="userSpaceOnUse" x1="110.8943" y1="375.7311" x2="111.4769" y2="375.7311" gradientTransform="matrix(336.832 0 0 -270.5428 -37355.6953 101956.2969)">
				<stop  offset="0" style="stop-color:#FFFFFF"/>
				<stop  offset="0.085" style="stop-color:#F5F5F5"/>
				<stop  offset="0.229" style="stop-color:#DADADA"/>
				<stop  offset="0.413" style="stop-color:#AFAFAF"/>
				<stop  offset="0.631" style="stop-color:#747474"/>
				<stop  offset="0.876" style="stop-color:#292929"/>
				<stop  offset="1" style="stop-color:#000000"/>
			</linearGradient>
			<path id="Tracé_7913" class="st5" d="M193.286,355.83c0.006,9.175-0.967,18.325-2.903,27.294
				C86.913,392.111,39.935,299.15,15.02,264.438c-5.185-7.181-11.364-13.742-17.973-19.925
				c20.085-12.075,43.085-18.437,66.52-18.399C135.225,226.114,193.286,284.22,193.286,355.83z"/>
		</g>
		<g id="Groupe_2902" transform="translate(725.773 1219.958)">
			<g id="Groupe_2901">
				<g id="Groupe_2900">
					<path id="Tracé_7922" class="st6" d="M-132.465-67.375v17.691c0.001,1.686-0.223,3.364-0.667,4.991
						c-2.73,10.741-13.651,17.235-24.392,14.505c-7.128-1.812-12.693-7.377-14.505-14.505c-0.428-1.629-0.636-3.307-0.619-4.991
						v-17.691c-0.012-1.102,0.416-2.162,1.189-2.947c0.803-0.885,1.945-1.387,3.14-1.379h31.478c2.387-0.029,4.346,1.882,4.376,4.27
						C-132.465-67.413-132.465-67.394-132.465-67.375z"/>
					<path id="Tracé_7923" class="st7" d="M-132.465-67.375v7.181c0.001,1.671-0.223,3.335-0.667,4.946
						c-2.188,8.702-10.033,10.508-19.401,10.508c-9.416,0-17.261-1.806-19.497-10.508c-0.428-1.613-0.636-3.277-0.619-4.946v-7.181
						c-0.012-1.102,0.416-2.162,1.189-2.947c0.803-0.885,1.945-1.387,3.14-1.379h31.478c2.387-0.03,4.347,1.881,4.377,4.268
						C-132.465-67.414-132.465-67.395-132.465-67.375z"/>
					<g id="Groupe_2893" transform="translate(64.219)">
						<path id="Tracé_7924" class="st8" d="M-212.726-186.591l-1.257,12.266c-0.144,1.505-1.482,2.609-2.987,2.464
							c-1.305-0.125-2.339-1.159-2.464-2.464l-0.419-3.933l-0.838-8.331c-0.158-1.514,0.941-2.869,2.455-3.027
							c0.09-0.009,0.181-0.014,0.271-0.015h2.568c1.09-0.006,2.071,0.662,2.465,1.679
							C-212.735-187.529-212.663-187.056-212.726-186.591z"/>
					</g>
					<g id="Groupe_2894" transform="translate(115.047 17.581)">
						<path id="Tracé_7925" class="st8" d="M-227.882-190.318l-9.564,7.784c-1.161,0.969-2.888,0.814-3.857-0.347
							c-0.848-1.016-0.848-2.493,0-3.509l2.483-3.076l5.302-6.488c0.961-1.182,2.697-1.361,3.879-0.4
							c0.069,0.056,0.136,0.116,0.199,0.179l1.817,1.817c0.775,0.766,0.996,1.932,0.556,2.929
							C-227.226-190.989-227.509-190.602-227.882-190.318z"/>
					</g>
					<g id="Groupe_2895" transform="translate(1.226 17.581)">
						<path id="Tracé_7926" class="st8" d="M-193.369-190.318l9.561,7.784c1.161,0.969,2.888,0.814,3.857-0.347
							c0.848-1.016,0.848-2.493,0-3.509l-2.483-3.076l-5.302-6.486c-0.961-1.182-2.697-1.361-3.879-0.4
							c-0.069,0.056-0.136,0.116-0.199,0.179l-1.816,1.817c-0.775,0.766-0.996,1.932-0.556,2.929
							C-194.028-190.987-193.744-190.601-193.369-190.318z"/>
					</g>
					<path id="Tracé_7927" class="st9" d="M-110.212-101.039c0.027,23.082-18.663,41.816-41.745,41.843c-0.033,0-0.065,0-0.098,0
						c-0.857,0-1.711-0.047-2.568-0.095c-0.429-0.008-0.857-0.04-1.282-0.095c-5.892-0.514-11.603-2.298-16.739-5.23
						c-6.283-3.567-11.54-8.693-15.264-14.884c-3.934-6.495-6.007-13.946-5.992-21.54c0-23.063,18.735-52.736,41.846-52.736
						c12.458,0,23.633,8.607,31.241,20.162C-114.206-123.77-110.212-111.692-110.212-101.039z"/>
					<g id="Groupe_2897" transform="translate(79.138 117.394)">
						<g id="Groupe_2896" transform="translate(0 14.095)">
							<path id="Tracé_7928" class="st10" d="M-217.238-243.573l-1.205,1.257h-0.053l-4.402,4.458
								c-1.762,1.722-2.747,4.087-2.728,6.551v40.106c-0.47,0.05-0.891,0.156-1.31,0.209v-40.314
								c-0.008-2.811,1.106-5.509,3.095-7.495l4.244-4.3l1.416-1.416L-217.238-243.573z"/>
						</g>
						<path id="Tracé_7929" class="st7" d="M-218.98-231.298l6.54-6.54c0.862-0.862,2.075-1.052,2.704-0.422l2.533,2.536
							c0.862,0.859,0.156,2.665-1.289,3.303l-9.073,4.005C-219.56-227.538-220.609-229.671-218.98-231.298z"/>
					</g>
					<g id="Groupe_2899" transform="translate(32.91 140.637)">
						<g id="Groupe_2898" transform="translate(17.885 14.16)">
							<path id="Tracé_7930" class="st10" d="M-205.405-241.089v27.102c-0.419-0.05-0.891-0.103-1.31-0.156v-26.946
								c0.019-2.464-0.965-4.83-2.726-6.554l-4.405-4.402l-1.257-1.31l0.891-0.891l1.468,1.466l4.247,4.195
								C-206.509-246.598-205.396-243.9-205.405-241.089z"/>
						</g>
						<path id="Tracé_7931" class="st7" d="M-195.486-241.004l-6.54-6.537c-0.862-0.865-2.072-1.052-2.702-0.422l-2.536,2.533
							c-0.859,0.862-0.156,2.668,1.289,3.306l9.073,4.004C-194.903-237.239-193.854-239.374-195.486-241.004z"/>
					</g>
				</g>
				
					<linearGradient id="Tracé_7932_1_" gradientUnits="userSpaceOnUse" x1="-186.6302" y1="-93.6474" x2="-186.2824" y2="-93.8665" gradientTransform="matrix(133.364 0 0 -178.821 24722.332 -16850.5625)">
					<stop  offset="0" style="stop-color:#FFFFFF"/>
					<stop  offset="0.085" style="stop-color:#F5F5F5"/>
					<stop  offset="0.229" style="stop-color:#DADADA"/>
					<stop  offset="0.413" style="stop-color:#AFAFAF"/>
					<stop  offset="0.631" style="stop-color:#747474"/>
					<stop  offset="0.876" style="stop-color:#292929"/>
					<stop  offset="1" style="stop-color:#000000"/>
				</linearGradient>
				<path id="Tracé_7932" class="st11" d="M-110.214-101.041c0.013,15.503-8.551,29.741-22.251,36.995v14.362
					c0.001,1.686-0.223,3.364-0.667,4.99c-2.73,10.741-13.651,17.235-24.391,14.505c-7.128-1.812-12.693-7.377-14.505-14.505
					c-0.427-1.628-0.636-3.307-0.619-4.99v-14.932c-6.283-3.567-11.54-8.693-15.264-14.884c5.327,3.327,10.558,6.988,16.452,9.177
					c0.048,0,0.095,0.048,0.145,0.048c4.943,1.758,10.603,2.235,15.406,0.427c0.427-0.142,0.857-0.332,1.282-0.524
					c0.812-0.351,1.578-0.798,2.283-1.331c0.2-0.11,0.391-0.237,0.569-0.379c1.496-1.228,2.837-2.634,3.994-4.186
					c0.287-0.332,0.524-0.664,0.809-0.996c0.142-0.192,0.332-0.43,0.475-0.619c3.092-3.852,6.087-7.893,6.943-12.743
					c0.999-5.709-1.189-11.459-2.9-17.119c-0.145-0.475-0.24-0.952-0.382-1.426c-1.189-4.326-1.948-8.56-0.617-12.743
					c2.14-6.656,9.082-10.747,16.025-11.601c2.193-0.27,4.409-0.303,6.609-0.097C-114.206-123.77-110.214-111.692-110.214-101.041z"
					/>
			</g>
		</g>
		<g id="Groupe_2912" transform="translate(501.974 904.235)">
			<g id="Groupe_2905" transform="translate(0 96.606)">
				<g id="Groupe_2904">
					<g id="Groupe_2903">
						<path id="Tracé_7933" class="st10" d="M-55.797-72.965c1.718-0.332,2.845-1.989,2.523-3.709l-0.762-4.136
							c-0.293-1.692-1.902-2.826-3.594-2.533c-0.023,0.004-0.045,0.008-0.068,0.013l-3.52,0.617
							c-0.47-0.948-1.044-1.841-1.711-2.662l1.948-2.855l0.095-0.095c0.999-1.433,0.662-3.404-0.757-4.423l-3.471-2.375
							c-1.452-0.965-3.408-0.608-4.424,0.809l-2.043,2.9c-1.008-0.306-2.044-0.512-3.092-0.617l-0.617-3.567
							c-0.339-1.713-1.991-2.836-3.709-2.52l-4.089,0.761c-1.694,0.265-2.852,1.852-2.588,3.546c0.006,0.039,0.013,0.077,0.02,0.116
							l0.617,3.517c-0.942,0.481-1.834,1.055-2.662,1.713l-2.947-2.046c-1.429-0.985-3.386-0.626-4.371,0.803
							c-0.002,0.002-0.003,0.005-0.005,0.007l-2.378,3.424c-1.002,1.42-0.663,3.383,0.757,4.384
							c0.017,0.012,0.035,0.024,0.053,0.036l2.9,2.046c-0.294,1.012-0.516,2.044-0.664,3.088l-3.519,0.619
							c-1.722,0.332-2.863,1.98-2.568,3.709l0.757,4.136c0.317,1.706,1.955,2.834,3.662,2.52l3.519-0.619
							c0.515,0.923,1.088,1.813,1.713,2.665l-1.996,2.9c0,0.047,0,0.047-0.047,0.095c-0.969,1.418-0.607,3.354,0.809,4.326
							l3.469,2.425c1.428,0.986,3.385,0.628,4.371-0.8c0.002-0.002,0.003-0.005,0.005-0.007l2.043-2.95
							c1.006,0.334,2.042,0.573,3.092,0.714l0.617,3.472c0.316,1.733,1.976,2.882,3.709,2.568l4.136-0.715
							c1.717-0.333,2.843-1.99,2.52-3.709l-0.619-3.519c0.95-0.467,1.843-1.042,2.662-1.711l2.95,2.046
							c1.447,0.982,3.415,0.622,4.421-0.809l2.378-3.472c0.983-1.447,0.623-3.414-0.807-4.421l-2.95-1.998
							c0.333-1.005,0.572-2.039,0.714-3.088L-55.797-72.965z M-74.481-61.506c-7.196,1.3-14.083-3.479-15.384-10.675
							c-1.3-7.196,3.479-14.083,10.675-15.384c2.551-0.461,5.181-0.163,7.564,0.857c6.725,2.86,9.857,10.63,6.997,17.355
							C-66.378-65.242-70.083-62.291-74.481-61.506z"/>
						<path id="Tracé_7934" class="st7" d="M-63.784-76.864c-0.796-4.391-3.743-8.089-7.845-9.846
							c-6.722-2.881-14.507,0.232-17.389,6.954c-2.881,6.722,0.232,14.507,6.954,17.389c2.388,1.023,5.024,1.322,7.58,0.859
							C-67.295-62.804-62.51-69.671-63.784-76.864z M-75.338-66.26c-4.074,0.775-8.102-1.553-9.464-5.47
							c-0.133-0.421-0.244-0.849-0.332-1.282c-0.853-4.58,2.169-8.984,6.748-9.836c0.018-0.003,0.035-0.007,0.053-0.01
							c0.55-0.093,1.106-0.14,1.663-0.142c4.017,0.129,7.401,3.039,8.13,6.991c0.812,4.569-2.23,8.932-6.798,9.75V-66.26z"/>
					</g>
				</g>
			</g>
			<g id="Groupe_2908" transform="translate(109.555 137.197)">
				<g id="Groupe_2907">
					<g id="Groupe_2906">
						<path id="Tracé_7935" class="st10" d="M-92.563-84.814c2.053-0.392,3.41-2.363,3.042-4.421l-0.904-4.993
							c-0.353-2.039-2.291-3.405-4.33-3.052c-0.015,0.002-0.029,0.005-0.044,0.008l-3.662,0.667l-0.572,0.095
							c-0.585-1.131-1.286-2.199-2.09-3.187l2.473-3.567c1.187-1.722,0.762-4.079-0.951-5.278l-4.136-2.855
							c-1.738-1.192-4.11-0.768-5.327,0.952l-2.425,3.469c-1.229-0.357-2.485-0.611-3.757-0.757l-0.757-4.234
							c-0.351-2.058-2.304-3.441-4.362-3.09c-0.005,0.001-0.009,0.002-0.014,0.002l-4.945,0.904
							c-2.073,0.369-3.455,2.348-3.088,4.421l0.762,4.234c-1.133,0.591-2.215,1.274-3.235,2.043l-3.519-2.425
							c-1.723-1.189-4.082-0.764-5.282,0.951l-2.855,4.136c-0.539,0.759-0.777,1.691-0.667,2.615
							c0.104,1.088,0.699,2.07,1.616,2.665l0.43,0.284l3.088,2.188l-0.285,0.996c-0.252,0.888-0.427,1.795-0.524,2.713l-4.234,0.757
							c-2.06,0.379-3.422,2.356-3.043,4.416c0,0.002,0.001,0.005,0.001,0.007l0.901,4.946c0.352,2.058,2.306,3.442,4.364,3.09
							c0.004-0.001,0.008-0.001,0.012-0.002l4.231-0.761c0.598,1.114,1.282,2.179,2.046,3.187l-2.425,3.52
							c-1.195,1.716-0.773,4.077,0.944,5.272c0.003,0.002,0.005,0.004,0.008,0.005l4.142,2.904c1.721,1.187,4.078,0.763,5.277-0.949
							l2.473-3.52c1.206,0.391,2.449,0.661,3.709,0.806l0.762,4.234c0.388,2.07,2.381,3.434,4.451,3.046
							c0.006-0.001,0.011-0.002,0.017-0.003l4.898-0.854c2.087-0.378,3.472-2.376,3.094-4.463c0-0.003-0.001-0.005-0.001-0.008
							l-0.762-4.184c1.125-0.597,2.192-1.298,3.187-2.093l3.52,2.473c1.738,1.183,4.104,0.761,5.325-0.951l2.9-4.184
							c1.188-1.721,0.763-4.079-0.951-5.277l-3.564-2.425c0.382-1.209,0.652-2.451,0.807-3.709L-92.563-84.814z M-115.007-71.025
							c-8.651,1.564-16.932-4.181-18.497-12.832c0-0.002-0.001-0.004-0.001-0.006c-0.283-1.521-0.331-3.077-0.142-4.613
							c0.978-8.729,8.848-15.013,17.577-14.035c6.349,0.712,11.656,5.153,13.475,11.277c0.187,0.558,0.33,1.13,0.427,1.711
							c1.564,8.651-4.181,16.932-12.833,18.496C-115.002-71.026-115.004-71.025-115.007-71.025z"/>
						<path id="Tracé_7936" class="st7" d="M-102.169-89.523c-0.098-0.581-0.24-1.153-0.427-1.711
							c-2.501-8.42-11.355-13.219-19.776-10.718c-6.124,1.819-10.566,7.126-11.277,13.475c-0.189,1.536-0.141,3.092,0.142,4.613
							c1.563,8.653,9.845,14.401,18.498,12.838c8.653-1.563,14.401-9.845,12.838-18.498l0,0L-102.169-89.523z M-116.054-76.729
							c-5.486,0.981-10.734-2.652-11.746-8.133c-0.055-0.378-0.087-0.759-0.095-1.141c-0.417-5.561,3.752-10.407,9.313-10.825
							c5.187-0.389,9.821,3.226,10.706,8.352c0.063,0.297,0.079,0.602,0.047,0.904C-107.316-82.363-110.899-77.638-116.054-76.729
							L-116.054-76.729z"/>
					</g>
				</g>
			</g>
			<g id="Groupe_2911" transform="translate(60.779)">
				<g id="Groupe_2910">
					<g id="Groupe_2909">
						<path id="Tracé_7937" class="st10" d="M-58.889-20.079c2.58-0.47,4.299-2.931,3.852-5.515l-1.141-6.182
							c-0.461-2.565-2.914-4.271-5.479-3.81c-0.012,0.002-0.024,0.004-0.036,0.007l-5.278,0.951
							c-0.304-0.627-0.655-1.231-1.049-1.806c-0.469-0.754-0.977-1.483-1.521-2.185l3.088-4.424
							c1.474-2.174,0.947-5.127-1.189-6.656l-5.185-3.52c-2.156-1.484-5.105-0.953-6.609,1.189l-3.092,4.374
							c-1.501-0.482-3.045-0.816-4.611-0.996l-0.999-5.28c-0.453-2.57-2.898-4.291-5.47-3.852l-6.181,1.141
							c-2.581,0.451-4.308,2.909-3.856,5.49c0.002,0.009,0.003,0.018,0.005,0.027l0.951,5.278c-1.399,0.727-2.735,1.57-3.994,2.52
							l-4.421-2.997c-2.142-1.478-5.076-0.947-6.564,1.189l-3.567,5.135c-1.504,2.116-1.009,5.05,1.107,6.555
							c0.027,0.019,0.055,0.038,0.082,0.057l4.376,3.088c-0.479,1.502-0.814,3.047-0.999,4.613l-5.277,0.951
							c-2.569,0.486-4.28,2.935-3.852,5.515l1.141,6.229c0.481,2.567,2.944,4.266,5.515,3.804l5.278-0.951
							c0.739,1.392,1.582,2.727,2.52,3.994l-2.995,4.376c-1.505,2.106-1.018,5.034,1.089,6.539c0.033,0.024,0.067,0.047,0.1,0.07
							l5.135,3.612c2.157,1.48,5.103,0.95,6.609-1.189l3.045-4.421c1.518,0.493,3.078,0.844,4.661,1.049l0.951,5.23
							c0.419,2.559,2.833,4.293,5.392,3.874c0.042-0.007,0.084-0.014,0.125-0.022l3.422-0.619l2.757-0.474
							c2.587-0.485,4.291-2.975,3.807-5.563l-0.951-5.233c1.413-0.721,2.751-1.581,3.994-2.568l4.424,3.045
							c2.158,1.473,5.099,0.944,6.608-1.189l3.612-5.185c1.473-2.175,0.945-5.128-1.189-6.659l-4.424-2.995
							c0.479-1.519,0.814-3.079,0.999-4.661L-58.889-20.079z M-86.895-2.817c-1.303,0.228-2.624,0.339-3.947,0.332
							c-10.984-0.24-19.694-9.339-19.454-20.323c0.24-10.984,9.339-19.694,20.323-19.454c6.196,0.135,11.975,3.151,15.63,8.156
							c1.807,2.408,3.013,5.213,3.519,8.18C-68.9-15.111-76.087-4.778-86.895-2.817L-86.895-2.817z"/>
						<path id="Tracé_7938" class="st7" d="M-70.823-25.926c-0.506-2.968-1.712-5.773-3.519-8.181
							c-6.475-8.881-18.924-10.831-27.805-4.355c-8.881,6.475-10.831,18.924-4.355,27.805c3.659,5.018,9.451,8.041,15.661,8.171
							c1.323,0.007,2.644-0.104,3.947-0.332C-76.086-4.779-68.9-15.112-70.823-25.926z M-88.179-9.951
							c-1.003,0.19-2.028,0.239-3.045,0.145c-6.969-0.433-12.267-6.434-11.834-13.402c0.433-6.969,6.434-12.267,13.402-11.834
							c3.61,0.224,6.952,1.985,9.179,4.835c1.309,1.623,2.177,3.556,2.52,5.613C-76.749-17.731-81.32-11.184-88.179-9.951z"/>
					</g>
				</g>
			</g>
			
				<linearGradient id="Tracé_7939_1_" gradientUnits="userSpaceOnUse" x1="37.0222" y1="220.8583" x2="37.6048" y2="220.8583" gradientTransform="matrix(68.9346 0 0 -65.0878 -2645.488 14401.9219)">
				<stop  offset="0" style="stop-color:#FFFFFF"/>
				<stop  offset="0.256" style="stop-color:#C1C1C1"/>
				<stop  offset="0.845" style="stop-color:#292929"/>
				<stop  offset="1" style="stop-color:#000000"/>
			</linearGradient>
			<path id="Tracé_7939" class="st12" d="M-59.313,24.26c-0.142,1.049-0.382,2.083-0.714,3.088l2.95,1.998
				c1.43,1.006,1.789,2.974,0.807,4.421l-2.378,3.472c-1.006,1.431-2.973,1.791-4.421,0.809l-2.95-2.046
				c-0.82,0.67-1.713,1.244-2.662,1.711l0.619,3.519c0.323,1.719-0.803,3.376-2.52,3.709l-4.136,0.715
				c-1.733,0.314-3.393-0.835-3.709-2.568l-0.617-3.472c-1.051-0.141-2.086-0.38-3.092-0.714l-2.043,2.95
				c-0.982,1.43-2.937,1.794-4.368,0.813c-0.003-0.002-0.006-0.004-0.008-0.006l-3.469-2.425c-1.417-0.972-1.779-2.907-0.809-4.326
				c0.047-0.048,0.047-0.048,0.047-0.095c1.919-1.871,3.611-3.962,5.04-6.229c1.049-1.521,1.998-3.14,2.947-4.708
				c1.565,4.39,6.392,6.68,10.782,5.115c3.87-1.38,6.184-5.346,5.48-9.393c-0.729-3.952-4.113-6.862-8.13-6.991
				c1.515-1.447,3.208-2.693,5.04-3.709c3.425-1.948,7.133-2.757,10.65-1.521l-1.948,2.855c0.668,0.821,1.241,1.714,1.711,2.662
				l3.519-0.617c1.685-0.331,3.319,0.767,3.649,2.452c0.004,0.023,0.009,0.045,0.013,0.068l0.762,4.136
				c0.323,1.72-0.805,3.377-2.523,3.709L-59.313,24.26z"/>
			
				<linearGradient id="Tracé_7940_1_" gradientUnits="userSpaceOnUse" x1="-0.0565" y1="217.9666" x2="0.5261" y2="217.9666" gradientTransform="matrix(3.507 0 0 -5.063 -41.6162 1144.0359)">
				<stop  offset="0" style="stop-color:#FFFFFF"/>
				<stop  offset="0.256" style="stop-color:#C1C1C1"/>
				<stop  offset="0.845" style="stop-color:#292929"/>
				<stop  offset="1" style="stop-color:#000000"/>
			</linearGradient>
			<path id="Tracé_7940" class="st13" d="M-40.198,41.663c-0.918-0.594-1.514-1.576-1.616-2.665
				c0.617,0.999,1.331,1.998,2.043,2.95L-40.198,41.663z"/>
			
				<linearGradient id="Tracé_7941_1_" gradientUnits="userSpaceOnUse" x1="37.0212" y1="221.2188" x2="37.6038" y2="221.2188" gradientTransform="matrix(97.4231 0 0 -66.9846 -3643.3811 14877.623)">
				<stop  offset="0" style="stop-color:#FFFFFF"/>
				<stop  offset="0.256" style="stop-color:#C1C1C1"/>
				<stop  offset="0.845" style="stop-color:#292929"/>
				<stop  offset="1" style="stop-color:#000000"/>
			</linearGradient>
			<path id="Tracé_7941" class="st14" d="M12.759,53.145c-0.155,1.258-0.425,2.5-0.807,3.709l3.564,2.425
				c1.714,1.198,2.139,3.556,0.951,5.277l-2.9,4.184c-1.221,1.712-3.587,2.135-5.325,0.951l-3.52-2.473
				c-0.995,0.795-2.062,1.496-3.187,2.093l0.762,4.184c0.382,2.086-0.999,4.087-3.085,4.469c-0.003,0-0.005,0.001-0.008,0.001
				l-4.898,0.854c-2.068,0.397-4.067-0.957-4.465-3.026c-0.001-0.006-0.002-0.011-0.003-0.017l-0.762-4.234
				c-1.26-0.145-2.502-0.415-3.709-0.806l-2.473,3.52c-1.2,1.714-3.559,2.138-5.28,0.948l-4.136-2.9
				c-1.719-1.191-2.148-3.55-0.957-5.269c0.002-0.003,0.004-0.005,0.005-0.008l2.425-3.52c-0.764-1.008-1.447-2.073-2.046-3.187
				l-4.231,0.761c-2.057,0.358-4.016-1.019-4.374-3.076c-0.001-0.004-0.001-0.008-0.002-0.012l-0.901-4.946
				c-0.383-2.059,0.976-4.039,3.035-4.422c0.002,0,0.005-0.001,0.007-0.001l4.234-0.757c0.097-0.917,0.272-1.825,0.524-2.713
				c1.42,1.374,3.001,2.572,4.708,3.567c1.809,1.057,3.741,1.887,5.752,2.473c0.008,0.382,0.04,0.763,0.095,1.141
				c1.012,5.48,6.261,9.114,11.746,8.133c5.154-0.909,8.738-5.634,8.225-10.842c1.147-0.575,2.245-1.243,3.282-1.998
				c0.694-0.501,1.347-1.057,1.951-1.663c1.705-1.514,3.108-3.337,4.136-5.372l3.662-0.667c2.034-0.377,3.989,0.967,4.366,3.001
				c0.003,0.015,0.005,0.029,0.008,0.044l0.904,4.993c0.368,2.058-0.989,4.029-3.042,4.421L12.759,53.145z"/>
			
				<linearGradient id="Tracé_7942_1_" gradientUnits="userSpaceOnUse" x1="36.1517" y1="220.6172" x2="36.7343" y2="220.6172" gradientTransform="matrix(62.4011 0 0 -83.737 -2286.4475 18461.7871)">
				<stop  offset="0" style="stop-color:#FFFFFF"/>
				<stop  offset="0.256" style="stop-color:#C1C1C1"/>
				<stop  offset="0.845" style="stop-color:#292929"/>
				<stop  offset="1" style="stop-color:#000000"/>
			</linearGradient>
			<path id="Tracé_7942" class="st15" d="M-3.388-19.128c-0.185,1.582-0.52,3.142-0.999,4.661l4.424,2.995
				c2.134,1.531,2.662,4.483,1.189,6.659l-3.612,5.185c-1.51,2.133-4.45,2.662-6.608,1.189l-4.424-3.045
				c-1.242,0.987-2.58,1.847-3.994,2.568l0.951,5.233c0.484,2.587-1.22,5.077-3.807,5.562l-2.757,0.474
				c-3.702-4.18-6.142-9.324-7.035-14.836c-0.461-2.411-0.589-4.874-0.382-7.32c1.017,0.094,2.042,0.045,3.045-0.145
				c6.859-1.232,11.43-7.78,10.223-14.644c-0.343-2.057-1.211-3.99-2.52-5.613c1.398-1.179,2.911-2.214,4.518-3.088
				c0.524-0.284,1.091-0.572,1.616-0.809c2.028-0.979,4.146-1.759,6.324-2.33c0.394,0.575,0.744,1.179,1.049,1.806l5.278-0.951
				c2.562-0.481,5.028,1.206,5.508,3.768c0.002,0.012,0.004,0.024,0.007,0.036l1.141,6.182c0.447,2.584-1.272,5.045-3.852,5.515
				L-3.388-19.128z"/>
		</g>
		<g id="Groupe_2925" transform="translate(1146.437 1087.342)">
			<g id="Groupe_2923" transform="translate(99.101 214.586)">
				<path id="Tracé_7952" class="st16" d="M-374.154-78.848c0.9,1.633,1.399,3.456,1.457,5.32
					c0.058,3.027,13.431,0.506,13.431,0.506c-0.872-2.389-1.887-4.724-3.039-6.991c-1.923-3.801-3.582-5.443-3.582-5.443
					L-374.154-78.848z"/>
				<path id="Tracé_7953" class="st10" d="M-359.641-76.176c2.291,2.573,3.134,5.235,2.467,7.993
					c-9.559,2.125-18.818,4.418-27.848,5.857c-0.717-3.437,7.457-9.904,12.258-12.366C-368.39-73.176-363.565-73.721-359.641-76.176
					z"/>
				<path id="Tracé_7954" class="st10" d="M-381.381-223.848c5.093,36.392-4.452,52.296-1.561,66.184
					c2.891,13.888,19.152,74.573,19.152,74.573c-1.318,2.649-7.495,4.9-11.122,4.195c-14.085-32.491-30.904-70.079-33.018-81.72
					c-2.33-13.125-4.463-36.386-1.398-60.162L-381.381-223.848z"/>
			</g>
			<g id="Groupe_2924" transform="translate(46.119 219.414)">
				<path id="Tracé_7955" class="st16" d="M-371.638-79.79c0.561,1.779,0.693,3.665,0.385,5.504
					c-0.538,2.977,13.07,3.129,13.07,3.129c-0.385-2.516-0.922-5.006-1.608-7.457c-1.144-4.104-2.447-6.042-2.447-6.042
					L-371.638-79.79z"/>
				<path id="Tracé_7956" class="st10" d="M-357.931-74.328c1.743,2.971,2.046,5.752,0.852,8.325
					c-9.791,0.208-19.32,0.641-28.454,0.284c-0.029-3.514,9.255-8.254,14.443-9.725C-367.099-73.1-362.261-72.69-357.931-74.328z"/>
				<path id="Tracé_7957" class="st10" d="M-350.308-223.393c-2.141,36.684-14.615,50.403-14.499,64.59
					c0.116,14.188,4.162,76.88,4.162,76.88c-1.814,2.338-8.309,3.338-11.728,1.935c-7.444-34.62-16.571-74.776-16.36-86.604
					c0.291-13.328,2.755-36.555,10.418-59.271L-350.308-223.393z"/>
			</g>
			<path id="Tracé_7958" class="st16" d="M-300.15-87.246c-2.254-3.814-2.702-8.116-2.897-12.992h-10.36
				c0.156,4.756,0.045,9.572-1.41,14.449C-313.743-83.756-301.171-84.557-300.15-87.246z"/>
			<path id="Tracé_7959" class="st16" d="M-299.407-99.217c-6.583,2.958-11.269,8.299-17.256,5.709
				c-8.448-2.244-8.639-21.287-5.749-29.778l22.974-2.68L-299.407-99.217z"/>
			<path id="Tracé_7960" class="st17" d="M-297.23-99.505l-8.375,6.848l-8.739-9.798l5.921-6.079l-2.71-3.67l-3.211,4.015
				l-2.109-2.428l1.634-6.798c-5.894,0.696-20.106-2.396-20.106-2.396s7.065-11.117,8.61-14.467
				c5.897,2.417,14.81,1.452,14.81,1.452l15.901,7.661L-297.23-99.505z"/>
			<path id="Tracé_7961" class="st16" d="M-331.194-106.131c0,0,2.291-6.182,6.018-7.22c3.973-1.107,8.771,5.979,8.122,8.688
				s-5.918,0.849-5.899,2.175s2.251,1.207,1.882,2.494c-0.369,1.286-5.976,0.156-5.976,0.156L-331.194-106.131z"/>
			<path id="Tracé_7962" class="st0" d="M-285.043-86.089c-9.25-4.929-33.471-3.975-46.938,2.312l-25.075,4.311l33.653-24.144
				l-6.587-5.778c-8.525,12.722-49.436,12.717-37.243,42.697l32.983,5.181c-1.967,25.046-3.683,48.051-0.699,63.038
				c10.553,6.044,48.13,3.48,55.132-3.685C-282.594-39.237-273.997-77.564-285.043-86.089z"/>
		</g>
		<path id="Tracé_7963" class="st18" d="M860.229,1008.391c-9.25-4.502-33.473-3.63-46.939,2.114l-25.075,3.938l33.656-22.057
			l-6.587-5.283c-8.528,11.623-49.438,11.617-37.243,39.007l32.975,4.735c-1.964,22.882-3.683,43.897-0.699,57.589
			c10.555,5.522,48.13,3.179,55.135-3.366C862.678,1051.194,871.272,1016.178,860.229,1008.391z"/>
		<path id="Tracé_7964" class="st0" d="M861.394,1001.252c-9.25-4.929-33.471-3.975-46.938,2.312l-25.075,4.311l33.653-24.144
			l-6.587-5.778c-8.525,12.722-49.436,12.717-37.243,42.697l32.983,5.181c-1.967,25.046-3.683,48.051-0.699,63.037
			c10.553,6.044,48.13,3.48,55.132-3.685C863.843,1048.105,872.44,1009.778,861.394,1001.252z"/>
		<path id="Tracé_7965" class="st19" d="M651.092,1013.139c-31.67-18.168-63.72-47.197-81.593-79.015
			c-0.543-0.938-0.823-2.004-0.809-3.088V825.333c-0.028-2.703,1.692-5.115,4.257-5.968l79.234-27.284
			c1.329-0.479,2.784-0.479,4.113,0l79.234,27.284c2.565,0.854,4.285,3.265,4.257,5.968v105.701c0.013,1.083-0.267,2.15-0.809,3.088
			c-17.873,31.815-49.923,60.848-81.593,79.015c-1.937,1.149-4.347,1.149-6.284,0"/>
		<path id="Tracé_7966" class="st20" d="M737.843,931.408c-23.49,41.907-66.502,70.25-83.307,79.516l0.329-216.329l79.527,23.445
			c2.563,0.855,4.281,3.266,4.253,5.968v104.311c0.014,1.083-0.264,2.149-0.804,3.088"/>
		<path id="Tracé_7967" class="st21" d="M571.779,931.408c23.493,41.907,66.504,70.25,83.307,79.516l-0.439-216.329l-79.415,23.445
			c-2.565,0.853-4.285,3.265-4.257,5.968v104.311C570.961,929.402,571.238,930.469,571.779,931.408"/>
		<path id="Tracé_7968" class="st22" d="M654.299,806.836l66.726,22.977c2.565,0.854,4.285,3.265,4.257,5.968v91.41
			c0.014,1.147-0.298,2.274-0.901,3.25c-16.094,26.772-42.892,51.165-69.333,67.276l-0.749,0.456
			c-27.049-16.476-53.677-40.443-70.081-67.733c-0.603-0.976-0.916-2.103-0.902-3.25v-91.41c-0.028-2.703,1.692-5.115,4.257-5.968
			L654.299,806.836z"/>
		<path id="Tracé_7969" class="st23" d="M654.976,808.314l-65.284,22.481c-2.565,0.854-4.285,3.266-4.257,5.969v89.992
			c-0.014,1.15,0.299,2.28,0.904,3.258c15.59,25.884,42.46,50.495,68.637,66.431L654.976,808.314z"/>
		<path id="Tracé_7970" class="st21" d="M724.519,926.536v-89.992c0.027-2.703-1.693-5.114-4.257-5.969l-65.286-22.481v188.13
			c26.177-15.933,53.047-40.546,68.637-66.431C724.218,928.816,724.533,927.686,724.519,926.536"/>
		<path id="Tracé_7971" class="st24" d="M654.466,846.657c-7.199,0.026-13.029,5.855-13.057,13.054v12.627h26.111v-12.627
			C667.493,852.513,661.664,846.684,654.466,846.657 M654.466,837.955c12.005,0.027,21.73,9.751,21.758,21.756v16.979
			c0,2.403-1.948,4.352-4.351,4.352c0,0-0.001,0-0.001,0H637.06c-2.403,0-4.352-1.948-4.352-4.351c0,0,0-0.001,0-0.001v-16.979
			C632.736,847.706,642.461,837.982,654.466,837.955L654.466,837.955z"/>
		<path id="Tracé_7972" class="st19" d="M653.366,871.318h29.014c3.2,0.01,5.791,2.602,5.799,5.802v54.407
			c-0.008,3.2-2.599,5.794-5.799,5.805h-29.014V871.318z"/>
		<path id="Tracé_7973" class="st25" d="M626.578,871.318h29.014v66.014h-29.014c-3.201-0.011-5.792-2.604-5.799-5.805V877.12
			C620.787,873.92,623.378,871.328,626.578,871.318"/>
		<path id="Tracé_7974" class="st26" d="M655.877,889.895c4.7,0,8.509,3.81,8.509,8.51c0,3.359-1.976,6.403-5.043,7.771
			l0.213,0.609l3.68,10.545h-14.722l3.68-10.545l0.214-0.609c-4.292-1.915-6.219-6.946-4.305-11.238
			c1.369-3.068,4.414-5.044,7.774-5.043"/>
		<path id="Tracé_7975" class="st27" d="M658.201,890.229c4.514,1.313,7.108,6.037,5.795,10.551
			c-0.699,2.402-2.419,4.375-4.704,5.395l0.213,0.609l3.68,10.545h-12.912l3.572-10.236l0.211-0.607
			c-4.292-1.917-6.218-6.951-4.301-11.243c1.369-3.066,4.412-5.04,7.77-5.041C657.753,890.203,657.977,890.214,658.201,890.229"/>
		<text transform="matrix(0.8559 0.5172 -0.5172 0.8559 858.4396 939.8521)" class="st28 st29">?</text>
		<text transform="matrix(0.994 -0.109 0.109 0.994 835.9796 934.0458)" class="st28 st30">?</text>
		<text transform="matrix(0.7887 -0.6147 0.6147 0.7887 801.313 941.7398)" class="st28 st31">?</text>
		<text transform="matrix(0.5172 -0.8559 0.8559 0.5172 785.3799 971.1022)" class="st28 st32">?</text>
	</g>
</g>
</svg>
