<svg xmlns="http://www.w3.org/2000/svg" xmlns:xlink="http://www.w3.org/1999/xlink" width="910.052" height="874.337" viewBox="0 0 910.052 874.337"><defs><style>.a{fill:#f1eff8;}.b,.c,.d,.f,.g,.h{opacity:0.5;mix-blend-mode:overlay;isolation:isolate;}.b{fill:url(#a);}.c{fill:url(#b);}.d{fill:url(#e);}.e{opacity:0.1;}.f{fill:url(#f);}.g{fill:url(#g);}.h{fill:url(#h);}.i{fill:#18255b;}.j{fill:#1b2c7b;}.k{fill:#fff;}.l{fill:#2f3f9b;}.m{fill:url(#i);}.n{fill:url(#j);}.o{fill:url(#k);}.p{fill:url(#l);}.q{fill:url(#m);}.r{fill:url(#n);}.s{fill:url(#o);}.t{fill:url(#p);}.u{fill:url(#q);}.v{fill:url(#r);}.w{fill:url(#s);}.x{fill:#e90566;}.y{fill:#091038;}.z{fill:url(#t);}.aa{fill:#b92c49;}.ab{fill:url(#u);}.ac{fill:#092772;}.ad{fill:#fc322d;}</style><linearGradient id="a" x1="0.316" y1="0.052" x2="0.834" y2="1.657" gradientUnits="objectBoundingBox"><stop offset="0" stop-color="#fff"/><stop offset="0.085" stop-color="#f5f5f5"/><stop offset="0.229" stop-color="#dadada"/><stop offset="0.413" stop-color="#afafaf"/><stop offset="0.631" stop-color="#747474"/><stop offset="0.876" stop-color="#292929"/><stop offset="1"/></linearGradient><linearGradient id="b" x1="0" y1="0.5" x2="1" y2="0.5" xlink:href="#a"/><linearGradient id="e" x1="90.575" y1="57.193" x2="92.107" y2="57.193" gradientUnits="objectBoundingBox"><stop offset="0" stop-color="#fff"/><stop offset="1"/></linearGradient><linearGradient id="f" y1="0.5" x2="1" y2="0.5" gradientUnits="objectBoundingBox"><stop offset="0" stop-color="#fff"/><stop offset="0.178" stop-color="#cdcdcd"/><stop offset="0.587" stop-color="#5f5f5f"/><stop offset="0.869" stop-color="#1a1a1a"/><stop offset="1"/></linearGradient><linearGradient id="g" x1="175.966" y1="0.5" x2="176.966" y2="0.5" gradientUnits="objectBoundingBox"><stop offset="0" stop-color="#fff"/><stop offset="0.256" stop-color="#c1c1c1"/><stop offset="0.845" stop-color="#292929"/><stop offset="1"/></linearGradient><linearGradient id="h" x1="2244.355" y1="0.5" x2="2245.355" y2="0.5" xlink:href="#g"/><linearGradient id="i" x1="1.314" y1="0.281" x2="0.367" y2="0.634" gradientUnits="objectBoundingBox"><stop offset="0" stop-color="#f8d2bb"/><stop offset="1" stop-color="#eeb39f"/></linearGradient><linearGradient id="j" x1="0.598" y1="0.599" x2="0.839" gradientUnits="objectBoundingBox"><stop offset="0" stop-color="#d97457"/><stop offset="1" stop-color="#f6ccbc"/></linearGradient><linearGradient id="k" x1="218.829" y1="-6.597" x2="219.073" y2="-6.099" gradientUnits="objectBoundingBox"><stop offset="0" stop-color="#6b63da"/><stop offset="1" stop-color="#1e185d"/></linearGradient><linearGradient id="l" x1="1.181" y1="0.391" x2="0.431" y2="0.496" xlink:href="#i"/><linearGradient id="m" x1="0.739" y1="0.923" x2="0.069" y2="-0.171" xlink:href="#j"/><linearGradient id="n" x1="1.164" y1="0.541" x2="0.293" y2="0.449" xlink:href="#k"/><linearGradient id="o" x1="0.117" y1="0.839" x2="0.738" y2="0.283" gradientUnits="objectBoundingBox"><stop offset="0" stop-color="#680e0e"/><stop offset="1" stop-color="#c90c0f"/></linearGradient><linearGradient id="p" x1="0.471" y1="-0.022" x2="0.539" y2="1.177" xlink:href="#j"/><linearGradient id="q" x1="0" y1="0.5" x2="1" y2="0.5" xlink:href="#i"/><linearGradient id="r" x1="0.88" y1="0.199" x2="0.199" y2="0.72" xlink:href="#i"/><linearGradient id="s" x1="0.606" y1="0.287" x2="0.318" y2="0.835" gradientUnits="objectBoundingBox"><stop offset="0" stop-color="#ba0c0c"/><stop offset="1" stop-color="#c90c0f"/></linearGradient><linearGradient id="t" x1="6.867" y1="-7.053" x2="6.178" y2="-6.486" xlink:href="#i"/><linearGradient id="u" x1="0.517" y1="0.554" x2="0.177" y2="0.836" gradientUnits="objectBoundingBox"><stop offset="0" stop-color="#ec3a45"/><stop offset="1" stop-color="#c90c0f"/></linearGradient></defs><g transform="translate(-85.024 -119)"><g transform="translate(-118.356 -649.799)"><g transform="translate(203.38 803.956)"><g transform="translate(0 628.426)"><path class="a" d="M1010.751,1036.9a492.317,492.317,0,0,1-62.481,5.041c-114.348,2.175-164.035-29.2-244.963,28.786-29.06,20.833-92.022,34.17-156.614,40.435-115.435,11.157-235.98-.343-177.173-32.4,91.753-49.887,59.214-32.058-116.522-57.445S405.8,898.522,654.3,904.85C1206.439,919.011,1169.752,1013.757,1010.751,1036.9Z" transform="translate(-203.38 -904.555)"/><path class="b" d="M765.672,1006.919a492.351,492.351,0,0,1-62.481,5.041c-114.348,2.174-164.035-29.2-244.963,28.786-29.06,20.833-92.022,34.17-156.614,40.435-32.334-17.834-51.524-40.023-51.524-64.048,0-59.014,115.71-106.865,258.437-106.865C642.884,910.268,753.353,952.741,765.672,1006.919Z" transform="translate(41.699 -874.579)"/></g><g transform="translate(36.352)"><path class="a" d="M986.959,1066.019c63.911,83.177,29.2,201.672-27.973,274.842-27.5,35.257-60.238,60.031-89.711,65.2-20.146,3.68-38.73-1.9-53.023-19.4-44.852-54.929-91.885-91.617-147.631-96.376-21.439-1.774-44.1,1.156-68.471,9.664-22.663,7.827-46.826,20.483-72.757,38.593h-.069c-.956.681-1.837,1.293-2.792,1.974-1.974,1.356-3.948,2.717-5.922,3.879-128.3,80.109-340.115-130.684-305.676-227.747.475-1.424,1.024-2.855,1.637-4.216,34.1-86.712,135.719-69.152,97.126-161.587-8.983-21.508-9.6-40.155-4.085-55.672,18.584-52.274,106.8-69.7,182.957-45.333C539.5,865.5,612.811,909.674,682.576,913.69c40.361,2.38,79.5-8.714,112.1-46.558,80.728-93.583,220.6-71.669,227.947-8.845a49.567,49.567,0,0,1-2.043,20.352C996.829,956.231,871.111,915.458,986.959,1066.019Z" transform="translate(-209.199 -803.955)"/><path class="c" d="M621.487,1025.474c63.911,83.177,29.2,201.673-27.973,274.842-27.5,35.257-60.238,60.031-89.711,65.2-20.146,3.68-38.73-1.9-53.023-19.4-44.852-54.929-91.885-91.616-147.631-96.376a313.973,313.973,0,0,1-13.88-41.117,307.358,307.358,0,0,1-9.189-52.885q-1.227-13.68-1.224-27.767c0-174.655,141.641-316.3,316.289-316.3a320.288,320.288,0,0,1,62.006,6.06,49.566,49.566,0,0,1-2.043,20.352C631.357,915.686,505.64,874.914,621.487,1025.474Z" transform="translate(156.272 -763.411)"/><path class="c" d="M599.919,884.245A190.919,190.919,0,0,1,414.169,1030.72c-96.645,0-176.554-71.807-189.216-164.985,18.584-52.274,106.8-69.7,182.957-45.333C456.848,836.057,530.154,880.229,599.919,884.245Z" transform="translate(-126.542 -774.51)"/><path class="c" d="M530.178,1065.26a216.028,216.028,0,0,1-2.786,34.714h-.069c-.956.681-1.837,1.293-2.792,1.974-1.974,1.356-3.948,2.717-5.922,3.88-128.3,80.109-340.115-130.684-305.676-227.747.475-1.424,1.024-2.855,1.637-4.217a214.811,214.811,0,0,1,99.781-24.437c101.892,0,187.174,70.514,209.906,165.4A215.927,215.927,0,0,1,530.178,1065.26Z" transform="translate(-209.199 -565.38)"/></g></g><g transform="translate(783.529 1069.336)"><path class="d" d="M310.5,869.189c-3.292-7.428-8.24-14.343-13.143-21.152-.369-.506-.756-1.062-1.106-1.6a33.652,33.652,0,0,1,3.311,2.549C305.39,854.2,308.27,861.537,310.5,869.189Z" transform="translate(-296.251 -846.438)"/><ellipse class="e" cx="23.727" cy="3.061" rx="23.727" ry="3.061" transform="translate(154.624 480.709)"/><path class="e" d="M303.014,863.468c.287.725.725,2.024,1.306,3.911Q303.664,865.42,303.014,863.468Z" transform="translate(-260.767 -757.084)"/></g><g transform="translate(285.12 1183.772)"><path class="f" d="M216.465,864.757c3.473.131,7.015.337,10.551.543v28.86a13.779,13.779,0,0,0-2.992-.343,16.78,16.78,0,0,0-7.49,1.905,3.81,3.81,0,0,1-.069-.881Z" transform="translate(-216.465 -864.757)"/></g><g transform="translate(700.988 937.478)"><path class="g" d="M297.28,840.808l-12.85,11.757a4.722,4.722,0,0,0,3.917-1.412l2.2-2.193a18.635,18.635,0,0,0,3.13,1.25v3.136a5.119,5.119,0,0,0,5.172,5.172h5.016a4.929,4.929,0,0,0,5.172-4.7.593.593,0,0,0,.156-.475V850.21a18.709,18.709,0,0,0,3.136-1.25l2.193,2.193a5.393,5.393,0,0,0,7.521,0l3.611-3.6a5.2,5.2,0,0,0,0-7.365l-2.355-2.193a29.159,29.159,0,0,0,1.412-3.292h3.136a5.16,5.16,0,0,0,5.172-5.329,24.736,24.736,0,0,0-7.365,2.193c-4.7,1.88-9.408,4.385-14.268,5.953a15.06,15.06,0,0,1-10.026,3.917A11.751,11.751,0,0,1,297.28,840.808Z" transform="translate(-275.733 -804.133)"/><path class="h" d="M284.995,831.914a48.684,48.684,0,0,1,1.88-6.584l-2.193,2.2a4.945,4.945,0,0,0,0,7.365l.156.156A21.092,21.092,0,0,1,284.995,831.914Z" transform="translate(-283.038 -825.33)"/></g><path class="i" d="M267.459,844.219l-11.044,11.921L525.03,1282.049l10.714-11.606-3.738-13.094Z" transform="translate(278.265 211.258)"/><path class="i" d="M512.645,1286.59H353.564c-17.716,0-34.614-15.667-37.737-34.989L255.7,879.8c-3.123-19.322,8.708-34.989,26.43-34.989H441.213c17.716,0,34.614,15.667,37.737,34.989l60.119,371.8C542.2,1270.923,530.368,1286.59,512.645,1286.59Z" transform="translate(271.895 214.346)"/><path class="j" d="M514.246,1284.84H355.171c-17.722,0-34.62-15.66-37.743-34.988l-60.119-371.8c-3.123-19.328,8.708-34.989,26.424-34.989H442.814c17.722,0,34.62,15.661,37.743,34.989l60.119,371.8C543.8,1269.18,531.969,1284.84,514.246,1284.84Z" transform="translate(280.327 205.201)"/><path class="k" d="M428.329,845.033H408.92a2.3,2.3,0,0,0-2.18,2.886l.868,5.354c1.549,9.6-4.329,17.378-13.131,17.378H322.82c-8.8,0-17.2-7.777-18.747-17.378l-.868-5.354a3.389,3.389,0,0,0-3.117-2.886H280.679c-14.361,0-23.95,12.693-21.414,28.354l58.289,360.48c2.53,15.661,16.229,28.36,30.591,28.36H495.788c14.361,0,23.95-12.7,21.42-28.36l-58.289-360.48C456.389,857.726,442.69,845.033,428.329,845.033Z" transform="translate(291.083 215.527)"/><path class="k" d="M428.329,845.033H408.92a2.3,2.3,0,0,0-2.18,2.886l.868,5.354c1.549,9.6-4.329,17.378-13.131,17.378H322.82c-8.8,0-17.2-7.777-18.747-17.378l-.868-5.354a3.389,3.389,0,0,0-3.117-2.886H280.679c-14.361,0-23.95,12.693-21.414,28.354l58.289,360.48c2.53,15.661,16.229,28.36,30.591,28.36H495.788c14.361,0,23.95-12.7,21.42-28.36l-58.289-360.48C456.389,857.726,442.69,845.033,428.329,845.033Z" transform="translate(291.083 215.527)"/><path class="l" d="M405.411,937.818H286.665c-5.485,0-10.707-4.848-11.675-10.82l-2.343-14.492c-.968-5.978,2.692-10.82,8.171-10.82H399.571c5.479,0,10.707,4.842,11.669,10.82L413.582,927C414.551,932.97,410.89,937.818,405.411,937.818Z" transform="translate(362.619 512.775)"/><path class="m" d="M373.106,867.747c.706.356,14.711,11.7,16.835,19.852s.106,17.835-5.316,22.683c-11.694,10.457-93.577,7.621-93.577,7.621l6.384-23.569,32.608-7.446Z" transform="translate(459.979 334.703)"/><path class="n" d="M331.586,896.59c3.055.931,3.055.531,5.71-2.393s7.577-1.462,7.577-1.462c12.631,8.777,16.217,2.392,11.831,2.13s-13.025-6.384-13.156-8.377S359.1,871.2,359.1,871.2s-1.924-1.175-4.473-2.718l-33.233,14.767-28.885,6.6v3.417s8.639-1.193,18.209-2.524S328.525,895.66,331.586,896.59Z" transform="translate(467.629 338.581)"/><path class="j" d="M304.615,859.094s12.231,11.875,22.507,19.14,34.208,25.169,39.524,35.444c0,0-27.473,18.609-28.885,21.271s-5.141,8.152-5.141,8.152l-39.7-23.925Z" transform="translate(469.806 289.302)"/><path class="j" d="M313.123,914.864c-4.254-4.9.662-36.944,3.686-46.045a110.34,110.34,0,0,1-9.976-8.92l-2.518-.556-11.394,58.533,39.7,23.925s3.723-5.5,5.141-8.152C337.761,933.648,319.164,921.817,313.123,914.864Z" transform="translate(469.806 290.603)"/><path class="o" d="M311.526,892.589c.775-5.791,3.423-8.871,3.761-11.763l.012-.087a3.839,3.839,0,0,0-3.023-4.21c-6.447-1.35-19.5-4.036-20.7-3.986-1.6.069-2.924.057-3.654.781s-2.642,1.718-3.392,10.17-.287,11.151.162,11.894,2.942,2.1,2.5,4.7-.956,6.859-1.537,7.927-2.98,2.005-2.455,9.3,2.517,22.926,7.146,25.437,7.64,1.137,9.451-.406.256-10.17.95-11.869,20.746-25.181,19.228-29.154C319.972,901.316,310.752,898.374,311.526,892.589Z" transform="translate(418.393 359.861)"/><path class="i" d="M290.343,942.744a10.476,10.476,0,0,0,4.291,1.355c-2.524-2.149-5.828-19.39-6.29-23.676s1.324-7.921,2.361-9.008,1.862-10.869,2.074-12.825-1.837-3.473-2.517-4.766-.319-2.492-.063-9.464a32.886,32.886,0,0,1,3-11.613,12.987,12.987,0,0,0-1.624-.207c-1.6.069-2.924.057-3.654.781s-2.642,1.718-3.392,10.17-.287,11.151.162,11.894,2.942,2.1,2.5,4.7-.956,6.859-1.537,7.927-2.98,2.005-2.455,9.3S285.714,940.233,290.343,942.744Z" transform="translate(418.393 359.861)"/><path class="p" d="M296.253,864.24s29.285,50.774,31.815,52.373,3.661,7.971,3.661,7.971l34.176,23.925s-3.992,34.564-21.27,34.826-27.642-6.647-33.758-22.6-33.5-84.538-33.5-84.538l-1.462-13.555,15.286-.531Z" transform="translate(380.605 305.159)"/><path class="q" d="M295.638,888.648c-.731-.463-3.686-5.017-7.521-11.257l-6.016-9.945s14.6,41.579,15.13,52.036-1.949,15.243,0,14.537,3.542-9.57,6.028-10.108,11.519-.881,13.468-.881c1.143,0-1.012-8.933-2.992-16.3L299.3,896.619S298.162,890.241,295.638,888.648Z" transform="translate(413.036 333.123)"/><path class="j" d="M292.491,856.28s-9.995,27.5-9.926,36.013c.094,10.682,9.664,36.994,8.733,41.911s-1.6,8.508-.531,13.561,6.378,31.1,6.378,31.1l42.76,6.4a2.718,2.718,0,0,0,3.067-2.162c2.53-12.862,13.774-70.183,13.5-72.426-.312-2.524,4.342-26.718,8.2-33.364Z" transform="translate(415.47 274.538)"/><path class="r" d="M322.69,886.938c5.822-.468,9.4,1.475,12.294,1.2l.081-.006a3.836,3.836,0,0,0,3.48-3.848c-.037-6.585-.156-19.915-.462-21.077-.4-1.543-.668-2.842-1.53-3.4s-2.236-2.224-10.657-1.174-10.957,2.068-11.594,2.661-1.431,3.323-4.06,3.436-6.909.506-8.077.162-2.586-2.486-9.6-.444-21.883,7.291-23.363,12.35.5,7.7,2.386,9.145,9.995-1.887,11.8-1.568,28.985,14.98,32.552,12.663C315.937,897.033,316.875,887.4,322.69,886.938Z" transform="translate(342.611 285.065)"/><path class="i" d="M269.188,876.794a10.331,10.331,0,0,0-.418,4.473c1.562-2.917,17.722-9.776,21.814-11.132a12.627,12.627,0,0,1,9.308.413c1.28.775,11.013-.468,12.975-.675s3-2.523,4.123-3.467,2.374-.831,9.239-2.049a32.835,32.835,0,0,1,11.988.487,12.033,12.033,0,0,0-.144-1.637c-.4-1.543-.668-2.842-1.53-3.4s-2.236-2.224-10.657-1.174-10.957,2.068-11.594,2.661-1.431,3.323-4.06,3.436-6.909.506-8.077.162-2.586-2.486-9.6-.444S270.669,871.734,269.188,876.794Z" transform="translate(342.622 285.065)"/><path class="j" d="M339.549,975.643c-7.271,1.993-27.736-6.072-31.64-13.512-4.054-7.746-3.311-46.089-1.793-56.084,1.874-12.312,8.5-44.053,8.5-44.053l-2.3-1.7-12.618-3.679-9.364,4.079c-2.93,8.621-7.815,23.875-7.765,29.835.094,10.682,9.664,36.994,8.733,41.911s-1.6,8.508-.531,13.561,6.378,31.1,6.378,31.1l42.76,6.4a2.718,2.718,0,0,0,3.067-2.162c.387-1.961.974-4.954,1.693-8.62A17.681,17.681,0,0,1,339.549,975.643Z" transform="translate(415.47 276.301)"/><path class="s" d="M275.893,842.923l-3.123,2.855s9.308,18.878,16.617,18.947l3.061-10.107L284.4,842.923Z" transform="translate(364.077 204.455)"/><path class="t" d="M266.563,850.512l-1.012,2.411a26.111,26.111,0,0,0,1.456,3.173,32.5,32.5,0,0,1,1.687,3.629c.263.625,1.506,1.862,2.036,3.28s1.505,3.81,1.774,4.785.531,3.548,2.124,3.723,2.48-1.15,3.548,0,3.8,3.367,5.666,3.541,4.079-.087,4.435-.618a14.275,14.275,0,0,0,.862-2.474l-3.611-13.474-6.915-4.785Z" transform="translate(326.2 244.274)"/><path class="u" d="M315.658,843.079s-27.249,29.86-28.579,30.885-2.524.793-3.23,1.905-6.072,3.917-7.2,4.847-11.163,6.915-11.163,9.108.993,3.123,1.793,3.386.731,2.73,2.062,3.323,4.316.331,4.848,1.068,1.268,3.317,2.73,3.055,2.786,1.73,4.185,1.53,4.654-.138,4.985.862-.6,2.992.131,4.454,2.592,5.516,2.992,4.254a41.125,41.125,0,0,1,2.923-6.447c.662-.868.8-9.839,1.331-12.362s4.916-9.9,7.709-13.093,18.035-17.8,26.693-18.735l2.817-7.321Z" transform="translate(325.844 205.274)"/><rect class="j" width="23.293" height="58.272" rx="1.695" transform="translate(890.429 943.606) rotate(-14.926)"/><path class="v" d="M306.907,870.616s30.484-11.875,31.728-13.649a24.159,24.159,0,0,0,3.011-6.2c.175-1.061,1.643-15.042,3.567-16.566s8.97-2.924,8.97-2.924l1.068,3.517s3.255-5.316,4.848-4.316,2.062,4.516.8,7.178-3.124,7.777-3.255,10.032a22.946,22.946,0,0,1-2.461,7.377c-.662,1.068-1.993,5.385-3.592,6.516a27.474,27.474,0,0,1-6.509,3.055c-.931.137-33.827,25.655-33.827,25.655Z" transform="translate(543.188 138.482)"/><path class="w" d="M292.765,832.581l.706-1.149a17.965,17.965,0,0,1,9.7,1.68c4.523,2.393,1.905,7.977,1.687,7.977s-9.127-2.792-9.127-2.792Z" transform="translate(468.988 143.641)"/><path class="x" d="M321.376,836.583s5.516,5.185,5.653,6.378a12.536,12.536,0,0,1,0,2.393,6.933,6.933,0,0,1,4.054,5.385c.793,4.254,3.454,7.178,5.978,7.509s9.57,2.793,10.7,2.393,9.639-4.454,10.832-4.716,1.331-2.73,2.193-2.992,11.3-1.53,13.162-2.393,4.516,3.055,5.116,4.785A41.931,41.931,0,0,1,380.4,871.8s-4.123,4.192-4.585,4.923-1.993,1.593-2.661,2.254-3.785,2.193-4.516,1.8a11.96,11.96,0,0,0-1.793-.731s-15.686,8.771-17.348,9.04-17.816.462-17.816.462-2.455,14.161-4.979,19.178-5.984,12.056-5.984,12.056,9.17,8.109,10.632,9.97,14.093,13.162,16.217,19.009-.531,39.343-.531,39.343-28.979-.262-38.28-5.579S294.4,846.884,294.4,846.884l2.924-13.024Z" transform="translate(477.545 156.898)"/><path class="y" d="M347.282,865.977s4.747-4.1,6.091-5.972,8.183-14.8,5.291-23.413c-1.268-3.792-6.228-10.358-8.627-11.351s-7.6-3.636-8.927-3.192-8.508.156-9.964,1.181-5.985,6.247-6.06,6.821-12.993,1.618-17.191,2.262-15.592,13.555-15.754,14.574.356,24.725,9.5,29.46,20.321,1.818,21.583,1.668S347.282,865.977,347.282,865.977Z" transform="translate(465.6 94.677)"/><path class="z" d="M301.174,869.848s4.9-5,5.647-14.586c0,0-3.773,1.78-5.722-5.766s-1.974-11.444,1.056-11.707,5.872-.112,7.74,5.96a1.949,1.949,0,0,0,2.511,1.162c1.874-.606,2.161-2.1,1.8-4.46s-1.718-11.232.487-12.425,12.419-3.2,22.714-.319,12.95,10.395,12.95,10.395l-5.46,21.852s-7.284,13.731-8.545,15.392c-2.13,2.817-11.138,2.942-11.138,2.942l-1.805,3.6-.887,7.177,3.5,5.847s4.585,9.733,2.561,10.4-34.895-12.132-35.9-14.1-.875-21.926-.875-21.926Z" transform="translate(463.952 116.843)"/><path class="k" d="M315.286,835.561s11.831,13.73,9.526,31.99c-.75,5.935-6.19,27.111-7.265,48.026-.569,11.157,6.378,34.026,6.378,46.52a1.11,1.11,0,0,1-.494,1.2c-.7.4-5.685,1.693-5.685,1.693l-24.656-46.751,12.762-56.359Z" transform="translate(470.698 165.829)"/><path class="x" d="M381.3,838.262s-22.87,2.417-29.423,6.915c-7.353,5.048-9.658,8.858-9.658,8.858s-13.6,8.927-15.948,10.814c-2.836,2.273-6.915,4.516-10.769,6.909s-20.471,13.824-26.98,22.2c0,0-3.854.562-5.054,1.424s-4.916,5.784-6.547,6.647-4.117,1.7-4.354,2.33.731,2.155,1.462,2.155,1.2-3.454,5.454.537,7.246,6.047,9.9,10.832.931,6.847,1.262,7.578,1.262-.069,2.393-1.068,22.507-15.536,26.23-17.6,30.522-16.6,30.522-16.6,4.566,24.1,4.566,29.773-5.491,23.394-6.378,25.518-20.383,45.552-20.914,46.789,37.575,11.7,55.653,13.119,23.038,2.48,29.6,4.6,11.694,3.017,12.406,2.13,3.367-22.863,0-37.749-9.039-36.345-6.915-49.013,4.41-21,6.028-39.423c1.48-16.866,1.593-27.867,2.168-30s1.331-5.8-2.124-7.665-17.06-10.632-18.3-11.875-4.7-5.228-5.941-5.047-5.585,6.109-5.585,6.109Z" transform="translate(362.82 143.719)"/><path class="aa" d="M347.752,841.417c-.6-1.73-3.255-5.647-5.116-4.785s-12.294,2.124-13.162,2.393-.993,2.723-2.193,2.992-9.7,4.316-10.832,4.716-8.171-2.061-10.7-2.393c-1.805-.238-3.679-1.805-4.891-4.242v.007s3.317,19.315-.493,35.538c0,0,16.154-.2,17.816-.462s17.348-9.04,17.348-9.04a11.964,11.964,0,0,1,1.793.731c.731.393,3.854-1.131,4.516-1.8s2.193-1.524,2.661-2.254,4.585-4.923,4.585-4.923A41.93,41.93,0,0,0,347.752,841.417Z" transform="translate(508.858 170.805)"/><path class="ab" d="M313.1,857.665c-1.368-1.743-9.508-8.97-10.526-9.876-1.237,1.811-6.6,10.1-4,14,2.924,4.385,6.378,10.763,14.224,9.57,4.973-.762,9.939-.606,13.831.824C322.181,866.317,314.248,859.121,313.1,857.665Z" transform="translate(495.787 229.987)"/></g><g transform="translate(-1521.8 -517.436)"><circle class="ac" cx="87.6" cy="87.6" r="87.6" transform="translate(1670.8 636.435)"/><path class="k" d="M1788.981,685.412c-2.915-3.612-6.485-6.473-9.753-9.681l-.63.815c7.573,10.728,10.059,22.941,8.07,36.682-2.521,17.421-13.783,36.651-27.728,38.078-2.278.234-4.758.347-7.319.394l4.458-31.538c-23.528-4.118-26.008,19.215-26.008,19.215L1726.488,772h21.793v0q7.362,0,14.722-.055a27.8,27.8,0,0,0,11.821-2.6C1804.41,754.8,1807.946,708.911,1788.981,685.412Z"/><path class="ad" d="M1771.278,696.782c-2.194-11.4-10.44-20-21.115-20.162-11.46-.176-11.283-.066-22.745-.034-14.772.025-12.95-5.586-12.95-5.586-.772,1.676-.46,5.1.011,7.979a7.557,7.557,0,0,0,.2,1.7c.219.992.472,1.962.741,2.919l.042.167.006,0c3.19,11.183,9.862,16.806,20.868,16.8,8.8-.007,5.967.231,14.765.008,4.793-.122,9.115.846,12.843,4.114,1.487,1.4,7.2,10.3,4.631,18.375C1768.576,723.058,1775.414,710.146,1771.278,696.782Z"/></g></g></svg>