<?xml version="1.0" encoding="utf-8"?>
<!-- Generator: Adobe Illustrator 25.1.0, SVG Export Plug-In . SVG Version: 6.00 Build 0)  -->
<svg version="1.1" id="Calque_1" xmlns="http://www.w3.org/2000/svg" xmlns:xlink="http://www.w3.org/1999/xlink" x="0px" y="0px"
	 viewBox="0 0 580.198 551.749" style="enable-background:new 0 0 580.198 551.749;" xml:space="preserve">
<style type="text/css">
	.st0{fill:#F7E513;}
	.st1{fill:#B6D1E2;}
	.st2{fill:#FACD37;}
	.st3{fill:#FDD737;}
	.st4{fill:#FFFFFF;}
	.st5{fill:#92A3B0;}
	.st6{fill:#F1EFF8;}
	.st7{opacity:0.5;fill:url(#Tracé_8251_1_);enable-background:new    ;}
	.st8{opacity:0.5;fill:url(#Tracé_8253_1_);enable-background:new    ;}
	.st9{opacity:0.5;fill:url(#Tracé_8254_1_);enable-background:new    ;}
	.st10{fill:#F4BC84;}
	.st11{fill:#1B2C7B;}
	.st12{fill:#000074;}
	.st13{fill:#091038;}
	.st14{fill:#00FF76;}
	.st15{fill:#E90566;}
	.st16{opacity:0.7;fill:url(#Tracé_8282_1_);enable-background:new    ;}
	.st17{opacity:0.7;fill:url(#Tracé_8283_1_);enable-background:new    ;}
	.st18{opacity:0.7;fill:url(#Tracé_8284_1_);enable-background:new    ;}
	.st19{opacity:0.7;fill:url(#Tracé_8285_1_);enable-background:new    ;}
	.st20{fill:none;stroke:#FF0000;stroke-width:8;stroke-linecap:round;}
</style>
<g id="Groupe_3233" transform="translate(-142.042 -783)">
	<g id="Groupe_3137" transform="translate(438.829 783.433)">
		<ellipse id="Ellipse_108" class="st0" cx="40.26" cy="64.428" rx="60.256" ry="60.877"/>
		<ellipse id="Ellipse_109" class="st1" cx="40.571" cy="64.428" rx="37.582" ry="37.272"/>
		<path id="Tracé_8297" class="st2" d="M-26.046,4.754L-40.48,64.657l14.434,59.903c33.083,0,59.903-26.819,59.903-59.903
			S7.037,4.754-26.046,4.754z"/>
		<path id="Tracé_8298" class="st3" d="M-85.949,64.657c0,33.083,26.819,59.903,59.903,59.903l0,0V4.754
			C-59.129,4.754-85.949,31.574-85.949,64.657L-85.949,64.657z"/>
		<path id="Tracé_8299" class="st1" d="M-26.046,26.405L-40.48,64.656l14.434,38.251c21.125,0,38.251-17.126,38.251-38.251
			S-4.921,26.405-26.046,26.405L-26.046,26.405z"/>
		<path id="Tracé_8300" class="st4" d="M-64.297,64.656c0,21.125,17.126,38.25,38.251,38.251V26.405
			C-47.171,26.406-64.296,43.531-64.297,64.656z"/>
		<path id="Tracé_8301" class="st5" d="M-20.633,50.764h-5.413l-3.609,13.893l3.609,13.893h5.413V50.764z"/>
		<rect id="Rectangle_1791" x="-31.459" y="50.764" class="st1" width="5.413" height="27.786"/>
	</g>
	<g id="Groupe_3097" transform="translate(-1091.717 664.16)">
		<g id="Partnership_Strategic" transform="translate(1233.76 242)">
			<g id="Groupe_3074">
				<g id="Groupe_3072" transform="translate(40.836 576.047)">
					<path id="Tracé_8250" class="st6" d="M440.175-185.316c-51.944-15.304-101.215-12.329-145.53-4.138
						c-42.633,7.889-80.654,20.649-111.993,26.597c-55.091,10.475-101.388,22.761-162.558-18.063
						c-18.32-12.243-8.966-32.761,28.279-49.875c39.185-18.105,109.234-32.503,210.45-29.744
						C569.109-252.133,538.375-156.307,440.175-185.316z"/>
					
						<linearGradient id="Tracé_8251_1_" gradientUnits="userSpaceOnUse" x1="298.188" y1="-2.1811" x2="298.2924" y2="-1.5451" gradientTransform="matrix(456.6018 0 0 144.8403 -136033.7188 60.4926)">
						<stop  offset="0" style="stop-color:#FFFFFF"/>
						<stop  offset="0.085" style="stop-color:#F5F5F5"/>
						<stop  offset="0.229" style="stop-color:#DADADA"/>
						<stop  offset="0.413" style="stop-color:#AFAFAF"/>
						<stop  offset="0.631" style="stop-color:#747474"/>
						<stop  offset="0.876" style="stop-color:#292929"/>
						<stop  offset="1" style="stop-color:#000000"/>
					</linearGradient>
					<path id="Tracé_8251" class="st7" d="M294.646-189.456c-42.633,7.889-80.654,20.649-111.993,26.597
						c-55.091,10.475-101.388,22.761-162.557-18.063c-18.32-12.243-8.966-32.761,28.279-49.875
						c25.693-7.414,57.248-11.769,91.345-11.769C218.173-242.564,283.135-219.501,294.646-189.456z"/>
				</g>
				<g id="Groupe_3073">
					<path id="Tracé_8252" class="st6" d="M364.664,257.701c-5.12-3.373-10.775-5.851-16.724-7.33
						c-5.845-1.511-11.854-2.293-17.89-2.328c-19.527-0.388-41.771,5.218-65.264,12.028c-6.767,1.939-13.578,3.966-20.519,6.035
						c-33.364,9.914-68.41,19.656-101.259,16.897c-19.744-1.637-38.711-7.759-56.082-21.165
						c-19.485-14.916-36.899-38.926-51.124-75.786c-0.345-0.904-0.69-1.81-0.949-2.715C19.248,140.575,26.878,100.27,45.972,68.37
						C82.914,6.596,162.749-23.838,201.158,19.917c45.65,51.946,95.396,47.203,121.433,23.668
						c7.318-6.477,12.817-14.755,15.95-24.012c13.19-40.175,77.852-83.325,131.392-50.824c1.896,1.165,3.62,2.329,5.173,3.492
						c36.641,27.503-11.338,63.411,0.904,119.839c12.716,58.842,56.946,22.115,69.015,76.041
						C560.156,235.975,433.465,303.308,364.664,257.701z"/>
					
						<linearGradient id="Tracé_8253_1_" gradientUnits="userSpaceOnUse" x1="379.1534" y1="0.1394" x2="379.7746" y2="0.1394" gradientTransform="matrix(386.5836 0 0 483.5269 -146268.3438 55.0335)">
						<stop  offset="0" style="stop-color:#FFFFFF"/>
						<stop  offset="0.085" style="stop-color:#F5F5F5"/>
						<stop  offset="0.229" style="stop-color:#DADADA"/>
						<stop  offset="0.413" style="stop-color:#AFAFAF"/>
						<stop  offset="0.631" style="stop-color:#747474"/>
						<stop  offset="0.876" style="stop-color:#292929"/>
						<stop  offset="1" style="stop-color:#000000"/>
					</linearGradient>
					<path id="Tracé_8253" class="st8" d="M364.664,257.698c-5.12-3.372-10.775-5.851-16.724-7.33
						c-5.845-1.511-11.854-2.293-17.89-2.328c-14.225-25.151-22.345-53.291-23.709-82.154c-0.129-2.975-0.216-5.992-0.216-9.007
						c0-96.861,74.275-176.351,168.982-184.629c36.64,27.503-11.338,63.411,0.905,119.839
						c12.716,58.842,56.946,22.115,69.015,76.041C560.156,235.975,433.465,303.308,364.664,257.698z"/>
					
						<linearGradient id="Tracé_8254_1_" gradientUnits="userSpaceOnUse" x1="379.621" y1="-0.1807" x2="380.2422" y2="-0.1807" gradientTransform="matrix(445.3009 0 0 202.0365 -168999.6094 98.5666)">
						<stop  offset="0" style="stop-color:#FFFFFF"/>
						<stop  offset="0.085" style="stop-color:#F5F5F5"/>
						<stop  offset="0.229" style="stop-color:#DADADA"/>
						<stop  offset="0.413" style="stop-color:#AFAFAF"/>
						<stop  offset="0.631" style="stop-color:#747474"/>
						<stop  offset="0.876" style="stop-color:#292929"/>
						<stop  offset="1" style="stop-color:#000000"/>
					</linearGradient>
					<path id="Tracé_8254" class="st9" d="M322.592,43.587c-31.122,48.84-85.739,81.214-147.901,81.214
						c-48.92,0.07-95.621-20.403-128.718-56.428C82.915,6.6,162.75-23.834,201.159,19.921
						C246.81,71.867,296.556,67.124,322.592,43.587z"/>
				</g>
			</g>
			<g id="Groupe_3086" transform="translate(334.607 263.131)">
				<g id="Groupe_3085" transform="translate(0)">
					<g id="Groupe_3079" transform="translate(47.898 172.269)">
						<g id="Groupe_3078" transform="translate(38.427 224.434)">
							<path id="Tracé_8261" class="st10" d="M-124.655-289.868l1.573,6.23l-5.901,7.661l17.618-7.744l-3.154-3.393l-1.656-5.503
								L-124.655-289.868z"/>
							<path id="Tracé_8262" class="st11" d="M-113.42-286.296c-2.958,2.95-6.498,5.197-11.86,5.242l-7.472,9.045
								c-2.814,5.805,21.933-4.791,23.202-9.007C-109.401-283.215-110.908-286.133-113.42-286.296z"/>
						</g>
						<path id="Tracé_8263" class="st12" d="M-86.466-207.602c5.681,22.013,1.884,38.843-0.337,65.186l10.793,74.459l-10.701,3.469
							l-25.08-80.995c-2.05-13.012-11.359-43.289-3.57-51.726L-86.466-207.602z"/>
					</g>
					<g id="Groupe_3081" transform="translate(0 165.409)">
						<g id="Groupe_3080" transform="translate(0 220.784)">
							<path id="Tracé_8264" class="st10" d="M-87.497-288.112l-0.047,6.426l-7.641,5.928l19.001-3.058l-2.198-4.078l-0.217-5.743
								L-87.497-288.112z"/>
							<path id="Tracé_8265" class="st11" d="M-77.522-281.823c-3.603,2.112-7.598,3.392-12.797,2.084l-9.513,6.872
								c-4.184,4.907,22.433,0.886,24.724-2.874C-74.407-277.831-75.132-281.033-77.522-281.823z"/>
						</g>
						<path id="Tracé_8266" class="st12" d="M-51.888-205.003c-0.083,22.786-7.958,38.118-16.754,62.998l-8.294,74.811
							l-1.677,0.083l-8.883,0.586h-0.669l-3.939-84.694c0.755-7.373,0.67-20.61,2.095-31.918v-0.084
							c0.168-1.005,0.336-2.01,0.503-3.015c1.172-7.373,3.267-13.572,7.037-15.918L-51.888-205.003z"/>
					</g>
					<g id="Groupe_3082" transform="translate(14.365)">
						<path id="Tracé_8268" class="st10" d="M-82.547-108.972c1.502-1.61,1.557-7.108,1.807-12.081l9.292-1.204
							c0.037,4.647,0.357,8.928,1.562,12.057C-73.868-105.113-81.109-104.833-82.547-108.972z"/>
						<path id="Tracé_8269" class="st10" d="M-82.395-109.934c4.233-0.774,8.44-8.19,11.885-13.805l-16.282-17.762l-14.505,13.637
							C-99.073-119.909-86.762-110.184-82.395-109.934z"/>
						<path id="Tracé_8270" class="st13" d="M-72.706-120.758l-5.544-0.898l-2.907-5.952l-3.04-0.08l1.717,4.907l-1.296,0.916
							l-4.356-5.676l-9.128,10.839l-8.456-7.015l5.212-12.326l11.975-6.303c0,0,13.064,2.741,13.286,2.891
							c0.222,0.15,4.734,15.716,4.734,15.716L-72.706-120.758z"/>
					</g>
					<path id="Tracé_8271" class="st4" d="M-54.737-18.89l12.018,10.406l-1.498,1.204L-55.86-17.77L-54.737-18.89z"/>
					<path id="Tracé_8272" class="st4" d="M-85.398-23.09l-4.608,5.277c0.169-1.005,0.337-2.01,0.503-3.015l3.017-3.351
						L-85.398-23.09z"/>
					<path id="Tracé_8275" class="st13" d="M-69.41-121.866l1.832,7.482l-4.76,2.762l2.516,3.032l3.176-0.284l1.975-3.793
						l-3.443-10.114L-69.41-121.866z"/>
					<path id="Union_4" class="st14" d="M-52.308-15.718l3.999-10.729c-14.685-0.228-28.343-1.564-38.697-6.469l1.256,11.306
						c-0.315-1.727-1.47-0.215-2.525,1.297c-0.966,1.386-1.847,2.772-1.916,1.664l-8.881-39.962l13.304-41.464
						c0.308-1.277,0.686-2.537,1.132-3.773c0.055-0.102,0.112-0.201,0.174-0.301l0.299-0.939c0.653-0.673,1.42-1.226,2.265-1.633
						c9.112-6.291,34.055-6.175,46.014-1.016c2.08-1.135,4.128-0.857,5.517,1.864c6.916,17.443,12.877,37.338,12.578,44.419
						c0.119,1.049-0.026,2.111-0.422,3.089L-35.43-29.964l-0.262,3.499c-0.63,0.009-1.259,0.016-1.887,0.023l-9.367,15.33
						L-52.308-15.718z M-87.206-34.734c0.035-0.068,0.071-0.139,0.105-0.208c-0.041,0.009-0.082,0.013-0.124,0.013L-87.206-34.734z"
						/>
				</g>
			</g>
		</g>
		<g id="Groupe_3096" transform="translate(1281.579 547.225)">
			<g id="Groupe_3089" transform="translate(0 106.955)">
				<g id="Groupe_3088">
					<g id="Groupe_3087">
						<path id="Tracé_8276" class="st11" d="M61.122-169.044c2.027-0.393,3.356-2.349,2.976-4.378l-0.899-4.884
							c-0.346-1.997-2.247-3.336-4.244-2.989c-0.026,0.005-0.052,0.009-0.078,0.014l-4.153,0.73c-0.553-1.12-1.231-2.174-2.02-3.143
							l2.302-3.369l0.111-0.111c1.178-1.692,0.778-4.016-0.897-5.218l-4.1-2.807c-1.712-1.14-4.02-0.718-5.218,0.954l-2.413,3.423
							c-1.19-0.361-2.411-0.605-3.648-0.73l-0.73-4.21c-0.4-2.022-2.351-3.347-4.378-2.975l-4.829,0.898
							c-2.002,0.315-3.369,2.194-3.054,4.196c0.007,0.042,0.014,0.084,0.022,0.127l0.73,4.153c-1.112,0.568-2.165,1.245-3.143,2.022
							l-3.479-2.414c-1.685-1.163-3.995-0.74-5.158,0.945c-0.002,0.003-0.004,0.006-0.007,0.01l-2.808,4.041
							c-1.182,1.678-0.781,3.996,0.897,5.178c0.019,0.014,0.038,0.027,0.058,0.04l3.423,2.414c-0.347,1.196-0.61,2.416-0.786,3.649
							l-4.153,0.73c-2.033,0.392-3.379,2.337-3.031,4.378l0.898,4.883c0.373,2.014,2.307,3.346,4.322,2.976l4.155-0.73
							c0.608,1.089,1.283,2.139,2.021,3.144l-2.361,3.423c0,0.057,0,0.057-0.056,0.112c-1.143,1.675-0.716,3.959,0.955,5.108
							l4.1,2.862c1.685,1.163,3.994,0.74,5.157-0.945c0.002-0.003,0.005-0.007,0.007-0.01l2.414-3.479
							c1.188,0.393,2.409,0.675,3.649,0.842l0.73,4.1c0.37,2.045,2.329,3.403,4.374,3.032c0.002,0,0.003-0.001,0.005-0.001
							l4.883-0.842c2.027-0.393,3.356-2.349,2.976-4.378l-0.729-4.153c1.12-0.554,2.174-1.232,3.143-2.021l3.479,2.413
							c1.708,1.159,4.03,0.735,5.218-0.953l2.807-4.1c1.158-1.709,0.733-4.03-0.955-5.218l-3.479-2.356
							c0.392-1.188,0.674-2.409,0.842-3.649L61.122-169.044z M39.061-155.517c-6.05,1.135-12.198-1.421-15.66-6.511
							c-1.271-1.814-2.133-3.883-2.527-6.063c-1.565-8.505,4.062-16.667,12.566-18.232c8.505-1.564,16.667,4.062,18.232,12.566
							c1.564,8.505-4.062,16.667-12.566,18.232C39.091-155.523,39.076-155.52,39.061-155.517L39.061-155.517z"/>
						<path id="Tracé_8277" class="st15" d="M51.692-173.647c-0.942-5.181-4.42-9.544-9.261-11.616
							c-7.934-3.404-17.126,0.268-20.53,8.202c-3.404,7.934,0.268,17.126,8.202,20.53c2.821,1.211,5.937,1.564,8.957,1.015
							C47.547-157.047,53.196-165.155,51.692-173.647z M38.051-161.13c-4.809,0.917-9.564-1.83-11.171-6.455
							c-0.157-0.498-0.289-1.004-0.393-1.516c-1.004-5.406,2.565-10.602,7.971-11.606c0.019-0.003,0.037-0.007,0.056-0.01
							c0.649-0.11,1.306-0.166,1.964-0.169c4.741,0.153,8.735,3.587,9.599,8.251C47.032-167.243,43.441-162.096,38.051-161.13
							L38.051-161.13z"/>
					</g>
				</g>
			</g>
			<g id="Groupe_3092" transform="translate(121.295 151.896)">
				<g id="Groupe_3091">
					<g id="Groupe_3090">
						<path id="Tracé_8278" class="st11" d="M25.751-180.057c2.424-0.462,4.026-2.788,3.592-5.218l-1.067-5.894
							c-0.417-2.406-2.706-4.019-5.113-3.602c-0.017,0.003-0.035,0.006-0.052,0.009l-4.322,0.786l-0.673,0.112
							c-0.691-1.336-1.519-2.596-2.471-3.761l2.92-4.21c1.402-2.033,0.901-4.816-1.122-6.232l-4.883-3.367
							c-2.051-1.406-4.851-0.906-6.288,1.124l-2.862,4.1c-1.45-0.423-2.934-0.724-4.435-0.898l-0.897-4.996
							c-0.412-2.43-2.716-4.065-5.146-3.652c-0.007,0.001-0.013,0.002-0.02,0.003l-5.839,1.066c-2.448,0.434-4.082,2.77-3.65,5.218
							l0.898,4.997c-1.336,0.698-2.613,1.505-3.816,2.413l-4.155-2.862c-2.032-1.402-4.815-0.9-6.23,1.124l-3.369,4.883
							c-0.635,0.897-0.915,1.997-0.786,3.088c0.121,1.285,0.825,2.443,1.909,3.143l0.505,0.337l3.648,2.582
							c-0.112,0.394-0.223,0.786-0.336,1.18c-0.298,1.046-0.504,2.117-0.617,3.199l-4.997,0.898
							c-2.433,0.448-4.041,2.784-3.593,5.217v0.001l1.067,5.839c0.411,2.428,2.713,4.064,5.141,3.653
							c0.008-0.001,0.015-0.003,0.023-0.004l4.996-0.898c0.705,1.315,1.512,2.572,2.413,3.761l-2.862,4.153
							c-1.411,2.027-0.912,4.815,1.116,6.226c0.003,0.002,0.005,0.003,0.007,0.005l4.883,3.423c2.033,1.402,4.817,0.901,6.233-1.123
							l2.92-4.155c1.424,0.463,2.891,0.783,4.378,0.955l0.897,4.996c0.459,2.445,2.814,4.055,5.259,3.596
							c0.006-0.001,0.011-0.002,0.017-0.003l5.781-1.009c2.462-0.445,4.096-2.802,3.651-5.264c-0.001-0.004-0.002-0.009-0.002-0.013
							l-0.897-4.939c1.327-0.704,2.586-1.531,3.759-2.47l4.155,2.92c2.053,1.396,4.845,0.897,6.286-1.124l3.423-4.939
							c1.402-2.032,0.901-4.815-1.122-6.23l-4.209-2.862c0.451-1.427,0.77-2.893,0.953-4.378L25.751-180.057z M-0.744-163.778
							c-10.213,1.846-19.989-4.938-21.835-15.151c0-0.002-0.001-0.004-0.001-0.006c-0.336-1.795-0.393-3.632-0.168-5.444
							c1.152-10.304,10.44-17.723,20.744-16.571c7.497,0.838,13.764,6.083,15.911,13.314c0.22,0.66,0.389,1.336,0.505,2.022
							c1.846,10.213-4.936,19.988-15.149,21.834C-0.739-163.779-0.742-163.778-0.744-163.778z"/>
						<path id="Tracé_8279" class="st15" d="M14.409-185.616c-0.116-0.686-0.285-1.362-0.505-2.022
							c-2.95-9.94-13.399-15.607-23.339-12.657c-7.233,2.147-12.478,8.415-13.316,15.913c-0.224,1.813-0.168,3.649,0.168,5.444
							c1.844,10.215,11.62,17.001,21.835,15.157C9.468-165.625,16.254-175.401,14.409-185.616L14.409-185.616z M-1.981-170.516
							c-6.473,1.158-12.667-3.13-13.862-9.596c-0.064-0.446-0.101-0.896-0.111-1.347c-0.498-6.564,4.419-12.288,10.983-12.786
							c6.13-0.465,11.607,3.808,12.648,9.867c0.075,0.351,0.093,0.711,0.056,1.067c0.605,6.149-3.628,11.726-9.712,12.798
							L-1.981-170.516z"/>
					</g>
				</g>
			</g>
			<g id="Groupe_3095" transform="translate(67.291)">
				<g id="Groupe_3094">
					<g id="Groupe_3093">
						<path id="Tracé_8280" class="st11" d="M61.928-113.7c3.046-0.554,5.076-3.461,4.547-6.511l-1.347-7.297
							c-0.545-3.029-3.442-5.043-6.471-4.498c-0.014,0.003-0.028,0.005-0.042,0.008l-6.232,1.122
							c-0.356-0.741-0.769-1.455-1.234-2.133c-0.553-0.892-1.153-1.753-1.797-2.582L53-140.81c1.742-2.566,1.119-6.054-1.403-7.858
							l-6.118-4.153c-2.546-1.752-6.027-1.125-7.803,1.403l-3.649,5.165c-1.772-0.571-3.595-0.967-5.444-1.18l-1.18-6.23
							c-0.533-3.034-3.418-5.066-6.455-4.547l-7.297,1.347c-3.046,0.531-5.084,3.431-4.553,6.477
							c0.002,0.012,0.004,0.023,0.006,0.035l1.123,6.231c-1.651,0.859-3.228,1.854-4.714,2.975l-5.218-3.538
							c-2.528-1.746-5.992-1.118-7.747,1.405l-4.21,6.062c-1.776,2.495-1.193,5.956,1.302,7.732c0.034,0.024,0.067,0.047,0.101,0.07
							l5.165,3.65c-0.566,1.773-0.961,3.596-1.18,5.444l-6.231,1.122c-3.032,0.576-5.051,3.466-4.547,6.511l1.348,7.355
							c0.568,3.031,3.476,5.036,6.511,4.489l6.23-1.122c0.871,1.644,1.866,3.22,2.975,4.714l-3.536,5.165
							c-1.777,2.488-1.201,5.946,1.287,7.723c0.038,0.027,0.077,0.054,0.116,0.081l6.063,4.266c2.547,1.744,6.022,1.119,7.802-1.403
							l3.592-5.218c1.791,0.582,3.632,0.996,5.5,1.234l1.124,6.175c0.494,3.02,3.343,5.067,6.363,4.572
							c0.05-0.008,0.099-0.017,0.148-0.026l4.042-0.73l3.255-0.559c3.053-0.575,5.063-3.514,4.491-6.567l-1.123-6.174
							c1.668-0.852,3.248-1.868,4.715-3.031l5.218,3.592c2.548,1.74,6.02,1.115,7.802-1.403l4.266-6.119
							c1.742-2.566,1.119-6.054-1.403-7.858l-5.218-3.536c0.565-1.793,0.96-3.635,1.18-5.502L61.928-113.7z M28.865-93.325
							c-1.538,0.27-3.097,0.401-4.659,0.392C11.24-93.218,0.962-103.96,1.247-116.925s11.027-23.244,23.993-22.958
							c7.311,0.161,14.13,3.719,18.443,9.624c2.134,2.841,3.558,6.151,4.153,9.654C50.11-107.838,41.625-95.637,28.865-93.325
							L28.865-93.325z"/>
						<path id="Tracé_8281" class="st15" d="M47.838-120.605c-0.596-3.503-2.02-6.813-4.153-9.654
							c-7.644-10.483-22.339-12.785-32.822-5.141s-12.785,22.339-5.141,32.822c4.319,5.924,11.156,9.491,18.486,9.646
							c1.562,0.009,3.121-0.122,4.659-0.392C41.626-95.637,50.111-107.837,47.838-120.605z M27.349-101.744
							c-1.183,0.223-2.392,0.28-3.591,0.169c-8.224-0.514-14.475-7.597-13.961-15.822c0.514-8.224,7.597-14.475,15.822-13.961
							c4.257,0.266,8.197,2.341,10.824,5.702c1.545,1.915,2.57,4.197,2.976,6.624C40.845-110.929,35.448-103.199,27.349-101.744
							L27.349-101.744z"/>
					</g>
				</g>
			</g>
			
				<linearGradient id="Tracé_8282_1_" gradientUnits="userSpaceOnUse" x1="282.0111" y1="-2.9715" x2="282.6323" y2="-2.9715" gradientTransform="matrix(76.3119 0 0 72.0693 -21504.0508 155.7286)">
				<stop  offset="0" style="stop-color:#FFFFFF"/>
				<stop  offset="0.256" style="stop-color:#C1C1C1"/>
				<stop  offset="0.845" style="stop-color:#292929"/>
				<stop  offset="1" style="stop-color:#000000"/>
			</linearGradient>
			<path id="Tracé_8282" class="st16" d="M56.969-61.359c-0.168,1.24-0.45,2.461-0.842,3.649l3.479,2.356
				c1.688,1.188,2.113,3.509,0.955,5.218l-2.807,4.1c-1.188,1.688-3.51,2.112-5.218,0.953l-3.479-2.413
				c-0.969,0.789-2.024,1.467-3.144,2.02l0.729,4.153c0.38,2.029-0.949,3.985-2.976,4.378l-4.883,0.842
				c-2.045,0.373-4.004-0.982-4.377-3.027c0-0.002-0.001-0.003-0.001-0.005l-0.73-4.1c-1.24-0.168-2.461-0.45-3.649-0.842
				l-2.414,3.479c-1.158,1.689-3.466,2.119-5.155,0.961c-0.003-0.002-0.006-0.004-0.009-0.006l-4.1-2.862
				c-1.671-1.149-2.097-3.433-0.955-5.108c0.056-0.057,0.056-0.057,0.056-0.112c2.266-2.208,4.264-4.677,5.95-7.354
				c1.234-1.797,2.361-3.705,3.479-5.557c1.857,5.179,7.561,7.872,12.74,6.014c4.553-1.633,7.275-6.301,6.455-11.068
				c-0.864-4.664-4.858-8.097-9.599-8.251c1.788-1.708,3.788-3.18,5.95-4.378c4.038-2.302,8.419-3.256,12.574-1.797l-2.302,3.369
				c0.79,0.968,1.467,2.022,2.021,3.143l4.153-0.73c1.989-0.39,3.918,0.907,4.308,2.897c0.005,0.026,0.01,0.052,0.014,0.078
				l0.899,4.884c0.381,2.029-0.949,3.985-2.976,4.378L56.969-61.359z"/>
			
				<linearGradient id="Tracé_8283_1_" gradientUnits="userSpaceOnUse" x1="228.6785" y1="-45.9413" x2="229.2997" y2="-45.9413" gradientTransform="matrix(3.886 0 0 5.6 -811.0176 215.0526)">
				<stop  offset="0" style="stop-color:#FFFFFF"/>
				<stop  offset="0.256" style="stop-color:#C1C1C1"/>
				<stop  offset="0.845" style="stop-color:#292929"/>
				<stop  offset="1" style="stop-color:#000000"/>
			</linearGradient>
			<path id="Tracé_8283" class="st17" d="M79.536-40.814c-1.084-0.7-1.788-1.859-1.909-3.144c0.73,1.18,1.572,2.361,2.414,3.479
				L79.536-40.814z"/>
			
				<linearGradient id="Tracé_8284_1_" gradientUnits="userSpaceOnUse" x1="282.3196" y1="-3.19" x2="282.9408" y2="-3.19" gradientTransform="matrix(107.8577 0 0 74.1671 -30366.6309 216.6879)">
				<stop  offset="0" style="stop-color:#FFFFFF"/>
				<stop  offset="0.256" style="stop-color:#C1C1C1"/>
				<stop  offset="0.845" style="stop-color:#292929"/>
				<stop  offset="1" style="stop-color:#000000"/>
			</linearGradient>
			<path id="Tracé_8284" class="st18" d="M142.049-27.262c-0.183,1.486-0.502,2.951-0.953,4.378l4.209,2.862
				c2.023,1.415,2.524,4.198,1.122,6.23l-3.423,4.939c-1.442,2.021-4.234,2.52-6.286,1.124l-4.155-2.92
				c-1.173,0.939-2.432,1.766-3.759,2.47l0.897,4.939c0.453,2.46-1.175,4.822-3.635,5.275c-0.004,0.001-0.009,0.002-0.013,0.002
				l-5.781,1.009c-2.443,0.469-4.804-1.132-5.273-3.575c-0.001-0.006-0.002-0.011-0.003-0.017l-0.897-4.996
				c-1.488-0.172-2.954-0.491-4.378-0.955l-2.92,4.155c-1.416,2.023-4.199,2.523-6.232,1.122l-4.883-3.423
				c-2.03-1.407-2.535-4.194-1.128-6.224c0.002-0.002,0.003-0.005,0.005-0.007l2.862-4.153c-0.901-1.189-1.707-2.447-2.413-3.761
				l-4.996,0.898c-2.426,0.424-4.736-1.2-5.16-3.626c-0.001-0.008-0.003-0.015-0.004-0.023l-1.067-5.839
				c-0.449-2.432,1.158-4.769,3.591-5.218h0.001l4.997-0.898c0.113-1.082,0.32-2.152,0.617-3.199
				c1.676,1.622,3.542,3.035,5.557,4.21c2.136,1.247,4.417,2.228,6.792,2.92c0.01,0.451,0.047,0.9,0.111,1.347
				c1.194,6.47,7.391,10.759,13.866,9.599c6.083-1.073,10.314-6.649,9.71-12.797c1.354-0.678,2.65-1.468,3.874-2.361
				c0.819-0.591,1.589-1.249,2.302-1.965c2.013-1.787,3.67-3.939,4.883-6.342l4.322-0.786c2.401-0.446,4.709,1.139,5.155,3.541
				c0.003,0.017,0.006,0.034,0.009,0.052l1.067,5.894c0.433,2.43-1.168,4.756-3.592,5.218L142.049-27.262z"/>
			
				<linearGradient id="Tracé_8285_1_" gradientUnits="userSpaceOnUse" x1="281.1104" y1="-1.8975" x2="281.7316" y2="-1.8975" gradientTransform="matrix(69.0817 0 0 92.709 -19328.6504 71.6983)">
				<stop  offset="0" style="stop-color:#FFFFFF"/>
				<stop  offset="0.256" style="stop-color:#C1C1C1"/>
				<stop  offset="0.845" style="stop-color:#292929"/>
				<stop  offset="1" style="stop-color:#000000"/>
			</linearGradient>
			<path id="Tracé_8285" class="st19" d="M122.989-112.578c-0.22,1.867-0.616,3.709-1.18,5.502l5.218,3.536
				c2.523,1.805,3.145,5.292,1.403,7.858l-4.266,6.119c-1.782,2.519-5.254,3.143-7.802,1.403l-5.218-3.592
				c-1.468,1.164-3.047,2.179-4.715,3.031l1.123,6.174c0.572,3.053-1.438,5.993-4.491,6.567l-3.255,0.559
				c-4.371-4.934-7.252-11.007-8.308-17.513c-0.542-2.848-0.693-5.756-0.449-8.645c1.199,0.111,2.408,0.054,3.591-0.169
				c8.097-1.455,13.493-9.184,12.068-17.286c-0.405-2.427-1.43-4.709-2.976-6.624c1.65-1.393,3.437-2.616,5.333-3.649
				c0.617-0.336,1.291-0.673,1.908-0.953c2.394-1.156,4.894-2.078,7.466-2.752c0.465,0.679,0.878,1.392,1.234,2.133l6.232-1.122
				c3.025-0.567,5.937,1.426,6.504,4.451c0.003,0.013,0.005,0.027,0.007,0.04l1.347,7.297c0.528,3.051-1.501,5.957-4.547,6.511
				L122.989-112.578z"/>
		</g>
	</g>
	<line id="Ligne_121" class="st20" x1="334.661" y1="800.339" x2="565.746" y2="897.867"/>
</g>
</svg>
