<svg xmlns="http://www.w3.org/2000/svg" xmlns:xlink="http://www.w3.org/1999/xlink" width="580.198" height="551.749" viewBox="0 0 580.198 551.749"><defs><style>.a{fill:#f1eff8;}.b{opacity:0.5;fill:url(#a);}.b,.e,.f{mix-blend-mode:overlay;isolation:isolate;}.c{fill:#1b2c7b;}.d{fill:#e90566;}.e,.f{opacity:0.7;}.e{fill:url(#e);}.f{fill:url(#f);}.g{fill:#fbd783;}.h{fill:#2a195b;}.i{fill:#fff;}.j{fill:#c7c7c9;opacity:0.29;}.k{fill:#f93d3d;}.l{fill:#18255b;}.m{fill:#2f3f9b;}.n{fill:#1862bf;}.o{fill:#ff6c6c;}.p{fill:#e6e6ff;}.q{fill:#c3c3e5;}</style><linearGradient id="a" y1="0.5" x2="1" y2="0.5" gradientUnits="objectBoundingBox"><stop offset="0" stop-color="#fff"/><stop offset="0.085" stop-color="#f5f5f5"/><stop offset="0.229" stop-color="#dadada"/><stop offset="0.413" stop-color="#afafaf"/><stop offset="0.631" stop-color="#747474"/><stop offset="0.876" stop-color="#292929"/><stop offset="1"/></linearGradient><linearGradient id="e" y1="0.5" x2="1" y2="0.5" gradientUnits="objectBoundingBox"><stop offset="0" stop-color="#fff"/><stop offset="0.256" stop-color="#c1c1c1"/><stop offset="0.845" stop-color="#292929"/><stop offset="1"/></linearGradient><linearGradient id="f" x1="0" y1="0.5" x2="1" y2="0.5" xlink:href="#e"/></defs><g transform="translate(-744.039 -748.83)"><g transform="translate(756.252 1165.146)"><path class="a" d="M1185.165,995.484c-68.787-5.849-108.859-7.019-167.066,11.994-14.578,4.776-30.226,10.821-47.777,18.329-87.749,37.585-221.764-18.818-221.764-48.166s64.107-81.265,289.576-74.1c53.723,1.705,97.111,4.824,131.772,8.87C1389.427,938.007,1259.412,1001.822,1185.165,995.484Z" transform="translate(-748.558 -902.872)"/><path class="b" d="M1021.837,989.473c-68.787-5.849-108.859-7.019-167.066,11.994-6.681-7.508-10.286-15.6-10.286-24.035,0-37.488,71.417-68.249,162.093-71.03C1226.1,932,1096.083,995.811,1021.837,989.473Z" transform="translate(-585.23 -896.861)"/></g><g transform="translate(744.039 748.83)"><path class="a" d="M1307.434,1027.192c-13.31,20.621-34.759,37.88-57.915,44.7a74.292,74.292,0,0,1-24.572,3.024,61.957,61.957,0,0,1-32.126-11.116c-35.929-24.91-55.234-5.022-82.387,20.134-10.53,9.749-22.278,20.229-36.61,29.2a142.965,142.965,0,0,1-64.058,21.646c-.538.049-1.024.1-1.562.146-106.078,9.216-154.245-86.092-179.79-121.678a142.7,142.7,0,0,0-18.426-20.426c-26.129-24.67-58.744-44.461-63.326-78.49-3.608-26.959,2.973-64.35,26.91-97.157a155.161,155.161,0,0,1,41.048-38.658c64.35-41.975,164.09-41.877,180.617,15.989,10.532,36.759,46.558,69.517,88.092,64.593,14.919-1.754,30.567-8.384,46.021-21.448,56.161-47.531,153.9-30.761,136.693,9.068a34.375,34.375,0,0,1-2.535,4.727c-27.4,43.145-9.505,41.683,43.1,96.624C1328.055,970.448,1324.107,1001.452,1307.434,1027.192Z" transform="translate(-741.141 -748.831)"/><path class="b" d="M1110.088,964.488c-13.31,20.621-34.759,37.88-57.915,44.7a74.285,74.285,0,0,1-24.572,3.024,61.953,61.953,0,0,1-32.126-11.116c-35.929-24.91-55.233-5.022-82.387,20.135-10.53,9.748-22.278,20.229-36.61,29.2A181.491,181.491,0,0,1,1068.7,784.018a34.313,34.313,0,0,1-2.535,4.727c-27.4,43.145-9.505,41.683,43.1,96.625C1130.709,907.744,1126.761,938.749,1110.088,964.488Z" transform="translate(-557.309 -694.235)"/><path class="b" d="M1053.8,865.1a181.514,181.514,0,0,1-309.756-41.923,155.156,155.156,0,0,1,41.047-38.658c64.35-41.975,164.09-41.877,180.617,15.989C976.236,837.268,1012.262,870.026,1053.8,865.1Z" transform="translate(-744.039 -738.615)"/><path class="b" d="M970.7,965.121a132.178,132.178,0,0,1-2.976,27.98c-106.078,9.216-154.245-86.092-179.79-121.678A142.7,142.7,0,0,0,769.513,851,132.928,132.928,0,0,1,970.7,965.121Z" transform="translate(-700.667 -607.003)"/></g><g transform="translate(787.507 840.956)"><g transform="translate(0 57.701)"><path class="c" d="M805.944,830.114a3.259,3.259,0,0,0,2.584-3.8l-.781-4.243a3.189,3.189,0,0,0-3.754-2.584l-3.608.635a14.408,14.408,0,0,0-1.754-2.729l2-2.927.1-.1a3.273,3.273,0,0,0-.778-4.532l-3.559-2.438a3.312,3.312,0,0,0-4.532.827l-2.1,2.976a16.422,16.422,0,0,0-3.167-.635l-.635-3.657a3.274,3.274,0,0,0-3.8-2.584l-4.192.781a3.183,3.183,0,0,0-2.632,3.754l.632,3.608a16.241,16.241,0,0,0-2.729,1.754l-3.021-2.1a3.224,3.224,0,0,0-4.486.83l-2.438,3.511a3.228,3.228,0,0,0,.83,4.533l2.973,2.1a23,23,0,0,0-.681,3.168l-3.608.635a3.306,3.306,0,0,0-2.632,3.8l.781,4.24a3.218,3.218,0,0,0,3.751,2.584l3.608-.632a26.1,26.1,0,0,0,1.757,2.73l-2.048,2.973c0,.049,0,.049-.049.1a3.2,3.2,0,0,0,.829,4.438l3.557,2.486a3.224,3.224,0,0,0,4.486-.83l2.1-3.021a17.563,17.563,0,0,0,3.168.73l.632,3.559a3.271,3.271,0,0,0,3.8,2.632l4.243-.732a3.26,3.26,0,0,0,2.584-3.8l-.635-3.605a14.426,14.426,0,0,0,2.73-1.757l3.024,2.1a3.284,3.284,0,0,0,4.532-.83l2.438-3.557a3.287,3.287,0,0,0-.827-4.535l-3.024-2.048a17.565,17.565,0,0,0,.732-3.168Zm-19.159,11.751a13.455,13.455,0,0,1-13.6-5.657,13.308,13.308,0,0,1-2.195-5.265,13.6,13.6,0,1,1,15.8,10.921Z" transform="translate(-760.122 -804.268)"/><path class="d" d="M791.051,819.4a13.627,13.627,0,0,0-8.043-10.092,13.577,13.577,0,1,0-2.924,25.84A13.592,13.592,0,0,0,791.051,819.4Zm-11.846,10.873a8.576,8.576,0,0,1-9.7-5.608,12.859,12.859,0,0,1-.34-1.316,8.649,8.649,0,0,1,6.973-10.092,10.531,10.531,0,0,1,1.706-.146,8.767,8.767,0,0,1,8.335,7.167A8.622,8.622,0,0,1,779.205,830.273Z" transform="translate(-753.421 -797.551)"/></g><g transform="translate(65.437 81.946)"><path class="c" d="M839.342,844.306a3.912,3.912,0,0,0,3.119-4.532l-.927-5.119a3.84,3.84,0,0,0-4.484-3.122l-3.754.684-.584.1a18.971,18.971,0,0,0-2.146-3.265l2.535-3.657a3.9,3.9,0,0,0-.976-5.414l-4.241-2.924a3.955,3.955,0,0,0-5.462.976l-2.486,3.559a23.072,23.072,0,0,0-3.851-.781l-.779-4.338a3.875,3.875,0,0,0-4.486-3.17l-5.07.927a3.911,3.911,0,0,0-3.167,4.533l.781,4.34a23.753,23.753,0,0,0-3.316,2.095l-3.608-2.484a3.9,3.9,0,0,0-5.411.973l-2.924,4.243a3.841,3.841,0,0,0-.684,2.681,3.665,3.665,0,0,0,1.657,2.73l.44.292,3.167,2.243-.292,1.024a16.472,16.472,0,0,0-.535,2.779l-4.341.778a3.889,3.889,0,0,0-3.119,4.535l.927,5.07a3.868,3.868,0,0,0,4.484,3.168l4.338-.778a24.923,24.923,0,0,0,2.1,3.265l-2.486,3.608a3.883,3.883,0,0,0,.975,5.411l4.241,2.976a3.9,3.9,0,0,0,5.411-.976l2.535-3.608a19.6,19.6,0,0,0,3.8.83l.781,4.338a3.912,3.912,0,0,0,4.581,3.121l5.021-.878a3.935,3.935,0,0,0,3.17-4.584l-.781-4.289a21.014,21.014,0,0,0,3.267-2.146l3.608,2.535a3.966,3.966,0,0,0,5.459-.976l2.973-4.289a3.9,3.9,0,0,0-.976-5.411l-3.654-2.486a21.277,21.277,0,0,0,.827-3.8Zm-23.01,14.137a16.318,16.318,0,0,1-18.965-13.162,15.469,15.469,0,0,1-.146-4.727,16.3,16.3,0,0,1,31.834-2.83,11.6,11.6,0,0,1,.438,1.757A16.318,16.318,0,0,1,816.332,858.444Z" transform="translate(-784.335 -813.239)"/><path class="d" d="M821.449,831.412a11.585,11.585,0,0,0-.438-1.757,16.3,16.3,0,0,0-31.834,2.83,15.471,15.471,0,0,0,.146,4.727,16.323,16.323,0,0,0,32.126-5.8Zm-14.235,13.113a10.382,10.382,0,0,1-12.043-8.338,9.45,9.45,0,0,1-.1-1.168,10.351,10.351,0,0,1,20.524-2.535,2.964,2.964,0,0,1,.048.924A10.265,10.265,0,0,1,807.214,844.525Z" transform="translate(-776.29 -805.169)"/></g><g transform="translate(36.303)"><path class="c" d="M842.213,821.644a4.9,4.9,0,0,0,3.949-5.657l-1.17-6.338a4.838,4.838,0,0,0-5.654-3.9l-5.411.975a14.074,14.074,0,0,0-1.073-1.851,25.6,25.6,0,0,0-1.559-2.243l3.168-4.535a4.966,4.966,0,0,0-1.219-6.824l-5.313-3.608a4.891,4.891,0,0,0-6.776,1.219l-3.17,4.486a24.522,24.522,0,0,0-4.727-1.024l-1.024-5.411a4.858,4.858,0,0,0-5.605-3.949l-6.338,1.168a4.865,4.865,0,0,0-3.951,5.657l.976,5.411a29.174,29.174,0,0,0-4.095,2.584l-4.532-3.07a4.844,4.844,0,0,0-6.729,1.219l-3.657,5.265a4.816,4.816,0,0,0,1.219,6.776l4.486,3.17a25.54,25.54,0,0,0-1.024,4.727l-5.411.976a4.932,4.932,0,0,0-3.949,5.654l1.17,6.387a4.873,4.873,0,0,0,5.654,3.9l5.411-.973a32.587,32.587,0,0,0,2.584,4.094l-3.07,4.484a4.809,4.809,0,0,0,1.219,6.778l5.265,3.7a4.9,4.9,0,0,0,6.776-1.219l3.121-4.532a26.158,26.158,0,0,0,4.776,1.073l.976,5.362a4.811,4.811,0,0,0,5.656,3.948l3.508-.633,2.827-.489a4.886,4.886,0,0,0,3.9-5.7l-.976-5.362a24.785,24.785,0,0,0,4.095-2.632l4.535,3.119a4.908,4.908,0,0,0,6.776-1.219l3.705-5.313a4.969,4.969,0,0,0-1.219-6.824l-4.535-3.073a25.812,25.812,0,0,0,1.024-4.778ZM813.5,839.339a22.467,22.467,0,0,1-4.046.343,20.4,20.4,0,1,1,16.916-32.418,19.4,19.4,0,0,1,3.608,8.384A20.437,20.437,0,0,1,813.5,839.339Z" transform="translate(-773.555 -782.918)"/><path class="d" d="M819.946,805.581a19.4,19.4,0,0,0-3.608-8.383,20.4,20.4,0,1,0-16.916,32.418,22.467,22.467,0,0,0,4.046-.343A20.437,20.437,0,0,0,819.946,805.581Zm-17.794,16.38a11.3,11.3,0,0,1-3.122.146,12.958,12.958,0,1,1,11.019-20.913,12.4,12.4,0,0,1,2.584,5.751A12.971,12.971,0,0,1,802.152,821.961Z" transform="translate(-763.523 -772.852)"/></g><path class="e" d="M797.748,824.7a17.574,17.574,0,0,1-.732,3.167l3.024,2.048a3.287,3.287,0,0,1,.827,4.535l-2.438,3.557a3.284,3.284,0,0,1-4.532.83l-3.024-2.1a14.44,14.44,0,0,1-2.73,1.757l.635,3.605a3.26,3.26,0,0,1-2.584,3.8l-4.243.732a3.272,3.272,0,0,1-3.8-2.632l-.632-3.559a17.571,17.571,0,0,1-3.168-.73l-2.1,3.021a3.223,3.223,0,0,1-4.486.83l-3.557-2.486a3.2,3.2,0,0,1-.829-4.438c.049-.049.049-.049.049-.1a34.841,34.841,0,0,0,5.167-6.386c1.073-1.559,2.049-3.216,3.021-4.827a8.651,8.651,0,0,0,16.673-4.386,8.767,8.767,0,0,0-8.335-7.167,25.129,25.129,0,0,1,5.167-3.8c3.511-2,7.313-2.827,10.919-1.559l-2,2.927a14.41,14.41,0,0,1,1.754,2.729l3.608-.635a3.189,3.189,0,0,1,3.754,2.584l.781,4.243a3.259,3.259,0,0,1-2.584,3.8Z" transform="translate(-755.534 -740.523)"/><path class="f" d="M784.037,822.388a3.658,3.658,0,0,1-1.657-2.73c.632,1.021,1.365,2.046,2.095,3.021Z" transform="translate(-722.226 -720.364)"/><path class="e" d="M835,833.6a21.273,21.273,0,0,1-.827,3.8l3.654,2.486a3.9,3.9,0,0,1,.976,5.411l-2.973,4.289a3.966,3.966,0,0,1-5.459.976l-3.608-2.535a21.01,21.01,0,0,1-3.267,2.146l.781,4.289a3.935,3.935,0,0,1-3.17,4.584l-5.021.878a3.912,3.912,0,0,1-4.581-3.121l-.781-4.338a19.594,19.594,0,0,1-3.8-.83l-2.535,3.608a3.9,3.9,0,0,1-5.411.976l-4.241-2.976a3.883,3.883,0,0,1-.975-5.411l2.486-3.608a24.914,24.914,0,0,1-2.1-3.265l-4.338.778a3.868,3.868,0,0,1-4.484-3.168l-.927-5.07a3.889,3.889,0,0,1,3.119-4.535l4.341-.778a16.469,16.469,0,0,1,.535-2.779,25.126,25.126,0,0,0,4.827,3.657,26.442,26.442,0,0,0,5.9,2.535,9.462,9.462,0,0,0,.1,1.167,10.382,10.382,0,0,0,12.043,8.338,10.265,10.265,0,0,0,8.432-11.116,23.885,23.885,0,0,0,3.365-2.046,16.2,16.2,0,0,0,2-1.708,18.536,18.536,0,0,0,4.24-5.508l3.754-.684a3.84,3.84,0,0,1,4.484,3.122l.927,5.119a3.913,3.913,0,0,1-3.119,4.532Z" transform="translate(-718.898 -719.808)"/><path class="e" d="M814.492,808.785a25.808,25.808,0,0,1-1.024,4.778L818,816.636a4.968,4.968,0,0,1,1.219,6.824l-3.705,5.313a4.908,4.908,0,0,1-6.776,1.219l-4.535-3.119a24.768,24.768,0,0,1-4.095,2.632l.976,5.362a4.886,4.886,0,0,1-3.9,5.7l-2.827.489a30.26,30.26,0,0,1-7.213-15.21,27.61,27.61,0,0,1-.392-7.508,11.3,11.3,0,0,0,3.122-.146,12.971,12.971,0,0,0,10.481-15.016,12.4,12.4,0,0,0-2.584-5.751,27.715,27.715,0,0,1,4.632-3.17c.535-.292,1.122-.584,1.657-.827a35.686,35.686,0,0,1,6.484-2.389,14.059,14.059,0,0,1,1.073,1.851l5.411-.975a4.838,4.838,0,0,1,5.654,3.9l1.17,6.338a4.9,4.9,0,0,1-3.949,5.657Z" transform="translate(-714.942 -769.086)"/></g><g transform="translate(1209.77 950.324)"><g transform="translate(59.193 128.172)"><path class="g" d="M952.188,930.085a12.1,12.1,0,0,1,1.492,5.454c.06,3.1,13.77.521,13.77.521a64.8,64.8,0,0,0-3.116-7.173,23.1,23.1,0,0,0-3.673-5.581Z" transform="translate(-914.562 -781.427)"/><path class="c" d="M974.114,926.828c2.348,2.638,3.213,5.37,2.53,8.2-9.8,2.176-19.294,4.527-28.551,6-.735-3.524,7.646-10.156,12.567-12.675A15.685,15.685,0,0,0,974.114,926.828Z" transform="translate(-921.612 -775.432)"/><path class="c" d="M968.479,870.81c5.222,37.31-4.565,53.615-1.6,67.852s19.635,76.452,19.635,76.452c-1.351,2.716-7.683,5.027-11.4,4.3-14.44-33.31-31.683-71.844-33.85-83.781a216.883,216.883,0,0,1-1.435-61.68Z" transform="translate(-938.266 -870.81)"/></g><g transform="translate(27.547 131.056)"><path class="g" d="M933.043,930.429a12.109,12.109,0,0,1,.395,5.643c-.551,3.051,13.4,3.208,13.4,3.208a64.748,64.748,0,0,0-1.649-7.643,23.162,23.162,0,0,0-2.508-6.192Z" transform="translate(-915.513 -780.671)"/><path class="c" d="M956.07,930.082c1.787,3.046,2.1,5.894.876,8.532-10.04.214-19.81.66-29.175.292-.03-3.6,9.489-8.462,14.808-9.967A15.693,15.693,0,0,0,956.07,930.082Z" transform="translate(-924.489 -774.722)"/><path class="c" d="M965.954,874.41c-2.192,37.609-14.983,51.679-14.865,66.222s4.268,78.817,4.268,78.817c-1.859,2.4-8.519,3.424-12.024,1.986-7.632-35.5-16.989-76.663-16.773-88.792a216.922,216.922,0,0,1,10.681-60.766Z" transform="translate(-926.557 -871.877)"/></g><path class="g" d="M952.14,849.619c-2.311-3.911-2.77-8.322-2.97-13.319H938.548a45.483,45.483,0,0,1-1.446,14.813C938.2,853.194,951.094,852.373,952.14,849.619Z" transform="translate(-881.055 -801.396)"/><path class="g" d="M958.893,853.961c-6.751,3.032-11.554,8.508-17.692,5.859-8.662-2.3-8.856-21.826-5.892-30.531l23.55-2.749Z" transform="translate(-887.046 -818.013)"/><path class="h" d="M968.12,859.038l-8.586,7.021-8.959-10.048,6.07-6.23-2.779-3.762-3.292,4.113-2.162-2.489,1.676-6.97c-6.043.714-20.613-2.457-20.613-2.457s7.243-11.394,8.827-14.832c6.046,2.481,15.183,1.489,15.183,1.489l16.3,7.857Z" transform="translate(-894.041 -823.385)"/><path class="g" d="M930.89,838.8s2.348-6.34,6.17-7.405c4.073-1.135,8.992,6.129,8.327,8.908s-6.068.87-6.049,2.23,2.308,1.238,1.93,2.557-6.127.159-6.127.159Z" transform="translate(-891.632 -809.944)"/><path class="i" d="M1002.938,856.716c-9.484-5.051-34.315-4.076-48.123,2.37l-25.707,4.421,34.5-24.753-6.754-5.927c-8.74,13.043-50.682,13.037-38.183,43.777l33.813,5.311c-2.014,25.68-3.776,49.264-.716,64.631,10.819,6.2,49.345,3.568,56.523-3.778C1005.448,904.752,1014.262,865.456,1002.938,856.716Z" transform="translate(-916.365 -807.309)"/></g><path class="j" d="M1002.494,858.121c-9.484-4.614-34.315-3.721-48.123,2.168l-25.707,4.038,34.5-22.613-6.754-5.413c-8.743,11.913-50.685,11.908-38.183,39.991l33.81,4.851c-2.014,23.461-3.776,45.007-.716,59.044,10.821,5.662,49.345,3.259,56.526-3.451C1005,902.006,1013.815,866.108,1002.494,858.121Z" transform="translate(292.654 148.928)"/><path class="k" d="M1002.938,856.716c-9.484-5.051-34.315-4.076-48.123,2.37l-25.707,4.421,34.5-24.753-6.754-5.927c-8.74,13.043-50.682,13.037-38.183,43.777l33.813,5.311c-2.014,25.68-3.776,49.264-.716,64.631,10.819,6.2,49.345,3.568,56.523-3.778C1005.448,904.752,1014.262,865.456,1002.938,856.716Z" transform="translate(293.405 143.015)"/><path class="l" d="M827.52,812.541l-7.257,7.834,176.51,279.869,7.04-7.626-2.456-8.6Z" transform="translate(129.78 108.476)"/><path class="l" d="M987.587,1103.734H883.055c-11.643,0-22.748-10.292-24.8-22.991l-39.5-244.315c-2.054-12.7,5.721-22.991,17.364-22.991H940.645c11.646,0,22.748,10.294,24.8,22.991l39.5,244.315C1007.005,1093.442,999.23,1103.734,987.587,1103.734Z" transform="translate(126.642 109.999)"/><path class="c" d="M990.027,1101.085H885.495c-11.646,0-22.748-10.294-24.8-22.991l-39.5-244.318c-2.054-12.7,5.721-22.988,17.364-22.988H943.085c11.646,0,22.748,10.292,24.8,22.988l39.5,244.318C1009.445,1090.791,1001.67,1101.085,990.027,1101.085Z" transform="translate(130.796 105.491)"/><path class="i" d="M935.336,813.776H922.582a1.514,1.514,0,0,0-1.432,1.9l.568,3.519c1.022,6.308-2.843,11.421-8.627,11.421H866.005c-5.787,0-11.3-5.113-12.321-11.421l-.57-3.519a2.228,2.228,0,0,0-2.046-1.9H838.314c-9.437,0-15.737,8.343-14.076,18.635l38.3,236.877c1.662,10.289,10.662,18.632,20.1,18.632h97.022c9.438,0,15.738-8.343,14.076-18.632l-38.3-236.877C953.773,822.119,944.773,813.776,935.336,813.776Z" transform="translate(136.097 110.578)"/><path class="i" d="M935.336,813.776H922.582a1.514,1.514,0,0,0-1.432,1.9l.568,3.519c1.022,6.308-2.843,11.421-8.627,11.421H866.005c-5.787,0-11.3-5.113-12.321-11.421l-.57-3.519a2.228,2.228,0,0,0-2.046-1.9H838.314c-9.437,0-15.737,8.343-14.076,18.635l38.3,236.877c1.662,10.289,10.662,18.632,20.1,18.632h97.022c9.438,0,15.738-8.343,14.076-18.632l-38.3-236.877C953.773,822.119,944.773,813.776,935.336,813.776Z" transform="translate(136.097 110.578)"/><path class="m" d="M932.025,923.569h-78.03c-3.6,0-7.035-3.184-7.67-7.111l-1.54-9.524c-.635-3.927,1.77-7.111,5.37-7.111h78.03c3.6,0,7.035,3.184,7.67,7.111l1.541,9.524C938.03,920.385,935.624,923.569,932.025,923.569Z" transform="translate(171.356 257.084)"/><g transform="translate(1015.137 749.289)"><path class="c" d="M901.025,775.344l-37.469,37.472A9.747,9.747,0,1,0,877.3,826.638l.038-.038,37.469-37.469Z" transform="translate(-816.538 -704.146)"/><path class="n" d="M896.181,749,883.2,800.682l12.983,51.307a51.495,51.495,0,1,0,0-102.989Z" transform="translate(-778.203 -749)"/><path class="c" d="M884.011,764.064a51.494,51.494,0,0,0,36.429,87.925V749A51.364,51.364,0,0,0,884.011,764.064Z" transform="translate(-802.465 -749)"/><g transform="translate(0 229.891)"><path class="o" d="M844.348,860.151a26.087,26.087,0,1,0,26.086-26.089,26.175,26.175,0,0,0-26.086,26.089" transform="translate(-844.348 -834.062)"/><path class="k" d="M880.089,860.151A26.177,26.177,0,0,1,854,886.236V834.062A26.178,26.178,0,0,1,880.089,860.151Z" transform="translate(-827.914 -834.062)"/><path class="p" d="M849.2,860.539l8.651-8.654-8.651-8.648,4.319-4.321,8.648,8.651,8.654-8.651,4.319,4.321-8.651,8.648,8.651,8.651-4.319,4.319-8.654-8.648-8.648,8.651Z" transform="translate(-836.085 -825.799)"/><path class="q" d="M862.651,864.856l4.319-4.319-8.651-8.654,8.651-8.648-4.319-4.319L854,847.565v8.64Z" transform="translate(-827.914 -825.797)"/></g></g><circle class="i" cx="37.837" cy="37.837" r="37.837" transform="translate(1095.275 762.802)"/></g></svg>