<?xml version="1.0" encoding="utf-8"?>
<!-- Generator: Adobe Illustrator 25.1.0, SVG Export Plug-In . SVG Version: 6.00 Build 0)  -->
<svg version="1.1" id="Calque_1" xmlns="http://www.w3.org/2000/svg" xmlns:xlink="http://www.w3.org/1999/xlink" x="0px" y="0px"
	 viewBox="0 0 580.198 551.749" style="enable-background:new 0 0 580.198 551.749;" xml:space="preserve">
<style type="text/css">
	.st0{fill:#FFD5B6;}
	.st1{fill:#FFC896;}
	.st2{fill:#FCB975;}
	.st3{fill:#F1EFF8;}
	.st4{opacity:0.5;fill:url(#Tracé_8251_1_);enable-background:new    ;}
	.st5{opacity:0.5;fill:url(#Tracé_8253_1_);enable-background:new    ;}
	.st6{opacity:0.5;fill:url(#Tracé_8254_1_);enable-background:new    ;}
	.st7{fill:#F4BC84;}
	.st8{fill:#1B2C7B;}
	.st9{fill:#000074;}
	.st10{fill:#091038;}
	.st11{fill:#FFFFFF;}
	.st12{fill:#00C59B;}
	.st13{fill:#E90566;}
	.st14{opacity:0.7;fill:url(#Tracé_8282_1_);enable-background:new    ;}
	.st15{opacity:0.7;fill:url(#Tracé_8283_1_);enable-background:new    ;}
	.st16{opacity:0.7;fill:url(#Tracé_8284_1_);enable-background:new    ;}
	.st17{opacity:0.7;fill:url(#Tracé_8285_1_);enable-background:new    ;}
</style>
<g id="Groupe_3241" transform="translate(-109.042 -733)">
	<g id="Groupe_3154" transform="translate(370.795 733)">
		<path id="Tracé_8402" class="st0" d="M76.607,119.019c0.021,6.068-2.462,11.876-6.862,16.054
			c-2.547,2.416-3.984,5.777-3.971,9.288l0.095,20.25c-55.495,0.233-38.084,0.16-74.982,0.312l-0.056-12.237
			c-0.024-7.241-2.817-14.199-7.806-19.448l-1.358-1.432c-6.53-6.87-10.224-15.953-10.343-25.431V89.75
			c0.002-3.979,2.115-7.657,5.551-9.663c-0.672-2.459-13.959-51.366-14.587-53.68c-3.478-12.82,10.163-23.438,21.482-16.911
			c3.405,1.964,5.888,5.202,6.903,8.999l12.03,44.278c5.854-21.548,5.573-20.515,12.03-44.278
			C16.803,10.65,24.84,5.968,32.684,8.038c0.064,0.017,0.128,0.034,0.192,0.052c7.844,2.282,12.405,10.438,10.241,18.316
			c-5.522,20.329-4.329,15.936-5.958,21.929c7.12-2.224,14.78,1.213,17.853,8.01c0.347,0.697-0.017,0.563,0.833,0.242
			c9.372-3.965,20.599,2.48,20.599,13.348c0,21.347,0.004,16.169,0.16,49.085H76.607z"/>
		<path id="Tracé_8403" class="st1" d="M76.604,119.019c0.021,6.068-2.462,11.876-6.862,16.054
			c-2.547,2.416-3.984,5.777-3.971,9.288l0.095,20.25l-45.691,0.191V10.46c11.241-8.411,26.629,2.397,22.941,15.945
			c-5.522,20.329-4.329,15.936-5.958,21.929c7.281-2.174,15.257,1.347,18.072,8.529c9.526-4.661,21.213,2.09,21.213,13.07
			C76.445,89.372,76.517,100.554,76.604,119.019z"/>
		<path id="Tracé_8404" class="st1" d="M61.945,88.836v9.258c-3.207,0.092-6.354-0.882-8.948-2.77
			c-4.784,5.732-13.063,7.056-19.396,3.101c-2.176,3.369-5.06,6.224-8.451,8.365c5.886,11.269,3.878,25.043-4.98,34.163
			l-6.608-6.488c6.29-6.474,7.504-16.342,2.971-24.148c-4.054,0.879-4.477,0.623-29.165,0.623v-9.256h23.388
			c7.357-0.036,13.956-4.535,16.677-11.37c-0.247-0.816-0.418-1.652-0.512-2.499h-55.428c0.572-3.241,2.54-6.066,5.381-7.726
			l-0.417-1.53h22.414v-29.89l3.832,14.104l4.332-15.945h1.093V78.56h18.695V62.227h9.256v23.934c0,2.678,1.993,5.245,5.681,5.245
			c2.896-0.002,5.243-2.349,5.245-5.245h0.234c-0.387-2.124-0.249-37.449-0.225-37.449c3.745,1.471,6.717,4.42,8.217,8.153
			c0.382-0.187,0.664-0.302,1.03-0.448v27.175c0,2.681,1.993,5.245,5.681,5.245L61.945,88.836z"/>
		<path id="Tracé_8405" class="st2" d="M76.506,98.091c-15.897,0-17.566,0.4-21.259-1.419c-0.788-0.386-1.542-0.838-2.253-1.352
			c-4.784,5.732-13.063,7.056-19.396,3.101c-2.175,3.37-5.058,6.225-8.449,8.367c5.88,11.251,3.887,25.005-4.946,34.124
			c-0.039,0.057-0.025,1.959-0.025-41.935c2.834-1.783,5.127-4.306,6.631-7.297c1.031-2.034,0.454-0.821,0.114-3.865h-6.746v-9.256
			h6.644V62.226h9.261V86.16c0,4.903,6.167,6.984,9.46,3.635c0.944-0.974,1.471-2.278,1.466-3.635c0.339,0,0.231,0.168,0.102-0.781
			c-0.146-1.062-0.102,1.272-0.102-36.672c3.75,1.465,6.728,4.416,8.226,8.153c0.312-0.153,0.705-0.323,1.03-0.448
			c0,29.015-0.014,27.299,0.028,27.705c0,0.087,0.083,0.522,0.083,0.544c0.373,1.807,1.687,3.275,3.443,3.845
			c1.349,0.449,0.753,0.327,16.656,0.327C76.481,91.931,76.494,94.991,76.506,98.091z"/>
	</g>
	<g id="Groupe_3097" transform="translate(-1124.717 571.16)">
		<g id="Partnership_Strategic" transform="translate(1233.76 242)">
			<g id="Groupe_3074">
				<g id="Groupe_3072" transform="translate(44.033 621.154)">
					<path id="Tracé_8250" class="st3" d="M456.1-191.033c-54.457-16.044-106.112-12.925-152.571-4.339
						c-44.697,8.269-84.554,21.648-117.41,27.884c-57.757,10.982-106.293,23.862-170.424-18.937
						c-19.206-12.835-9.399-34.346,29.647-52.288c41.081-18.982,114.52-34.076,220.633-31.184
						C591.273-261.083,559.051-160.62,456.1-191.033z"/>
					
						<linearGradient id="Tracé_8251_1_" gradientUnits="userSpaceOnUse" x1="146.2247" y1="-324.345" x2="146.3261" y2="-324.9634" gradientTransform="matrix(492.3519 0 0 -156.1813 -71874.1484 -50921.1758)">
						<stop  offset="0" style="stop-color:#FFFFFF"/>
						<stop  offset="0.085" style="stop-color:#F5F5F5"/>
						<stop  offset="0.229" style="stop-color:#DADADA"/>
						<stop  offset="0.413" style="stop-color:#AFAFAF"/>
						<stop  offset="0.631" style="stop-color:#747474"/>
						<stop  offset="0.876" style="stop-color:#292929"/>
						<stop  offset="1" style="stop-color:#000000"/>
					</linearGradient>
					<path id="Tracé_8251" class="st4" d="M303.529-195.372c-44.697,8.269-84.554,21.648-117.41,27.884
						c-57.757,10.982-106.293,23.862-170.424-18.937c-19.206-12.835-9.399-34.346,29.647-52.288
						c26.937-7.773,60.017-12.338,95.764-12.338C223.357-251.05,291.462-226.872,303.529-195.372z"/>
				</g>
				<g id="Groupe_3073">
					<path id="Tracé_8252" class="st3" d="M378.156,290.654c-5.368-3.535-11.297-6.133-17.534-7.683
						c-6.127-1.584-12.427-2.404-18.756-2.441c-20.474-0.406-43.793,5.469-68.422,12.61c-7.095,2.033-14.235,4.157-21.511,6.326
						c-34.979,10.394-71.721,20.608-106.159,17.715c-20.699-1.716-40.586-8.135-58.796-22.189
						c-20.428-15.638-38.687-40.809-53.599-79.45c-0.362-0.948-0.725-1.898-0.995-2.846c-16.36-44.831-8.361-87.087,11.661-120.53
						c38.73-64.763,122.428-96.669,162.695-50.798C254.6,95.828,306.753,90.856,334.049,66.181
						c7.672-6.79,13.437-15.468,16.722-25.173c13.831-42.119,81.619-87.357,137.749-53.283c1.988,1.221,3.796,2.441,5.424,3.661
						c38.412,28.834-11.887,66.479,0.948,125.637c13.332,61.688,59.701,23.184,72.354,79.723
						C583.108,267.877,450.286,338.469,378.156,290.654z"/>
					
						<linearGradient id="Tracé_8253_1_" gradientUnits="userSpaceOnUse" x1="189.6125" y1="295.3261" x2="190.2164" y2="295.3261" gradientTransform="matrix(416.8551 0 0 -521.4052 -78724.1328 154133.4062)">
						<stop  offset="0" style="stop-color:#FFFFFF"/>
						<stop  offset="0.085" style="stop-color:#F5F5F5"/>
						<stop  offset="0.229" style="stop-color:#DADADA"/>
						<stop  offset="0.413" style="stop-color:#AFAFAF"/>
						<stop  offset="0.631" style="stop-color:#747474"/>
						<stop  offset="0.876" style="stop-color:#292929"/>
						<stop  offset="1" style="stop-color:#000000"/>
					</linearGradient>
					<path id="Tracé_8253" class="st5" d="M378.156,290.655c-5.368-3.535-11.296-6.133-17.534-7.683
						c-6.128-1.584-12.428-2.404-18.757-2.441c-14.914-26.372-23.428-55.877-24.855-86.14c-0.135-3.119-0.227-6.281-0.227-9.446
						c0-101.548,77.868-184.884,177.158-193.562c38.412,28.834-11.887,66.479,0.948,125.637
						c13.331,61.688,59.701,23.184,72.354,79.723C583.107,267.877,450.286,338.469,378.156,290.655z"/>
					
						<linearGradient id="Tracé_8254_1_" gradientUnits="userSpaceOnUse" x1="190.0359" y1="295.1162" x2="190.6399" y2="295.1162" gradientTransform="matrix(480.17 0 0 -217.8571 -91205.5 64378.6953)">
						<stop  offset="0" style="stop-color:#FFFFFF"/>
						<stop  offset="0.085" style="stop-color:#F5F5F5"/>
						<stop  offset="0.229" style="stop-color:#DADADA"/>
						<stop  offset="0.413" style="stop-color:#AFAFAF"/>
						<stop  offset="0.631" style="stop-color:#747474"/>
						<stop  offset="0.876" style="stop-color:#292929"/>
						<stop  offset="1" style="stop-color:#000000"/>
					</linearGradient>
					<path id="Tracé_8254" class="st6" d="M334.047,66.181c-32.63,51.203-89.888,85.144-155.058,85.144
						c-51.287,0.073-100.248-21.391-134.946-59.158c38.73-64.763,122.428-96.669,162.695-50.798
						C254.6,95.828,306.753,90.856,334.047,66.181z"/>
				</g>
			</g>
			<g id="Groupe_3086" transform="translate(360.808 283.736)">
				<g id="Groupe_3085" transform="translate(0)">
					<g id="Groupe_3079" transform="translate(51.648 185.758)">
						<g id="Groupe_3078" transform="translate(41.436 242.008)">
							<path id="Tracé_8261" class="st7" d="M-147.432-303.151l1.649,6.532l-6.187,8.033l18.471-8.119l-3.307-3.557l-1.736-5.77
								L-147.432-303.151z"/>
							<path id="Tracé_8262" class="st8" d="M-135.653-299.405c-3.1,3.093-6.812,5.448-12.434,5.496l-7.833,9.482
								c-2.95,6.086,22.995-5.023,24.324-9.444C-131.441-296.176-133.02-299.234-135.653-299.405z"/>
						</g>
						<path id="Tracé_8263" class="st9" d="M-106.246-210.189c5.956,23.079,1.976,40.722-0.354,68.34l11.313,78.062l-11.219,3.637
							l-26.294-84.917c-2.149-13.642-11.909-45.384-3.745-54.229L-106.246-210.189z"/>
					</g>
					<g id="Groupe_3081" transform="translate(0 178.361)">
						<g id="Groupe_3080" transform="translate(0 238.072)">
							<path id="Tracé_8264" class="st7" d="M-105.892-300.994l-0.05,6.737l-8.01,6.215l19.92-3.206l-2.305-4.275l-0.227-6.021
								L-105.892-300.994z"/>
							<path id="Tracé_8265" class="st8" d="M-95.436-294.402c-3.78,2.211-7.965,3.557-13.417,2.185l-9.97,7.205
								c-4.387,5.148,23.519,0.929,25.92-3.014C-92.171-290.216-92.93-293.573-95.436-294.402z"/>
						</g>
						<path id="Tracé_8266" class="st9" d="M-68.562-207.259c-0.087,23.888-8.342,39.962-17.564,66.046l-8.697,78.431l-1.756,0.087
							l-9.311,0.614h-0.701l-4.129-88.792c0.791-7.731,0.703-21.607,2.196-33.463v-0.088c0.177-1.054,0.353-2.107,0.528-3.161
							c1.229-7.731,3.424-14.229,7.377-16.688L-68.562-207.259z"/>
					</g>
					<g id="Groupe_3082" transform="translate(15.49)">
						<path id="Tracé_8268" class="st7" d="M-101.134-101.632c1.575-1.691,1.631-7.452,1.895-12.666l9.742-1.262
							c0.039,4.871,0.374,9.361,1.637,12.641C-92.034-97.588-99.626-97.294-101.134-101.632z"/>
						<path id="Tracé_8269" class="st7" d="M-100.975-102.639c4.439-0.812,8.849-8.586,12.46-14.474l-17.07-18.623l-15.207,14.297
							C-118.459-113.099-105.556-102.903-100.975-102.639z"/>
						<path id="Tracé_8270" class="st10" d="M-90.817-113.991l-5.811-0.942l-3.048-6.24l-3.187-0.084l1.8,5.145l-1.36,0.96
							l-4.567-5.951l-9.57,11.364l-8.865-7.354l5.464-12.925l12.555-6.607c0,0,13.696,2.874,13.929,3.031
							c0.233,0.156,4.963,16.475,4.963,16.475L-90.817-113.991z"/>
					</g>
					<path id="Tracé_8271" class="st11" d="M-71.548-7.192l12.6,10.909l-1.57,1.262L-72.726-6.02L-71.548-7.192z"/>
					<path id="Tracé_8272" class="st11" d="M-103.693-11.596l-4.832,5.532c0.177-1.054,0.353-2.107,0.528-3.161l3.162-3.513
						L-103.693-11.596z"/>
					<path id="Tracé_8275" class="st10" d="M-86.932-115.151l1.921,7.844l-4.99,2.899l2.638,3.179l3.329-0.298l2.071-3.977
						l-3.609-10.603L-86.932-115.151z"/>
					<path id="Union_4" class="st12" d="M-69.002-3.867l4.192-11.248c-15.396-0.242-29.715-1.638-40.569-6.781l1.317,11.854
						c-0.33-1.812-1.542-0.226-2.647,1.359c-1.013,1.453-1.936,2.906-2.008,1.744l-9.311-41.898l13.947-43.47
						c0.324-1.339,0.72-2.659,1.187-3.955c0.06-0.106,0.121-0.211,0.181-0.315l0.316-0.984c0.683-0.706,1.486-1.285,2.372-1.712
						c9.553-6.595,35.703-6.473,48.24-1.064c2.182-1.19,4.328-0.899,5.784,1.957c7.25,18.287,13.5,39.144,13.186,46.565
						c0.054,1.495-0.083,2.603-0.443,3.238l-18.052,29.772l-0.274,3.669c-0.66,0.009-1.32,0.017-1.978,0.024l-9.82,16.071
						L-69.002-3.867z M-105.59-23.802c0.037-0.072,0.074-0.146,0.11-0.219c-0.044,0.009-0.088,0.014-0.133,0.014L-105.59-23.802z"/>
				</g>
			</g>
		</g>
		<g id="Groupe_3096" transform="translate(1285.324 571.126)">
			<g id="Groupe_3089" transform="translate(0 115.33)">
				<g id="Groupe_3088">
					<g id="Groupe_3087">
						<path id="Tracé_8276" class="st8" d="M58.496-169.071c2.125-0.412,3.518-2.463,3.119-4.59l-0.942-5.121
							c-0.363-2.094-2.356-3.497-4.45-3.134c-0.027,0.005-0.053,0.01-0.08,0.015l-4.355,0.765c-0.58-1.174-1.29-2.279-2.118-3.295
							l2.416-3.532l0.117-0.117c1.237-1.774,0.818-4.213-0.94-5.473l-4.297-2.943c-1.796-1.197-4.216-0.754-5.473,1l-2.529,3.589
							c-1.247-0.378-2.528-0.635-3.825-0.765l-0.765-4.413c-0.42-2.12-2.465-3.509-4.59-3.119l-5.062,0.942
							c-2.099,0.331-3.532,2.301-3.201,4.4c0.007,0.043,0.014,0.087,0.023,0.13l0.765,4.355c-1.166,0.595-2.27,1.305-3.295,2.12
							l-3.648-2.531c-1.767-1.22-4.188-0.776-5.407,0.99c-0.002,0.003-0.005,0.007-0.007,0.011l-2.944,4.236
							c-1.24,1.758-0.821,4.188,0.937,5.429c0.021,0.015,0.043,0.03,0.064,0.044l3.589,2.531c-0.364,1.254-0.639,2.532-0.824,3.825
							l-4.355,0.765c-2.131,0.411-3.543,2.45-3.178,4.59l0.942,5.119c0.391,2.111,2.418,3.507,4.53,3.119l4.356-0.765
							c0.637,1.142,1.345,2.242,2.118,3.296l-2.472,3.589c0,0.06,0,0.06-0.06,0.121c-1.198,1.756-0.751,4.15,1.001,5.355
							l4.295,3.001c1.767,1.219,4.188,0.776,5.407-0.991c0.002-0.003,0.004-0.007,0.007-0.01l2.531-3.649
							c1.245,0.412,2.525,0.707,3.825,0.883l0.765,4.295c0.388,2.144,2.441,3.567,4.585,3.179c0.002,0,0.003-0.001,0.005-0.001
							l5.119-0.883c2.125-0.412,3.518-2.463,3.119-4.59l-0.765-4.355c1.174-0.58,2.28-1.291,3.296-2.118l3.649,2.529
							c1.791,1.216,4.227,0.772,5.473-1l2.942-4.297c1.216-1.792,0.771-4.228-1.001-5.473l-3.649-2.47
							c0.411-1.245,0.707-2.526,0.883-3.825L58.496-169.071z M35.368-154.889c-6.343,1.19-12.788-1.489-16.418-6.825
							c-1.332-1.902-2.236-4.071-2.649-6.356c-1.64-8.916,4.258-17.474,13.174-19.114s17.474,4.258,19.114,13.174
							c1.64,8.916-4.258,17.474-13.174,19.114c-0.016,0.003-0.031,0.006-0.047,0.009V-154.889z"/>
						<path id="Tracé_8277" class="st13" d="M48.61-173.898c-0.986-5.433-4.634-10.009-9.71-12.182
							c-8.32-3.565-17.954,0.29-21.518,8.609c-3.565,8.32,0.29,17.954,8.61,21.518c2.954,1.266,6.215,1.635,9.377,1.062
							C44.265-156.495,50.187-164.995,48.61-173.898z M34.31-160.774c-5.041,0.961-10.025-1.917-11.711-6.764
							c-0.165-0.522-0.302-1.052-0.411-1.589c-1.054-5.667,2.685-11.116,8.353-12.17c0.021-0.004,0.042-0.008,0.063-0.011
							c0.68-0.115,1.369-0.174,2.059-0.177c4.97,0.161,9.158,3.76,10.064,8.65C43.725-167.183,39.961-161.787,34.31-160.774
							L34.31-160.774z"/>
					</g>
				</g>
			</g>
			<g id="Groupe_3092" transform="translate(130.793 163.79)">
				<g id="Groupe_3091">
					<g id="Groupe_3090">
						<path id="Tracé_8278" class="st8" d="M17.785-181.961c2.543-0.485,4.222-2.925,3.766-5.473l-1.119-6.179
							c-0.438-2.523-2.838-4.214-5.361-3.776c-0.018,0.003-0.036,0.006-0.054,0.01l-4.53,0.824l-0.706,0.121
							c-0.725-1.4-1.593-2.722-2.59-3.943l3.06-4.413c1.469-2.131,0.944-5.048-1.176-6.533l-5.12-3.53
							c-2.15-1.474-5.086-0.95-6.592,1.178l-3.001,4.295c-1.521-0.444-3.077-0.759-4.65-0.942l-0.94-5.238
							c-0.433-2.547-2.848-4.261-5.395-3.828c-0.007,0.001-0.014,0.002-0.021,0.004l-6.119,1.117
							c-2.568,0.455-4.281,2.905-3.827,5.473l0.942,5.239c-1.401,0.731-2.739,1.577-4.001,2.529l-4.356-3.001
							c-2.131-1.468-5.048-0.942-6.532,1.178l-3.532,5.119c-0.666,0.94-0.96,2.093-0.824,3.237c0.127,1.347,0.865,2.561,2.002,3.295
							l0.529,0.354l3.825,2.706c-0.118,0.413-0.234,0.824-0.352,1.237c-0.312,1.097-0.529,2.219-0.647,3.353l-5.239,0.942
							c-2.55,0.47-4.237,2.918-3.767,5.468c0,0.002,0.001,0.003,0.001,0.005l1.119,6.121c0.431,2.546,2.844,4.26,5.39,3.829
							c0.008-0.001,0.016-0.003,0.024-0.004l5.238-0.942c0.739,1.378,1.585,2.697,2.529,3.943l-3.001,4.355
							c-1.479,2.127-0.954,5.051,1.174,6.53c0.001,0.001,0.003,0.002,0.004,0.003l5.122,3.586c2.131,1.47,5.049,0.944,6.534-1.177
							l3.06-4.356c1.493,0.486,3.031,0.821,4.59,1.001l0.94,5.238c0.481,2.563,2.949,4.251,5.513,3.77
							c0.007-0.001,0.013-0.003,0.02-0.004l6.061-1.059c2.581-0.467,4.294-2.937,3.828-5.518c-0.001-0.005-0.002-0.01-0.003-0.015
							l-0.94-5.178c1.392-0.738,2.711-1.605,3.941-2.59l4.356,3.06c2.152,1.463,5.079,0.94,6.59-1.178l3.589-5.178
							c1.468-2.131,0.943-5.047-1.177-6.531l-4.413-3.001c0.473-1.496,0.807-3.033,0.999-4.59L17.785-181.961z M-9.992-164.893
							c-10.708,1.934-20.956-5.179-22.89-15.887c0-0.001,0-0.002-0.001-0.003c-0.352-1.882-0.412-3.807-0.177-5.707
							c1.207-10.803,10.942-18.582,21.745-17.375c7.862,0.878,14.433,6.378,16.684,13.961c0.231,0.692,0.408,1.401,0.529,2.12
							c1.935,10.707-5.176,20.955-15.882,22.89C-9.986-164.894-9.989-164.893-9.992-164.893z"/>
						<path id="Tracé_8279" class="st13" d="M5.895-187.786c-0.122-0.719-0.298-1.428-0.529-2.12
							c-3.096-10.42-14.053-16.357-24.472-13.261c-7.579,2.252-13.075,8.82-13.954,16.677c-0.235,1.9-0.175,3.825,0.177,5.707
							c1.933,10.709,12.182,17.823,22.892,15.89c10.709-1.933,17.823-12.182,15.89-22.892L5.895-187.786z M-11.289-171.957
							c-6.789,1.217-13.285-3.28-14.537-10.063c-0.067-0.468-0.106-0.939-0.117-1.412c-0.521-6.881,4.634-12.882,11.515-13.404
							c6.426-0.487,12.168,3.993,13.259,10.344c0.079,0.368,0.099,0.745,0.06,1.119c0.635,6.445-3.801,12.291-10.178,13.417
							L-11.289-171.957z"/>
					</g>
				</g>
			</g>
			<g id="Groupe_3095" transform="translate(72.56)">
				<g id="Groupe_3094">
					<g id="Groupe_3093">
						<path id="Tracé_8280" class="st8" d="M57.328-107.848c3.193-0.581,5.32-3.627,4.767-6.825l-1.412-7.65
							c-0.57-3.176-3.606-5.288-6.782-4.719c-0.014,0.003-0.029,0.005-0.043,0.008l-6.533,1.177
							c-0.374-0.777-0.806-1.524-1.294-2.235c-0.58-0.935-1.209-1.838-1.884-2.706l3.825-5.473c1.825-2.691,1.172-6.346-1.471-8.239
							l-6.413-4.355c-2.669-1.837-6.319-1.18-8.181,1.471l-3.825,5.415c-1.857-0.599-3.769-1.013-5.707-1.237l-1.237-6.531
							c-0.56-3.179-3.582-5.309-6.764-4.767l-7.65,1.412c-3.193,0.557-5.33,3.597-4.773,6.79c0.002,0.012,0.004,0.023,0.006,0.035
							l1.178,6.533c-1.731,0.9-3.384,1.944-4.942,3.119l-5.473-3.709c-2.651-1.83-6.283-1.172-8.122,1.472l-4.414,6.355
							c-1.861,2.615-1.25,6.245,1.366,8.106c0.035,0.025,0.07,0.049,0.106,0.074l5.414,3.827c-0.592,1.859-1.006,3.77-1.236,5.707
							l-6.533,1.177c-3.178,0.604-5.294,3.633-4.767,6.825l1.413,7.711c0.596,3.177,3.643,5.279,6.825,4.707l6.532-1.177
							c0.913,1.724,1.956,3.376,3.119,4.942l-3.707,5.415c-1.863,2.608-1.259,6.233,1.349,8.097c0.04,0.029,0.081,0.057,0.122,0.085
							l6.357,4.472c2.67,1.828,6.314,1.173,8.179-1.471l3.766-5.473c1.878,0.611,3.808,1.044,5.767,1.294l1.178,6.474
							c0.518,3.166,3.505,5.312,6.671,4.793c0.052-0.008,0.103-0.018,0.154-0.027l4.238-0.765l3.412-0.588
							c3.202-0.601,5.311-3.683,4.711-6.885l-1.178-6.473c1.749-0.893,3.405-1.958,4.944-3.178l5.474,3.766
							c2.671,1.824,6.312,1.169,8.179-1.471l4.469-6.415c1.825-2.691,1.172-6.346-1.471-8.239l-5.475-3.703
							c0.592-1.88,1.006-3.811,1.237-5.768L57.328-107.848z M22.666-86.486c-1.612,0.283-3.246,0.421-4.883,0.411
							C4.189-86.372-6.591-97.632-6.294-111.226c0.297-13.594,11.557-24.373,25.151-24.077c7.669,0.167,14.821,3.9,19.345,10.094
							c2.237,2.979,3.73,6.449,4.355,10.121C44.94-101.701,36.044-88.911,22.666-86.486L22.666-86.486z"/>
						<path id="Tracé_8281" class="st13" d="M42.557-115.091c-0.625-3.672-2.117-7.142-4.354-10.121
							c-8.013-10.991-23.42-13.405-34.411-5.392c-10.991,8.013-13.405,23.42-5.392,34.411c4.529,6.211,11.697,9.952,19.382,10.114
							c1.637,0.01,3.271-0.128,4.884-0.411C36.044-88.914,44.94-101.705,42.557-115.091z M21.077-95.317
							c-1.241,0.234-2.508,0.294-3.765,0.177c-8.622-0.538-15.176-7.964-14.638-16.586c0.538-8.622,7.964-15.176,16.587-14.638
							c4.464,0.279,8.595,2.455,11.35,5.979c1.62,2.008,2.695,4.401,3.119,6.946c1.495,8.496-4.163,16.601-12.654,18.125
							L21.077-95.317z"/>
					</g>
				</g>
			</g>
			
				<linearGradient id="Tracé_8282_1_" gradientUnits="userSpaceOnUse" x1="138.4948" y1="-32.779" x2="139.0987" y2="-32.779" gradientTransform="matrix(82.2909 0 0 -77.7113 -11384.8779 -2597.1917)">
				<stop  offset="0" style="stop-color:#FFFFFF"/>
				<stop  offset="0.256" style="stop-color:#C1C1C1"/>
				<stop  offset="0.845" style="stop-color:#292929"/>
				<stop  offset="1" style="stop-color:#000000"/>
			</linearGradient>
			<path id="Tracé_8282" class="st14" d="M54.142-52.974c-0.176,1.299-0.472,2.58-0.883,3.825l3.649,2.47
				c1.771,1.246,2.217,3.681,1.001,5.473l-2.942,4.297c-1.246,1.771-3.682,2.216-5.473,1l-3.649-2.529
				c-1.016,0.827-2.121,1.538-3.296,2.118l0.765,4.355c0.399,2.127-0.995,4.178-3.119,4.59l-5.119,0.883
				c-2.143,0.391-4.198-1.029-4.589-3.173c0-0.002-0.001-0.003-0.001-0.005l-0.765-4.295c-1.299-0.176-2.58-0.471-3.825-0.883
				l-2.531,3.649c-1.214,1.771-3.634,2.222-5.404,1.008c-0.003-0.002-0.007-0.004-0.01-0.007l-4.295-3.001
				c-1.751-1.205-2.199-3.599-1.001-5.355c0.06-0.06,0.06-0.06,0.06-0.121c2.376-2.315,4.47-4.903,6.238-7.71
				c1.294-1.884,2.472-3.884,3.649-5.825c1.938,5.433,7.914,8.265,13.347,6.327c4.788-1.708,7.651-6.616,6.78-11.625
				c-0.906-4.889-5.093-8.489-10.063-8.65c1.874-1.791,3.971-3.333,6.238-4.59c4.236-2.416,8.827-3.414,13.183-1.884l-2.416,3.532
				c0.828,1.015,1.538,2.12,2.118,3.295l4.355-0.765c2.086-0.408,4.107,0.952,4.515,3.038c0.005,0.027,0.01,0.054,0.015,0.081
				l0.942,5.121c0.399,2.127-0.995,4.178-3.119,4.59L54.142-52.974z"/>
			
				<linearGradient id="Tracé_8283_1_" gradientUnits="userSpaceOnUse" x1="129.6226" y1="-18.9878" x2="130.2265" y2="-18.9878" gradientTransform="matrix(4.191 0 0 -6.041 -467.4558 -147.6109)">
				<stop  offset="0" style="stop-color:#FFFFFF"/>
				<stop  offset="0.256" style="stop-color:#C1C1C1"/>
				<stop  offset="0.845" style="stop-color:#292929"/>
				<stop  offset="1" style="stop-color:#000000"/>
			</linearGradient>
			<path id="Tracé_8283" class="st15" d="M77.799-31.434c-1.137-0.734-1.874-1.949-2.002-3.296
				c0.765,1.235,1.648,2.472,2.531,3.649L77.799-31.434z"/>
			
				<linearGradient id="Tracé_8284_1_" gradientUnits="userSpaceOnUse" x1="138.0815" y1="-32.4764" x2="138.6855" y2="-32.4764" gradientTransform="matrix(116.3068 0 0 -79.9761 -15977.6396 -2606.854)">
				<stop  offset="0" style="stop-color:#FFFFFF"/>
				<stop  offset="0.256" style="stop-color:#C1C1C1"/>
				<stop  offset="0.845" style="stop-color:#292929"/>
				<stop  offset="1" style="stop-color:#000000"/>
			</linearGradient>
			<path id="Tracé_8284" class="st16" d="M143.338-17.228c-0.192,1.557-0.526,3.094-0.999,4.59l4.413,3.001
				c2.119,1.485,2.645,4.4,1.177,6.531l-3.589,5.178c-1.512,2.118-4.439,2.641-6.59,1.178l-4.356-3.06
				c-1.23,0.984-2.55,1.851-3.941,2.59l0.94,5.178c0.475,2.579-1.232,5.055-3.811,5.53c-0.004,0.001-0.009,0.002-0.014,0.002
				l-6.061,1.058c-2.561,0.492-5.036-1.185-5.529-3.747c-0.001-0.007-0.003-0.013-0.004-0.02l-0.94-5.238
				c-1.56-0.18-3.097-0.515-4.59-1.001l-3.06,4.356c-1.484,2.119-4.4,2.645-6.531,1.177l-5.119-3.589
				c-2.129-1.477-2.657-4.4-1.18-6.529c0.001-0.001,0.002-0.003,0.003-0.004L96.557-4.4c-0.944-1.247-1.79-2.565-2.529-3.943
				L88.79-7.401c-2.544,0.444-4.966-1.258-5.41-3.801c-0.001-0.008-0.003-0.016-0.004-0.024l-1.119-6.121
				c-0.473-2.55,1.211-5,3.761-5.472c0.002,0,0.003-0.001,0.005-0.001l5.239-0.942c0.118-1.134,0.335-2.256,0.647-3.353
				c1.757,1.7,3.713,3.182,5.826,4.413c2.24,1.307,4.631,2.335,7.121,3.06c0.01,0.473,0.049,0.944,0.117,1.412
				c1.252,6.783,7.748,11.28,14.537,10.063c6.378-1.125,10.814-6.972,10.18-13.417c1.42-0.71,2.778-1.537,4.061-2.472
				c0.86-0.62,1.668-1.309,2.416-2.061c2.111-1.873,3.848-4.13,5.119-6.65l4.53-0.824c2.518-0.467,4.938,1.195,5.405,3.713
				c0.003,0.018,0.007,0.036,0.01,0.054l1.119,6.179c0.455,2.548-1.224,4.988-3.766,5.473L143.338-17.228z"/>
			
				<linearGradient id="Tracé_8285_1_" gradientUnits="userSpaceOnUse" x1="137.8164" y1="-33.3181" x2="138.4203" y2="-33.3181" gradientTransform="matrix(74.4878 0 0 -99.973 -10175.8857 -3428.8149)">
				<stop  offset="0" style="stop-color:#FFFFFF"/>
				<stop  offset="0.256" style="stop-color:#C1C1C1"/>
				<stop  offset="0.845" style="stop-color:#292929"/>
				<stop  offset="1" style="stop-color:#000000"/>
			</linearGradient>
			<path id="Tracé_8285" class="st17" d="M123.356-106.673c-0.231,1.957-0.645,3.888-1.237,5.768l5.473,3.707
				c2.643,1.893,3.296,5.548,1.471,8.239l-4.469,6.415c-1.868,2.641-5.508,3.296-8.179,1.471l-5.473-3.766
				c-1.539,1.22-3.195,2.285-4.944,3.178l1.178,6.473c0.6,3.202-1.509,6.284-4.711,6.885l-3.412,0.588
				c-4.582-5.173-7.603-11.539-8.71-18.36c-0.569-2.985-0.727-6.034-0.471-9.062c1.257,0.116,2.524,0.057,3.765-0.177
				c8.49-1.525,14.148-9.629,12.653-18.125c-0.425-2.545-1.499-4.937-3.119-6.946c1.73-1.46,3.603-2.742,5.591-3.825
				c0.647-0.352,1.353-0.706,2-1c2.51-1.212,5.131-2.179,7.827-2.885c0.488,0.711,0.92,1.458,1.294,2.235l6.533-1.177
				c3.172-0.593,6.224,1.497,6.817,4.669c0.003,0.014,0.005,0.028,0.008,0.042l1.412,7.65c0.553,3.198-1.574,6.243-4.767,6.825
				L123.356-106.673z"/>
		</g>
	</g>
</g>
</svg>
