<?xml version="1.0" encoding="utf-8"?>
<!-- Generator: Adobe Illustrator 25.1.0, SVG Export Plug-In . SVG Version: 6.00 Build 0)  -->
<svg version="1.1" id="Calque_1" xmlns="http://www.w3.org/2000/svg" xmlns:xlink="http://www.w3.org/1999/xlink" x="0px" y="0px"
	 viewBox="0 0 580.198 551.749" style="enable-background:new 0 0 580.198 551.749;" xml:space="preserve">
<style type="text/css">
	.st0{fill:#F1EFF8;}
	.st1{opacity:0.5;fill:url(#Tracé_8251_1_);enable-background:new    ;}
	.st2{opacity:0.5;fill:url(#Tracé_8253_1_);enable-background:new    ;}
	.st3{opacity:0.5;fill:url(#Tracé_8254_1_);enable-background:new    ;}
	.st4{fill:#F4BC84;}
	.st5{fill:#1B2C7B;}
	.st6{fill:#000074;}
	.st7{fill:#091038;}
	.st8{fill:#FFFFFF;}
	.st9{fill:#F71336;}
	.st10{fill:#E90566;}
	.st11{opacity:0.7;fill:url(#Tracé_8282_1_);enable-background:new    ;}
	.st12{opacity:0.7;fill:url(#Tracé_8283_1_);enable-background:new    ;}
	.st13{opacity:0.7;fill:url(#Tracé_8284_1_);enable-background:new    ;}
	.st14{opacity:0.7;fill:url(#Tracé_8285_1_);enable-background:new    ;}
	.st15{fill:#FF7CB9;}
	.st16{fill:#FC5197;}
	.st17{fill:#E30A6C;}
	.st18{fill:#E6FFFF;}
	.st19{fill:#E7F2FF;}
	.st20{fill:#D9F2FF;}
</style>
<g id="Groupe_3243" transform="translate(-109.042 -740.054)">
	<g id="Groupe_3097" transform="translate(-1124.717 592.16)">
		<g id="Partnership_Strategic" transform="translate(1233.76 242)">
			<g id="Groupe_3074">
				<g id="Groupe_3072" transform="translate(44.033 621.154)">
					<path id="Tracé_8250" class="st0" d="M448.534-202.661c-53.994-15.908-105.21-12.815-151.273-4.302
						c-44.316,8.199-83.835,21.464-116.411,27.647c-57.265,10.888-105.389,23.659-168.974-18.775
						c-19.043-12.726-9.319-34.054,29.395-51.843c40.731-18.82,113.546-33.786,218.756-30.918
						C582.557-272.115,550.609-172.506,448.534-202.661z"/>
					
						<linearGradient id="Tracé_8251_1_" gradientUnits="userSpaceOnUse" x1="146.2151" y1="-338.2205" x2="146.3157" y2="-338.8337" gradientTransform="matrix(492.3519 0 0 -156.1813 -71874.1484 -53099.2773)">
						<stop  offset="0" style="stop-color:#FFFFFF"/>
						<stop  offset="0.085" style="stop-color:#F5F5F5"/>
						<stop  offset="0.229" style="stop-color:#DADADA"/>
						<stop  offset="0.413" style="stop-color:#AFAFAF"/>
						<stop  offset="0.631" style="stop-color:#747474"/>
						<stop  offset="0.876" style="stop-color:#292929"/>
						<stop  offset="1" style="stop-color:#000000"/>
					</linearGradient>
					<path id="Tracé_8251" class="st1" d="M297.261-206.963c-44.316,8.199-83.835,21.464-116.411,27.647
						c-57.265,10.888-105.389,23.659-168.974-18.775c-19.043-12.726-9.319-34.054,29.395-51.843
						c26.707-7.707,59.507-12.233,94.95-12.233C217.771-262.168,285.296-238.195,297.261-206.963z"/>
				</g>
				<g id="Groupe_3073">
					<path id="Tracé_8252" class="st0" d="M371.628,280.213c-5.322-3.505-11.201-6.081-17.385-7.618
						c-6.075-1.57-12.322-2.383-18.596-2.42c-20.3-0.403-43.42,5.422-67.84,12.503c-7.034,2.016-14.114,4.122-21.328,6.273
						c-34.681,10.306-71.111,20.432-105.256,17.565c-20.523-1.702-40.241-8.066-58.296-22
						c-20.254-15.505-38.358-40.462-53.143-78.775c-0.359-0.94-0.719-1.882-0.986-2.822c-16.221-44.45-8.29-86.346,11.561-119.505
						c38.4-64.212,121.386-95.847,161.311-50.366c47.452,53.996,99.161,49.066,126.225,24.601
						c7.607-6.733,13.322-15.337,16.58-24.959C358.188-9.07,425.4-53.923,481.052-20.139c1.971,1.211,3.763,2.421,5.377,3.629
						c38.085,28.589-11.785,65.914,0.94,124.568c13.218,61.164,59.193,22.986,71.739,79.045
						C574.836,257.63,443.145,327.621,371.628,280.213z"/>
					
						<linearGradient id="Tracé_8253_1_" gradientUnits="userSpaceOnUse" x1="189.5981" y1="281.3979" x2="190.1969" y2="281.3979" gradientTransform="matrix(416.8551 0 0 -521.4052 -78724.1328 146861.8906)">
						<stop  offset="0" style="stop-color:#FFFFFF"/>
						<stop  offset="0.085" style="stop-color:#F5F5F5"/>
						<stop  offset="0.229" style="stop-color:#DADADA"/>
						<stop  offset="0.413" style="stop-color:#AFAFAF"/>
						<stop  offset="0.631" style="stop-color:#747474"/>
						<stop  offset="0.876" style="stop-color:#292929"/>
						<stop  offset="1" style="stop-color:#000000"/>
					</linearGradient>
					<path id="Tracé_8253" class="st2" d="M371.628,280.214c-5.322-3.505-11.2-6.081-17.384-7.618
						c-6.076-1.57-12.322-2.383-18.597-2.42c-14.788-26.147-23.229-55.401-24.644-85.407c-0.134-3.092-0.225-6.228-0.225-9.366
						c0-100.684,77.206-183.312,175.651-191.915c38.085,28.589-11.786,65.914,0.94,124.568
						c13.218,61.164,59.193,22.986,71.739,79.045C574.836,257.63,443.144,327.621,371.628,280.214z"/>
					
						<linearGradient id="Tracé_8254_1_" gradientUnits="userSpaceOnUse" x1="190.0282" y1="281.2101" x2="190.627" y2="281.2101" gradientTransform="matrix(480.17 0 0 -217.8571 -91205.5 61340.4648)">
						<stop  offset="0" style="stop-color:#FFFFFF"/>
						<stop  offset="0.085" style="stop-color:#F5F5F5"/>
						<stop  offset="0.229" style="stop-color:#DADADA"/>
						<stop  offset="0.413" style="stop-color:#AFAFAF"/>
						<stop  offset="0.631" style="stop-color:#747474"/>
						<stop  offset="0.876" style="stop-color:#292929"/>
						<stop  offset="1" style="stop-color:#000000"/>
					</linearGradient>
					<path id="Tracé_8254" class="st3" d="M327.895,57.649c-32.353,50.768-89.123,84.42-153.739,84.42
						c-50.85,0.072-99.395-21.209-133.798-58.655c38.401-64.212,121.386-95.847,161.311-50.366
						C249.122,87.044,300.832,82.114,327.895,57.649z"/>
				</g>
			</g>
			<g id="Groupe_3086" transform="translate(360.808 283.736)">
				<g id="Groupe_3085" transform="translate(0)">
					<g id="Groupe_3079" transform="translate(51.648 185.758)">
						<g id="Groupe_3078" transform="translate(41.436 242.008)">
							<path id="Tracé_8261" class="st4" d="M-153.35-314.594l1.635,6.476l-6.134,7.964l18.314-8.05l-3.279-3.527l-1.722-5.721
								L-153.35-314.594z"/>
							<path id="Tracé_8262" class="st5" d="M-141.672-310.88c-3.074,3.067-6.754,5.402-12.329,5.449l-7.767,9.402
								c-2.925,6.034,22.799-4.98,24.118-9.364C-137.495-307.678-139.061-310.71-141.672-310.88z"/>
						</g>
						<path id="Tracé_8263" class="st6" d="M-112.162-220.364c5.905,22.882,1.959,40.376-0.351,67.759l11.217,77.398l-11.124,3.606
							l-26.07-84.194c-2.131-13.526-11.808-44.998-3.713-53.768L-112.162-220.364z"/>
					</g>
					<g id="Groupe_3081" transform="translate(0 178.361)">
						<g id="Groupe_3080" transform="translate(0 238.072)">
							<path id="Tracé_8264" class="st4" d="M-111.372-312.359l-0.049,6.679l-7.942,6.163l19.751-3.179l-2.285-4.239l-0.225-5.97
								L-111.372-312.359z"/>
							<path id="Tracé_8265" class="st5" d="M-101.005-305.822c-3.748,2.192-7.897,3.526-13.303,2.167l-9.885,7.143
								c-4.35,5.104,23.319,0.922,25.699-2.988C-97.768-301.672-98.52-305.001-101.005-305.822z"/>
						</g>
						<path id="Tracé_8266" class="st6" d="M-74.36-217.396c-0.086,23.685-8.272,39.622-17.415,65.484l-8.623,77.764l-1.741,0.086
							l-9.231,0.609h-0.695l-4.094-88.037c0.784-7.665,0.697-21.423,2.177-33.178v-0.087c0.175-1.045,0.35-2.089,0.523-3.134
							c1.219-7.665,3.395-14.108,7.315-16.546L-74.36-217.396z"/>
					</g>
					<g id="Groupe_3082" transform="translate(15.49)">
						<path id="Tracé_8268" class="st4" d="M-106.786-111.151c1.562-1.677,1.617-7.388,1.878-12.558l9.659-1.251
							c0.038,4.83,0.371,9.282,1.623,12.533C-97.764-107.141-105.291-106.849-106.786-111.151z"/>
						<path id="Tracé_8269" class="st4" d="M-106.628-112.149c4.401-0.805,8.773-8.513,12.354-14.351l-16.925-18.465
							l-15.077,14.175C-123.964-122.519-111.17-112.411-106.628-112.149z"/>
						<path id="Tracé_8270" class="st7" d="M-96.557-123.404l-5.762-0.934l-3.022-6.187l-3.16-0.083l1.784,5.101l-1.348,0.952
							l-4.528-5.9l-9.488,11.267l-8.79-7.291l5.418-12.815l12.448-6.551c0,0,13.579,2.85,13.81,3.005s4.921,16.335,4.921,16.335
							L-96.557-123.404z"/>
					</g>
					<path id="Tracé_8271" class="st8" d="M-77.32-17.513l12.493,10.816l-1.557,1.252l-12.103-10.905L-77.32-17.513z"/>
					<path id="Tracé_8272" class="st8" d="M-109.191-21.88l-4.791,5.485c0.175-1.045,0.35-2.089,0.523-3.134l3.135-3.483
						L-109.191-21.88z"/>
					<path id="Tracé_8275" class="st7" d="M-92.573-124.554l1.904,7.777l-4.948,2.874l2.616,3.152l3.301-0.295l2.053-3.943
						l-3.579-10.513L-92.573-124.554z"/>
					<path id="Union_4" class="st9" d="M-74.795-14.217l4.156-11.152c-15.265-0.239-29.462-1.625-40.224-6.724l1.306,11.754
						c-0.327-1.796-1.529-0.224-2.625,1.348c-1.004,1.441-1.92,2.882-1.991,1.73l-9.232-41.542l13.829-43.1
						c0.321-1.328,0.714-2.637,1.177-3.922c0.06-0.105,0.12-0.209,0.18-0.312l0.313-0.975c0.678-0.7,1.474-1.275,2.352-1.697
						c9.472-6.539,35.399-6.418,47.83-1.055c2.163-1.18,4.291-0.892,5.735,1.94c7.189,18.131,13.385,38.811,13.074,46.169
						c0.054,1.482-0.083,2.581-0.439,3.211l-17.898,29.518l-0.272,3.637c-0.655,0.009-1.308,0.017-1.961,0.024L-69.222-9.43
						L-74.795-14.217z M-111.072-33.983c0.037-0.071,0.074-0.145,0.109-0.217c-0.043,0.009-0.087,0.014-0.132,0.014L-111.072-33.983
						z"/>
				</g>
			</g>
		</g>
		<g id="Groupe_3096" transform="translate(1285.324 571.126)">
			<g id="Groupe_3089" transform="translate(0 115.33)">
				<g id="Groupe_3088">
					<g id="Groupe_3087">
						<path id="Tracé_8276" class="st5" d="M54.249-179.382c2.107-0.409,3.488-2.442,3.093-4.551l-0.934-5.077
							c-0.36-2.076-2.336-3.467-4.412-3.107c-0.026,0.005-0.053,0.009-0.079,0.015l-4.317,0.759c-0.575-1.164-1.28-2.26-2.1-3.267
							l2.395-3.502l0.116-0.116c1.226-1.759,0.811-4.177-0.932-5.427l-4.26-2.917c-1.78-1.186-4.181-0.748-5.427,0.991l-2.508,3.559
							c-1.237-0.375-2.507-0.629-3.792-0.759l-0.759-4.376c-0.416-2.102-2.444-3.479-4.551-3.092l-5.019,0.934
							c-2.081,0.328-3.502,2.281-3.174,4.362c0.007,0.043,0.014,0.086,0.023,0.129l0.759,4.318c-1.156,0.59-2.25,1.294-3.267,2.102
							l-3.617-2.51c-1.752-1.209-4.152-0.77-5.361,0.982c-0.002,0.003-0.005,0.007-0.007,0.01l-2.919,4.2
							c-1.23,1.743-0.814,4.153,0.929,5.383c0.021,0.015,0.042,0.029,0.063,0.044l3.559,2.51c-0.361,1.243-0.634,2.511-0.817,3.792
							l-4.317,0.759c-2.113,0.408-3.513,2.43-3.151,4.551l0.934,5.076c0.388,2.093,2.397,3.477,4.491,3.093l4.319-0.759
							c0.632,1.132,1.333,2.223,2.1,3.268l-2.451,3.559c0,0.06,0,0.06-0.06,0.12c-1.188,1.741-0.744,4.115,0.992,5.31l4.259,2.976
							c1.752,1.209,4.152,0.769,5.361-0.982c0.002-0.003,0.004-0.007,0.007-0.01l2.51-3.617c1.234,0.408,2.504,0.701,3.792,0.875
							l0.759,4.259c0.385,2.126,2.42,3.537,4.546,3.152c0.002,0,0.003-0.001,0.005-0.001l5.076-0.875
							c2.107-0.409,3.488-2.442,3.093-4.551l-0.758-4.318c1.164-0.576,2.261-1.28,3.268-2.1l3.617,2.508
							c1.776,1.206,4.191,0.765,5.427-0.991l2.917-4.261c1.206-1.777,0.764-4.192-0.992-5.427l-3.617-2.449
							c0.408-1.235,0.701-2.504,0.876-3.792L54.249-179.382z M31.318-165.321c-6.289,1.18-12.679-1.477-16.278-6.767
							c-1.321-1.886-2.217-4.036-2.626-6.302c-1.626-8.84,4.222-17.325,13.062-18.952c8.84-1.626,17.325,4.222,18.952,13.062
							c1.626,8.84-4.222,17.325-13.062,18.952c-0.016,0.003-0.031,0.006-0.047,0.009V-165.321z"/>
						<path id="Tracé_8277" class="st10" d="M44.446-184.168c-0.978-5.387-4.594-9.924-9.627-12.078
							c-8.249-3.534-17.801,0.287-21.335,8.536c-3.534,8.249,0.287,17.801,8.536,21.335c2.929,1.255,6.162,1.621,9.297,1.053
							C40.139-166.913,46.011-175.342,44.446-184.168z M30.268-171.156c-4.998,0.953-9.94-1.901-11.612-6.707
							c-0.164-0.518-0.3-1.044-0.408-1.576c-1.045-5.619,2.663-11.022,8.282-12.067c0.021-0.004,0.041-0.008,0.062-0.011
							c0.675-0.114,1.357-0.173,2.041-0.175c4.928,0.16,9.08,3.728,9.978,8.576C39.604-177.511,35.871-172.16,30.268-171.156
							L30.268-171.156z"/>
					</g>
				</g>
			</g>
			<g id="Groupe_3092" transform="translate(130.793 163.79)">
				<g id="Groupe_3091">
					<g id="Groupe_3090">
						<path id="Tracé_8278" class="st5" d="M12.771-192.575c2.521-0.481,4.186-2.9,3.734-5.427l-1.109-6.127
							c-0.434-2.502-2.814-4.178-5.315-3.744c-0.018,0.003-0.036,0.006-0.053,0.01l-4.491,0.817l-0.7,0.12
							c-0.719-1.388-1.579-2.699-2.568-3.91l3.034-4.376c1.457-2.113,0.936-5.005-1.166-6.477l-5.076-3.5
							c-2.132-1.462-5.042-0.942-6.536,1.168l-2.976,4.259c-1.508-0.44-3.05-0.753-4.611-0.934l-0.932-5.193
							c-0.429-2.525-2.824-4.225-5.349-3.796c-0.007,0.001-0.014,0.002-0.021,0.004l-6.067,1.108
							c-2.546,0.451-4.244,2.88-3.794,5.427l0.934,5.194c-1.389,0.725-2.716,1.564-3.967,2.508l-4.319-2.976
							c-2.113-1.456-5.005-0.934-6.476,1.168l-3.502,5.076c-0.66,0.932-0.951,2.076-0.817,3.21c0.126,1.335,0.857,2.539,1.984,3.267
							l0.525,0.351l3.792,2.683c-0.117,0.41-0.232,0.817-0.349,1.226c-0.309,1.088-0.524,2.2-0.641,3.325l-5.194,0.934
							c-2.528,0.466-4.201,2.893-3.735,5.421c0,0.002,0.001,0.003,0.001,0.005l1.11,6.068c0.427,2.524,2.82,4.224,5.344,3.796
							c0.008-0.001,0.016-0.003,0.023-0.004l5.193-0.934c0.733,1.366,1.572,2.674,2.508,3.91l-2.976,4.318
							c-1.467,2.109-0.946,5.008,1.164,6.475c0.001,0.001,0.003,0.002,0.004,0.003l5.078,3.556c2.113,1.457,5.006,0.936,6.478-1.167
							l3.034-4.319c1.48,0.482,3.005,0.814,4.551,0.992l0.932,5.193c0.477,2.542,2.924,4.215,5.466,3.738
							c0.007-0.001,0.013-0.002,0.02-0.004l6.01-1.05c2.559-0.463,4.258-2.912,3.795-5.471c-0.001-0.005-0.002-0.01-0.003-0.015
							l-0.932-5.134c1.38-0.732,2.688-1.592,3.908-2.568l4.319,3.034c2.134,1.451,5.035,0.932,6.534-1.168l3.559-5.134
							c1.456-2.113,0.935-5.004-1.167-6.476l-4.376-2.976c0.469-1.483,0.801-3.007,0.99-4.551L12.771-192.575z M-14.77-175.652
							c-10.617,1.917-20.778-5.135-22.695-15.752c0-0.001,0-0.002-0.001-0.003c-0.349-1.866-0.409-3.775-0.175-5.659
							c1.196-10.711,10.849-18.424,21.56-17.227c7.795,0.871,14.31,6.323,16.542,13.842c0.229,0.686,0.404,1.389,0.525,2.102
							c1.919,10.616-5.132,20.777-15.747,22.696C-14.764-175.653-14.767-175.653-14.77-175.652z"/>
						<path id="Tracé_8279" class="st10" d="M0.982-198.351c-0.121-0.713-0.296-1.416-0.525-2.102
							c-3.07-10.331-13.933-16.218-24.264-13.148c-7.514,2.233-12.963,8.745-13.835,16.536c-0.233,1.884-0.174,3.793,0.175,5.659
							c1.917,10.618,12.079,17.672,22.697,15.755c10.618-1.917,17.672-12.079,15.755-22.697L0.982-198.351z M-16.055-182.656
							c-6.731,1.206-13.172-3.253-14.414-9.978c-0.067-0.464-0.105-0.931-0.116-1.4c-0.517-6.823,4.595-12.773,11.417-13.29
							c6.371-0.483,12.064,3.959,13.146,10.256c0.078,0.364,0.098,0.739,0.06,1.11c0.629,6.39-3.768,12.187-10.091,13.303
							L-16.055-182.656z"/>
					</g>
				</g>
			</g>
			<g id="Groupe_3095" transform="translate(72.56)">
				<g id="Groupe_3094">
					<g id="Groupe_3093">
						<path id="Tracé_8280" class="st5" d="M52.473-117.7c3.165-0.576,5.275-3.596,4.726-6.767l-1.4-7.585
							c-0.565-3.149-3.575-5.243-6.724-4.679c-0.014,0.003-0.028,0.005-0.043,0.008l-6.477,1.167c-0.371-0.77-0.8-1.511-1.283-2.216
							c-0.575-0.927-1.198-1.822-1.868-2.683l3.792-5.427c1.809-2.668,1.162-6.292-1.459-8.169l-6.359-4.318
							c-2.646-1.821-6.266-1.17-8.112,1.459l-3.792,5.368c-1.841-0.594-3.737-1.004-5.659-1.226l-1.226-6.476
							c-0.555-3.152-3.552-5.264-6.707-4.727l-7.585,1.4c-3.166,0.552-5.285,3.566-4.733,6.732c0.002,0.012,0.004,0.023,0.006,0.035
							l1.168,6.477c-1.717,0.893-3.356,1.927-4.9,3.092l-5.427-3.677c-2.628-1.815-6.229-1.162-8.053,1.46l-4.376,6.301
							c-1.845,2.593-1.239,6.191,1.354,8.037c0.035,0.025,0.07,0.049,0.105,0.073l5.368,3.794c-0.587,1.843-0.998,3.738-1.225,5.659
							l-6.477,1.167c-3.151,0.599-5.249,3.602-4.726,6.767l1.401,7.645c0.591,3.15,3.612,5.234,6.767,4.667l6.476-1.167
							c0.906,1.709,1.939,3.347,3.092,4.9l-3.676,5.368c-1.847,2.586-1.248,6.18,1.338,8.028c0.04,0.029,0.08,0.057,0.121,0.084
							l6.303,4.434c2.647,1.812,6.26,1.163,8.11-1.459l3.734-5.427c1.862,0.605,3.776,1.035,5.718,1.283l1.168,6.419
							c0.514,3.139,3.475,5.266,6.614,4.752c0.051-0.008,0.102-0.017,0.153-0.027l4.202-0.759l3.383-0.583
							c3.175-0.596,5.266-3.652,4.671-6.827l-1.168-6.418c1.734-0.886,3.376-1.941,4.902-3.151l5.427,3.734
							c2.648,1.809,6.258,1.159,8.11-1.459l4.431-6.361c1.809-2.668,1.162-6.292-1.459-8.169l-5.428-3.671
							c0.587-1.864,0.997-3.778,1.226-5.719L52.473-117.7z M18.106-96.519c-1.598,0.281-3.219,0.417-4.841,0.408
							c-13.478-0.294-24.166-11.459-23.872-24.937c0.294-13.478,11.459-24.166,24.937-23.872
							c7.604,0.166,14.695,3.866,19.181,10.008c2.218,2.953,3.698,6.394,4.317,10.035C40.191-111.605,31.37-98.923,18.106-96.519
							L18.106-96.519z"/>
						<path id="Tracé_8281" class="st10" d="M37.827-124.88c-0.619-3.641-2.099-7.081-4.317-10.034
							c-7.945-10.898-23.22-13.291-34.118-5.346c-10.898,7.945-13.291,23.22-5.346,34.118c4.49,6.158,11.598,9.867,19.217,10.028
							c1.623,0.01,3.244-0.127,4.842-0.408C31.371-98.927,40.19-111.609,37.827-124.88z M16.53-105.275
							c-1.23,0.232-2.487,0.291-3.733,0.175c-8.549-0.534-15.047-7.896-14.513-16.445c0.534-8.549,7.896-15.047,16.445-14.513
							c4.426,0.276,8.522,2.434,11.253,5.928c1.606,1.991,2.672,4.363,3.093,6.886c1.483,8.424-4.127,16.46-12.546,17.971
							L16.53-105.275z"/>
					</g>
				</g>
			</g>
			
				<linearGradient id="Tracé_8282_1_" gradientUnits="userSpaceOnUse" x1="138.448" y1="-46.5918" x2="139.0468" y2="-46.5918" gradientTransform="matrix(82.2909 0 0 -77.7113 -11384.8779 -3680.9521)">
				<stop  offset="0" style="stop-color:#FFFFFF"/>
				<stop  offset="0.256" style="stop-color:#C1C1C1"/>
				<stop  offset="0.845" style="stop-color:#292929"/>
				<stop  offset="1" style="stop-color:#000000"/>
			</linearGradient>
			<path id="Tracé_8282" class="st11" d="M49.931-63.293c-0.175,1.288-0.468,2.558-0.876,3.792l3.617,2.449
				c1.756,1.235,2.198,3.65,0.992,5.427l-2.917,4.261c-1.235,1.756-3.65,2.197-5.427,0.991l-3.617-2.508
				c-1.007,0.82-2.103,1.525-3.268,2.1l0.758,4.318c0.396,2.109-0.986,4.142-3.093,4.551l-5.076,0.875
				c-2.125,0.388-4.162-1.021-4.55-3.146c0-0.002-0.001-0.003-0.001-0.005l-0.759-4.259c-1.288-0.174-2.558-0.467-3.792-0.875
				l-2.51,3.617c-1.204,1.755-3.603,2.203-5.358,0.999c-0.003-0.002-0.007-0.004-0.01-0.007l-4.259-2.976
				c-1.737-1.195-2.18-3.569-0.992-5.31c0.06-0.06,0.06-0.06,0.06-0.12c2.356-2.295,4.432-4.861,6.185-7.644
				c1.283-1.868,2.451-3.851,3.617-5.776c1.922,5.387,7.847,8.195,13.233,6.273c4.747-1.694,7.585-6.56,6.722-11.526
				c-0.898-4.848-5.05-8.417-9.978-8.576c1.858-1.776,3.937-3.305,6.185-4.551c4.2-2.395,8.752-3.385,13.071-1.868l-2.395,3.502
				c0.821,1.006,1.525,2.102,2.1,3.267l4.317-0.759c2.068-0.404,4.072,0.944,4.476,3.012c0.005,0.027,0.01,0.053,0.015,0.08
				l0.934,5.077c0.396,2.109-0.986,4.142-3.093,4.551L49.931-63.293z"/>
			
				<linearGradient id="Tracé_8283_1_" gradientUnits="userSpaceOnUse" x1="128.574" y1="-31.1975" x2="129.1728" y2="-31.1975" gradientTransform="matrix(4.191 0 0 -6.041 -467.4558 -231.8584)">
				<stop  offset="0" style="stop-color:#FFFFFF"/>
				<stop  offset="0.256" style="stop-color:#C1C1C1"/>
				<stop  offset="0.845" style="stop-color:#292929"/>
				<stop  offset="1" style="stop-color:#000000"/>
			</linearGradient>
			<path id="Tracé_8283" class="st12" d="M73.387-41.936c-1.127-0.728-1.858-1.932-1.984-3.268c0.759,1.225,1.634,2.451,2.51,3.617
				L73.387-41.936z"/>
			
				<linearGradient id="Tracé_8284_1_" gradientUnits="userSpaceOnUse" x1="138.0433" y1="-46.2888" x2="138.6421" y2="-46.2888" gradientTransform="matrix(116.3068 0 0 -79.9761 -15977.6396 -3722.1995)">
				<stop  offset="0" style="stop-color:#FFFFFF"/>
				<stop  offset="0.256" style="stop-color:#C1C1C1"/>
				<stop  offset="0.845" style="stop-color:#292929"/>
				<stop  offset="1" style="stop-color:#000000"/>
			</linearGradient>
			<path id="Tracé_8284" class="st13" d="M138.368-27.851c-0.19,1.544-0.522,3.068-0.99,4.551l4.376,2.976
				c2.101,1.472,2.622,4.363,1.167,6.476l-3.559,5.134c-1.499,2.1-4.401,2.619-6.534,1.168l-4.319-3.034
				c-1.22,0.976-2.528,1.836-3.908,2.568l0.932,5.134c0.471,2.558-1.221,5.012-3.779,5.483c-0.004,0.001-0.009,0.002-0.013,0.002
				l-6.01,1.049c-2.539,0.488-4.994-1.175-5.482-3.715c-0.001-0.007-0.002-0.013-0.004-0.02l-0.932-5.193
				c-1.546-0.178-3.071-0.511-4.551-0.992l-3.034,4.319c-1.472,2.101-4.362,2.622-6.475,1.167l-5.076-3.559
				c-2.111-1.464-2.635-4.363-1.17-6.473c0.001-0.001,0.002-0.003,0.003-0.004l2.976-4.318c-0.936-1.236-1.775-2.543-2.508-3.91
				l-5.193,0.934c-2.522,0.44-4.923-1.247-5.364-3.769c-0.001-0.008-0.003-0.016-0.004-0.023l-1.11-6.068
				c-0.468-2.528,1.201-4.957,3.729-5.426c0.002,0,0.003-0.001,0.005-0.001l5.194-0.934c0.117-1.125,0.332-2.237,0.641-3.325
				c1.742,1.686,3.682,3.155,5.776,4.376c2.221,1.296,4.592,2.315,7.06,3.034c0.01,0.469,0.049,0.936,0.116,1.4
				c1.241,6.725,7.682,11.184,14.414,9.978c6.324-1.115,10.722-6.912,10.093-13.303c1.408-0.704,2.754-1.524,4.026-2.451
				c0.853-0.615,1.654-1.298,2.395-2.043c2.093-1.858,3.815-4.095,5.076-6.593l4.491-0.817c2.496-0.463,4.896,1.185,5.359,3.681
				c0.003,0.018,0.007,0.035,0.01,0.053l1.109,6.127c0.452,2.526-1.213,4.946-3.734,5.427L138.368-27.851z"/>
			
				<linearGradient id="Tracé_8285_1_" gradientUnits="userSpaceOnUse" x1="137.7558" y1="-47.1647" x2="138.3546" y2="-47.1647" gradientTransform="matrix(74.4878 0 0 -99.973 -10175.8857 -4823.0371)">
				<stop  offset="0" style="stop-color:#FFFFFF"/>
				<stop  offset="0.256" style="stop-color:#C1C1C1"/>
				<stop  offset="0.845" style="stop-color:#292929"/>
				<stop  offset="1" style="stop-color:#000000"/>
			</linearGradient>
			<path id="Tracé_8285" class="st14" d="M118.557-116.534c-0.229,1.94-0.64,3.855-1.226,5.719l5.427,3.676
				c2.621,1.877,3.268,5.501,1.459,8.169l-4.431,6.361c-1.852,2.618-5.462,3.267-8.11,1.459l-5.427-3.734
				c-1.526,1.21-3.168,2.265-4.902,3.151l1.168,6.418c0.595,3.175-1.496,6.231-4.671,6.827l-3.383,0.583
				c-4.543-5.129-7.538-11.441-8.636-18.204c-0.564-2.96-0.721-5.983-0.467-8.985c1.246,0.116,2.503,0.056,3.732-0.175
				c8.418-1.512,14.028-9.547,12.545-17.971c-0.421-2.523-1.487-4.895-3.093-6.886c1.715-1.448,3.573-2.719,5.544-3.792
				c0.642-0.349,1.342-0.7,1.983-0.991c2.488-1.202,5.088-2.16,7.761-2.861c0.484,0.705,0.913,1.445,1.283,2.216l6.477-1.167
				c3.145-0.588,6.171,1.485,6.759,4.629c0.003,0.014,0.005,0.028,0.008,0.041l1.4,7.585c0.548,3.17-1.561,6.19-4.726,6.767
				L118.557-116.534z"/>
		</g>
	</g>
	<g id="Groupe_3153" transform="translate(542.122 740.054)">
		<path id="Tracé_8390" class="st15" d="M-89.592,15.839l10.958,20.053l-10.958,60.43h-20.268l-3.493-2.855l-38.588-31.531
			c-1.738-1.129-2.232-3.454-1.103-5.192c0.286-0.441,0.662-0.817,1.103-1.103l60.392-39.198
			C-90.965,16.064-90.287,15.856-89.592,15.839z"/>
		<path id="Tracé_8391" class="st16" d="M-25.534,58.788c0,1.27-0.642,2.454-1.707,3.146l-42.397,27.597l-0.656,0.428
			c-0.609,0.397-1.32,0.608-2.047,0.608h-17.252V15.839c0.756-0.02,1.501,0.191,2.134,0.605l38.777,25.243l21.438,13.953
			c1.065,0.692,1.707,1.876,1.707,3.146L-25.534,58.788z"/>
		<path id="Tracé_8392" class="st16" d="M-89.592,90.567v43.289h-60.304c-2.072-0.003-3.75-1.682-3.753-3.753V58.788
			c-0.001,1.271,0.643,2.456,1.709,3.148l42.513,27.595l0.666,0.431c0.609,0.395,1.319,0.605,2.044,0.605L-89.592,90.567z"/>
		<path id="Tracé_8393" class="st17" d="M-25.534,58.788v71.314c-0.003,2.072-1.682,3.75-3.753,3.753h-60.304V90.567h17.25
			c0.727,0.001,1.438-0.211,2.047-0.608l0.656-0.428l19.252-12.532l23.146-15.066C-26.176,61.241-25.534,60.057-25.534,58.788
			L-25.534,58.788z"/>
		<path id="Tracé_8394" class="st15" d="M-89.592,90.567l6.955,18.35l-6.955,24.939h-60.304c-0.993,0.002-1.946-0.393-2.647-1.096
			l39.191-39.293l3.926-3.936l0.666,0.431c0.609,0.395,1.319,0.605,2.044,0.605H-89.592z"/>
		<path id="Tracé_8395" class="st16" d="M-26.642,132.762c-0.701,0.701-1.653,1.095-2.645,1.093h-60.304V90.567h17.25
			c0.727,0.001,1.438-0.211,2.047-0.608l0.656-0.428L-26.642,132.762z"/>
		<path id="Tracé_8396" class="st18" d="M-77.688,38.496l-0.571,2.492l-0.893,3.906L-82.5,59.535l-7.094,31.03h-17.126
			c-0.726,0-1.436-0.21-2.044-0.605l-20.031-13c-1.066-0.692-1.71-1.877-1.709-3.148V46.955l3.713-3.755l-3.713-3.752V9.494
			c0.001-2.073,1.681-3.753,3.753-3.753h37.159l9.951,27.382L-77.688,38.496z"/>
		<path id="Tracé_8397" class="st19" d="M-50.186,76.859c0.124-0.094,0.243-0.195,0.355-0.303
			C-49.942,76.666-50.061,76.767-50.186,76.859z"/>
		<path id="Tracé_8398" class="st19" d="M-48.86,75.002c-0.141,0.441-0.363,0.852-0.656,1.211
			C-49.225,75.853-49.003,75.443-48.86,75.002z"/>
		<path id="Tracé_8399" class="st20" d="M-48.68,9.494v29.954l-3.044,3.752l3.044,3.755v26.899c0,1.267-0.64,2.448-1.701,3.14
			c0,0,0,0.005-0.005,0.005L-69.638,89.53l-0.656,0.428c-0.609,0.397-1.32,0.608-2.047,0.608h-17.251V5.74h37.159
			C-50.36,5.741-48.68,7.421-48.68,9.494z"/>
		<path id="Tracé_8400" class="st16" d="M-89.592,38.868l-19.973-11.533c-1.798-1.034-4.094-0.416-5.129,1.382
			c-0.327,0.568-0.5,1.212-0.5,1.868v8.863h-15.31v7.507h15.309v8.863c0.002,2.075,1.685,3.755,3.76,3.753
			c0.656-0.001,1.3-0.173,1.869-0.5l6.481-3.743c-2.098,4.623-3.018,9.693-2.677,14.759c0.158,2.067,1.961,3.615,4.028,3.457
			c2.067-0.158,3.615-1.961,3.457-4.028c-0.719-9.371,5.21-17.275,8.683-21.052l2.755-5.261L-89.592,38.868z M-107.689,49.315
			V37.084l10.59,6.116L-107.689,49.315z"/>
		<path id="Tracé_8401" class="st17" d="M-63.988,39.448v-8.863c-0.003-2.074-1.687-3.754-3.761-3.751
			c-0.656,0.001-1.3,0.173-1.868,0.5l-10.021,5.788l-9.953,5.745v9.593c3.022,3.228,5.426,6.983,7.094,11.078
			c1.272,3.164,1.816,6.574,1.592,9.976c-0.158,2.067,1.39,3.87,3.457,4.028c2.067,0.158,3.87-1.39,4.028-3.457
			C-73.08,65.021-74,59.95-76.098,55.327l6.481,3.743c1.798,1.034,4.095,0.415,5.129-1.384c0.327-0.569,0.499-1.213,0.5-1.869
			v-8.863h15.309v-7.507H-63.988z M-71.495,49.315l-7.654-4.419l-2.934-1.694l3.828-2.212l6.76-3.907V49.315z"/>
	</g>
</g>
</svg>
