<svg xmlns="http://www.w3.org/2000/svg" xmlns:xlink="http://www.w3.org/1999/xlink" width="579.744" height="551.911" viewBox="0 0 579.744 551.911"><defs><style>.a{fill:#f1eff8;}.b{opacity:0.5;fill:url(#a);}.b,.e,.f{mix-blend-mode:overlay;}.aq,.b,.e,.f,.v{isolation:isolate;}.c{fill:#1b2c7b;}.d{fill:#e90566;}.e,.f{opacity:0.7;}.e{fill:url(#e);}.f{fill:url(#f);}.g{fill:#fbd783;}.h{fill:#2a195b;}.i{fill:#fff;}.j{fill:#c7c7c9;opacity:0.29;}.k{fill:#20db84;}.l{fill:#18255b;}.m{fill:#2f3f9b;}.n{fill:#f0f0fb;fill-rule:evenodd;}.o,.p,.q,.r{opacity:0.15;}.o{fill:url(#i);}.p{fill:url(#j);}.q{fill:url(#l);}.r{fill:url(#m);}.s{fill:url(#n);}.t{fill:url(#o);}.u{fill:url(#p);}.aq,.v{mix-blend-mode:multiply;}.v{fill:url(#q);}.w{fill:url(#r);}.x{fill:url(#s);}.y{fill:url(#t);}.z{fill:url(#u);}.aa{fill:url(#v);}.ab{fill:url(#w);}.ac{fill:url(#x);}.ad{fill:url(#y);}.ae{fill:url(#z);}.af{fill:url(#aa);}.ag{fill:url(#ab);}.ah{fill:url(#ac);}.ai{fill:#1d1d1b;}.aj{fill:url(#ad);}.ak{fill:url(#ae);}.al{fill:url(#af);}.am{fill:url(#ag);}.an{fill:url(#ah);}.ao{fill:url(#ai);}.ap{fill:url(#aj);}.aq{fill:url(#ak);}.ar{fill:url(#al);}.as{fill:url(#am);}.at{fill:url(#an);}.au{fill:url(#ao);}.av{fill:url(#ap);}.aw{fill:url(#aq);}.ax{fill:url(#ar);}.ay{fill:url(#as);}.az{fill:url(#at);}.ba{fill:url(#au);}.bb{fill:url(#av);}.bc{fill:url(#aw);}.bd{fill:url(#ax);}.be{fill:url(#ay);}.bf{fill:url(#az);}.bg{fill:url(#ba);}.bh{fill:url(#bb);}.bi{fill:url(#bc);}.bj{fill:url(#bd);}.bk{fill:url(#be);}.bl{fill:url(#bf);}.bm{fill:url(#bg);}.bn{fill:url(#bh);}.bo{fill:url(#bi);}.bp{fill:#ff6c6c;}.bq{fill:#f93d3d;}.br{fill:#e6e6ff;}.bs{fill:#c3c3e5;}</style><linearGradient id="a" y1="0.5" x2="1" y2="0.5" gradientUnits="objectBoundingBox"><stop offset="0" stop-color="#fff"/><stop offset="0.085" stop-color="#f5f5f5"/><stop offset="0.229" stop-color="#dadada"/><stop offset="0.413" stop-color="#afafaf"/><stop offset="0.631" stop-color="#747474"/><stop offset="0.876" stop-color="#292929"/><stop offset="1"/></linearGradient><linearGradient id="e" y1="0.5" x2="1" y2="0.5" gradientUnits="objectBoundingBox"><stop offset="0" stop-color="#fff"/><stop offset="0.256" stop-color="#c1c1c1"/><stop offset="0.845" stop-color="#292929"/><stop offset="1"/></linearGradient><linearGradient id="f" x1="0" y1="0.5" x2="1" y2="0.5" xlink:href="#e"/><linearGradient id="i" x1="1.458" y1="-1.114" x2="0.204" y2="0.998" gradientUnits="objectBoundingBox"><stop offset="0" stop-color="#f6f6f6"/><stop offset="1" stop-color="#8ebce0"/></linearGradient><linearGradient id="j" x1="1.458" y1="-1.114" x2="0.204" y2="0.998" xlink:href="#i"/><linearGradient id="l" x1="1.458" y1="-1.114" x2="0.204" y2="0.998" xlink:href="#i"/><linearGradient id="m" x1="1.458" y1="-1.114" x2="0.204" y2="0.998" xlink:href="#i"/><linearGradient id="n" x1="0.48" y1="0.501" x2="0.805" y2="0.488" gradientUnits="objectBoundingBox"><stop offset="0" stop-color="#670b52"/><stop offset="1" stop-color="#0a1c3c"/></linearGradient><linearGradient id="o" y1="0.5" x2="1" y2="0.5" gradientUnits="objectBoundingBox"><stop offset="0" stop-color="#2fac66"/><stop offset="1" stop-color="#006680"/></linearGradient><linearGradient id="p" x1="0.501" y1="0.881" x2="0.497" y2="-1.234" xlink:href="#i"/><linearGradient id="q" x1="0.5" y1="-1.973" x2="0.5" y2="-1.769" gradientUnits="objectBoundingBox"><stop offset="0" stop-color="#f6f6f6"/><stop offset="1" stop-color="#c9d6ff"/></linearGradient><linearGradient id="r" x1="-35.563" y1="47.205" x2="-34.963" y2="47.727" gradientUnits="objectBoundingBox"><stop offset="0" stop-color="#fad6c7"/><stop offset="1" stop-color="#e4857f"/></linearGradient><linearGradient id="s" x1="-66.437" y1="43.707" x2="-66.318" y2="42.676" xlink:href="#n"/><linearGradient id="t" x1="-222.569" y1="69.982" x2="-222.449" y2="70.419" xlink:href="#i"/><linearGradient id="u" x1="964.15" y1="-494.435" x2="964.15" y2="-494.749" xlink:href="#n"/><linearGradient id="v" x1="-25.989" y1="23.012" x2="-26.201" y2="22.497" xlink:href="#r"/><linearGradient id="w" x1="-67.488" y1="20.205" x2="-67.203" y2="19.644" xlink:href="#i"/><linearGradient id="x" x1="-29.088" y1="8.616" x2="-29.5" y2="8.121" xlink:href="#r"/><linearGradient id="y" x1="-62.891" y1="26.2" x2="-62.481" y2="25.505" xlink:href="#i"/><linearGradient id="z" x1="-396.978" y1="33.707" x2="-396.978" y2="33.357" xlink:href="#n"/><linearGradient id="aa" x1="487.883" y1="-196.37" x2="488.196" y2="-195.75" xlink:href="#i"/><linearGradient id="ab" x1="-64.207" y1="13.241" x2="-63.333" y2="13.224" xlink:href="#r"/><linearGradient id="ac" x1="1531.663" y1="-319.622" x2="1531.867" y2="-320.525" xlink:href="#r"/><linearGradient id="ad" x1="4847.825" y1="-1206.842" x2="4848.279" y2="-1209.77" gradientUnits="objectBoundingBox"><stop offset="0" stop-color="#f7c9aa"/><stop offset="1" stop-color="#ff717a"/></linearGradient><linearGradient id="ae" x1="-87.67" y1="76.203" x2="-87.67" y2="77.211" xlink:href="#n"/><linearGradient id="af" x1="-96.252" y1="33.991" x2="-96.252" y2="34.455" xlink:href="#n"/><linearGradient id="ag" x1="-96.183" y1="28.469" x2="-95.962" y2="27.611" xlink:href="#n"/><linearGradient id="ah" x1="-363.928" y1="29.813" x2="-363.9" y2="29.112" xlink:href="#i"/><linearGradient id="ai" x1="-61.569" y1="37.744" x2="-61.314" y2="36.2" xlink:href="#n"/><linearGradient id="aj" x1="-49.366" y1="86.241" x2="-49.162" y2="82.694" xlink:href="#n"/><linearGradient id="ak" x1="0.174" y1="-2.586" x2="0.202" y2="-2.318" xlink:href="#q"/><linearGradient id="al" x1="11.828" y1="-211.773" x2="13.142" y2="-210.509" xlink:href="#r"/><linearGradient id="am" x1="-5.797" y1="0.169" x2="-5.809" y2="0.626" gradientUnits="objectBoundingBox"><stop offset="0" stop-color="#2ab7fa"/><stop offset="1" stop-color="#2262b9"/></linearGradient><linearGradient id="an" x1="95.096" y1="-116.956" x2="95.763" y2="-117.03" xlink:href="#r"/><linearGradient id="ao" x1="-7.569" y1="0.407" x2="-6.404" y2="0.551" xlink:href="#am"/><linearGradient id="ap" x1="-2.15" y1="0.761" x2="-1.026" y2="0.409" xlink:href="#r"/><linearGradient id="aq" x1="-2.403" y1="0.414" x2="-1.681" y2="0.581" xlink:href="#i"/><linearGradient id="ar" x1="-4" y1="0.65" x2="-3.601" y2="-0.014" xlink:href="#r"/><linearGradient id="as" x1="39.866" y1="-207.8" x2="38.971" y2="-207.923" xlink:href="#i"/><linearGradient id="at" x1="18.362" y1="-268.67" x2="18.809" y2="-269.249" xlink:href="#i"/><linearGradient id="au" x1="63.409" y1="-81.06" x2="64.422" y2="-81.06" xlink:href="#am"/><linearGradient id="av" x1="93.827" y1="-108.19" x2="93.873" y2="-107.618" xlink:href="#am"/><linearGradient id="aw" x1="2561.347" y1="-1529.716" x2="2562.986" y2="-1531.057" xlink:href="#r"/><linearGradient id="ax" x1="-620.137" y1="-803.209" x2="-619.826" y2="-804.117" xlink:href="#r"/><linearGradient id="ay" x1="-2823.307" y1="-2097.993" x2="-2823.912" y2="-2100.45" xlink:href="#r"/><linearGradient id="az" x1="-7.831" y1="0.558" x2="-7.581" y2="0.93" xlink:href="#i"/><linearGradient id="ba" x1="-10.872" y1="-3.181" x2="-10.872" y2="-3.122" xlink:href="#am"/><linearGradient id="bb" x1="-19.309" y1="-1.486" x2="-19.309" y2="-1.427" xlink:href="#am"/><linearGradient id="bc" x1="157.55" y1="-47.426" x2="157.678" y2="-46.954" xlink:href="#n"/><linearGradient id="bd" x1="482.195" y1="-120.051" x2="482.815" y2="-118.967" xlink:href="#q"/><linearGradient id="be" x1="484.111" y1="-120.817" x2="484.73" y2="-119.733" xlink:href="#q"/><linearGradient id="bf" x1="880.72" y1="-140.134" x2="881.844" y2="-138.875" xlink:href="#q"/><linearGradient id="bg" x1="872.037" y1="-139.839" x2="873.161" y2="-138.58" xlink:href="#q"/><linearGradient id="bh" x1="487.829" y1="-219.269" x2="488.453" y2="-217.317" xlink:href="#q"/><linearGradient id="bi" x1="486.091" y1="-215.025" x2="486.716" y2="-213.074" xlink:href="#q"/></defs><g transform="translate(-1037.769 -759)"><g transform="translate(1049.975 1175.584)"><path class="a" d="M1478.553,1005.8c-68.733-5.844-108.774-7.013-166.935,11.985-14.566,4.774-30.2,10.813-47.739,18.315-87.68,37.556-221.59-18.8-221.59-48.126s64.056-81.2,289.349-74.042c53.68,1.7,97.034,4.823,131.668,8.866C1682.655,948.372,1552.742,1012.134,1478.553,1005.8Z" transform="translate(-1042.289 -913.261)"/><path class="b" d="M1315.43,999.8c-68.733-5.844-108.774-7.013-166.934,11.985-6.676-7.5-10.281-15.587-10.281-24.016,0-37.459,71.364-68.2,161.968-70.972C1519.532,942.367,1389.619,1006.128,1315.43,999.8Z" transform="translate(-879.166 -907.256)"/></g><g transform="translate(1037.769 759.595)"><path class="a" d="M1600.723,1037.366c-13.3,20.6-34.731,37.847-57.872,44.666a74.212,74.212,0,0,1-24.55,3.022,61.883,61.883,0,0,1-32.1-11.107c-35.9-24.891-55.19-5.018-82.322,20.119-10.521,9.744-22.26,20.216-36.581,29.179a142.879,142.879,0,0,1-64.007,21.628c-.537.049-1.023.1-1.561.146-105.995,9.206-154.123-86.024-179.649-121.585a142.606,142.606,0,0,0-18.412-20.41c-26.112-24.648-58.7-44.426-63.276-78.425-3.605-26.937,2.97-64.3,26.886-97.083a155.1,155.1,0,0,1,41.018-38.628c64.3-41.941,163.961-41.844,180.475,15.976,10.521,36.73,46.522,69.465,88.023,64.545,14.906-1.755,30.542-8.38,45.984-21.434,56.117-47.494,153.783-30.737,136.586,9.06a34.5,34.5,0,0,1-2.533,4.726c-27.375,43.108-9.5,41.647,43.062,96.546C1621.328,980.663,1617.383,1011.646,1600.723,1037.366Z" transform="translate(-1034.873 -759.22)"/><path class="b" d="M1403.617,974.735c-13.3,20.6-34.731,37.847-57.872,44.666a74.211,74.211,0,0,1-24.551,3.022,61.881,61.881,0,0,1-32.1-11.107c-35.9-24.891-55.19-5.017-82.322,20.119-10.521,9.743-22.26,20.216-36.581,29.179A181.357,181.357,0,0,1,1362.259,794.4a34.46,34.46,0,0,1-2.533,4.726c-27.375,43.108-9.5,41.647,43.062,96.546C1424.222,918.032,1420.277,949.015,1403.617,974.735Z" transform="translate(-851.27 -704.691)"/><path class="b" d="M1347.285,875.408a181.373,181.373,0,0,1-309.516-41.893,155.092,155.092,0,0,1,41.018-38.628c64.3-41.942,163.961-41.844,180.475,15.976C1269.783,847.593,1305.783,880.328,1347.285,875.408Z" transform="translate(-1037.769 -749.017)"/><path class="b" d="M1264.278,975.407a132.122,132.122,0,0,1-2.973,27.961c-105.995,9.206-154.123-86.025-179.649-121.585a142.607,142.607,0,0,0-18.412-20.411,132.824,132.824,0,0,1,201.034,114.034Z" transform="translate(-994.449 -617.569)"/></g><g transform="translate(1081.205 851.65)"><g transform="translate(0 57.657)"><path class="c" d="M1099.637,840.485a3.261,3.261,0,0,0,2.584-3.8l-.781-4.237a3.186,3.186,0,0,0-3.751-2.584l-3.605.635a14.415,14.415,0,0,0-1.752-2.728l2-2.922.1-.1a3.271,3.271,0,0,0-.778-4.529l-3.556-2.436a3.314,3.314,0,0,0-4.531.829l-2.093,2.971a16.841,16.841,0,0,0-3.168-.635l-.632-3.651a3.267,3.267,0,0,0-3.8-2.582l-4.189.778a3.181,3.181,0,0,0-2.63,3.751l.632,3.605a16.258,16.258,0,0,0-2.728,1.753l-3.019-2.093a3.218,3.218,0,0,0-4.483.827l-2.436,3.508a3.226,3.226,0,0,0,.829,4.531l2.97,2.093a22.938,22.938,0,0,0-.681,3.168l-3.6.632a3.306,3.306,0,0,0-2.63,3.8l.778,4.237a3.223,3.223,0,0,0,3.751,2.584l3.605-.635a26.085,26.085,0,0,0,1.755,2.728l-2.047,2.97c0,.049,0,.049-.049.1a3.191,3.191,0,0,0,.829,4.432l3.554,2.484a3.219,3.219,0,0,0,4.482-.829l2.093-3.019a17.607,17.607,0,0,0,3.168.729l.632,3.557a3.265,3.265,0,0,0,3.8,2.63l4.24-.729a3.259,3.259,0,0,0,2.582-3.8l-.635-3.605a14.389,14.389,0,0,0,2.728-1.752l3.022,2.093a3.281,3.281,0,0,0,4.529-.827l2.436-3.557a3.284,3.284,0,0,0-.826-4.531l-3.022-2.044a17.674,17.674,0,0,0,.732-3.168ZM1080.5,852.224a13.436,13.436,0,0,1-13.592-5.652,13.3,13.3,0,0,1-2.193-5.261,13.587,13.587,0,1,1,15.784,10.913Z" transform="translate(-1053.854 -814.659)"/><path class="d" d="M1084.76,829.783a13.612,13.612,0,0,0-8.037-10.084,13.565,13.565,0,1,0-2.922,25.817A13.58,13.58,0,0,0,1084.76,829.783Zm-11.836,10.862a8.565,8.565,0,0,1-9.695-5.6,13.356,13.356,0,0,1-.34-1.315,8.641,8.641,0,0,1,6.965-10.084,10.575,10.575,0,0,1,1.707-.146,8.755,8.755,0,0,1,8.328,7.159A8.615,8.615,0,0,1,1072.924,840.644Z" transform="translate(-1047.16 -807.95)"/></g><g transform="translate(65.385 81.883)"><path class="c" d="M1133.03,854.673a3.914,3.914,0,0,0,3.116-4.531l-.926-5.115a3.835,3.835,0,0,0-4.48-3.116l-3.751.681-.586.1a18.908,18.908,0,0,0-2.141-3.262l2.533-3.654a3.9,3.9,0,0,0-.975-5.406l-4.237-2.925a3.954,3.954,0,0,0-5.458.975l-2.484,3.557a23.393,23.393,0,0,0-3.848-.78l-.778-4.334a3.868,3.868,0,0,0-4.483-3.165l-5.066.923a3.911,3.911,0,0,0-3.165,4.531l.781,4.334a23.71,23.71,0,0,0-3.314,2.1l-3.605-2.485a3.9,3.9,0,0,0-5.407.975l-2.922,4.237a3.841,3.841,0,0,0-.683,2.679,3.657,3.657,0,0,0,1.656,2.727l.44.292,3.165,2.241-.292,1.024a16.482,16.482,0,0,0-.535,2.776l-4.337.781a3.883,3.883,0,0,0-3.117,4.529l.924,5.066a3.873,3.873,0,0,0,4.483,3.168l4.334-.78a24.935,24.935,0,0,0,2.1,3.265l-2.484,3.6a3.883,3.883,0,0,0,.975,5.409l4.237,2.971a3.9,3.9,0,0,0,5.406-.975l2.533-3.605a19.37,19.37,0,0,0,3.8.829l.781,4.335a3.909,3.909,0,0,0,4.577,3.119l5.018-.878a3.93,3.93,0,0,0,3.167-4.577l-.78-4.288a21,21,0,0,0,3.265-2.142l3.6,2.533a3.968,3.968,0,0,0,5.455-.975l2.971-4.289a3.9,3.9,0,0,0-.975-5.406l-3.651-2.484a21.243,21.243,0,0,0,.827-3.8ZM1110.038,868.8a16.31,16.31,0,0,1-18.95-13.154,15.471,15.471,0,0,1-.146-4.723,16.292,16.292,0,0,1,31.81-2.825,11.474,11.474,0,0,1,.437,1.753A16.309,16.309,0,0,1,1110.038,868.8Z" transform="translate(-1078.066 -823.63)"/><path class="d" d="M1115.154,841.789a11.493,11.493,0,0,0-.437-1.753,16.292,16.292,0,0,0-31.81,2.825,15.475,15.475,0,0,0,.146,4.723,16.31,16.31,0,1,0,32.1-5.8Zm-14.223,13.1a10.374,10.374,0,0,1-12.034-8.328,9.535,9.535,0,0,1-.1-1.169,10.343,10.343,0,0,1,20.508-2.533,2.972,2.972,0,0,1,.049.926A10.254,10.254,0,0,1,1100.931,854.892Z" transform="translate(-1070.031 -815.568)"/></g><g transform="translate(36.275)"><path class="c" d="M1135.89,832a4.892,4.892,0,0,0,3.946-5.65l-1.169-6.333a4.833,4.833,0,0,0-5.65-3.9l-5.406.972a14.4,14.4,0,0,0-1.072-1.85,26.659,26.659,0,0,0-1.558-2.241l3.165-4.529a4.966,4.966,0,0,0-1.218-6.822l-5.309-3.6a4.887,4.887,0,0,0-6.771,1.215l-3.167,4.483a24.688,24.688,0,0,0-4.724-1.023l-1.023-5.406a4.861,4.861,0,0,0-5.6-3.945L1094,794.545a4.857,4.857,0,0,0-3.946,5.649l.975,5.406a29.383,29.383,0,0,0-4.091,2.582l-4.531-3.068a4.838,4.838,0,0,0-6.721,1.218l-3.654,5.261a4.812,4.812,0,0,0,1.218,6.77l4.483,3.168a25.319,25.319,0,0,0-1.023,4.723l-5.406.975a4.932,4.932,0,0,0-3.945,5.652l1.169,6.381a4.871,4.871,0,0,0,5.649,3.9l5.406-.975a32.3,32.3,0,0,0,2.581,4.091l-3.068,4.483a4.8,4.8,0,0,0,1.218,6.77l5.26,3.7a4.9,4.9,0,0,0,6.77-1.218l3.119-4.531a25.921,25.921,0,0,0,4.772,1.072l.975,5.358a4.806,4.806,0,0,0,5.649,3.945l3.508-.632,2.825-.486a4.887,4.887,0,0,0,3.9-5.7l-.975-5.358a24.556,24.556,0,0,0,4.091-2.63l4.532,3.116a4.9,4.9,0,0,0,6.77-1.218l3.7-5.309a4.965,4.965,0,0,0-1.218-6.819l-4.532-3.07a26,26,0,0,0,1.024-4.772Zm-28.69,17.683a22.692,22.692,0,0,1-4.043.34,20.378,20.378,0,1,1,16.9-32.392,19.4,19.4,0,0,1,3.605,8.377A20.427,20.427,0,0,1,1107.2,849.686Z" transform="translate(-1067.286 -793.308)"/><path class="d" d="M1113.645,815.956a19.4,19.4,0,0,0-3.605-8.377,20.387,20.387,0,1,0-16.9,32.393,22.685,22.685,0,0,0,4.043-.34A20.426,20.426,0,0,0,1113.645,815.956Zm-17.78,16.368a11.3,11.3,0,0,1-3.119.146,12.948,12.948,0,1,1,11.01-20.9,12.407,12.407,0,0,1,2.582,5.747A12.961,12.961,0,0,1,1095.865,832.324Z" transform="translate(-1057.267 -783.253)"/></g><path class="e" d="M1091.452,835.08a17.67,17.67,0,0,1-.732,3.168l3.022,2.044a3.284,3.284,0,0,1,.826,4.531l-2.436,3.557a3.281,3.281,0,0,1-4.529.827l-3.022-2.093a14.389,14.389,0,0,1-2.728,1.752l.635,3.605a3.259,3.259,0,0,1-2.582,3.8l-4.24.729a3.265,3.265,0,0,1-3.8-2.63l-.632-3.557a17.607,17.607,0,0,1-3.168-.729l-2.093,3.019a3.219,3.219,0,0,1-4.482.829l-3.554-2.484a3.191,3.191,0,0,1-.829-4.432c.049-.051.049-.051.049-.1a34.824,34.824,0,0,0,5.163-6.381c1.072-1.558,2.047-3.214,3.019-4.821A8.645,8.645,0,0,0,1082,831.329a8.755,8.755,0,0,0-8.328-7.159,25.02,25.02,0,0,1,5.163-3.8c3.508-2,7.307-2.825,10.91-1.558l-2,2.922a14.417,14.417,0,0,1,1.752,2.727l3.605-.635a3.186,3.186,0,0,1,3.751,2.584l.781,4.237a3.261,3.261,0,0,1-2.584,3.8Z" transform="translate(-1049.271 -750.965)"/><path class="f" d="M1077.767,832.776a3.65,3.65,0,0,1-1.656-2.728c.632,1.023,1.364,2.047,2.093,3.019Z" transform="translate(-1016.005 -730.832)"/><path class="e" d="M1128.693,843.98a21.243,21.243,0,0,1-.827,3.8l3.651,2.484a3.9,3.9,0,0,1,.975,5.406l-2.971,4.288a3.968,3.968,0,0,1-5.455.975l-3.6-2.533a21,21,0,0,1-3.265,2.141l.78,4.288a3.93,3.93,0,0,1-3.167,4.577l-5.018.878a3.909,3.909,0,0,1-4.577-3.119l-.781-4.334a19.37,19.37,0,0,1-3.8-.829l-2.533,3.605a3.9,3.9,0,0,1-5.406.975l-4.237-2.971a3.883,3.883,0,0,1-.975-5.409l2.484-3.6a24.952,24.952,0,0,1-2.1-3.265l-4.334.78a3.873,3.873,0,0,1-4.483-3.168l-.924-5.066a3.884,3.884,0,0,1,3.117-4.529l4.337-.78a16.482,16.482,0,0,1,.535-2.776,25.124,25.124,0,0,0,4.823,3.654,26.311,26.311,0,0,0,5.892,2.533,9.56,9.56,0,0,0,.1,1.169,10.375,10.375,0,0,0,12.034,8.328,10.254,10.254,0,0,0,8.425-11.1,23.912,23.912,0,0,0,3.362-2.047,16.17,16.17,0,0,0,2-1.7,18.569,18.569,0,0,0,4.237-5.506l3.751-.681a3.835,3.835,0,0,1,4.48,3.116l.926,5.115a3.914,3.914,0,0,1-3.116,4.531Z" transform="translate(-1012.68 -730.276)"/><path class="e" d="M1108.2,819.163a26,26,0,0,1-1.024,4.772l4.532,3.07a4.965,4.965,0,0,1,1.218,6.819l-3.7,5.309a4.9,4.9,0,0,1-6.77,1.218l-4.532-3.116a24.573,24.573,0,0,1-4.091,2.63l.975,5.358a4.887,4.887,0,0,1-3.9,5.7l-2.825.486a30.231,30.231,0,0,1-7.208-15.2,27.615,27.615,0,0,1-.392-7.5,11.3,11.3,0,0,0,3.119-.146,12.961,12.961,0,0,0,10.473-15,12.407,12.407,0,0,0-2.582-5.747,27.8,27.8,0,0,1,4.626-3.168c.537-.292,1.121-.583,1.658-.826a35.6,35.6,0,0,1,6.479-2.387,14.4,14.4,0,0,1,1.072,1.85l5.406-.972a4.833,4.833,0,0,1,5.65,3.9l1.169,6.333a4.892,4.892,0,0,1-3.946,5.649Z" transform="translate(-1008.729 -779.494)"/></g><g transform="translate(1503.136 960.93)"><g transform="translate(59.146 128.074)"><path class="g" d="M1245.918,940.47a12.121,12.121,0,0,1,1.493,5.453c.06,3.1,13.759.519,13.759.519a64.689,64.689,0,0,0-3.114-7.167,23.252,23.252,0,0,0-3.67-5.576Z" transform="translate(-1208.324 -791.931)"/><path class="c" d="M1267.824,937.218c2.347,2.638,3.211,5.366,2.528,8.191-9.792,2.177-19.279,4.526-28.528,6-.735-3.524,7.64-10.148,12.557-12.668A15.673,15.673,0,0,0,1267.824,937.218Z" transform="translate(-1215.364 -785.944)"/><path class="c" d="M1262.183,881.2c5.22,37.28-4.558,53.57-1.6,67.8s19.619,76.392,19.619,76.392c-1.35,2.716-7.677,5.023-11.393,4.3-14.429-33.284-31.658-71.79-33.824-83.716a216.742,216.742,0,0,1-1.434-61.634Z" transform="translate(-1231.997 -881.201)"/></g><g transform="translate(27.525 130.956)"><path class="g" d="M1226.774,940.818a12.09,12.09,0,0,1,.394,5.636c-.551,3.051,13.389,3.205,13.389,3.205a64.781,64.781,0,0,0-1.648-7.637,23.152,23.152,0,0,0-2.506-6.187Z" transform="translate(-1209.257 -791.177)"/><path class="c" d="M1249.779,940.471c1.785,3.046,2.1,5.89.872,8.526-10.03.216-19.792.659-29.149.291-.03-3.6,9.481-8.453,14.8-9.959A15.67,15.67,0,0,0,1249.779,940.471Z" transform="translate(-1218.222 -785.236)"/><path class="c" d="M1259.654,884.8c-2.19,37.58-14.971,51.639-14.853,66.171s4.264,78.755,4.264,78.755c-1.858,2.4-8.512,3.422-12.014,1.985-7.626-35.466-16.975-76.6-16.759-88.723a216.623,216.623,0,0,1,10.672-60.715Z" transform="translate(-1220.288 -882.268)"/></g><path class="g" d="M1245.859,860c-2.309-3.907-2.768-8.315-2.968-13.308h-10.613a45.53,45.53,0,0,1-1.445,14.8C1231.935,863.574,1244.814,862.753,1245.859,860Z" transform="translate(-1174.831 -811.813)"/><path class="g" d="M1252.6,864.328c-6.746,3.033-11.544,8.5-17.677,5.855-8.655-2.3-8.85-21.809-5.89-30.508l23.535-2.744Z" transform="translate(-1180.814 -828.408)"/><path class="h" d="M1261.82,869.4l-8.579,7.016-8.952-10.041,6.066-6.225-2.776-3.759-3.289,4.11-2.16-2.487,1.675-6.964c-6.038.713-20.6-2.455-20.6-2.455s7.237-11.385,8.82-14.82c6.041,2.479,15.171,1.488,15.171,1.488l16.289,7.85Z" transform="translate(-1187.8 -833.775)"/><path class="g" d="M1224.62,849.189s2.347-6.333,6.166-7.4c4.069-1.134,8.984,6.125,8.32,8.9s-6.063.867-6.044,2.225,2.306,1.237,1.928,2.555-6.122.162-6.122.162Z" transform="translate(-1185.393 -820.35)"/><path class="i" d="M1296.6,867.087c-9.476-5.047-34.288-4.07-48.085,2.371l-25.687,4.415,34.475-24.734-6.749-5.922c-8.736,13.033-50.643,13.027-38.153,43.743l33.786,5.307c-2.015,25.66-3.773,49.225-.716,64.58,10.81,6.195,49.306,3.567,56.479-3.773C1299.109,915.086,1307.915,875.82,1296.6,867.087Z" transform="translate(-1210.095 -817.719)"/></g><path class="j" d="M1296.157,868.5c-9.476-4.613-34.291-3.721-48.086,2.163l-25.687,4.035,34.477-22.6-6.749-5.409c-8.736,11.907-50.645,11.9-38.152,39.959l33.783,4.85c-2.012,23.44-3.772,44.969-.715,59,10.813,5.658,49.306,3.257,56.481-3.449C1298.666,912.345,1307.469,876.474,1296.157,868.5Z" transform="translate(292.291 149.117)"/><path class="k" d="M1296.6,867.087c-9.476-5.047-34.288-4.07-48.085,2.371l-25.687,4.415,34.475-24.734-6.749-5.922c-8.736,13.033-50.643,13.027-38.153,43.743l33.786,5.307c-2.015,25.66-3.773,49.225-.716,64.58,10.81,6.195,49.306,3.567,56.479-3.773C1299.109,915.086,1307.915,875.82,1296.6,867.087Z" transform="translate(293.042 143.211)"/><path class="l" d="M1121.244,822.932l-7.251,7.827,176.371,279.649,7.035-7.62-2.454-8.6Z" transform="translate(129.62 108.716)"/><path class="l" d="M1281.185,1113.9h-104.45c-11.637,0-22.73-10.283-24.782-22.971L1112.479,846.8c-2.052-12.687,5.717-22.973,17.351-22.973h104.45c11.636,0,22.73,10.286,24.783,22.973l39.473,244.126C1300.588,1103.612,1292.819,1113.9,1281.185,1113.9Z" transform="translate(126.486 110.237)"/><path class="c" d="M1283.625,1111.247h-104.45c-11.636,0-22.73-10.286-24.783-22.973l-39.473-244.123c-2.053-12.687,5.717-22.973,17.35-22.973h104.45c11.637,0,22.73,10.286,24.783,22.973l39.473,244.123C1303.028,1100.961,1295.259,1111.247,1283.625,1111.247Z" transform="translate(130.635 105.734)"/><path class="i" d="M1228.979,824.167h-12.744a1.511,1.511,0,0,0-1.431,1.9l.567,3.513c1.021,6.306-2.841,11.415-8.62,11.415H1159.7c-5.782,0-11.293-5.109-12.312-11.415l-.57-3.513a2.224,2.224,0,0,0-2.044-1.9h-12.744c-9.43,0-15.725,8.334-14.064,18.617l38.274,236.691c1.661,10.284,10.653,18.617,20.084,18.617h96.945c9.43,0,15.725-8.334,14.064-18.617l-38.275-236.691C1247.4,832.5,1238.409,824.167,1228.979,824.167Z" transform="translate(135.929 110.817)"/><path class="m" d="M1225.686,933.938h-77.969c-3.6,0-7.03-3.181-7.664-7.105l-1.54-9.514c-.634-3.924,1.769-7.105,5.366-7.105h77.969c3.6,0,7.029,3.181,7.664,7.105l1.539,9.514C1231.687,930.757,1229.283,933.938,1225.686,933.938Z" transform="translate(171.145 257.14)"/><path class="n" d="M1122,842.546" transform="translate(143.235 142.07)"/><g transform="translate(1220.458 970.196)"><path class="o" d="M1108.6,892.361l15.177-8.76a2.439,2.439,0,0,1,2.444,0l15.174,8.76a2.446,2.446,0,0,1,0,4.237l-15.174,8.76a2.444,2.444,0,0,1-2.447,0L1108.6,896.6A2.446,2.446,0,0,1,1108.6,892.361Z" transform="translate(-1102.091 -758.87)"/><path class="p" d="M1125.111,895.491l7.64-4.41a1.237,1.237,0,0,1,1.232,0l7.637,4.41a1.232,1.232,0,0,1,0,2.133l-7.637,4.41a1.224,1.224,0,0,1-1.232,0l-7.64-4.41A1.232,1.232,0,0,1,1125.111,895.491Z" transform="translate(-1072.978 -745.869)"/><path class="p" d="M1181.884,895.491l7.64-4.41a1.237,1.237,0,0,1,1.231,0l7.637,4.41a1.232,1.232,0,0,1,0,2.133l-7.637,4.41a1.224,1.224,0,0,1-1.231,0l-7.64-4.41A1.232,1.232,0,0,1,1181.884,895.491Z" transform="translate(-976.435 -745.869)"/><path class="q" d="M1106.035,867.265l7.64-4.41a1.238,1.238,0,0,1,1.232,0l7.637,4.41a1.232,1.232,0,0,1,0,2.133l-7.637,4.41a1.225,1.225,0,0,1-1.232,0l-7.64-4.41A1.232,1.232,0,0,1,1106.035,867.265Z" transform="translate(-1105.419 -793.868)"/><path class="r" d="M1156.744,894.6l30.632-17.686a4.937,4.937,0,0,1,4.937,0l30.629,17.683a4.938,4.938,0,0,1,0,8.553l-30.629,17.686a4.93,4.93,0,0,1-4.937,0l-30.632-17.686A4.938,4.938,0,0,1,1156.744,894.6Z" transform="translate(-1022.34 -770.809)"/><path class="s" d="M1298.932,906.482l-92.388-53.341-85.28,49.238-10.943-.253V908.7l104.243,60.183,96.224-55.553v-6.571Z" transform="translate(-1097.084 -810.107)"/><path class="t" d="M1310.789,910.894l-28.633,16.53-5.336,3.08-62.257,35.943-77.446-44.711-5.336-3.08-21.461-12.391,62.243-35.937,5.337-3.08,28.646-16.54,21.475,12.4,5.333,3.08Z" transform="translate(-1097.084 -814.245)"/><path class="u" d="M1219.839,858.379l-28.646,16.533L1185.86,878,1123.6,913.929l-5.336-3.08,62.256-35.937,5.337-3.08,28.646-16.533Z" transform="translate(-1083.57 -806.438)"/><g transform="translate(37.991 34.945)"><path class="i" d="M1119.487,850.146" transform="translate(-1119.487 -850.146)"/></g><g transform="translate(61.713 49.04)"><ellipse class="v" cx="24.74" cy="6.966" rx="24.74" ry="6.966" transform="translate(11.249 56.402)"/><path class="w" d="M1173.3,864.653l-13.063-1.839-13.079-1.847c-4.707,3.605-4.98-3.8-4.98-3.8l4.872,1.542c7.045-3.6,13.054-2.773,17.534-.767A24.4,24.4,0,0,1,1173.3,864.653Z" transform="translate(-1104.615 -853.915)"/><path class="x" d="M1164.259,863.588l-16.757,2.4,7.969-9.141.008.008.065.019a21.782,21.782,0,0,1,2.619,1.4A24.045,24.045,0,0,1,1164.259,863.588Z" transform="translate(-1095.57 -852.85)"/><path class="y" d="M1155.476,862.082l-1.153.375a9.143,9.143,0,0,0-3.867-5.609l.064.019a21.772,21.772,0,0,1,2.619,1.4C1155.822,861.015,1155.476,862.082,1155.476,862.082Z" transform="translate(-1090.547 -852.845)"/><g transform="translate(10.428)"><path class="z" d="M1152.5,872.806l-10.548-7.351s7.764-6.36,14.947-2.752S1152.5,872.806,1152.5,872.806Z" transform="translate(-1115.443 -844.771)"/><path class="aa" d="M1174.154,876.194l-2.588,1.676-9.753,6.318-7.282.061-20.163.18-2.236-2.237,22.354-2.41,4.111-.441,9.413-9.536,3.169-3.214Z" transform="translate(-1132.133 -836.277)"/><path class="ab" d="M1142.56,875.946l6.176,10.043,10.318-7.739-8.424-12.716Z" transform="translate(-1114.401 -838.074)"/><path class="ac" d="M1176.34,867.086a57.223,57.223,0,0,1-6.63,6.516l-2.749,9.079-1.1,3.621-.272,6.6,0,.005-.24,5.871-6.076,2.609-16.119,6.913-1.871-1.191,15.293-9.484,2.22-1.375s-1.307-2.036-2.779-4.766q-.3-.539-.589-1.11a41.791,41.791,0,0,1-2.968-6.954c-.57-1.9-.767-3.592-.256-4.664.213-.448.405-.918.607-1.4a19.7,19.7,0,0,1,.94-2.015c9.422-17.116,20.516-16.73,20.516-16.73s2.879-.521,4.461,2.873C1179.345,862.811,1178.092,864.966,1176.34,867.086Z" transform="translate(-1116.579 -849.896)"/><path class="ad" d="M1160.836,874.481l-.272,6.6,0,.005-6.892-1.715-1.812-.454-1.458-.365-6.1-1.523c-.61-7.84,3.487-11.5,3.487-11.5l5.153,1.936,1.736.659,7.264,2.73Z" transform="translate(-1111.554 -838.074)"/><path class="ae" d="M1148.87,878.155l-1.812-.454,1.078-11.449,1.736.657Z" transform="translate(-1106.754 -836.855)"/><path class="af" d="M1141.947,870.9s7.3.54,22.782,15.725l3.848-12.7a57.414,57.414,0,0,0,6.627-6.514s3.052-5.973-2.074-8.477S1147.137,863,1141.947,870.9Z" transform="translate(-1115.443 -850.217)"/><path class="ag" d="M1164.839,890.537c1.647-1.472-.416-1.85-.416-1.85a45.72,45.72,0,0,1-4.753-1.852c-3.678-1.669-8.266-4.367-8.99-7.653-1.647-7.51-1.647-12.182-.84-15.047l0-.013a7.339,7.339,0,0,1,.964-2.171c2.417-3.589,6.927-1.447,7.189-1.321l.011.008c4.14,2.233-1.226,16.732-1.226,16.732l5.333,6.2,2.841,3.311s1.156.329,1.531,2.182S1164.839,890.537,1164.839,890.537Z" transform="translate(-1102.919 -847.69)"/><g transform="translate(56.225)"><path class="ah" d="M1154.385,865.942a2.543,2.543,0,0,0,3.583-.2,2.137,2.137,0,0,0,.289-.473,4.284,4.284,0,0,0,3.972-1.075,4.209,4.209,0,0,0,.294-.321,4.411,4.411,0,0,0,.667-1.126,2.531,2.531,0,0,1-1.242-.856l1.485-.754a4.1,4.1,0,0,0-.26-1.158,1.7,1.7,0,0,0,.9-.859s-1.223.057-1.483-.378a5.166,5.166,0,0,0-1.045-1.167,1.1,1.1,0,0,0-.086-.073,4.577,4.577,0,0,0-6.449.348,4.2,4.2,0,0,0-.608,4.035,2.081,2.081,0,0,0-.607.516A2.544,2.544,0,0,0,1154.385,865.942Z" transform="translate(-1152.338 -853.687)"/><path class="ai" d="M1155.019,863.565l3.216,1.747-.948-1.753.937-.953-.056-1.1s5.182-2.017,5.417-4.329c.367-3.583-1.083-.761-2.32-.686-1.615.1-4.809-.411-6.368,1.426-3.524,4.159-1.35,5.884-.486,6.165h0Z" transform="translate(-1152.953 -855.366)"/><path class="aj" d="M1154.587,861.16s-1.934-1.566-.446-2.344,3.5,2.649,2.622,2.6-1.726-.424-1.126-1.059c0,0-.4-1.007-.491-.389,0,0-.656.47-.241-.789C1154.905,859.175,1153.5,859.175,1154.587,861.16Z" transform="translate(-1151.889 -849.693)"/></g></g><path class="ak" d="M1138.7,873.518l-1.057-1.825-9.369,4.945,12.663-.885Z" transform="translate(-1128.271 -827.6)"/><path class="al" d="M1145.725,876.01l-8.021,10.743,11.523-8.086Z" transform="translate(-1112.23 -820.26)"/><path class="am" d="M1158.8,873.794l-2.757-.427-1.31-.2-5.879-.913c.027-2.536,1.2-8.747,2.409-10.551,1.337-1.99,3.546-2.139,5.247-1.869a10.4,10.4,0,0,1,2.414.694C1161.69,862.02,1160.08,869.336,1158.8,873.794Z" transform="translate(-1093.27 -847.944)"/><path class="an" d="M1154.107,860.063l-1.766,13.24-1.31-.2,1.777-13.332A9.316,9.316,0,0,1,1154.107,860.063Z" transform="translate(-1089.569 -847.879)"/><path class="ao" d="M1159.269,876.8l-16.118,6.911-1.873-1.189,15.292-9.484Z" transform="translate(-1106.152 -825.308)"/><path class="ap" d="M1154.531,875.942l-20.163.18-2.236-2.237,22.354-2.41Z" transform="translate(-1121.705 -827.971)"/></g><g transform="translate(167.502)"><ellipse class="aq" cx="16.756" cy="4.718" rx="16.756" ry="4.718" transform="translate(3.326 89.967)"/><path class="ar" d="M1193.312,837.449h0s-6.271,3.416-18.836,6.387l3.105,6.808s-.037,3.03,9.657-5.3c4.637-3.981,7.126-6.06,7.126-6.06l2.031,2.468,1.04-.429C1198.627,838.592,1195.786,836.469,1193.312,837.449Z" transform="translate(-1155.489 -837.206)"/><path class="as" d="M1180.686,838.89l2.2,10.817-8.412-1.928v-6.808Z" transform="translate(-1155.489 -834.342)"/><path class="at" d="M1176.989,842.9l-1.11,13.119-8.426,11.688s-.419,4.421,4.8,1.512l-1.621-1.793s8.453-4.753,9.741-8.731,1.264-14.27,1.264-14.27Z" transform="translate(-1167.445 -827.53)"/><path class="au" d="M1171.311,843.954l-.643,7.092,5.055,4.9,2.313-9.179Z" transform="translate(-1161.966 -825.732)"/><g transform="translate(2.724 2.879)"><path class="av" d="M1197.13,878.766l-.33,10.913-1.256-6.892a5.443,5.443,0,0,0-1.094-2.4,5.382,5.382,0,0,0-2.106-1.591l-15.8-6.673-6.66-2.811,6.462-17.8,8.088-.443-8.412,15.1,2.76,1.645,16.065,9.587Z" transform="translate(-1166.025 -816.511)"/><path class="aw" d="M1192.937,868.22l-.329,10.913-1.256-6.892a5.442,5.442,0,0,0-1.094-2.4,5.38,5.38,0,0,0-2.106-1.591l-15.8-6.673,2.239-4.31,16.065,9.587,1.186.707Z" transform="translate(-1161.832 -805.966)"/><path class="ax" d="M1183.368,907.46a29.289,29.289,0,0,0,1.045-7.367,28.864,28.864,0,0,0-.608-6.365l-3.111-14.9-5.727-27.388,5.76-1.169,3.411,27.578,2.641,21.353.33,2.668-4.667,8.939Z" transform="translate(-1157.378 -817.871)"/><path class="ay" d="M1175.462,862.5s-2.539-13.786,6.324-14.234l.087,8.285Z" transform="translate(-1157.111 -821.284)"/><path class="az" d="M1171.089,859.384l7.933,1.716,6.346-11.008-11.59,3.9Z" transform="translate(-1163.972 -818.172)"/><path class="ba" d="M1188.959,862.888s-2.3,11.31-7.059,12.935c-2.981,1.018-5.466-3.035-7.81-4.091l1.226-8.485-4.41-12,.2-2.854,2.83-5.844,6.614-2.892C1182.64,841.468,1188.959,862.888,1188.959,862.888Z" transform="translate(-1164.284 -835.91)"/><path class="bb" d="M1179.972,858.7l3.262,4.448-1.334,7.17c-2.981,1.018-5.466-3.036-7.81-4.091l1.226-8.485-4.41-12,.2-2.854,3.762,6.225,4.826,5.766Z" transform="translate(-1164.284 -830.409)"/><path class="bc" d="M1176.469,845.485l.249-4.334-6.741-.448S1173.558,844.92,1176.469,845.485Z" transform="translate(-1165.863 -834.14)"/><path class="bd" d="M1179.106,842.453a2.408,2.408,0,0,1-2.014,2.733,2,2,0,0,1-.526-.022,4.029,4.029,0,0,1-3.319,2.655,3.762,3.762,0,0,1-2.109-.362c.651-1.034.184-1.091.184-1.091l-.929.575a4.267,4.267,0,0,1-.567-.629,1.593,1.593,0,0,1-1.148.262s.681-.94.475-1.366a5.091,5.091,0,0,1-.4-1.539,4.336,4.336,0,0,1,3.626-4.92,3.961,3.961,0,0,1,3.506,1.612,2.077,2.077,0,0,1,.726-.211A2.406,2.406,0,0,1,1179.106,842.453Z" transform="translate(-1168.074 -837.492)"/><path class="ai" d="M1177.947,841.067a1.378,1.378,0,0,0-1.693,1.442c-.024,1.753-.013,2.514-.013,2.514l-.446-1.388-.886-.011-.435-.829-.357.092-.286-.794.041.856-1.72.44-.281-.454.071.508-.351.089-.321-.483.143.532-1.415.362-.227-.618-.065.694-1.25.318s-.154-4.672,3.959-5.86C1176.232,837.375,1177.947,841.067,1177.947,841.067Z" transform="translate(-1168.454 -838.272)"/><path class="be" d="M1173.8,841.432s-.783-2.231-1.531-1.925c-1.477.607-.427,2.979-.03,3.381s1.848-.945-.013-1.013c0,0-.516-.775-.135-.508s.532-.043.532-.043a1.117,1.117,0,0,1-.235-.843C1172.473,839.92,1173.032,840.339,1173.8,841.432Z" transform="translate(-1163.271 -836.22)"/></g><path class="bf" d="M1179.762,890.095a29.3,29.3,0,0,0,1.045-7.367,28.865,28.865,0,0,0-.608-6.365l-3.111-14.9,3.443-.98,2.641,21.353.33,2.668-4.667,8.939Z" transform="translate(-1151.047 -797.626)"/><path class="bg" d="M1182.4,871.056l-4.667,8.939.926-3.346a29.289,29.289,0,0,0,1.045-7.367l.006-.016h1.558l.8-.878Z" transform="translate(-1149.947 -784.18)"/><path class="bh" d="M1181.659,861.738l-.33,10.913-1.256-6.892a5.44,5.44,0,0,0-1.094-2.4l.861-1.213.719-1.067Z" transform="translate(-1147.83 -796.604)"/></g><g transform="translate(187.044 74.968)"><path class="bi" d="M1175.347,874.011a6.244,6.244,0,1,0,2.776-8.38,6.189,6.189,0,0,0-2.253,1.915,6.269,6.269,0,0,0-1.172,4.135A6.206,6.206,0,0,0,1175.347,874.011Z" transform="translate(-1174.681 -864.967)"/><path class="bj" d="M1177.029,867.009l2.033-1.021,2,1.443-.035,2.464-2.032,1.021-2-1.443Z" transform="translate(-1170.75 -863.23)"/><path class="bk" d="M1175.523,867.765l2.032-1.021,2,1.443-.035,2.464-2.033,1.021-2-1.443Z" transform="translate(-1173.31 -861.944)"/><path class="bl" d="M1174.7,870.057l.154.108,2.031-1.021.038-2.463-1.051-.759A6.269,6.269,0,0,0,1174.7,870.057Z" transform="translate(-1174.681 -863.342)"/><path class="bm" d="M1178.476,870.55l1.051.756a6.257,6.257,0,0,0,1.172-4.132l-.154-.111-2.033,1.021Z" transform="translate(-1168.229 -861.4)"/><path class="bn" d="M1175.477,869.786a6.264,6.264,0,0,0,4.015,1.529l.019-1.294-2-1.445-2.033,1.021Z" transform="translate(-1173.329 -858.829)"/><path class="bo" d="M1177.016,866.263l2,1.442,2.031-1.021,0-.189a6.271,6.271,0,0,0-4.013-1.529Z" transform="translate(-1170.712 -864.966)"/></g></g><g transform="translate(1341.916 759)"><path class="bp" d="M1150.4,831.263A72.263,72.263,0,1,0,1222.658,759a72.512,72.512,0,0,0-72.263,72.263" transform="translate(-1150.395 -759)"/><path class="bq" d="M1249.417,831.263a72.512,72.512,0,0,1-72.263,72.263V759A72.512,72.512,0,0,1,1249.417,831.263Z" transform="translate(-1104.891 -759)"/><path class="br" d="M1163.849,832.349l23.964-23.97-23.964-23.956,11.969-11.969,23.956,23.964,23.965-23.964,11.969,11.969-23.964,23.956,23.964,23.964-11.966,11.966-23.967-23.962-23.956,23.964Z" transform="translate(-1127.517 -736.121)"/><path class="bs" d="M1201.118,844.31l11.964-11.963-23.964-23.969,23.964-23.956-11.964-11.966-23.964,23.961v23.929Z" transform="translate(-1104.891 -736.12)"/></g></g></svg>