<?xml version="1.0" encoding="utf-8"?>
<!-- Generator: Adobe Illustrator 25.1.0, SVG Export Plug-In . SVG Version: 6.00 Build 0)  -->
<svg version="1.1" id="Calque_1" xmlns="http://www.w3.org/2000/svg" xmlns:xlink="http://www.w3.org/1999/xlink" x="0px" y="0px"
	 viewBox="0 0 580.198 551.749" style="enable-background:new 0 0 580.198 551.749;" xml:space="preserve">
<style type="text/css">
	.st0{fill:#F1EFF8;}
	.st1{opacity:0.5;fill:url(#Tracé_8251_1_);enable-background:new    ;}
	.st2{opacity:0.5;fill:url(#Tracé_8253_1_);enable-background:new    ;}
	.st3{opacity:0.5;fill:url(#Tracé_8254_1_);enable-background:new    ;}
	.st4{fill:#F4BC84;}
	.st5{fill:#1B2C7B;}
	.st6{fill:#3B0358;}
	.st7{fill:#091038;}
	.st8{fill:#FFFFFF;}
	.st9{fill:#FFE200;}
	.st10{fill:#E90566;}
	.st11{opacity:0.7;fill:url(#Tracé_8282_1_);enable-background:new    ;}
	.st12{opacity:0.7;fill:url(#Tracé_8283_1_);enable-background:new    ;}
	.st13{opacity:0.7;fill:url(#Tracé_8284_1_);enable-background:new    ;}
	.st14{opacity:0.7;fill:url(#Tracé_8285_1_);enable-background:new    ;}
	.st15{fill:#983300;}
	.st16{fill:#663300;}
	.st17{fill:#D5681E;}
	.st18{fill:#FF9933;}
	.st19{fill:none;stroke:#FF0000;stroke-width:8;stroke-linecap:round;}
</style>
<g id="Groupe_3235" transform="translate(-142.042 -783.459)">
	<g id="Groupe_3097" transform="translate(-1091.717 664.16)">
		<g id="Partnership_Strategic" transform="translate(1233.76 242)">
			<g id="Groupe_3074">
				<g id="Groupe_3072" transform="translate(40.836 576.047)">
					<path id="Tracé_8250" class="st0" d="M446.884-183.197c-51.698-15.231-100.735-12.271-144.841-4.119
						c-42.431,7.852-80.272,20.551-111.463,26.471c-54.83,10.426-100.908,22.653-161.788-17.977
						c-18.233-12.185-8.923-32.605,28.145-49.638c38.999-18.02,108.717-32.349,209.454-29.603
						C575.207-249.696,544.619-154.324,446.884-183.197z"/>
					
						<linearGradient id="Tracé_8251_1_" gradientUnits="userSpaceOnUse" x1="149.4591" y1="-321.7989" x2="149.5629" y2="-322.432" gradientTransform="matrix(456.6018 0 0 -144.8403 -68115.6094 -46862.4219)">
						<stop  offset="0" style="stop-color:#FFFFFF"/>
						<stop  offset="0.085" style="stop-color:#F5F5F5"/>
						<stop  offset="0.229" style="stop-color:#DADADA"/>
						<stop  offset="0.413" style="stop-color:#AFAFAF"/>
						<stop  offset="0.631" style="stop-color:#747474"/>
						<stop  offset="0.876" style="stop-color:#292929"/>
						<stop  offset="1" style="stop-color:#000000"/>
					</linearGradient>
					<path id="Tracé_8251" class="st1" d="M302.045-187.316c-42.431,7.852-80.271,20.551-111.463,26.471
						c-54.83,10.426-100.908,22.653-161.788-17.977c-18.233-12.185-8.923-32.605,28.145-49.638
						c25.572-7.379,56.976-11.713,90.912-11.713C225.934-240.173,290.588-217.22,302.045-187.316z"/>
				</g>
				<g id="Groupe_3073">
					<path id="Tracé_8252" class="st0" d="M371.924,260.451c-5.095-3.357-10.724-5.823-16.645-7.295
						c-5.817-1.503-11.798-2.282-17.806-2.317c-19.434-0.386-41.573,5.193-64.955,11.971c-6.735,1.93-13.513,3.947-20.422,6.006
						c-33.206,9.867-68.086,19.563-100.779,16.816c-19.651-1.629-38.528-7.723-55.817-21.065
						c-19.393-14.845-36.724-38.742-50.882-75.427c-0.343-0.9-0.686-1.802-0.945-2.702c-15.531-42.56-7.937-82.674,11.067-114.423
						c36.767-61.481,116.224-91.771,154.451-48.224c45.434,51.7,94.944,46.979,120.857,23.555
						c7.284-6.446,12.756-14.685,15.875-23.898c13.127-39.985,77.483-82.931,130.769-50.583c1.887,1.159,3.603,2.318,5.149,3.475
						c36.467,27.373-11.284,63.111,0.9,119.271c12.656,58.563,56.676,22.01,68.688,75.681
						C566.49,238.828,440.399,305.842,371.924,260.451z"/>
					
						<linearGradient id="Tracé_8253_1_" gradientUnits="userSpaceOnUse" x1="189.6653" y1="252.7886" x2="190.2836" y2="252.7886" gradientTransform="matrix(386.5836 0 0 -483.5269 -73007.8359 122355.9141)">
						<stop  offset="0" style="stop-color:#FFFFFF"/>
						<stop  offset="0.085" style="stop-color:#F5F5F5"/>
						<stop  offset="0.229" style="stop-color:#DADADA"/>
						<stop  offset="0.413" style="stop-color:#AFAFAF"/>
						<stop  offset="0.631" style="stop-color:#747474"/>
						<stop  offset="0.876" style="stop-color:#292929"/>
						<stop  offset="1" style="stop-color:#000000"/>
					</linearGradient>
					<path id="Tracé_8253" class="st2" d="M371.924,260.448c-5.095-3.357-10.724-5.823-16.645-7.295
						c-5.817-1.503-11.798-2.282-17.806-2.317c-14.157-25.032-22.24-53.039-23.596-81.765c-0.128-2.961-0.215-5.964-0.215-8.965
						c0-96.402,73.923-175.516,168.182-183.754c36.466,27.373-11.284,63.111,0.9,119.271c12.656,58.563,56.676,22.01,68.688,75.681
						C566.49,238.828,440.399,305.842,371.924,260.448z"/>
					
						<linearGradient id="Tracé_8254_1_" gradientUnits="userSpaceOnUse" x1="190.0683" y1="252.5904" x2="190.6866" y2="252.5904" gradientTransform="matrix(445.3009 0 0 -202.0365 -84582.8594 51098.2109)">
						<stop  offset="0" style="stop-color:#FFFFFF"/>
						<stop  offset="0.085" style="stop-color:#F5F5F5"/>
						<stop  offset="0.229" style="stop-color:#DADADA"/>
						<stop  offset="0.413" style="stop-color:#AFAFAF"/>
						<stop  offset="0.631" style="stop-color:#747474"/>
						<stop  offset="0.876" style="stop-color:#292929"/>
						<stop  offset="1" style="stop-color:#000000"/>
					</linearGradient>
					<path id="Tracé_8254" class="st3" d="M330.051,47.351c-30.974,48.609-85.333,80.83-147.201,80.83
						c-48.688,0.069-95.168-20.307-128.108-56.16C91.51,10.539,170.967-19.75,209.194,23.797
						C254.628,75.497,304.138,70.776,330.051,47.351z"/>
				</g>
			</g>
			<g id="Groupe_3086" transform="translate(334.607 263.131)">
				<g id="Groupe_3085" transform="translate(0)">
					<g id="Groupe_3079" transform="translate(47.898 172.269)">
						<g id="Groupe_3078" transform="translate(38.427 224.434)">
							<path id="Tracé_8261" class="st4" d="M-117.071-287.65l1.565,6.2l-5.873,7.625l17.535-7.708l-3.139-3.377l-1.648-5.477
								L-117.071-287.65z"/>
							<path id="Tracé_8262" class="st5" d="M-105.889-284.094c-2.943,2.936-6.467,5.172-11.804,5.217l-7.437,9.002
								c-2.801,5.778,21.829-4.769,23.092-8.965C-101.889-281.028-103.389-283.932-105.889-284.094z"/>
						</g>
						<path id="Tracé_8263" class="st6" d="M-78.881-204.71c5.654,21.909,1.875,38.659-0.336,64.877l10.742,74.106l-10.651,3.453
							l-24.961-80.612c-2.04-12.951-11.305-43.084-3.553-51.481L-78.881-204.71z"/>
					</g>
					<g id="Groupe_3081" transform="translate(0 165.409)">
						<g id="Groupe_3080" transform="translate(0 220.784)">
							<path id="Tracé_8264" class="st4" d="M-79.68-285.852l-0.047,6.395l-7.605,5.9l18.911-3.044l-2.188-4.059l-0.216-5.716
								L-79.68-285.852z"/>
							<path id="Tracé_8265" class="st5" d="M-69.753-279.593c-3.586,2.102-7.562,3.376-12.736,2.074l-9.468,6.84
								c-4.165,4.884,22.327,0.882,24.607-2.861C-66.653-275.62-67.373-278.807-69.753-279.593z"/>
						</g>
						<path id="Tracé_8266" class="st6" d="M-44.24-202.091c-0.082,22.678-7.92,37.937-16.674,62.7l-8.254,74.457l-1.669,0.082
							l-8.841,0.584h-0.666l-3.92-84.293c0.751-7.338,0.667-20.512,2.085-31.767v-0.084c0.168-1,0.335-2.001,0.501-3.001
							c1.167-7.338,3.251-13.508,7.004-15.843L-44.24-202.091z"/>
					</g>
					<g id="Groupe_3082" transform="translate(14.365)">
						<path id="Tracé_8268" class="st4" d="M-74.822-105.732c1.495-1.603,1.55-7.074,1.799-12.024l9.248-1.199
							c0.037,4.625,0.355,8.886,1.554,12C-66.183-101.891-73.39-101.612-74.822-105.732z"/>
						<path id="Tracé_8269" class="st4" d="M-74.671-106.689c4.213-0.77,8.4-8.151,11.828-13.74l-16.205-17.678l-14.436,13.573
							C-91.269-116.617-79.016-106.938-74.671-106.689z"/>
						<path id="Tracé_8270" class="st7" d="M-65.027-117.462l-5.517-0.894l-2.893-5.923l-3.026-0.08l1.709,4.884l-1.29,0.912
							l-4.336-5.65l-9.085,10.788l-8.416-6.981l5.187-12.267l11.918-6.273c0,0,13.002,2.728,13.223,2.877s4.711,15.642,4.711,15.642
							L-65.027-117.462z"/>
					</g>
					<path id="Tracé_8271" class="st8" d="M-47.076-16.076l11.961,10.356l-1.491,1.199l-11.589-10.441L-47.076-16.076z"/>
					<path id="Tracé_8272" class="st8" d="M-77.591-20.256l-4.586,5.252c0.168-1,0.335-2.001,0.501-3.001l3.002-3.335
						L-77.591-20.256z"/>
					<path id="Tracé_8275" class="st7" d="M-61.679-118.565l1.823,7.446l-4.738,2.749l2.505,3.018l3.161-0.283l1.966-3.775
						l-3.426-10.066L-61.679-118.565z"/>
					<path id="Union_4" class="st9" d="M-44.658-12.92l3.98-10.678c-14.616-0.227-28.208-1.556-38.513-6.438l1.25,11.252
						c-0.313-1.719-1.463-0.214-2.513,1.291c-0.961,1.379-1.838,2.759-1.907,1.656l-8.839-39.773l13.241-41.267
						c0.307-1.271,0.683-2.525,1.127-3.755c0.054-0.101,0.112-0.2,0.173-0.299l0.297-0.934c0.65-0.67,1.413-1.22,2.254-1.625
						c9.069-6.261,33.894-6.145,45.796-1.011c2.071-1.13,4.108-0.853,5.491,1.855c6.884,17.361,12.816,37.161,12.518,44.208
						c0.118,1.044-0.026,2.101-0.42,3.075L-27.86-27.098l-0.26,3.483c-0.627,0.009-1.253,0.016-1.878,0.023L-39.32-8.335
						L-44.658-12.92z M-79.39-31.845c0.035-0.068,0.07-0.138,0.104-0.207c-0.041,0.009-0.082,0.013-0.124,0.013L-79.39-31.845z"/>
				</g>
			</g>
		</g>
		<g id="Groupe_3096" transform="translate(1281.579 547.225)">
			<g id="Groupe_3089" transform="translate(0 106.955)">
				<g id="Groupe_3088">
					<g id="Groupe_3087">
						<path id="Tracé_8276" class="st5" d="M69.593-166.225c2.017-0.391,3.34-2.338,2.961-4.357l-0.895-4.861
							c-0.345-1.988-2.236-3.32-4.224-2.975c-0.026,0.005-0.052,0.009-0.078,0.014l-4.134,0.726
							c-0.55-1.115-1.225-2.164-2.011-3.128l2.291-3.353l0.111-0.111c1.172-1.684,0.775-3.997-0.893-5.193l-4.08-2.793
							c-1.704-1.135-4.001-0.715-5.193,0.949l-2.401,3.407c-1.184-0.359-2.4-0.602-3.631-0.726l-0.726-4.19
							c-0.398-2.012-2.34-3.332-4.357-2.961l-4.806,0.894c-1.992,0.314-3.353,2.183-3.039,4.176
							c0.007,0.042,0.014,0.084,0.022,0.126l0.726,4.134c-1.107,0.565-2.155,1.239-3.128,2.012l-3.462-2.403
							c-1.677-1.158-3.976-0.737-5.133,0.941c-0.002,0.003-0.004,0.006-0.007,0.01l-2.795,4.022
							c-1.177,1.67-0.777,3.977,0.893,5.154c0.019,0.013,0.038,0.027,0.058,0.04l3.407,2.403c-0.346,1.191-0.607,2.404-0.782,3.632
							l-4.134,0.726c-2.023,0.391-3.363,2.326-3.017,4.357l0.894,4.86c0.371,2.005,2.296,3.33,4.302,2.961l4.135-0.726
							c0.605,1.084,1.277,2.129,2.011,3.129l-2.349,3.407c0,0.056,0,0.056-0.056,0.112c-1.137,1.667-0.712,3.94,0.95,5.084
							l4.08,2.849c1.677,1.158,3.975,0.737,5.133-0.94c0.002-0.003,0.005-0.007,0.007-0.01l2.403-3.462
							c1.182,0.391,2.398,0.671,3.632,0.838l0.726,4.08c0.369,2.035,2.318,3.387,4.353,3.018c0.002,0,0.003-0.001,0.005-0.001
							l4.86-0.838c2.017-0.391,3.34-2.338,2.961-4.357l-0.726-4.134c1.115-0.551,2.164-1.226,3.128-2.011l3.462,2.401
							c1.7,1.153,4.011,0.731,5.193-0.948l2.793-4.08c1.153-1.701,0.73-4.011-0.95-5.193l-3.462-2.345
							c0.39-1.182,0.671-2.398,0.838-3.632L69.593-166.225z M47.637-152.762c-6.022,1.129-12.14-1.415-15.586-6.481
							c-1.265-1.806-2.123-3.865-2.515-6.034c-1.557-8.464,4.042-16.588,12.506-18.145c8.464-1.557,16.588,4.042,18.145,12.507
							c1.557,8.464-4.042,16.588-12.507,18.145C47.666-152.768,47.652-152.765,47.637-152.762L47.637-152.762z"/>
						<path id="Tracé_8277" class="st10" d="M60.208-170.806c-0.937-5.157-4.399-9.499-9.218-11.561
							c-7.896-3.388-17.044,0.266-20.433,8.163c-3.388,7.896,0.266,17.044,8.163,20.433c2.808,1.205,5.908,1.556,8.915,1.01
							C56.082-154.284,61.705-162.355,60.208-170.806z M46.632-158.348c-4.786,0.913-9.518-1.822-11.118-6.424
							c-0.157-0.496-0.287-0.999-0.391-1.509c-0.999-5.38,2.553-10.552,7.933-11.551c0.019-0.003,0.037-0.007,0.056-0.01
							c0.646-0.109,1.3-0.165,1.955-0.168c4.718,0.153,8.694,3.57,9.554,8.212C55.57-164.432,51.997-159.31,46.632-158.348
							L46.632-158.348z"/>
					</g>
				</g>
			</g>
			<g id="Groupe_3092" transform="translate(121.295 151.896)">
				<g id="Groupe_3091">
					<g id="Groupe_3090">
						<path id="Tracé_8278" class="st5" d="M33.816-177.398c2.413-0.46,4.006-2.775,3.575-5.193l-1.062-5.866
							c-0.415-2.395-2.694-4-5.089-3.585c-0.017,0.003-0.034,0.006-0.051,0.009l-4.302,0.782l-0.67,0.112
							c-0.688-1.329-1.512-2.584-2.459-3.744l2.906-4.19c1.395-2.023,0.896-4.793-1.117-6.202l-4.86-3.352
							c-2.041-1.4-4.828-0.902-6.258,1.118l-2.849,4.08c-1.444-0.421-2.92-0.72-4.414-0.894l-0.893-4.972
							c-0.41-2.418-2.703-4.046-5.121-3.635c-0.007,0.001-0.013,0.002-0.02,0.003l-5.812,1.061
							c-2.436,0.432-4.062,2.756-3.633,5.193l0.894,4.973c-1.33,0.694-2.6,1.498-3.798,2.401l-4.135-2.849
							c-2.023-1.395-4.793-0.896-6.2,1.118l-3.353,4.86c-0.632,0.892-0.911,1.987-0.782,3.073c0.121,1.279,0.821,2.431,1.9,3.128
							l0.503,0.336l3.631,2.569c-0.112,0.392-0.222,0.782-0.334,1.175c-0.297,1.041-0.502,2.106-0.615,3.183l-4.973,0.894
							c-2.421,0.446-4.022,2.771-3.576,5.192c0,0,0,0.001,0,0.001l1.062,5.812c0.409,2.417,2.7,4.045,5.117,3.635
							c0.008-0.001,0.015-0.003,0.023-0.004l4.972-0.894c0.702,1.308,1.505,2.56,2.401,3.744l-2.849,4.134
							c-1.405,2.018-0.907,4.792,1.11,6.197c0.002,0.002,0.005,0.003,0.007,0.005l4.86,3.407c2.024,1.396,4.794,0.896,6.204-1.118
							l2.906-4.136c1.417,0.461,2.877,0.779,4.357,0.95l0.893,4.972c0.457,2.434,2.801,4.036,5.234,3.579
							c0.006-0.001,0.011-0.002,0.017-0.003l5.754-1.005c2.45-0.443,4.077-2.789,3.633-5.239c-0.001-0.004-0.002-0.009-0.002-0.013
							l-0.893-4.916c1.321-0.701,2.574-1.524,3.742-2.459l4.135,2.906c2.043,1.389,4.822,0.893,6.257-1.118l3.407-4.916
							c1.395-2.022,0.897-4.792-1.117-6.2l-4.189-2.849c0.449-1.42,0.767-2.879,0.948-4.357L33.816-177.398z M7.446-161.197
							c-10.165,1.837-19.894-4.915-21.731-15.079c0-0.002-0.001-0.004-0.001-0.006c-0.334-1.787-0.391-3.614-0.168-5.418
							c1.147-10.255,10.39-17.639,20.646-16.492c7.461,0.835,13.699,6.054,15.835,13.251c0.219,0.657,0.387,1.33,0.503,2.012
							c1.837,10.164-4.913,19.893-15.077,21.731C7.451-161.197,7.448-161.197,7.446-161.197z"/>
						<path id="Tracé_8279" class="st10" d="M22.528-182.931c-0.116-0.683-0.284-1.356-0.503-2.012
							c-2.936-9.893-13.336-15.533-23.229-12.597c-7.199,2.136-12.419,8.375-13.253,15.838c-0.223,1.804-0.167,3.632,0.168,5.418
							c1.835,10.167,11.565,16.921,21.732,15.085C17.609-163.035,24.363-172.764,22.528-182.931L22.528-182.931z M6.215-167.903
							c-6.443,1.152-12.607-3.115-13.796-9.551c-0.064-0.444-0.101-0.892-0.111-1.34c-0.496-6.533,4.399-12.23,10.931-12.726
							c6.101-0.463,11.552,3.79,12.588,9.82c0.074,0.349,0.093,0.707,0.056,1.062c0.602,6.12-3.61,11.671-9.666,12.737
							L6.215-167.903z"/>
					</g>
				</g>
			</g>
			<g id="Groupe_3095" transform="translate(67.291)">
				<g id="Groupe_3094">
					<g id="Groupe_3093">
						<path id="Tracé_8280" class="st5" d="M70.076-110.637c3.032-0.552,5.052-3.444,4.526-6.481l-1.341-7.263
							c-0.542-3.015-3.426-5.019-6.44-4.477c-0.014,0.003-0.028,0.005-0.042,0.008l-6.202,1.117
							c-0.355-0.738-0.765-1.448-1.229-2.123c-0.55-0.887-1.148-1.745-1.789-2.569l3.632-5.193c1.734-2.554,1.114-6.025-1.397-7.821
							l-6.089-4.134c-2.534-1.743-5.999-1.12-7.767,1.397l-3.632,5.14c-1.763-0.568-3.578-0.962-5.418-1.175l-1.175-6.2
							c-0.531-3.02-3.402-5.042-6.424-4.526l-7.263,1.34c-3.031,0.529-5.06,3.415-4.532,6.446c0.002,0.012,0.004,0.023,0.006,0.035
							l1.118,6.202c-1.644,0.855-3.213,1.845-4.692,2.961l-5.193-3.521c-2.516-1.737-5.964-1.112-7.71,1.398l-4.19,6.033
							c-1.767,2.483-1.187,5.928,1.296,7.695c0.033,0.024,0.067,0.047,0.101,0.07l5.14,3.633c-0.563,1.765-0.956,3.579-1.175,5.418
							l-6.202,1.117c-3.018,0.573-5.027,3.45-4.526,6.481l1.342,7.32c0.566,3.017,3.46,5.012,6.481,4.468l6.2-1.117
							c0.867,1.636,1.857,3.205,2.961,4.692l-3.52,5.14c-1.769,2.476-1.195,5.917,1.281,7.686c0.038,0.027,0.077,0.054,0.116,0.08
							l6.034,4.246c2.535,1.736,5.994,1.114,7.765-1.397l3.575-5.193c1.782,0.58,3.615,0.991,5.474,1.228l1.118,6.146
							c0.492,3.005,3.327,5.043,6.333,4.551c0.049-0.008,0.099-0.017,0.148-0.026l4.023-0.726l3.24-0.556
							c3.038-0.572,5.039-3.497,4.469-6.536l-1.118-6.145c1.66-0.848,3.232-1.859,4.693-3.017l5.193,3.575
							c2.536,1.732,5.992,1.11,7.765-1.397l4.246-6.09c1.734-2.554,1.114-6.025-1.397-7.821l-5.193-3.519
							c0.562-1.785,0.955-3.618,1.175-5.476L70.076-110.637z M37.17-90.358c-1.531,0.269-3.083,0.399-4.637,0.39
							c-12.904-0.284-23.134-10.975-22.85-23.879c0.284-12.904,10.975-23.134,23.879-22.85c7.276,0.16,14.063,3.701,18.356,9.578
							c2.123,2.828,3.541,6.122,4.134,9.608C58.315-104.802,49.87-92.659,37.17-90.358L37.17-90.358z"/>
						<path id="Tracé_8281" class="st10" d="M56.053-117.508c-0.593-3.486-2.01-6.78-4.134-9.608
							c-7.608-10.434-22.233-12.724-32.667-5.117C8.819-124.626,6.528-110,14.136-99.567c4.299,5.896,11.103,9.446,18.398,9.6
							c1.554,0.009,3.106-0.121,4.637-0.39C49.871-92.659,58.316-104.801,56.053-117.508z M35.662-98.737
							c-1.178,0.222-2.381,0.279-3.574,0.168c-8.185-0.511-14.406-7.561-13.895-15.747c0.511-8.185,7.561-14.406,15.747-13.895
							c4.237,0.265,8.158,2.33,10.773,5.675c1.538,1.906,2.558,4.177,2.961,6.592C49.093-107.879,43.722-100.185,35.662-98.737
							L35.662-98.737z"/>
					</g>
				</g>
			</g>
			
				<linearGradient id="Tracé_8282_1_" gradientUnits="userSpaceOnUse" x1="142.4346" y1="-51.4354" x2="143.0529" y2="-51.4354" gradientTransform="matrix(76.3119 0 0 -72.0693 -10844.0205 -3762.5391)">
				<stop  offset="0" style="stop-color:#FFFFFF"/>
				<stop  offset="0.256" style="stop-color:#C1C1C1"/>
				<stop  offset="0.845" style="stop-color:#292929"/>
				<stop  offset="1" style="stop-color:#000000"/>
			</linearGradient>
			<path id="Tracé_8282" class="st11" d="M65.46-58.544c-0.167,1.234-0.448,2.449-0.838,3.632l3.462,2.345
				c1.68,1.182,2.103,3.493,0.95,5.193l-2.793,4.08c-1.183,1.68-3.493,2.102-5.193,0.948l-3.462-2.401
				c-0.964,0.785-2.014,1.46-3.129,2.011l0.726,4.134c0.379,2.02-0.944,3.966-2.961,4.357l-4.86,0.838
				c-2.035,0.371-3.985-0.978-4.357-3.013c0-0.002-0.001-0.003-0.001-0.005l-0.726-4.08c-1.234-0.167-2.45-0.448-3.632-0.838
				l-2.403,3.462c-1.153,1.681-3.45,2.109-5.131,0.956c-0.003-0.002-0.006-0.004-0.009-0.006l-4.08-2.849
				c-1.663-1.144-2.088-3.417-0.95-5.084c0.056-0.056,0.056-0.056,0.056-0.112c2.256-2.198,4.243-4.654,5.922-7.319
				c1.229-1.789,2.349-3.687,3.462-5.53c1.848,5.154,7.526,7.834,12.68,5.986c4.532-1.625,7.241-6.271,6.424-11.015
				c-0.86-4.642-4.835-8.059-9.554-8.212c1.779-1.7,3.77-3.165,5.922-4.357c4.019-2.291,8.379-3.241,12.515-1.789l-2.291,3.353
				c0.786,0.964,1.46,2.013,2.011,3.128l4.134-0.726c1.98-0.388,3.9,0.903,4.287,2.883c0.005,0.026,0.01,0.052,0.014,0.078
				l0.895,4.861c0.379,2.02-0.944,3.966-2.961,4.357L65.46-58.544z"/>
			
				<linearGradient id="Tracé_8283_1_" gradientUnits="userSpaceOnUse" x1="137.5522" y1="-37.8998" x2="138.1705" y2="-37.8998" gradientTransform="matrix(3.886 0 0 -5.6 -448.5059 -251.7327)">
				<stop  offset="0" style="stop-color:#FFFFFF"/>
				<stop  offset="0.256" style="stop-color:#C1C1C1"/>
				<stop  offset="0.845" style="stop-color:#292929"/>
				<stop  offset="1" style="stop-color:#000000"/>
			</linearGradient>
			<path id="Tracé_8283" class="st12" d="M87.92-38.096c-1.079-0.697-1.779-1.85-1.9-3.129c0.726,1.175,1.565,2.349,2.403,3.462
				L87.92-38.096z"/>
			
				<linearGradient id="Tracé_8284_1_" gradientUnits="userSpaceOnUse" x1="141.9787" y1="-51.1443" x2="142.5969" y2="-51.1443" gradientTransform="matrix(107.8577 0 0 -74.1671 -15221.416 -3810.5103)">
				<stop  offset="0" style="stop-color:#FFFFFF"/>
				<stop  offset="0.256" style="stop-color:#C1C1C1"/>
				<stop  offset="0.845" style="stop-color:#292929"/>
				<stop  offset="1" style="stop-color:#000000"/>
			</linearGradient>
			<path id="Tracé_8284" class="st13" d="M150.137-24.608c-0.182,1.478-0.499,2.937-0.948,4.357l4.189,2.849
				c2.013,1.409,2.512,4.178,1.117,6.2l-3.407,4.916c-1.435,2.011-4.214,2.508-6.257,1.118l-4.135-2.906
				c-1.168,0.935-2.42,1.758-3.742,2.459l0.893,4.916c0.451,2.449-1.169,4.799-3.618,5.25c-0.004,0.001-0.009,0.002-0.013,0.002
				l-5.754,1.005C126.03,6.025,123.68,4.432,123.213,2c-0.001-0.006-0.002-0.011-0.003-0.017l-0.893-4.972
				c-1.481-0.171-2.94-0.489-4.357-0.95l-2.906,4.136c-1.41,2.013-4.179,2.512-6.202,1.117l-4.86-3.407
				c-2.021-1.4-2.523-4.174-1.123-6.194c0.002-0.002,0.003-0.005,0.005-0.007l2.849-4.134c-0.897-1.184-1.699-2.435-2.401-3.744
				l-4.972,0.894c-2.415,0.422-4.714-1.194-5.136-3.609c-0.001-0.008-0.003-0.015-0.004-0.023l-1.062-5.812
				c-0.447-2.421,1.153-4.746,3.574-5.193c0,0,0.001,0,0.001,0l4.973-0.894c0.112-1.077,0.318-2.142,0.615-3.183
				c1.668,1.614,3.525,3.021,5.53,4.19c2.126,1.241,4.396,2.217,6.76,2.906c0.01,0.449,0.047,0.896,0.111,1.34
				c1.188,6.439,7.356,10.708,13.801,9.553c6.054-1.068,10.266-6.618,9.664-12.736c1.348-0.675,2.637-1.461,3.855-2.349
				c0.816-0.589,1.582-1.243,2.291-1.956c2.004-1.778,3.653-3.92,4.859-6.312l4.302-0.782c2.39-0.444,4.687,1.134,5.131,3.524
				c0.003,0.017,0.006,0.034,0.009,0.051l1.062,5.866c0.431,2.418-1.163,4.733-3.575,5.193L150.137-24.608z"/>
			
				<linearGradient id="Tracé_8285_1_" gradientUnits="userSpaceOnUse" x1="141.8014" y1="-51.9595" x2="142.4196" y2="-51.9595" gradientTransform="matrix(69.0817 0 0 -92.709 -9696.6094 -4918.3057)">
				<stop  offset="0" style="stop-color:#FFFFFF"/>
				<stop  offset="0.256" style="stop-color:#C1C1C1"/>
				<stop  offset="0.845" style="stop-color:#292929"/>
				<stop  offset="1" style="stop-color:#000000"/>
			</linearGradient>
			<path id="Tracé_8285" class="st14" d="M131.167-109.52c-0.219,1.858-0.613,3.691-1.175,5.476l5.193,3.519
				c2.511,1.796,3.131,5.267,1.397,7.821l-4.245,6.09c-1.774,2.507-5.229,3.128-7.765,1.397l-5.193-3.575
				c-1.461,1.158-3.033,2.169-4.693,3.017l1.118,6.145c0.569,3.039-1.431,5.964-4.469,6.536l-3.24,0.556
				c-4.35-4.911-7.218-10.955-8.269-17.43c-0.54-2.834-0.69-5.729-0.446-8.604c1.193,0.111,2.396,0.054,3.574-0.168
				c8.059-1.448,13.429-9.14,12.011-17.204c-0.404-2.416-1.424-4.686-2.961-6.592c1.642-1.387,3.42-2.603,5.308-3.632
				c0.615-0.334,1.285-0.67,1.899-0.948c2.383-1.151,4.871-2.068,7.431-2.739c0.463,0.675,0.874,1.385,1.229,2.123l6.202-1.117
				c3.011-0.564,5.909,1.419,6.473,4.43c0.003,0.013,0.005,0.027,0.007,0.04l1.341,7.263c0.526,3.036-1.494,5.929-4.526,6.481
				L131.167-109.52z"/>
		</g>
	</g>
	<g id="Groupe_3139" transform="translate(471 762.347)">
		<path id="Tracé_8286" class="st15" d="M77.115,29.455H-71.322c-10.448,0-18.919,5.909-18.919,13.198v87.726
			c0,7.289,8.47,13.198,18.919,13.198h129.52c10.448,0,18.919-5.909,18.919-13.198L77.115,29.455L77.115,29.455z"/>
		<rect id="Rectangle_1785" x="1.147" y="76.914" class="st16" width="86.902" height="41.686"/>
		<g id="Groupe_3098" transform="translate(0 21.112)">
			<path id="Tracé_8287" class="st17" d="M-6.563,8.343h-64.76c-10.448,0-18.919,5.909-18.919,13.198v87.726
				c0,7.289,8.47,13.198,18.919,13.198h64.76V8.343z"/>
			<path id="Tracé_8288" class="st17" d="M77.115,8.343H-71.322c-10.448,0.004-18.915,8.477-18.911,18.926
				c0.004,10.443,8.469,18.907,18.911,18.911H77.115V8.343z"/>
		</g>
		<path id="Tracé_8289" class="st18" d="M-6.563,29.455h-64.76c-10.448,0.004-18.915,8.477-18.911,18.926
			c0.004,10.443,8.469,18.907,18.911,18.911h64.76C-6.563,67.292-6.563,29.455-6.563,29.455z"/>
		<g id="Groupe_3099" transform="translate(77.924 42.883)">
			<rect id="Rectangle_1786" x="-119.988" y="0.032" class="st16" width="27.792" height="10.915"/>
			<rect id="Rectangle_1787" x="-76.777" y="0.032" class="st16" width="75.969" height="10.915"/>
		</g>
		<path id="Tracé_8290" class="st18" d="M66.623,91.329c-4.299-0.001-7.784,3.483-7.785,7.781
			c-0.001,4.299,3.483,7.784,7.781,7.785c4.299,0.001,7.784-3.483,7.785-7.781c0-0.001,0-0.001,0-0.002
			C74.401,94.816,70.92,91.334,66.623,91.329z"/>
	</g>
	<line id="Ligne_121" class="st19" x1="342.736" y1="804.811" x2="572.727" y2="901.877"/>
</g>
</svg>
