<?xml version="1.0" encoding="utf-8"?>
<!-- Generator: Adobe Illustrator 25.1.0, SVG Export Plug-In . SVG Version: 6.00 Build 0)  -->
<svg version="1.1" id="Calque_1" xmlns="http://www.w3.org/2000/svg" xmlns:xlink="http://www.w3.org/1999/xlink" x="0px" y="0px"
	 viewBox="0 0 580.198 551.749" style="enable-background:new 0 0 580.198 551.749;" xml:space="preserve">
<style type="text/css">
	.st0{fill:#F1EFF8;}
	.st1{opacity:0.5;fill:url(#Tracé_8251_1_);enable-background:new    ;}
	.st2{opacity:0.5;fill:url(#Tracé_8253_1_);enable-background:new    ;}
	.st3{opacity:0.5;fill:url(#Tracé_8254_1_);enable-background:new    ;}
	.st4{fill:#F4BC84;}
	.st5{fill:#1B2C7B;}
	.st6{fill:#000074;}
	.st7{fill:#091038;}
	.st8{fill:#FFFFFF;}
	.st9{fill:#42B3E5;}
	.st10{fill:#E90566;}
	.st11{opacity:0.7;fill:url(#Tracé_8282_1_);enable-background:new    ;}
	.st12{opacity:0.7;fill:url(#Tracé_8283_1_);enable-background:new    ;}
	.st13{opacity:0.7;fill:url(#Tracé_8284_1_);enable-background:new    ;}
	.st14{opacity:0.7;fill:url(#Tracé_8285_1_);enable-background:new    ;}
	.st15{fill:#FCD370;}
	.st16{fill:#FFB85A;}
	.st17{fill:#FFF48A;}
	.st18{fill:#FF8D6E;}
	.st19{fill:#ED6666;}
	.st20{fill:#D4F4EE;}
</style>
<g id="Groupe_3242" transform="translate(-109.042 -732.065)">
	<g id="Groupe_3097" transform="translate(-1124.717 592.16)">
		<g id="Partnership_Strategic" transform="translate(1233.76 242)">
			<g id="Groupe_3074">
				<g id="Groupe_3072" transform="translate(44.033 621.154)">
					<path id="Tracé_8250" class="st0" d="M448.899-211.176c-53.434-15.743-104.118-12.682-149.703-4.257
						c-43.856,8.114-82.965,21.241-115.203,27.36c-56.671,10.775-104.295,23.413-167.22-18.581
						c-18.845-12.593-9.223-33.7,29.09-51.305c40.309-18.625,112.367-33.435,216.486-30.597
						C581.531-279.909,549.914-181.334,448.899-211.176z"/>
					
						<linearGradient id="Tracé_8251_1_" gradientUnits="userSpaceOnUse" x1="146.2229" y1="-346.1599" x2="146.3224" y2="-346.7667" gradientTransform="matrix(492.3519 0 0 -156.1813 -71874.1484 -54347.0156)">
						<stop  offset="0" style="stop-color:#FFFFFF"/>
						<stop  offset="0.085" style="stop-color:#F5F5F5"/>
						<stop  offset="0.229" style="stop-color:#DADADA"/>
						<stop  offset="0.413" style="stop-color:#AFAFAF"/>
						<stop  offset="0.631" style="stop-color:#747474"/>
						<stop  offset="0.876" style="stop-color:#292929"/>
						<stop  offset="1" style="stop-color:#000000"/>
					</linearGradient>
					<path id="Tracé_8251" class="st1" d="M299.195-215.434c-43.856,8.114-82.965,21.241-115.203,27.36
						c-56.671,10.775-104.295,23.413-167.22-18.581c-18.845-12.593-9.223-33.7,29.09-51.305
						c26.43-7.627,58.889-12.106,93.964-12.106C220.53-270.065,287.355-246.342,299.195-215.434z"/>
				</g>
				<g id="Groupe_3073">
					<path id="Tracé_8252" class="st0" d="M373.248,273.133c-5.267-3.469-11.084-6.018-17.205-7.539
						c-6.012-1.554-12.194-2.359-18.403-2.395c-20.089-0.399-42.969,5.366-67.136,12.373c-6.961,1.995-13.967,4.079-21.107,6.208
						c-34.321,10.199-70.373,20.22-104.163,17.382c-20.31-1.684-39.823-7.982-57.691-21.772
						c-20.044-15.344-37.959-40.042-52.592-77.957c-0.356-0.93-0.711-1.862-0.976-2.792c-16.053-43.989-8.204-85.45,11.441-118.264
						c38.002-63.545,120.126-94.852,159.637-49.843c46.959,53.435,98.132,48.556,124.915,24.345
						c7.528-6.663,13.184-15.177,16.408-24.7c13.571-41.327,80.084-85.715,135.16-52.281c1.951,1.198,3.724,2.396,5.322,3.592
						c37.69,28.292-11.663,65.229,0.93,123.275c13.081,60.529,58.579,22.748,70.994,78.224
						C574.347,250.784,444.022,320.048,373.248,273.133z"/>
					
						<linearGradient id="Tracé_8253_1_" gradientUnits="userSpaceOnUse" x1="189.6035" y1="273.4196" x2="190.1961" y2="273.4196" gradientTransform="matrix(416.8551 0 0 -521.4052 -78724.1328 142696.375)">
						<stop  offset="0" style="stop-color:#FFFFFF"/>
						<stop  offset="0.085" style="stop-color:#F5F5F5"/>
						<stop  offset="0.229" style="stop-color:#DADADA"/>
						<stop  offset="0.413" style="stop-color:#AFAFAF"/>
						<stop  offset="0.631" style="stop-color:#747474"/>
						<stop  offset="0.876" style="stop-color:#292929"/>
						<stop  offset="1" style="stop-color:#000000"/>
					</linearGradient>
					<path id="Tracé_8253" class="st2" d="M373.248,273.133c-5.267-3.469-11.084-6.018-17.204-7.539
						c-6.012-1.554-12.194-2.359-18.404-2.395c-14.634-25.876-22.988-54.826-24.388-84.521c-0.133-3.06-0.222-6.163-0.222-9.268
						c0-99.639,76.404-181.409,173.828-189.924c37.69,28.292-11.664,65.229,0.93,123.275c13.081,60.529,58.579,22.748,70.994,78.224
						C574.346,250.784,444.021,320.048,373.248,273.133z"/>
					
						<linearGradient id="Tracé_8254_1_" gradientUnits="userSpaceOnUse" x1="190.0388" y1="273.244" x2="190.6314" y2="273.244" gradientTransform="matrix(480.17 0 0 -217.8571 -91205.5 59600)">
						<stop  offset="0" style="stop-color:#FFFFFF"/>
						<stop  offset="0.085" style="stop-color:#F5F5F5"/>
						<stop  offset="0.229" style="stop-color:#DADADA"/>
						<stop  offset="0.413" style="stop-color:#AFAFAF"/>
						<stop  offset="0.631" style="stop-color:#747474"/>
						<stop  offset="0.876" style="stop-color:#292929"/>
						<stop  offset="1" style="stop-color:#000000"/>
					</linearGradient>
					<path id="Tracé_8254" class="st3" d="M329.968,52.878c-32.017,50.241-88.198,83.544-152.143,83.544
						c-50.323,0.071-98.363-20.989-132.409-58.046c38.002-63.545,120.126-94.852,159.637-49.844
						C252.014,81.968,303.186,77.09,329.968,52.878z"/>
				</g>
			</g>
			<g id="Groupe_3086" transform="translate(360.808 283.736)">
				<g id="Groupe_3085" transform="translate(0)">
					<g id="Groupe_3079" transform="translate(51.648 185.758)">
						<g id="Groupe_3078" transform="translate(41.436 242.008)">
							<path id="Tracé_8261" class="st4" d="M-150.993-322.885l1.618,6.409l-6.071,7.882l18.124-7.966l-3.245-3.49l-1.704-5.661
								L-150.993-322.885z"/>
							<path id="Tracé_8262" class="st5" d="M-139.435-319.21c-3.042,3.035-6.684,5.346-12.201,5.393l-7.686,9.304
								c-2.894,5.972,22.562-4.929,23.867-9.267C-135.302-316.041-136.852-319.042-139.435-319.21z"/>
						</g>
						<path id="Tracé_8263" class="st6" d="M-109.802-227.121c5.844,22.645,1.938,39.957-0.347,67.055l11.101,76.594l-11.008,3.569
							l-25.8-83.321c-2.109-13.385-11.685-44.531-3.674-53.21L-109.802-227.121z"/>
					</g>
					<g id="Groupe_3081" transform="translate(0 178.361)">
						<g id="Groupe_3080" transform="translate(0 238.072)">
							<path id="Tracé_8264" class="st4" d="M-108.484-320.556l-0.049,6.61l-7.86,6.099l19.546-3.146l-2.261-4.195l-0.223-5.908
								L-108.484-320.556z"/>
							<path id="Tracé_8265" class="st5" d="M-98.225-314.087c-3.709,2.17-7.815,3.49-13.165,2.144l-9.783,7.069
								c-4.305,5.051,23.077,0.912,25.432-2.957C-95.021-309.98-95.765-313.274-98.225-314.087z"/>
						</g>
						<path id="Tracé_8266" class="st6" d="M-71.856-224.108c-0.085,23.439-8.186,39.211-17.234,64.805l-8.534,76.957l-1.723,0.085
							l-9.136,0.603h-0.688l-4.052-87.123c0.776-7.585,0.69-21.201,2.155-32.834v-0.087c0.173-1.034,0.346-2.068,0.518-3.102
							c1.206-7.585,3.36-13.961,7.239-16.374L-71.856-224.108z"/>
					</g>
					<g id="Groupe_3082" transform="translate(15.49)">
						<path id="Tracé_8268" class="st4" d="M-104.107-117.114c1.546-1.659,1.6-7.312,1.859-12.428l9.559-1.238
							c0.038,4.779,0.367,9.185,1.607,12.403C-95.178-113.146-102.627-112.856-104.107-117.114z"/>
						<path id="Tracé_8269" class="st4" d="M-103.95-118.102c4.355-0.796,8.682-8.425,12.225-14.202l-16.749-18.273l-14.921,14.028
							C-121.106-128.364-108.445-118.361-103.95-118.102z"/>
						<path id="Tracé_8270" class="st7" d="M-93.983-129.24l-5.702-0.924l-2.99-6.123l-3.127-0.082l1.766,5.048l-1.334,0.942
							l-4.481-5.839l-9.39,11.15l-8.699-7.216l5.361-12.682l12.319-6.483c0,0,13.439,2.82,13.667,2.974
							c0.228,0.153,4.869,16.166,4.869,16.166L-93.983-129.24z"/>
					</g>
					<path id="Tracé_8271" class="st8" d="M-74.785-24.448l12.363,10.704l-1.541,1.239l-11.978-10.792L-74.785-24.448z"/>
					<path id="Tracé_8272" class="st8" d="M-106.326-28.77l-4.741,5.428c0.173-1.034,0.346-2.068,0.518-3.102l3.103-3.447
						L-106.326-28.77z"/>
					<path id="Tracé_8275" class="st7" d="M-89.88-130.378l1.885,7.696l-4.897,2.845l2.589,3.119l3.266-0.292l2.032-3.902
						l-3.541-10.404L-89.88-130.378z"/>
					<path id="Union_4" class="st9" d="M-72.287-21.186l4.113-11.036c-15.106-0.237-29.156-1.608-39.807-6.654l1.292,11.632
						c-0.324-1.778-1.513-0.222-2.597,1.334c-0.994,1.426-1.9,2.852-1.97,1.712l-9.136-41.11l13.685-42.653
						c0.317-1.314,0.706-2.609,1.165-3.881c0.059-0.104,0.118-0.207,0.178-0.309l0.31-0.965c0.671-0.693,1.458-1.261,2.327-1.679
						c9.373-6.471,35.032-6.351,47.333-1.044c2.141-1.168,4.247-0.882,5.675,1.92c7.114,17.943,13.247,38.409,12.938,45.69
						c0.053,1.467-0.082,2.554-0.434,3.177l-17.712,29.212l-0.269,3.6c-0.648,0.009-1.295,0.017-1.941,0.024l-9.635,15.769
						L-72.287-21.186z M-108.188-40.747c0.036-0.071,0.073-0.144,0.108-0.214c-0.043,0.009-0.087,0.014-0.13,0.014L-108.188-40.747z
						"/>
				</g>
			</g>
		</g>
		<g id="Groupe_3096" transform="translate(1285.324 571.126)">
			<g id="Groupe_3089" transform="translate(0 115.33)">
				<g id="Groupe_3088">
					<g id="Groupe_3087">
						<path id="Tracé_8276" class="st5" d="M58.627-186.305c2.085-0.404,3.452-2.416,3.061-4.504l-0.925-5.025
							c-0.357-2.055-2.311-3.431-4.366-3.075c-0.026,0.005-0.052,0.009-0.078,0.014l-4.273,0.751
							c-0.569-1.152-1.266-2.237-2.078-3.233l2.37-3.466l0.114-0.114c1.213-1.741,0.802-4.134-0.923-5.37l-4.216-2.887
							c-1.762-1.174-4.137-0.74-5.37,0.981l-2.482,3.522c-1.224-0.371-2.481-0.623-3.753-0.751l-0.751-4.33
							c-0.412-2.08-2.418-3.443-4.504-3.06l-4.967,0.924c-2.059,0.325-3.466,2.258-3.141,4.317c0.007,0.043,0.014,0.085,0.022,0.128
							l0.751,4.273c-1.144,0.584-2.227,1.281-3.233,2.08l-3.579-2.484c-1.733-1.197-4.109-0.762-5.306,0.972
							c-0.002,0.003-0.005,0.007-0.007,0.01l-2.888,4.157c-1.217,1.725-0.806,4.11,0.919,5.327c0.021,0.015,0.042,0.029,0.063,0.043
							l3.522,2.484c-0.357,1.23-0.627,2.485-0.808,3.753l-4.273,0.751c-2.091,0.403-3.477,2.404-3.118,4.504l0.925,5.023
							c0.384,2.071,2.372,3.441,4.445,3.061l4.274-0.751c0.625,1.12,1.319,2.2,2.078,3.234l-2.426,3.522
							c0,0.059,0,0.059-0.059,0.119c-1.176,1.723-0.737,4.072,0.982,5.255l4.215,2.945c1.734,1.197,4.109,0.761,5.305-0.972
							c0.002-0.003,0.004-0.006,0.007-0.01l2.484-3.58c1.222,0.404,2.478,0.694,3.753,0.866l0.751,4.215
							c0.381,2.104,2.395,3.5,4.499,3.119c0.002,0,0.003-0.001,0.005-0.001l5.023-0.866c2.085-0.404,3.452-2.416,3.061-4.504
							l-0.75-4.273c1.152-0.57,2.237-1.267,3.234-2.078l3.58,2.482c1.758,1.194,4.148,0.757,5.37-0.981l2.887-4.216
							c1.193-1.758,0.756-4.148-0.982-5.37l-3.58-2.424c0.403-1.222,0.693-2.478,0.866-3.753L58.627-186.305z M35.934-172.39
							c-6.223,1.167-12.547-1.461-16.109-6.696c-1.307-1.866-2.194-3.994-2.599-6.237c-1.609-8.749,4.178-17.145,12.926-18.755
							c8.749-1.609,17.145,4.178,18.755,12.926s-4.178,17.145-12.926,18.755c-0.015,0.003-0.031,0.006-0.046,0.008V-172.39z"/>
						<path id="Tracé_8277" class="st10" d="M48.926-191.042c-0.968-5.331-4.546-9.821-9.527-11.953
							c-8.163-3.498-17.616,0.284-21.114,8.448c-3.498,8.163,0.285,17.616,8.448,21.114c2.898,1.242,6.098,1.604,9.201,1.042
							C44.664-173.966,50.475-182.307,48.926-191.042z M34.895-178.165c-4.946,0.943-9.837-1.881-11.491-6.637
							c-0.162-0.512-0.297-1.033-0.404-1.559c-1.034-5.561,2.635-10.907,8.196-11.942c0.021-0.004,0.041-0.008,0.062-0.011
							c0.668-0.113,1.343-0.171,2.02-0.174c4.877,0.158,8.986,3.69,9.875,8.487C44.134-184.453,40.44-179.158,34.895-178.165
							L34.895-178.165z"/>
					</g>
				</g>
			</g>
			<g id="Groupe_3092" transform="translate(130.793 163.79)">
				<g id="Groupe_3091">
					<g id="Groupe_3090">
						<path id="Tracé_8278" class="st5" d="M16.223-199.864c2.495-0.476,4.143-2.87,3.695-5.37l-1.098-6.063
							c-0.429-2.476-2.784-4.134-5.26-3.705c-0.018,0.003-0.035,0.006-0.053,0.009l-4.445,0.808l-0.693,0.119
							c-0.711-1.374-1.563-2.671-2.541-3.869l3.002-4.33c1.442-2.091,0.927-4.953-1.154-6.41l-5.024-3.464
							c-2.11-1.447-4.99-0.932-6.468,1.156l-2.945,4.215c-1.492-0.436-3.019-0.745-4.563-0.924l-0.923-5.139
							c-0.424-2.499-2.794-4.181-5.293-3.757c-0.007,0.001-0.014,0.002-0.021,0.004l-6.004,1.096c-2.519,0.447-4.2,2.851-3.755,5.37
							l0.925,5.14c-1.375,0.718-2.688,1.548-3.925,2.482l-4.274-2.945c-2.091-1.441-4.953-0.925-6.409,1.156l-3.466,5.023
							c-0.654,0.922-0.942,2.054-0.808,3.176c0.125,1.322,0.848,2.513,1.964,3.233l0.519,0.347l3.753,2.655
							c-0.116,0.405-0.23,0.808-0.345,1.214c-0.306,1.076-0.519,2.177-0.635,3.29l-5.14,0.924c-2.502,0.461-4.157,2.863-3.696,5.365
							c0,0.002,0.001,0.003,0.001,0.005l1.098,6.005c0.423,2.498,2.791,4.18,5.289,3.757c0.008-0.001,0.015-0.003,0.023-0.004
							l5.139-0.924c0.725,1.352,1.555,2.646,2.482,3.869l-2.945,4.273c-1.451,2.087-0.936,4.956,1.152,6.408
							c0.001,0.001,0.003,0.002,0.004,0.003l5.025,3.519c2.091,1.442,4.954,0.927,6.411-1.154l3.002-4.274
							c1.465,0.477,2.974,0.806,4.504,0.982l0.923,5.139c0.472,2.515,2.894,4.171,5.409,3.699c0.006-0.001,0.013-0.002,0.019-0.004
							l5.947-1.039c2.532-0.458,4.214-2.882,3.756-5.414c-0.001-0.005-0.002-0.01-0.003-0.014l-0.923-5.081
							c1.366-0.725,2.66-1.575,3.867-2.541l4.274,3.003c2.111,1.436,4.983,0.923,6.467-1.156l3.522-5.081
							c1.44-2.091,0.925-4.952-1.154-6.408l-4.33-2.945c0.464-1.468,0.792-2.976,0.98-4.504L16.223-199.864z M-11.032-183.117
							c-10.506,1.897-20.562-5.082-22.459-15.588c0-0.001,0-0.002-0.001-0.003c-0.346-1.847-0.404-3.736-0.174-5.6
							c1.184-10.6,10.737-18.233,21.336-17.049c7.714,0.862,14.162,6.258,16.37,13.699c0.226,0.679,0.4,1.374,0.519,2.08
							c1.899,10.506-5.078,20.561-15.584,22.46C-11.027-183.118-11.029-183.117-11.032-183.117z"/>
						<path id="Tracé_8279" class="st10" d="M4.556-205.58c-0.119-0.706-0.293-1.401-0.519-2.08
							c-3.038-10.224-13.789-16.049-24.012-13.012c-7.436,2.21-12.829,8.654-13.692,16.364c-0.231,1.865-0.172,3.753,0.174,5.6
							c1.897,10.508,11.953,17.488,22.461,15.591c10.508-1.897,17.488-11.953,15.591-22.461L4.556-205.58z M-12.305-190.048
							c-6.661,1.194-13.036-3.219-14.264-9.874c-0.066-0.459-0.104-0.922-0.114-1.386c-0.512-6.752,4.547-12.64,11.299-13.152
							c6.305-0.478,11.939,3.918,13.01,10.149c0.077,0.361,0.097,0.731,0.059,1.098c0.623,6.324-3.729,12.06-9.987,13.165
							L-12.305-190.048z"/>
					</g>
				</g>
			</g>
			<g id="Groupe_3095" transform="translate(72.56)">
				<g id="Groupe_3094">
					<g id="Groupe_3093">
						<path id="Tracé_8280" class="st5" d="M56.117-124.066c3.133-0.57,5.22-3.559,4.677-6.696l-1.386-7.507
							c-0.559-3.116-3.538-5.189-6.654-4.63c-0.014,0.003-0.028,0.005-0.042,0.008l-6.41,1.154c-0.367-0.762-0.791-1.495-1.27-2.193
							c-0.569-0.917-1.186-1.804-1.848-2.655l3.753-5.37c1.79-2.64,1.15-6.226-1.444-8.084l-6.293-4.273
							c-2.619-1.802-6.201-1.158-8.027,1.444l-3.753,5.313c-1.822-0.587-3.698-0.994-5.6-1.214l-1.214-6.408
							c-0.549-3.119-3.515-5.21-6.637-4.677l-7.507,1.386c-3.133,0.546-5.23,3.529-4.684,6.662c0.002,0.012,0.004,0.023,0.006,0.034
							l1.156,6.41c-1.699,0.883-3.321,1.907-4.849,3.06l-5.37-3.639c-2.601-1.796-6.164-1.15-7.969,1.445l-4.331,6.235
							c-1.826,2.566-1.226,6.127,1.34,7.954c0.034,0.024,0.069,0.048,0.104,0.072l5.313,3.755c-0.581,1.824-0.987,3.699-1.212,5.6
							l-6.41,1.154c-3.118,0.593-5.194,3.565-4.677,6.696l1.387,7.566c0.585,3.117,3.575,5.179,6.696,4.618l6.409-1.154
							c0.896,1.691,1.919,3.312,3.06,4.849l-3.637,5.313c-1.828,2.559-1.235,6.116,1.324,7.944c0.039,0.028,0.079,0.056,0.12,0.083
							l6.237,4.388c2.62,1.794,6.195,1.151,8.026-1.444l3.695-5.37c1.842,0.599,3.737,1.024,5.658,1.27l1.156,6.352
							c0.509,3.106,3.439,5.212,6.545,4.703c0.051-0.008,0.101-0.017,0.151-0.027l4.158-0.751l3.348-0.577
							c3.142-0.59,5.211-3.614,4.622-6.756l-1.156-6.351c1.716-0.876,3.341-1.921,4.851-3.118l5.371,3.695
							c2.621,1.79,6.193,1.147,8.026-1.444l4.385-6.295c1.79-2.64,1.15-6.226-1.444-8.084l-5.372-3.633
							c0.581-1.844,0.987-3.739,1.214-5.659L56.117-124.066z M22.106-103.105c-1.582,0.278-3.185,0.413-4.791,0.404
							C3.977-102.993-6.6-114.042-6.309-127.38c0.291-13.338,11.34-23.915,24.679-23.624c7.525,0.164,14.543,3.826,18.982,9.905
							c2.195,2.923,3.66,6.328,4.273,9.931C43.962-118.035,35.233-105.484,22.106-103.105L22.106-103.105z"/>
						<path id="Tracé_8281" class="st10" d="M41.623-131.172c-0.613-3.603-2.078-7.008-4.272-9.93
							c-7.863-10.784-22.979-13.153-33.764-5.29s-13.153,22.979-5.29,33.764c4.443,6.094,11.477,9.765,19.018,9.924
							c1.606,0.009,3.21-0.126,4.792-0.404C35.234-105.488,43.961-118.038,41.623-131.172z M20.547-111.771
							c-1.217,0.23-2.461,0.288-3.694,0.174c-8.46-0.528-14.891-7.814-14.363-16.275c0.528-8.46,7.814-14.891,16.275-14.363
							c4.38,0.273,8.434,2.409,11.137,5.866c1.59,1.97,2.644,4.318,3.061,6.815c1.467,8.336-4.085,16.289-12.416,17.785
							L20.547-111.771z"/>
					</g>
				</g>
			</g>
			
				<linearGradient id="Tracé_8282_1_" gradientUnits="userSpaceOnUse" x1="138.507" y1="-54.4913" x2="139.0996" y2="-54.4913" gradientTransform="matrix(82.2909 0 0 -77.7113 -11384.8779 -4301.7891)">
				<stop  offset="0" style="stop-color:#FFFFFF"/>
				<stop  offset="0.256" style="stop-color:#C1C1C1"/>
				<stop  offset="0.845" style="stop-color:#292929"/>
				<stop  offset="1" style="stop-color:#000000"/>
			</linearGradient>
			<path id="Tracé_8282" class="st11" d="M54.355-70.223c-0.173,1.275-0.463,2.531-0.866,3.753l3.58,2.424
				c1.738,1.222,2.175,3.612,0.982,5.37l-2.887,4.216c-1.222,1.738-3.613,2.174-5.37,0.981l-3.58-2.482
				c-0.997,0.812-2.082,1.509-3.234,2.078l0.75,4.273c0.391,2.087-0.976,4.099-3.061,4.504l-5.023,0.866
				c-2.103,0.384-4.119-1.01-4.503-3.113c0-0.002-0.001-0.003-0.001-0.005l-0.751-4.215c-1.275-0.173-2.531-0.463-3.753-0.866
				l-2.484,3.58c-1.191,1.737-3.565,2.18-5.303,0.989c-0.003-0.002-0.006-0.004-0.01-0.007l-4.215-2.945
				c-1.719-1.182-2.157-3.532-0.982-5.255c0.059-0.059,0.059-0.059,0.059-0.119c2.331-2.272,4.386-4.811,6.121-7.565
				c1.27-1.848,2.426-3.811,3.58-5.716c1.902,5.331,7.765,8.11,13.096,6.208c4.698-1.676,7.507-6.492,6.653-11.406
				c-0.889-4.798-4.997-8.329-9.874-8.487c1.839-1.757,3.896-3.271,6.121-4.504c4.157-2.37,8.661-3.35,12.935-1.848l-2.37,3.466
				c0.812,0.996,1.509,2.08,2.078,3.233l4.273-0.751c2.046-0.4,4.03,0.934,4.43,2.981c0.005,0.026,0.01,0.053,0.015,0.079
				l0.924,5.025c0.391,2.087-0.976,4.099-3.061,4.504L54.355-70.223z"/>
			
				<linearGradient id="Tracé_8283_1_" gradientUnits="userSpaceOnUse" x1="129.5762" y1="-38.005" x2="130.1688" y2="-38.005" gradientTransform="matrix(4.191 0 0 -6.041 -467.4558 -280.1199)">
				<stop  offset="0" style="stop-color:#FFFFFF"/>
				<stop  offset="0.256" style="stop-color:#C1C1C1"/>
				<stop  offset="0.845" style="stop-color:#292929"/>
				<stop  offset="1" style="stop-color:#000000"/>
			</linearGradient>
			<path id="Tracé_8283" class="st12" d="M77.567-49.088c-1.115-0.72-1.839-1.912-1.964-3.234c0.751,1.212,1.617,2.426,2.484,3.58
				L77.567-49.088z"/>
			
				<linearGradient id="Tracé_8284_1_" gradientUnits="userSpaceOnUse" x1="138.0788" y1="-54.1855" x2="138.6714" y2="-54.1855" gradientTransform="matrix(116.3068 0 0 -79.9761 -15977.6396 -4361.1294)">
				<stop  offset="0" style="stop-color:#FFFFFF"/>
				<stop  offset="0.256" style="stop-color:#C1C1C1"/>
				<stop  offset="0.845" style="stop-color:#292929"/>
				<stop  offset="1" style="stop-color:#000000"/>
			</linearGradient>
			<path id="Tracé_8284" class="st13" d="M141.874-35.149c-0.188,1.528-0.516,3.036-0.98,4.504l4.33,2.945
				c2.079,1.457,2.595,4.318,1.154,6.408l-3.522,5.081c-1.483,2.078-4.355,2.591-6.467,1.156l-4.274-3.003
				c-1.207,0.966-2.502,1.817-3.867,2.541l0.923,5.081c0.466,2.531-1.209,4.96-3.74,5.426c-0.004,0.001-0.009,0.002-0.013,0.002
				l-5.947,1.038c-2.513,0.483-4.942-1.163-5.425-3.676c-0.001-0.006-0.002-0.013-0.004-0.019l-0.923-5.139
				c-1.53-0.176-3.039-0.505-4.504-0.982l-3.002,4.274c-1.456,2.079-4.317,2.595-6.408,1.155l-5.023-3.522
				c-2.089-1.449-2.607-4.317-1.158-6.406c0.001-0.001,0.002-0.003,0.003-0.004l2.945-4.273c-0.927-1.223-1.756-2.517-2.482-3.869
				l-5.139,0.924c-2.496,0.436-4.872-1.234-5.308-3.73c-0.001-0.008-0.003-0.015-0.004-0.023l-1.098-6.005
				c-0.464-2.502,1.189-4.906,3.69-5.369c0.002,0,0.003-0.001,0.005-0.001l5.14-0.924c0.116-1.113,0.328-2.214,0.635-3.29
				c1.724,1.668,3.643,3.122,5.716,4.33c2.198,1.283,4.544,2.291,6.987,3.003c0.01,0.464,0.048,0.926,0.114,1.386
				c1.228,6.655,7.603,11.068,14.264,9.874c6.258-1.104,10.611-6.841,9.988-13.165c1.393-0.697,2.726-1.508,3.985-2.426
				c0.844-0.608,1.637-1.285,2.37-2.022c2.071-1.838,3.776-4.052,5.023-6.525l4.445-0.808c2.47-0.459,4.845,1.172,5.303,3.643
				c0.003,0.018,0.006,0.035,0.009,0.053l1.098,6.063c0.447,2.5-1.201,4.894-3.695,5.37L141.874-35.149z"/>
			
				<linearGradient id="Tracé_8285_1_" gradientUnits="userSpaceOnUse" x1="137.8103" y1="-55.089" x2="138.4029" y2="-55.089" gradientTransform="matrix(74.4878 0 0 -99.973 -10175.8857 -5621.7231)">
				<stop  offset="0" style="stop-color:#FFFFFF"/>
				<stop  offset="0.256" style="stop-color:#C1C1C1"/>
				<stop  offset="0.845" style="stop-color:#292929"/>
				<stop  offset="1" style="stop-color:#000000"/>
			</linearGradient>
			<path id="Tracé_8285" class="st14" d="M122.268-122.912c-0.227,1.92-0.633,3.815-1.214,5.659l5.37,3.637
				c2.594,1.857,3.234,5.444,1.444,8.084l-4.385,6.295c-1.833,2.591-5.405,3.234-8.026,1.444l-5.37-3.695
				c-1.51,1.197-3.135,2.242-4.851,3.118l1.156,6.351c0.589,3.142-1.481,6.166-4.622,6.756l-3.348,0.577
				c-4.496-5.075-7.46-11.322-8.547-18.015c-0.558-2.929-0.713-5.921-0.462-8.892c1.233,0.114,2.477,0.056,3.694-0.174
				c8.331-1.496,13.882-9.448,12.415-17.784c-0.417-2.497-1.471-4.845-3.061-6.815c1.697-1.433,3.536-2.69,5.486-3.753
				c0.635-0.345,1.328-0.693,1.963-0.981c2.463-1.189,5.035-2.138,7.68-2.831c0.479,0.697,0.903,1.43,1.27,2.193l6.41-1.154
				c3.112-0.582,6.107,1.469,6.689,4.581c0.003,0.014,0.005,0.027,0.008,0.041l1.386,7.507c0.543,3.138-1.545,6.126-4.677,6.696
				L122.268-122.912z"/>
		</g>
	</g>
	<g id="Groupe_3152" transform="translate(516.905 732.065)">
		<g id="Groupe_3149">
			<path id="Tracé_8378" class="st15" d="M-84.784,5.74h8.423v12.635h-8.423V5.74z"/>
			<path id="Tracé_8379" class="st16" d="M-80.572,5.74h4.212v12.635h-4.212V5.74z"/>
			<path id="Tracé_8380" class="st17" d="M-57.736,126.665c-0.005,12.612-10.233,22.832-22.845,22.827
				c-12.605-0.005-22.822-10.222-22.827-22.827H-57.736z"/>
			<path id="Tracé_8381" class="st15" d="M-80.572,126.665h22.836c-0.014,12.606-10.23,22.822-22.836,22.836V126.665z"/>
			<path id="Tracé_8382" class="st17" d="M-20.343,103.702v25.518H-140.8v-25.518l14.213-13.376V53.212
				c0-21.531,18.167-39.049,40.501-39.049h11.029c22.334,0,40.5,17.518,40.5,39.049v37.114L-20.343,103.702z"/>
			<path id="Tracé_8383" class="st15" d="M-34.557,90.326V53.212c0-21.531-18.166-39.049-40.5-39.049h-5.515V129.22h60.228v-25.518
				L-34.557,90.326z"/>
			<path id="Tracé_8384" class="st15" d="M-20.343,103.702v25.518H-140.8v-25.518l14.213-13.376h92.032L-20.343,103.702z"/>
			<path id="Tracé_8385" class="st16" d="M-20.344,103.702v25.518h-60.228V90.326h46.015L-20.344,103.702z"/>
		</g>
		<g id="Groupe_3151" transform="translate(138.893 119.94)">
			<path id="Tracé_8386" class="st18" d="M-135.932-12.396c0.005,16.974-13.752,30.738-30.726,30.743
				c-16.974,0.005-30.738-13.752-30.743-30.726c-0.005-16.974,13.752-30.738,30.726-30.743c0.006,0,0.011,0,0.017,0
				C-149.696-43.103-135.951-29.358-135.932-12.396z"/>
			<path id="Tracé_8387" class="st19" d="M-135.932-12.396c-0.019,16.962-13.765,30.707-30.726,30.726v-61.452
				C-149.696-43.103-135.951-29.358-135.932-12.396z"/>
			<g id="Groupe_3150" transform="translate(32.897 44.742)">
				<path id="Tracé_8388" class="st8" d="M-210.786-61.35h22.46v8.423h-22.46V-61.35z"/>
			</g>
			<path id="Tracé_8389" class="st20" d="M-166.7-16.608h11.273v8.423H-166.7V-16.608z"/>
		</g>
	</g>
</g>
</svg>
