<?xml version="1.0" encoding="utf-8"?>
<!-- Generator: Adobe Illustrator 25.1.0, SVG Export Plug-In . SVG Version: 6.00 Build 0)  -->
<svg version="1.1" id="Calque_1" xmlns="http://www.w3.org/2000/svg" xmlns:xlink="http://www.w3.org/1999/xlink" x="0px" y="0px"
	 viewBox="0 0 580.198 551.749" style="enable-background:new 0 0 580.198 551.749;" xml:space="preserve">
<style type="text/css">
	.st0{fill:#FF9F00;}
	.st1{fill:#EC781B;}
	.st2{fill:#C55733;}
	.st3{fill:#4E689B;}
	.st4{fill:#374C81;}
	.st5{fill:#234177;}
	.st6{fill:#FFE400;}
	.st7{fill:#FFCE00;}
	.st8{fill:#F1EFF8;}
	.st9{opacity:0.5;fill:url(#Tracé_8251_1_);enable-background:new    ;}
	.st10{opacity:0.5;fill:url(#Tracé_8253_1_);enable-background:new    ;}
	.st11{opacity:0.5;fill:url(#Tracé_8254_1_);enable-background:new    ;}
	.st12{fill:#F4BC84;}
	.st13{fill:#1B2C7B;}
	.st14{fill:#3B0358;}
	.st15{fill:#091038;}
	.st16{fill:#FFFFFF;}
	.st17{fill:#FFE200;}
	.st18{fill:#E90566;}
	.st19{opacity:0.7;fill:url(#Tracé_8282_1_);enable-background:new    ;}
	.st20{opacity:0.7;fill:url(#Tracé_8283_1_);enable-background:new    ;}
	.st21{opacity:0.7;fill:url(#Tracé_8284_1_);enable-background:new    ;}
	.st22{opacity:0.7;fill:url(#Tracé_8285_1_);enable-background:new    ;}
	.st23{fill:none;stroke:#FF0000;stroke-width:8;stroke-linecap:round;}
</style>
<g id="Groupe_3236" transform="translate(-142.042 -780.36)">
	<g id="Groupe_3156" transform="translate(380 570.678)">
		<path id="Tracé_8315" class="st0" d="M147.227,251.959l-29.105,106.455c-22.427,19.142-50.963,29.63-80.448,29.567
			c-2.61,0-5.198-0.079-7.763-0.238h-0.005l-24.106-6.461c-7.237-1.896-11.566-9.299-9.671-16.535
			c0.008-0.032,0.017-0.063,0.025-0.095l39.02-142.708c2.025-7.259,9.528-11.525,16.801-9.552l85.606,22.932
			c7.238,1.897,11.568,9.303,9.671,16.542c-0.008,0.032-0.017,0.063-0.025,0.095L147.227,251.959z"/>
		<path id="Tracé_8316" class="st1" d="M136.459,291.345l-18.338,67.067c-22.427,19.142-50.963,29.63-80.448,29.567
			c-2.61,0-5.198-0.079-7.763-0.238h-0.005l-24.107-6.459c-7.237-1.896-11.566-9.299-9.671-16.535
			c0.008-0.032,0.017-0.063,0.025-0.095l28.252-103.326c2.025-7.26,9.529-11.525,16.803-9.55l85.606,22.932
			c7.238,1.897,11.568,9.302,9.671,16.541C136.476,291.28,136.468,291.313,136.459,291.345z"/>
		<path id="Tracé_8317" class="st2" d="M127.719,323.316l-9.597,35.097c-22.427,19.142-50.963,29.63-80.448,29.567
			c-2.61,0-5.199-0.079-7.767-0.238l-24.107-6.459c-7.237-1.896-11.566-9.299-9.671-16.535c0.008-0.032,0.017-0.063,0.025-0.095
			l19.508-71.357L127.719,323.316z"/>
		<path id="Tracé_8318" class="st3" d="M93.9,223.622L49.1,387.455c-3.761,0.348-7.57,0.523-11.427,0.524
			c-2.61,0-5.198-0.079-7.763-0.238h-0.005l-9.843-2.634l46.177-168.892L93.9,223.622z"/>
		<path id="Tracé_8319" class="st4" d="M83.128,263.008L49.1,387.454c-3.761,0.348-7.57,0.523-11.427,0.524
			c-2.61,0-5.198-0.079-7.763-0.238h-0.005l-9.843-2.634l35.41-129.51L83.128,263.008z"/>
		<path id="Tracé_8323" class="st5" d="M70.809,308.067l-21.711,79.388c-3.761,0.348-7.57,0.523-11.427,0.524
			c-2.61,0-5.198-0.079-7.763-0.238h-0.005l-9.843-2.634l23.094-84.448L70.809,308.067z"/>
		<path id="Tracé_8324" class="st6" d="M70.723,383.546h-0.004c-10.767,2.951-21.881,4.442-33.044,4.432
			c-2.61,0-5.198-0.079-7.763-0.238h-0.005c-27.331-1.651-53.336-12.344-73.923-30.396L-66.93,247.717
			c-1.504-7.34,3.227-14.51,10.567-16.015c0.025-0.005,0.051-0.01,0.076-0.015l86.846-17.784c7.374-1.536,14.605,3.17,16.187,10.535
			l30.261,144.776C78.172,374.841,75.651,380.59,70.723,383.546z"/>
		<path id="Tracé_8325" class="st7" d="M70.723,383.546h-0.005c-10.767,2.951-21.881,4.442-33.044,4.432
			c-2.61,0-5.198-0.079-7.763-0.238h-0.005c-27.331-1.651-53.336-12.344-73.923-30.396L-58.58,287.67
			c-1.503-7.342,3.23-14.512,10.572-16.016c0.023-0.005,0.047-0.01,0.07-0.014l86.846-17.784c7.374-1.536,14.605,3.17,16.187,10.535
			l21.911,104.822C78.171,374.841,75.65,380.59,70.723,383.546z"/>
		<path id="Tracé_8326" class="st0" d="M70.717,383.546c-10.767,2.951-21.881,4.442-33.044,4.432c-2.61,0-5.198-0.079-7.763-0.238
			h-0.003c-27.331-1.651-53.337-12.344-73.925-30.396l-7.782-37.243l113.68-23.279l15.131,72.393
			c1.166,5.631-1.36,11.382-6.295,14.333L70.717,383.546z"/>
		<path id="Tracé_8327" class="st3" d="M20.482,386.802c-10.674-1.471-21.11-4.333-31.041-8.513l-31.258-149.567l28.06-5.744
			L20.482,386.802z"/>
		<path id="Tracé_8328" class="st4" d="M20.482,386.803c-10.674-1.471-21.11-4.333-31.041-8.513l-22.907-109.615l28.06-5.744
			L20.482,386.803z"/>
		<path id="Tracé_8332" class="st5" d="M20.482,386.802c-10.674-1.471-21.109-4.333-31.04-8.513l-13.354-63.896l28.06-5.744
			L20.482,386.802z"/>
	</g>
	<g id="Groupe_3097" transform="translate(-1091.717 639.16)">
		<g id="Partnership_Strategic" transform="translate(1233.76 242)">
			<g id="Groupe_3074">
				<g id="Groupe_3072" transform="translate(40.836 576.047)">
					<path id="Tracé_8250" class="st8" d="M448.71-161.703c-53.713-15.825-104.661-12.749-150.486-4.279
						c-44.085,8.158-83.4,21.352-115.807,27.503c-56.967,10.832-104.84,23.536-168.093-18.678
						c-18.944-12.659-9.271-33.876,29.242-51.573c40.519-18.722,112.954-33.61,217.617-30.757
						C582.035-230.794,550.254-131.705,448.71-161.703z"/>
					
						<linearGradient id="Tracé_8251_1_" gradientUnits="userSpaceOnUse" x1="149.4358" y1="-300.0275" x2="149.5437" y2="-300.6853" gradientTransform="matrix(456.6018 0 0 -144.8403 -68115.6094 -43690.2773)">
						<stop  offset="0" style="stop-color:#FFFFFF"/>
						<stop  offset="0.085" style="stop-color:#F5F5F5"/>
						<stop  offset="0.229" style="stop-color:#DADADA"/>
						<stop  offset="0.413" style="stop-color:#AFAFAF"/>
						<stop  offset="0.631" style="stop-color:#747474"/>
						<stop  offset="0.876" style="stop-color:#292929"/>
						<stop  offset="1" style="stop-color:#000000"/>
					</linearGradient>
					<path id="Tracé_8251" class="st9" d="M298.226-165.983c-44.085,8.158-83.4,21.352-115.807,27.503
						c-56.967,10.832-104.84,23.536-168.093-18.678c-18.944-12.659-9.271-33.876,29.242-51.573
						c26.568-7.666,59.197-12.17,94.456-12.17C219.149-220.9,286.323-197.052,298.226-165.983z"/>
				</g>
				<g id="Groupe_3073">
					<path id="Tracé_8252" class="st8" d="M369.238,276.785c-5.294-3.487-11.142-6.05-17.294-7.58
						c-6.044-1.562-12.257-2.371-18.5-2.408c-20.192-0.401-43.194,5.396-67.487,12.438c-6.998,2.005-14.04,4.101-21.217,6.24
						c-34.501,10.252-70.74,20.326-104.707,17.472c-20.416-1.693-40.029-8.024-57.992-21.885
						c-20.149-15.423-38.156-40.252-52.865-78.367c-0.357-0.935-0.713-1.872-0.981-2.807
						c-16.136-44.219-8.246-85.896,11.498-118.882c38.2-63.877,120.754-95.348,160.471-50.103
						c47.204,53.715,98.644,48.81,125.568,24.474c7.568-6.698,13.253-15.257,16.494-24.829
						c13.639-41.543,80.503-86.163,135.866-52.554c1.96,1.205,3.744,2.408,5.349,3.611c37.888,28.44-11.724,65.57,0.935,123.919
						c13.15,60.845,58.885,22.868,71.365,78.631C571.386,254.319,440.381,323.945,369.238,276.785z"/>
					
						<linearGradient id="Tracé_8253_1_" gradientUnits="userSpaceOnUse" x1="189.6525" y1="274.6667" x2="190.2948" y2="274.6667" gradientTransform="matrix(386.5836 0 0 -483.5269 -73007.8359 132945.6406)">
						<stop  offset="0" style="stop-color:#FFFFFF"/>
						<stop  offset="0.085" style="stop-color:#F5F5F5"/>
						<stop  offset="0.229" style="stop-color:#DADADA"/>
						<stop  offset="0.413" style="stop-color:#AFAFAF"/>
						<stop  offset="0.631" style="stop-color:#747474"/>
						<stop  offset="0.876" style="stop-color:#292929"/>
						<stop  offset="1" style="stop-color:#000000"/>
					</linearGradient>
					<path id="Tracé_8253" class="st10" d="M369.238,276.782c-5.294-3.487-11.142-6.05-17.294-7.58
						c-6.044-1.562-12.257-2.371-18.5-2.408c-14.709-26.008-23.106-55.106-24.516-84.952c-0.133-3.076-0.224-6.196-0.224-9.314
						c0-100.16,76.804-182.357,174.736-190.916c37.888,28.44-11.724,65.57,0.935,123.919c13.149,60.845,58.885,22.868,71.365,78.631
						C571.387,254.319,440.381,323.945,369.238,276.782z"/>
					
						<linearGradient id="Tracé_8254_1_" gradientUnits="userSpaceOnUse" x1="190.0345" y1="274.4481" x2="190.6769" y2="274.4481" gradientTransform="matrix(445.3009 0 0 -202.0365 -84582.8594 55523.0156)">
						<stop  offset="0" style="stop-color:#FFFFFF"/>
						<stop  offset="0.085" style="stop-color:#F5F5F5"/>
						<stop  offset="0.229" style="stop-color:#DADADA"/>
						<stop  offset="0.413" style="stop-color:#AFAFAF"/>
						<stop  offset="0.631" style="stop-color:#747474"/>
						<stop  offset="0.876" style="stop-color:#292929"/>
						<stop  offset="1" style="stop-color:#000000"/>
					</linearGradient>
					<path id="Tracé_8254" class="st11" d="M325.733,55.38c-32.182,50.503-88.659,83.98-152.938,83.98
						c-50.586,0.072-98.877-21.098-133.101-58.349c38.2-63.878,120.754-95.348,160.471-50.103
						C247.37,84.622,298.81,79.718,325.733,55.38z"/>
				</g>
			</g>
			<g id="Groupe_3086" transform="translate(334.607 263.131)">
				<g id="Groupe_3085" transform="translate(0)">
					<g id="Groupe_3079" transform="translate(47.898 172.269)">
						<g id="Groupe_3078" transform="translate(38.427 224.434)">
							<path id="Tracé_8261" class="st12" d="M-122.411-266.961l1.626,6.442l-6.102,7.922l18.218-8.008l-3.262-3.508l-1.713-5.691
								L-122.411-266.961z"/>
							<path id="Tracé_8262" class="st13" d="M-110.792-263.267c-3.058,3.051-6.719,5.374-12.264,5.42l-7.727,9.353
								c-2.91,6.003,22.68-4.954,23.992-9.314C-106.637-260.082-108.195-263.099-110.792-263.267z"/>
						</g>
						<path id="Tracé_8263" class="st14" d="M-84.23-189.536c5.874,22.763,1.948,40.165-0.349,67.406l11.161,76.995l-11.066,3.588
							l-25.934-83.753c-2.12-13.455-11.746-44.763-3.692-53.488L-84.23-189.536z"/>
					</g>
					<g id="Groupe_3081" transform="translate(0 165.409)">
						<g id="Groupe_3080" transform="translate(0 220.784)">
							<path id="Tracé_8264" class="st12" d="M-86.926-265.503l-0.049,6.644l-7.901,6.13l19.648-3.162l-2.273-4.217l-0.224-5.939
								L-86.926-265.503z"/>
							<path id="Tracé_8265" class="st13" d="M-76.612-259c-3.726,2.184-7.857,3.508-13.232,2.155l-9.837,7.106
								c-4.327,5.075,23.197,0.917,25.566-2.972C-73.391-254.873-74.14-258.183-76.612-259z"/>
						</g>
						<path id="Tracé_8266" class="st14" d="M-50.105-187.083c-0.085,23.562-8.229,39.416-17.324,65.143l-8.576,77.359
							l-1.734,0.085l-9.186,0.606h-0.692l-4.073-87.579c0.78-7.624,0.693-21.312,2.166-33.005v-0.087
							c0.174-1.039,0.348-2.079,0.52-3.118c1.212-7.624,3.378-14.034,7.277-16.46L-50.105-187.083z"/>
					</g>
					<g id="Groupe_3082" transform="translate(14.365)">
						<path id="Tracé_8268" class="st12" d="M-81.319-93.414c1.553-1.665,1.61-7.35,1.869-12.492l9.609-1.246
							c0.039,4.805,0.369,9.232,1.615,12.468C-72.344-89.424-79.832-89.135-81.319-93.414z"/>
						<path id="Tracé_8269" class="st12" d="M-81.162-94.409c4.378-0.8,8.728-8.469,12.289-14.276l-16.837-18.367l-14.999,14.102
							C-98.407-104.724-85.677-94.668-81.162-94.409z"/>
						<path id="Tracé_8270" class="st15" d="M-71.143-105.602l-5.732-0.929l-3.006-6.154l-3.144-0.083l1.775,5.075l-1.341,0.947
							l-4.505-5.87l-9.439,11.208l-8.744-7.253l5.389-12.746l12.383-6.517c0,0,13.509,2.835,13.739,2.989
							c0.23,0.155,4.895,16.251,4.895,16.251L-71.143-105.602z"/>
					</g>
					<path id="Tracé_8271" class="st16" d="M-53.051-0.264l12.428,10.76l-1.549,1.246l-12.04-10.848L-53.051-0.264z"/>
					<path id="Tracé_8272" class="st16" d="M-84.756-4.608l-4.765,5.457c0.175-1.039,0.348-2.079,0.52-3.118l3.119-3.465
						L-84.756-4.608z"/>
					<path id="Tracé_8275" class="st15" d="M-68.224-106.748l1.894,7.736l-4.922,2.857l2.602,3.135l3.284-0.294l2.043-3.922
						l-3.56-10.459L-68.224-106.748z"/>
					<path id="Union_4" class="st17" d="M-50.539,3.015l4.135-11.094c-15.185-0.236-29.308-1.617-40.015-6.689l1.299,11.691
						c-0.326-1.786-1.52-0.222-2.611,1.341c-0.999,1.433-1.91,2.866-1.981,1.72l-9.183-41.323l13.757-42.876
						c0.319-1.321,0.71-2.623,1.171-3.901c0.057-0.105,0.116-0.207,0.18-0.311l0.309-0.971c0.675-0.696,1.468-1.268,2.342-1.688
						c9.422-6.505,35.215-6.385,47.581-1.05c2.151-1.174,4.268-0.886,5.705,1.927c7.152,18.037,13.316,38.609,13.006,45.931
						c0.123,1.085-0.027,2.183-0.437,3.194l-17.805,29.366l-0.27,3.618c-0.651,0.009-1.302,0.017-1.951,0.024l-9.686,15.853
						L-50.539,3.015z M-86.626-16.648c0.036-0.071,0.073-0.144,0.109-0.215c-0.042,0.009-0.085,0.013-0.128,0.013L-86.626-16.648z"
						/>
				</g>
			</g>
		</g>
		<g id="Groupe_3096" transform="translate(1281.579 547.225)">
			<g id="Groupe_3089" transform="translate(0 106.955)">
				<g id="Groupe_3088">
					<g id="Groupe_3087">
						<path id="Tracé_8276" class="st13" d="M56.987-150.457c2.096-0.406,3.471-2.429,3.077-4.527l-0.929-5.051
							c-0.358-2.065-2.323-3.449-4.388-3.091c-0.027,0.005-0.054,0.01-0.081,0.015l-4.295,0.755
							c-0.572-1.158-1.273-2.248-2.089-3.25l2.38-3.483l0.115-0.115c1.218-1.75,0.805-4.153-0.928-5.396l-4.239-2.902
							c-1.77-1.179-4.157-0.743-5.396,0.986l-2.495,3.54c-1.23-0.373-2.494-0.626-3.773-0.755l-0.755-4.353
							c-0.414-2.091-2.431-3.461-4.527-3.076l-4.993,0.929c-2.07,0.326-3.484,2.269-3.158,4.339
							c0.007,0.044,0.015,0.087,0.023,0.131l0.755,4.295c-1.15,0.587-2.239,1.287-3.25,2.091l-3.597-2.496
							c-1.743-1.203-4.131-0.765-5.334,0.977c-0.002,0.003-0.005,0.007-0.007,0.01L6.2-166.707
							c-1.222,1.735-0.807,4.132,0.927,5.354c0.02,0.014,0.04,0.028,0.06,0.041l3.54,2.496c-0.359,1.237-0.631,2.498-0.813,3.773
							l-4.295,0.755c-2.102,0.406-3.494,2.417-3.135,4.527l0.929,5.05c0.386,2.083,2.386,3.46,4.469,3.077l4.296-0.755
							c0.629,1.126,1.326,2.212,2.09,3.251l-2.441,3.54c0,0.058,0,0.058-0.058,0.116c-1.182,1.732-0.74,4.094,0.987,5.282
							l4.239,2.96c1.742,1.203,4.13,0.765,5.333-0.977c0.002-0.003,0.005-0.007,0.007-0.01l2.496-3.597
							c1.228,0.406,2.491,0.698,3.773,0.871l0.755,4.24c0.383,2.115,2.408,3.519,4.523,3.136c0.002,0,0.003-0.001,0.005-0.001
							l5.049-0.871c2.096-0.407,3.47-2.429,3.077-4.527l-0.754-4.295c1.158-0.573,2.248-1.274,3.25-2.09l3.597,2.495
							c1.766,1.198,4.167,0.76,5.396-0.985l2.902-4.24c1.198-1.767,0.758-4.167-0.987-5.396l-3.597-2.436
							c0.406-1.228,0.697-2.491,0.871-3.773L56.987-150.457z M34.175-136.469c-6.256,1.173-12.614-1.47-16.194-6.733
							c-1.314-1.876-2.206-4.015-2.613-6.269c-1.618-8.794,4.2-17.235,12.994-18.852c8.794-1.618,17.235,4.2,18.853,12.994
							c1.618,8.794-4.2,17.235-12.994,18.852C34.206-136.474,34.19-136.472,34.175-136.469L34.175-136.469z"/>
						<path id="Tracé_8277" class="st18" d="M47.236-155.216c-0.974-5.358-4.571-9.869-9.577-12.012
							c-8.204-3.52-17.709,0.277-21.229,8.481c-3.52,8.204,0.277,17.709,8.481,21.229c2.917,1.252,6.139,1.617,9.262,1.05
							C42.95-138.05,48.792-146.435,47.236-155.216z M33.131-142.272c-4.973,0.948-9.889-1.893-11.551-6.675
							c-0.163-0.515-0.298-1.038-0.406-1.567c-1.038-5.59,2.652-10.963,8.242-12.001c0.019-0.004,0.039-0.007,0.058-0.011
							c0.671-0.113,1.35-0.172,2.031-0.175c4.902,0.159,9.033,3.709,9.926,8.532C42.417-148.594,38.705-143.272,33.131-142.272
							L33.131-142.272z"/>
					</g>
				</g>
			</g>
			<g id="Groupe_3092" transform="translate(121.295 151.896)">
				<g id="Groupe_3091">
					<g id="Groupe_3090">
						<path id="Tracé_8278" class="st13" d="M24.543-160.314c2.507-0.478,4.163-2.883,3.715-5.396l-1.104-6.095
							c-0.431-2.488-2.799-4.156-5.287-3.724c-0.018,0.003-0.036,0.006-0.053,0.01l-4.469,0.813l-0.696,0.116
							c-0.715-1.381-1.571-2.685-2.555-3.889l3.019-4.353c1.449-2.102,0.931-4.98-1.16-6.444l-5.049-3.482
							c-2.121-1.454-5.016-0.937-6.502,1.162l-2.96,4.24c-1.5-0.438-3.034-0.749-4.586-0.929l-0.928-5.166
							c-0.426-2.512-2.809-4.203-5.321-3.777c-0.007,0.001-0.014,0.002-0.021,0.004l-6.038,1.102
							c-2.531,0.449-4.221,2.864-3.774,5.396l0.929,5.167c-1.382,0.721-2.702,1.556-3.946,2.495l-4.296-2.96
							c-2.102-1.45-4.979-0.93-6.442,1.162l-3.483,5.049c-0.657,0.927-0.946,2.065-0.813,3.193c0.125,1.328,0.853,2.526,1.974,3.25
							l0.522,0.349l3.773,2.67c-0.116,0.407-0.231,0.813-0.348,1.22c-0.308,1.082-0.522,2.189-0.639,3.307l-5.167,0.929
							c-2.515,0.464-4.179,2.879-3.715,5.394c0,0.001,0,0.001,0,0.002l1.104,6.038c0.425,2.511,2.805,4.202,5.316,3.777
							c0.008-0.001,0.016-0.003,0.024-0.004l5.166-0.929c0.729,1.359,1.563,2.66,2.495,3.889l-2.96,4.295
							c-1.459,2.096-0.943,4.979,1.154,6.438c0.003,0.002,0.005,0.004,0.008,0.005l5.049,3.54c2.103,1.45,4.981,0.931,6.445-1.161
							l3.019-4.297c1.472,0.479,2.989,0.81,4.527,0.987l0.928,5.166c0.475,2.528,2.91,4.193,5.438,3.718
							c0.006-0.001,0.012-0.002,0.018-0.003l5.978-1.044c2.546-0.461,4.236-2.898,3.775-5.443c-0.001-0.005-0.002-0.009-0.002-0.013
							l-0.928-5.107c1.373-0.728,2.674-1.584,3.887-2.555l4.297,3.019c2.123,1.443,5.009,0.927,6.501-1.162l3.54-5.107
							c1.45-2.101,0.932-4.979-1.16-6.442l-4.353-2.96c0.467-1.476,0.796-2.991,0.985-4.527L24.543-160.314z M-2.855-143.48
							c-10.561,1.908-20.67-5.106-22.578-15.667c0-0.002-0.001-0.004-0.001-0.006c-0.347-1.856-0.406-3.755-0.174-5.63
							c1.192-10.655,10.795-18.327,21.451-17.135c7.752,0.867,14.233,6.29,16.453,13.768c0.228,0.682,0.402,1.381,0.522,2.091
							c1.909,10.56-5.104,20.669-15.664,22.578C-2.85-143.481-2.852-143.481-2.855-143.48z"/>
						<path id="Tracé_8279" class="st18" d="M12.815-166.062c-0.12-0.709-0.295-1.408-0.522-2.091
							c-3.05-10.278-13.856-16.138-24.134-13.088c-7.479,2.22-12.903,8.701-13.77,16.455c-0.232,1.874-0.173,3.773,0.174,5.63
							c1.907,10.563,12.016,17.58,22.579,15.673C7.705-145.39,14.722-155.499,12.815-166.062L12.815-166.062z M-4.134-150.449
							c-6.694,1.197-13.098-3.236-14.334-9.923c-0.066-0.461-0.105-0.927-0.115-1.393c-0.515-6.787,4.57-12.707,11.357-13.222
							c6.338-0.481,12.003,3.938,13.079,10.203c0.077,0.363,0.097,0.735,0.058,1.104c0.626,6.358-3.751,12.125-10.043,13.234
							L-4.134-150.449z"/>
					</g>
				</g>
			</g>
			<g id="Groupe_3095" transform="translate(67.291)">
				<g id="Groupe_3094">
					<g id="Groupe_3093">
						<path id="Tracé_8280" class="st13" d="M60.112-96.87c3.15-0.573,5.248-3.579,4.702-6.733l-1.393-7.546
							c-0.563-3.132-3.559-5.215-6.692-4.652c-0.015,0.003-0.029,0.005-0.044,0.008l-6.444,1.16
							c-0.369-0.767-0.795-1.504-1.276-2.206c-0.572-0.922-1.192-1.813-1.858-2.67l3.773-5.396c1.801-2.654,1.158-6.26-1.451-8.126
							l-6.326-4.295c-2.633-1.811-6.233-1.164-8.069,1.451l-3.773,5.34c-1.832-0.591-3.718-0.999-5.63-1.22l-1.22-6.442
							c-0.552-3.137-3.535-5.239-6.675-4.702l-7.546,1.393c-3.15,0.549-5.258,3.548-4.708,6.697
							c0.002,0.012,0.004,0.024,0.006,0.036l1.161,6.443c-1.708,0.888-3.338,1.917-4.875,3.076l-5.396-3.658
							c-2.614-1.805-6.196-1.156-8.011,1.452l-4.353,6.268c-1.836,2.58-1.233,6.159,1.346,7.995c0.035,0.025,0.07,0.049,0.105,0.073
							l5.34,3.774c-0.585,1.833-0.993,3.718-1.22,5.63l-6.443,1.16c-3.135,0.596-5.223,3.584-4.702,6.733l1.394,7.605
							c0.588,3.135,3.594,5.208,6.733,4.642l6.442-1.16c0.901,1.7,1.929,3.33,3.076,4.875l-3.657,5.34
							c-1.838,2.573-1.242,6.148,1.331,7.986c0.04,0.028,0.08,0.056,0.12,0.084l6.269,4.411c2.633,1.804,6.227,1.157,8.067-1.451
							l3.715-5.396c1.852,0.602,3.756,1.029,5.687,1.276l1.162,6.386c0.511,3.123,3.457,5.239,6.58,4.728
							c0.051-0.008,0.102-0.017,0.154-0.027l4.18-0.755l3.366-0.578c3.157-0.594,5.235-3.634,4.644-6.791l-1.161-6.384
							c1.725-0.881,3.358-1.931,4.876-3.135l5.396,3.715c2.635,1.799,6.225,1.153,8.068-1.451l4.411-6.328
							c1.801-2.654,1.158-6.26-1.451-8.126l-5.396-3.656c0.584-1.854,0.993-3.759,1.22-5.689L60.112-96.87z M25.923-75.801
							c-1.591,0.279-3.203,0.415-4.818,0.405C7.698-75.691-2.93-86.798-2.635-100.205s11.403-24.036,24.81-23.74
							c7.56,0.167,14.611,3.846,19.072,9.952c2.206,2.938,3.679,6.361,4.295,9.983C47.892-90.808,39.118-78.192,25.923-75.801
							L25.923-75.801z"/>
						<path id="Tracé_8281" class="st18" d="M45.542-104.01c-0.616-3.622-2.089-7.045-4.295-9.983
							c-7.904-10.84-23.1-13.22-33.94-5.316c-10.84,7.904-13.22,23.1-5.316,33.94c4.466,6.125,11.536,9.814,19.115,9.975
							c1.615,0.01,3.227-0.126,4.818-0.405C39.119-78.191,47.893-90.807,45.542-104.01z M24.356-84.507
							c-1.224,0.231-2.474,0.29-3.713,0.175c-8.504-0.531-14.968-7.856-14.437-16.361c0.531-8.504,7.856-14.968,16.361-14.437
							c4.402,0.275,8.476,2.421,11.193,5.896c1.598,1.98,2.658,4.34,3.077,6.849C38.311-94.004,32.73-86.011,24.356-84.507
							L24.356-84.507z"/>
					</g>
				</g>
			</g>
			
				<linearGradient id="Tracé_8282_1_" gradientUnits="userSpaceOnUse" x1="142.2469" y1="-29.7552" x2="142.8892" y2="-29.7552" gradientTransform="matrix(76.3119 0 0 -72.0693 -10844.0205 -2184.1492)">
				<stop  offset="0" style="stop-color:#FFFFFF"/>
				<stop  offset="0.256" style="stop-color:#C1C1C1"/>
				<stop  offset="0.845" style="stop-color:#292929"/>
				<stop  offset="1" style="stop-color:#000000"/>
			</linearGradient>
			<path id="Tracé_8282" class="st19" d="M52.692-42.747c-0.174,1.282-0.465,2.545-0.871,3.773l3.597,2.436
				c1.746,1.228,2.185,3.629,0.987,5.396l-2.902,4.24c-1.229,1.745-3.629,2.184-5.396,0.985l-3.597-2.495
				c-1.002,0.816-2.093,1.516-3.251,2.089l0.754,4.295c0.393,2.098-0.981,4.121-3.077,4.527l-5.049,0.871
				c-2.114,0.386-4.141-1.016-4.526-3.13c0-0.002-0.001-0.003-0.001-0.005l-0.755-4.24c-1.282-0.173-2.545-0.465-3.773-0.871
				l-2.496,3.597c-1.198,1.746-3.584,2.191-5.331,0.994c-0.003-0.002-0.006-0.004-0.009-0.006l-4.239-2.96
				c-1.727-1.188-2.169-3.55-0.987-5.282c0.058-0.058,0.058-0.058,0.058-0.116c2.343-2.283,4.409-4.836,6.153-7.604
				c1.276-1.858,2.441-3.831,3.597-5.746c1.921,5.355,7.819,8.14,13.174,6.219c4.708-1.689,7.523-6.515,6.674-11.445
				c-0.893-4.823-5.024-8.373-9.926-8.532c1.849-1.766,3.917-3.288,6.153-4.527c4.175-2.38,8.706-3.367,13.002-1.858l-2.38,3.483
				c0.816,1.001,1.517,2.091,2.09,3.25l4.295-0.755c2.057-0.403,4.052,0.938,4.454,2.995c0.005,0.027,0.01,0.054,0.015,0.081
				l0.929,5.051c0.394,2.098-0.981,4.121-3.077,4.527L52.692-42.747z"/>
			
				<linearGradient id="Tracé_8283_1_" gradientUnits="userSpaceOnUse" x1="134.473" y1="-18.9523" x2="135.1154" y2="-18.9523" gradientTransform="matrix(3.886 0 0 -5.6 -448.5059 -129.087)">
				<stop  offset="0" style="stop-color:#FFFFFF"/>
				<stop  offset="0.256" style="stop-color:#C1C1C1"/>
				<stop  offset="0.845" style="stop-color:#292929"/>
				<stop  offset="1" style="stop-color:#000000"/>
			</linearGradient>
			<path id="Tracé_8283" class="st20" d="M76.028-21.502c-1.121-0.724-1.848-1.922-1.974-3.251c0.755,1.22,1.626,2.441,2.496,3.597
				L76.028-21.502z"/>
			
				<linearGradient id="Tracé_8284_1_" gradientUnits="userSpaceOnUse" x1="141.8699" y1="-29.478" x2="142.5123" y2="-29.478" gradientTransform="matrix(107.8577 0 0 -74.1671 -15221.416 -2186.1768)">
				<stop  offset="0" style="stop-color:#FFFFFF"/>
				<stop  offset="0.256" style="stop-color:#C1C1C1"/>
				<stop  offset="0.845" style="stop-color:#292929"/>
				<stop  offset="1" style="stop-color:#000000"/>
			</linearGradient>
			<path id="Tracé_8284" class="st21" d="M140.671-7.488c-0.189,1.536-0.519,3.052-0.985,4.527l4.353,2.96
				c2.092,1.463,2.61,4.341,1.16,6.442l-3.54,5.107c-1.491,2.089-4.378,2.605-6.501,1.162l-4.297-3.019
				c-1.213,0.971-2.515,1.826-3.887,2.555l0.928,5.107c0.468,2.544-1.215,4.986-3.759,5.454c-0.004,0.001-0.009,0.002-0.013,0.002
				l-5.978,1.044c-2.527,0.485-4.968-1.17-5.453-3.697c-0.001-0.006-0.002-0.012-0.003-0.018l-0.928-5.166
				c-1.538-0.177-3.055-0.508-4.527-0.987l-3.019,4.297c-1.465,2.091-4.342,2.609-6.444,1.16l-5.049-3.54
				c-2.099-1.455-2.622-4.336-1.167-6.436c0.002-0.003,0.004-0.005,0.005-0.008l2.96-4.295c-0.931-1.23-1.766-2.53-2.495-3.889
				l-5.166,0.929c-2.509,0.438-4.898-1.241-5.336-3.75c-0.001-0.008-0.003-0.016-0.004-0.024l-1.104-6.038
				c-0.465-2.515,1.198-4.931,3.713-5.395c0,0,0.001,0,0.001,0l5.167-0.929c0.117-1.119,0.33-2.226,0.639-3.307
				c1.733,1.677,3.662,3.139,5.746,4.353c2.209,1.29,4.568,2.303,7.023,3.019c0.01,0.466,0.049,0.931,0.115,1.393
				c1.235,6.69,7.642,11.125,14.339,9.926c6.29-1.109,10.666-6.876,10.041-13.232c1.4-0.701,2.74-1.518,4.006-2.441
				c0.847-0.612,1.643-1.291,2.38-2.032c2.082-1.848,3.795-4.073,5.049-6.558l4.469-0.813c2.483-0.461,4.87,1.178,5.331,3.661
				c0.003,0.018,0.007,0.036,0.01,0.053l1.104,6.095c0.448,2.512-1.208,4.918-3.715,5.396L140.671-7.488z"/>
			
				<linearGradient id="Tracé_8285_1_" gradientUnits="userSpaceOnUse" x1="141.6356" y1="-30.2109" x2="142.278" y2="-30.2109" gradientTransform="matrix(69.0817 0 0 -92.709 -9696.6094 -2887.887)">
				<stop  offset="0" style="stop-color:#FFFFFF"/>
				<stop  offset="0.256" style="stop-color:#C1C1C1"/>
				<stop  offset="0.845" style="stop-color:#292929"/>
				<stop  offset="1" style="stop-color:#000000"/>
			</linearGradient>
			<path id="Tracé_8285" class="st22" d="M120.961-95.71c-0.228,1.93-0.636,3.835-1.22,5.689l5.396,3.656
				c2.609,1.866,3.253,5.472,1.451,8.126l-4.411,6.328c-1.843,2.604-5.433,3.25-8.068,1.451l-5.396-3.715
				c-1.518,1.203-3.151,2.254-4.876,3.135l1.161,6.384c0.592,3.157-1.487,6.197-4.644,6.791l-3.366,0.578
				c-4.52-5.102-7.499-11.382-8.591-18.11c-0.561-2.945-0.717-5.952-0.464-8.939c1.24,0.115,2.49,0.056,3.713-0.175
				c8.373-1.504,13.952-9.496,12.479-17.875c-0.419-2.51-1.479-4.869-3.077-6.849c1.706-1.441,3.554-2.705,5.515-3.773
				c0.639-0.347,1.335-0.696,1.973-0.985c2.476-1.196,5.061-2.149,7.72-2.846c0.481,0.702,0.908,1.439,1.276,2.206l6.444-1.16
				c3.128-0.586,6.139,1.474,6.726,4.602c0.003,0.014,0.005,0.028,0.008,0.041l1.393,7.546c0.546,3.155-1.552,6.16-4.702,6.733
				L120.961-95.71z"/>
		</g>
	</g>
	<line id="Ligne_121" class="st23" x1="289.054" y1="810.949" x2="528.008" y2="911.798"/>
</g>
</svg>
