<svg xmlns="http://www.w3.org/2000/svg" xmlns:xlink="http://www.w3.org/1999/xlink" width="579.745" height="576.465" viewBox="0 0 579.745 576.465"><defs><style>.a,.b{fill:#e6e9f0;}.b,.d,.m{opacity:0.5;mix-blend-mode:overlay;isolation:isolate;}.c{fill:rgba(28,147,221,0.25);}.d{fill:url(#a);}.e{opacity:0.1;}.f{fill:#fbd783;}.g{fill:#fff;}.h{fill:#400491;}.i{fill:#ff8d67;}.j{fill:#022539;}.k{fill:#e90566;}.l{fill:#1b2c7b;}.m{fill:url(#d);}.n{fill:#ffc4c2;}.o{fill:#00dbf5;}.p{fill:#00c1da;}.q{fill:#f3f7ff;}.r{fill:#00102c;}.s{fill:#000304;}.t{fill:#ff9f98;}.u{fill:#007fb4;}.v{fill:#ff8d00;}.w{fill:#5e8fe7;}.x{fill:#000d3f;}.y{fill:#dae7ff;opacity:0.51;}.z{fill:#ff391d;}.aa{fill:#a4181e;}.ab{fill:#052b80;}.ac{fill:#f23c2c;}</style><linearGradient id="a" y1="0.5" x2="1" y2="0.5" gradientUnits="objectBoundingBox"><stop offset="0" stop-color="#fff"/><stop offset="0.085" stop-color="#f5f5f5"/><stop offset="0.229" stop-color="#dadada"/><stop offset="0.413" stop-color="#afafaf"/><stop offset="0.631" stop-color="#747474"/><stop offset="0.876" stop-color="#292929"/><stop offset="1"/></linearGradient><linearGradient id="d" x1="0.475" y1="0.362" x2="0.595" y2="0.916" xlink:href="#a"/></defs><g transform="translate(-0.001 0)"><g transform="translate(0.001 0)"><g transform="translate(14.949 451.109)"><path class="a" d="M1868.785,971.082c-99.1-21.2-105.714-4.152-191.194,18.642a314.433,314.433,0,0,1-72.682,9.9c-60.995,1.4-117.353-12.7-148.068-24.387-42.691-16.324-32.5-59.545,57.71-83.789,36.946-9.949,87.364-16.661,153.092-17.048C2100.015,871.935,2002.655,999.72,1868.785,971.082Z" transform="translate(-1432.547 -874.363)"/><path class="b" d="M1687.346,944.382c0,19.751-32.356,37.281-82.437,48.389-60.995,1.4-117.353-12.7-148.068-24.387-42.691-16.323-32.5-59.545,57.71-83.789C1612.636,889.425,1687.346,914.392,1687.346,944.382Z" transform="translate(-1432.547 -867.512)"/></g><path class="c" d="M1924.8,1030.765a352.536,352.536,0,0,1-61.14,13.764c-7.243.918-14.2,1.5-20.91,1.74a203.309,203.309,0,0,1-35.834-1.5,173.127,173.127,0,0,1-18.546-3.526c-42.449-10.623-69.4-35.35-91.419-56.261a.048.048,0,0,1-.049-.048c-12.266-11.59-22.94-21.973-33.951-28.156-11.3-6.278-22.938-8.161-36.848-2.221-112.04,47.761-173.953,6.52-152.268-59.353.24-.822.531-1.641.82-2.463,24.05-67.321-74.662-85.673-45.685-154.973a105,105,0,0,1,23.615-35.3c36.317-35.4,92.772-34.771,127.641-9.224,84.272,61.913,157.05-37.33,202.012-66.79a57.433,57.433,0,0,1,11.542-6.134c108.419-46.167,157.484,14.779,146.57,80.505a123.394,123.394,0,0,1-12.509,36.946C1899.059,792.679,2113.531,971.751,1924.8,1030.765Z" transform="translate(-1423.593 -604.169)"/><path class="d" d="M1819.838,993.319a352.524,352.524,0,0,1-61.14,13.764c-7.243.918-14.2,1.5-20.91,1.74a203.323,203.323,0,0,1-35.834-1.5,173.106,173.106,0,0,1-18.546-3.526c-42.449-10.623-69.4-35.35-91.419-56.261a.048.048,0,0,1-.049-.048,215.939,215.939,0,0,1-11.59-70.122c0-119.961,97.263-217.272,217.272-217.272a216.326,216.326,0,0,1,37.766,3.282,123.4,123.4,0,0,1-12.508,36.946C1794.1,755.232,2008.57,934.3,1819.838,993.319Z" transform="translate(-1318.632 -566.723)"/><path class="d" d="M1770.8,625.34a171.983,171.983,0,0,1-329.844,68.19c36.316-35.4,92.771-34.771,127.641-9.224,84.272,61.913,157.05-37.33,202.012-66.79C1770.754,620.076,1770.8,622.732,1770.8,625.34Z" transform="translate(-1411.966 -595.232)"/><path class="d" d="M1645.2,849.194a100.336,100.336,0,0,1-.676,11.493c-11.3-6.278-22.938-8.161-36.848-2.221-112.04,47.761-173.953,6.52-152.268-59.353a101.5,101.5,0,0,1,189.792,50.08Z" transform="translate(-1405.166 -508.077)"/><g transform="translate(176.093 144.832)"><path class="e" d="M1780.882,835.092a.37.37,0,0,1-.1-.24,13.236,13.236,0,0,0,1.207-.87c-5.41-11.881-15.165-24.1-24.1-36.559v-.048a93.868,93.868,0,0,0-18.352-4.685,48.711,48.711,0,0,1-3.042-8.161c1.641-.628,4.249-2.463,4.443-8.258.242-8.4,9.031-24.389-2.174-29.121s-20.042-6.231-23.374-.918c-3.284,5.313-10.286,8.066-15.308,5.8-4.974-2.269-.194,10.771,5.458,13.33a12.235,12.235,0,0,0,2.559.868c2.124,7.1,4.732,13.57,8.451,18.689-.533-.192-.628-.192-.291.63.822,1.932,3.187,4.828,4.878,4.249a5.721,5.721,0,0,0,1.448-.676,21.671,21.671,0,0,0,2.319-.29,17.118,17.118,0,0,1-.436,2.271c-8.547-.434-15.357-.048-17.337.773-6.423,1.4-12.169,3.284-15.26,9.079-2.608,6.278-3.912,20.718-2.656,32.742.58.145,1.159.242,1.738.387.531,4.636,1.207,9.031,1.932,12.6l-8.065.724a8.686,8.686,0,0,0-3.091-.676h-48.825c-3.428,0-5.456,2.511-4.491,5.651l9.418,30.473a8.74,8.74,0,0,0,8.016,5.65h1.352a3.212,3.212,0,0,0-2.655,3.139,4.876,4.876,0,0,0,.144.821c-6.616,9.273-13.328,32.7-19.269,57.759a173.086,173.086,0,0,0,18.544,3.526l18.207-43.175a112.109,112.109,0,0,0,16.565-2.366c-2.608,8.354-1.546,26.416,1.062,47.037,6.714-.24,13.667-.82,20.912-1.738l.724-32.744c19.8-5.553,41.581-15.839,46.893-34.191a13.011,13.011,0,0,0,2.172-.531c.676-2.463,1.255-4.878,1.836-7.341,18.35-7.63,33.66-15.405,34.095-23.808C1786.29,849.241,1784.213,842.481,1780.882,835.092Zm-86.3,32.937-1.689-5.555c.628-.048,1.3-.1,1.932-.194C1694.725,864.213,1694.629,866.1,1694.58,868.029Zm61.43-7.341c.87-5.555,1.593-11.156,2.029-16.709.048.047.048.047.048.1q.869-.215,1.738-.434c2.463,3.96,4.925,7.678,7.148,10.577Z" transform="translate(-1464.544 -656.13)"/><g transform="translate(105.85 74.916)"><g transform="translate(17.952 48.579)"><path class="f" d="M1688.594,766.729c2.73,15.086,3.212,6.384,3,19.436-.157,8.1-3.845,4.7-6.137,9.872-18.19,7.869-49.481,9.432-80.565,8.47l-1.678-7.071,33.2-3.581c-.745-3.613,16.853-3.012,16.347-7.69" transform="translate(-1603.217 -763.65)"/><path class="g" d="M1675.03,808.281c-5.1,1.162-15.682,1.255-25.927-1.147-1.241-12.029.035-26.483,2.65-32.78,3.391-6.354,10.017-8,17.179-9.468C1671.663,779.971,1675.237,795.228,1675.03,808.281Z" transform="translate(-1572.812 -764.885)"/></g><g transform="translate(0 127.921)"><path class="f" d="M1610.309,879.561c-.78,5.166-8.051,9.021-8.051,9.021s17.956,6.518,18.556,2.058-2.344-6.408.254-9.892S1610.309,879.561,1610.309,879.561Z" transform="translate(-1585.906 -767.94)"/><path class="g" d="M1606.492,923.384c7.919-37.734,18.733-84.065,28.917-92.306,13.866-9.091,32.29-15.8,55.3-18.671l15.733,25.97c-19.085,5.762-37.08,12.614-56.175,13.8l-31.1,73.712C1612.858,926.517,1610.141,925.948,1606.492,923.384Z" transform="translate(-1583.072 -812.407)"/><path class="h" d="M1627.356,885.123c-5.892,2.292-16.177-1.806-16.177-1.806-7.96,2.149-19.634,2.985-18.657,7.907,0,0,24.782,6.922,32.755,4.054C1630.68,893.336,1627.356,885.123,1627.356,885.123Z" transform="translate(-1592.464 -764.927)"/></g><g transform="translate(75.563 125.096)"><path class="f" d="M1649.946,892.957c1.187,5.087-4.144,11.358-4.144,11.358s19.093-.586,18-4.952-4.548-5.087-3.423-9.283S1649.946,892.957,1649.946,892.957Z" transform="translate(-1632.314 -758.465)"/><path class="g" d="M1651.523,944.972c-6.6-37.988-13.694-85.033-7.281-96.455,9.52-13.575,24.153-26.628,44.469-37.8l24.224,18.309c-5.162,18.571-27.112,28.912-47.02,34.471l-1.693,79.121C1658.6,945.528,1655.863,946,1651.523,944.972Z" transform="translate(-1635.043 -810.715)"/><path class="h" d="M1668.271,893.718c-4.626,4.307-15.7,4.3-15.7,4.3-6.6,4.942-17.138,10.036-14.408,14.248,0,0,27.57-3.172,32.8-8.391C1675.026,899.822,1668.271,893.718,1668.271,893.718Z" transform="translate(-1637.723 -755.138)"/></g><path class="g" d="M1652.052,847.233c15.008,12.108,49.7,15.071,56.038,12.448,8.461-29.932,9.891-59.455,7.406-88.656-19.026-7.244-46.412-7.248-50.775-5.52C1657.747,784.046,1652.414,815.264,1652.052,847.233Z" transform="translate(-1552.566 -716.524)"/><g transform="translate(33.204 103.837)"><path class="i" d="M1678.827,839.773h-48.808a8.772,8.772,0,0,1-8-5.653l-9.423-30.485c-.965-3.122,1.054-5.653,4.508-5.653h48.809a8.772,8.772,0,0,1,8,5.653l9.423,30.485C1684.3,837.242,1682.28,839.773,1678.827,839.773Z" transform="translate(-1612.353 -797.982)"/><rect class="i" width="83.855" height="6.495" rx="0.764" transform="translate(16.347 41.672)"/></g><path class="f" d="M1670.345,820.957c-4.234-2-12.178,3.716-12.178,3.716s-3.972,4.348-1.985,6.376,17.669.561,17.669-2.346S1670.345,820.957,1670.345,820.957Z" transform="translate(-1550.173 -679.045)"/><path class="f" d="M1669.153,773.7c2.4-3.977,2.38-9.532,1.933-15.362l10.2-1.408a49.807,49.807,0,0,0,5.216,16.328C1681.964,778.955,1671.759,779.766,1669.153,773.7Z" transform="translate(-1541.116 -721.633)"/><path class="f" d="M1672.618,780.814c2.875,1.953,11.124-.873,15.729-3.623l7.837-27.651-19.594-12.907-17.931,12.362C1661.768,761.544,1665.414,773.417,1672.618,780.814Z" transform="translate(-1548.142 -735.223)"/><path class="j" d="M1661.688,758.29c6.957,3.181,17-.057,17-.057l.028,8.592,3.026-.286s.825-6.646,3.9-5.812c5.779,1.564-.709,3.785-1.068,9.061-.2,2.952,6.772,7.967,6.772,7.967s5.506-.155,5.745-8.573,9.034-24.407-2.169-29.136-20.046-6.2-23.344-.89-10.333,8.046-15.312,5.783S1656.075,755.724,1661.688,758.29Z" transform="translate(-1551.141 -735.788)"/><path class="j" d="M1671.484,754.492s1.015,10.47-2.326,11.295-4.763-1.548-3.96.349,3.162,4.833,4.894,4.259c5.668-1.882,5.361-8.951,4.418-16.188Z" transform="translate(-1543.911 -723.455)"/><g transform="translate(120.178 54.521)"><path class="f" d="M1735.727,825.963c-.724,13.425-39.31,25.16-67.8,37.62l-3.478-7.727,51.818-30.57c-2.221-2.947-4.732-6.665-7.2-10.674-6.278-10.335-12.218-22.649-12.555-29.458.337-7.2,4.829-12.315,10.672-16.711,8.934,12.46,17.579,25.838,22.988,37.717C1733.506,813.551,1735.583,820.313,1735.727,825.963Z" transform="translate(-1664.446 -768.444)"/><path class="g" d="M1718.756,805.034c-4.106,3.235-13.629,7.86-23.915,10.081-6.278-10.335-11.323-23.94-11.661-30.748.337-7.2,5.617-11.527,11.46-15.923C1703.574,780.9,1713.347,793.154,1718.756,805.034Z" transform="translate(-1651.901 -768.444)"/></g></g><path class="k" d="M1529.065,690.917" transform="translate(-1529.065 -690.917)"/><g transform="translate(73.952 222.933)"><path class="l" d="M1834.1,835.7v10.286a11.265,11.265,0,0,1-11.253,11.253H1584.612a11.232,11.232,0,0,1-11.253-11.253V835.7a11.264,11.264,0,0,1,11.253-11.253h238.231A11.3,11.3,0,0,1,1834.1,835.7Z" transform="translate(-1573.359 -824.444)"/><path class="k" d="M1820.157,844.085V944.438a20.2,20.2,0,0,1-20.235,20.235H1599.553a20.2,20.2,0,0,1-20.235-20.235V844.085Z" transform="translate(-1569.369 -811.293)"/><path class="m" d="M1830.106,835.7v10.286a11.265,11.265,0,0,1-11.253,11.253h1.3V957.589a20.2,20.2,0,0,1-20.235,20.235H1599.553a20.2,20.2,0,0,1-20.235-20.235v-86.4c1.158-.049,2.317-.1,3.478-.1a176.26,176.26,0,0,1,65.1,11.3c14.1,5.313,27.576,12.46,42.16,16.372,20.283,5.458,42.16,4.346,62.155-2.029,8.5-2.7,16.854-6.423,23.422-12.412,7.436-6.76,12.024-15.791,14.583-25.4.145-.579.29-1.11.387-1.69,2.027-8.163,2.656-16.662,2.9-25.065.049-2.848-.145-5.408-.1-7.727h25.451A11.3,11.3,0,0,1,1830.106,835.7Z" transform="translate(-1569.369 -824.444)"/></g></g></g><g transform="translate(62.822 184.016)"><g transform="translate(113.118 317.572)"><g transform="translate(1.416)"><path class="n" d="M1531.3,904.915l13.307-.317c-.034,10.921,5.763,15.662,16.943,15.842,6.568.105,6.661,8.179,6.661,8.179l-36.126,2.716s-4.635-3.444-.633-11.914C1532.427,917.352,1531.3,904.915,1531.3,904.915Z" transform="translate(-1529.821 -904.598)"/></g><g transform="translate(0 8.752)"><path class="o" d="M1528.978,920.418c0,.037,0,.037,0,.067.337,2.8,1.691,5.338,4.192,6.045,1.811.531,5.568-.851,7.378-1.005a30.817,30.817,0,0,1,7.3.788,47.328,47.328,0,0,0,14.422.386c3.167-.459,6.65-1.514,8.794-4.05a7.827,7.827,0,0,0,1.631-3.232,2.566,2.566,0,0,0-.341-.669,3.225,3.225,0,0,0-2.311-1.022c-2.451-.366-5.94-1.227-8.391-1.626-5.909-.923-8.642-3.284-13.884-6.122-.352-.189-.9-.23-1.087.19-3.312,8.349-13.109,3.658-14.287,2.685C1530.946,914.017,1529.107,918.081,1528.978,920.418Z" transform="translate(-1528.969 -909.84)"/><path class="p" d="M1533.265,924.57c1.8.5,5.564-.885,7.376-1.039a30.71,30.71,0,0,1,7.306.79,48.442,48.442,0,0,0,14.418.419c3.171-.459,6.649-1.548,8.794-4.05,1.044-1.179,2.169-3.463,1.543-5.114a7.826,7.826,0,0,1-1.631,3.232c-2.144,2.536-5.627,3.591-8.794,4.05a47.326,47.326,0,0,1-14.422-.386,30.83,30.83,0,0,0-7.3-.788c-1.81.154-5.566,1.536-7.378,1.005-2.5-.708-3.855-3.247-4.192-6.045C1528.838,920.082,1530.208,923.72,1533.265,924.57Z" transform="translate(-1528.972 -905.999)"/><path class="q" d="M1540.679,913.424a7.227,7.227,0,0,1,1.02-2.285c1.241-1.79,4.294-.227,3.037,1.586a4.406,4.406,0,0,0-.714,1.454C1543.448,916.3,1540.1,915.562,1540.679,913.424Z" transform="translate(-1521.179 -909.499)"/><path class="q" d="M1544.156,914.82c.191-.546.381-1.089.571-1.635.716-2.055,4.069-1.331,3.341.755-.19.544-.381,1.09-.57,1.633C1546.781,917.625,1543.426,916.9,1544.156,914.82Z" transform="translate(-1518.875 -908.419)"/></g></g><g transform="translate(0 300.922)"><g transform="translate(0.646)"><path class="n" d="M1478.509,894.625l10.208,8.542c-7.231,8.184-6.005,15.572,2.279,23.082,4.865,4.413-.391,10.54-.391,10.54L1461.665,915s-1.209-5.648,7.383-9.37C1471.15,904.714,1478.509,894.625,1478.509,894.625Z" transform="translate(-1461.607 -894.625)"/></g><g transform="translate(0 8.953)"><path class="o" d="M1463.581,903.418l-.04.053c-1.594,2.323-2.252,5.128-.838,7.308,1.007,1.594,4.743,3.032,6.206,4.112a30.989,30.989,0,0,1,4.969,5.413,47.173,47.173,0,0,0,10.585,9.8c2.68,1.746,5.994,3.252,9.276,2.761a7.874,7.874,0,0,0,3.357-1.351,2.433,2.433,0,0,0,.187-.733,3.222,3.222,0,0,0-1.062-2.291c-1.6-1.892-3.655-4.842-5.236-6.759-3.828-4.591-4.324-8.168-6.391-13.762-.138-.374-.524-.77-.942-.576-8,4.092-12.265-5.9-12.507-7.406C1469.285,899.907,1465.221,901.746,1463.581,903.418Z" transform="translate(-1460.747 -899.987)"/><path class="p" d="M1462,910.854c1.029,1.566,4.767,3.005,6.228,4.087a30.776,30.776,0,0,1,4.969,5.411,48.3,48.3,0,0,0,10.562,9.829c2.682,1.746,6.017,3.226,9.278,2.76,1.563-.2,3.915-1.17,4.533-2.822a7.875,7.875,0,0,1-3.358,1.351c-3.282.491-6.6-1.015-9.276-2.761a47.178,47.178,0,0,1-10.585-9.8,31,31,0,0,0-4.969-5.413c-1.463-1.08-5.2-2.518-6.206-4.112-1.414-2.181-.756-4.985.838-7.308C1461.635,904.556,1460.266,908.2,1462,910.854Z" transform="translate(-1461.22 -898.59)"/><path class="q" d="M1474.611,907.193a7.137,7.137,0,0,1,2.279-1.043c2.11-.528,3.373,2.66,1.232,3.194a4.42,4.42,0,0,0-1.5.621C1474.8,911.182,1472.77,908.418,1474.611,907.193Z" transform="translate(-1452.74 -895.901)"/><path class="q" d="M1476.255,910.587q.752-.426,1.506-.852c1.9-1.068,3.937,1.69,2.013,2.773q-.754.426-1.506.848C1476.375,914.431,1474.333,911.672,1476.255,910.587Z" transform="translate(-1451.671 -893.622)"/></g></g><path class="r" d="M1543.94,803.033c6.6,20.876,8.071,60.744,11.487,95.354,2.72,27.545,13.116,82.527,3.964,84.744,0,0-8.2,5.6-14.923,3.488-10.017-3.142-19.1-71.321-22.531-80.927s-16.888-71.677-11.9-98.981S1541.351,794.837,1543.94,803.033Z" transform="translate(-1429.266 -662.942)"/><path class="s" d="M1511.441,821.592s13.078,31.131,17.666,58.555c1.84,11,15.2,85.9,15.2,85.9s-8.964-4.782-16.227-52.877c-4.379-29.016-19.7-76.113-19.7-76.113Z" transform="translate(-1429.644 -642.604)"/><path class="r" d="M1531.643,907.147c-3.69,9.51-34.509,72.471-48.651,70.087a26.86,26.86,0,0,1-5.468-2.9q-.831-.528-1.6-1.109c-1.077-.778-2.075-1.549-2.944-2.267-.564-.451-1.067-.876-1.5-1.255-1.1-.957-1.778-1.6-1.778-1.6-8.436-8.567,27.489-55.668,27.989-62,1.862-23.107,7.253-65.91,12.524-91.433a106.33,106.33,0,0,1,3.289-12.615c2.8-8.151,29.548-22.833,33.794,4.618C1551.51,834.1,1535.337,897.635,1531.643,907.147Z" transform="translate(-1456.397 -663.246)"/><path class="s" d="M1493.1,897.89c.145,6.359-15.419,25.675-17.612,32.019.142-4.561,23.362-22.167,23.833-28.792.449-6.258-1.008-27.49-1.235-33.747-.449-11.432,2.354-22.331,5.6-33.33,3.169-10.674,7.854-20.8,12.552-30.859-.244-3.127-6.827-2.389-8.851-2.431-1.494-.02-3.394-.346-4.8.042-2.272.631-3.416,2.476-4.518,4.54-.432.776-.842,1.594-1.23,2.434C1494.22,833.69,1492.567,874.721,1493.1,897.89Z" transform="translate(-1451.668 -656.658)"/><path class="q" d="M1517.992,813.171q-2.359,20.779-4.693,41.541c-1.346,11.872-2.4,23.915-5.5,35.49-3.139,11.749-9.234,21.895-15.445,32.224l-20.6,34.221c-.564-.451-1.067-.877-1.5-1.256q10.025-16.656,20.032-33.3c6.282-10.443,12.51-20.713,15.7-32.592,3.3-12.338,4.261-25.252,5.692-37.9q2.171-19.3,4.367-38.629A.978.978,0,0,1,1517.992,813.171Z" transform="translate(-1455.169 -648.937)"/><path class="q" d="M1517.99,853.92c-2.209,12.609-4.234,25.356-7.039,37.844-2.681,11.892-8.309,22.067-14.747,32.295q-10.849,17.193-21.689,34.345-.832-.529-1.6-1.109,10.33-16.418,20.713-32.815c6.974-11.058,13.011-21.816,15.761-34.722,2.533-11.927,4.55-24.03,6.653-36.038,2.209-12.594,3.89-25.256,2.977-38.05-.105-1.247,1.833-1.578,1.918-.332C1521.9,828.314,1520.232,841.158,1517.99,853.92Z" transform="translate(-1453.388 -647.318)"/><path class="n" d="M1552.741,807.31c8.515-3.2,34.62-24.227,39.624-28.106,6.034-4.671,2.369-16.07-4.339-11.978-6.473,3.949-44.686,24.184-47.813,27.408C1534.566,800.46,1542.086,811.311,1552.741,807.31Z" transform="translate(-1409.621 -679.589)"/><path class="n" d="M1519.347,770.488c3.674,8.717,30,36.213,34.839,41.476,5.835,6.339,19.7.714,17.3-6.8-2.127-6.65-30.167-42.961-34.268-46.3C1529.817,752.824,1514.744,759.583,1519.347,770.488Z" transform="translate(-1422.874 -686.125)"/><path class="p" d="M1533.868,794.841c-8.658-9.547-15.193-22.733-17.238-27.5-4.862-11.343,8.6-19.748,16.16-13.732,1.888,1.5,15.392,11.223,22.758,21.73C1551.5,785.165,1535.741,794.326,1533.868,794.841Z" transform="translate(-1424.812 -689.468)"/><path class="o" d="M1539.344,751.614s7.9-.683,12.068,3.533,15.094,22.681,12.562,43.957,4.309,58.347,4.309,58.347-36.54,8.388-82.143-1.192c0,0-.507-78.184,10.3-99.2,3.434-6.677,19.509-6.69,21.94-6.9S1539.344,751.614,1539.344,751.614Z" transform="translate(-1444.537 -690.45)"/><path class="p" d="M1568.282,851.619s-.16-.853-.416-2.366c-81.819,7.593-75.915-28.419-66.953-45.975s15.2-44.436,15.2-44.436l-24.292,8.537a7.879,7.879,0,0,1-.451,1.4c-5.563,30.7-5.233,81.644-5.233,81.644C1531.742,860.007,1568.282,851.619,1568.282,851.619Z" transform="translate(-1444.537 -684.619)"/><path class="n" d="M1525.074,749.334s-1.265,7.354,1.052,8.328a22.548,22.548,0,0,0,5.4,1.3s-12.642,18.3-27.026-1.681c0,0,4.293.05,5.622-1.681s2.15-10.3,1.487-15.966Z" transform="translate(-1432.24 -697.485)"/><path class="t" d="M1510.123,755.6c1.327-1.731,2.15-10.3,1.487-15.966l7.673,5.531a20.816,20.816,0,0,0-3.748,5.4c-2,3.765-3.132,9.049.777,11.944,3,2.222,6.989,2.112,10.672,1.025-4.937,3.691-13.359,6.419-22.483-6.254C1504.5,757.276,1508.794,757.326,1510.123,755.6Z" transform="translate(-1432.24 -697.485)"/><path class="n" d="M1501.818,756.974c-7.5,5.768-27.419,38.206-31.281,44.223-4.655,7.248,1.768,16.629,9.127,13.787,6.274-2.424,35.744-38.861,37.936-43.674C1521.56,762.622,1511.2,749.755,1501.818,756.974Z" transform="translate(-1456.039 -687.288)"/><path class="n" d="M1483.868,782.5c8.547,3.1,34.877,23.851,39.925,27.673,6.084,4.608,2.545,16.041-4.207,12.024-6.518-3.878-44.948-23.7-48.109-26.887C1465.766,789.539,1473.169,778.612,1483.868,782.5Z" transform="translate(-1455.679 -669.329)"/><path class="o" d="M1479.717,772.948c8.445-9.734,20.756-17.8,25.25-20.4,10.682-6.182,20.633,6.179,15.562,14.4-1.265,2.055-8.224,13.42-17.774,21.99C1492.511,786.1,1480.453,774.748,1479.717,772.948Z" transform="translate(-1448.835 -689.952)"/><g transform="translate(62.864 138.122)"><path class="n" d="M1499.721,803.531c-1.751,2.785-.5,5.86,1.15,8.366,1.536,2.322,4.174,5.842,7.264,5.71a1.7,1.7,0,0,0,1.449-2.182,2.759,2.759,0,0,0,2.486-.619,2.038,2.038,0,0,0,.812-2.13,2.286,2.286,0,0,0,2.891-1.286,2.56,2.56,0,0,0,.165-1.793,2.506,2.506,0,0,0,2.626-1.518c1.74-3.187-3.918-5.655-6.02-6.782-.028-.013-.047,0-.075-.018-3.975-2.417-10.173-1.841-12.749,2.252" transform="translate(-1498.873 -795.286)"/><path class="n" d="M1509.182,797.323c-2.344.778-6.239,2.2-8.071,3.807-.04.035.458,3.224,2.033,3.583,1.847.424,4.039.841,5.493-.341.8-.649.891-2.6,1.868-2.987,1.277-.5,2.833.341,3.955.918,1.93,1,4.448-1.281,2.727-2.533C1515.206,798.327,1511.7,796.492,1509.182,797.323Z" transform="translate(-1497.375 -797.115)"/></g><path class="n" d="M1575.879,765.334c-.032.012-.037.037-.067.047-4.708,1.4-8.643,6.672-7.257,11.587.945,3.347,4.239,4.545,7.372,5.021,2.91.437,7.536.86,9.619-1.656a1.8,1.8,0,0,0-.683-2.68,2.918,2.918,0,0,0,1.272-2.389,2.155,2.155,0,0,0-1.1-2.142,2.41,2.41,0,0,0,1.042-3.174,2.686,2.686,0,0,0-1.291-1.4,2.651,2.651,0,0,0,.668-3.134C1584.191,761.8,1578.25,764.486,1575.879,765.334Z" transform="translate(-1389.54 -681.451)"/><path class="n" d="M1571.047,764.827c-1.773,1.91-2.848,4.8-3.725,7.221a1.163,1.163,0,0,0-.022.15,1.735,1.735,0,0,0,1.913,2.543c1.925-.548,4.167-1.277,4.912-3.109.409-1.008-.494-2.862.209-3.715.93-1.119,2.8-1.129,4.13-1.159,2.3-.059,3.47-3.448,1.234-3.735C1577.134,762.7,1572.95,762.78,1571.047,764.827Z" transform="translate(-1390.316 -681.916)"/><path class="u" d="M1524.287,724.022a104.77,104.77,0,0,1,.572,12.609l-1.918-.743s-.362-7.72-.965-10.968Z" transform="translate(-1420.539 -707.935)"/><g transform="translate(94.406 24.994)"><path class="v" d="M1517.987,738.672c.416,1.781,1.337,4.723,3.257,5.428.09.033.2.065.292.1,4.558,1.407,8.264-2.9,7.51-8.395-.551-4.012-3.315-6.468-7.086-6.446a3.636,3.636,0,0,0-1.174.207,4.174,4.174,0,0,0-2.579,2.65A16.26,16.26,0,0,0,1517.987,738.672Z" transform="translate(-1517.765 -729.357)"/><path class="w" d="M1517.987,738.588c.416,1.781,1.337,4.723,3.257,5.428.09.033.2.065.292.1-2.63-4.591-3.471-9.917-.75-14.634a4.174,4.174,0,0,0-2.579,2.65A16.259,16.259,0,0,0,1517.987,738.588Z" transform="translate(-1517.765 -729.274)"/></g><path class="u" d="M1505.383,746.909l2.359-.564c-.04-.169-3.892-16.671,1.882-24.91a10.419,10.419,0,0,1,7.715-4.459c.037,0,.072-.01.11-.013,4.875-.554,8.779.419,11.6,2.892,4.786,4.2,4.965,11.445,4.965,11.518l2.423-.035c0-.342-.182-8.368-5.777-13.293-3.351-2.952-7.889-4.126-13.482-3.49a13.086,13.086,0,0,0-9.533,5.493C1501.235,729.181,1505.212,746.188,1505.383,746.909Z" transform="translate(-1432.572 -714.386)"/><path class="x" d="M1508.8,749.023a3.3,3.3,0,0,0,3.83.86c1.337-.726.324-2.85-.3-3.768-.843-1.239-2.317-15.893-2.386-15.893-.487-.168-4.316,3.788-4.346,4.438C1505.514,736.3,1503.343,742.642,1508.8,749.023Z" transform="translate(-1431.839 -703.786)"/><path class="n" d="M1532.448,725.564l2.681,22.088c.727,5.974-3.965,11.458-10.475,12.246h0c-6.513.791-12.378-3.409-13.1-9.383l-.062-.494s-5.9,2.053-6.7-4.575,3.117-6.162,3.117-6.162L1506.62,728.7Z" transform="translate(-1432.121 -706.902)"/><path class="t" d="M1507.906,739.628l-1.636-13.463,9.173-1.114c.007.065.578,4.842.586,4.909l2.783,22.925c.488,4.005,4.756,6.787,8.765,6.164a7.607,7.607,0,0,0,3.289-1.352,12.548,12.548,0,0,1-6.211,2.546c-6.513.791-12.378-3.409-13.1-9.383l-.062-.494s-5.9,2.054-6.7-4.575S1507.906,739.628,1507.906,739.628Z" transform="translate(-1432.121 -707.246)"/><path class="x" d="M1509.208,745.629c-.329,1.556,2.589,3.368,3.872,3.214,2.628-.311,2.534-9.886,3.171-14.814,2.837.843,16.6-.319,19.407-1.362,4.175-1.554,5.431-10.605,2.172-13.286-8.009-6.58-29.2-2.4-31.608,4.652-.007.023,0,.04-.009.062C1500.159,726.745,1502.551,745.347,1509.208,745.629Z" transform="translate(-1433.423 -713.247)"/><g transform="translate(69.923 0.001)"><path class="u" d="M1505.383,746.909l2.359-.564c-.04-.169-3.892-16.671,1.882-24.91a10.42,10.42,0,0,1,7.715-4.459c.037,0,.072-.01.11-.013a19.682,19.682,0,0,1,5.5.083l.4-2.389a22.112,22.112,0,0,0-6.181-.1,13.086,13.086,0,0,0-9.533,5.493C1501.235,729.181,1505.212,746.187,1505.383,746.909Z" transform="translate(-1502.494 -714.387)"/><g transform="translate(0 29.867)"><path class="v" d="M1514.577,740.465c.027,1.83-.167,4.91-1.858,6.051-.084.053-.185.112-.266.165-4.085,2.458-8.719-.841-9.3-6.354-.423-4.027,1.671-7.072,5.338-7.956a3.7,3.7,0,0,1,1.191-.077,4.166,4.166,0,0,1,3.137,1.953A16.2,16.2,0,0,1,1514.577,740.465Z" transform="translate(-1503.1 -732.276)"/><path class="u" d="M1511.938,740.458c.027,1.83-.167,4.91-1.858,6.051-.083.053-.185.112-.266.165,1.454-5.086,1-10.462-2.771-14.387a4.165,4.165,0,0,1,3.137,1.953A16.2,16.2,0,0,1,1511.938,740.458Z" transform="translate(-1500.461 -732.269)"/><path class="y" d="M1507.023,740.782a6.531,6.531,0,0,1-1.029-4.594,1.083,1.083,0,0,0-2.142-.319,8.855,8.855,0,0,0,1.448,6.224C1506.072,743.253,1507.794,741.94,1507.023,740.782Z" transform="translate(-1502.655 -730.467)"/></g></g><g transform="translate(171.618 58.621)"><path class="z" d="M1596.263,791.9c-.85,3.538-11.1,9.482-15.884,7.448-1.341-.568-3.229-8.834-3.229-8.834a30.091,30.091,0,0,0-5.152-11.9c-1.334-1.763-2.556-4.371-3.05-9.705-.085-.871.586-5.055-.484-7.508-.172-.366-.327-.741-.489-1.087a32.846,32.846,0,0,0-2.154-3.994c-.055-.077-.11-.147-.16-.207a.745.745,0,0,0-.221-.259,6.109,6.109,0,0,1-1.426-3.042c-.137-.6,6.583-3.75,6.974-3.267a6.491,6.491,0,0,1,1.423,3.039.776.776,0,0,0,.058.337,1.055,1.055,0,0,0,.057.257,35.684,35.684,0,0,0,2.2,5.287c1.185,2.4,4.845,4.551,5.478,5.167,3.765,3.8,5.049,6.319,5.621,8.358a30.492,30.492,0,0,0,4.84,10.244S1596.62,790.5,1596.263,791.9Z" transform="translate(-1564.011 -749.498)"/><path class="aa" d="M1572.41,752.587a.776.776,0,0,0,.058.337l-6.808,3.192a.745.745,0,0,0-.221-.259,6.109,6.109,0,0,1-1.426-3.042c-.137-.6,6.583-3.75,6.974-3.267A6.491,6.491,0,0,1,1572.41,752.587Z" transform="translate(-1564.011 -749.498)"/></g><path class="n" d="M1586.359,774a2.853,2.853,0,0,0-1.923-3.366,3.629,3.629,0,0,0-.122-2.342c-.234-.594-1.187-1.241-1.359-1.715a7.514,7.514,0,0,1-.1-1.616c-.293-2.194-2.167-5.172-4.564-3.337a1.087,1.087,0,0,0-.232.264c-2.062,1.277-4.967,3.242-5.314,5.421-.287,1.793,1.037,2.321,2.463,2.544-.846,1.91-.13,4.339,1.8,5.009a3.22,3.22,0,0,0,1.454,3.658,1.859,1.859,0,0,0,.818,2.4c1.641,1.082,3.715-.447,5.147-1.234,1.525-.838,3.124-1.7,3.114-3.686A2.066,2.066,0,0,0,1586.359,774Z" transform="translate(-1386.57 -683.142)"/></g><path class="f" d="M1606.213,802.352,1600.1,787.6l1.608-10.153s2.144-15.754,3.141-5.251,5.667,24.5,5.667,24.5" transform="translate(-1305.409 -494.082)"/><path class="f" d="M1604.558,782.34l-8.218-3.46,3.556,8.752,9.861,8.734" transform="translate(-1307.926 -487.187)"/><ellipse class="g" cx="36.731" cy="36.731" rx="36.731" ry="36.731" transform="translate(339.604 420.45)"/><g transform="translate(359.983 434.837)"><path class="ab" d="M1668.567,869.868a49.388,49.388,0,0,0-4.092-4.062l-.266.342a20.531,20.531,0,0,1,3.386,15.392c-1.057,7.309-5.783,15.378-11.634,15.976-.957.1-2,.147-3.072.166l1.872-13.233c-9.872-1.728-10.912,8.062-10.912,8.062l-1.5,13.689h9.145v0q3.09,0,6.177-.023a11.652,11.652,0,0,0,4.96-1.09C1675.04,898.982,1676.524,879.729,1668.567,869.868Z" transform="translate(-1637.104 -863.821)"/><path class="ac" d="M1663.241,875.434c-.921-4.782-4.381-8.39-8.86-8.46-4.808-.074-4.735-.027-9.544-.013-6.2.01-5.434-2.344-5.434-2.344a7.192,7.192,0,0,0,.005,3.347,3.224,3.224,0,0,0,.083.715c.092.416.2.823.312,1.226l.017.07,0,0c1.337,4.691,4.137,7.05,8.755,7.047,3.693,0,2.5.1,6.2,0a7.439,7.439,0,0,1,5.389,1.726c.623.586,3.022,4.321,1.943,7.71C1662.107,886.46,1664.975,881.042,1663.241,875.434Z" transform="translate(-1639.206 -864.617)"/></g></g></svg>