<?xml version="1.0" encoding="utf-8"?>
<!-- Generator: Adobe Illustrator 25.1.0, SVG Export Plug-In . SVG Version: 6.00 Build 0)  -->
<svg version="1.1" id="Calque_1" xmlns="http://www.w3.org/2000/svg" xmlns:xlink="http://www.w3.org/1999/xlink" x="0px" y="0px"
	 viewBox="0 0 580.198 551.749" style="enable-background:new 0 0 580.198 551.749;" xml:space="preserve">
<style type="text/css">
	.st0{fill:#F1EFF8;}
	.st1{opacity:0.5;fill:url(#Tracé_8251_1_);enable-background:new    ;}
	.st2{opacity:0.5;fill:url(#Tracé_8253_1_);enable-background:new    ;}
	.st3{opacity:0.5;fill:url(#Tracé_8254_1_);enable-background:new    ;}
	.st4{fill:#F4BC84;}
	.st5{fill:#1B2C7B;}
	.st6{fill:#077736;}
	.st7{fill:#007409;}
	.st8{fill:#091038;}
	.st9{fill:#FFFFFF;}
	.st10{fill:#FF00BA;}
	.st11{fill:#E90566;}
	.st12{opacity:0.7;fill:url(#Tracé_8282_1_);enable-background:new    ;}
	.st13{opacity:0.7;fill:url(#Tracé_8283_1_);enable-background:new    ;}
	.st14{opacity:0.7;fill:url(#Tracé_8284_1_);enable-background:new    ;}
	.st15{opacity:0.7;fill:url(#Tracé_8285_1_);enable-background:new    ;}
	.st16{fill:#FFD400;}
	.st17{fill:#FDBA12;}
	.st18{fill:#555A66;}
	.st19{fill:#414952;}
	.st20{fill:#E9EDF5;}
	.st21{fill:none;stroke:#FF0000;stroke-width:8;stroke-linecap:round;}
</style>
<g id="Groupe_3234" transform="translate(-142.042 -784.169)">
	<g id="Groupe_3097" transform="translate(-1091.717 664.16)">
		<g id="Partnership_Strategic" transform="translate(1233.76 242)">
			<g id="Groupe_3074">
				<g id="Groupe_3072" transform="translate(40.836 576.047)">
					<path id="Tracé_8250" class="st0" d="M434.672-184.76c-51.955-15.307-101.237-12.332-145.562-4.139
						c-42.643,7.891-80.671,20.653-112.018,26.603c-55.103,10.478-101.41,22.766-162.594-18.067
						c-18.324-12.245-8.968-32.768,28.285-49.886c39.194-18.109,109.258-32.511,210.497-29.751
						C563.635-251.591,532.893-155.744,434.672-184.76z"/>
					
						<linearGradient id="Tracé_8251_1_" gradientUnits="userSpaceOnUse" x1="149.4288" y1="-321.0757" x2="149.5332" y2="-321.7119" gradientTransform="matrix(456.6018 0 0 -144.8403 -68115.6094 -46759.582)">
						<stop  offset="0" style="stop-color:#FFFFFF"/>
						<stop  offset="0.085" style="stop-color:#F5F5F5"/>
						<stop  offset="0.229" style="stop-color:#DADADA"/>
						<stop  offset="0.413" style="stop-color:#AFAFAF"/>
						<stop  offset="0.631" style="stop-color:#747474"/>
						<stop  offset="0.876" style="stop-color:#292929"/>
						<stop  offset="1" style="stop-color:#000000"/>
					</linearGradient>
					<path id="Tracé_8251" class="st1" d="M289.111-188.9c-42.643,7.891-80.671,20.653-112.018,26.603
						c-55.103,10.478-101.41,22.766-162.594-18.067c-18.324-12.245-8.968-32.768,28.285-49.886
						c25.699-7.416,57.26-11.772,91.365-11.772C212.621-242.02,277.597-218.952,289.111-188.9z"/>
				</g>
				<g id="Groupe_3073">
					<path id="Tracé_8252" class="st0" d="M359.135,258.228c-5.121-3.373-10.777-5.852-16.728-7.332
						c-5.846-1.511-11.856-2.293-17.894-2.329c-19.531-0.388-41.78,5.219-65.279,12.031c-6.769,1.94-13.581,3.967-20.523,6.036
						c-33.372,9.917-68.426,19.661-101.281,16.9c-19.748-1.637-38.72-7.761-56.095-21.169
						c-19.489-14.919-36.907-38.935-51.136-75.803c-0.345-0.905-0.69-1.811-0.949-2.715c-15.609-42.772-7.977-83.086,11.122-114.993
						C77.322,7.068,157.175-23.373,195.593,20.391c45.66,51.957,95.417,47.213,121.46,23.673c7.32-6.479,12.82-14.758,15.954-24.017
						c13.193-40.184,77.869-83.344,131.421-50.835c1.896,1.165,3.621,2.329,5.174,3.493c36.649,27.51-11.341,63.425,0.905,119.865
						c12.719,58.855,56.958,22.119,69.03,76.058C554.67,236.497,427.951,303.846,359.135,258.228z"/>
					
						<linearGradient id="Tracé_8253_1_" gradientUnits="userSpaceOnUse" x1="189.6315" y1="253.5046" x2="190.2528" y2="253.5046" gradientTransform="matrix(386.5836 0 0 -483.5269 -73007.8359 122699.2266)">
						<stop  offset="0" style="stop-color:#FFFFFF"/>
						<stop  offset="0.085" style="stop-color:#F5F5F5"/>
						<stop  offset="0.229" style="stop-color:#DADADA"/>
						<stop  offset="0.413" style="stop-color:#AFAFAF"/>
						<stop  offset="0.631" style="stop-color:#747474"/>
						<stop  offset="0.876" style="stop-color:#292929"/>
						<stop  offset="1" style="stop-color:#000000"/>
					</linearGradient>
					<path id="Tracé_8253" class="st2" d="M359.135,258.225c-5.121-3.373-10.777-5.852-16.728-7.332
						c-5.846-1.511-11.856-2.293-17.894-2.329c-14.228-25.157-22.35-53.303-23.714-82.173c-0.129-2.976-0.216-5.993-0.216-9.009
						c0-96.883,74.291-176.39,169.02-184.67c36.648,27.51-11.341,63.425,0.905,119.865c12.719,58.855,56.958,22.119,69.03,76.058
						C554.671,236.497,427.951,303.846,359.135,258.225z"/>
					
						<linearGradient id="Tracé_8254_1_" gradientUnits="userSpaceOnUse" x1="190.0361" y1="253.3162" x2="190.6574" y2="253.3162" gradientTransform="matrix(445.3009 0 0 -202.0365 -84582.8594 51241.6641)">
						<stop  offset="0" style="stop-color:#FFFFFF"/>
						<stop  offset="0.085" style="stop-color:#F5F5F5"/>
						<stop  offset="0.229" style="stop-color:#DADADA"/>
						<stop  offset="0.413" style="stop-color:#AFAFAF"/>
						<stop  offset="0.631" style="stop-color:#747474"/>
						<stop  offset="0.876" style="stop-color:#292929"/>
						<stop  offset="1" style="stop-color:#000000"/>
					</linearGradient>
					<path id="Tracé_8254" class="st3" d="M317.053,44.067c-31.129,48.851-85.758,81.233-147.934,81.233
						c-48.931,0.07-95.642-20.408-128.747-56.44C77.324,7.071,157.176-23.369,195.594,20.395
						C241.254,72.352,291.011,67.608,317.053,44.067z"/>
				</g>
			</g>
			<g id="Groupe_3086" transform="translate(334.607 263.131)">
				<g id="Groupe_3085" transform="translate(0)">
					<g id="Groupe_3079" transform="translate(47.898 172.269)">
						<g id="Groupe_3078" transform="translate(38.427 224.434)">
							<path id="Tracé_8261" class="st4" d="M-130.2-289.316l1.573,6.231l-5.903,7.663l17.622-7.746l-3.155-3.394l-1.656-5.504
								L-130.2-289.316z"/>
							<path id="Tracé_8262" class="st5" d="M-118.961-285.743c-2.958,2.951-6.499,5.198-11.863,5.243l-7.474,9.047
								c-2.815,5.806,21.938-4.792,23.207-9.009C-114.942-282.662-116.449-285.58-118.961-285.743z"/>
						</g>
						<path id="Tracé_8263" class="st6" d="M-92.011-207.081c5.682,22.018,1.884,38.851-0.337,65.2l10.796,74.476l-10.704,3.47
							l-25.086-81.013c-2.05-13.015-11.362-43.299-3.571-51.738L-92.011-207.081z"/>
					</g>
					<g id="Groupe_3081" transform="translate(0 165.409)">
						<g id="Groupe_3080" transform="translate(0 220.784)">
							<path id="Tracé_8264" class="st4" d="M-93.052-287.562l-0.047,6.427l-7.642,5.929l19.005-3.059l-2.199-4.079l-0.217-5.744
								L-93.052-287.562z"/>
							<path id="Tracé_8265" class="st5" d="M-83.075-281.272c-3.604,2.113-7.6,3.393-12.799,2.085l-9.515,6.874
								c-4.185,4.909,22.438,0.887,24.729-2.875C-79.96-277.279-80.684-280.481-83.075-281.272z"/>
						</g>
						<path id="Tracé_8266" class="st7" d="M-57.436-204.484c-0.083,22.791-7.959,38.126-16.757,63.012l-8.295,74.828l-1.678,0.083
							l-8.885,0.587h-0.669l-3.94-84.713c0.755-7.375,0.67-20.615,2.095-31.925v-0.085c0.169-1.005,0.336-2.011,0.503-3.016
							c1.172-7.375,3.268-13.575,7.038-15.922L-57.436-204.484z"/>
					</g>
					<g id="Groupe_3082" transform="translate(14.365)">
						<path id="Tracé_8268" class="st4" d="M-88.098-108.468c1.502-1.611,1.558-7.109,1.807-12.084l9.294-1.205
							c0.037,4.648,0.357,8.93,1.562,12.06C-79.416-104.608-86.659-104.328-88.098-108.468z"/>
						<path id="Tracé_8269" class="st4" d="M-87.946-109.43c4.234-0.774,8.442-8.192,11.887-13.809l-16.286-17.766l-14.508,13.64
							C-104.627-119.407-92.314-109.68-87.946-109.43z"/>
						<path id="Tracé_8270" class="st8" d="M-78.255-120.257l-5.545-0.898l-2.908-5.953l-3.041-0.08l1.717,4.909l-1.297,0.916
							l-4.357-5.678l-9.13,10.842l-8.458-7.016l5.213-12.329l11.977-6.304c0,0,13.067,2.742,13.289,2.892
							c0.222,0.15,4.735,15.72,4.735,15.72L-78.255-120.257z"/>
					</g>
					<path id="Tracé_8271" class="st9" d="M-60.285-18.365l12.021,10.408l-1.498,1.205l-11.646-10.493L-60.285-18.365z"/>
					<path id="Tracé_8272" class="st9" d="M-90.953-22.567l-4.609,5.278c0.169-1.005,0.337-2.011,0.503-3.016l3.017-3.352
						L-90.953-22.567z"/>
					<path id="Tracé_8275" class="st8" d="M-74.961-121.365l1.832,7.483l-4.761,2.763l2.517,3.033l3.176-0.284l1.976-3.794
						l-3.443-10.117L-74.961-121.365z"/>
					<path id="Union_4" class="st10" d="M-57.855-15.194l4-10.731c-14.688-0.228-28.349-1.564-38.705-6.47l1.256,11.308
						c-0.315-1.727-1.471-0.215-2.525,1.297c-0.966,1.386-1.847,2.772-1.916,1.664l-8.883-39.971l13.306-41.473
						c0.308-1.278,0.687-2.537,1.133-3.773c0.055-0.102,0.112-0.201,0.174-0.301l0.299-0.939c0.653-0.674,1.42-1.226,2.265-1.633
						c9.114-6.292,34.063-6.176,46.024-1.016c2.081-1.135,4.129-0.857,5.518,1.864c6.918,17.447,12.88,37.346,12.581,44.428
						c0.119,1.049-0.026,2.111-0.423,3.09l-17.223,28.406l-0.262,3.5c-0.63,0.009-1.259,0.016-1.887,0.023l-9.369,15.334
						L-57.855-15.194z M-92.761-34.213c0.035-0.068,0.071-0.139,0.105-0.208c-0.041,0.009-0.083,0.013-0.124,0.013L-92.761-34.213z"
						/>
				</g>
			</g>
		</g>
		<g id="Groupe_3096" transform="translate(1281.579 547.225)">
			<g id="Groupe_3089" transform="translate(0 106.955)">
				<g id="Groupe_3088">
					<g id="Groupe_3087">
						<path id="Tracé_8276" class="st5" d="M55.536-168.52c2.027-0.393,3.357-2.349,2.976-4.379l-0.899-4.886
							c-0.347-1.998-2.247-3.337-4.245-2.99c-0.026,0.005-0.052,0.009-0.078,0.014l-4.154,0.73c-0.553-1.12-1.231-2.175-2.021-3.143
							l2.302-3.369l0.111-0.111c1.178-1.692,0.778-4.017-0.897-5.219l-4.101-2.807c-1.713-1.14-4.021-0.718-5.219,0.954
							l-2.413,3.424c-1.19-0.361-2.412-0.605-3.649-0.73l-0.73-4.211c-0.4-2.023-2.351-3.348-4.379-2.976l-4.83,0.898
							c-2.002,0.315-3.37,2.194-3.054,4.197c0.007,0.042,0.014,0.085,0.022,0.127l0.73,4.154c-1.113,0.568-2.165,1.245-3.143,2.022
							l-3.479-2.415c-1.686-1.164-3.995-0.74-5.159,0.945c-0.002,0.003-0.004,0.006-0.007,0.01l-2.808,4.042
							c-1.182,1.678-0.781,3.997,0.897,5.179c0.019,0.014,0.038,0.027,0.058,0.04l3.424,2.415c-0.348,1.197-0.61,2.416-0.786,3.65
							l-4.154,0.73c-2.033,0.393-3.38,2.338-3.032,4.379l0.898,4.884c0.373,2.015,2.308,3.347,4.323,2.976l4.155-0.73
							c0.608,1.089,1.283,2.139,2.021,3.145l-2.361,3.424c0,0.057,0,0.057-0.056,0.112c-1.143,1.675-0.716,3.96,0.955,5.109
							l4.101,2.863c1.685,1.163,3.995,0.74,5.158-0.945c0.002-0.003,0.005-0.007,0.007-0.01l2.414-3.479
							c1.188,0.393,2.41,0.675,3.65,0.843l0.73,4.101c0.371,2.046,2.329,3.403,4.375,3.033c0.002,0,0.003-0.001,0.005-0.001
							l4.884-0.843c2.027-0.393,3.357-2.349,2.976-4.379l-0.729-4.154c1.12-0.554,2.175-1.232,3.144-2.021l3.479,2.413
							c1.709,1.159,4.031,0.735,5.219-0.953l2.807-4.101c1.158-1.709,0.733-4.031-0.955-5.219l-3.479-2.357
							c0.392-1.188,0.674-2.41,0.843-3.65L55.536-168.52z M33.471-154.99c-6.052,1.135-12.201-1.422-15.664-6.513
							c-1.271-1.815-2.133-3.884-2.528-6.064c-1.565-8.506,4.062-16.671,12.569-18.236c8.506-1.565,16.671,4.062,18.236,12.569
							c1.565,8.506-4.062,16.671-12.569,18.236C33.5-154.996,33.485-154.993,33.471-154.99L33.471-154.99z"/>
						<path id="Tracé_8277" class="st11" d="M46.104-173.125c-0.942-5.182-4.421-9.546-9.264-11.619
							c-7.936-3.405-17.129,0.268-20.534,8.203c-3.405,7.936,0.268,17.129,8.203,20.534c2.822,1.211,5.938,1.564,8.959,1.015
							C41.958-156.52,47.609-164.631,46.104-173.125z M32.46-160.604c-4.81,0.917-9.566-1.831-11.173-6.456
							c-0.158-0.498-0.289-1.004-0.393-1.516c-1.004-5.407,2.566-10.605,7.973-11.609c0.019-0.003,0.037-0.007,0.056-0.01
							c0.649-0.11,1.306-0.166,1.965-0.169c4.742,0.153,8.737,3.588,9.601,8.253C41.443-166.719,37.852-161.571,32.46-160.604
							L32.46-160.604z"/>
					</g>
				</g>
			</g>
			<g id="Groupe_3092" transform="translate(121.295 151.896)">
				<g id="Groupe_3091">
					<g id="Groupe_3090">
						<path id="Tracé_8278" class="st5" d="M20.185-179.525c2.425-0.463,4.026-2.789,3.593-5.219l-1.067-5.895
							c-0.417-2.407-2.707-4.02-5.114-3.602c-0.017,0.003-0.035,0.006-0.052,0.009l-4.323,0.786l-0.674,0.112
							c-0.692-1.336-1.52-2.597-2.471-3.762l2.92-4.211c1.402-2.033,0.901-4.817-1.122-6.233l-4.884-3.368
							c-2.051-1.407-4.852-0.906-6.289,1.124l-2.863,4.101c-1.451-0.423-2.935-0.724-4.436-0.898l-0.897-4.997
							c-0.413-2.43-2.717-4.066-5.147-3.653c-0.007,0.001-0.013,0.002-0.02,0.003l-5.841,1.066c-2.449,0.434-4.082,2.77-3.651,5.219
							l0.898,4.998c-1.337,0.698-2.613,1.505-3.817,2.413l-4.155-2.863c-2.033-1.402-4.816-0.9-6.231,1.124l-3.369,4.884
							c-0.635,0.897-0.915,1.997-0.786,3.089c0.121,1.285,0.825,2.443,1.909,3.143l0.505,0.337l3.649,2.582
							c-0.112,0.394-0.223,0.786-0.336,1.181c-0.298,1.047-0.505,2.117-0.618,3.199l-4.998,0.898
							c-2.433,0.449-4.042,2.785-3.593,5.218c0,0,0,0.001,0,0.001l1.067,5.841c0.411,2.429,2.713,4.065,5.142,3.654
							c0.008-0.001,0.015-0.003,0.023-0.004l4.997-0.898c0.705,1.315,1.512,2.573,2.413,3.762l-2.863,4.154
							c-1.411,2.028-0.912,4.816,1.116,6.227c0.003,0.002,0.005,0.003,0.007,0.005l4.884,3.424c2.034,1.403,4.818,0.901,6.234-1.123
							l2.92-4.156c1.424,0.463,2.891,0.783,4.379,0.955l0.897,4.997c0.459,2.446,2.815,4.056,5.26,3.596
							c0.006-0.001,0.011-0.002,0.017-0.003l5.783-1.01c2.462-0.446,4.097-2.803,3.651-5.265c-0.001-0.004-0.002-0.009-0.002-0.013
							l-0.897-4.94c1.328-0.705,2.587-1.532,3.76-2.471l4.156,2.92c2.053,1.396,4.846,0.897,6.288-1.124l3.424-4.94
							c1.402-2.032,0.901-4.816-1.122-6.231l-4.21-2.863c0.451-1.427,0.77-2.893,0.953-4.379L20.185-179.525z M-6.317-163.243
							c-10.216,1.846-19.993-4.939-21.839-15.155c0-0.002-0.001-0.004-0.001-0.006c-0.336-1.796-0.393-3.632-0.168-5.445
							c1.153-10.307,10.442-17.727,20.749-16.574c7.499,0.839,13.767,6.084,15.914,13.317c0.22,0.66,0.389,1.336,0.505,2.022
							c1.847,10.215-4.937,19.993-15.152,21.839C-6.312-163.244-6.314-163.243-6.317-163.243z"/>
						<path id="Tracé_8279" class="st11" d="M8.84-185.086c-0.116-0.686-0.285-1.362-0.505-2.022
							c-2.951-9.942-13.402-15.61-23.344-12.659c-7.235,2.147-12.481,8.417-13.319,15.916c-0.225,1.813-0.168,3.65,0.168,5.445
							c1.845,10.217,11.623,17.005,21.84,15.16C3.897-165.09,10.685-174.868,8.84-185.086L8.84-185.086z M-7.554-169.983
							c-6.475,1.158-12.669-3.13-13.865-9.598c-0.064-0.446-0.101-0.896-0.111-1.347c-0.498-6.565,4.42-12.291,10.986-12.789
							c6.131-0.465,11.61,3.809,12.651,9.869c0.075,0.351,0.093,0.711,0.056,1.067c0.605,6.15-3.628,11.729-9.715,12.801
							L-7.554-169.983z"/>
					</g>
				</g>
			</g>
			<g id="Groupe_3095" transform="translate(67.291)">
				<g id="Groupe_3094">
					<g id="Groupe_3093">
						<path id="Tracé_8280" class="st5" d="M56.357-113.188c3.047-0.555,5.077-3.461,4.548-6.513l-1.348-7.299
							c-0.545-3.03-3.443-5.044-6.473-4.499c-0.014,0.003-0.028,0.005-0.042,0.008l-6.233,1.122
							c-0.357-0.742-0.769-1.455-1.235-2.134c-0.553-0.892-1.153-1.754-1.797-2.582l3.65-5.219c1.742-2.567,1.12-6.055-1.404-7.86
							l-6.119-4.154c-2.546-1.752-6.029-1.126-7.805,1.404l-3.65,5.166c-1.772-0.571-3.596-0.967-5.445-1.181l-1.181-6.231
							c-0.534-3.035-3.419-5.067-6.456-4.548l-7.299,1.347c-3.047,0.531-5.086,3.432-4.554,6.478
							c0.002,0.012,0.004,0.023,0.006,0.035l1.123,6.233c-1.652,0.859-3.229,1.854-4.715,2.976l-5.219-3.538
							c-2.529-1.746-5.994-1.118-7.749,1.405l-4.211,6.063c-1.776,2.495-1.193,5.958,1.302,7.734
							c0.034,0.024,0.067,0.047,0.101,0.07l5.166,3.651c-0.566,1.773-0.961,3.597-1.181,5.445l-6.233,1.122
							c-3.033,0.576-5.052,3.467-4.548,6.513l1.348,7.357c0.568,3.032,3.477,5.037,6.513,4.49l6.231-1.122
							c0.871,1.645,1.866,3.221,2.976,4.715l-3.537,5.166c-1.778,2.489-1.201,5.947,1.287,7.724
							c0.038,0.027,0.077,0.054,0.116,0.081l6.064,4.267c2.547,1.745,6.024,1.119,7.803-1.404l3.593-5.219
							c1.791,0.582,3.633,0.996,5.501,1.235l1.124,6.177c0.495,3.02,3.344,5.068,6.364,4.573c0.05-0.008,0.099-0.017,0.149-0.026
							l4.043-0.73l3.256-0.559c3.053-0.575,5.064-3.515,4.492-6.569l-1.123-6.175c1.669-0.852,3.248-1.868,4.717-3.032l5.219,3.593
							c2.549,1.74,6.022,1.116,7.804-1.404l4.267-6.121c1.742-2.567,1.12-6.055-1.404-7.86l-5.219-3.537
							c0.565-1.793,0.96-3.636,1.181-5.503L56.357-113.188z M23.286-92.808c-1.538,0.27-3.098,0.401-4.66,0.392
							c-12.968-0.286-23.249-11.03-22.964-23.998c0.286-12.968,11.03-23.249,23.998-22.964c7.313,0.161,14.133,3.72,18.448,9.626
							c2.134,2.842,3.558,6.153,4.154,9.656C44.537-107.324,36.05-95.121,23.286-92.808L23.286-92.808z"/>
						<path id="Tracé_8281" class="st11" d="M42.264-120.094c-0.596-3.504-2.02-6.814-4.154-9.656
							c-7.646-10.486-22.344-12.788-32.829-5.142c-10.486,7.646-12.788,22.344-5.142,32.829c4.32,5.925,11.159,9.493,18.49,9.648
							c1.562,0.009,3.122-0.122,4.66-0.392C36.051-95.12,44.537-107.323,42.264-120.094z M21.771-101.229
							c-1.184,0.223-2.393,0.28-3.592,0.169c-8.226-0.514-14.478-7.599-13.964-15.825c0.514-8.226,7.599-14.478,15.825-13.964
							c4.258,0.266,8.199,2.342,10.827,5.703c1.546,1.916,2.571,4.198,2.976,6.625C35.269-110.416,29.871-102.684,21.771-101.229
							L21.771-101.229z"/>
					</g>
				</g>
			</g>
			
				<linearGradient id="Tracé_8282_1_" gradientUnits="userSpaceOnUse" x1="142.2475" y1="-50.6938" x2="142.8689" y2="-50.6938" gradientTransform="matrix(76.3119 0 0 -72.0693 -10844.0205 -3711.3684)">
				<stop  offset="0" style="stop-color:#FFFFFF"/>
				<stop  offset="0.256" style="stop-color:#C1C1C1"/>
				<stop  offset="0.845" style="stop-color:#292929"/>
				<stop  offset="1" style="stop-color:#000000"/>
			</linearGradient>
			<path id="Tracé_8282" class="st12" d="M51.382-60.835c-0.168,1.24-0.45,2.462-0.843,3.65l3.479,2.357
				c1.688,1.188,2.113,3.51,0.955,5.219l-2.807,4.101c-1.189,1.688-3.511,2.112-5.219,0.953l-3.479-2.413
				c-0.969,0.789-2.024,1.467-3.145,2.021l0.729,4.154c0.38,2.03-0.949,3.986-2.976,4.379l-4.884,0.843
				c-2.045,0.373-4.005-0.982-4.378-3.028c0-0.002-0.001-0.003-0.001-0.005l-0.73-4.101c-1.24-0.168-2.462-0.45-3.65-0.843
				l-2.414,3.479c-1.158,1.689-3.467,2.12-5.156,0.961c-0.003-0.002-0.006-0.004-0.009-0.006l-4.101-2.863
				c-1.671-1.15-2.098-3.434-0.955-5.109c0.056-0.057,0.056-0.057,0.056-0.112c2.267-2.209,4.264-4.678,5.952-7.355
				c1.235-1.798,2.361-3.706,3.479-5.558c1.858,5.18,7.563,7.873,12.743,6.016c4.554-1.633,7.277-6.302,6.456-11.07
				c-0.864-4.665-4.86-8.099-9.601-8.253c1.788-1.709,3.789-3.18,5.952-4.379c4.039-2.302,8.421-3.257,12.577-1.798l-2.302,3.369
				c0.79,0.969,1.468,2.023,2.021,3.143l4.154-0.73c1.99-0.39,3.919,0.907,4.309,2.897c0.005,0.026,0.01,0.052,0.014,0.078
				l0.899,4.886c0.381,2.03-0.949,3.986-2.976,4.379L51.382-60.835z"/>
			
				<linearGradient id="Tracé_8283_1_" gradientUnits="userSpaceOnUse" x1="133.9559" y1="-36.7975" x2="134.5772" y2="-36.7975" gradientTransform="matrix(3.886 0 0 -5.6 -448.5059 -247.7566)">
				<stop  offset="0" style="stop-color:#FFFFFF"/>
				<stop  offset="0.256" style="stop-color:#C1C1C1"/>
				<stop  offset="0.845" style="stop-color:#292929"/>
				<stop  offset="1" style="stop-color:#000000"/>
			</linearGradient>
			<path id="Tracé_8283" class="st13" d="M73.954-40.285c-1.084-0.701-1.788-1.859-1.909-3.145c0.73,1.181,1.573,2.361,2.414,3.479
				L73.954-40.285z"/>
			
				<linearGradient id="Tracé_8284_1_" gradientUnits="userSpaceOnUse" x1="141.8494" y1="-50.4061" x2="142.4707" y2="-50.4061" gradientTransform="matrix(107.8577 0 0 -74.1671 -15221.416 -3757.8499)">
				<stop  offset="0" style="stop-color:#FFFFFF"/>
				<stop  offset="0.256" style="stop-color:#C1C1C1"/>
				<stop  offset="0.845" style="stop-color:#292929"/>
				<stop  offset="1" style="stop-color:#000000"/>
			</linearGradient>
			<path id="Tracé_8284" class="st14" d="M136.482-26.73c-0.183,1.486-0.502,2.952-0.953,4.379l4.21,2.863
				c2.023,1.416,2.525,4.199,1.122,6.231l-3.424,4.94c-1.442,2.021-4.235,2.52-6.288,1.124l-4.156-2.92
				c-1.174,0.939-2.432,1.767-3.76,2.471l0.897,4.94c0.453,2.461-1.175,4.823-3.636,5.276c-0.004,0.001-0.009,0.002-0.013,0.002
				l-5.783,1.01c-2.444,0.469-4.805-1.132-5.274-3.576c-0.001-0.006-0.002-0.011-0.003-0.017l-0.897-4.997
				c-1.488-0.172-2.955-0.492-4.379-0.955l-2.92,4.156c-1.417,2.023-4.2,2.524-6.233,1.122l-4.884-3.424
				c-2.031-1.407-2.536-4.194-1.129-6.225c0.002-0.002,0.003-0.005,0.005-0.007l2.863-4.154c-0.901-1.189-1.708-2.447-2.413-3.762
				l-4.997,0.898c-2.427,0.424-4.738-1.2-5.161-3.627c-0.001-0.008-0.003-0.015-0.004-0.023l-1.067-5.841
				c-0.449-2.433,1.159-4.77,3.592-5.219c0,0,0.001,0,0.001,0l4.998-0.898c0.113-1.082,0.32-2.153,0.618-3.199
				c1.676,1.622,3.542,3.036,5.558,4.211c2.137,1.247,4.418,2.228,6.794,2.92c0.01,0.451,0.047,0.901,0.111,1.347
				c1.194,6.471,7.392,10.761,13.869,9.601c6.085-1.073,10.317-6.651,9.712-12.799c1.355-0.679,2.651-1.468,3.875-2.361
				c0.82-0.592,1.59-1.249,2.302-1.966c2.014-1.787,3.671-3.94,4.884-6.344l4.323-0.786c2.402-0.446,4.71,1.14,5.156,3.541
				c0.003,0.017,0.006,0.034,0.009,0.052l1.067,5.895c0.433,2.43-1.168,4.757-3.593,5.219L136.482-26.73z"/>
			
				<linearGradient id="Tracé_8285_1_" gradientUnits="userSpaceOnUse" x1="141.6" y1="-51.2224" x2="142.2213" y2="-51.2224" gradientTransform="matrix(69.0817 0 0 -92.709 -9696.6094 -4852.4805)">
				<stop  offset="0" style="stop-color:#FFFFFF"/>
				<stop  offset="0.256" style="stop-color:#C1C1C1"/>
				<stop  offset="0.845" style="stop-color:#292929"/>
				<stop  offset="1" style="stop-color:#000000"/>
			</linearGradient>
			<path id="Tracé_8285" class="st15" d="M117.417-112.066c-0.22,1.867-0.616,3.71-1.181,5.503l5.219,3.537
				c2.523,1.805,3.146,5.293,1.404,7.86l-4.267,6.121c-1.782,2.519-5.255,3.144-7.804,1.404l-5.219-3.593
				c-1.468,1.164-3.048,2.18-4.717,3.032l1.123,6.175c0.572,3.054-1.438,5.994-4.492,6.569l-3.256,0.559
				c-4.372-4.935-7.254-11.009-8.31-17.517c-0.542-2.848-0.693-5.757-0.449-8.646c1.199,0.111,2.408,0.054,3.592-0.169
				c8.099-1.455,13.496-9.186,12.071-17.29c-0.406-2.428-1.431-4.71-2.976-6.625c1.65-1.393,3.438-2.616,5.334-3.65
				c0.618-0.336,1.291-0.674,1.909-0.953c2.395-1.157,4.896-2.078,7.468-2.753c0.465,0.679,0.878,1.392,1.235,2.134l6.233-1.122
				c3.026-0.567,5.938,1.426,6.505,4.452c0.003,0.013,0.005,0.027,0.007,0.04l1.348,7.299c0.529,3.051-1.501,5.958-4.548,6.513
				L117.417-112.066z"/>
		</g>
	</g>
	<g id="Groupe_3138" transform="translate(427 725.891)">
		<g id="Groupe_3127" transform="translate(20.206 58.279)">
			<path id="Tracé_8334" class="st16" d="M81.329,114.002H-71.143c0-13.001-10.54-23.541-23.541-23.541V27.525
				c13.001,0,23.541-10.54,23.541-23.541c0,0,0,0,0-0.001H81.329c0,13.001,10.539,23.541,23.54,23.541v62.937
				C91.868,90.461,81.329,101,81.329,114.002C81.329,114.002,81.329,114.002,81.329,114.002z"/>
		</g>
		<g id="Groupe_3128" transform="translate(183.866 58.279)">
			<path id="Tracé_8335" class="st17" d="M-82.331,3.983h-74.325v110.019h74.325c0-13.001,10.54-23.541,23.541-23.541V27.525
				C-71.792,27.525-82.331,16.985-82.331,3.983C-82.331,3.983-82.331,3.983-82.331,3.983z"/>
		</g>
		<g id="Groupe_3130" transform="translate(103.034 114.18)">
			<path id="Tracé_8336" class="st18" d="M-111.287,22.041l-14.761-39.225h11.468l9.644,28.287l9.703-28.287h11.467l-14.82,39.225
				L-111.287,22.041z"/>
			<path id="Tracé_8337" class="st18" d="M-80.881,22.041v-39.225h10.115v39.225H-80.881z"/>
			<g id="Groupe_3129" transform="translate(80.832)">
				<path id="Tracé_8338" class="st19" d="M-156.656,22.041v-39.225h5.058v39.225H-156.656z"/>
				<path id="Tracé_8339" class="st19" d="M-144.541,22.041v-39.225h19.642c8.823,0,13.643,5.939,13.643,13.055
					c0,7.057-4.822,12.997-13.643,12.997h-9.526v13.172L-144.541,22.041z M-121.547-4.128c0-2.705-1.999-4.234-4.704-4.234h-8.175
					v8.41h8.173C-123.547,0.047-121.547-1.482-121.547-4.128L-121.547-4.128z"/>
			</g>
		</g>
		<g id="Groupe_3133" transform="translate(30.182 114.605)">
			<g id="Groupe_3131">
				<path id="Tracé_8340" class="st9" d="M-77.42-17.345l6.502,13.172l14.539,2.113L-66.9,8.192l2.485,14.481l-13.005-6.835
					l-13.005,6.835l2.485-14.481L-98.459-2.06l14.539-2.113L-77.42-17.345z"/>
			</g>
			<g id="Groupe_3132" transform="translate(233.488)">
				<path id="Tracé_8341" class="st20" d="M-165.834-17.345l6.502,13.172l14.539,2.113l-10.521,10.252l2.485,14.481l-13.005-6.835
					l-13.005,6.835l2.485-14.481L-186.873-2.06l14.539-2.113L-165.834-17.345z"/>
			</g>
		</g>
	</g>
	<line id="Ligne_121" class="st21" x1="329.094" y1="800.785" x2="560.23" y2="898.335"/>
</g>
</svg>
