<svg xmlns="http://www.w3.org/2000/svg" xmlns:xlink="http://www.w3.org/1999/xlink" width="864.907" height="760.611" viewBox="0 0 864.907 760.611"><defs><style>.a{fill:#f1eff8;}.b,.j,.k,.l,.n,.p,.q,.r{opacity:0.5;mix-blend-mode:overlay;isolation:isolate;}.b{fill:url(#a);}.c,.f{opacity:0.1;}.d{fill:#fff;}.e{fill:#fbd783;}.g{fill:#e90566;}.h{fill:#fbf3f2;}.i{fill:#1b2c7b;}.j{fill:url(#b);}.k{fill:url(#c);}.l{fill:url(#d);}.m{fill:#022539;}.n{fill:url(#e);}.o{fill:#ee3b38;}.p{fill:url(#f);}.q{fill:url(#g);}.r{fill:url(#h);}.s{fill:#052b80;}.t{fill:#f23c2c;}</style><linearGradient id="a" x1="0.316" y1="0.052" x2="0.834" y2="1.657" gradientUnits="objectBoundingBox"><stop offset="0" stop-color="#fff"/><stop offset="0.085" stop-color="#f5f5f5"/><stop offset="0.229" stop-color="#dadada"/><stop offset="0.413" stop-color="#afafaf"/><stop offset="0.631" stop-color="#747474"/><stop offset="0.876" stop-color="#292929"/><stop offset="1"/></linearGradient><linearGradient id="b" x1="-18.559" y1="72.494" x2="-17.027" y2="72.494" gradientUnits="objectBoundingBox"><stop offset="0" stop-color="#fff"/><stop offset="1"/></linearGradient><linearGradient id="c" x1="0.422" y1="0.278" x2="0.662" y2="0.822" gradientUnits="objectBoundingBox"><stop offset="0" stop-color="#fff"/><stop offset="0.178" stop-color="#cdcdcd"/><stop offset="0.587" stop-color="#5f5f5f"/><stop offset="0.869" stop-color="#1a1a1a"/><stop offset="1"/></linearGradient><linearGradient id="d" x1="0.382" y1="0.064" x2="0.83" y2="1.062" xlink:href="#c"/><linearGradient id="e" x1="0" y1="0.5" x2="1" y2="0.5" xlink:href="#c"/><linearGradient id="f" x1="0" y1="0.5" x2="1" y2="0.5" xlink:href="#c"/><linearGradient id="g" x1="180.264" y1="0.5" x2="181.264" y2="0.5" gradientUnits="objectBoundingBox"><stop offset="0" stop-color="#fff"/><stop offset="0.256" stop-color="#c1c1c1"/><stop offset="0.845" stop-color="#292929"/><stop offset="1"/></linearGradient><linearGradient id="h" x1="2298.886" y1="0.5" x2="2299.887" y2="0.5" xlink:href="#g"/></defs><g transform="translate(-272.018 -290.16)"><path class="a" d="M328.486,434.862c78.321-54.1,50.545-34.76-99.464-62.286S359.456,239.441,571.577,246.3c471.31,15.348,439.993,118.077,304.269,143.172a333.191,333.191,0,0,1-53.334,5.459c-97.609,2.364-140.022-31.658-209.1,31.218C588.6,448.733,534.859,463.2,479.722,469.987" transform="translate(173.43 580.784)"/><path class="b" d="M287.177,437c-33.762-19.338-53.8-43.4-53.8-69.446,0-63.986,120.822-115.862,269.855-115.862,140.293,0,255.642,46.051,268.505,104.8A495.708,495.708,0,0,1,706.5,361.95c-119.4,2.364-171.283-31.658-255.786,31.218C420.367,415.75,354.623,430.217,287.177,437" transform="translate(257.971 613.767)"/><g class="c" transform="translate(502.364 341.301)"><path d="M454.185,352.353c14.5-2.587,27.931-5.242,34.969-16.093,8.956-13.872,13.933-24.946,16.418-33.873,3.052-11.291,2.2-18.965.215-24.058a18.853,18.853,0,0,0-3.985-6.346,16.732,16.732,0,0,0-10.371-5.019,17.185,17.185,0,0,0-3.914,0c1.141-2.289,2.277-4.721,3.34-7.159,4.057-1.917,6.966-4.646,8.46-8.412,7.038-17.786-24.167-42.874-58.921-59.042-2.2-.955-4.4-1.917-6.536-2.872-37.31-15.87-80.948-22.589-88.41-3.691-1.494,3.759-1.279,7.823.28,12.029-.92,2.581-1.7,5.161-2.485,7.6a17.58,17.58,0,0,0-13.574-6.787c-7.038,0-24.023,5.019-33.4,49.3-.359,1.775-.711,3.691-1.07,5.608-2.342,12.618,5.192,24.207,13.509,36.386.209.291.424.589.639.955a5.209,5.209,0,0,1,.5.738c5.186,7.457,10.306,14.908,13.789,22.954.568,1.4,1.135,2.729,1.559,4.057v.074a1.757,1.757,0,0,0-.209.738,42.5,42.5,0,0,0-2.492,14.319,46.638,46.638,0,0,0,7.964,25.386,50.413,50.413,0,0,1-.359,17.488c-3.483,19.412-15.348,42.36-30.064,49.742-9.732-2.655-16.842-3.542-19.614-2.364-.639.3-1.135.6-1.279,1.036-1.918,4.8,20.325,18.742,49.534,31.218,1.637.664,3.274,1.327,4.833,1.991,27.011,11.067,49.469,16.384,51.53,12.1,9.6,3.393,23.593,3.834,30.416,3.691h.5c-3.268,37.93-4.834,72.914-.352,97.047l-.5.075a235.16,235.16,0,0,0-11.3,60.071c30.775-5.608,64.961-32.471,93.674-70.7,2.27-19.71,3.052-46.051,1.207-76.239-.711-11.806-1.918-24.207-3.627-37.117h-.137c-3.627-3.915-13.293-6.644-22.53-9.083a35.913,35.913,0,0,1,.065-9.151l5.9.074a91.48,91.48,0,0,0,17.84-21.918,58.871,58.871,0,0,0-1.852-19.114,62.622,62.622,0,0,0-20.964-13.58,21.385,21.385,0,0,0-14.924,6.13c-3.124,2.506-4.69,6.712-5.186,12.178a14.4,14.4,0,0,0,.776,2.8,83.688,83.688,0,0,0-4.259,12.984c-.215-13.8.639-30.771.783-47.893l-1.781-.149a15.443,15.443,0,0,0,5.4-7.9ZM334,257.961c-1.278,17.2-1.415,32.471-4.97,47.67a183.935,183.935,0,0,0-11.943-19.182c-8.1-11.663-15.068-21.7-13.359-31.218.352-1.626.639-3.251.992-4.728,6.47-31.434,17.416-42.8,25.093-42.949,4.4,0,8.245,4.057,10.091,10.187A250.676,250.676,0,0,0,334,257.961Zm35.328,198a36.266,36.266,0,0,1-1.494-7.085,79.117,79.117,0,0,0,4.051,8.636C371.032,457,370.249,456.477,369.33,455.962Zm88.123-27.818a26.624,26.624,0,0,1-1.846,4.721,9.756,9.756,0,0,1-3.627-2.587c-.352-1.253-.568-2.655-.848-4.057A22.433,22.433,0,0,0,457.453,428.145ZM438.478,359.58c-7.39,33.283-12.009,64.5-8.03,80.811a.58.58,0,0,0,.144.373c-13.933,1.991-33.834,8.263-38.733,5.825-5.688-6.123-11.871-17.854-18.551-31.583a89.3,89.3,0,0,1,5.544-11.806c4.4-7.9,9.667-14.393,15.068-17.861a55.072,55.072,0,0,0,6.751-2.14,39.854,39.854,0,0,0,22.954-22.507.1.1,0,0,0,.144,0c.854-.447,1.7-.738,2.557-1.111a87.813,87.813,0,0,1,8.741-3.1,16.472,16.472,0,0,0,4.409,3.17Zm15.14-16.974a40.3,40.3,0,0,0-8.884,2.364,129.275,129.275,0,0,0-14.924,3.691c13.359-22.88,33.475-38.526,51.739-70.482,3.979-2.215,7.958-2.879,11.089-1.768a.257.257,0,0,0,.215.075,7.935,7.935,0,0,1,2.766,1.842c5.192,5.385,5.407,20.292-8.949,45.238-1.422,2.513-2.988,5.019-4.69,7.674-4.905,7.532-15.57,9.821-28.146,12.029Z" transform="translate(7.702 -174.308)"/><path d="M439.537,440.731a5.521,5.521,0,0,1-7.39-3.028l-9.667-22.954c.072,1.328.072,2.513.072,3.766a57.29,57.29,0,0,1-1.565,15.5c-2.485,7.457-37.239,19.629-56.22,25.162.072.813.072,1.7.144,2.513.215,3.983.43,7.972.639,11.88-23.665,8.487-48.9,22.216-75.971,41.845h-.072c-1,.738-1.918,1.4-2.916,2.14-2.061,1.477-4.122,2.953-6.184,4.206-.783-44.5-5.753-83.839,5.76-96.9l-.43-1.327.568-.447,23.1-20.144a5.981,5.981,0,0,0-1.213-1.626c-13.006-12.47-11.082-29.077-2.27-36.6,1.774-1.253,4.051-3.251,6.464-5.168l-12.367-38C291,324.422,284.1,306.926,289.714,310.4c6.542,3.983.43-11.955,3.059-12.476,4.833-2.066,10.658.373,13.717,3.326l4.266,14.535a8.388,8.388,0,0,1-.854.887l.926-.447c8.525,13.431,16.555,26.937,22.954,39.556,6.04,1.409,11.8.671,17.912-1.991a20.067,20.067,0,0,1-2.133,18.6,4.981,4.981,0,0,1-2.348,2.655c-.352,3.177-.991,6.57-1.7,9.963A54.57,54.57,0,0,1,347.643,398c-.143,3.834-7.182,10.919-16.346,18.525.137.738.352,1.551.568,2.29A105.122,105.122,0,0,1,358.3,425.3l40.65-5.087-2.061-66.567-3.268-7.9c-6.255-2.8-9.452-13.357-7.038-13.357a2.916,2.916,0,0,1,1.852,1.1L355.6,254.976c-.854,18-42.359,44.94-60.91,40.368-18.479-4.578-30.273,31.807-28.5,20.218,1.279-8.189-14.781-33.135-24.3-47.081-3.985-5.832-6.823-9.74-6.823-9.74s16.483-27.973,35.6-23.916c19.19,4.064,31.629-5.825,44.636-22.8a39.48,39.48,0,0,0,5.473-9.083c3.555-8.412-.215-11.508,8.454-19.114a4.5,4.5,0,0,1,2-1.619,4.841,4.841,0,0,1,2.27-.522,5.545,5.545,0,0,1,5.12,3.542l3.692,8.785,8.1,19.338,46.625,111.284c5.257-.515,9.38.6,11.513,4.8v15.2c1.565,5.534,3.059,11.074,4.41,16.533.424,1.4.783,2.879,1.135,4.281l28.355,67.6A5.877,5.877,0,0,1,439.537,440.731Z" transform="translate(-235.066 -131.693)"/></g><g transform="translate(762.736 306.713)"><g transform="translate(58.103 198.202)"><path class="d" d="M379.5,257.011,364.52,279.633l-7.11,10.681h-4.24c-9.08.156-30.566-.63-37.976-8.013-8.78-9.9-15.283-32.051-23.306-56.563-.45-1.409-.907-2.824-1.357-4.24,0-.156,0-.156-.15-.312-1.513-4.558-3.183-9.273-4.846-13.987l11.2-5.182c12.556,24.98,23.3,50.589,32.829,60.8C336.074,266.121,369.509,253.705,379.5,257.011Z" transform="translate(-274.809 -177.943)"/><path class="e" d="M295.654,227.274c-2.348-3.454-4.181-.61-9.693-7.329-3.653-5.8-1.513-12.72-.763-20.387.7-1.836,3.124-1.172,3.366.589l1.97,11.7c6.171,3.813,11.754,7.6,14.252,11.27Z" transform="translate(-283.891 -198.464)"/></g><path class="f" d="M359.141,259.415s-4.39,1.1-11.35,10.681c-9.08.156-30.566-.63-37.976-8.013-8.78-9.9-15.283-32.051-23.306-56.563,4.39,13.045,17.553,48.395,33.9,52.167A107.864,107.864,0,0,0,359.141,259.415Z" transform="translate(-211.327 40.476)"/><g transform="translate(0 0)"><path class="g" d="M497.721,258.032a17.187,17.187,0,0,0-14.239-5.005c1.115-2.3,2.263-4.694,3.346-7.173.287-.63.587-1.3.874-1.924,1.1-2.411,2.2-4.938,3.229-7.539a3.867,3.867,0,0,0,.287-.63l.378-1.009-.046-.02-4.514-.339-67.074-4.985-11.115-.833-3.829-3.4-4.592-4.077-51.113-45.462-3.451-3.034c-.019.047-.1.122-.072.183-.254.691-.561,1.368-.757,2.025l-.1.278c-1.22,3-2.264,5.92-3.242,8.805-.92,2.594-1.716,5.134-2.5,7.627a17.369,17.369,0,0,0-13.548-6.848c-7.064.061-24.076,5.06-33.4,49.316-.411,1.795-.757,3.671-1.122,5.588-2.3,12.679,5.257,24.255,13.561,36.392.378.63.77,1.212,1.135,1.734,5.127,7.417,10.286,14.894,13.744,22.961.568,1.341,1.135,2.682,1.6,4.037l-.033.088a3.419,3.419,0,0,0-.215.711c-5.434,15.6-1.226,29.159,5.486,39.7,3.848,19.818-10.835,57.416-30.422,67.251-11.839-3.244-19.842-3.928-20.873-1.328-1.878,4.748,20.293,18.674,49.534,31.164,29.281,12.5,54.518,18.775,56.4,14.021,1.031-2.6-5.172-7.965-15.753-14.3-7.436-21.695,8.186-60.024,24.591-70.611,11.7-2.8,23.45-9.652,29.7-24.6a.094.094,0,0,0,.124-.061c8.871-4.362,19.118-6.258,29.124-8.047,14.976-2.7,29.014-5.182,36.267-16.391C512.169,280.594,502.972,263.485,497.721,258.032ZM313.014,272.5c-8.088-11.63-15.035-21.688-13.307-31.2.3-1.626.587-3.211.946-4.707,6.477-31.482,17.409-42.847,25.093-42.929,4.455-.054,8.277,4.03,10.11,10.173a249.638,249.638,0,0,0-5.91,40.185c-1.252,17.231-1.441,32.457-4.964,47.717A181.7,181.7,0,0,0,313.014,272.5Zm164.923,44.8c-5.238,8-16.94,10.106-30.579,12.49a164.034,164.034,0,0,0-21.591,4.951c13.359-22.887,33.429-38.506,51.739-70.516,5.42-3.055,10.906-3.116,14.1.19C497.264,270.292,497.075,287.692,477.937,317.3Z" transform="translate(-274.967 -149.572)"/><path class="h" d="M27.755-.053C42.574-.247,54.111,35.085,53.523,78.862s-13.076,79.423-27.895,79.616S-.726,123.341-.139,79.563,12.937.14,27.755-.053Z" transform="matrix(0.38, -0.925, 0.925, 0.38, 59.933, 49.707)"/><g transform="translate(65.419 10.805)"><path class="i" d="M380.955,188.874c-2.179-.989-4.364-1.971-6.517-2.892-37.291-15.9-80.928-22.6-88.41-3.7-1.5,3.732-1.285,7.789.287,12.029,6.177,16.737,33.866,36.223,63.043,49,.711.285,1.357.6,2.068.887,29.835,12.781,63.839,19.622,80.029,12.07a15.75,15.75,0,0,0,8.427-8.351C446.953,230.123,415.754,205.035,380.955,188.874Zm-16.366,50.955c-3.222-1.2-6.5-2.52-9.856-3.928-1.709-.738-3.372-1.463-4.977-2.222-1.624-.7-3.183-1.443-4.7-2.161-35.739-17.177-53.683-37.232-51.113-45.462a.988.988,0,0,1,.078-.339c3.418-8.575,33.788-9.611,75.782,8.026.457.135.887.359,1.37.555,42.692,18.234,64.126,41.5,60.675,50.162a1.064,1.064,0,0,1-.183.352C427.828,252.481,401.528,253.673,364.589,239.829Z" transform="translate(-285.012 -170.797)"/></g><path class="j" d="M294.417,212.533c-3.438-8.046-8.6-15.551-13.724-22.934-.385-.542-.789-1.145-1.154-1.734A36.255,36.255,0,0,1,283,190.628C289.081,196.277,292.088,204.243,294.417,212.533Z" transform="translate(-249.827 -61.456)"/><ellipse class="h" cx="39.147" cy="40.649" rx="39.147" ry="40.649" transform="translate(69.19 105.157)"/><path class="k" d="M497.718,198.793a17.2,17.2,0,0,0-14.233-5.026c1.428-2.919,2.851-5.94,4.233-9.076a23.867,23.867,0,0,0-3.3-.833c-19.751-3.983-41.772,4.186-53.507,21.417-7.1,10.383-10.41,22.954-15.472,34.584A119.027,119.027,0,0,1,388.754,278.3c-8.388,8.067-18.9,15.131-30.324,14.5-9.282-.467-17.86-6.082-23.75-13.607-5.91-7.484-9.393-16.7-11.963-26q-.93-3.4-1.807-6.929c-5.427,15.585-1.22,29.118,5.479,39.7,3.875,19.832-10.808,57.423-30.409,67.244-11.819-3.231-19.856-3.935-20.886-1.321-1.879,4.734,20.319,18.687,49.573,31.164s54.485,18.748,56.357,14.007c1.031-2.608-5.166-7.972-15.72-14.285-7.455-21.695,8.167-60.031,24.585-70.638,11.715-2.784,23.43-9.625,29.718-24.594a.082.082,0,0,0,.111-.047c8.858-4.389,19.112-6.265,29.1-8.06,14.983-2.675,29.027-5.182,36.267-16.412C512.192,221.328,503.008,204.246,497.718,198.793Zm-19.751,59.238c-5.244,8.019-16.966,10.133-30.6,12.524a162.068,162.068,0,0,0-21.571,4.931c13.372-22.88,33.436-38.519,51.739-70.509,5.427-3.034,10.886-3.136,14.083.183C497.28,211.06,497.072,228.433,477.966,258.032Z" transform="translate(-274.983 -90.32)"/><path class="l" d="M376.08,302.515a32.078,32.078,0,0,1-32.314,7.03,7.934,7.934,0,0,1-3.6-2.093,10.616,10.616,0,0,1-1.852-4.45c-.946-3.881-1.891-7.755-2.883-11.65-.372-1.585-.776-3.231-1.2-4.829-3.294-12.449-7.893-25.1-18.3-31.746a3.224,3.224,0,0,0-.587-.339,249.634,249.634,0,0,1,5.91-40.185c-1.833-6.143-5.655-10.227-10.11-10.173-7.684.081-18.616,11.447-25.093,42.929a39.294,39.294,0,0,1-7.971-2.418l-.444-.183c9.328-44.256,26.339-49.255,33.4-49.316a17.369,17.369,0,0,1,13.548,6.848c.783-2.493,1.579-5.033,2.5-7.627-1.572-4.24-1.787-8.3-.287-12.029,7.482-18.9,51.119-12.2,88.41,3.7,2.153.921,4.338,1.9,6.517,2.892-1.892.826-3.836,1.524-5.753,2.289a42.581,42.581,0,0,0-5.4,2.581,9.832,9.832,0,0,0-1.344.732c-10.906,6.665-16.385,20.069-18.127,33.033-.261,2.066-.463,4.1-.574,6.17a11.978,11.978,0,0,0-.111,1.917,27.224,27.224,0,0,0-.163,2.9c-.091,1.605-.137,3.231-.124,4.822-.131,7.837.15,15.68-.385,23.517-.1,1.49-.248,2.967-.391,4.443C388,282.913,384.337,294.617,376.08,302.515Z" transform="translate(-260.358 -159.992)"/></g><ellipse class="f" cx="24.775" cy="3.319" rx="24.775" ry="3.319" transform="translate(191.167 647.628)"/><g transform="translate(110.484 402.627)"><path class="e" d="M299.267,262.318c1.011,4.68-1,9.53-4.207,14.447,7.827,3.752,15.714,2.763,23.665-3.448-3.385-3.3-4.657-8.006-4.99-13.343Z" transform="translate(-274.585 -47.783)"/><path class="i" d="M303.366,444.765a24.046,24.046,0,0,0,20.756,0c1.781-33.216.952-75.711,3.274-105.94,5.218-29.24,25.556-72.162,25.556-110.18L305.936,233.7c-13.372,39.793-13.013,80.567-10.639,110.478Z" transform="translate(-280.334 -228.646)"/><path class="i" d="M312.4,265.392c-9.98,5.92-25.106,12.476-19.112,16.432,16.77-.576,32.49-2.655,45.888-8.026,2.035-4.68.052-11.718-3.112-11.853C329.147,265.8,321.15,266.638,312.4,265.392Z" transform="translate(-291.921 -36.41)"/></g><g transform="translate(164.607 394.946)"><path class="e" d="M307.923,264.726c1.859,4.247.868,9.272-1.239,14.6,8.167,1.958,15.472-.616,21.845-8.155-3.849-2.438-5.962-6.651-7.3-11.664Z" transform="translate(-264.511 -42.775)"/><path class="i" d="M341.08,449.592a24.191,24.191,0,0,0,20.319-4.409c-4.8-32.891-13.985-74.315-17.664-104.4-.652-29.721,10.8-76.056,3.314-113.268l-45.027,14.921c-5.251,41.8,1.84,83.046,10.052,111.826Z" transform="translate(-300.218 -227.512)"/><path class="i" d="M320.868,269.414c-8.349,7.688-21.48,17.041-15.028,19.568,15.844-4,30.39-9.225,42.1-17.1,1.037-4.87-2.192-11.149-5.225-10.627C336.875,266.346,329.433,268.8,320.868,269.414Z" transform="translate(-278.696 -32.859)"/></g><path class="d" d="M377.765,346.124a62.412,62.412,0,0,1-15.433,4.247c-13.169,2.039-28,.467-43.579-2.831-6.51-1.253-13.313-2.987-20.123-4.87-6.2-30.479-2.12-79.5,2.877-129.775,3.933-.63,8.166-1.26,12.556-1.571h.3c22.85-2.357,48.876-1.727,63.4,5.5,1.663,12.883,2.87,25.291,3.627,37.076C383.818,293.178,381.7,325.858,377.765,346.124Z" transform="translate(-161.71 66.887)"/><path class="e" d="M302.248,223.326c5.962-1.727,6.327-6.773,9.634-16.005l14.018.359c-2.061,8.934-2.12,15.05-.143,21.613C323.128,242.758,294.812,236.615,302.248,223.326Z" transform="translate(-131.253 50.868)"/><path class="e" d="M300.891,241.7c.261,6.76,16.17,7.105,25.843,6.719l18.1-30.866-31.016-16.113C305.248,215.9,301.087,229.282,300.891,241.7Z" transform="translate(-131.898 16.898)"/><path class="m" d="M301.7,218.667c1.389,9.706,10.43,11.7,16.255,10.959s-1.6,9.591-5.12,10.641l2.107,2.357,5.916-4.118c2.3.8,3.248,2.486.992,6.265l-6.275,3.285a8.459,8.459,0,0,0,.117,6.793l11.069.115a91.891,91.891,0,0,0,17.866-21.911,59.105,59.105,0,0,0-1.866-19.128,63.52,63.52,0,0,0-20.977-13.587,21.2,21.2,0,0,0-14.911,6.157C303.736,208.988,302.171,213.215,301.7,218.667Z" transform="translate(-127.425 10.559)"/><g transform="translate(149.948 196.099)"><path class="d" d="M364.007,285.765c-7.241-7.9-38.928-10.851-43.037-16.94-3.835-13.675-1.663-41.493-1.429-69.683l-12.074-.989c-7.371,33.277-12.008,64.5-8.043,80.811,4.09,12.916,38.654,31.8,38.654,31.8Z" transform="translate(-297.971 -198.154)"/></g><path class="e" d="M313.06,213.463a15.685,15.685,0,0,0,5.348-7.837c.874-3.664.972-7.078-.554-9.977,0,0-9.582,1.28-11.063,4.118a31.3,31.3,0,0,0-2.263,7.478l-5.694,1.768c1.1,1.565,3.483,2.926,5,3.7Z" transform="translate(-143.258 -16.517)"/><path class="f" d="M362.555,345.88a62.412,62.412,0,0,1-15.433,4.247c6.5-63.16-8.93-96.945-8.93-96.945s-27.389-23.882-39.339-42.1a3.279,3.279,0,0,1-.606-.941,2.577,2.577,0,0,1,.907.941c5.753,5.656,29.959,29.064,54.772,37.077a50.288,50.288,0,0,1,12.256,5.5C368.609,292.934,366.489,325.614,362.555,345.88Z" transform="translate(-146.5 67.131)"/><path class="f" d="M286.3,204.9c.3.786.757,2.2,1.357,4.24C287.208,207.726,286.751,206.311,286.3,204.9Z" transform="translate(-212.476 36.862)"/></g><g transform="translate(272.018 557.201)"><path class="n" d="M199.752,206.184c3.627.149,7.325.373,11.017.589v31.292a13.852,13.852,0,0,0-3.124-.366,17.008,17.008,0,0,0-7.821,2.066,4.352,4.352,0,0,1-.072-.962Z" transform="translate(-199.752 -206.184)"/></g><g transform="translate(475.993 367.538)"><g transform="translate(50.676 115.45)"><g transform="translate(0 19.066)"><path class="o" d="M300.739,279.849c-.4,9.381-42.874,39.027-54.642,45.909L242.216,315.5l-3.424-10.153,37-32.125-22.68-69.866,10.815-5.317c12.8,20.164,24.487,40.544,31.166,57.9l.02.088C298.469,264.934,300.524,272.981,300.739,279.849Z" transform="translate(-238.792 -198.042)"/></g><path class="e" d="M262.138,213.839,257.905,199.3c-3.072-2.946-8.858-5.365-13.731-3.3-2.59.488,3.5,16.452-3.059,12.442-5.6-3.427,1.259,14.014,10.339,11.169S262.138,213.839,262.138,213.839Z" transform="translate(-237.13 -195.227)"/></g><ellipse class="f" cx="28.05" cy="4.514" rx="28.05" ry="4.514" transform="translate(6.535 619.202)"/><g transform="translate(77.224 361.12)"><path class="e" d="M266.394,273.556a14.356,14.356,0,0,0,.62,8.04c1.6,4.673-21.754,6.286-21.754,6.286a17.8,17.8,0,0,1,2.446-12.239c3.777-5.777,3.777-9.936,3.777-9.936Z" transform="translate(-230.884 -34.008)"/><path class="d" d="M242.862,235.921c3.842,60.105,23.717,82.437,23.717,105.689S258.791,466.2,258.791,466.2c2.9,3.807,18.57,6.346,23.952,4,11.311-56.854,21.988-122.3,21.506-141.682-.626-21.843-4.814-59.889-17.2-97.026Z" transform="translate(-242.862 -231.498)"/><path class="i" d="M247.219,270.319c-3.183,5.744-3.7,11.095-1.455,16.025,18.14.251,35.8.935,52.724.1,0-6.76-17.272-15.734-26.907-18.477A27.449,27.449,0,0,1,247.219,270.319Z" transform="translate(-234.441 -20.943)"/></g><g transform="translate(10.627 353.764)"><path class="e" d="M257.022,274.75a14.324,14.324,0,0,0-.972,8c.652,4.918-22.53,1.551-22.53,1.551a17.615,17.615,0,0,1,4.8-11.467c4.833-4.856,5.649-8.927,5.649-8.927Z" transform="translate(-227.86 -37.044)"/><path class="d" d="M263.958,230.412c-8.043,59.659,7.025,85.728,2.459,108.493s-32.086,120.319-32.086,120.319c2.081,4.348,16.933,10.153,22.66,8.995,22.236-53.265,45.542-115.07,48.876-134.15,3.679-21.519,7.051-59.652,2.211-98.632Z" transform="translate(-223.381 -230.412)"/><path class="i" d="M237.634,266.216c-4.246,4.951-5.805,10.078-4.573,15.382,17.709,4.084,34.871,8.5,51.6,11.271,1.331-6.617-13.815-19.06-22.712-23.794A27.419,27.419,0,0,1,237.634,266.216Z" transform="translate(-232.652 -23.708)"/></g><path class="o" d="M322,360.467c-5.407,3.163-14.82,4.978-25.445,5.7-22.484,1.449-50.461-2.438-57.955-10.316,4.442-60.81-9.152-123.611,8.277-137.638,14.383-7.959,51.589-6.6,73.114,3.353a14.068,14.068,0,0,1,2.009.9c.522,7.877,1.043,15.66,1.389,23.259.267,3.8.437,7.417.613,11.128C326.184,298.113,326.706,335.582,322,360.467Z" transform="translate(-194.136 23.127)"/><path class="e" d="M242.849,228.951c3.092-5.432,3.705-11.562,3.972-18.5h14.213c-.215,6.773-.065,13.635,1.931,20.584C261.491,233.923,244.245,232.778,242.849,228.951Z" transform="translate(-165.71 8.091)"/><path class="e" d="M243.058,244.708c8.519,3.976,17.1,8.094,22.321,4.423,5.916-6.943,11.4-28.793,11.8-41.066L243.1,205.532Z" transform="translate(-164.556 -20.285)"/><path class="m" d="M250.106,251.385c3.881,3.624-1.135,8.216,11.48,9.753,7.514.9,12.778-7.085,11.989-13.96-3.659-2.8-8.121-5.588-8.121-8.656-.574-2.648,1.318-4.294,3.718-5.229,1.65,1.118,3.046,3.326,4.4,5.717l2.9-3.454-2.244-9.686c8.082.989,15.5,1.368,17.253-3.414a19.892,19.892,0,0,0,2.133-18.538c-8.088,3.448-15.42,3.671-23.932,0-7.56-2.384-16.509,7.031-21.812,10.918C239.043,222.335,237.126,238.915,250.106,251.385Z" transform="translate(-176.972 -31.804)"/><path class="i" d="M351.558,250.955v.068c-.848,18.01-42.353,44.947-60.9,40.368-18.479-4.572-30.279,31.814-28.5,20.225,1.278-8.2-14.787-33.135-24.311-47.087-3.979-5.825-6.823-9.74-6.823-9.74s16.49-27.967,35.608-23.91c19.19,4.057,31.629-5.832,44.636-22.805,12.361-16.086,2.7-18.3,13.926-28.19.567-.515,1.279-1.036,1.989-1.626,0,0,8.532,18.6,15.427,37.639C347.651,229.551,351.845,243.5,351.558,250.955Z" transform="translate(-231.023 -177.743)"/><path class="i" d="M356.929,437.216a5.523,5.523,0,0,1-7.39-3.028L272.993,251.461v-.068L260.561,221.72l-14.852-35.349a5.819,5.819,0,0,1,.92-6.048,4.578,4.578,0,0,1,1.989-1.626,4.943,4.943,0,0,1,2.277-.515,5.53,5.53,0,0,1,5.114,3.542l11.8,28.116,92.037,219.7A5.875,5.875,0,0,1,356.929,437.216Z" transform="translate(-152.458 -178.182)"/><path class="p" d="M429.717,410.233a5.523,5.523,0,0,1-7.39-3.028L345.781,224.477c-.848,18.01-42.353,44.947-60.9,40.368-18.479-4.572-30.279,31.814-28.5,20.225,1.278-8.2-14.787-33.135-24.311-47.087,7.606-6.936,18.127-10.255,28.29-11.731,12.648-1.842,25.582-1.7,37.734-5.534,12.3-3.99,22.817-11.88,31.629-21.478a45.169,45.169,0,0,0,3.627-4.5c1.207-1.693,2.342-3.468,3.483-5.385,1.278-2.14,2.557-4.281,3.764-6.5l92.037,219.7A5.875,5.875,0,0,1,429.717,410.233Z" transform="translate(-225.246 -151.198)"/><g transform="translate(118.024 142.793)"><g transform="translate(0 20.15)"><path class="o" d="M317.039,291.6c-2.994,8.859-51.908,24.492-65.091,27.547l-.854-10.986-1.976-24.431.006-.176L295,277.774l-2.257-73.7,11.832-1.835c6.64,23.144,12.152,46.159,13.717,64.779l-.007.088C319.022,276.643,318.748,284.96,317.039,291.6Z" transform="translate(-249.117 -202.239)"/></g><path class="e" d="M276.871,219.414V204.222c-2.12-4.22-6.268-5.358-11.506-4.843,0,0-2.537,14.7-8.558,8.887s-1.253,12.984,8.232,12.984S276.871,219.414,276.871,219.414Z" transform="translate(-221.408 -199.264)"/></g></g><g transform="translate(706.26 290.16)"><path class="q" d="M281.134,183.205l-13.417,12.74a4.825,4.825,0,0,0,4.09-1.531l2.3-2.377a19.108,19.108,0,0,0,3.268,1.361v3.4a5.454,5.454,0,0,0,5.4,5.608h5.238a5.234,5.234,0,0,0,5.4-5.1.638.638,0,0,0,.163-.508v-3.4a19.183,19.183,0,0,0,3.275-1.361l2.289,2.377a5.471,5.471,0,0,0,7.854,0l3.77-3.908a5.8,5.8,0,0,0,0-7.986l-2.459-2.377a31.726,31.726,0,0,0,1.474-3.57h3.274a5.5,5.5,0,0,0,5.4-5.778,25.3,25.3,0,0,0-7.69,2.377c-4.912,2.039-9.823,4.762-14.9,6.462a15.446,15.446,0,0,1-10.469,4.247A11.857,11.857,0,0,1,281.134,183.205Z" transform="translate(-258.636 -143.44)"/><path class="r" d="M268.368,173.9a53.76,53.76,0,0,1,1.963-7.139l-2.289,2.377a5.5,5.5,0,0,0,0,7.986l.163.169A23.644,23.644,0,0,1,268.368,173.9Z" transform="translate(-266.325 -166.758)"/></g><g transform="translate(848.132 418.215)"><path class="s" d="M332.228,194.1a61.6,61.6,0,0,0-3.17-6.489l-.437.3c1.95,6.651,1.194,13.208-1.976,19.791-4.012,8.338-12.55,16.134-19.536,14.529-1.142-.264-2.355-.616-3.607-1.023l7.221-15.118c-10.737-5.988-15.681,5.33-15.681,5.33l-6.966,15.809,10.554,3.631h0c2.381.82,4.755,1.626,7.143,2.425a13.655,13.655,0,0,0,6.138.657C328.568,231.559,337.642,209.072,332.228,194.1Z" transform="translate(-288.075 -174.441)"/><path class="t" d="M314.379,208.09c.77-6.1-1.846-11.792-6.992-13.655-5.518-2-5.453-1.91-11-3.806-7.162-2.445-5.375-4.965-5.375-4.965-.646.711-1.044,2.486-1.278,4.017a4.125,4.125,0,0,0-.176.887c-.052.535-.085,1.063-.111,1.592l-.007.088h.007c-.248,6.157,2.081,10.092,7.41,11.921,4.266,1.463,2.851,1.111,7.149,2.465a9.1,9.1,0,0,1,5.564,4.206c.5.955,1.833,6.38-.711,10.018C308.854,220.857,314.242,215.5,314.379,208.09Z" transform="translate(-280.623 -185.664)"/></g><g transform="translate(532.976 421.669)"><path class="d" d="M254.178,187.454a41.63,41.63,0,0,0-4.723-1.28l-.091.366a15.254,15.254,0,0,1,8.193,9.909c1.755,5.818.841,13.729-3.627,16.608-.724.474-1.546.941-2.394,1.409l-3.216-10.519c-8.512,2.845-5.864,10.485-5.864,10.485l3.672,10.7,7.319-3.82h0c1.644-.86,3.294-1.72,4.931-2.594a11.673,11.673,0,0,0,3.581-2.872C269.722,206.175,264.054,191.389,254.178,187.454Z" transform="translate(-227.011 -186.174)"/><path class="t" d="M262.68,190.216a8.061,8.061,0,0,0-10.1-2.526c-3.875,1.957-3.8,1.957-7.645,3.976-4.957,2.594-5.179.542-5.179.542a5.3,5.3,0,0,0,1.194,2.459,2.351,2.351,0,0,0,.32.494c.222.264.457.522.685.772l.039.041H242c2.74,2.892,5.818,3.461,9.51,1.531,2.955-1.544,2.042-.975,4.957-2.581a6.99,6.99,0,0,1,4.925-.982c.711.169,3.959,1.917,4.3,4.863C265.7,198.8,266.066,193.616,262.68,190.216Z" transform="translate(-239.759 -182.325)"/></g></g></svg>