<svg xmlns="http://www.w3.org/2000/svg" xmlns:xlink="http://www.w3.org/1999/xlink" width="954.772" height="841.606" viewBox="0 0 954.772 841.606"><defs><style>.a{fill:#f1eff8;}.b,.c{opacity:0.5;mix-blend-mode:overlay;isolation:isolate;}.b{fill:url(#a);}.c{fill:url(#b);}.d{fill:#1b2c7b;}.e{fill:#000074;}.f{fill:#020072;}.g{fill:#e90566;}.h{fill:#e83939;}.i{fill:#fff;}.j{opacity:0.1;}.k{fill:#f4bc84;}.l{fill:#992253;}.m{fill:#091038;}.n{fill:#fbd783;}.o{fill:#b92c49;}.p{fill:#2a195b;}.q{fill:#ffbba4;}.r{fill:#f3f3f3;}.s{fill:#a3beef;}.t{fill:#748cb7;}.u{fill:#4009b7;}.v{fill:#f23c2c;}.w{fill:#052b80;}</style><linearGradient id="a" x1="0.382" y1="-0.143" x2="0.55" y2="0.881" gradientUnits="objectBoundingBox"><stop offset="0" stop-color="#fff"/><stop offset="0.085" stop-color="#f5f5f5"/><stop offset="0.229" stop-color="#dadada"/><stop offset="0.413" stop-color="#afafaf"/><stop offset="0.631" stop-color="#747474"/><stop offset="0.876" stop-color="#292929"/><stop offset="1"/></linearGradient><linearGradient id="b" x1="0" y1="0.5" x2="1" y2="0.5" xlink:href="#a"/></defs><g transform="translate(-198.348 -444.094)"><g transform="translate(198.348 444.094)"><g transform="translate(45.8 646.088)"><path class="a" d="M980.18,678.706c-93.786-27.632-182.743-22.262-262.756-7.476C640.451,685.47,571.8,708.509,515.216,719.255c-99.466,18.913-183.059,41.089-293.5-32.613-33.074-22.1-16.188-59.153,51.059-90.049,70.748-32.692,197.227-58.685,379.97-53.7C1212.975,558.064,1157.481,731.08,980.18,678.706Z" transform="translate(-205.308 -542.275)"/><path class="b" d="M717.424,643.185c-76.973,14.24-145.622,37.279-202.208,48.025C415.75,710.124,332.157,732.3,221.715,658.6c-33.074-22.1-16.188-59.153,51.059-90.049C319.16,555.157,376.135,547.3,437.7,547.3,579.35,547.3,696.642,588.935,717.424,643.185Z" transform="translate(-205.308 -514.23)"/></g><path class="a" d="M808.955,986.421a97.887,97.887,0,0,0-30.2-13.234,131.8,131.8,0,0,0-32.3-4.2c-35.259-.7-75.42,9.417-117.839,21.716-12.22,3.5-24.519,7.159-37.049,10.891-60.239,17.906-123.518,35.5-182.822,30.514-35.647-2.961-69.893-14.01-101.262-38.214-35.18-26.934-66.622-70.288-92.306-136.83-.625-1.632-1.244-3.271-1.711-4.9-28.178-77.21-14.4-149.985,20.077-207.578C300.249,533.052,444.4,478.1,513.743,557.1c82.422,93.787,172.24,85.225,219.252,42.728,13.543-12.22,23.5-27.158,28.8-43.353,23.815-72.538,140.561-150.445,237.23-91.76q5.133,3.149,9.338,6.3c66.154,49.657-20.472,114.489,1.632,216.37,22.959,106.244,102.815,39.931,124.61,137.3C1161.917,947.194,933.176,1068.765,808.955,986.421Z" transform="translate(-198.348 -444.094)"/><path class="c" d="M380.767,963.584a97.89,97.89,0,0,0-30.2-13.234,131.788,131.788,0,0,0-32.3-4.2,333.179,333.179,0,0,1-42.807-148.346c-.237-5.37-.388-10.819-.388-16.267,0-174.885,134.1-318.408,305.1-333.353,66.155,49.657-20.472,114.489,1.632,216.37,22.96,106.244,102.815,39.931,124.61,137.3C733.73,924.357,504.989,1045.927,380.767,963.584Z" transform="translate(229.84 -421.256)"/><path class="c" d="M703.144,535.572c-56.2,88.186-154.808,146.635-267.04,146.635A315,315,0,0,1,203.7,580.327c66.7-111.535,210.849-166.483,280.195-87.483C566.314,586.631,656.132,578.07,703.144,535.572Z" transform="translate(-168.497 -379.834)"/><path class="c" d="M578.747,706.627c-60.239,17.906-123.518,35.5-182.822,30.514-35.647-2.961-69.892-14.01-101.262-38.214-35.18-26.934-66.622-70.287-92.306-136.83-.625-1.632-1.244-3.271-1.711-4.9A223.95,223.95,0,0,1,353.895,496.95a184.52,184.52,0,0,1,18.676.862,224.752,224.752,0,0,1,156.907,83.2c4.672,5.837,9.108,11.911,13.234,18.215A222.988,222.988,0,0,1,578.747,706.627Z" transform="translate(-185.523 -149.125)"/><g transform="translate(32.727 39.087)"><g transform="translate(282.701 23.572)"><path class="d" d="M413.816,534.869l-47.939,60.548-10.042,12.608a9.333,9.333,0,0,1-13.076,1.4l-21.874-17.353c.625-6.62,3.5-22.42,13.931-24.677a20.053,20.053,0,0,0,13.859-7.548,1.636,1.636,0,0,0,.467-.777,20.129,20.129,0,0,0-3.738-27.783,22.094,22.094,0,0,0-3.35-2.185,20.329,20.329,0,0,0-29.652,20.63,12.18,12.18,0,0,1-3.034,8.246c-4.593,5.837-13.234,9.344-17.748,10.9l-21.867-17.353a9.128,9.128,0,0,1-1.481-12.924l19.538-24.671c-1.717-4.981-5.139-12.529-10.279-16.576a12.863,12.863,0,0,0-8.324-3.034A20.418,20.418,0,1,1,279.4,458.047a20.112,20.112,0,0,1,7.555,13.931c2.178,9.8,15.872,12.766,23.348,13.622l15.951-20.156a9.161,9.161,0,0,1,12.924-1.481L362.915,482.8l49.269,39.069A9.308,9.308,0,0,1,413.816,534.869Z" transform="translate(-246.281 -453.615)"/><path class="e" d="M316.607,534.474a20.308,20.308,0,0,0-4.2,15.26,12.18,12.18,0,0,1-3.034,8.246c-4.593,5.837-13.234,9.344-17.748,10.9l-21.867-17.353a9.128,9.128,0,0,1-1.481-12.924l19.538-24.671c-1.717-4.981-5.139-12.529-10.279-16.576a12.863,12.863,0,0,0-8.324-3.034A20.418,20.418,0,1,1,279.4,458.047a20.112,20.112,0,0,1,7.555,13.931c2.178,9.8,15.872,12.766,23.348,13.622l15.951-20.156a9.161,9.161,0,0,1,12.924-1.481L362.915,482.8a63.423,63.423,0,0,0-17.978,28.1,62.718,62.718,0,0,0-2.882,18.209A20.368,20.368,0,0,0,316.607,534.474Z" transform="translate(-246.281 -453.615)"/><path class="f" d="M302.609,505.986l-10.042,12.608a9.332,9.332,0,0,1-13.076,1.4l-21.874-17.353c.625-6.62,3.5-22.42,13.931-24.677a20.053,20.053,0,0,0,13.859-7.548,1.635,1.635,0,0,0,.467-.777c5.449,10.582,13.694,20.078,16.109,31.751A31.531,31.531,0,0,1,302.609,505.986Z" transform="translate(-183.014 -364.184)"/></g><g transform="translate(107.94)"><path class="g" d="M384.956,525.2l-17.748,24.677c-7.239-.388-24.513-2.724-27.4-13.937a22.175,22.175,0,1,0-34.95,21.406,22.322,22.322,0,0,0,16.813,3.817,13.821,13.821,0,0,1,9.187,2.8c6.455,4.751,10.74,13.931,12.608,18.761L325.8,607.313a9.932,9.932,0,0,1-13.931,2.257l-27.783-20c-5.3,2.1-13.313,6.225-17.518,12.062a13.91,13.91,0,0,0-2.8,9.107,22.156,22.156,0,1,1-39.852-9.186,21.567,21.567,0,0,1,14.708-8.95c10.509-2.8,13.076-17.748,13.622-25.921l-6.85-4.9-15.872-11.437a10.026,10.026,0,0,1-2.264-13.938L286.418,454.3a10.142,10.142,0,0,1,14.089-2.415l25.526,18.366,56.744,40.866A10.124,10.124,0,0,1,384.956,525.2Z" transform="translate(-219.724 -450.034)"/><path class="h" d="M384.956,508.054l-17.748,24.677c-7.239-.388-24.513-2.724-27.4-13.937a22.175,22.175,0,1,0-34.95,21.406,22.323,22.323,0,0,0,16.813,3.817,13.821,13.821,0,0,1,9.187,2.8c6.455,4.751,10.74,13.931,12.608,18.761L325.8,590.166a9.932,9.932,0,0,1-13.931,2.257l-27.783-20c-5.3,2.1-13.313,6.225-17.518,12.062a13.909,13.909,0,0,0-2.8,9.107,22.156,22.156,0,1,1-39.852-9.186,21.567,21.567,0,0,1,14.708-8.949c10.509-2.8,13.076-17.748,13.622-25.921l-6.85-4.9a55.337,55.337,0,0,0,13.312-7.318A47.019,47.019,0,0,0,275.916,510c1.4-6.614,1.323-13.464,2.724-20.078a45.471,45.471,0,0,1,19.61-28.257c8.4-5.37,18.057-7.706,27.783-8.561l56.744,40.866A10.124,10.124,0,0,1,384.956,508.054Z" transform="translate(-219.724 -432.887)"/></g><g transform="translate(805.483 641.586)"><path class="i" d="M325.724,576.161c4.889-1.171,9.121-4.738,13.2-7.956,4.106-3.231,7.666-7.219,9.351-11.753a16.788,16.788,0,0,0,1.29-6.476c.132-1.546-3.066-.184-4.8,1.159-3.929,2.849-6.627,7.778-6.074,11.766a5.245,5.245,0,0,0,2.935,4.448c1.684.731,4.021.323,6.133-.717,4.409-2.132,7.3-6.62,10.963-10.6,1.843-1.981,4.4-3.85,7.061-4.212a8.115,8.115,0,0,1,6.541,1.882c3.27,3.053,3.277,8.1,2.691,12.668.29-4.534-.2-9.384-3.442-11.858a7.4,7.4,0,0,0-5.883-1.441,10.934,10.934,0,0,0-5.923,3.843c-3.257,3.764-6.364,8.673-11.516,11.312-2.474,1.25-5.4,1.869-7.726.928a6.614,6.614,0,0,1-3.869-5.547c-.566-4.936,2.659-10.562,7.265-13.846a14.751,14.751,0,0,1,3.777-1.974,4.5,4.5,0,0,1,2.218-.184,1.626,1.626,0,0,1,1.375,1.612c.217,2.731-.6,5.008-1.573,7.489-2.007,4.883-6.028,9.095-10.3,12.207C335.154,571.923,330.627,575.312,325.724,576.161Z" transform="translate(-325.724 -547.53)"/></g><path class="j" d="M689.439,703.354l-.625,1.395a131.79,131.79,0,0,0-32.3-4.2c-35.259-.7-75.42,9.417-117.839,21.716.079-.7.158-1.323.237-1.948v-.158c.309-1.79.618-3.659.855-5.449a102.753,102.753,0,0,1,3.58-14.944,29,29,0,0,1-.079-7.39c-.237-.158-.467-.237-.7-.389a22.146,22.146,0,0,0,1.171-2.336,48.592,48.592,0,0,1,3.659-11.286c3.192-17.669-1.092-42.109-2.8-66.082-9.884,9.344-17.9,15.491-21.558,15.491l-57.442-2.021-4.126-.158-38.214-1.481-2.8.237c-.151.151-.23.309-.388.388-5.758,3.271-16.03-1.322-16.03-1.322-35.963,13.075-71.84,23.505-92.543,19.221l-.467-.23c2.1,31.363,2.955,59.225-1.013,78.993a1.638,1.638,0,0,1-.388.237,345.653,345.653,0,0,1,9.186,42.03c-35.647-2.961-69.892-14.01-101.262-38.213.079-2.652.309-5.449.546-8.331a14.54,14.54,0,0,1-2.645-2.027c4.824-63.588-9.963-129.354,9.029-143.983,6.146-3.271,16.109-5.06,27.474-5.3a35.81,35.81,0,0,0,2.257-7.469l-23.664-17.59,5.061-13.543,6.929-18.288,24.9-12.069,23.275,7.4,4.745,20.084,1.25,5.054s-4.442-2.1-9.884-4.277c1.4,14.319-1.092,32.456-11.286,35.18-.7.23-1.4.388-2.027.546a43.9,43.9,0,0,0,.934,6.146c11.674,1.481,23.039,4.356,31.6,8.561l18.445,42.261,76.822-7.081s5.37-8.173,7.39-7.081c.934.467.855,1.244.625,2.1l6.923-4.284,2.573,2.8a.975.975,0,0,1,.467.079,7.561,7.561,0,0,1,2.02,2.494l4.435,4.823,26.618-4.126,7.239-1.093,55.027-8.482,34.791-35.41a15.937,15.937,0,0,1,4.83-3.271c5.133-3.271,12.76-5.607,21.637-7,1.323-.158,2.718-.316,4.12-.467.158-.7.316-1.481.467-2.336h-.231l-4.356,2.8-5.218-2.415-1.244-7.008a79.781,79.781,0,0,1-7.239-19.222l-4.593,1.711-6.85-18.6,19.3-14.556,24.441,1.013s1.79,1.632,4.284,3.889l.935-.237.151,1.25c5.3,4.745,12.609,11.358,12.687,11.674.237.389-5.679,23.736-5.679,23.736l-2.8,3.034.079.862c-.625.388-1.323.777-2.027,1.164l-2.487,2.646-.855-.7a51.705,51.705,0,0,0,1.711,10.582A123.079,123.079,0,0,1,613.71,552.2c12.839,1.632,24.124,4.982,30.119,9.884a7.708,7.708,0,0,1,3.5,3.81c13.622,34.325,25.138,74.1,21.17,81.027l-7.318,12.142,26.855,12.918C695.427,675.564,696.053,689.574,689.439,703.354Z" transform="translate(-141.132 -214.742)"/><g transform="translate(0 252.922)"><g transform="translate(245.435 64.473)"><path class="k" d="M340.393,569.392l-61.515-2.165-38.26-1.487,2.534-12.51,33.824-5.218,55.066-8.436,34.8-35.4c9.417-10.114,43.425-6.949,33.989,7.166C377.5,539.984,348.388,569.432,340.393,569.392Z" transform="translate(-240.618 -498.265)"/><path class="l" d="M309.56,569.392l-61.515-2.165a188.938,188.938,0,0,1-1.9-19.215l55.066-8.436,34.8-35.4c9.417-10.114,43.425-6.949,33.989,7.166C346.668,539.984,317.555,569.432,309.56,569.392Z" transform="translate(-209.785 -498.265)"/></g><g transform="translate(396.283 196.332)"><g transform="translate(43.095 251.719)"><path class="k" d="M279,561.519l2.839,11.249L271.186,586.6,303,572.618l-5.7-6.126-2.99-9.937Z" transform="translate(-263.975 -556.555)"/><path class="d" d="M305.4,558.29c-5.343,5.324-11.733,9.384-21.413,9.456l-13.5,16.333c-5.074,10.483,39.609-8.647,41.9-16.261C312.66,563.851,309.935,558.579,305.4,558.29Z" transform="translate(-270.09 -546.871)"/></g><path class="e" d="M321.232,518.3c10.259,39.74,3.4,70.13-.605,117.694l19.485,134.435L320.791,776.7,275.5,630.456c-3.7-23.493-20.505-78.158-6.442-93.392Z" transform="translate(-263.541 -518.303)"/></g><g transform="translate(342.562 188.633)"><g transform="translate(0 247.631)"><path class="k" d="M270.655,555.712l-.085,11.6-13.795,10.7,34.306-5.521-3.969-7.363-.391-10.369Z" transform="translate(-247.581 -554.763)"/><path class="d" d="M296.456,556.633c-6.508,3.81-13.714,6.127-23.1,3.764l-17.169,12.4c-7.561,8.87,40.5,1.606,44.636-5.186C302.082,563.839,300.773,558.061,296.456,556.633Z" transform="translate(-255.378 -544.33)"/></g><path class="e" d="M330.224,517.133c-.151,41.142-14.372,68.826-30.257,113.746L285,765.951l-3.027.152-16.03,1.059h-1.211l-7.107-152.92c1.362-13.313,1.211-37.206,3.777-57.626v-.152l.908-5.448c2.119-13.313,5.9-24.5,12.707-28.738Z" transform="translate(-242.858 -517.133)"/></g><path class="l" d="M258.751,638.47c24.052,12.174,58.633,12.99,94.405,12.51L363.52,512.366c-10.364-18.491-87.936-20.972-98.728-1.106C250.473,550.724,275.571,612.457,258.751,638.47Z" transform="translate(106.01 -438.637)"/><g transform="translate(372.934)"><path class="k" d="M264.183,518.439c2.711-2.9,2.81-12.832,3.264-21.808l16.774-2.178c.072,8.39.645,16.123,2.823,21.769C279.858,525.408,266.782,525.915,264.183,518.439Z" transform="translate(-236.61 -455.068)"/><path class="k" d="M275.548,541.68c7.311,2.626,19.024-6.291,29.494-11.937l-4.429-40.563-38.332,7.37C258.544,510.988,268.948,537.323,275.548,541.68Z" transform="translate(-251.621 -484.494)"/><path class="m" d="M308.86,537.526l-7.844-6.423.855-11.93-4.679-2.876-1.764,9.213-2.856.256-1.658-12.812-24.078,8.654-6.844-18.617L279.3,488.468l24.407,1.007s17.919,16.122,18.13,16.557-5.679,23.789-5.679,23.789Z" transform="translate(-259.993 -488.468)"/></g><path class="i" d="M269.591,522.814l21.7,18.787-2.7,2.174-21.023-18.941Z" transform="translate(155.191 -296.796)"/><path class="i" d="M266.513,523.331l-8.318,9.528.908-5.449,5.449-6.048Z" transform="translate(102.907 -304.895)"/><path class="k" d="M265.231,515.244l-9.53-10.171-19.04,11.847,1.456,4.136,9.933-2.252,6.278,9.644,8.365-.7Z" transform="translate(-17.261 -395.805)"/><g transform="translate(0 210.717)"><path class="n" d="M229.457,567.9a20.322,20.322,0,0,0-2.494,9.128c-.1,5.192-23.039.869-23.039.869a108.637,108.637,0,0,1,5.212-12c3.3-6.522,6.146-9.338,6.146-9.338Z" transform="translate(-199.957 -319.18)"/><path class="e" d="M235.282,520.489c-8.739,62.423,7.64,89.7,2.678,113.521S205.1,761.924,205.1,761.924c2.264,4.547,12.859,8.41,19.084,7.2,24.157-55.731,53.007-120.208,56.633-140.173,3.994-22.512,7.66-62.417,2.4-103.2Z" transform="translate(-193.378 -520.489)"/><path class="d" d="M207.933,558.981c-3.929,4.415-5.376,8.982-4.231,13.714,16.4,3.646,32.284,7.581,47.768,10.049,1.231-5.9-12.793-17-21.031-21.216A26.215,26.215,0,0,1,207.933,558.981Z" transform="translate(-203.321 -305.681)"/></g><g transform="translate(79.486 215.541)"><path class="n" d="M240.537,566.368a20.312,20.312,0,0,0-.665,9.443c.921,5.107-22.42,5.363-22.42,5.363a108.022,108.022,0,0,1,2.764-12.786c1.961-7.041,4.192-10.358,4.192-10.358Z" transform="translate(-203.949 -315.806)"/><path class="e" d="M215.4,525.46c3.665,62.923,25.065,86.462,24.868,110.8s-7.14,131.868-7.14,131.868c3.113,4.014,14.254,5.725,20.123,3.323,12.766-59.383,28.415-128.269,28.06-148.557-.5-22.861-4.725-62.706-17.873-101.67Z" transform="translate(-215.4 -521.222)"/><path class="d" d="M219.669,562.34c-2.988,5.1-3.507,9.865-1.461,14.28,16.794.355,33.14,1.1,48.808.487.053-6.028-15.872-14.155-24.776-16.675A26.247,26.247,0,0,1,219.669,562.34Z" transform="translate(-206.594 -302.407)"/></g><path class="o" d="M209.918,649.008c12.01,12.292,76.466,16.695,94.57,6.324,6.594-33.113-.191-89-4.027-145.859-22.874-11.227-65.483-13.016-81.586-4.442C199.929,519.66,214.676,585.407,209.918,649.008Z" transform="translate(-172.233 -426.103)"/><path class="n" d="M214.347,519.057c3.869-6.541,4.633-13.918,4.975-22.282h17.768c-.27,8.153-.079,16.419,2.415,24.782C237.662,525.045,216.1,523.67,214.347,519.057Z" transform="translate(-141.791 -442.11)"/><path class="n" d="M214.067,533c10.325,4.633,17.662,13,27.046,8.956,13.247-3.521,13.543-33.364,9.009-46.676l-36-4.2Z" transform="translate(-143.353 -473.886)"/><path class="p" d="M211.336,533.075l27.691,20.545,13.694-16.84-9.279-9.522,4.245-5.751,5.034,6.291,3.3-3.8-2.56-10.654c9.239,1.086,24.032,8.377,24.032,8.377l-6.015-25.184-23.21-7.35-24.921,12.009Z" transform="translate(-158.594 -484.478)"/><g transform="translate(101.346 83.37)"><path class="q" d="M245.6,501.137l18.445,42.241,76.855-7.061,2.678,12.641c-35.936,13.076-71.821,23.552-92.543,19.228-9.476-2.744-28.217-36.253-32.317-50.315Z" transform="translate(-218.722 -501.137)"/><path class="n" d="M239.967,525.237s10.305,4.659,16.07,1.369c6.14-3.514,3.277-17.912-.809-20.387s-8.173,6.2-9.766,4.574,1.237-4.2-.77-5.3-7.4,7.107-7.4,7.107Z" transform="translate(-115.107 -477.416)"/></g><g transform="translate(429.172 64.472)"><path class="k" d="M330.1,584.429l-31.916,52.638-19.965,32.666-9.68-8.318,11.95-32.068L300,577.164,286.083,529.52c-4.238-13.161,15.129-41.293,22.841-26.164C322.533,537.687,334.029,577.467,330.1,584.429Z" transform="translate(-268.539 -494.145)"/><path class="l" d="M321.44,586.693l-33.035,54.494a198.409,198.409,0,0,1-18.32-7.989l20.2-54.02-14.405-49.321c-4.389-13.622,15.655-42.747,23.638-27.086C313.616,538.313,325.513,579.494,321.44,586.693Z" transform="translate(-259.911 -498.265)"/></g><path class="m" d="M276.7,494.352l-3.92,13.343h-9.937l1.181,7.015,5.216,2.434,6.522-4.133,3.79-18.914Z" transform="translate(128.822 -457.052)"/></g></g></g><g transform="translate(772.113 523.329)"><rect class="d" width="250.929" height="444.776" rx="5.42"/><g transform="translate(10.717 8.979)"><path class="i" d="M495.41,457.5H463.52v7.989a8.032,8.032,0,0,1-8.035,8.029H348.34a8.027,8.027,0,0,1-8.028-8.029V457.5H308.422a21.255,21.255,0,0,0-21.255,21.255V812.14A21.254,21.254,0,0,0,308.422,833.4H495.41a21.253,21.253,0,0,0,21.249-21.255V478.754A21.253,21.253,0,0,0,495.41,457.5Z" transform="translate(-287.167 -457.499)"/></g><g transform="translate(101.144 391.085)"><circle class="r" cx="20.392" cy="20.392" r="20.392" transform="translate(0 39.819) rotate(-77.507)"/></g><g transform="translate(168.21 12.27)"><path d="M316.226,460.565A2.563,2.563,0,1,1,313.66,458,2.56,2.56,0,0,1,316.226,460.565Z" transform="translate(-311.1 -457.999)"/></g><g transform="translate(101.084 279.018)"><rect width="54.918" height="3.296"/></g><g transform="translate(66.668 294.551)"><rect width="123.749" height="3.296"/></g><g transform="translate(66.668 310.084)"><rect width="123.749" height="3.296"/></g><g transform="translate(66.668 325.616)"><rect width="123.749" height="3.296"/></g><g transform="translate(122.536 456.714)"><rect width="5.858" height="193.879"/></g><g transform="translate(118.422 444.776)"><rect width="14.085" height="19.044"/></g><g transform="translate(272.381 298.624)"><path class="s" d="M354.266,501.514s-4.376,31.317-27.336,39.167c22.96,7.851,27.336,39.168,27.336,39.168s4.376-31.317,27.336-39.168C358.642,532.831,354.266,501.514,354.266,501.514Z" transform="translate(-326.93 -501.514)"/></g><g transform="translate(327.053 263.753)"><path class="d" d="M343.2,496.215s-1.27,9.121-7.963,11.411c6.692,2.29,7.963,11.411,7.963,11.411s1.277-9.121,7.969-11.411C344.477,505.336,343.2,496.215,343.2,496.215Z" transform="translate(-335.238 -496.215)"/></g><g transform="translate(343.491 353.513)"><path class="t" d="M356.5,509.855s-3,21.492-18.761,26.882c15.76,5.383,18.761,26.875,18.761,26.875s3-21.492,18.755-26.875C359.5,531.347,356.5,509.855,356.5,509.855Z" transform="translate(-337.736 -509.855)"/></g><g transform="translate(320.67 408.855)"><path class="u" d="M346.8,518.265s-2.007,14.359-12.536,17.959c10.529,3.606,12.536,17.965,12.536,17.965s2-14.359,12.529-17.965C348.8,532.624,346.8,518.265,346.8,518.265Z" transform="translate(-334.268 -518.265)"/></g></g><g transform="translate(838.62 599.726)"><path class="v" d="M356.167,473.107c23.842,0,44.919,15.129,52.618,36.312a17.436,17.436,0,0,1,4.527-1.066,60.516,60.516,0,1,0-95.293,66.879c9.489,9.127,29.9,27.711,34.074,32.975a7.109,7.109,0,0,0,11.2,0c5.074-6.482,34.015-34.9,37.628-39.214a28.833,28.833,0,0,1-5.8-1.691c-.632.625-1.283,1.244-1.941,1.843a55.154,55.154,0,1,1-37.016-96.037Z" transform="translate(-295.645 -467.744)"/><g transform="translate(31.344 26.888)"><path class="w" d="M343.843,478.843a80.019,80.019,0,0,0-6.581-6.528l-.421.546c5.107,7.238,6.785,15.477,5.442,24.749-1.7,11.746-9.3,24.723-18.7,25.684-1.54.158-3.211.237-4.942.263l3.007-21.275c-15.866-2.777-17.544,12.964-17.544,12.964l-2.415,22.006h14.7c3.31,0,6.62-.007,9.93-.039a18.8,18.8,0,0,0,7.976-1.75C354.254,525.651,356.636,494.7,343.843,478.843Z" transform="translate(-293.265 -469.123)"/><path class="v" d="M339.042,489.222c-1.474-7.686-7.041-13.49-14.24-13.6-7.732-.118-7.614-.046-15.346-.02-9.963.013-8.732-3.771-8.732-3.771-.52,1.132-.309,3.435.007,5.383a5.226,5.226,0,0,0,.138,1.145c.145.671.316,1.323.5,1.974l.027.112.006-.007c2.152,7.548,6.647,11.338,14.076,11.332,5.936-.007,4.021.158,9.956.007a11.947,11.947,0,0,1,8.667,2.777c1,.941,4.856,6.943,3.119,12.391C337.219,506.944,341.832,498.238,339.042,489.222Z" transform="translate(-300.408 -471.83)"/></g><g transform="translate(1.033 0.118)"><path class="v" d="M356.416,467.762c-33.475,0-60.614,26.8-60.614,59.844s27.138,59.844,60.614,59.844,60.614-26.79,60.614-59.844S389.891,467.762,356.416,467.762Zm.118,114.489c-30.244,0-54.757-24.2-54.757-54.059s24.513-54.059,54.757-54.059,54.751,24.2,54.751,54.059S386.772,582.251,356.534,582.251Z" transform="translate(-295.802 -467.762)"/></g></g></g></svg>